<svg width="1200" height="500" viewBox="0 0 1200 500" xmlns="http://www.w3.org/2000/svg" style="background:#1a1a1a"><title>screenshot</title><path d="M667.136 207.783c-4.174 0-8.833 3.139-10.404 7.003L600.132 354l-55.173-139.19c-1.538-3.88-6.17-7.027-10.335-7.027h-68.12c-6.257 0-11.329 5.083-11.329 11.326v13.22c0 6.256 5.078 11.327 11.331 11.327h58.111v19.567h-58.11c-6.259 0-11.332 5.077-11.332 11.328v17.436c0 6.257 5.076 11.328 11.332 11.328h67.172v20.333l-88.342-.005c-6.261 0-11.337-5.067-11.337-11.328V198.327c0-6.256 5.072-11.324 11.334-11.32l96.84.058 8.572-.003c4.174-.002 8.826 3.132 10.391 6.998l38.994 96.324 38.918-96.38c1.562-3.868 6.21-7.004 10.387-7.004H709.886s3.986.083 6.134 0c11.15.182 20.44 2.701 27.873 7.616 7.37 4.854 12.688 10.384 15.956 16.59 2.37 3.256 4.004 7.526 4.901 12.81.834 5.284 1.25 15.729 1.25 31.335 0 15.36-.416 25.743-1.25 31.15-.897 5.407-2.53 9.739-4.901 12.995-3.268 6.206-8.587 11.674-15.956 16.405-7.433 4.915-13.09 7.498-27.873 7.741-14.784.243-25.533-2.826-32.902-7.741-6.207-3.917-11.009-8.34-14.405-13.268a35.903 35.903 0 0 1-1.934-3.137 147.734 147.734 0 0 1-2.788-5.806c-.769-1.905-1.41-4.301-1.922-7.189-.961-5.407-1.442-15.79-1.442-31.15 0-15.606.48-26.051 1.442-31.335 1.025-5.284 2.475-9.924 4.71-12.81 2.649-3.423 3.877-3.423 3.877-3.423h-3.52zm16.415 20.44c.981-4.532 2.98-8.238 5.994-11.117 2.454-2.757 5.68-5.054 9.676-6.892 3.926-1.776 8.624-2.726 14.092-2.848 5.54.122 10.342 1.072 14.408 2.848 3.856 1.838 6.941 4.135 9.255 6.892 3.015 2.879 5.083 6.585 6.205 11.118 1.052 4.778 1.577 13.752 1.579 26.922-.002 13.17-.527 22.083-1.58 26.739-1.12 4.655-3.19 8.423-6.204 11.302-2.314 2.756-5.399 4.992-9.255 6.707-4.066 2.022-8.869 3.033-14.408 3.033-5.468 0-10.166-1.011-14.092-3.033-3.997-1.715-7.222-3.95-9.676-6.707-3.014-2.88-5.013-6.647-5.994-11.302-1.122-4.656-1.683-13.568-1.683-26.739 0-13.17.561-22.144 1.683-26.922z" fill="#FFF" fill-rule="evenodd"/></svg>