<svg height="200" viewBox="0 0 200 200" width="200" xmlns="http://www.w3.org/2000/svg"><path d="m100 0c55.228474 0 100 44.771526 100 100s-44.771526 100-100 100-100-44.771526-100-100 44.771526-100 100-100zm19 33c-.353662-3.3179305-9.830888-5.9999991-19-6-10.5293715.0000009-18.9018847 2.6820695-19 6v84.000779c0 1.105867-.898771 1.999221-2.0074612 1.999221h-30.9850776c-1.1071157 0-1.9252676.889421-1.8238767 1.986578 0 0-.1881479.981844.8164155 2.013422l51.5960301 52.56954c.7718329.786396 2.0325489.790021 2.8079399 0l51.59603-52.56954c.998836-1.031578.814014-2.013422.814014-2.013422.142254-1.099064-.712785-1.986578-1.821475-1.986578h-30.985078c-1.107115 0-2.007461-.895082-2.007461-1.999221z" fill="#009bcd" fill-rule="evenodd"/></svg>