<?xml version="1.0" encoding="UTF-8" standalone="no"?>
<!-- Created with Inkscape (http://www.inkscape.org/) -->

<svg
   xmlns:dc="http://purl.org/dc/elements/1.1/"
   xmlns:cc="http://creativecommons.org/ns#"
   xmlns:rdf="http://www.w3.org/1999/02/22-rdf-syntax-ns#"
   xmlns:svg="http://www.w3.org/2000/svg"
   xmlns="http://www.w3.org/2000/svg"
   xmlns:xlink="http://www.w3.org/1999/xlink"
   version="1.1"
   width="546.10669"
   height="572.79492"
   id="svg3075">
  <defs
     id="defs3077">
    <linearGradient
       id="linearGradient3890">
      <stop
         id="stop3892"
         style="stop-color:#ffffff;stop-opacity:1"
         offset="0" />
      <stop
         id="stop3894"
         style="stop-color:#c6cbcb;stop-opacity:1"
         offset="1" />
    </linearGradient>
    <filter
       color-interpolation-filters="sRGB"
       id="filter3301">
      <feTurbulence
         baseFrequency="0.002 0.107"
         numOctaves="1"
         id="feTurbulence3303" />
      <feColorMatrix
         result="result91"
         values="2 0 0 0 0 0 0 0 0 0 0 0 0 0 0 0 0 0 0.5 0.5"
         id="feColorMatrix3305" />
      <feDisplacementMap
         in2="result91"
         scale="14.3"
         xChannelSelector="R"
         yChannelSelector="A"
         in="SourceGraphic"
         id="feDisplacementMap3307" />
    </filter>
    <radialGradient
       cx="-701.42859"
       cy="277.20801"
       r="175.87262"
       fx="-701.42859"
       fy="277.20801"
       id="radialGradient3896"
       xlink:href="#linearGradient3890"
       gradientUnits="userSpaceOnUse"
       gradientTransform="matrix(0.85404428,1.3290125,-2.5712139,1.6523023,610.38355,762.25242)" />
    <radialGradient
       cx="-491.6019"
       cy="619.95874"
       r="85.171921"
       fx="-491.6019"
       fy="619.95874"
       id="radialGradient3904"
       xlink:href="#linearGradient3890"
       gradientUnits="userSpaceOnUse"
       gradientTransform="matrix(0.44875427,-0.25722083,0.22406364,0.3909073,-409.90366,248.77473)" />
    <radialGradient
       cx="-491.6019"
       cy="619.95874"
       r="85.171921"
       fx="-491.6019"
       fy="619.95874"
       id="radialGradient3934"
       xlink:href="#linearGradient3890"
       gradientUnits="userSpaceOnUse"
       gradientTransform="matrix(0.44875427,-0.25722083,0.22406364,0.3909073,-409.90366,248.77473)" />
    <radialGradient
       cx="-491.6019"
       cy="619.95874"
       r="85.171921"
       fx="-491.6019"
       fy="619.95874"
       id="radialGradient3936"
       xlink:href="#linearGradient3890"
       gradientUnits="userSpaceOnUse"
       gradientTransform="matrix(0.44875427,-0.25722083,0.22406364,0.3909073,-409.90366,248.77473)" />
    <radialGradient
       cx="-491.6019"
       cy="619.95874"
       r="85.171921"
       fx="-491.6019"
       fy="619.95874"
       id="radialGradient3938"
       xlink:href="#linearGradient3890"
       gradientUnits="userSpaceOnUse"
       gradientTransform="matrix(0.44875427,-0.25722083,0.22406364,0.3909073,-409.90366,248.77473)" />
    <radialGradient
       cx="-491.6019"
       cy="619.95874"
       r="85.171921"
       fx="-491.6019"
       fy="619.95874"
       id="radialGradient3940"
       xlink:href="#linearGradient3890"
       gradientUnits="userSpaceOnUse"
       gradientTransform="matrix(0.44875427,-0.25722083,0.22406364,0.3909073,-409.90366,248.77473)" />
    <radialGradient
       cx="-491.6019"
       cy="619.95874"
       r="85.171921"
       fx="-491.6019"
       fy="619.95874"
       id="radialGradient3942"
       xlink:href="#linearGradient3890"
       gradientUnits="userSpaceOnUse"
       gradientTransform="matrix(0.44875427,-0.25722083,0.22406364,0.3909073,-409.90366,248.77473)" />
    <radialGradient
       cx="-491.6019"
       cy="619.95874"
       r="85.171921"
       fx="-491.6019"
       fy="619.95874"
       id="radialGradient3944"
       xlink:href="#linearGradient3890"
       gradientUnits="userSpaceOnUse"
       gradientTransform="matrix(0.44875427,-0.25722083,0.22406364,0.3909073,-409.90366,248.77473)" />
    <radialGradient
       cx="-701.42859"
       cy="277.20801"
       r="175.87262"
       fx="-701.42859"
       fy="277.20801"
       id="radialGradient3946"
       xlink:href="#linearGradient3890"
       gradientUnits="userSpaceOnUse"
       gradientTransform="matrix(0.85404428,1.3290125,-2.5712139,1.6523023,610.38355,762.25242)" />
    <radialGradient
       cx="-701.42859"
       cy="277.20801"
       r="175.87262"
       fx="-701.42859"
       fy="277.20801"
       id="radialGradient3948"
       xlink:href="#linearGradient3890"
       gradientUnits="userSpaceOnUse"
       gradientTransform="matrix(0.85404428,1.3290125,-2.5712139,1.6523023,610.38355,762.25242)" />
    <radialGradient
       cx="-701.42859"
       cy="277.20801"
       r="175.87262"
       fx="-701.42859"
       fy="277.20801"
       id="radialGradient3950"
       xlink:href="#linearGradient3890"
       gradientUnits="userSpaceOnUse"
       gradientTransform="matrix(0.85404428,1.3290125,-2.5712139,1.6523023,610.38355,762.25242)" />
    <radialGradient
       cx="-701.42859"
       cy="277.20801"
       r="175.87262"
       fx="-701.42859"
       fy="277.20801"
       id="radialGradient3952"
       xlink:href="#linearGradient3890"
       gradientUnits="userSpaceOnUse"
       gradientTransform="matrix(0.85404428,1.3290125,-2.5712139,1.6523023,610.38355,762.25242)" />
    <radialGradient
       cx="-701.42859"
       cy="277.20801"
       r="175.87262"
       fx="-701.42859"
       fy="277.20801"
       id="radialGradient3954"
       xlink:href="#linearGradient3890"
       gradientUnits="userSpaceOnUse"
       gradientTransform="matrix(0.85404428,1.3290125,-2.5712139,1.6523023,610.38355,762.25242)" />
    <radialGradient
       cx="-701.42859"
       cy="277.20801"
       r="175.87262"
       fx="-701.42859"
       fy="277.20801"
       id="radialGradient3956"
       xlink:href="#linearGradient3890"
       gradientUnits="userSpaceOnUse"
       gradientTransform="matrix(0.85404428,1.3290125,-2.5712139,1.6523023,610.38355,762.25242)" />
    <radialGradient
       cx="-701.42859"
       cy="277.20801"
       r="175.87262"
       fx="-701.42859"
       fy="277.20801"
       id="radialGradient3958"
       xlink:href="#linearGradient3890"
       gradientUnits="userSpaceOnUse"
       gradientTransform="matrix(0.85404428,1.3290125,-2.5712139,1.6523023,610.38355,762.25242)" />
    <radialGradient
       cx="-701.42859"
       cy="277.20801"
       r="175.87262"
       fx="-701.42859"
       fy="277.20801"
       id="radialGradient3960"
       xlink:href="#linearGradient3890"
       gradientUnits="userSpaceOnUse"
       gradientTransform="matrix(0.85404428,1.3290125,-2.5712139,1.6523023,610.38355,762.25242)" />
    <radialGradient
       cx="-701.42859"
       cy="277.20801"
       r="175.87262"
       fx="-701.42859"
       fy="277.20801"
       id="radialGradient3962"
       xlink:href="#linearGradient3890"
       gradientUnits="userSpaceOnUse"
       gradientTransform="matrix(0.85404428,1.3290125,-2.5712139,1.6523023,610.38355,762.25242)" />
    <radialGradient
       cx="-701.42859"
       cy="277.20801"
       r="175.87262"
       fx="-701.42859"
       fy="277.20801"
       id="radialGradient3964"
       xlink:href="#linearGradient3890"
       gradientUnits="userSpaceOnUse"
       gradientTransform="matrix(0.85404428,1.3290125,-2.5712139,1.6523023,610.38355,762.25242)" />
    <radialGradient
       cx="-701.42859"
       cy="277.20801"
       r="175.87262"
       fx="-701.42859"
       fy="277.20801"
       id="radialGradient3966"
       xlink:href="#linearGradient3890"
       gradientUnits="userSpaceOnUse"
       gradientTransform="matrix(0.85404428,1.3290125,-2.5712139,1.6523023,610.38355,762.25242)" />
    <radialGradient
       cx="-701.42859"
       cy="277.20801"
       r="175.87262"
       fx="-701.42859"
       fy="277.20801"
       id="radialGradient3968"
       xlink:href="#linearGradient3890"
       gradientUnits="userSpaceOnUse"
       gradientTransform="matrix(0.85404428,1.3290125,-2.5712139,1.6523023,610.38355,762.25242)" />
    <radialGradient
       cx="-701.42859"
       cy="277.20801"
       r="175.87262"
       fx="-701.42859"
       fy="277.20801"
       id="radialGradient3970"
       xlink:href="#linearGradient3890"
       gradientUnits="userSpaceOnUse"
       gradientTransform="matrix(0.85404428,1.3290125,-2.5712139,1.6523023,610.38355,762.25242)" />
    <radialGradient
       cx="-701.42859"
       cy="277.20801"
       r="175.87262"
       fx="-701.42859"
       fy="277.20801"
       id="radialGradient3972"
       xlink:href="#linearGradient3890"
       gradientUnits="userSpaceOnUse"
       gradientTransform="matrix(0.85404428,1.3290125,-2.5712139,1.6523023,610.38355,762.25242)" />
    <filter
       x="-0.25"
       y="-0.25"
       width="1.5"
       height="1.5"
       color-interpolation-filters="sRGB"
       id="filter3058">
      <feGaussianBlur
         result="result91"
         stdDeviation="5"
         id="feGaussianBlur3060" />
      <feComposite
         in2="result91"
         operator="over"
         in="SourceGraphic"
         result="fbSourceGraphic"
         id="feComposite3062" />
      <feColorMatrix
         id="feColorMatrix3066"
         values="0 0 0 -1 0 0 0 0 -1 0 0 0 0 -1 0 0 0 0 1 0"
         in="fbSourceGraphic"
         result="fbSourceGraphicAlpha" />
      <feGaussianBlur
         in="fbSourceGraphic"
         result="result91"
         stdDeviation="5"
         id="feGaussianBlur3068" />
      <feComposite
         in2="result91"
         operator="over"
         in="fbSourceGraphic"
         result="fbSourceGraphic"
         id="feComposite3070" />
      <feColorMatrix
         id="feColorMatrix3254"
         values="0 0 0 -1 0 0 0 0 -1 0 0 0 0 -1 0 0 0 0 1 0"
         in="fbSourceGraphic"
         result="fbSourceGraphicAlpha" />
      <feGaussianBlur
         result="blur"
         stdDeviation="20"
         in="fbSourceGraphicAlpha"
         id="feGaussianBlur3256" />
      <feColorMatrix
         values="-1 0 0 0 1 0 -1 0 0 1 0 0 -1 0 1 0 0 0 0.75 0 "
         type="matrix"
         result="bluralpha"
         id="feColorMatrix3258" />
      <feOffset
         result="offsetBlur"
         dy="0"
         dx="0"
         in="bluralpha"
         id="feOffset3260" />
      <feMerge
         id="feMerge3262">
        <feMergeNode
           in="offsetBlur"
           id="feMergeNode3264" />
        <feMergeNode
           in="fbSourceGraphic"
           id="feMergeNode3266" />
      </feMerge>
    </filter>
    <filter
       x="-0.25"
       y="-0.25"
       width="1.5"
       height="1.5"
       color-interpolation-filters="sRGB"
       id="filter3226">
      <feGaussianBlur
         result="blur"
         stdDeviation="10"
         in="SourceAlpha"
         id="feGaussianBlur3228" />
      <feColorMatrix
         values="-1 0 0 0 1 0 -1 0 0 1 0 0 -1 0 1 0 0 0 0.75 0 "
         type="matrix"
         result="bluralpha"
         id="feColorMatrix3230" />
      <feOffset
         result="offsetBlur"
         dy="0"
         dx="0"
         in="bluralpha"
         id="feOffset3232" />
      <feMerge
         id="feMerge3234">
        <feMergeNode
           in="offsetBlur"
           id="feMergeNode3236" />
        <feMergeNode
           in="SourceGraphic"
           id="feMergeNode3238" />
      </feMerge>
    </filter>
  </defs>
  <metadata
     id="metadata3080">
    <rdf:RDF>
      <cc:Work
         rdf:about="">
        <dc:format>image/svg+xml</dc:format>
        <dc:type
           rdf:resource="http://purl.org/dc/dcmitype/StillImage" />
        <dc:title></dc:title>
      </cc:Work>
    </rdf:RDF>
  </metadata>
  <g
     transform="translate(-90.58598,-177.91284)"
     id="layer1">
    <g
       transform="translate(951.42857,17.142857)"
       id="g4541">
      <g
         transform="matrix(0.90881657,0,0,0.90881657,-53.596643,41.816232)"
         id="g3808"
         style="filter:url(#filter3058)">
        <g
           transform="matrix(2.6616751,0,0,2.6616751,-989.38739,28.609286)"
           id="g4513">
          <path
             d="m 156.78125,49.65625 c -40.8491,-0.307933 -80.093038,22.757026 -98.4375,62.21875 -25.04631,53.87839 -1.659657,117.89118 52.21875,142.9375 2.43493,1.13192 4.90337,2.18924 7.375,3.125 l 8.21875,-24.5 -22.90625,-9.375 4.8125,-13.625 16.875,6.375 9.21875,-23.28125 C 120.92323,185.5143 112.62683,170.499 114,154.03125 c 1.93211,-23.17093 22.26658,-40.36962 45.4375,-38.4375 15.23098,1.27004 27.88057,10.49367 34.21875,23.25 L 252.625,110.125 C 241.80334,87.915013 223.65367,70.133484 201.25,59.71875 c -11.78591,-5.47888 -24.04178,-8.654987 -36.28125,-9.6875 -2.73202,-0.230472 -5.46423,-0.354471 -8.1875,-0.375 z m 37.4375,125.40625 c -7.1783,15.67604 -23.609,25.92155 -41.78125,24.40625 -3.77296,-0.31461 -7.38123,-1.12012 -10.78125,-2.34375 l -7.6875,23.09375 11.0625,4.4375 -13.3125,37.4375 c 48.51579,11.25029 99.91923,-12.5387 121.75,-59.5 l -59.25,-27.53125 z"
             id="path4515"
             style="fill:#000000;fill-opacity:1;stroke:none" />
          <path
             d="m 152.25,61.65625 c -51.27252,0.741442 -96.470318,49.52848 -91.90625,101 1.766454,36.73326 27.266773,71.02653 61.3125,84.21875 l 4.5,-13.4375 -22.90625,-9.375 4.8125,-13.625 16.875,6.375 4.59375,-11.625 c -6.16003,-3.2541 -11.63281,-7.80418 -15.90625,-13.65625 -19.059654,-23.25627 -14.356587,-62.71212 11.75,-78.84375 21.76303,-14.75734 55.08168,-11.71631 71.5,9.6875 4.70798,1.80403 8.24394,-4.13314 12.75,-4.71875 8.78145,-4.28925 17.64313,-8.34864 26.3125,-12.8125 -17.54361,-26.815984 -48.99877,-43.849732 -81.25,-43.1875 -0.81674,-0.01262 -1.62365,-0.01177 -2.4375,0 z M 198.96875,190.625 c -13.58997,18.6825 -39.7501,24.96587 -61.15625,18.03125 l -3.84375,11.5625 11.0625,4.4375 L 135.6875,251 c 3.39504,0.68078 6.84546,1.15969 10.34375,1.40625 35.32824,3.57706 72.91506,-13.45045 90.65625,-44.6875 -12.80929,-5.17406 -25.01269,-11.74273 -37.71875,-17.09375 z"
             id="path4517"
             style="fill:#1a1a1a;fill-opacity:1;stroke:none" />
          <path
             d="m 156.15625,73.53125 c -0.73906,-0.0029 -1.47993,0.013 -2.21875,0.03125 -46.47457,-0.233126 -87.456392,45.68388 -81.46875,91.875 1.973897,22.34783 14.080595,42.95164 31.34375,57 l 4.25,-12 16.875,6.375 0.21875,-0.53125 C 115.1846,211.41859 106.55861,204.06389 100.71875,194.25 78.280081,162.11752 92.408424,110.30203 129.8125,96.65625 c 23.29486,-9.911724 52.18081,-5.166813 71,11.71875 5.38663,-2.89728 11.27071,-4.77957 16.5625,-7.8125 C 201.97129,83.8346 179.0672,73.621776 156.15625,73.53125 z m 45.90625,131.875 c -17.34712,17.30604 -44.8751,21.86197 -67.96875,14.46875 l -0.125,0.34375 11.0625,4.4375 -5.3125,15 c 7.05628,1.40234 14.34024,1.80467 21.6875,1.03125 21.37821,-1.6118 43.08952,-11.37532 56.8125,-27.875 -5.34143,-2.54253 -10.46303,-5.67707 -16.15625,-7.40625 z M 109.21875,226.5 c 5.10515,3.54006 10.55413,6.54566 16.28125,8.875 l 0.65625,-1.9375 -16.9375,-6.9375 z"
             id="path4519"
             style="fill:#333333;fill-opacity:1;stroke:none" />
          <path
             d="m 151.96875,81.5625 c -44.54483,1.06963 -81.690419,49.02757 -70.0625,92.40625 3.400132,15.75415 12.501468,29.91851 24.75,40.4375 l 0.21875,-0.625 C 101.02756,208.83104 96.037591,202.86807 92.25,195.9375 69.004554,159.33359 86.672216,102.9003 128.28125,88.59375 c 24.2211,-9.544095 53.34818,-5.344697 73.875,10.4375 4.14993,-0.886286 -3.17217,-2.933328 -3.90625,-4.34375 -13.02978,-8.680984 -28.45075,-13.480342 -44.15625,-13.125 -0.71062,-0.0068 -1.41794,-0.01698 -2.125,0 z m 51.96875,133.09375 c -2.17149,0.0394 -3.29501,3.77315 -5.6875,4.25 -15.868,10.95342 -36.15048,14.46664 -55.1875,11.25 l -0.625,1.8125 c 9.89645,1.92144 20.17176,1.73416 30.1875,-1.09375 11.8101,-2.64353 23.16037,-8.06719 32.3125,-16 -0.35922,-0.16615 -0.68979,-0.22437 -1,-0.21875 z"
             id="path4521"
             style="fill:#666666;fill-opacity:1;stroke:none" />
          <path
             d="m 128.34375,189.25 -0.6875,1.71875 -6.53125,16.53125 -10.8125,-3.6875 -6.53125,-2.25 -2.3125,6.53125 -4.8125,13.625 -2.21875,6.3125 6.15625,2.5 16.84375,6.90625 -5.96875,17.78125 c 2.14172,0.97569 4.30169,1.8983 6.46875,2.71875 l 8.21875,-24.5 -22.90625,-9.375 4.8125,-13.625 16.875,6.375 9.21875,-23.28125 c -2.07059,-1.25442 -4.00177,-2.70539 -5.8125,-4.28125 z m 13.3125,7.875 -7.6875,23.09375 11.0625,4.4375 -13.3125,37.4375 c 2.30464,0.53442 4.62331,0.96619 6.9375,1.34375 L 151.625,227 l 2.25,-6.34375 -6.25,-2.5 -4.90625,-1.96875 5.59375,-16.84375 0.125,-0.40625 c -2.33921,-0.42159 -4.60172,-1.02811 -6.78125,-1.8125 z"
             id="path4523"
             style="font-size:medium;font-style:normal;font-variant:normal;font-weight:normal;font-stretch:normal;text-indent:0;text-align:start;text-decoration:none;line-height:normal;letter-spacing:normal;word-spacing:normal;text-transform:none;direction:ltr;block-progression:tb;writing-mode:lr-tb;text-anchor:start;baseline-shift:baseline;color:#000000;fill:#000000;fill-opacity:1;stroke:none;stroke-width:14;marker:none;visibility:visible;display:inline;overflow:visible;enable-background:accumulate;font-family:Sans;-inkscape-font-specification:Sans" />
        </g>
        <path
           d="m -575.51167,663.24636 c 58.98249,-2.40695 146.45829,-40.66565 179.62548,-99.16799"
           id="path4525"
           style="fill:none;stroke:none" />
        <g
           transform="translate(3.0304576,0.50507627)"
           id="text4527"
           style="font-size:56px;font-style:normal;font-variant:normal;font-weight:normal;font-stretch:normal;line-height:125%;letter-spacing:0px;word-spacing:0px;fill:url(#radialGradient3904);fill-opacity:1;stroke:none;font-family:JK Abode;-inkscape-font-specification:JK Abode">
          <path
             d="m -570.48124,643.71978 c 0.29795,1.91842 0.94626,3.65962 1.94495,5.22359 0.99868,1.56401 2.23322,2.88354 3.70365,3.9586 1.4704,1.07509 3.11123,1.84987 4.92248,2.32433 1.81121,0.47449 3.67603,0.56275 5.59446,0.2648 1.91838,-0.29794 3.66743,-0.95699 5.24713,-1.97714 1.57966,-1.02014 2.91488,-2.27615 4.00567,-3.76804 l 8.35588,-1.29775 c -0.60254,1.71814 -1.41871,3.33744 -2.4485,4.85789 -1.02987,1.52047 -2.24486,2.8806 -3.64499,4.08039 -1.4002,1.1998 -2.98108,2.21033 -4.74266,3.03159 -1.76164,0.82127 -3.67539,1.39232 -5.74125,1.71318 -2.84048,0.44115 -5.59037,0.31106 -8.24967,-0.39028 -2.65933,-0.70134 -5.06502,-1.83898 -7.21707,-3.41293 -2.15206,-1.57394 -3.96582,-3.52154 -5.44126,-5.84279 -1.47544,-2.32123 -2.43374,-4.90208 -2.8749,-7.74256 -0.43538,-2.80328 -0.30356,-5.54392 0.39545,-8.22193 0.69902,-2.67796 1.83522,-5.09293 3.40861,-7.24494 1.57338,-2.15193 3.52074,-3.96536 5.84207,-5.44028 2.32133,-1.47484 4.90222,-2.43286 7.74269,-2.87405 2.10302,-0.32658 4.12269,-0.33817 6.05899,-0.0348 1.93627,0.30348 3.76704,0.84064 5.49232,1.61149 1.72522,0.77093 3.2998,1.72605 4.72374,2.86539 1.42387,1.13941 2.65621,2.38347 3.69702,3.7322 l -8.41161,1.30641 c -1.53465,-1.12099 -3.19217,-1.94016 -4.97256,-2.45751 -1.78043,-0.51727 -3.62984,-0.62695 -5.54823,-0.32904 -1.91842,0.29798 -3.66863,0.9477 -5.25062,1.94914 -1.58201,1.00152 -2.91199,2.22818 -3.98994,3.67998 -1.07797,1.45187 -1.85415,3.08369 -2.32853,4.89546 -0.47439,1.81182 -0.5655,3.65835 -0.27332,5.53958 z"
             id="path3878"
             style="font-weight:bold;fill:url(#radialGradient3934);fill-opacity:1;font-family:Opificio;-inkscape-font-specification:Opificio Bold" />
          <path
             d="m -536.66384,643.42632 c -0.6557,-2.02471 -0.88643,-4.03976 -0.69218,-6.04516 0.19426,-2.00536 0.73859,-3.86903 1.633,-5.59101 0.89441,-1.72193 2.09701,-3.24939 3.6078,-4.58238 1.51079,-1.33293 3.27855,-2.32727 5.30328,-2.98301 2.02364,-0.65532 4.03842,-0.88596 6.04435,-0.69191 2.00591,0.19411 3.86695,0.72941 5.58314,1.6059 1.71614,0.87656 3.24071,2.07022 4.57369,3.58098 1.33294,1.51082 2.32727,3.27858 2.98301,5.30328 l 4.33071,13.37263 -6.17986,2.00134 -0.48336,-1.49253 c -1.88698,2.53441 -4.37556,4.30199 -7.46574,5.30274 -2.2025,0.71328 -4.32115,0.98744 -6.35596,0.82247 -2.03482,-0.16496 -3.89559,-0.70034 -5.58232,-1.60617 -1.68673,-0.90581 -3.16108,-2.12561 -4.42305,-3.6594 -1.26196,-1.53378 -2.2208,-3.31303 -2.87651,-5.33777 z m 6.23352,-2.01872 c 0.36821,1.13703 0.93818,2.13984 1.70989,3.00845 0.77171,0.86863 1.65118,1.55505 2.63841,2.05927 0.98722,0.50423 2.05888,0.81434 3.215,0.93033 1.15609,0.11602 2.30265,-0.0101 3.43967,-0.37832 1.13592,-0.36786 2.1439,-0.92003 3.02394,-1.65653 0.88001,-0.73647 1.58108,-1.60122 2.1032,-2.59425 0.52209,-0.993 0.83247,-2.06476 0.93116,-3.21526 0.0986,-1.15047 -0.0476,-2.32945 -0.43857,-3.53694 -0.36789,-1.1359 -0.93795,-2.13809 -1.71018,-3.00656 -0.77227,-0.86842 -1.65201,-1.55475 -2.63922,-2.059 -0.98724,-0.50419 -2.05899,-0.81458 -3.21526,-0.93115 -1.15629,-0.11652 -2.3024,0.009 -3.43831,0.37698 -1.13702,0.36825 -2.13975,0.93849 -3.00819,1.71071 -0.86845,0.77228 -1.55478,1.65202 -2.059,2.63922 -0.50423,0.98725 -0.81434,2.05891 -0.93034,3.215 -0.11601,1.15612 0.01,2.30214 0.3778,3.43805 z"
             id="path3880"
             style="font-weight:bold;fill:url(#radialGradient3936);fill-opacity:1;font-family:Opificio;-inkscape-font-specification:Opificio Bold" />
          <path
             d="m -510.79159,619.92977 5.95632,-2.59197 1.11698,2.56681 c 0.86042,-1.39201 1.97748,-2.66184 3.35119,-3.80947 1.3737,-1.14757 3.00183,-2.13098 4.88437,-2.95022 l 2.59265,5.95788 c -1.30065,0.56602 -2.42281,1.30875 -3.36648,2.22819 -0.94367,0.91949 -1.68317,1.93338 -2.2185,3.04167 -0.53533,1.10833 -0.83907,2.25844 -0.91121,3.45033 -0.0721,1.19193 0.12999,2.33531 0.60643,3.43013 l 5.11711,11.75907 -5.95632,2.59197 z"
             id="path3882"
             style="font-weight:bold;fill:url(#radialGradient3938);fill-opacity:1;font-family:Opificio;-inkscape-font-specification:Opificio Bold" />
          <path
             d="m -500.1845,603.49966 5.66852,-3.17586 6.46032,11.53086 c 0.20302,-0.62826 0.50197,-1.27764 0.89683,-1.94815 0.39487,-0.67044 0.85333,-1.323 1.37536,-1.95767 0.52204,-0.6346 1.09546,-1.23404 1.72028,-1.79831 0.62481,-0.5642 1.29554,-1.04708 2.01218,-1.44862 1.85671,-1.04021 3.78732,-1.66183 5.79184,-1.86488 2.0045,-0.20298 3.93415,-0.0431 5.78896,0.4796 1.85478,0.52278 3.58392,1.39409 5.18743,2.61393 1.60347,1.21991 2.92534,2.7582 3.9656,4.61488 1.04023,1.85673 1.66185,3.78734 1.86489,5.79183 0.20299,2.00453 0.0431,3.93419 -0.4796,5.78896 -0.52277,1.85481 -1.39408,3.58395 -2.61394,5.18743 -1.21989,1.60351 -2.75818,2.92537 -4.61487,3.96561 -1.85573,1.03969 -3.78125,1.66924 -5.77656,1.88865 -1.99533,0.21941 -3.92859,0.0723 -5.79978,-0.44122 -1.87119,-0.51355 -3.60058,-1.38472 -5.18817,-2.61352 -1.58759,-1.22877 -2.9107,-2.78792 -3.96932,-4.67744 z m 17.95849,18.76022 c 0.58416,1.04267 1.33982,1.91416 2.26697,2.61446 0.92714,0.70032 1.9242,1.20083 2.99117,1.50153 1.06697,0.30072 2.17865,0.39453 3.33505,0.28142 1.15639,-0.11308 2.25541,-0.46144 3.29709,-1.04505 1.04265,-0.58415 1.91413,-1.33981 2.61446,-2.26697 0.70029,-0.92713 1.20081,-1.92419 1.50153,-2.99117 0.3007,-1.06696 0.3945,-2.17864 0.28142,-3.33505 -0.11311,-1.15638 -0.46174,-2.2559 -1.04589,-3.29858 -0.58362,-1.04164 -1.339,-1.91263 -2.26613,-2.61297 -0.92716,-0.70028 -1.92421,-1.2008 -2.99117,-1.50153 -1.06699,-0.30069 -2.17881,-0.39474 -3.33547,-0.28217 -1.15668,0.11263 -2.25634,0.46101 -3.299,1.04515 -1.04167,0.58363 -1.91251,1.33925 -2.61255,2.26687 -0.70003,0.92767 -1.2004,1.92498 -1.50111,2.99192 -0.30071,1.067 -0.39452,2.17868 -0.28142,3.33505 0.1131,1.15641 0.46145,2.25544 1.04505,3.29709 z"
             id="path3884"
             style="font-weight:bold;fill:url(#radialGradient3940);fill-opacity:1;font-family:Opificio;-inkscape-font-specification:Opificio Bold" />
          <path
             d="m -459.91289,609.76787 c -1.29168,-1.69144 -2.17935,-3.51509 -2.66302,-5.47096 -0.48365,-1.95583 -0.59003,-3.89445 -0.31915,-5.81586 0.27091,-1.92136 0.89714,-3.7618 1.87869,-5.52132 0.98156,-1.75947 2.31761,-3.28471 4.00816,-4.57574 1.69146,-1.29165 3.51511,-2.17932 5.47096,-2.66301 1.95585,-0.48363 3.88876,-0.59748 5.79874,-0.34156 1.90997,0.25599 3.74471,0.87475 5.50422,1.85627 1.75948,0.98159 3.28507,2.3181 4.57677,4.00952 1.29166,1.69149 2.17934,3.51514 2.66302,5.47096 0.48364,1.95588 0.59749,3.88879 0.34155,5.79875 -0.25597,1.90999 -0.87473,3.74473 -1.85627,5.50421 -0.98157,1.75951 -2.31808,3.2851 -4.00952,4.57677 -1.69056,1.291 -3.51376,2.17833 -5.4696,2.66198 -1.95586,0.48367 -3.89625,0.60323 -5.82116,0.35867 -1.92492,-0.24454 -3.76712,-0.85759 -5.52662,-1.83916 -1.75949,-0.98154 -3.28508,-2.31805 -4.57677,-4.00952 z m 5.20747,-3.9767 c 0.72537,0.94988 1.59637,1.70609 2.61301,2.26864 1.01664,0.56258 2.07431,0.91749 3.17303,1.06471 1.09871,0.14726 2.21251,0.0833 3.34141,-0.1917 1.12888,-0.27503 2.1678,-0.77489 3.11676,-1.49957 0.94985,-0.72535 1.70606,-1.59635 2.26864,-2.61301 0.56255,-1.01662 0.91746,-2.0743 1.06471,-3.17303 0.14723,-1.09869 0.0833,-2.21249 -0.19171,-3.34141 -0.27505,-1.12886 -0.77526,-2.16823 -1.50061,-3.11812 -0.72468,-0.94892 -1.59533,-1.70468 -2.61196,-2.26728 -1.01665,-0.56254 -2.07433,-0.91744 -3.17303,-1.06471 -1.09873,-0.14721 -2.2127,-0.0835 -3.34193,0.19103 -1.12924,0.27462 -2.16878,0.77459 -3.11864,1.49993 -0.94895,0.7247 -1.70454,1.59558 -2.26676,2.61264 -0.56222,1.01712 -0.91695,2.07502 -1.06419,3.17371 -0.14724,1.09874 -0.0833,2.21254 0.1917,3.34141 0.27505,1.12891 0.77491,2.16783 1.49957,3.11676 z"
             id="path3886"
             style="font-weight:bold;fill:url(#radialGradient3942);fill-opacity:1;font-family:Opificio;-inkscape-font-specification:Opificio Bold" />
          <path
             d="m -423.59308,574.8597 c -0.59915,-0.56027 -1.27982,-0.9796 -2.04201,-1.25799 -0.7622,-0.27833 -1.53904,-0.40425 -2.33053,-0.37777 -0.79148,0.0265 -1.56501,0.19775 -2.32061,0.51362 -0.75559,0.31593 -1.42637,0.78718 -2.01236,1.41376 -0.58676,0.62746 -1.00559,1.33512 -1.25649,2.12297 -0.25089,0.78791 -0.36309,1.57759 -0.33658,2.36905 0.0265,0.7915 0.19771,1.56464 0.51358,2.3194 0.31588,0.75481 0.76007,1.3999 1.33258,1.93528 l 12.10385,11.24435 -4.47543,4.78565 -20.45075,-19.12503 4.43808,-4.74572 1.1858,1.10894 c -0.17179,-1.18238 -0.0779,-2.32108 0.28155,-3.41611 0.35952,-1.09497 0.97184,-2.13255 1.83696,-3.11273 1.17276,-1.254 2.53379,-2.21731 4.08309,-2.88992 1.54933,-0.67254 3.14826,-1.04289 4.79682,-1.11105 1.64856,-0.0681 3.26805,0.18136 4.85849,0.74832 1.59043,0.56703 3.0264,1.44974 4.30791,2.64814 l 12.10501,11.24309 -4.51395,4.82685 z"
             id="path3888"
             style="font-weight:bold;fill:url(#radialGradient3944);fill-opacity:1;font-family:Opificio;-inkscape-font-specification:Opificio Bold" />
        </g>
        <path
           d="M -729.1783,543.46395 C -830.84786,259.0757 -546.44844,224.55484 -462.84225,309.28192"
           id="path4533"
           style="fill:none;stroke:none" />
        <g
           id="text4535"
           style="font-size:28px;font-style:normal;font-variant:normal;font-weight:normal;font-stretch:normal;line-height:125%;letter-spacing:0px;word-spacing:0px;fill:url(#radialGradient3896);fill-opacity:1;stroke:none;font-family:JK Abode;-inkscape-font-specification:JK Abode">
          <path
             d="m -752.03299,527.80173 19.61491,6.8868 1.97095,6.49055 -42.86787,13.01749 -2.23144,-7.34835 29.27379,-8.88944 -18.07051,-6.41888 11.61495,-15.49864 -29.45694,8.94506 -2.23144,-7.34835 42.86787,-13.0175 1.97096,6.49054 z"
             id="path3849"
             style="font-size:64px;font-weight:bold;letter-spacing:-2.21000004px;fill:url(#radialGradient3946);fill-opacity:1;font-family:Opificio;-inkscape-font-specification:Opificio Bold" />
          <path
             d="m -758.79657,498.22106 c 1.29037,-0.29483 2.44815,-0.82452 3.47333,-1.58908 1.02521,-0.76455 1.87085,-1.66794 2.53691,-2.71018 0.66609,-1.04222 1.12597,-2.19654 1.37965,-3.46297 0.2537,-1.26641 0.25421,-2.54891 0.002,-3.84749 -0.42374,-2.17789 -1.32024,-3.93749 -2.68951,-5.27882 -1.36925,-1.34129 -3.02357,-2.1927 -4.96296,-2.55425 l -1.55249,-7.97928 c 2.52605,0.24741 4.74063,0.7945 6.64375,1.64124 1.90314,0.84681 3.52475,1.92214 4.86483,3.22598 1.3401,1.3039 2.42017,2.77808 3.24021,4.42254 0.82006,1.64451 1.40117,3.34609 1.74335,5.10476 0.46453,2.38754 0.44825,4.70545 -0.0488,6.95373 -0.49707,2.24831 -1.35917,4.29602 -2.58628,6.14314 -1.2271,1.84714 -2.7896,3.4226 -4.68752,4.72638 -1.8979,1.30379 -4.04062,2.18795 -6.42815,2.65248 -2.3875,0.46452 -4.70541,0.44825 -6.95373,-0.0488 -2.24827,-0.49708 -4.28749,-1.37177 -6.11767,-2.62407 -1.83011,-1.25229 -3.39708,-2.8274 -4.7009,-4.72531 -1.30375,-1.89791 -2.18791,-4.04062 -2.65247,-6.42815 -0.51323,-2.63802 -0.49174,-5.09788 0.0645,-7.37959 0.55628,-2.28168 1.49796,-4.31237 2.82503,-6.0921 1.32715,-1.77968 2.96857,-3.28361 4.92428,-4.51179 1.95576,-1.22812 4.10232,-2.0908 6.43968,-2.58806 z m -9.86408,-16.85807 c -2.37057,2.11275 -3.194,5.14152 -2.47029,9.0863 0.90762,3.9966 2.81479,6.53786 5.72149,7.62379 z"
             id="path3851"
             style="font-size:64px;font-weight:bold;letter-spacing:-2.21000004px;fill:url(#radialGradient3948);fill-opacity:1;font-family:Opificio;-inkscape-font-specification:Opificio Bold" />
          <path
             d="m -793.86425,469.42175 -0.48575,-7.40988 15.07311,-0.9881 c -0.54809,-0.51864 -1.07075,-1.1466 -1.56799,-1.88389 -0.49718,-0.73728 -0.94461,-1.53132 -1.3423,-2.38214 -0.39762,-0.8508 -0.73367,-1.73729 -1.00815,-2.65948 -0.27442,-0.92216 -0.44235,-1.85164 -0.5038,-2.78844 -0.15907,-2.42707 0.14998,-4.72434 0.92714,-6.89182 0.77723,-2.16743 1.89188,-4.07908 3.34393,-5.73493 1.45212,-1.65579 3.20189,-3.01046 5.24931,-4.064 2.04747,-1.05347 4.28474,-1.65977 6.7118,-1.81891 2.4271,-0.15907 4.72437,0.14997 6.89181,0.92714 2.16747,0.77723 4.07912,1.89188 5.73493,3.34393 1.65583,1.45212 3.0105,3.20188 4.064,5.24931 1.05351,2.04747 1.65981,4.28474 1.81892,6.7118 0.15902,2.4258 -0.13935,4.72171 -0.89511,6.88775 -0.75576,2.16607 -1.85899,4.08773 -3.30967,5.76498 -1.45068,1.67727 -3.20042,3.03226 -5.24924,4.06497 -2.0488,1.03272 -4.30819,1.63004 -6.77816,1.79195 z m 28.18903,-9.28963 c 1.36297,-0.0893 2.63378,-0.43982 3.81243,-1.05145 1.17868,-0.6116 2.18566,-1.39366 3.02097,-2.34619 0.83532,-0.9525 1.47923,-2.05297 1.93173,-3.3014 0.45252,-1.2484 0.63414,-2.55344 0.54487,-3.91512 -0.0893,-1.36294 -0.43982,-2.63375 -1.05144,-3.81244 -0.61161,-1.17863 -1.39367,-2.18562 -2.3462,-3.02096 -0.9525,-0.83529 -2.05297,-1.4792 -3.3014,-1.93173 -1.2484,-0.45248 -2.55409,-0.63406 -3.91707,-0.54475 -1.36164,0.0893 -2.6318,0.43973 -3.81048,1.05132 -1.17864,0.61164 -2.18563,1.3937 -3.02097,2.34619 -0.83529,0.95254 -1.47952,2.05303 -1.93271,3.30147 -0.45313,1.24848 -0.63503,2.55419 -0.54571,3.91713 0.0893,1.36168 0.44005,2.63182 1.05229,3.81042 0.61229,1.17864 1.39468,2.1856 2.34717,3.0209 0.95253,0.83533 2.053,1.47924 3.3014,1.93174 1.24844,0.45252 2.55348,0.63414 3.91512,0.54487 z"
             id="path3853"
             style="font-size:64px;font-weight:bold;letter-spacing:-2.21000004px;fill:url(#radialGradient3950);fill-opacity:1;font-family:Opificio;-inkscape-font-specification:Opificio Bold" />
          <path
             d="m -794.48241,400.62972 3.31361,-15.2596 c 0.66097,-3.04362 1.88365,-5.75809 3.66805,-8.14342 1.78448,-2.38525 3.91089,-4.33586 6.37926,-5.85183 2.46842,-1.51589 5.19273,-2.55053 8.17293,-3.10394 2.98024,-0.55332 5.97117,-0.5041 8.97282,0.14766 3.00167,0.65185 5.68099,1.83393 8.03796,3.54622 2.35698,1.71237 4.28181,3.75658 5.77448,6.13261 1.49267,2.37611 2.49357,5.00581 3.00268,7.88912 0.50911,2.88336 0.43321,5.84685 -0.22772,8.89048 l -3.31361,15.25961 z m 39.58929,-7.38236 c 0.43463,-2.00151 0.49565,-3.94226 0.18304,-5.82227 -0.31261,-1.87996 -0.94123,-3.61005 -1.88589,-5.19028 -0.94465,-1.58016 -2.17972,-2.92896 -3.70522,-4.04638 -1.52548,-1.11736 -3.28899,-1.89337 -5.29053,-2.32804 -1.95953,-0.42547 -3.92773,-0.4598 -5.90462,-0.10298 -1.97685,0.35689 -3.7956,1.04255 -5.45627,2.05697 -1.66062,1.01449 -3.08537,2.29869 -4.27426,3.8526 -1.18882,1.55398 -2.00057,3.33171 -2.43523,5.33322 l -1.68396,7.75481 28.76898,6.24717 z"
             id="path3855"
             style="font-size:64px;font-weight:bold;letter-spacing:-2.21000004px;fill:url(#radialGradient3952);fill-opacity:1;font-family:Opificio;-inkscape-font-specification:Opificio Bold" />
          <path
             d="m -752.79015,357.84129 c 1.20781,0.54146 2.45115,0.81556 3.73002,0.82229 1.27889,0.007 2.49798,-0.20545 3.65728,-0.63663 1.15931,-0.43115 2.22146,-1.07597 3.18647,-1.93444 0.965,-0.85844 1.73754,-1.88215 2.3176,-3.07113 0.97286,-1.99407 1.3164,-3.93878 1.03063,-5.83415 -0.28578,-1.89531 -1.09409,-3.57111 -2.42495,-5.0274 l 3.56429,-7.30581 c 1.868,1.71835 3.30689,3.48845 4.31667,5.31032 1.00977,1.82192 1.65716,3.65681 1.94219,5.50467 0.28501,1.84792 0.25988,3.67524 -0.0754,5.48198 -0.33529,1.80679 -0.89573,3.5153 -1.68131,5.12553 -1.0665,2.18603 -2.47499,4.02698 -4.22546,5.52288 -1.75048,1.49593 -3.67165,2.61193 -5.7635,3.34801 -2.09186,0.73609 -4.28796,1.05333 -6.58831,0.95171 -2.30034,-0.1016 -4.54352,-0.68565 -6.72954,-1.75215 -2.18599,-1.06648 -4.02695,-2.47496 -5.52288,-4.22545 -1.49589,-1.75047 -2.59753,-3.67658 -3.30491,-5.77834 -0.70733,-2.10172 -1.01021,-4.30277 -0.90862,-6.60314 0.10163,-2.30032 0.68568,-4.5435 1.75215,-6.72954 1.17841,-2.41534 2.67652,-4.36651 4.49433,-5.8535 1.81784,-1.48692 3.79231,-2.54142 5.92341,-3.16351 2.13112,-0.622 4.34716,-0.83461 6.64814,-0.63784 2.30099,0.19686 4.53431,0.80037 6.69997,1.81053 z m 2.27327,-19.39914 c -3.16479,0.25975 -5.64572,2.18236 -7.44281,5.76783 -1.68144,3.73755 -1.6886,6.91485 -0.0215,9.5319 z"
             id="path3857"
             style="font-size:64px;font-weight:bold;letter-spacing:-2.21000004px;fill:url(#radialGradient3954);fill-opacity:1;font-family:Opificio;-inkscape-font-specification:Opificio Bold" />
          <path
             d="m -750.8654,318.75818 5.24246,-6.21254 21.94458,6.54499 -10.14085,-20.53291 5.24247,-6.21255 15.4575,31.30105 -4.25116,5.0378 z"
             id="path3859"
             style="font-size:64px;font-weight:bold;letter-spacing:-2.21000004px;fill:url(#radialGradient3956);fill-opacity:1;font-family:Opificio;-inkscape-font-specification:Opificio Bold" />
          <path
             d="m -706.63694,295.55538 c 0.81268,1.04477 1.78215,1.87008 2.90842,2.47595 1.12627,0.60589 2.30245,0.99035 3.52855,1.15338 1.22609,0.16306 2.46661,0.0919 3.72156,-0.21362 1.25493,-0.30544 2.41741,-0.84713 3.48744,-1.62507 1.79459,-1.30469 3.01025,-2.861 3.64699,-4.66894 0.63671,-1.80789 0.70896,-3.66705 0.21676,-5.57747 l 6.57494,-4.78009 c 0.84364,2.39383 1.28403,4.63207 1.32119,6.71473 0.0371,2.08271 -0.2519,4.00687 -0.867,5.77251 -0.61515,1.76567 -1.49454,3.36768 -2.63817,4.80602 -1.14368,1.43837 -2.44008,2.68433 -3.88923,3.73789 -1.96733,1.43028 -4.07482,2.3954 -6.32247,2.89535 -2.24766,0.49997 -4.46785,0.58434 -6.66055,0.25312 -2.19272,-0.3312 -4.28101,-1.08122 -6.26489,-2.25006 -1.98387,-1.16881 -3.69095,-2.73689 -5.12123,-4.70422 -1.43027,-1.96731 -2.39538,-4.07479 -2.89535,-6.32247 -0.49995,-2.24764 -0.56932,-4.46545 -0.20811,-6.65344 0.36124,-2.18794 1.12626,-4.27386 2.29508,-6.25777 1.16883,-1.98384 2.7369,-3.69092 4.70422,-5.12123 2.17375,-1.58031 4.41208,-2.60071 6.71502,-3.06122 2.30293,-0.46042 4.54134,-0.46547 6.71523,-0.0152 2.17387,0.45039 4.23069,1.30217 6.17049,2.55533 1.93976,1.25325 3.629,2.83388 5.06773,4.74191 z m 11.10774,-16.06588 c -2.91682,-1.2552 -6.00974,-0.72107 -9.27876,1.60242 -3.23824,2.51204 -4.73503,5.3147 -4.49039,8.40797 z"
             id="path3861"
             style="font-size:64px;font-weight:bold;letter-spacing:-2.21000004px;fill:url(#radialGradient3958);fill-opacity:1;font-family:Opificio;-inkscape-font-specification:Opificio Bold" />
          <path
             d="m -693.84188,252.15243 6.57706,-3.44319 20.77867,39.69077 -6.57706,3.44318 z"
             id="path3863"
             style="font-size:64px;font-weight:bold;letter-spacing:-2.21000004px;fill:url(#radialGradient3960);fill-opacity:1;font-family:Opificio;-inkscape-font-specification:Opificio Bold" />
          <path
             d="m -670.41291,271.66436 c -0.83616,-2.28403 -1.18656,-4.57535 -1.0512,-6.87398 0.13536,-2.29859 0.67664,-4.45045 1.62382,-6.4556 0.9472,-2.00509 2.25474,-3.80138 3.92265,-5.38887 1.6679,-1.58743 3.64326,-2.79901 5.92609,-3.63477 2.28404,-0.83612 4.57537,-1.18652 6.87399,-1.0512 2.29859,0.13539 4.44676,0.66658 6.44452,1.59356 1.99771,0.92705 3.79031,2.22451 5.37779,3.89238 1.58743,1.66794 2.79924,3.64391 3.63543,5.92793 0.83614,2.28407 1.18654,4.5754 1.05121,6.87399 -0.13539,2.29862 -0.66658,4.44679 -1.59356,6.44452 -0.92705,1.99775 -2.22451,3.79034 -3.89239,5.37779 -1.66792,1.58746 -3.6439,2.79927 -5.92792,3.63543 -2.28284,0.83572 -4.57356,1.1859 -6.87216,1.05054 -2.29861,-0.13536 -4.45687,-0.66285 -6.47478,-1.58249 -2.01791,-0.91962 -3.8206,-2.21339 -5.40805,-3.8813 -1.58746,-1.66789 -2.79927,-3.64387 -3.63544,-5.92793 z m 7.03189,-2.57429 c 0.46955,1.28265 1.16372,2.40333 2.08252,3.36203 0.91878,0.95874 1.95277,1.70473 3.10198,2.23798 1.14919,0.53328 2.38645,0.84123 3.71179,0.92384 1.32531,0.0826 2.62868,-0.11061 3.91011,-0.57973 1.28262,-0.46955 2.40329,-1.16372 3.36203,-2.08253 0.9587,-0.91877 1.7047,-1.95276 2.23799,-3.10198 0.53324,-1.14918 0.84119,-2.38644 0.92383,-3.71179 0.0826,-1.3253 -0.11087,-2.62928 -0.5804,-3.91194 -0.46914,-1.28139 -1.16309,-2.40145 -2.08185,-3.3602 -0.91881,-0.95869 -1.9528,-1.70469 -3.10199,-2.23799 -1.14921,-0.53323 -2.38658,-0.84148 -3.71212,-0.92475 -1.32556,-0.0832 -2.62965,0.10996 -3.91228,0.57949 -1.28142,0.46914 -2.40138,1.1634 -3.35987,2.08277 -0.9585,0.91942 -1.70438,1.95372 -2.23764,3.1029 -0.53327,1.14922 -0.84122,2.38648 -0.92384,3.71179 -0.0826,1.32534 0.11062,2.62871 0.57974,3.91011 z"
             id="path3865"
             style="font-size:64px;font-weight:bold;letter-spacing:-2.21000004px;fill:url(#radialGradient3962);fill-opacity:1;font-family:Opificio;-inkscape-font-specification:Opificio Bold" />
          <path
             d="m -632.38115,258.51896 c -0.40415,-2.44203 -0.33674,-4.778 0.20224,-7.00793 0.53897,-2.22988 1.46012,-4.24191 2.76344,-6.03611 1.30332,-1.79414 2.92366,-3.30554 4.86104,-4.53422 1.93736,-1.22862 4.10587,-2.04151 6.50553,-2.43868 2.39964,-0.39709 4.71617,-0.31557 6.9496,0.24456 2.23339,0.56021 4.24542,1.48136 6.03611,2.76345 1.79063,1.28216 3.31088,2.89015 4.56076,4.82398 1.24981,1.93389 2.07329,4.10064 2.47046,6.50027 0.3971,2.39967 0.31558,4.7162 -0.24456,6.9496 -0.5602,2.23342 -1.48135,4.24546 -2.76344,6.03611 -1.28216,1.79067 -2.89015,3.31092 -4.82398,4.56076 -1.93389,1.24984 -4.10064,2.07333 -6.50027,2.47046 -0.92623,0.15329 -1.86986,0.20123 -2.83091,0.14384 -0.96109,-0.0574 -1.90078,-0.18299 -2.81908,-0.3768 -0.91833,-0.19381 -1.79302,-0.44895 -2.62406,-0.76542 -0.83106,-0.31647 -1.56199,-0.68185 -2.19277,-1.09614 l 2.45551,14.83725 -7.3242,1.21213 z m 7.3242,-1.21214 c 0.22301,1.34758 0.69677,2.57742 1.42129,3.68952 0.7245,1.11214 1.60216,2.03724 2.633,2.77531 1.03082,0.73809 2.18935,1.27092 3.47561,1.5985 1.28622,0.3276 2.60312,0.37988 3.9507,0.15686 1.34625,-0.2228 2.57576,-0.69651 3.68855,-1.42113 1.11275,-0.7246 2.03817,-1.60232 2.77627,-2.63316 0.73806,-1.03082 1.27089,-2.18935 1.5985,-3.47561 0.32756,-1.28623 0.37985,-2.60312 0.15686,-3.9507 -0.22304,-1.34753 -0.69681,-2.57737 -1.42129,-3.68952 -0.72453,-1.1121 -1.6022,-2.0372 -2.633,-2.7753 -1.03085,-0.73806 -2.18971,-1.27084 -3.47657,-1.59835 -1.28691,-0.32745 -2.60348,-0.37979 -3.94974,-0.15701 -1.34757,0.22304 -2.57741,0.69681 -3.68952,1.42129 -1.11213,0.72453 -2.03723,1.6022 -2.7753,2.633 -0.73809,1.03085 -1.27092,2.18939 -1.5985,3.47561 -0.3276,1.28626 -0.37988,2.60316 -0.15686,3.95069 z"
             id="path3867"
             style="font-size:64px;font-weight:bold;letter-spacing:-2.21000004px;fill:url(#radialGradient3964);fill-opacity:1;font-family:Opificio;-inkscape-font-specification:Opificio Bold" />
          <path
             d="m -591.97731,235.7968 7.54388,0.36563 -0.0868,1.79086 c 1.03509,-1.1035 2.11908,-1.88429 3.25198,-2.34239 1.13286,-0.45803 2.42436,-0.65192 3.87449,-0.58167 2.17321,0.10536 4.1227,0.63786 5.84847,1.59749 1.72572,0.9597 3.21313,2.21742 4.46222,3.77317 1.43656,-1.42558 3.13486,-2.52891 5.09492,-3.30997 1.96,-0.781 4.00516,-1.11989 6.13551,-1.01668 2.00282,0.0971 3.87003,0.57217 5.60164,1.42519 1.73152,0.85308 3.21524,1.97179 4.45115,3.35613 1.23581,1.3844 2.19456,2.97923 2.87625,4.7845 0.68158,1.80531 0.97386,3.70939 0.87685,5.71223 l -0.85159,18.86175 -7.54193,-0.36553 0.84964,-18.86184 c 0.0453,-0.93639 -0.0924,-1.83962 -0.41326,-2.70971 -0.32093,-0.87005 -0.78549,-1.64019 -1.39369,-2.31041 -0.60829,-0.67018 -1.32937,-1.21778 -2.16325,-1.64278 -0.83396,-0.42496 -1.71977,-0.66018 -2.65743,-0.70565 -0.97936,-0.0474 -1.89384,0.10053 -2.74345,0.44389 -0.84969,0.34341 -1.60962,0.81922 -2.27979,1.42744 -0.67023,0.60827 -1.2071,1.32987 -1.61059,2.16481 -0.40355,0.83497 -0.62801,1.72065 -0.67336,2.65704 l -0.85158,18.86175 -7.54193,-0.36553 0.84963,-18.86185 c 0.0474,-0.9793 -0.0893,-1.90399 -0.41013,-2.77408 -0.32091,-0.87005 -0.78548,-1.64018 -1.3937,-2.31041 -0.60826,-0.67018 -1.34059,-1.20756 -2.19699,-1.61215 -0.85644,-0.40454 -1.75285,-0.62951 -2.68923,-0.67492 -0.98064,-0.0475 -1.89577,0.10042 -2.74541,0.44379 -0.84966,0.34341 -1.61011,0.82995 -2.28134,1.45963 -0.67125,0.62972 -1.20862,1.36173 -1.6121,2.19602 -0.40351,0.83433 -0.62693,1.69887 -0.67029,2.59364 l -0.84963,18.86184 -7.54388,-0.36562 z"
             id="path3869"
             style="font-size:64px;font-weight:bold;letter-spacing:-2.21000004px;fill:url(#radialGradient3966);fill-opacity:1;font-family:Opificio;-inkscape-font-specification:Opificio Bold" />
          <path
             d="m -529.5392,258.2366 c -0.31124,1.28651 -0.35314,2.55902 -0.12569,3.81752 0.22743,1.25851 0.65919,2.41817 1.29527,3.47897 0.63606,1.06081 1.46439,1.987 2.48498,2.77858 1.02056,0.79158 2.16838,1.36369 3.44345,1.71634 2.13844,0.59144 4.11318,0.57324 5.92423,-0.0546 1.81099,-0.62785 3.31053,-1.72923 4.49863,-3.30416 l 7.83477,2.1669 c -1.34742,2.15095 -2.82426,3.88952 -4.43053,5.2157 -1.60633,1.32617 -3.29173,2.29847 -5.0562,2.9169 -1.76453,0.61842 -3.56559,0.92817 -5.40318,0.92926 -1.83763,10e-4 -3.61985,-0.23719 -5.34667,-0.71479 -2.3443,-0.64837 -4.41196,-1.69611 -6.20298,-3.14322 -1.79104,-1.44711 -3.23982,-3.13156 -4.34634,-5.05335 -1.10653,-1.92179 -1.82037,-4.02273 -2.1415,-6.30282 -0.32115,-2.28008 -0.15753,-4.59226 0.49084,-6.93655 0.64836,-2.34427 1.6961,-4.41192 3.14322,-6.20298 1.4471,-1.79101 3.13904,-3.22657 5.07582,-4.30669 1.93676,-1.08006 4.04519,-1.78068 6.32529,-2.10185 2.28007,-0.32111 4.59225,-0.1575 6.93656,0.49084 2.59022,0.71643 4.78263,1.8321 6.57722,3.34704 1.79452,1.51498 3.1926,3.26308 4.19423,5.24432 1.00155,1.98128 1.61618,4.12097 1.84388,6.4191 0.22762,2.29815 0.0431,4.6042 -0.55365,6.91817 z m 19.48751,-1.31577 c -0.83461,-3.06378 -3.17883,-5.15091 -7.03265,-6.26139 -3.98217,-0.96895 -7.10711,-0.39445 -9.37482,1.7235 z"
             id="path3871"
             style="font-size:64px;font-weight:bold;letter-spacing:-2.21000004px;fill:url(#radialGradient3968);fill-opacity:1;font-family:Opificio;-inkscape-font-specification:Opificio Bold" />
          <path
             d="m -477.63035,274.448 c 0.43102,-0.83253 0.68174,-1.71113 0.75217,-2.63582 0.0704,-0.92467 -0.0315,-1.81829 -0.30551,-2.68087 -0.27411,-0.86255 -0.70181,-1.6606 -1.28313,-2.39415 -0.58137,-0.73352 -1.30739,-1.32568 -2.17805,-1.77649 -0.87187,-0.45139 -1.78001,-0.6932 -2.72442,-0.72546 -0.94446,-0.0322 -1.84796,0.0887 -2.7105,0.36274 -0.86259,0.27409 -1.6602,0.70166 -2.39283,1.28271 -0.73268,0.58108 -1.30495,1.26938 -1.71682,2.06489 l -8.62549,16.79558 -6.64985,-3.44294 14.71289,-28.41709 6.59434,3.41421 -0.8531,1.64772 c 1.24766,-0.55485 2.52947,-0.80394 3.84542,-0.74727 1.31591,0.0567 2.64689,0.40933 3.99294,1.05782 1.74251,0.90222 3.22344,2.10151 4.44282,3.5979 1.21931,1.49642 2.12151,3.14093 2.70659,4.93353 0.58501,1.79264 0.8117,3.65154 0.68006,5.57673 -0.13172,1.9252 -0.65853,3.77815 -1.58044,5.55884 l -8.62376,16.79648 -6.70709,-3.47258 z"
             id="path3873"
             style="font-size:64px;font-weight:bold;letter-spacing:-2.21000004px;fill:url(#radialGradient3970);fill-opacity:1;font-family:Opificio;-inkscape-font-specification:Opificio Bold" />
          <path
             d="m -462.67935,277.0031 4.67515,-5.76683 2.28639,1.85358 7.21383,-8.89829 5.76682,4.67514 -7.21382,8.8983 5.81689,4.71573 -4.67515,5.76682 -5.81689,-4.71573 -15.47681,19.09074 -5.76682,-4.67514 15.47681,-19.09075 z"
             id="path3875"
             style="font-size:64px;font-weight:bold;letter-spacing:-2.21000004px;fill:url(#radialGradient3972);fill-opacity:1;font-family:Opificio;-inkscape-font-specification:Opificio Bold" />
        </g>
      </g>
    </g>
  </g>
</svg>
