<svg width="1200" height="500" viewBox="0 0 1200 500" xmlns="http://www.w3.org/2000/svg" style="background:#fff"><title>screenshot copy</title><path d="M475.334 285.961h20.543v-66.013H475.32v66.013h.015zm-210.466 0h20.54v-95.226l-20.538 13.366v81.86h-.002zm189.425-51.715c5.41 0 9.043.944 11.477 2.029l3.24-15.253c-4.326-1.622-10.28-2.572-15.691-2.572-24.603 0-37.84 15.797-37.84 35.113 0 20.793 13.65 33.883 35.013 33.883 7.826 0 14.716-1.346 18.367-3.104l-2.434-15.124c-3.108 1.358-6.89 2.17-11.758 2.17-9.998 0-18.124-6.487-18.124-18.64-.131-10.802 6.89-18.499 17.697-18.499l.053-.003zm31.436-44.824c-7.04 0-11.627 4.727-11.627 10.934 0 6.098 4.456 10.942 11.346 10.942h.131c7.153 0 11.609-4.844 11.609-10.942-.131-6.19-4.456-10.923-11.496-10.923l.037-.01zm75.324 57.518c0-15.528-6.89-28.486-28.927-28.486-12.04 0-21.101 3.374-25.689 5.94l3.782 13.099c4.326-2.57 11.497-4.863 18.256-4.863 10.13 0 12.02 4.993 12.02 8.513v.805c-23.385 0-38.795 8.098-38.795 25.244 0 10.534 7.976 20.256 21.345 20.256 7.845 0 14.604-2.835 18.93-8.095h.392l1.218 6.61h18.517c-.824-3.647-1.086-9.707-1.086-15.917v-23.1l.037-.006zm-19.884 14.99c0 1.217-.13 2.432-.412 3.51-1.367 4.193-5.692 7.567-10.672 7.567-4.606 0-8.126-2.568-8.126-7.837 0-7.831 8.388-10.395 19.191-10.395v7.156h.02zm-248.888 24.035h20.54v-66.02h-20.54V285.965zm-48.175-51.72c5.405 0 9.058.941 11.492 2.026l3.245-15.253c-4.325-1.621-10.26-2.571-15.672-2.571-24.604.003-37.86 15.799-37.86 35.116 0 20.793 13.649 33.883 35.012 33.883 7.842 0 14.736-1.346 18.381-3.104l-2.43-15.124c-3.108 1.358-6.91 2.17-11.758 2.17-10.017 0-18.125-6.487-18.125-18.64-.15-10.802 6.89-18.499 17.694-18.499l.02-.003zm145.18 51.716h20.552v-66.016h-20.551v66.016zm-30.513-67.513c-11.078 0-17.7 6.348-20.403 10.67h-.412l-.943-9.183h-17.838c.262 5.93.534 12.812.534 21.042v44.966h20.552V247.88c0-1.89.131-3.773.67-5.129 1.484-3.778 4.874-7.693 10.546-7.693 7.433 0 10.41 5.808 10.41 14.309v36.593h20.545v-39.016c0-19.44-10.137-28.49-23.66-28.49v-.007zm40.93-29.028c-7.035 0-11.631 4.727-11.631 10.934 0 6.083 4.456 10.942 11.365 10.942h.15c7.17 0 11.627-4.86 11.627-10.942-.131-6.205-4.456-10.932-11.478-10.932l-.033-.002zm-97.014 0c-7.04 0-11.627 4.727-11.627 10.934 0 6.083 4.456 10.942 11.346 10.942h.131c7.153 0 11.628-4.86 11.628-10.942-.15-6.205-4.475-10.932-11.497-10.932l.02-.002zm304.256 29.028c-11.085 0-17.713 6.348-20.409 10.67h-.43l-.956-9.183h-17.843c.262 5.93.543 12.812.543 21.042v44.966h20.54V247.88c0-1.89.13-3.773.674-5.129 1.479-3.778 4.849-7.693 10.54-7.693 7.434 0 10.411 5.808 10.411 14.308v36.594h20.54v-39.016c0-19.44-10.13-28.49-23.648-28.49l.038-.007zm33.383-17.263c-1.46 8.776-3.95 18.176-6.852 26.694h10.372c4.438-7.579 8.744-17.036 12.02-26.696H640.31l.018.002zm37.503 44.54c-8.126-2.842-10.69-4.454-10.69-7.698 0-3.24 2.845-5.268 7.844-5.268 5.542 0 11.347 2.16 14.305 3.647l3.52-14.041c-4.063-2.026-10.822-3.915-18.517-3.915-16.365 0-26.906 9.315-26.906 21.741-.15 7.688 5.13 15.244 18.91 19.714 7.565 2.563 9.606 4.19 9.606 7.687 0 3.367-2.565 5.406-8.8 5.406-6.078 0-13.92-2.581-17.703-4.863l-3.638 14.57c4.993 2.693 12.7 4.713 21.345 4.713 18.929 0 28.527-9.052 28.527-21.472-.132-9.595-5.262-16.066-17.83-20.256l.027.036zm161.658-25.782h20.54v66.018h-20.54v-66.018zm-11.327-1.496c1.872 0 2.827.138 4.306.4v19.313c-1.76-.271-3.389-.546-5.673-.546-7.565 0-12.713 3.928-14.08 10.4-.262 1.365-.393 2.842-.393 4.6v33.35h-20.54l.131-44.272c0-9.726-.131-16.067-.543-21.734h17.563l.805 12.288h.531c3.37-9.726 11.35-13.784 17.844-13.784l.049-.015zm161.564-22.894v-.056c.674-.196 1.217-.705 1.217-1.522 0-.599-.206-1.03-.58-1.31-.375-.28-.993-.467-1.948-.467-.749 0-1.254.056-1.779.15v6.248h.993v-2.674h.693c.805 0 1.198.299 1.348 1.1.116.815.28 1.395.43 1.593h1.034c-.094-.198-.244-.572-.393-1.547-.131-.92-.497-1.425-1.049-1.515h.034zm-1.367-.4h-.73v-2.13c.168-.027.393-.057.711-.057 1.124 0 1.536.55 1.536 1.104 0 .767-.712 1.075-1.536 1.075l.019.008zm-229.736 23.155c-9.212 0-16.121 3.647-20.053 9.333h-.28v-37.536l-20.578 13.392v62.713c0 7.431-.277 15.416-.554 19.751h17.475l.805-9.196h.28c4.719 7.837 12.19 10.68 19.903 10.68 15.166 0 30.332-11.9 30.332-35.715.131-20.294-11.515-33.416-27.373-33.416l.043-.006zm-7.845 52.894c-5.973 0-10.71-4.19-12.077-9.744-.28-1.085-.412-2.301-.412-3.666v-9.745c0-1.347.131-2.562.397-3.797 1.36-5.966 6.516-10.156 12.058-10.156 9.624 0 14.23 8.117 14.23 18.405 0 11.895-5.423 18.666-14.224 18.666l.028.037zm237.974-81.473h-.037c-3.07 0-5.58 2.487-5.58 5.611 0 3.16 2.49 5.63 5.561 5.63 3.108 0 5.542-2.47 5.542-5.649 0-3.123-2.44-5.61-5.518-5.61l.032.018zm0 10.38c-2.509 0-4.53-2.113-4.53-4.769 0-2.637 2.021-4.75 4.493-4.75h.018c2.51 0 4.494 2.113 4.494 4.769 0 2.637-1.985 4.77-4.494 4.75h.02zm-21.773-11.5c4.462 0 7.976.682 10.814 1.346l-.805 15.805c-1.763-.539-3.924-.945-6.628-.945-6.765 0-9.601 5.27-9.601 11.746v3.386h13.248v15.116h-13.113v50.898h-20.547v-50.896h-8.79v-15.117h8.79v-2.573c0-7.968 2.44-16.746 8.25-22.151 5.266-4.852 12.297-6.615 18.382-6.615zm-67.554 29.708c-22.852 0-33.384 18.498-33.384 35.246 0 20.793 12.833 33.76 35.275 33.76 8.923 0 17.17-1.36 23.928-4.195l-2.707-13.91c-5.542 1.9-11.221 2.843-18.252 2.843-9.595 0-17.974-4.052-18.648-12.7l42.577.138c.262-1.621.681-4.722.681-8.233 0-16.338-8.116-32.949-29.47-32.949zm-13.921 27.009c.547-5.406 4.055-13.374 12.833-13.374 9.324 0 11.496 8.51 11.496 13.374h-24.34.01zm-24.093-44.972c0 6.083-4.457 10.942-11.618 10.942h-.143c-6.89 0-11.355-4.86-11.355-10.942 0-6.205 4.606-10.932 11.627-10.932 7.04 0 11.365 4.727 11.496 10.934l-.007-.002z" fill="#D6001C" fill-rule="evenodd"/></svg>