<svg xmlns="http://www.w3.org/2000/svg" viewBox="0 0 800 224">
  <g fill="none" fill-rule="evenodd">
    <path fill="#E3E5E7" d="M0 0h800v224H0z"/>
    <g transform="translate(330)">
      <path fill="#009BCD" d="M64.4 0h11.2v224H64.4z"/>
      <circle cx="70" cy="112" r="69.44" fill="#009BCD"/>
      <path fill="#444" d="M36.96 132.72h26.88v13.44H36.96zm40.32 0h26.88v13.44H77.28zm-40.32-26.88h67.2v13.44h-67.2zm0-26.88h40.32V92.4H36.96zm53.76 0h13.44V92.4H90.72z"/>
    </g>
    <g transform="translate(76)">
      <path fill="#009BCD" d="M64.4 0h11.2v224H64.4z"/>
      <circle cx="70" cy="112" r="69.44" fill="#009BCD"/>
      <path fill="#444" d="M70 49.28C35.3607 49.28 7.28 77.3607 7.28 112S35.3607 174.72 70 174.72s62.72-28.0807 62.72-62.72S104.6393 49.28 70 49.28zm49.103063 35.84C123.49865 93.07162 126 102.196827 126 111.903572c0 20.596936-11.258723 38.579253-28 48.256428l17.19926-49.302538c3.21252-7.96476 4.282253-14.333416 4.282253-19.99634 0-2.055424-.136534-3.962998-.37845-5.741122zM70.022597 168c-5.45597 0-10.72157-.803798-15.702597-2.275346L70.998653 117.04l17.083598 47.02448c.112525.276038.25056.530387.39775.76962C82.70282 166.877444 76.495186 168 70.0226 168zM45.36 162.4C26.79718 153.302837 14 134.101018 14 111.883327c0-8.137898 1.730216-15.86289 4.818016-22.843327m79.407487 57.216343L77.99806 85.847997c3.369594-.177922 6.405852-.533768 6.405852-.533768 3.015835-.35849 2.6601-4.80854-.357052-4.63128 0 0-9.065953.714335-14.91844.714335-5.499387 0-14.74057-.714336-14.74057-.714336-3.018472-.17726-3.37223 4.452032-.355077 4.631277 0 0 2.855097.355845 5.870932.533767l8.71944 23.98912L56.372715 146.72 35.991778 85.847997c3.37223-.177922 6.405192-.533768 6.405192-.533768 3.01386-.35849 2.658125-4.80854-.35771-4.63128 0 0-9.063977.714335-14.917123.714335-1.050074 0-2.287898-.025796-3.602138-.068127C33.52799 66.07412 50.729712 56 70.284554 56c14.57061 0 27.83818 5.593647 37.795443 14.754344-.24111-.014552-.47629-.044977-.724645-.044977-5.49807 0-9.399288 4.80854-9.399288 9.973585 0 4.631277 2.66142 8.549542 5.49807 13.18016 2.128476 3.742987 4.614663 8.550864 4.614663 15.498442 0 4.8092-1.84257 10.390942-4.258927 18.16662"/>
    </g>
    <g transform="translate(584)">
      <path fill="#009BCD" d="M64.4 0h11.2v224H64.4z"/>
      <ellipse cx="70" cy="112" fill="#009BCD" rx="69.44" ry="69.44"/>
      <g fill="#444">
        <path d="M67.95578 95.850323C107.977187 101.83578 126.559998 143.92 126.559998 143.92s-16.60859-25.302815-58.604218-25.302813c-41.995627.000004-40.021408-28.75232 0-22.766864z"/>
        <path d="M14 106.4027L70 80.08v56"/>
      </g>
    </g>
  </g>
</svg>
