<svg xmlns="http://www.w3.org/2000/svg" xmlns:xlink="http://www.w3.org/1999/xlink" viewBox="0 0 53 53">
  <defs>
    <clipPath id="a">
      <circle cx="26.5" cy="26.5" r="22" style="fill: none"/>
    </clipPath>
  </defs>
  <title>GitHub</title>
  <g>
    <circle cx="26.5" cy="26.5" r="25" style="fill: none;stroke: currentColor;stroke-miterlimit: 10;stroke-width: 3px"/>
    <g style="clip-path: url(#a)">
      <g>
        <line x1="42.0335" y1="45.5334" x2="10.1823" y2="45.5335" style="fill: none;stroke: currentColor;stroke-linecap: square;stroke-miterlimit: 10;stroke-width: 0.25px"/>
        <line x1="36.3898" y1="49.7761" x2="17.3826" y2="49.7761" style="fill: none;stroke: currentColor;stroke-linecap: square;stroke-miterlimit: 10;stroke-width: 0.25px"/>
        <line x1="44.1548" y1="43.4121" x2="8.0924" y2="43.4121" style="fill: none;stroke: currentColor;stroke-linecap: square;stroke-miterlimit: 10;stroke-width: 0.25px"/>
        <line x1="16.5724" y1="41.2908" x2="6.6214" y2="41.2908" style="fill: none;stroke: currentColor;stroke-linecap: square;stroke-miterlimit: 10;stroke-width: 0.25px"/>
        <line x1="46.2762" y1="41.2908" x2="17.9993" y2="41.2908" style="fill: none;stroke: currentColor;stroke-linecap: square;stroke-miterlimit: 10;stroke-width: 0.25px"/>
        <line x1="48.3975" y1="39.1695" x2="5.264" y2="39.1695" style="fill: none;stroke: currentColor;stroke-linecap: square;stroke-miterlimit: 10;stroke-width: 0.25px"/>
        <line x1="10.7428" y1="37.0482" x2="4.3615" y2="37.0482" style="fill: none;stroke: currentColor;stroke-linecap: square;stroke-miterlimit: 10;stroke-width: 0.25px"/>
        <line x1="49.1102" y1="37.0482" x2="11.8586" y2="37.0482" style="fill: none;stroke: currentColor;stroke-linecap: square;stroke-miterlimit: 10;stroke-width: 0.25px"/>
        <line x1="49.8171" y1="34.9269" x2="3.1376" y2="34.9268" style="fill: none;stroke: currentColor;stroke-linecap: square;stroke-miterlimit: 10;stroke-width: 0.25px"/>
        <line x1="50.5227" y1="32.8055" x2="2.4303" y2="32.8055" style="fill: none;stroke: currentColor;stroke-linecap: square;stroke-miterlimit: 10;stroke-width: 0.25px"/>
        <line x1="51.2299" y1="30.6842" x2="1.7234" y2="30.6842" style="fill: none;stroke: currentColor;stroke-linecap: square;stroke-miterlimit: 10;stroke-width: 0.25px"/>
        <line x1="51.2259" y1="28.5629" x2="1.7284" y2="28.5629" style="fill: none;stroke: currentColor;stroke-linecap: square;stroke-miterlimit: 10;stroke-width: 0.25px"/>
        <line x1="51.2301" y1="26.4416" x2="1.7234" y2="26.4416" style="fill: none;stroke: currentColor;stroke-linecap: square;stroke-miterlimit: 10;stroke-width: 0.25px"/>
        <line x1="51.2259" y1="24.3202" x2="1.7284" y2="24.3202" style="fill: none;stroke: currentColor;stroke-linecap: square;stroke-miterlimit: 10;stroke-width: 0.25px"/>
        <line x1="51.2305" y1="22.1989" x2="1.7234" y2="22.1989" style="fill: none;stroke: currentColor;stroke-linecap: square;stroke-miterlimit: 10;stroke-width: 0.25px"/>
        <line x1="50.5236" y1="20.0776" x2="2.4303" y2="20.0776" style="fill: none;stroke: currentColor;stroke-linecap: square;stroke-miterlimit: 10;stroke-width: 0.25px"/>
        <line x1="49.8573" y1="17.9563" x2="3.1373" y2="17.9563" style="fill: none;stroke: currentColor;stroke-linecap: square;stroke-miterlimit: 10;stroke-width: 0.25px"/>
        <line x1="49.153" y1="15.835" x2="3.8442" y2="15.835" style="fill: none;stroke: currentColor;stroke-linecap: square;stroke-miterlimit: 10;stroke-width: 0.25px"/>
        <line x1="48.4032" y1="13.7136" x2="4.7881" y2="13.7136" style="fill: none;stroke: currentColor;stroke-linecap: square;stroke-miterlimit: 10;stroke-width: 0.25px"/>
        <line x1="47.0082" y1="11.5923" x2="6.9095" y2="11.5923" style="fill: none;stroke: currentColor;stroke-linecap: square;stroke-miterlimit: 10;stroke-width: 0.25px"/>
        <line x1="44.8899" y1="9.471" x2="9.0308" y2="9.471" style="fill: none;stroke: currentColor;stroke-linecap: square;stroke-miterlimit: 10;stroke-width: 0.25px"/>
        <line x1="42.7406" y1="7.3497" x2="11.1521" y2="7.3497" style="fill: none;stroke: currentColor;stroke-linecap: square;stroke-miterlimit: 10;stroke-width: 0.25px"/>
        <line x1="39.9216" y1="5.2284" x2="13.2734" y2="5.2284" style="fill: none;stroke: currentColor;stroke-linecap: square;stroke-miterlimit: 10;stroke-width: 0.25px"/>
        <line x1="34.7267" y1="3.1071" x2="16.5639" y2="3.107" style="fill: none;stroke: currentColor;stroke-linecap: square;stroke-miterlimit: 10;stroke-width: 0.25px"/>
      </g>
    </g>
    <path d="M32.7317,47.8136c0-.83.0293-3.5434.0293-6.9142a6.0223,6.0223,0,0,0-1.709-4.6658c5.61-.6238,11.5045-2.7545,11.5045-12.4316a9.7321,9.7321,0,0,0-2.593-6.7628,9.0418,9.0418,0,0,0-.247-6.6676s-2.1129-.6772-6.9218,2.5826a23.8988,23.8988,0,0,0-12.6181,0c-4.8147-3.26-6.93-2.5826-6.93-2.5826a9.0534,9.0534,0,0,0-.244,6.6676,9.7505,9.7505,0,0,0-2.596,6.7628c0,9.6541,5.8828,11.8145,11.4791,12.4516a5.366,5.366,0,0,0-1.6,3.3691c-1.4377.6437-5.0846,1.7573-7.3318-2.0944a5.2947,5.2947,0,0,0-3.8623-2.5964S6.6332,34.9,8.9191,36.4635c0,0,1.6514.7744,2.7975,3.6866,0,0,1.479,4.4968,8.4884,2.9727.0109,2.1053.0343,4.09.0343,4.6908,0,.6614-.4584,1.4336-1.7,1.2141a25.1869,25.1869,0,0,0,15.8944-.0023C33.18,49.254,32.7317,48.4786,32.7317,47.8136ZM10.7241,36.2314c-.0555.1256-.2524.1627-.4318.0768-.1827-.0822-.2853-.2528-.2261-.3784.0542-.129.2516-.1644.4339-.0789C10.6833,35.9335,10.7875,36.1058,10.7241,36.2314Zm.8222,1.1059c-.12.1114-.3551.06-.5145-.1164a.3851.3851,0,0,1-.0738-.5236c.1239-.1114.3517-.0592.5169.1164C11.64,36.9914,11.6718,37.2247,11.5463,37.3373Zm1.2674,1.4149c-.1544.1072-.4068.0067-.5628-.2174-.1544-.224-.1544-.4927.0033-.6s.4051-.0109.5633.2115C12.9714,38.3734,12.9714,38.6425,12.8137,38.7522Zm1.0207,1.6386c-.1381.1523-.4323.1114-.6476-.0963-.22-.2032-.2816-.4915-.143-.6438s.4355-.11.6525.0963C13.9149,39.95,13.9816,40.24,13.8344,40.3908Zm1.8584.5533c-.0609.1973-.3443.287-.63.2031-.2849-.0863-.4714-.3175-.4138-.5169.0592-.1986.3438-.2921.6312-.2024C15.5651,40.5138,15.752,40.7433,15.6928,40.9441Zm1.58.618c-.3012.0071-.5449-.1611-.5483-.3655,0-.21.2366-.38.5379-.3855.3-.0058.5448.1611.5448.3676C17.8147,41.3864,17.5727,41.5587,17.2732,41.5621Zm2.1423-.4143c-.2925.0539-.5633-.0713-.6-.2724-.0362-.2078.1757-.416.4677-.47.2979-.0518.5645.07.6025.2762C19.9212,40.8846,19.713,41.0928,19.4155,41.1478Z" style="fill: currentColor"/>
  </g>
</svg>
