<svg xmlns="http://www.w3.org/2000/svg" xmlns:xlink="http://www.w3.org/1999/xlink" viewBox="0 0 53 53">
  <defs>
    <clipPath id="a">
      <circle cx="26.5" cy="26.5" r="22" style="fill: none"/>
    </clipPath>
  </defs>
  <title>instagram</title>
  <g>
    <circle cx="26.5" cy="26.5" r="25" style="fill: none;stroke: #009bcd;stroke-miterlimit: 10;stroke-width: 3px"/>
    <g style="clip-path: url(#a)">
      <g>
        <line x1="10.9188" y1="7.4368" x2="42.77" y2="7.4368" style="fill: none;stroke: #009bcd;stroke-linecap: square;stroke-miterlimit: 10;stroke-width: 0.25px"/>
        <line x1="13.0401" y1="5.3155" x2="39.3555" y2="5.3155" style="fill: none;stroke: #009bcd;stroke-linecap: square;stroke-miterlimit: 10;stroke-width: 0.25px"/>
        <line x1="16.5625" y1="3.1942" x2="35.5698" y2="3.1942" style="fill: none;stroke: #009bcd;stroke-linecap: square;stroke-miterlimit: 10;stroke-width: 0.25px"/>
        <line x1="8.7975" y1="9.5582" x2="44.8599" y2="9.5582" style="fill: none;stroke: #009bcd;stroke-linecap: square;stroke-miterlimit: 10;stroke-width: 0.25px"/>
        <line x1="6.6762" y1="11.6795" x2="46.3309" y2="11.6795" style="fill: none;stroke: #009bcd;stroke-linecap: square;stroke-miterlimit: 10;stroke-width: 0.25px"/>
        <line x1="4.5549" y1="13.8008" x2="47.6884" y2="13.8008" style="fill: none;stroke: #009bcd;stroke-linecap: square;stroke-miterlimit: 10;stroke-width: 0.25px"/>
        <line x1="3.8422" y1="15.9221" x2="48.5909" y2="15.9221" style="fill: none;stroke: #009bcd;stroke-linecap: square;stroke-miterlimit: 10;stroke-width: 0.25px"/>
        <line x1="3.1353" y1="18.0434" x2="49.8147" y2="18.0434" style="fill: none;stroke: #009bcd;stroke-linecap: square;stroke-miterlimit: 10;stroke-width: 0.25px"/>
        <line x1="2.4297" y1="20.1648" x2="50.522" y2="20.1648" style="fill: none;stroke: #009bcd;stroke-linecap: square;stroke-miterlimit: 10;stroke-width: 0.25px"/>
        <line x1="1.7225" y1="22.2861" x2="51.229" y2="22.2861" style="fill: none;stroke: #009bcd;stroke-linecap: square;stroke-miterlimit: 10;stroke-width: 0.25px"/>
        <line x1="1.7264" y1="24.4074" x2="51.2239" y2="24.4074" style="fill: none;stroke: #009bcd;stroke-linecap: square;stroke-miterlimit: 10;stroke-width: 0.25px"/>
        <line x1="1.7222" y1="26.5287" x2="51.229" y2="26.5287" style="fill: none;stroke: #009bcd;stroke-linecap: square;stroke-miterlimit: 10;stroke-width: 0.25px"/>
        <line x1="1.7264" y1="28.6501" x2="51.2239" y2="28.6501" style="fill: none;stroke: #009bcd;stroke-linecap: square;stroke-miterlimit: 10;stroke-width: 0.25px"/>
        <line x1="1.7219" y1="30.7714" x2="51.229" y2="30.7714" style="fill: none;stroke: #009bcd;stroke-linecap: square;stroke-miterlimit: 10;stroke-width: 0.25px"/>
        <line x1="2.4287" y1="32.8927" x2="50.522" y2="32.8927" style="fill: none;stroke: #009bcd;stroke-linecap: square;stroke-miterlimit: 10;stroke-width: 0.25px"/>
        <line x1="3.095" y1="35.014" x2="49.815" y2="35.014" style="fill: none;stroke: #009bcd;stroke-linecap: square;stroke-miterlimit: 10;stroke-width: 0.25px"/>
        <line x1="3.7993" y1="37.1353" x2="49.1081" y2="37.1353" style="fill: none;stroke: #009bcd;stroke-linecap: square;stroke-miterlimit: 10;stroke-width: 0.25px"/>
        <line x1="4.5491" y1="39.2566" x2="48.1642" y2="39.2567" style="fill: none;stroke: #009bcd;stroke-linecap: square;stroke-miterlimit: 10;stroke-width: 0.25px"/>
        <line x1="5.9441" y1="41.378" x2="46.0429" y2="41.378" style="fill: none;stroke: #009bcd;stroke-linecap: square;stroke-miterlimit: 10;stroke-width: 0.25px"/>
        <line x1="8.0625" y1="43.4993" x2="43.9216" y2="43.4993" style="fill: none;stroke: #009bcd;stroke-linecap: square;stroke-miterlimit: 10;stroke-width: 0.25px"/>
        <line x1="10.2117" y1="45.6206" x2="41.8002" y2="45.6206" style="fill: none;stroke: #009bcd;stroke-linecap: square;stroke-miterlimit: 10;stroke-width: 0.25px"/>
        <line x1="13.0308" y1="47.7419" x2="39.6789" y2="47.7419" style="fill: none;stroke: #009bcd;stroke-linecap: square;stroke-miterlimit: 10;stroke-width: 0.25px"/>
        <line x1="18.2257" y1="49.8632" x2="36.3884" y2="49.8633" style="fill: none;stroke: #009bcd;stroke-linecap: square;stroke-miterlimit: 10;stroke-width: 0.25px"/>
      </g>
    </g>
    <path d="M26.5,14.1c4.0385,0,4.5169.0154,6.1117.0881a8.3708,8.3708,0,0,1,2.8086.5208,5.0081,5.0081,0,0,1,2.87,2.8705,8.3673,8.3673,0,0,1,.5209,2.8085c.0727,1.5949.0881,2.0733.0881,6.1118s-.0154,4.5169-.0881,6.1118a8.3681,8.3681,0,0,1-.5209,2.8086,5.0083,5.0083,0,0,1-2.87,2.87,8.3708,8.3708,0,0,1-2.8086.5208c-1.5946.0728-2.0729.0882-6.1117.0882s-4.5172-.0154-6.1118-.0882a8.37,8.37,0,0,1-2.8085-.5208,5.0089,5.0089,0,0,1-2.87-2.87,8.3712,8.3712,0,0,1-.5208-2.8085C14.1156,31.0169,14.1,30.5386,14.1,26.5s.0154-4.5169.0882-6.1117a8.3708,8.3708,0,0,1,.5208-2.8086,5.0087,5.0087,0,0,1,2.8705-2.87,8.37,8.37,0,0,1,2.8084-.5208c1.595-.0727,2.0733-.0881,6.1119-.0881m0-2.7253c-4.1078,0-4.6228.0174-6.236.091a11.1023,11.1023,0,0,0-3.6715.7031,7.7342,7.7342,0,0,0-4.4235,4.4235,11.1,11.1,0,0,0-.703,3.6714c-.0736,1.6132-.091,2.1283-.091,6.236s.0174,4.6228.091,6.236a11.1,11.1,0,0,0,.703,3.6715,7.7349,7.7349,0,0,0,4.4235,4.4235,11.1,11.1,0,0,0,3.6715.703c1.6132.0736,2.1282.091,6.236.091s4.6228-.0174,6.236-.091a11.1,11.1,0,0,0,3.6714-.703,7.7342,7.7342,0,0,0,4.4235-4.4235,11.1023,11.1023,0,0,0,.7031-3.6715c.0736-1.6132.091-2.1282.091-6.236s-.0174-4.6228-.091-6.236a11.1022,11.1022,0,0,0-.7031-3.6714,7.7334,7.7334,0,0,0-4.4235-4.4235,11.1022,11.1022,0,0,0-3.6714-.7031C31.1228,11.3924,30.6077,11.375,26.5,11.375Zm0,7.3581A7.7669,7.7669,0,1,0,34.2669,26.5,7.7669,7.7669,0,0,0,26.5,18.7331Zm0,12.8086A5.0417,5.0417,0,1,1,31.5417,26.5,5.0418,5.0418,0,0,1,26.5,31.5417Zm9.8887-13.1154a1.815,1.815,0,1,1-1.815-1.815A1.8149,1.8149,0,0,1,36.3887,18.4263Z" style="fill: #009bcd"/>
  </g>
</svg>
