<svg xmlns="http://www.w3.org/2000/svg" xmlns:xlink="http://www.w3.org/1999/xlink" viewBox="0 0 53 53">
  <defs>
    <clipPath id="a">
      <circle cx="26.5" cy="26.5" r="22" style="fill: none"/>
    </clipPath>
  </defs>
  <title>LinkedIn</title>
  <g>
    <circle cx="26.5" cy="26.5" r="25" style="fill: none;stroke: currentColor;stroke-miterlimit: 10;stroke-width: 3px"/>
    <g style="clip-path: url(#a)">
      <g>
        <line x1="42.0335" y1="45.5334" x2="10.1823" y2="45.5335" style="fill: none;stroke: currentColor;stroke-linecap: square;stroke-miterlimit: 10;stroke-width: 0.25px"/>
        <line x1="39.9122" y1="47.6548" x2="13.5968" y2="47.6548" style="fill: none;stroke: currentColor;stroke-linecap: square;stroke-miterlimit: 10;stroke-width: 0.25px"/>
        <line x1="36.3898" y1="49.7761" x2="17.3826" y2="49.7761" style="fill: none;stroke: currentColor;stroke-linecap: square;stroke-miterlimit: 10;stroke-width: 0.25px"/>
        <line x1="44.1548" y1="43.4121" x2="8.0924" y2="43.4121" style="fill: none;stroke: currentColor;stroke-linecap: square;stroke-miterlimit: 10;stroke-width: 0.25px"/>
        <line x1="46.2762" y1="41.2908" x2="6.6214" y2="41.2908" style="fill: none;stroke: currentColor;stroke-linecap: square;stroke-miterlimit: 10;stroke-width: 0.25px"/>
        <line x1="48.3975" y1="39.1695" x2="5.264" y2="39.1695" style="fill: none;stroke: currentColor;stroke-linecap: square;stroke-miterlimit: 10;stroke-width: 0.25px"/>
        <line x1="49.1102" y1="37.0482" x2="4.3615" y2="37.0482" style="fill: none;stroke: currentColor;stroke-linecap: square;stroke-miterlimit: 10;stroke-width: 0.25px"/>
        <line x1="49.8171" y1="34.9269" x2="3.1376" y2="34.9268" style="fill: none;stroke: currentColor;stroke-linecap: square;stroke-miterlimit: 10;stroke-width: 0.25px"/>
        <line x1="50.5227" y1="32.8055" x2="2.4303" y2="32.8055" style="fill: none;stroke: currentColor;stroke-linecap: square;stroke-miterlimit: 10;stroke-width: 0.25px"/>
        <line x1="51.2299" y1="30.6842" x2="1.7234" y2="30.6842" style="fill: none;stroke: currentColor;stroke-linecap: square;stroke-miterlimit: 10;stroke-width: 0.25px"/>
        <line x1="51.2259" y1="28.5629" x2="1.7284" y2="28.5629" style="fill: none;stroke: currentColor;stroke-linecap: square;stroke-miterlimit: 10;stroke-width: 0.25px"/>
        <line x1="51.2301" y1="26.4416" x2="1.7234" y2="26.4416" style="fill: none;stroke: currentColor;stroke-linecap: square;stroke-miterlimit: 10;stroke-width: 0.25px"/>
        <line x1="51.2259" y1="24.3202" x2="1.7284" y2="24.3202" style="fill: none;stroke: currentColor;stroke-linecap: square;stroke-miterlimit: 10;stroke-width: 0.25px"/>
        <line x1="51.2305" y1="22.1989" x2="1.7234" y2="22.1989" style="fill: none;stroke: currentColor;stroke-linecap: square;stroke-miterlimit: 10;stroke-width: 0.25px"/>
        <line x1="50.5236" y1="20.0776" x2="2.4303" y2="20.0776" style="fill: none;stroke: currentColor;stroke-linecap: square;stroke-miterlimit: 10;stroke-width: 0.25px"/>
        <line x1="49.8573" y1="17.9563" x2="3.1373" y2="17.9563" style="fill: none;stroke: currentColor;stroke-linecap: square;stroke-miterlimit: 10;stroke-width: 0.25px"/>
        <line x1="49.153" y1="15.835" x2="3.8442" y2="15.835" style="fill: none;stroke: currentColor;stroke-linecap: square;stroke-miterlimit: 10;stroke-width: 0.25px"/>
        <line x1="48.4032" y1="13.7136" x2="4.7881" y2="13.7136" style="fill: none;stroke: currentColor;stroke-linecap: square;stroke-miterlimit: 10;stroke-width: 0.25px"/>
        <line x1="47.0082" y1="11.5923" x2="6.9095" y2="11.5923" style="fill: none;stroke: currentColor;stroke-linecap: square;stroke-miterlimit: 10;stroke-width: 0.25px"/>
        <line x1="44.8899" y1="9.471" x2="9.0308" y2="9.471" style="fill: none;stroke: currentColor;stroke-linecap: square;stroke-miterlimit: 10;stroke-width: 0.25px"/>
        <line x1="42.7406" y1="7.3497" x2="11.1521" y2="7.3497" style="fill: none;stroke: currentColor;stroke-linecap: square;stroke-miterlimit: 10;stroke-width: 0.25px"/>
        <line x1="39.9216" y1="5.2284" x2="13.2734" y2="5.2284" style="fill: none;stroke: currentColor;stroke-linecap: square;stroke-miterlimit: 10;stroke-width: 0.25px"/>
        <line x1="34.7267" y1="3.1071" x2="16.5639" y2="3.107" style="fill: none;stroke: currentColor;stroke-linecap: square;stroke-miterlimit: 10;stroke-width: 0.25px"/>
      </g>
    </g>
    <g>
      <path d="M22.4352,21.9706h5.3423v2.555H28.01a5.7111,5.7111,0,0,1,5.3424-3.02c5.6778,0,6.736,3.801,6.736,8.8265v9.9879H34.5135V31.4939c-.08-2.23-.1218-4.968-3.02-4.8778-2.95-.09-3.3989,2.229-3.4841,4.6456v9.0588H22.4352v-18.35" style="fill: currentColor;fill-rule: evenodd"/>
      <rect x="13.1441" y="21.9706" width="5.8069" height="18.3499" style="fill: currentColor"/>
      <circle cx="16.1637" cy="15.9314" r="3.2519" style="fill: currentColor"/>
    </g>
  </g>
</svg>
