<svg viewBox="0 0 53 53" xmlns="http://www.w3.org/2000/svg" xmlns:xlink="http://www.w3.org/1999/xlink"><clipPath id="a"><circle cx="26.5" cy="26.5" r="22"/></clipPath><circle cx="26.5" cy="26.5" fill="none" r="25" stroke="#009bcd" stroke-miterlimit="10" stroke-width="3"/><g style="clip-path:url(#a);fill:none;stroke:#009bcd;stroke-linecap:square;stroke-miterlimit:10;stroke-width:.25"><path d="m10.9188 7.4656h31.8512"/><path d="m13.0401 5.3443h26.3154"/><path d="m16.5625 3.2229h19.0073"/><path d="m8.7975 9.5869h36.0624"/><path d="m6.6762 11.7082h39.6547"/><path d="m4.5549 13.8295h43.1335"/><path d="m3.8422 15.9509h44.7487"/><path d="m3.1353 18.0722h46.6794"/><path d="m2.4297 20.1935h48.0923"/><path d="m1.7225 22.3148h49.5065"/><path d="m1.7264 24.4361h49.4975"/><path d="m28.3946 26.5575h22.8344"/><path d="m1.7222 26.5575h22.915"/><path d="m1.7264 28.6788h49.4975"/><path d="m1.7219 30.8001h49.5071"/><path d="m2.4287 32.9214h48.0933"/><path d="m3.095 35.0427h46.72"/><path d="m3.7993 37.1641h45.3088"/><path d="m4.5491 39.2854h43.6151"/><path d="m5.9441 41.4067h40.0988"/><path d="m8.0625 43.528h35.8591"/><path d="m10.2117 45.6493h31.5885"/><path d="m13.0308 47.7707h26.6481"/><path d="m18.2257 49.892h18.1627"/></g><path d="m32.78 34.7595c3.9691-.4725 7.4224-2.904 7.8555-5.1248.6851-3.5005.63-8.5426.63-8.5426 0-6.8317-4.5007-8.836-4.5007-8.836-2.2681-1.0376-6.1643-1.4727-10.2122-1.5061h-.0984c-4.0498.0335-7.9441.4686-10.2122 1.5061 0 0-4.4987 2.0023-4.4987 8.836l-.0039 1.3033c-.0079 1.26-.0138 2.6579.0217 4.1168.1634 6.6821 1.2325 13.2697 7.4421 14.9038 2.8626.7541 5.3217.9116 7.3023.8033 3.5891-.1969 5.6052-1.2738 5.6052-1.2738l-.1181-2.5929s-2.5653.8072-5.4477.7088c-2.8548-.0984-5.867-.3071-6.3297-3.7958-.044-.3236-.0658-.6499-.065-.9765 0 0 2.8036.6812 6.3553.8426 2.1716.0984 4.2073-.126 6.2765-.3721h-.002zm3.1757-4.8629h-3.2938v-8.0327c0-1.6912-.7166-2.5496-2.148-2.5496-1.5829 0-2.3763 1.0179-2.3763 3.0339v4.3963h-3.2761v-4.3983c0-2.0161-.7934-3.0339-2.3763-3.0339-1.4313 0-2.148.8584-2.148 2.5516v8.0307h-3.2938v-8.2729c0-1.6912.4331-3.0339 1.2994-4.0282.8978-.9942 2.0712-1.5042 3.5301-1.5042 1.6853 0 2.9611.6458 3.8057 1.9353l.821 1.3683.821-1.3683c.8446-1.2896 2.1204-1.9353 3.8077-1.9353 1.4569 0 2.6303.5099 3.5261 1.5042.8702.9942 1.3014 2.337 1.3014 4.0282v8.2749z" fill="#009bcd"/></svg>