<?xml version="1.0" encoding="UTF-8"?><svg id="uuid-fc030a0f-2bb8-4884-b116-5e78489b9170" xmlns="http://www.w3.org/2000/svg" width="53" height="53" xmlns:xlink="http://www.w3.org/1999/xlink" viewBox="0 0 53 53"><defs><clipPath id="uuid-1c8e9c29-1108-43d7-bb20-8b7abc7bb571"><circle cx="26.5" cy="26.5" r="22" style="fill:none;"/></clipPath></defs><g id="uuid-48c0bad4-6e19-4515-9896-3104ca79f810"><g id="uuid-1c105329-925f-4219-b25d-8d4d2b52af46"><circle id="uuid-29883eb4-6e0f-4ba7-8daf-6d74a278a602" cx="26.5" cy="26.5" r="25" style="fill:none; stroke:#009bcd; stroke-miterlimit:10; stroke-width:3px;"/><g id="uuid-af1b7812-90f8-41ba-aec0-a19a84b6c050"><g style="clip-path:url(#uuid-1c8e9c29-1108-43d7-bb20-8b7abc7bb571);"><g id="uuid-6fb53e84-466f-4e5c-aa08-a7c25b67f63e"><line x1="10.91882" y1="7.46557" x2="42.77004" y2="7.46557" style="fill:none; stroke:#009bcd; stroke-linecap:square; stroke-miterlimit:10; stroke-width:.25px;"/><line x1="13.04014" y1="5.34425" x2="39.35553" y2="5.34425" style="fill:none; stroke:#009bcd; stroke-linecap:square; stroke-miterlimit:10; stroke-width:.25px;"/><line x1="16.56252" y1="3.22293" x2="35.56979" y2="3.22294" style="fill:none; stroke:#009bcd; stroke-linecap:square; stroke-miterlimit:10; stroke-width:.25px;"/><line x1="8.7975" y1="9.58689" x2="44.85995" y2="9.58689" style="fill:none; stroke:#009bcd; stroke-linecap:square; stroke-miterlimit:10; stroke-width:.25px;"/><line x1="6.67618" y1="11.70821" x2="46.33094" y2="11.70821" style="fill:none; stroke:#009bcd; stroke-linecap:square; stroke-miterlimit:10; stroke-width:.25px;"/><line x1="4.55486" y1="13.82953" x2="47.68838" y2="13.82953" style="fill:none; stroke:#009bcd; stroke-linecap:square; stroke-miterlimit:10; stroke-width:.25px;"/><line x1="3.84217" y1="15.95085" x2="48.59088" y2="15.95086" style="fill:none; stroke:#009bcd; stroke-linecap:square; stroke-miterlimit:10; stroke-width:.25px;"/><line x1="3.13529" y1="18.07218" x2="49.81475" y2="18.07218" style="fill:none; stroke:#009bcd; stroke-linecap:square; stroke-miterlimit:10; stroke-width:.25px;"/><line x1="2.42968" y1="20.1935" x2="50.522" y2="20.1935" style="fill:none; stroke:#009bcd; stroke-linecap:square; stroke-miterlimit:10; stroke-width:.25px;"/><line x1="1.72249" y1="22.31482" x2="51.22896" y2="22.31482" style="fill:none; stroke:#009bcd; stroke-linecap:square; stroke-miterlimit:10; stroke-width:.25px;"/><line x1="1.72644" y1="24.43614" x2="51.22391" y2="24.43614" style="fill:none; stroke:#009bcd; stroke-linecap:square; stroke-miterlimit:10; stroke-width:.25px;"/><line x1="28.39455" y1="26.55746" x2="51.22896" y2="26.55746" style="fill:none; stroke:#009bcd; stroke-linecap:square; stroke-miterlimit:10; stroke-width:.25px;"/><line x1="1.72221" y1="26.55746" x2="24.63719" y2="26.55746" style="fill:none; stroke:#009bcd; stroke-linecap:square; stroke-miterlimit:10; stroke-width:.25px;"/><line x1="1.72644" y1="28.67878" x2="51.22391" y2="28.67878" style="fill:none; stroke:#009bcd; stroke-linecap:square; stroke-miterlimit:10; stroke-width:.25px;"/><line x1="1.72188" y1="30.8001" x2="51.22896" y2="30.8001" style="fill:none; stroke:#009bcd; stroke-linecap:square; stroke-miterlimit:10; stroke-width:.25px;"/><line x1="2.42874" y1="32.92142" x2="50.522" y2="32.92142" style="fill:none; stroke:#009bcd; stroke-linecap:square; stroke-miterlimit:10; stroke-width:.25px;"/><line x1="3.095" y1="35.04274" x2="49.81505" y2="35.04274" style="fill:none; stroke:#009bcd; stroke-linecap:square; stroke-miterlimit:10; stroke-width:.25px;"/><line x1="3.79933" y1="37.16406" x2="49.10811" y2="37.16406" style="fill:none; stroke:#009bcd; stroke-linecap:square; stroke-miterlimit:10; stroke-width:.25px;"/><line x1="4.54913" y1="39.28537" x2="48.1642" y2="39.28538" style="fill:none; stroke:#009bcd; stroke-linecap:square; stroke-miterlimit:10; stroke-width:.25px;"/><line x1="5.94413" y1="41.4067" x2="46.04288" y2="41.4067" style="fill:none; stroke:#009bcd; stroke-linecap:square; stroke-miterlimit:10; stroke-width:.25px;"/><line x1="8.0625" y1="43.52802" x2="43.92156" y2="43.52802" style="fill:none; stroke:#009bcd; stroke-linecap:square; stroke-miterlimit:10; stroke-width:.25px;"/><line x1="10.21172" y1="45.64934" x2="41.80024" y2="45.64934" style="fill:none; stroke:#009bcd; stroke-linecap:square; stroke-miterlimit:10; stroke-width:.25px;"/><line x1="13.03076" y1="47.77066" x2="39.67892" y2="47.77066" style="fill:none; stroke:#009bcd; stroke-linecap:square; stroke-miterlimit:10; stroke-width:.25px;"/><line x1="18.2257" y1="49.89198" x2="36.38844" y2="49.89198" style="fill:none; stroke:#009bcd; stroke-linecap:square; stroke-miterlimit:10; stroke-width:.25px;"/></g></g></g><path id="uuid-24ac8529-fc32-47f9-a087-fe2198ffcdd3" d="m32.77998,34.7595c3.9691-.47251,7.42237-2.90398,7.85551-5.12478.68514-3.50052.63002-8.54262.63002-8.54262,0-6.83173-4.50067-8.83597-4.50067-8.83597-2.26805-1.03756-6.16431-1.47266-10.21216-1.50613h-.09844c-4.04982.03347-7.9441.46857-10.21216,1.50613,0,0-4.49871,2.00227-4.49871,8.83597l-.00394,1.30335c-.00788,1.26003-.01378,2.65788.02166,4.11676.16341,6.6821,1.23247,13.2697,7.44206,14.90381,2.86263.75405,5.32166.91155,7.30228.80327,3.58912-.19688,5.60517-1.27381,5.60517-1.27381l-.11813-2.59291s-2.56535.80721-5.44767.70877c-2.85476-.09844-5.86702-.30713-6.32969-3.79584-.04404-.32363-.06575-.64991-.06497-.97652,0,0,2.80357.6812,6.35528.84265,2.17158.09844,4.20732-.126,6.27653-.3721h-.00197Zm3.17567-4.86293h-3.2938v-8.0327c0-1.6912-.71664-2.54959-2.14796-2.54959-1.58291,0-2.37634,1.01787-2.37634,3.03392v4.39633h-3.27608v-4.3983c0-2.01605-.79343-3.03392-2.37634-3.03392-1.43132,0-2.14796.8584-2.14796,2.55156v8.03073h-3.2938v-8.27289c0-1.6912.43314-3.03392,1.29941-4.02816.89777-.99424,2.07118-1.50416,3.53006-1.50416,1.68529,0,2.96107.64577,3.80569,1.93533l.82099,1.36832.82099-1.36832c.84461-1.28956,2.1204-1.93533,3.80766-1.93533,1.45691,0,2.63032.50992,3.52612,1.50416.87021.99424,1.30138,2.33696,1.30138,4.02816,0,0,0,8.27486,0,8.27486Z" style="fill:#009bcd;"/></g></g></svg>