<svg width="54" height="53" viewBox="0 0 54 53" fill="none" xmlns="http://www.w3.org/2000/svg">
<g clip-path="url(#clip0_1_134)">
<path d="M27 51.5C40.8071 51.5 52 40.3071 52 26.5C52 12.6929 40.8071 1.5 27 1.5C13.1929 1.5 2 12.6929 2 26.5C2 40.3071 13.1929 51.5 27 51.5Z" style="fill: none;stroke: currentColor;" stroke-width="3" stroke-miterlimit="10"/>
<mask id="mask0_1_134" style="mask-type:luminance" maskUnits="userSpaceOnUse" x="5" y="4" width="44" height="45">
<path d="M27 48.5C39.1503 48.5 49 38.6503 49 26.5C49 14.3497 39.1503 4.5 27 4.5C14.8497 4.5 5 14.3497 5 26.5C5 38.6503 14.8497 48.5 27 48.5Z" fill="white"/>
</mask>
<g mask="url(#mask0_1_134)">
<path d="M11.4188 7.4656H43.27" style="stroke: currentColor" stroke-width="0.25" stroke-miterlimit="10" stroke-linecap="square"/>
<path d="M13.5401 5.3443H39.8555" style="stroke: currentColor" stroke-width="0.25" stroke-miterlimit="10" stroke-linecap="square"/>
<path d="M9.29749 9.5869H45.3599" style="stroke: currentColor" stroke-width="0.25" stroke-miterlimit="10" stroke-linecap="square"/>
<path d="M7.17619 11.7082H46.8309" style="stroke: currentColor" stroke-width="0.25" stroke-miterlimit="10" stroke-linecap="square"/>
<path d="M5.0549 13.8295H48.1884" style="stroke: currentColor" stroke-width="0.25" stroke-miterlimit="10" stroke-linecap="square"/>
<path d="M4.34219 15.9509H49.0909" style="stroke: currentColor" stroke-width="0.25" stroke-miterlimit="10" stroke-linecap="square"/>
<path d="M3.6353 18.0722H50.3147" style="stroke: currentColor" stroke-width="0.25" stroke-miterlimit="10" stroke-linecap="square"/>
<path d="M2.92969 20.1935H51.022" style="stroke: currentColor" stroke-width="0.25" stroke-miterlimit="10" stroke-linecap="square"/>
<path d="M2.22249 22.3148H51.729" style="stroke: currentColor" stroke-width="0.25" stroke-miterlimit="10" stroke-linecap="square"/>
<path d="M2.22639 24.4361H51.7239" style="stroke: currentColor" stroke-width="0.25" stroke-miterlimit="10" stroke-linecap="square"/>
<path d="M28.8946 26.5575H51.729" style="stroke: currentColor" stroke-width="0.25" stroke-miterlimit="10" stroke-linecap="square"/>
<path d="M2.2222 26.5575H25.1372" style="stroke: currentColor" stroke-width="0.25" stroke-miterlimit="10" stroke-linecap="square"/>
<path d="M2.22639 28.6788H51.7239" style="stroke: currentColor" stroke-width="0.25" stroke-miterlimit="10" stroke-linecap="square"/>
<path d="M2.22189 30.8001H51.729" style="stroke: currentColor" stroke-width="0.25" stroke-miterlimit="10" stroke-linecap="square"/>
<path d="M2.9287 32.9214H51.022" style="stroke: currentColor" stroke-width="0.25" stroke-miterlimit="10" stroke-linecap="square"/>
<path d="M3.59499 35.0427H50.315" style="stroke: currentColor" stroke-width="0.25" stroke-miterlimit="10" stroke-linecap="square"/>
<path d="M4.29929 37.1641H49.6081" style="stroke: currentColor" stroke-width="0.25" stroke-miterlimit="10" stroke-linecap="square"/>
<path d="M5.04909 39.2854H48.6642" style="stroke: currentColor" stroke-width="0.25" stroke-miterlimit="10" stroke-linecap="square"/>
<path d="M6.44409 41.4067H46.5429" style="stroke: currentColor" stroke-width="0.25" stroke-miterlimit="10" stroke-linecap="square"/>
<path d="M8.5625 43.528H44.4216" style="stroke: currentColor" stroke-width="0.25" stroke-miterlimit="10" stroke-linecap="square"/>
<path d="M10.7117 45.6493H42.3002" style="stroke: currentColor" stroke-width="0.25" stroke-miterlimit="10" stroke-linecap="square"/>
<path d="M13.5308 47.7707H40.1789" style="stroke: currentColor" stroke-width="0.25" stroke-miterlimit="10" stroke-linecap="square"/>
</g>
<path d="M33.28 34.7595C37.2491 34.287 40.7024 31.8555 41.1355 29.6347C41.8206 26.1342 41.7655 21.0921 41.7655 21.0921C41.7655 14.2604 37.2648 12.2561 37.2648 12.2561C34.9967 11.2185 31.1005 10.7834 27.0526 10.75H26.9542C22.9044 10.7835 19.0101 11.2186 16.742 12.2561C16.742 12.2561 12.2433 14.2584 12.2433 21.0921L12.2394 22.3954C12.2315 23.6554 12.2256 25.0533 12.2611 26.5122C12.4245 33.1943 13.4936 39.7819 19.7032 41.416C22.5658 42.1701 25.0249 42.3276 27.0055 42.2193C30.5946 42.0224 32.6107 40.9455 32.6107 40.9455L32.4926 38.3526C32.4926 38.3526 29.9273 39.1598 27.0449 39.0614C24.1901 38.963 21.1779 38.7543 20.7152 35.2656C20.6712 34.942 20.6494 34.6157 20.6502 34.2891C20.6502 34.2891 23.4538 34.9703 27.0055 35.1317C29.1771 35.2301 31.2128 35.0057 33.282 34.7596L33.28 34.7595ZM36.4557 29.8966H33.1619V21.8639C33.1619 20.1727 32.4453 19.3143 31.0139 19.3143C29.431 19.3143 28.6376 20.3322 28.6376 22.3482V26.7445H25.3615V22.3462C25.3615 20.3301 24.5681 19.3123 22.9852 19.3123C21.5539 19.3123 20.8372 20.1707 20.8372 21.8639V29.8946H17.5434V21.6217C17.5434 19.9305 17.9765 18.5878 18.8428 17.5935C19.7406 16.5993 20.914 16.0893 22.3729 16.0893C24.0582 16.0893 25.334 16.7351 26.1786 18.0246L26.9996 19.3929L27.8206 18.0246C28.6652 16.735 29.941 16.0893 31.6283 16.0893C33.0852 16.0893 34.2586 16.5992 35.1544 17.5935C36.0246 18.5877 36.4558 19.9305 36.4558 21.6217L36.4557 29.8966Z" style="fill: currentColor"/>
</g>
<defs>
<clipPath id="clip0_1_134">
<rect width="53" height="53" fill="white" transform="translate(0.5)"/>
</clipPath>
</defs>
</svg>
