<svg xmlns="http://www.w3.org/2000/svg" xmlns:xlink="http://www.w3.org/1999/xlink" viewBox="0 0 53 53"><defs><style>.a,.b,.d{fill:none;}.b,.d{stroke:#009bcd;stroke-miterlimit:10;}.b{stroke-width:3px;}.c{clip-path:url(#a);}.d{stroke-linecap:square;stroke-width:0.25px;}.e{fill:#009bcd;fill-rule:evenodd;}</style><clipPath id="a"><circle class="a" cx="26.5" cy="26.5" r="22"/></clipPath></defs><title>twitter</title><circle class="b" cx="26.5" cy="26.5" r="25"/><g class="c"><line class="d" x1="10.92" y1="7.47" x2="42.77" y2="7.47"/><line class="d" x1="13.04" y1="5.34" x2="39.36" y2="5.34"/><line class="d" x1="16.56" y1="3.22" x2="35.57" y2="3.22"/><line class="d" x1="8.8" y1="9.59" x2="44.86" y2="9.59"/><line class="d" x1="6.68" y1="11.71" x2="46.33" y2="11.71"/><line class="d" x1="4.55" y1="13.83" x2="47.69" y2="13.83"/><line class="d" x1="3.84" y1="15.95" x2="48.59" y2="15.95"/><line class="d" x1="3.14" y1="18.07" x2="49.81" y2="18.07"/><line class="d" x1="2.43" y1="20.19" x2="50.52" y2="20.19"/><line class="d" x1="1.72" y1="22.31" x2="51.23" y2="22.31"/><line class="d" x1="1.73" y1="24.44" x2="51.22" y2="24.44"/><line class="d" x1="1.72" y1="26.56" x2="51.23" y2="26.56"/><line class="d" x1="1.73" y1="28.68" x2="51.22" y2="28.68"/><line class="d" x1="1.72" y1="30.8" x2="51.23" y2="30.8"/><line class="d" x1="2.43" y1="32.92" x2="50.52" y2="32.92"/><line class="d" x1="3.09" y1="35.04" x2="49.82" y2="35.04"/><line class="d" x1="3.8" y1="37.16" x2="49.11" y2="37.16"/><line class="d" x1="4.55" y1="39.29" x2="48.16" y2="39.29"/><line class="d" x1="5.94" y1="41.41" x2="46.04" y2="41.41"/><line class="d" x1="8.06" y1="43.53" x2="43.92" y2="43.53"/><line class="d" x1="10.21" y1="45.65" x2="41.8" y2="45.65"/><line class="d" x1="13.03" y1="47.77" x2="39.68" y2="47.77"/><line class="d" x1="18.23" y1="49.89" x2="36.39" y2="49.89"/></g><path class="e" d="M43.5,15.75a11.19,11.19,0,0,1-4,1,6.15,6.15,0,0,0,3-3.75,15,15,0,0,1-4.25,1.75A7.3,7.3,0,0,0,33,12.5a7.06,7.06,0,0,0-7,7,12.84,12.84,0,0,0,.25,1.5,20.14,20.14,0,0,1-14.5-7.25,7.3,7.3,0,0,0-.75,3.5A6.61,6.61,0,0,0,14,23a8.38,8.38,0,0,1-3.25-.75c.12,0,.12,0,0,0A7,7,0,0,0,16.5,29a4.59,4.59,0,0,1-2,.25,6.9,6.9,0,0,1-1.25,0A7.11,7.11,0,0,0,19.75,34a13.71,13.71,0,0,1-8.5,3A13.25,13.25,0,0,0,9.5,37a20.85,20.85,0,0,0,10.75,3C33,40,40,29.42,40,20.25a4.61,4.61,0,0,0,0-1,12.1,12.1,0,0,0,3.5-3.5"/></svg>