<?xml version="1.0" encoding="UTF-8" standalone="no"?>
<svg width="201px" height="200px" viewBox="0 0 201 200" version="1.1" xmlns="http://www.w3.org/2000/svg" xmlns:xlink="http://www.w3.org/1999/xlink" xmlns:sketch="http://www.bohemiancoding.com/sketch/ns">
    <title>500px</title>
    <description>Created with Sketch (http://www.bohemiancoding.com/sketch)</description>
    <defs></defs>
    <g id="Page 1" stroke="none" stroke-width="1" fill="none" fill-rule="evenodd">
        <path d="M100.5,0 C45.271526,0 0.5,44.771526 0.5,100 C0.5,155.228474 45.271526,200 100.5,200 C155.728474,200 200.5,155.228474 200.5,100 C200.5,44.771526 155.728474,-2.4158454e-14 100.5,0 L100.5,0 L100.5,0 Z M30.5875,61.9 L51.36875,61.9 L72.15625,61.9 L72.15625,68.1125 L72.15625,74.325 L56.75625,74.325 C42.17261,74.325 41.353814,74.334156 41.30625,74.49375 C41.164562,74.969104 38.35882,91.23019 38.4,91.3375 C38.479636,91.54503 38.615102,91.485992 39.2,90.98125 C42.794234,87.879576 45.536694,86.620766 50.0125,86.0125 C51.637876,85.79161 54.82255,85.790516 56.4625,86.0125 C59.678368,86.4478 61.888124,87.17029 64.375,88.59375 C68.30974,90.84595 70.89191,93.552796 73.11875,97.75625 C73.446676,98.375254 73.748884,98.88125 73.7875,98.88125 C73.826118,98.88125 73.997924,98.524426 74.175,98.0875 C74.67002,96.866068 75.841936,94.597614 76.5,93.58125 C79.841602,88.420226 85.268238,84.741274 91.51875,83.39375 C93.795594,82.902894 98.032068,82.705484 100.46875,82.98125 C106.056838,83.613668 111.498136,86.152648 116.7875,90.5875 C118.70346,92.19393 121.78118,95.372662 124.78125,98.85625 C125.520992,99.71521 126.174134,100.41875 126.2375,100.41875 C126.300868,100.41875 126.967134,99.701944 127.71875,98.825 C129.858104,96.328908 130.954484,95.142974 133.29375,92.8 C136.6273,89.461192 139.16778,87.580408 142.73125,85.8 C146.610508,83.861818 149.538428,83.077396 153.525,82.90625 C157.413774,82.7393 160.664014,83.151548 163.7625,84.20625 C172.376804,87.13849 178.276536,94.548034 179.90625,104.475 C180.1724,106.096144 180.324994,109.95885 180.2,111.925 C179.61304,121.158664 175.434472,128.921004 168.64375,133.38125 C165.949816,135.150668 162.497592,136.405518 158.75625,136.98125 C157.242146,137.214248 152.578636,137.215574 150.975,136.98125 C146.651088,136.349422 142.354408,134.567788 138.025,131.6125 C134.991178,129.5416 131.189208,126.039908 127.48125,121.90625 L126.2375,120.525 L125.6125,121.18125 C122.995222,123.931746 118.769084,128.207656 117.9625,128.91875 C115.840868,130.789184 113.451316,132.509796 111.35,133.6875 C108.97477,135.018728 105.956452,136.170312 103.525,136.66875 C99.532756,137.487146 94.417676,137.352202 90.575,136.33125 C88.263104,135.717002 85.554354,134.467116 83.3125,132.975 C79.237872,130.263038 76.321604,126.724334 74.3375,122.0875 L74.06875,121.46875 L73.3125,122.9375 C70.192236,128.986972 65.47179,133.296954 59.25,135.7875 C56.397726,136.929248 53.872384,137.481092 50.58125,137.68125 C49.070016,137.773158 48.74085,137.780164 47.3125,137.71875 C39.30202,137.374326 32.787248,135.037 28.2,130.86875 C24.856908,127.831012 22.578616,123.997644 21.575,119.725 C21.277226,118.457304 21.046494,116.84692 20.95,115.36875 L20.875,114.2875 L28.3625,114.2875 L35.85,114.2875 L35.89375,114.5 C35.918436,114.619162 36.036768,115.19087 36.15,115.76875 C37.1058,120.646648 40.269496,123.997436 45.05,125.18125 C46.017866,125.420928 49.036126,125.53703 50.06875,125.375 C53.081306,124.902296 55.987844,123.189344 57.85625,120.7875 C59.379576,118.829256 60.380422,116.572886 60.85,114.025 C61.088334,112.73182 61.135642,110.14361 60.95,108.7375 C60.322108,103.981614 58.024202,100.467878 54.21875,98.44375 C52.512544,97.536214 50.679818,97.143298 48.11875,97.14375 C43.94915,97.14455 41.621416,98.013484 38.98125,100.5375 C38.47185,101.02449 37.767388,101.778816 37.41875,102.21875 L36.7875,103.01875 L30.7125,103.00625 C27.371272,102.99933 24.330852,102.970298 23.95625,102.9375 L23.275,102.875 L25.1375,92.425 C26.161652,86.678744 27.7813,77.6053 28.7375,72.25625 C29.6937,66.907198 30.501524,62.390872 30.53125,62.21875 L30.5875,61.9 L30.5875,61.9 Z M97.2875,97.53125 C94.706392,97.53125 92.634016,98.200508 90.85625,99.60625 C88.702858,101.309022 86.908028,104.360762 86.24375,107.4625 C85.994906,108.62443 86.00428,112.062294 86.25625,113.225 C86.5979,114.801488 87.335606,116.563222 88.175,117.8 C88.742722,118.63649 89.973336,119.878522 90.8,120.45 C92.10805,121.354248 93.593826,121.932612 95.3625,122.23125 C96.24549,122.380346 98.632298,122.406276 99.55,122.275 C103.169544,121.757226 107.078838,119.860174 111.10625,116.6625 C112.075472,115.892962 116.658996,111.385864 117.18125,110.6875 L117.4625,110.3125 L114.75,107.64375 C111.288126,104.234474 109.336646,102.584158 106.71875,100.86875 C103.16067,98.537278 100.31375,97.53125 97.2875,97.53125 L97.2875,97.53125 L97.2875,97.53125 Z M154.61875,97.55 C153.454244,97.560574 152.223058,97.639728 151.74375,97.76875 C147.932248,98.794756 144.296174,101.073724 140.29375,104.94375 C138.770038,106.41704 135.13125,110.248754 135.13125,110.38125 C135.13125,110.753954 139.803936,115.42542 141.68125,116.93125 C145.441864,119.947692 149.464768,121.887558 152.7375,122.2625 C153.984924,122.405412 156.497802,122.389672 157.40625,122.23125 C158.607146,122.021832 159.7017,121.649656 160.79375,121.0875 C161.61442,120.665036 161.908118,120.443482 162.78125,119.58125 C164.652584,117.733278 165.795898,115.550258 166.3,112.84375 C166.562482,111.43445 166.537572,108.59717 166.25,107.25625 C165.831924,105.306874 165.267302,103.943754 164.24375,102.40625 C162.429416,99.68092 159.63925,97.959272 156.46875,97.6125 C155.993534,97.560522 155.317454,97.543656 154.61875,97.55 L154.61875,97.55 L154.61875,97.55 Z M154.61875,97.55" id="500px" fill="#444444"></path>
    </g>
</svg>