<?xml version="1.0" encoding="UTF-8" standalone="no"?>
<svg width="1001px" height="1002px" viewBox="0 0 1001 1002" version="1.1" xmlns="http://www.w3.org/2000/svg" xmlns:xlink="http://www.w3.org/1999/xlink" xmlns:sketch="http://www.bohemiancoding.com/sketch/ns">
    <title>500px</title>
    <description>Created with Sketch (http://www.bohemiancoding.com/sketch)</description>
    <defs></defs>
    <g id="Page 1" fill="#D8D8D8" fill-rule="evenodd">
        <path d="M500,0.5 C223.85763,0.5 0,224.35763 0,500.5 C0,776.64237 223.85763,1000.5 500,1000.5 C776.14237,1000.5 1000,776.64237 1000,500.5 C1000,224.35763 776.14237,0.5 500,0.5 L500,0.5 L500,0.5 Z M150.4375,310 L254.34375,310 L358.28125,310 L358.28125,341.0625 L358.28125,372.125 L281.28125,372.125 C208.36305,372.125 204.26907,372.17078 204.03125,372.96875 C203.32281,375.34552 189.2941,456.65095 189.5,457.1875 C189.89818,458.22515 190.57551,457.92996 193.5,455.40625 C211.47117,439.89788 225.18347,433.60383 247.5625,430.5625 C255.68938,429.45805 271.61275,429.45258 279.8125,430.5625 C295.89184,432.739 306.94062,436.35145 319.375,443.46875 C339.0487,454.72975 351.95955,468.26398 363.09375,489.28125 C364.73338,492.37627 366.24442,494.90625 366.4375,494.90625 C366.63059,494.90625 367.48962,493.12213 368.375,490.9375 C370.8501,484.83034 376.70968,473.48807 380,468.40625 C396.70801,442.60113 423.84119,424.20637 455.09375,417.46875 C466.47797,415.01447 487.66034,414.02742 499.84375,415.40625 C527.78419,418.56834 554.99068,431.26324 581.4375,453.4375 C591.0173,461.46965 606.4059,477.36331 621.40625,494.78125 C625.10496,499.07605 628.37067,502.59375 628.6875,502.59375 C629.00434,502.59375 632.33567,499.00972 636.09375,494.625 C646.79052,482.14454 652.27242,476.21487 663.96875,464.5 C680.6365,447.80596 693.3389,438.40204 711.15625,429.5 C730.55254,419.80909 745.19214,415.88698 765.125,415.03125 C784.56887,414.1965 800.82007,416.25774 816.3125,421.53125 C859.38402,436.19245 888.88268,473.24017 897.03125,522.875 C898.362,530.98072 899.12497,550.29425 898.5,560.125 C895.5652,606.29332 874.67236,645.10502 840.71875,667.40625 C827.24908,676.25334 809.98796,682.52759 791.28125,685.40625 C783.71073,686.57124 760.39318,686.57787 752.375,685.40625 C730.75544,682.24711 709.27204,673.33894 687.625,658.5625 C672.45589,648.208 653.44604,630.69954 634.90625,610.03125 L628.6875,603.125 L625.5625,606.40625 C612.47611,620.15873 591.34542,641.53828 587.3125,645.09375 C576.70434,654.44592 564.75658,663.04898 554.25,668.9375 C542.37385,675.59364 527.28226,681.35156 515.125,683.84375 C495.16378,687.93573 469.58838,687.26101 450.375,682.15625 C438.81552,679.08501 425.27177,672.83558 414.0625,665.375 C393.68936,651.81519 379.10802,634.12167 369.1875,610.9375 L367.84375,607.84375 L364.0625,615.1875 C348.46118,645.43486 324.85895,666.98477 293.75,679.4375 C279.48863,685.14624 266.86192,687.90546 250.40625,688.90625 C242.85008,689.36579 241.20425,689.40082 234.0625,689.09375 C194.0101,687.37163 161.43624,675.685 138.5,654.84375 C121.78454,639.65506 110.39308,620.48822 105.375,599.125 C103.88613,592.78652 102.73247,584.7346 102.25,577.34375 L101.875,571.9375 L139.3125,571.9375 L176.75,571.9375 L176.96875,573 C177.09218,573.59581 177.68384,576.45435 178.25,579.34375 C183.029,603.73324 198.84748,620.48718 222.75,626.40625 C227.58933,627.60464 242.68063,628.18515 247.84375,627.375 C262.90653,625.01148 277.43922,616.44672 286.78125,604.4375 C294.39788,594.64628 299.40211,583.36443 301.75,570.625 C302.94167,564.1591 303.17821,551.21805 302.25,544.1875 C299.11054,520.40807 287.62101,502.83939 268.59375,492.71875 C260.06272,488.18107 250.89909,486.21649 238.09375,486.21875 C217.24575,486.22275 205.60708,490.56742 192.40625,503.1875 C189.85925,505.62245 186.33694,509.39408 184.59375,511.59375 L181.4375,515.59375 L151.0625,515.53125 C134.35636,515.49665 119.15426,515.35149 117.28125,515.1875 L113.875,514.875 L123.1875,462.625 C128.30826,433.89372 136.4065,388.5265 141.1875,361.78125 C145.9685,335.03599 150.00762,312.45436 150.15625,311.59375 L150.4375,310 L150.4375,310 Z M483.9375,488.15625 C471.03196,488.15625 460.67008,491.50254 451.78125,498.53125 C441.01429,507.04511 432.04014,522.30381 428.71875,537.8125 C427.47453,543.62215 427.5214,560.81147 428.78125,566.625 C430.4895,574.50744 434.17803,583.31611 438.375,589.5 C441.21361,593.68245 447.36668,599.89261 451.5,602.75 C458.04025,607.27124 465.46913,610.16306 474.3125,611.65625 C478.72745,612.40173 490.66149,612.53138 495.25,611.875 C513.34772,609.28613 532.89419,599.80087 553.03125,583.8125 C557.87736,579.96481 580.79498,557.42932 583.40625,553.9375 L584.8125,552.0625 L571.25,538.71875 C553.94063,521.67237 544.18323,513.42079 531.09375,504.84375 C513.30335,493.18639 499.06875,488.15625 483.9375,488.15625 L483.9375,488.15625 L483.9375,488.15625 Z M770.59375,488.25 C764.77122,488.30287 758.61529,488.69864 756.21875,489.34375 C737.16124,494.47378 718.98087,505.86862 698.96875,525.21875 C691.35019,532.5852 673.15625,551.74377 673.15625,552.40625 C673.15625,554.26977 696.51968,577.6271 705.90625,585.15625 C724.70932,600.23846 744.82384,609.93779 761.1875,611.8125 C767.42462,612.52706 779.98901,612.44836 784.53125,611.65625 C790.53573,610.60916 796.0085,608.74828 801.46875,605.9375 C805.5721,603.82518 807.04059,602.71741 811.40625,598.40625 C820.76292,589.16639 826.47949,578.25129 829,564.71875 C830.31241,557.67225 830.18786,543.48585 828.75,536.78125 C826.65962,527.03437 823.83651,520.21877 818.71875,512.53125 C809.64708,498.9046 795.69625,490.29636 779.84375,488.5625 C777.46767,488.30261 774.08727,488.21828 770.59375,488.25 L770.59375,488.25 L770.59375,488.25 Z M770.59375,488.25" id="500px" fill="#444444"></path>
    </g>
</svg>