<?xml version="1.0" encoding="UTF-8" standalone="no"?>
<svg width="1001px" height="1002px" viewBox="0 0 1001 1002" version="1.1" xmlns="http://www.w3.org/2000/svg" xmlns:xlink="http://www.w3.org/1999/xlink" xmlns:sketch="http://www.bohemiancoding.com/sketch/ns">
    <title>ADN</title>
    <description>Created with Sketch (http://www.bohemiancoding.com/sketch)</description>
    <defs></defs>
    <g id="Page 1" fill="#D8D8D8" fill-rule="evenodd">
        <path d="M0,500.5 C0,776.643 223.857,1000.5 500,1000.5 C776.143,1000.5 1000,776.643 1000,500.5 C1000,224.357 776.143,0.5 500,0.5 C223.857,0.5 0,224.357 0,500.5 L0,500.5 L0,500.5 Z M742.781,179.156 C764.184,180.146 770.388,188.43 764.469,208.812 C732.498,318.888 695.893,427.379 649.125,532.156 C641.218,549.872 637.844,567.215 646.437,584.625 C659.84,611.778 673.783,638.782 689.499,664.625 C694.68,673.143 705.303,679.403 714.749,684.031 C733.889,693.408 750.717,687.875 761.187,669.531 C768.635,656.48 774.169984,629.907988 788.999984,630.499988 C802.765984,631.050988 847.214828,630.499988 861.507796,630.499988 C875.800765,630.499988 872.332906,675.36643 868.999984,690.499988 C861.499984,724.554706 817.24,782.937 757.562,796.219 C711.126,806.554 670.950702,791.84585 637.781,759 C609.000014,730.500018 575.968,665.531 575.968,665.531 C575.968,665.531 500.926986,770.500018 422.718,790.625 C333.654818,813.543026 245.207,780.167 195.375,699.5 C169.312,657.309 156.757,610.808 150.094,562.031 C141.695,500.534 143.297,439.512 156.625,379.031 C169.937,318.625 194.514,263.499 243.906,223.812 C327.735,156.455 442.601,162.937 514.406,257.75 C542.282,294.558 581.532108,382.428018 581.532108,382.428018 C584.28147,388.44987 588.290929,388.268901 590.491867,382.00446 C590.491867,382.00446 630.788,267.577 649.061,212.563 C659.254,181.87 663.142,178.969 695.499,178.969 C703.378,178.969 711.275,178.828 719.156,178.781 C727.037,178.734 734.92,178.793 742.781,179.156 L742.781,179.156 L742.781,179.156 Z M330.937,295.968 C288.425,307.719 262.548,338.947 251.875,380.187 C232.216,443.767 235.183,509.208 243.281,569.562 C244.921,581.6 248.68,593.516 252.843,605 C284.011,690.981 375.438,714.556 444.093,654.375 C481.451,621.628 494.905768,595.030873 505.90601,542.121097 C516.906254,489.211322 505.90601,410.500003 453.406,337.312 C429.071235,303.387949 399.674,290.099 366.156,290.562 C354.983,290.717 343.267,292.56 330.937,295.968 L330.937,295.968 L330.937,295.968 Z M330.937,295.968" id="App.net" fill="#444444"></path>
    </g>
</svg>