<?xml version="1.0" encoding="UTF-8" standalone="no"?>
<!-- Created with Inkscape (http://www.inkscape.org/) -->

<svg
   xmlns:dc="http://purl.org/dc/elements/1.1/"
   xmlns:cc="http://creativecommons.org/ns#"
   xmlns:rdf="http://www.w3.org/1999/02/22-rdf-syntax-ns#"
   xmlns:svg="http://www.w3.org/2000/svg"
   xmlns="http://www.w3.org/2000/svg"
   xmlns:sodipodi="http://sodipodi.sourceforge.net/DTD/sodipodi-0.dtd"
   xmlns:inkscape="http://www.inkscape.org/namespaces/inkscape"
   version="1.1"
   width="1000"
   height="1000"
   id="svg2"
   inkscape:version="0.48.2 r9819"
   sodipodi:docname="AppNet.svg">
  <sodipodi:namedview
     pagecolor="#ffffff"
     bordercolor="#666666"
     borderopacity="1"
     objecttolerance="10"
     gridtolerance="10"
     guidetolerance="10"
     inkscape:pageopacity="0"
     inkscape:pageshadow="2"
     inkscape:window-width="799"
     inkscape:window-height="514"
     id="namedview7"
     showgrid="false"
     inkscape:zoom="0.3337544"
     inkscape:cx="342.69869"
     inkscape:cy="500"
     inkscape:window-x="0"
     inkscape:window-y="0"
     inkscape:window-maximized="0"
     inkscape:current-layer="svg2">
    <inkscape:grid
       type="xygrid"
       id="grid3051" />
  </sodipodi:namedview>
  <defs
     id="defs4" />
  <metadata
     id="metadata7">
    <rdf:RDF>
      <cc:Work
         rdf:about="">
        <dc:format>image/svg+xml</dc:format>
        <dc:type
           rdf:resource="http://purl.org/dc/dcmitype/StillImage" />
        <dc:title />
      </cc:Work>
    </rdf:RDF>
  </metadata>
  <path
     style="fill:#444444;fill-opacity:1;stroke:none"
     d="M 500 0 C 223.85763 1.1368684e-13 0 223.85763 0 500 C 1.5158245e-13 776.14237 223.85763 1000 500 1000 C 776.14237 1000 1000 776.14237 1000 500 C 1000 223.85763 776.14237 -1.4210855e-13 500 0 z M 729.9375 175.625 C 773.38173 175.625 783.83207 182.456 778.5 207.25 C 772.59345 234.71538 731.39635 358.15205 695.09375 457.1875 C 675.13584 511.63368 657.50642 562.1521 655.90625 569.4375 C 652.20018 586.31121 665.21892 624.95261 686.28125 659.625 C 718.14108 712.07187 742.68429 720.13092 783.9375 691.71875 C 802.81558 678.71688 812.56323 675.13227 832.96875 673.65625 C 866.06402 671.26237 875.44359 678.99342 871.25 705.21875 C 864.7751 745.7105 839.36094 782.62743 803.53125 803.625 C 786.96786 813.33182 778.04738 815.41028 752.4375 815.46875 C 735.37485 815.50835 713.52383 812.78433 703.875 809.4375 C 680.95022 801.4857 640.04286 762.25247 612.96875 722.25 C 601.09624 704.70814 590.27304 690.34375 588.90625 690.34375 C 587.53941 690.34375 563.91848 710.77379 536.40625 735.75 C 483.37098 783.89674 455.3018 801.99072 418.53125 811.78125 C 386.2333 820.38092 338.93227 819.26762 311.09375 809.25 C 214.9664 774.65882 155.01485 679.17719 145.34375 545.1875 C 142.00471 498.9264 148.61464 411.30801 158.28125 373.40625 C 177.31853 298.76302 227.21346 228.7683 280.34375 202.21875 C 306.29004 189.25326 308.93793 188.84375 368.15625 188.84375 C 421.73179 188.84375 431.4862 189.986 447.5625 198.1875 C 488.19582 218.91707 534.67989 277.35242 575.75 359.3125 C 586.96509 381.69349 597.87637 400 600 400 C 603.25924 400 636.12142 310.19817 664.03125 225 C 668.2171 212.22219 676.58039 195.8711 682.625 188.6875 C 693.17664 176.14763 695.06644 175.625 729.9375 175.625 z M 361.21875 294.34375 C 345.93823 294.43162 331.22378 296.50713 321.21875 300.6875 C 298.3014 310.263 267.51381 341.15679 255.40625 366.75 C 240.91041 397.39169 235.38387 434.6815 235.34375 501.90625 C 235.27515 617.05451 257.22661 669.91702 316.59375 697.5625 C 342.96043 709.8407 374.31788 711.00073 404.21875 700.8125 C 450.32438 685.1027 538.875 578.50046 538.875 538.6875 C 538.875 523.04826 506.15264 426.30275 488.09375 388.53125 C 470.0125 350.71308 439.76742 315.94553 414.1875 303.5625 C 401.44596 297.39442 380.86513 294.23078 361.21875 294.34375 z "
     id="path2982" />
</svg>
