<?xml version="1.0" encoding="UTF-8" standalone="no"?>
<svg width="201px" height="200px" viewBox="0 0 201 200" version="1.1" xmlns="http://www.w3.org/2000/svg" xmlns:xlink="http://www.w3.org/1999/xlink" xmlns:sketch="http://www.bohemiancoding.com/sketch/ns">
    <title>Behance</title>
    <description>Created with Sketch (http://www.bohemiancoding.com/sketch)</description>
    <defs></defs>
    <g id="Page 1" stroke="none" stroke-width="1" fill="none" fill-rule="evenodd">
        <path d="M67.1865206,91.5470353 L47.1514947,91.5470353 L47.1514947,70.5389381 L65.6739922,70.5389381 C67.4255206,70.5389381 69.1360775,70.6618524 70.7646916,70.9827952 C72.4274485,71.2695951 73.858034,71.7953951 75.1247338,72.560195 C76.4016765,73.2942663 77.412305,74.3458662 78.1736906,75.6876803 C78.9111762,77.0294944 79.279919,78.7571227 79.279919,80.8500796 C79.279919,84.6194505 78.1736906,87.3645359 75.8963623,89.0272928 C73.5985483,90.717364 70.6929916,91.5470353 67.1865206,91.5470353 Z M100.5,0 C155.728474,-2.27373675e-14 200.5,44.771526 200.5,100 C200.5,155.228474 155.728474,200 100.5,200 C45.271526,200 0.5,155.228474 0.5,100 C0.5,44.771526 45.271526,1.51545443e-14 100.5,0 Z M130.866355,129.52413 C128.179313,126.908788 126.438027,122.036603 126.438027,116.887861 L173.418592,116.887861 C173.753192,111.838133 173.343478,107.010333 172.175792,102.397634 C170.99445,97.7678631 169.10635,93.6434065 166.45345,90.0413355 C163.797136,86.4256074 160.420408,83.5371221 156.299366,81.4100224 C152.164666,79.2487798 147.340281,78.1903514 141.833039,78.1903514 C136.844769,78.1903514 132.341326,79.0780655 128.254427,80.8398367 C124.170942,82.6118508 120.664471,85.032579 117.704285,88.0986072 C114.754343,91.1543925 112.511157,94.7940206 110.885958,99.0072486 C109.298315,103.213648 108.482301,107.761476 108.482301,112.630247 C108.482301,117.662903 109.267586,122.309746 110.821086,126.505902 C112.391657,130.725959 114.593871,134.317787 117.431143,137.356501 C120.343528,140.381557 123.805613,142.699857 127.943727,144.355785 C132.088669,145.991228 136.704783,146.820899 141.833039,146.820899 C149.190824,146.820899 155.507252,145.134242 160.683308,141.7541 C165.924236,138.387615 169.765307,132.791601 172.295292,124.955817 L156.545194,124.955817 C155.937452,126.970245 154.360052,128.909559 151.768609,130.725959 C149.153267,132.545773 146.036024,133.453973 142.430539,133.453973 C137.414954,133.453973 133.543155,132.139473 130.866355,129.52413 Z M68.2790919,129.824587 L47.1514947,129.824587 L47.1514947,105.064191 L68.675149,105.064191 C72.936177,105.064191 76.4016765,106.044091 78.9999476,108.010719 C81.5913901,110.01149 82.8956471,113.299447 82.8956471,117.932632 C82.8956471,120.302146 82.5132472,122.255117 81.7108901,123.760817 C80.9153616,125.283588 79.8193761,126.478588 78.4946334,127.349231 C77.1698907,128.25743 75.5993195,128.872002 73.8307197,129.257816 C72.08602,129.650459 70.2320631,129.824587 68.2790919,129.824587 Z M151.413524,95.3164062 C153.547452,97.6893345 155.10778,101.059234 155.534566,105.617305 L126.438027,105.617305 C126.51997,104.350605 126.796527,102.909777 127.254041,101.328963 C127.711555,99.7037628 128.500255,98.1809916 129.650869,96.7401632 C130.811726,95.3232348 132.331083,94.1214064 134.181626,93.1551637 C136.07314,92.1752638 138.43924,91.6938496 141.296996,91.6938496 C145.687767,91.6938496 149.286424,92.967378 151.413524,95.3164062 Z M69.7472346,55.2224544 L27.3554688,55.2224544 L27.3554688,145.134242 L70.9354058,145.134242 C74.9642624,145.134242 78.8975191,144.628928 82.6873757,143.621714 C86.5182038,142.6145 89.9393176,141.067829 92.9165743,138.961215 C95.8699311,136.868258 98.2667593,134.157315 100.028531,130.818144 C101.769816,127.516531 102.643873,123.590102 102.643873,119.032032 C102.643873,113.40529 101.308888,108.608219 98.5774593,104.596434 C95.8596882,100.615377 91.7625459,97.815663 86.2279895,96.2246061 C90.290989,94.3023635 93.3331171,91.8270067 95.402174,88.8087785 C97.4575737,85.7837218 98.4852736,82.004108 98.4852736,77.48018 C98.4852736,73.2942663 97.795588,69.7536525 96.4264596,66.9300386 C95.0231883,64.0586247 93.0633886,61.7847107 90.5573032,60.0707395 C88.0136607,58.3567683 85.0022611,57.1105542 81.4753044,56.3628257 C77.927862,55.5946115 74.0458197,55.2224544 69.7472346,55.2224544 Z M122.781328,70.1292239 L159.228823,70.1292239 L159.228823,61.2520822 L122.781328,61.2520822 Z M122.781328,70.1292239" id="Behance" fill="#444444"></path>
    </g>
</svg>