<?xml version="1.0" encoding="UTF-8" standalone="no"?>
<svg width="200px" height="200px" viewBox="0 0 200 200" version="1.1" xmlns="http://www.w3.org/2000/svg" xmlns:xlink="http://www.w3.org/1999/xlink" xmlns:sketch="http://www.bohemiancoding.com/sketch/ns">
    <title>Cross</title>
    <description>Created with Sketch (http://www.bohemiancoding.com/sketch)</description>
    <defs></defs>
    <g id="Page 1" stroke="none" stroke-width="1" fill="none" fill-rule="evenodd">
        <path d="M100,0 C44.771524,3.03201907e-14 0,44.771524 0,100 C0,155.228476 44.771524,200 100,200 C155.228476,200 200,155.228476 200,100 C200,44.771524 155.228476,-3.41060513e-14 100,0 L100,0 L100,0 Z M84,39.6 L116,39.6 L116,83.8875 L160.2875,83.8875 L160.2875,115.8875 L116,115.8875 L116,160.16875 L84,160.16875 L84,115.8875 L39.7125,115.8875 L39.7125,83.8875 L84,83.8875 L84,39.6 L84,39.6 Z M84,39.6" id="Cross" fill="#444444"></path>
    </g>
</svg>