<?xml version="1.0" encoding="UTF-8" standalone="no"?>
<svg width="201px" height="200px" viewBox="0 0 201 200" version="1.1" xmlns="http://www.w3.org/2000/svg" xmlns:xlink="http://www.w3.org/1999/xlink" xmlns:sketch="http://www.bohemiancoding.com/sketch/ns">
    <title>Email</title>
    <description>Created with Sketch (http://www.bohemiancoding.com/sketch)</description>
    <defs></defs>
    <g id="Page 1" stroke="none" stroke-width="1" fill="none" fill-rule="evenodd">
        <path d="M48.025,58.4312 C44.5017303,58.4312 41.3759923,60.0775002 39.3740909,62.6461034 L100.25,94.8175812 L164.468171,60.8797969 C162.584984,59.347607 160.178721,58.4312 157.55,58.4312 Z M37.3768341,66.781991 C37.1754591,67.614632 37.0688,68.4849911 37.0688,69.3812 L37.0688,129.6188 C37.0688,135.6864 41.9574,140.5688 48.025,140.5688 L157.55,140.5688 C163.6176,140.5688 168.5,135.6864 168.5,129.6188 L168.5,69.3812 C168.5,67.6380936 168.097054,65.9928022 167.378815,64.5329757 L100.267128,100 L100.25,99.9564542 L100.232872,100 Z M100.5,0 C155.7286,0 200.5,44.7714 200.5,100 C200.5,155.2286 155.7286,200 100.5,200 C45.2714,200 0.5,155.2286 0.5,100 C0.5,44.7714 45.2714,0 100.5,0 Z M173.5,61.2980665 L171.809648,57 Z M173.5,61.2980665" id="Email" fill="#444444"></path>
    </g>
</svg>