<?xml version="1.0" encoding="UTF-8" standalone="no"?>
<svg width="200px" height="200px" viewBox="0 0 200 200" version="1.1" xmlns="http://www.w3.org/2000/svg" xmlns:xlink="http://www.w3.org/1999/xlink" xmlns:sketch="http://www.bohemiancoding.com/sketch/ns">
    <title>Email</title>
    <description>Created with Sketch (http://www.bohemiancoding.com/sketch)</description>
    <defs></defs>
    <g id="Page 1" stroke="none" stroke-width="1" fill="none" fill-rule="evenodd">
        <path d="M47.525,58.4312 C44.2066655,58.4312 41.2409618,59.8915521 39.2346644,62.2074128 L100.067978,94.5432291 L165.724614,62.6815464 C163.725638,60.0926084 160.589472,58.4312 157.05,58.4312 Z M100,100 L36.9525139,66.4871583 C36.7022816,67.4083812 36.5688,68.3786153 36.5688,69.3812 L36.5688,129.6188 C36.5688,135.6864 41.4574,140.5688 47.525,140.5688 L157.05,140.5688 C163.1176,140.5688 168,135.6864 168,129.6188 L168,69.3812 C168,68.603423 167.919775,67.8451207 167.767111,67.1140723 Z M100,0 C155.2286,0 200,44.7714 200,100 C200,155.2286 155.2286,200 100,200 C44.7714,200 0,155.2286 0,100 C0,44.7714 44.7714,0 100,0 Z M181.3976,55.0758 L183.3208,59.5662 Z M181.3976,55.0758" id="Email" fill="#444444"></path>
    </g>
</svg>