<?xml version="1.0" encoding="UTF-8" standalone="no"?>
<svg width="1001px" height="1002px" viewBox="0 0 1001 1002" version="1.1" xmlns="http://www.w3.org/2000/svg" xmlns:xlink="http://www.w3.org/1999/xlink" xmlns:sketch="http://www.bohemiancoding.com/sketch/ns">
    <title>Envelope</title>
    <description>Created with Sketch (http://www.bohemiancoding.com/sketch)</description>
    <defs></defs>
    <g id="Page 1" fill="#D8D8D8" fill-rule="evenodd">
        <path d="M237.625,292.656 C221.033328,292.656 206.204809,299.957761 196.173322,311.537064 L500.339892,473.216145 L828.623069,313.907732 C818.628189,300.963042 802.94736,292.656 785.25,292.656 Z M500,500.5 L184.76257,332.935792 C183.511408,337.541906 182.844,342.393076 182.844,347.406 L182.844,648.594 C182.844,678.932 207.287,703.344 237.625,703.344 L785.25,703.344 C815.588,703.344 840,678.932 840,648.594 L840,347.406 C840,343.517115 839.598875,339.725603 838.835554,336.070362 Z M500,0.5 C776.143,0.5 1000,224.357 1000,500.5 C1000,776.643 776.143,1000.5 500,1000.5 C223.857,1000.5 0,776.643 0,500.5 C0,224.357 223.857,0.5 500,0.5 Z M906.988,275.879 L916.604,298.331 Z M906.988,275.879" id="Envelope" fill="#444444"></path>
    </g>
</svg>