<?xml version="1.0" encoding="UTF-8" standalone="no"?>
<svg width="200px" height="200px" viewBox="0 0 200 200" version="1.1" xmlns="http://www.w3.org/2000/svg" xmlns:xlink="http://www.w3.org/1999/xlink" xmlns:sketch="http://www.bohemiancoding.com/sketch/ns">
    <title>Facebook</title>
    <description>Created with Sketch (http://www.bohemiancoding.com/sketch)</description>
    <defs></defs>
    <g id="Page 1" stroke="none" stroke-width="1" fill="none" fill-rule="evenodd">
        <path d="M100,0 C44.7714,0 0,44.7714 0,100 C0,155.2286 44.7714,200 100,200 C155.2286,200 200,155.2286 200,100 C200,44.7714 155.2286,0 100,0 L100,0 L100,0 Z M119,24.75 C125.9302,24.7702 133.9218,25.2968 134.375,25.75 C134.4728,25.8478 134.4082,31.0382 134.25,37.375 L134,49 L125.25,49 C113.0174,49.0116 110.4846,49.6444 108.625,53.125 C107.7474,54.7676 107.7436,55.281 107.625,66.625 L107.5,78.375 L121,78.375 L134.5,78.375 L134.375,81.625 C134.3526,83.4526 134.1294,89.1552 133.875,94.25 L133.5,103.5 L120.5,103.625 L107.5,103.75 L107.5,138.625 L107.5,173.375 L94.25,173.375 C86.977,173.375 80.9072,173.2822 80.75,173.125 C80.5928,172.9678 80.5942,157.2536 80.75,138.25 L81,103.75 L71.75,103.75 L62.375,103.75 L62.375,91 L62.375,78.375 L71.625,78.375 L80.875,78.375 L81,64.125 C81.142,51.1172 81.2308,49.7032 82,47.25 C85.1398,37.2354 91.6002,30.4748 101.375,27 C106.3738,25.223 110.554,24.7254 119,24.75 L119,24.75 L119,24.75 Z M119,24.75" id="Facebook" fill="#444444"></path>
    </g>
</svg>