<?xml version="1.0" encoding="UTF-8" standalone="no"?>
<svg width="201px" height="200px" viewBox="0 0 201 200" version="1.1" xmlns="http://www.w3.org/2000/svg" xmlns:xlink="http://www.w3.org/1999/xlink" xmlns:sketch="http://www.bohemiancoding.com/sketch/ns">
    <title>Fancy</title>
    <description>Created with Sketch (http://www.bohemiancoding.com/sketch)</description>
    <defs></defs>
    <g id="Page 1" stroke="none" stroke-width="1" fill="none" fill-rule="evenodd">
        <path d="M100.5,0 C45.2714,0 0.5,44.7714 0.5,100 C0.5,155.2286 45.2714,200 100.5,200 C155.7286,200 200.5,155.2286 200.5,100 C200.5,44.7714 155.7286,0 100.5,0 L100.5,0 L100.5,0 Z M99.575,20.3126 C102.7932,20.329 106.3914,20.7546 110.5,21.6002 C118.6104,23.269 122.802,24.851 127.65,28.069 C136.2624,33.7856 141.336,41.5684 144.6876,54.2002 C145.848,58.5736 145.961,62.0684 145.9626,93.619 C145.9648,130.8112 146.0186,130.242 142.3626,132.9566 C140.5906,134.2722 139.3208,134.3924 124.7126,134.6442 L108.9688,134.913 L108.925,151.8006 C108.8746,172.6596 108.5866,174.708 105.2938,177.7256 C103.189,179.6548 102.324,179.9938 99.55,179.9568 C97.7536,179.9328 95.6666,179.6562 94.9124,179.3444 C94.1582,179.0326 92.7866,177.964 91.8624,176.9694 C89.6306,174.5674 89.1632,170.073 89.1186,150.4318 L89.0874,134.9194 L74.3562,134.6382 C60.826,134.3758 59.4722,134.237 57.7312,132.9444 C54.092,130.2424 54.142,130.8036 54.1312,93.4382 C54.1216,60.4038 54.1926,58.363 55.5374,53.3444 C57.682,45.3414 61.2218,39.2126 67.1436,33.232 C74.1946,26.111 77.5564,24.5046 92.6936,21.0196 C94.7974,20.5346 97.0718,20.2998 99.575,20.3126 L99.575,20.3126 L99.575,20.3126 Z M99.575,20.3126" id="Fancy" fill="#444444"></path>
    </g>
</svg>