<?xml version="1.0" encoding="UTF-8" standalone="no"?>
<svg width="202px" height="200px" viewBox="0 0 202 200" version="1.1" xmlns="http://www.w3.org/2000/svg" xmlns:xlink="http://www.w3.org/1999/xlink" xmlns:sketch="http://www.bohemiancoding.com/sketch/ns">
    <title>GitHub</title>
    <description>Created with Sketch (http://www.bohemiancoding.com/sketch)</description>
    <defs></defs>
    <g id="Page 1" stroke="none" stroke-width="1" fill="none" fill-rule="evenodd">
        <path d="M0.69398728,100 C0.69398728,155.2286 45.6892443,200 101.193987,200 C156.69873,200 201.693987,155.2286 201.693987,100 C201.693987,44.7714 156.69873,0 101.193987,0 C45.6892443,0 0.69398728,44.7714 0.69398728,100 Z M152.103468,25.4 C154.227636,28.626 155.44851,37.9372 154.615968,44.5938 L154.082112,48.8562 L156.676218,51.9874 C161.833074,58.2082 164.664762,65.7298 165.23118,74.725 C165.548157,79.7584 164.835813,91.5746 163.97493,95.5688 C163.692726,96.8788 163.546599,98.0364 163.654536,98.1438 C163.762473,98.2512 168.366981,98.1216 173.886642,97.8562 C179.77152,97.5734 184.697427,97.5428 185.795892,97.7812 C187.139376,98.0728 184.491402,98.2622 176.430498,98.45 C170.204724,98.595 164.621547,98.9354 163.918248,99.2124 C163.065807,99.5484 162.518484,100.2144 162.247536,101.2436 C161.765538,103.0744 160.532202,102.8318 173.62293,103.4686 C179.032041,103.7316 184.190907,104.134 185.092392,104.3624 C187.280076,104.9166 186.063825,104.941 182.052267,104.4186 C180.249096,104.1838 174.870738,103.9562 170.105229,103.9186 L161.443335,103.8562 L159.847797,106.575 C157.488258,110.5964 151.365396,116.4444 147.341778,118.5188 C142.472955,121.029 134.968017,123.3814 128.366172,124.4688 C125.179518,124.9936 122.2815,125.524 121.927941,125.6438 C121.485138,125.7938 121.948644,126.5576 123.410316,128.1126 C125.818095,130.674 127.044396,132.867 128.15271,136.5626 C128.759328,138.5848 128.988669,142.1844 129.220422,153.6314 C129.504033,167.6364 129.480114,168.1478 128.617422,168.4064 C125.798196,169.2516 120.636717,170.5814 120.169191,170.5814 C119.770809,170.5814 119.572824,167.082 119.434335,157.6502 C119.23635,144.1822 118.984698,142.432 117.022335,140.8126 C116.30376,140.2196 116.249691,141.315 116.249691,155.8064 L116.249691,171.4376 L113.090172,171.7814 C111.351522,171.9716 109.082835,172.1466 108.05271,172.169 L106.180998,172.2128 L105.885729,163.8252 C105.724728,159.212 105.566139,151.712 105.533979,147.1628 L105.477498,138.894 L104.076729,138.894 L102.669729,138.894 L102.669729,155.669 L102.669729,172.444 L98.8067103,172.369 C96.6817383,172.328 94.2546633,172.2098 93.4174983,172.1066 L91.8975363,171.919 L91.8975363,155.8128 C91.8975363,141.2492 91.8259803,139.7714 91.1626803,140.319 C88.9961013,142.1082 88.8630393,143.0656 88.7066613,157.6628 L88.5559113,171.544 L86.8285173,171.2316 C85.8797973,171.0588 83.7353283,170.575 82.0609983,170.1628 L79.0208733,169.4128 L78.8890173,160.4004 L78.7633923,151.388 L76.4456613,151.7068 C72.1808433,152.2904 64.6272633,152.0834 62.0239113,151.313 C55.7937153,149.4696 52.0374273,146.0926 48.7641423,139.3818 C46.0108443,133.737 43.5303033,130.4148 39.8509983,127.4568 C36.0044613,124.3644 35.2893033,123.297 36.5972103,122.6006 C37.0987053,122.3336 38.6323353,122.1218 40.0017483,122.1256 C42.3156603,122.132 46.5422883,124.0678 49.1470473,126.4568 C50.3110383,127.5244 52.1986293,129.6986 53.3429223,131.2944 C58.1516463,137.9996 63.2369463,140.692 70.0637103,140.1506 C74.0220033,139.8368 78.7756533,138.4634 79.2845853,137.4882 C79.4837763,137.1062 80.1195393,135.5618 80.6978163,134.057 C81.3715683,132.3034 82.6617873,130.3448 84.2844603,128.6008 C86.6747523,126.0318 86.7497253,125.8664 85.7228163,125.6632 C85.1244393,125.5448 82.1116503,125.0038 79.0206723,124.457 C67.5544263,122.4286 59.0927283,118.6336 52.7461533,112.6694 C50.6254023,110.6764 48.2023473,107.974 47.3569413,106.6632 L45.8180853,104.2756 L35.7240663,104.5632 C30.1129503,104.7216 23.9717973,105.154 21.8990853,105.5382 C18.5130393,106.1658 17.3695503,106.1826 17.9606913,105.5944 C18.3291243,105.2278 31.8875793,103.96 38.6259033,103.6632 C42.1677243,103.5072 45.0641343,103.181 45.0641343,102.9382 C45.0641343,102.6954 44.7515793,101.891 44.3668653,101.1506 C43.4173413,99.3238 42.1291323,99.1882 28.0858653,99.3694 C21.7105473,99.4518 16.4968083,99.3752 16.4970093,99.207 C16.4980143,98.5884 25.8704433,98.224 34.4551533,98.507 C42.7011783,98.7788 43.2661893,98.7478 42.9725283,97.9946 C42.7996683,97.551 42.2004873,95.4044 41.6409033,93.2258 C40.7488653,89.7522 40.6196223,88.004 40.6170093,79.0134 C40.6141953,69.4458 40.6913793,68.5452 41.7287403,65.501 C43.1843823,61.2302 45.6984903,56.4408 48.1293843,53.326 L50.0829033,50.826 L49.1659413,46.976 C48.0184323,42.1816 48.2230503,34.6312 49.6433163,29.4948 C50.9656953,24.7126 51.1518213,24.5514 55.1205663,24.8572 C60.2219463,25.2504 66.6989703,27.8206 74.8061043,32.6634 L78.5559603,34.901 L82.2995853,34.001 C93.6323673,31.2752 109.957989,31.018 122.047335,33.376 L125.734479,34.0948 L129.597498,31.7386 C134.89023,28.509 140.063568,26.2346 144.553104,25.1636 C146.810736,24.624 148.35924,24.3292 149.465343,24.2876 C150.887418,24.234 151.57725,24.601 152.103468,25.4 Z M45.7293832,125.5 C44.7410546,125.5 44.4114873,125.686465 44.4114873,126.256901 C44.4114873,127.558949 45.6336482,128.004007 46.977484,127.191897 C47.9835413,126.583882 47.1822039,125.5 45.7293832,125.5 L45.7293832,125.5 L45.7293832,125.5 Z M42.2308436,123.6 C41.3413478,123.6 41.0447373,123.786465 41.0447373,124.356901 C41.0447373,125.658949 42.1446821,126.104007 43.3541343,125.291897 C44.2595859,124.683882 43.5383822,123.6 42.2308436,123.6 L42.2308436,123.6 L42.2308436,123.6 Z M49.2354873,128.7376 C48.2503863,128.7494 47.6960283,129.372 48.0419493,130.2688 C48.4365123,131.2918 50.8557483,131.027 51.0631803,129.9376 C51.1656903,129.3996 50.8091163,129.0394 49.9765743,128.8314 C49.7086413,128.7642 49.4628183,128.7348 49.2354873,128.7376 L49.2354873,128.7376 L49.2354873,128.7376 Z M52.1186313,132.8312 C50.4406833,132.8312 49.7858253,133.6996 50.8686123,134.4874 C51.9349173,135.2632 53.4940743,134.8028 53.4940743,133.7124 C53.4942753,133.052 53.1551883,132.8312 52.1186313,132.8312 L52.1186313,132.8312 L52.1186313,132.8312 Z M54.9137373,136.175 C54.8447943,136.175 54.7748463,136.1778 54.7065063,136.1874 C54.1049133,136.273 53.6741703,136.7296 53.5821123,137.375 C53.4552813,138.263 53.6442213,138.425 54.8383623,138.425 C55.6138203,138.425 56.3870673,138.205 56.5530933,137.9374 C56.9900673,137.234 55.9466763,136.1766 54.9137373,136.175 L54.9137373,136.175 L54.9137373,136.175 Z M58.6949493,139.4062 C57.6401013,139.4298 57.0602163,140.0874 57.4073433,140.9874 C57.8493423,142.1332 60.2840553,141.7424 60.2840553,140.525 C60.2840553,139.8996 59.9218533,139.5422 59.1785553,139.4374 C59.0099163,139.4138 58.8456993,139.403 58.6949493,139.4062 L58.6949493,139.4062 L58.6949493,139.4062 Z M75.5037753,140.2876 C75.0517263,140.2876 74.4238023,140.6032 74.1030063,140.9876 C73.3870443,141.8458 74.2129533,143.0876 75.5037753,143.0876 C75.9558243,143.0876 76.5899793,142.772 76.9107753,142.3876 C77.6265363,141.5294 76.7943963,140.2876 75.5037753,140.2876 L75.5037753,140.2876 L75.5037753,140.2876 Z M69.8001993,141.2438 C68.8221333,141.3118 68.2060683,142.1646 68.6633433,143.35 C69.0275553,144.294 70.7981643,144.0466 71.4773433,142.9562 C71.8757253,142.3162 71.8315053,142.0254 71.2888053,141.6812 C70.7605773,141.3462 70.2448113,141.213 69.8001993,141.2438 L69.8001993,141.2438 L69.8001993,141.2438 Z M64.2853623,141.3188 C63.6479913,141.3448 63.0546393,141.7068 62.9348433,142.3312 C62.6437953,143.8496 64.6328913,144.5664 65.6734683,143.3188 C66.1393863,142.7602 66.1355673,142.4766 65.6545743,141.9 C65.3080503,141.4844 64.7812293,141.2986 64.2853623,141.3188 L64.2853623,141.3188 L64.2853623,141.3188 Z M64.2853623,141.3188" id="GitHub" fill="#444444"></path>
    </g>
</svg>