<?xml version="1.0" encoding="UTF-8" standalone="no"?>
<!-- Created with Inkscape (http://www.inkscape.org/) -->

<svg
   xmlns:dc="http://purl.org/dc/elements/1.1/"
   xmlns:cc="http://creativecommons.org/ns#"
   xmlns:rdf="http://www.w3.org/1999/02/22-rdf-syntax-ns#"
   xmlns:svg="http://www.w3.org/2000/svg"
   xmlns="http://www.w3.org/2000/svg"
   xmlns:sodipodi="http://sodipodi.sourceforge.net/DTD/sodipodi-0.dtd"
   xmlns:inkscape="http://www.inkscape.org/namespaces/inkscape"
   width="1000"
   height="1000"
   id="svg2"
   version="1.1"
   inkscape:version="0.48.2 r9819"
   sodipodi:docname="GitHub.svg"
   inkscape:export-filename="/Users/ScottSmith/Desktop/github-icon.png"
   inkscape:export-xdpi="135"
   inkscape:export-ydpi="135">
  <defs
     id="defs4">
    <clipPath
       clipPathUnits="userSpaceOnUse"
       id="clipPath3007">
      <path
         style="fill:none;stroke:#000000;stroke-width:1px;stroke-linecap:butt;stroke-linejoin:miter;stroke-opacity:1"
         d="m 11.607143,1014.6836 c 0.357143,0 0.715752,0.032 1.071428,0 1.205326,-0.1095 0.576272,-0.1491 1.607143,-0.5357 0.229797,-0.086 0.476191,-0.119 0.714286,-0.1786 0.238095,-0.059 0.478306,-0.1111 0.714286,-0.1785 0.180988,-0.052 0.353103,-0.1329 0.535714,-0.1786 0.294451,-0.074 0.602144,-0.091 0.892857,-0.1786 0.307027,-0.092 0.58583,-0.265 0.892857,-0.3571 0.290713,-0.087 0.60492,-0.083 0.892857,-0.1786 0.252539,-0.084 0.461748,-0.2729 0.714286,-0.3571 0.287938,-0.096 0.608669,-0.072 0.892857,-0.1786 0.200952,-0.075 0.343756,-0.2612 0.535715,-0.3571 0.168358,-0.084 0.357142,-0.1191 0.535714,-0.1786 0.357143,-0.1191 0.706207,-0.2659 1.071428,-0.3572 0.294451,-0.074 0.596572,-0.1127 0.892858,-0.1785 0.772253,-0.1716 1.533705,-0.4373 2.321428,-0.5357 0.354385,-0.044 0.714286,0 1.071429,0 0.47619,0 0.952381,0 1.428571,0 0.583707,0 1.038748,-0.035 1.607143,0.1785 0.249249,0.094 0.465036,0.2637 0.714286,0.3572 0.229796,0.086 0.484489,0.092 0.714285,0.1785 1.195517,0.4484 0.233055,0.266 1.428572,0.7143 0.457716,0.1717 0.818293,0.1413 1.25,0.3572 1.297444,0.6487 -0.103702,0.05 0.892857,0.7143 1.114757,0.7431 0.297619,0.06 1.25,0.5357 0.191959,0.096 0.357143,0.2381 0.535714,0.3571 0.178572,0.1191 0.370842,0.2198 0.535715,0.3572 0.194005,0.1616 0.338515,0.3779 0.535714,0.5357 0.103933,0.083 0.250663,0.099 0.357143,0.1785 0.134687,0.1011 0.21706,0.2638 0.357143,0.3572 0.22149,0.1476 0.47619,0.2381 0.714285,0.3571 0.119048,0.06 0.263028,0.085 0.357143,0.1786 0.04209,0.042 -0.04209,0.1365 0,0.1786 0.09412,0.094 0.263028,0.084 0.357143,0.1785 0.50281,0.011 0.04547,0.4027 0.178571,0.5358 0.09412,0.094 0.263028,0.084 0.357143,0.1785 0.09412,0.094 0.104742,0.2464 0.178572,0.3572 0.04669,0.07 0.119047,0.119 0.178571,0.1785 0.05952,0.1191 0.104741,0.2464 0.178572,0.3572 0.04669,0.07 0.151951,0.099 0.178571,0.1786 0,0.8129 -0.08418,0.01 0.178571,0.5357 0.02662,0.053 0,0.119 0,0.1785 0,0.1857 -0.03512,0.931 0,1.0715 0.03228,0.1291 0.146291,0.228 0.178572,0.3571 0.02887,0.1155 0,0.2381 0,0.3572 0,0.2381 0,0.4761 0,0.7142 0,0.3572 0,0.7143 0,1.0715 0,0.3571 0,0.7143 0,1.0714 0,0.1786 -0.04331,0.3625 0,0.5357 0.03228,0.1291 0.14629,0.228 0.178571,0.3572 0.02887,0.1155 -0.04421,0.2466 0,0.3571 0.07971,0.1993 0.261164,0.3438 0.357143,0.5357 0.08418,0.1684 0.108664,0.361 0.178572,0.5357 0.163275,0.4082 0.284166,0.4736 0.535714,0.8929 0.136958,0.2282 0.209482,0.4928 0.357143,0.7143 0.04669,0.07 0.119047,0.119 0.178571,0.1785 0.119048,0.1786 0.246724,0.3517 0.357143,0.5358 0.06848,0.1141 0.104741,0.2464 0.178571,0.3571 0.09339,0.1401 0.303904,0.1974 0.357143,0.3571 0.03765,0.113 -0.03765,0.2442 0,0.3572 0.02662,0.08 0.131877,0.1085 0.178572,0.1786 0.07383,0.1107 0.08446,0.263 0.178571,0.3571 0.04209,0.042 0.125332,-0.027 0.178572,0 0.214285,0.1071 0.321428,0.4286 0.535714,0.5357 0.113945,0.057 0.966028,-0.053 1.071428,0 0.150585,0.075 0.206559,0.2819 0.357143,0.3572 0.10648,0.053 0.24165,-0.029 0.357143,0 0.129125,0.032 0.230874,0.1364 0.357143,0.1785 0.122827,0.041 0.430354,-0.053 0.535714,0 0.07529,0.038 0.09871,0.152 0.178572,0.1786 0.225877,0.075 0.483299,-0.058 0.714285,0 0.257885,0.064 1.079688,0.578 1.25,0.7143 0.131467,0.1052 0.225677,0.252 0.357143,0.3571 0.167587,0.1341 0.383958,0.2054 0.535715,0.3572 0.09411,0.094 0.09871,0.2506 0.178571,0.3571 0.101015,0.1347 0.256128,0.2225 0.357143,0.3572 0.07986,0.1064 0.119047,0.2381 0.178571,0.3571 0.05952,0.119 0.119048,0.2381 0.178572,0.3571 0.05952,0.1191 0.119047,0.2381 0.178571,0.3572 0,0.119 -0.03765,0.2442 0,0.3571 0.05324,0.1597 0.281851,0.2066 0.357143,0.3572 0.02662,0.053 0,0.119 0,0.1785 0,0.06 0,0.1191 0,0.1786 0,0.4167 0,0.8333 0,1.25 0,0.066 0.0072,0.7071 0,0.7143 -0.28139,0.2814 -1.036215,0.1786 -1.428571,0.1786 -0.714286,0 -1.428572,0 -2.142858,0 -0.416666,0 -0.83655,-0.052 -1.25,0 -0.243527,0.03 -0.472202,0.1382 -0.714285,0.1785 -0.117428,0.02 -0.238096,0 -0.357143,0 -0.238095,0 -0.476191,0 -0.714286,0 -0.238095,0 -0.478583,-0.034 -0.714286,0 -0.186339,0.027 -0.354725,0.1269 -0.535714,0.1786 -0.23598,0.067 -0.472202,0.1382 -0.714286,0.1786 -0.117427,0.02 -0.238095,0 -0.357142,0 -0.238096,0 -0.476191,0 -0.714286,0 -0.119048,0 -0.24165,-0.029 -0.357143,0 -0.129125,0.032 -0.238095,0.119 -0.357143,0.1786 -0.178571,0.059 -0.351139,0.1416 -0.535714,0.1785 -0.169899,0.034 -0.98358,-0.044 -1.071429,0 -0.150584,0.075 -0.21706,0.2638 -0.357143,0.3572 -0.110745,0.074 -0.246397,0.1047 -0.357142,0.1785 -0.07004,0.047 -0.09691,0.1582 -0.178572,0.1786 -0.17324,0.043 -0.366306,-0.056 -0.535714,0 -0.203603,0.068 -0.351683,0.2467 -0.535714,0.3572 -0.114132,0.068 -0.233564,0.1291 -0.357143,0.1785 -1.663577,0.6655 0.561786,-0.2297 -1.071429,0.1786 -0.08167,0.02 -0.09871,0.152 -0.178571,0.1786 -0.812908,0 -0.01021,-0.084 -0.535715,0.1785 -0.06458,0.032 -0.768653,0 -0.892857,0 -0.654762,0 -1.309524,0 -1.964285,0 -0.904443,0 0.380684,-0.029 -1.071429,0.1786 -0.176777,0.025 -0.357143,0 -0.535714,0 -0.297619,0 -0.595238,0 -0.892857,0 -0.833334,0 -1.666667,0 -2.5,0 -1.011905,0 -2.02381,0 -3.035715,0 -0.357143,0 -0.714285,0 -1.071428,0 -0.119048,0 -0.250664,0.053 -0.357143,0 -0.05324,-0.027 0.05647,-0.1597 0,-0.1786 -0.09148,-0.03 -1.257056,0 -1.428572,0 -0.119047,0 -0.244204,0.038 -0.357142,0 -0.07986,-0.027 -0.10328,-0.1409 -0.178572,-0.1785 -0.116931,-0.059 -0.734387,0.053 -0.892857,0 -0.126269,-0.042 -0.230874,-0.1365 -0.357143,-0.1786 -0.143732,-0.048 -0.600175,0.057 -0.714286,0 -0.07529,-0.038 -0.103279,-0.1409 -0.178571,-0.1786 -0.07946,-0.04 -0.632609,0.027 -0.714286,0 -0.07986,-0.027 -0.0969,-0.1581 -0.178571,-0.1785 -0.03893,-0.01 -0.811607,0.041 -0.892857,0 -0.07529,-0.038 -0.103279,-0.141 -0.178572,-0.1786 -0.05324,-0.027 -0.129044,0.033 -0.178571,0 -0.140083,-0.093 -0.206558,-0.2819 -0.357143,-0.3572 -0.106479,-0.053 -0.238095,0 -0.357143,0 -0.119047,-0.06 -0.246397,-0.1047 -0.357143,-0.1785 -0.07004,-0.047 -0.10853,-0.1319 -0.178571,-0.1786 -0.110745,-0.074 -0.246398,-0.1047 -0.357143,-0.1786 -0.07004,-0.047 -0.09871,-0.1519 -0.178571,-0.1785 -0.112939,-0.038 -0.244205,0.038 -0.357143,0 -0.07986,-0.027 -0.10853,-0.1319 -0.178572,-0.1786 -0.110745,-0.074 -0.230874,-0.1365 -0.357143,-0.1786 -0.189752,-0.063 -0.524533,0.063 -0.714285,0 -1.532228,-0.5107 1.138213,0.16 -0.892857,-0.1786 -1.214431,-0.2024 0.162615,-0.1243 -1.071429,-0.5357 -0.169408,-0.056 -0.358938,0.025 -0.535714,0 -0.452158,0.017 -0.822556,-0.2859 -1.25,-0.3571 -0.176142,-0.029 -0.359573,0.029 -0.535715,0 -0.371339,-0.062 -0.7000887,-0.2953 -1.0714281,-0.3572 -0.1761418,-0.029 -0.3571429,0 -0.5357143,0 -0.4166667,0 -0.8333334,0 -1.25,0 -0.4166667,0 -0.8333334,0 -1.25,0 -0.1190476,0 -0.2380953,0 -0.3571429,0 -0.1190476,0 -0.2416497,-0.029 -0.3571428,0 -0.1291253,0.032 -0.2280176,0.1463 -0.3571429,0.1786 -0.1154932,0.029 -0.2380952,0 -0.3571429,0 -0.1785714,0 -0.3571428,0 -0.5357142,0 -0.2380953,0 -0.4785835,-0.034 -0.7142858,0 -0.186339,0.027 -0.3493752,0.152 -0.5357142,0.1786 -0.412479,0.059 -0.8414248,-0.082 -1.25,0 -0.1305146,0.026 -0.2258546,0.1567 -0.3571429,0.1786 -0.2348557,0.039 -0.47619048,0 -0.71428571,0 -0.17857143,0 -0.3606106,0.035 -0.53571429,0 -0.1845755,-0.037 -0.35004456,-0.1477 -0.53571429,-0.1786 -0.17614177,-0.029 -0.35957251,0.029 -0.53571431,0 -0.5076401,-0.085 -0.4764926,-0.1906 -0.8928571,-0.3572 -0.6943055,-0.2777 -0.6936583,-0.096 -0.8928572,-0.8928 -0.014437,-0.058 0,-0.1191 0,-0.1786 0,-0.119 0,-0.2381 0,-0.3571 0,-0.2976 0,-0.5953 0,-0.8929 0,-0.2381 -0.083601,-0.4913 0,-0.7143 0.1045011,-0.2786 0.402615,-0.4481 0.5357143,-0.7143 0.1683588,-0.3367 0.1887841,-0.7347 0.3571429,-1.0714 0.1919585,-0.3839 0.4838414,-0.7093 0.7142857,-1.0714 0.186339,-0.2928 0.32262749,-0.6189 0.53571429,-0.8929 0.20672455,-0.2658 0.49058277,-0.4626 0.71428571,-0.7143 0.25321454,-0.2848 0.4802894,-0.592 0.71428571,-0.8928 0.18272042,-0.2349 0.32526589,-0.5039 0.53571429,-0.7143 0.2104484,-0.2104 0.4903046,-0.3397 0.7142857,-0.5357 0.3801086,-0.3326 0.6879461,-0.7427 1.0714286,-1.0714 0.2893818,-0.2481 0.6060213,-0.4633 0.8928571,-0.7143 1.1556152,-1.0112 -0.1508725,-0.028 1.25,-1.4286 0.2104485,-0.2104 0.5038373,-0.3253 0.7142857,-0.5357 0.1517566,-0.1518 0.2230733,-0.3681 0.3571429,-0.5357 0.1051729,-0.1315 0.2380952,-0.2381 0.3571429,-0.3572 0.059524,-0.059 0.1409252,-0.1033 0.1785714,-0.1785 0.02662,-0.053 -0.02662,-0.1254 0,-0.1786 0.037646,-0.075 0.1409253,-0.1033 0.1785714,-0.1786 0.02662,-0.053 -0.018823,-0.1221 0,-0.1786 0.04209,-0.1262 0.1364818,-0.2308 0.1785714,-0.3571 0.018823,-0.057 -0.04209,-0.1365 0,-0.1786 0.8749939,-0.4375 0.1493624,0.058 0.3571429,-0.3571 0.037646,-0.075 0.1519516,-0.099 0.1785714,-0.1786 0.037646,-0.1129 -0.037646,-0.2442 0,-0.3571 0.02662,-0.08 0.1318771,-0.1086 0.1785715,-0.1786 0.07383,-0.1107 0.1364817,-0.2309 0.1785714,-0.3571 0.037646,-0.113 -0.084179,-0.273 0,-0.3572 0.1517565,-0.1517 0.3839577,-0.2054 0.5357143,-0.3571 0.04209,-0.042 -0.02662,-0.1254 0,-0.1786 0.3715857,-0.7432 -0.012328,0.1909 0.3571428,-0.1786 0.04209,-0.042 -0.04209,-0.1365 0,-0.1785 0.011085,-0.5029 0.402615,-0.045 0.5357143,-0.1786 0.059524,-0.1191 0.1190476,-0.2381 0.1785714,-0.3572 0.059524,0 0.1364818,0.042 0.1785715,0 0.094115,-0.094 0.084456,-0.263 0.1785714,-0.3571 0.04209,-0.042 0.136482,0.042 0.178571,0 0.04209,-0.042 -0.04209,-0.1365 0,-0.1786 0.09412,-0.094 0.263028,-0.084 0.357143,-0.1785 0.09412,-0.094 0.08446,-0.2631 0.178572,-0.3572 0.04209,-0.042 0.136481,0.042 0.178571,0 0.04209,-0.042 -0.01882,-0.1221 0,-0.1786 0.04209,-0.1262 0.136482,-0.2308 0.178572,-0.3571 0.03765,-0.1129 -0.05324,-0.2507 0,-0.3571 0.03765,-0.075 0.119047,-0.1191 0.178571,-0.1786 0.119048,-0.2976 0.238095,-0.5953 0.357143,-0.8929 z"
         id="path3009"
         inkscape:connector-curvature="0" />
    </clipPath>
    <clipPath
       id="clipPath3172"
       clipPathUnits="userSpaceOnUse">
      <path
         id="path3174"
         d="M 0,216 216,216 216,0 0,0 0,216 z"
         inkscape:connector-curvature="0" />
    </clipPath>
    <clipPath
       id="clipPath3160"
       clipPathUnits="userSpaceOnUse">
      <path
         id="path3162"
         d="m 121.724,55.661 c 0.343,1.114 0.39,2.832 -3.038,2.054 l 0,0 c 0,0 -9.395,-1.342 -9.843,-12.303 l 0,0 -0.214,-20.989 -2.258,0 -0.213,20.989 c -0.448,10.961 -9.842,12.303 -9.842,12.303 l 0,0 c -3.428,0.778 -3.383,-0.938 -3.04,-2.052 l 0,0 c -3.371,5.738 -12.394,4.996 -12.394,4.996 l 0,0 c -3.133,-1.117 -0.224,-3.131 -0.224,-3.131 l 0,0 c 4.921,-1.788 5.369,-7.158 5.369,-7.158 l 0,0 0,-15.18 0.52,-11.728 c 1.117,-5.224 3.874,-8.312 6.578,-10.129 l 0,0 28.803,0.033 c 3.484,2.365 7.047,6.846 7.047,15.307 l 0,0 0,21.697 c 0,0 0.447,5.37 5.369,7.158 l 0,0 c 0,0 2.906,2.014 -0.225,3.131 l 0,0 c 0,0 -0.382,0.031 -1.017,0.032 l 0,0 c -2.455,0 -8.7,-0.469 -11.378,-5.03 m -27.197,-21.619 0,16.552 c 0,1.617 -0.285,2.977 -0.773,4.12 l 0,0 c 3.239,-2.526 3.457,-8.855 3.457,-8.855 l 0,0 0,-20.663 c -3.225,2.282 -2.684,8.846 -2.684,8.846 m 23.264,11.817 c 0,0 0.217,6.329 3.456,8.855 l 0,0 c -0.487,-1.143 -0.772,-2.503 -0.772,-4.12 l 0,0 0,-16.552 c 0,0 0.539,-6.101 -2.684,-8.612 l 0,0 0,20.429 z"
         inkscape:connector-curvature="0" />
    </clipPath>
    <clipPath
       id="clipPath3148"
       clipPathUnits="userSpaceOnUse">
      <path
         id="path3150"
         d="M 0,216 216,216 216,0 0,0 0,216 z"
         inkscape:connector-curvature="0" />
    </clipPath>
    <filter
       id="filter3301"
       inkscape:label="Desaturate"
       x="0"
       y="0"
       width="1"
       height="1"
       inkscape:menu="Color"
       inkscape:menu-tooltip="Render in shades of gray by reducing saturation to zero"
       color-interpolation-filters="sRGB">
      <feColorMatrix
         id="feColorMatrix3303"
         type="saturate"
         values="0" />
    </filter>
    <clipPath
       clipPathUnits="userSpaceOnUse"
       id="clipPath3309">
      <path
         sodipodi:type="arc"
         style="fill:#3f3f3f;fill-opacity:1"
         id="path3311"
         sodipodi:cx="30.178307"
         sodipodi:cy="24.556784"
         sodipodi:rx="25.253813"
         sodipodi:ry="13.068849"
         d="m 55.432119,24.556784 a 25.253813,13.068849 0 1 1 -0.0063,-0.292563"
         transform="matrix(3.6618068,0,0,-3.7322195,0.03901332,247.68464)"
         sodipodi:start="0"
         sodipodi:end="6.2607972"
         sodipodi:open="true" />
    </clipPath>
    <clipPath
       clipPathUnits="userSpaceOnUse"
       id="clipPath3545">
      <path
         sodipodi:type="arc"
         style="fill:#3f3f3f;fill-opacity:1"
         id="path3547"
         sodipodi:cx="29.357559"
         sodipodi:cy="24.556784"
         sodipodi:rx="17.867073"
         sodipodi:ry="14.836616"
         d="m 47.224632,24.556784 a 17.867073,14.836616 0 1 1 -35.734146,0 17.867073,14.836616 0 1 1 35.734146,0 z"
         transform="matrix(1.1518539,0,0,0.78125503,-10.929273,5.4038358)" />
    </clipPath>
    <clipPath
       clipPathUnits="userSpaceOnUse"
       id="clipPath3549">
      <path
         sodipodi:type="arc"
         style="fill:#3f3f3f;fill-opacity:1"
         id="path3551"
         sodipodi:cx="29.357559"
         sodipodi:cy="24.556784"
         sodipodi:rx="17.867073"
         sodipodi:ry="14.836616"
         d="m 47.224632,24.556784 a 17.867073,14.836616 0 1 1 -35.734146,0 17.867073,14.836616 0 1 1 35.734146,0 z"
         transform="matrix(4.7247422,0,0,-3.2045979,-31.669058,232.84327)" />
    </clipPath>
  </defs>
  <sodipodi:namedview
     id="base"
     pagecolor="#ffffff"
     bordercolor="#666666"
     borderopacity="1.0"
     inkscape:pageopacity="0.0"
     inkscape:pageshadow="2"
     inkscape:zoom="0.35"
     inkscape:cx="472.47434"
     inkscape:cy="894.4362"
     inkscape:document-units="px"
     inkscape:current-layer="layer1"
     showgrid="false"
     inkscape:window-width="821"
     inkscape:window-height="573"
     inkscape:window-x="122"
     inkscape:window-y="0"
     inkscape:window-maximized="0">
    <inkscape:grid
       type="xygrid"
       id="grid3065" />
  </sodipodi:namedview>
  <metadata
     id="metadata7">
    <rdf:RDF>
      <cc:Work
         rdf:about="">
        <dc:format>image/svg+xml</dc:format>
        <dc:type
           rdf:resource="http://purl.org/dc/dcmitype/StillImage" />
        <dc:title />
      </cc:Work>
    </rdf:RDF>
  </metadata>
  <g
     inkscape:label="Layer 1"
     inkscape:groupmode="layer"
     id="layer1"
     transform="translate(0,-52.3622)">
    <path
       style="fill:#444444;fill-opacity:1"
       d="M 500 0 C 223.85763 3.7895613e-14 0 223.85763 0 500 C -3.7895613e-14 776.14237 223.85763 1000 500 1000 C 776.14237 1000 1000 776.14237 1000 500 C 1000 223.85763 776.14237 -1.4210855e-13 500 0 z M 740.15625 121.4375 C 747.2318 121.16956 750.66334 123.00458 753.28125 127 C 763.84994 143.12985 769.92313 189.68531 765.78125 222.96875 L 763.125 244.28125 L 776.03125 259.9375 C 801.68763 291.04195 815.77586 328.64993 818.59375 373.625 C 820.17057 398.79175 816.62662 457.87339 812.34375 477.84375 C 810.93905 484.39366 810.21333 490.18211 810.75 490.71875 C 811.28664 491.25542 834.19526 490.60771 861.65625 489.28125 C 890.93458 487.8669 915.44105 487.7139 920.90625 488.90625 C 927.59011 490.36445 914.41563 491.31167 874.3125 492.25 C 843.33879 492.97472 815.56146 494.67688 812.0625 496.0625 C 807.82115 497.74212 805.09823 501.07262 803.75 506.21875 C 801.35158 515.37344 795.2158 514.16056 860.34375 517.34375 C 887.25513 518.65907 912.92102 520.67064 917.40625 521.8125 C 928.29028 524.58342 922.23933 524.70466 902.28125 522.09375 C 893.31079 520.9202 866.5514 519.78225 842.84375 519.59375 L 799.75 519.28125 L 791.8125 532.875 C 780.07311 552.98244 749.61092 582.22178 729.59375 592.59375 C 705.37158 605.14456 668.0336 616.90684 635.1875 622.34375 C 619.33374 624.968 604.91483 627.6202 603.15625 628.21875 C 600.95303 628.96864 603.25909 632.78807 610.53125 640.5625 C 622.51066 653.36945 628.61127 664.33501 634.125 682.8125 C 637.14222 692.92375 638.28439 710.92216 639.4375 768.15625 C 640.84834 838.18171 640.72941 840.73822 636.4375 842.03125 C 622.4115 846.25691 596.73265 852.90625 594.40625 852.90625 C 592.42408 852.90625 591.43991 835.40925 590.75 788.25 C 589.76485 720.91002 588.51277 712.15896 578.75 704.0625 C 575.17522 701.09782 574.90625 706.57438 574.90625 779.03125 L 574.90625 857.1875 L 559.1875 858.90625 C 550.53742 859.85759 539.25097 860.73198 534.125 860.84375 L 524.8125 861.0625 L 523.34375 819.125 C 522.54259 796.05811 521.7537 758.55902 521.59375 735.8125 L 521.3125 694.46875 L 514.34375 694.46875 L 507.34375 694.46875 L 507.34375 778.34375 L 507.34375 862.21875 L 488.125 861.84375 C 477.55268 861.63871 465.47735 861.04811 461.3125 860.53125 L 453.75 859.59375 L 453.75 779.0625 C 453.75 706.24439 453.39327 698.85539 450.09375 701.59375 C 439.31403 710.54014 438.65203 715.3271 437.875 788.3125 L 437.125 857.71875 L 428.53125 856.15625 C 423.81162 855.29176 413.14221 852.8733 404.8125 850.8125 L 389.6875 847.0625 L 389.03125 802 L 388.40625 756.9375 L 376.875 758.53125 C 355.6576 761.44938 318.0772 760.414 305.125 756.5625 C 274.12952 747.3456 255.44123 730.46089 239.15625 696.90625 C 225.45841 668.68232 213.11734 652.07086 194.8125 637.28125 C 175.67532 621.81912 172.11737 616.48278 178.625 613 C 181.12003 611.66468 188.7504 610.6061 195.5625 610.625 C 207.07456 610.6569 207.53912 610.85466 202.125 613.59375 C 194.17666 617.61496 194.65329 623.19986 203.03125 624.15625 C 210.53105 625.01238 214.84653 620.54102 211 615.90625 C 203.59769 606.987 228.10307 620.33567 241.0625 632.28125 C 246.85294 637.61869 256.2445 648.4907 261.9375 656.46875 C 285.8612 689.99483 311.16135 703.45661 345.125 700.75 C 364.81886 699.18054 388.46804 692.31403 391 687.4375 C 391.99159 685.52772 395.15471 677.80602 398.03125 670.28125 C 401.3827 661.51419 407.80133 651.72052 415.875 643 C 427.76666 630.15558 428.13998 629.32849 423.03125 628.3125 C 420.05422 627.72042 405.06543 625.01519 389.6875 622.28125 C 332.64185 612.13953 290.54358 593.1638 258.96875 563.34375 C 248.41753 553.37892 236.36256 539.86746 232.15625 533.3125 L 224.5 521.375 L 174.28125 522.8125 C 146.36586 523.60421 115.81262 525.76647 105.5 527.6875 C 88.654497 530.82549 82.9654 530.90962 85.90625 527.96875 C 87.73899 526.13603 155.19411 519.79657 188.71875 518.3125 C 206.33929 517.53249 220.75 515.90135 220.75 514.6875 C 220.75 513.47364 219.19515 509.45108 217.28125 505.75 C 212.55783 496.61591 206.14787 495.93706 136.28125 496.84375 C 104.56307 497.25539 78.62382 496.87279 78.625 496.03125 C 78.63 492.93863 125.25906 491.11643 167.96875 492.53125 C 208.99394 493.89026 211.80456 493.73546 210.34375 489.96875 C 209.48364 487.75092 206.50241 477.0177 203.71875 466.125 C 199.28029 448.75695 198.63761 440.01513 198.625 395.0625 C 198.611 347.22474 198.99448 342.7211 204.15625 327.5 C 211.39786 306.14579 223.90654 282.199 236 266.625 L 245.71875 254.125 L 241.15625 234.875 C 235.44712 210.90351 236.46472 173.15083 243.53125 147.46875 C 250.11042 123.55791 251.03666 122.75178 270.78125 124.28125 C 296.16164 126.2473 328.38498 139.09857 368.71875 163.3125 L 387.375 174.5 L 406 170 C 462.38139 156.37078 543.60423 155.08551 603.75 166.875 L 622.09375 170.46875 L 641.3125 158.6875 C 667.64478 142.5393 693.38279 131.1678 715.71875 125.8125 C 726.94947 123.11981 734.65305 121.6459 740.15625 121.4375 z M 227.8125 626.90625 C 222.51679 626.90625 220.75 627.95347 220.75 631.15625 C 220.75 638.46636 227.29944 640.96562 234.5 636.40625 C 239.89122 632.99254 235.59702 626.90625 227.8125 626.90625 z M 241.5 643.6875 C 236.59913 643.74603 233.8415 646.8589 235.5625 651.34375 C 237.52552 656.45931 249.56103 655.13488 250.59375 649.6875 C 251.10378 646.99718 249.3301 645.19599 245.1875 644.15625 C 243.85417 643.82161 242.63097 643.67399 241.5 643.6875 z M 255.84375 664.15625 C 247.49561 664.15625 244.23779 668.49828 249.625 672.4375 C 254.93027 676.31682 262.6875 674.01509 262.6875 668.5625 C 262.6875 665.25957 261.00141 664.15625 255.84375 664.15625 z M 269.75 680.875 C 269.40738 680.87449 269.05874 680.88892 268.71875 680.9375 C 265.72544 681.3652 263.58321 683.64869 263.125 686.875 C 262.49434 691.31561 263.43341 692.125 269.375 692.125 C 273.233 692.125 277.07954 691.02513 277.90625 689.6875 C 280.08002 686.17026 274.88934 680.88262 269.75 680.875 z M 288.5625 697.03125 C 283.31483 697.14954 280.42956 700.43781 282.15625 704.9375 C 284.35499 710.66734 296.46875 708.71294 296.46875 702.625 C 296.46875 699.4982 294.66672 697.7107 290.96875 697.1875 C 290.12912 697.0687 289.31217 697.01435 288.5625 697.03125 z M 372.1875 701.4375 C 369.93834 701.4375 366.81407 703.01526 365.21875 704.9375 C 361.65743 709.22862 365.76542 715.4375 372.1875 715.4375 C 374.43666 715.4375 377.59218 713.85974 379.1875 711.9375 C 382.74881 707.64638 378.60958 701.4375 372.1875 701.4375 z M 343.8125 706.21875 C 338.94628 706.55842 335.88145 710.82198 338.15625 716.75 C 339.96733 721.46961 348.77729 720.23378 352.15625 714.78125 C 354.13916 711.5815 353.91751 710.12665 351.21875 708.40625 C 348.58967 706.73026 346.02442 706.06436 343.8125 706.21875 z M 316.375 706.59375 C 313.20364 706.72325 310.2517 708.53432 309.65625 711.65625 C 308.20827 719.248 318.10434 722.83153 323.28125 716.59375 C 325.59947 713.80046 325.58019 712.38318 323.1875 709.5 C 321.46302 707.42213 318.84161 706.49303 316.375 706.59375 z "
       transform="translate(0,52.3622)"
       id="path3063" />
  </g>
</svg>
