<?xml version="1.0" encoding="UTF-8" standalone="no"?>
<svg width="1001px" height="1002px" viewBox="0 0 1001 1002" version="1.1" xmlns="http://www.w3.org/2000/svg" xmlns:xlink="http://www.w3.org/1999/xlink" xmlns:sketch="http://www.bohemiancoding.com/sketch/ns">
    <title>GooglePlus</title>
    <description>Created with Sketch (http://www.bohemiancoding.com/sketch)</description>
    <defs></defs>
    <g id="Page 1" fill="#D8D8D8" fill-rule="evenodd">
        <path d="M500,0.5 C318.781,0.5 160.193,96.801 72.5,241.125 C99.856,221.719 128.666,208.643 158.125,202.375 C194.006,194.9 226.852,191.125 257.5,191.125 L488.75,191.125 L416.875,231.75 L347.5,231.75 C354.228,236.983 361.654,244.03 370.625,253 C379.595,261.223 388.652,271.542 396.875,284.25 C405.098,296.211 412.145,310.305 418.125,326.75 C424.104,343.196 426.875,362.07 426.875,383 C426.875,403.931 424.607,422.303 419.375,438 C414.142,453.698 406.47,467.792 397.5,480.5 C388.529,492.461 378.712,503.785 367.5,514.25 C356.287,523.968 344.46,533.405 332.5,542.375 C325.024,549.851 317.978,557.277 311.25,565.5 C304.522,573.723 301.25,584.042 301.25,596.75 C301.25,609.458 304.522,619.9 311.25,627.375 C317.978,634.103 324.645,640.268 330.625,645.5 L370.625,676.75 C382.585,687.215 394.412,697.535 405.625,708 C417.585,718.465 427.401,729.79 435.625,741.75 C444.595,753.71 452.267,766.8 457.5,781.75 C462.732,796.7 464.999,814.189 465,833.625 C464.999,859.788 458.957,885.709 446.25,911.125 C433.542,936.54 414.668,958.564 390,978 C386.652,980.739 382.957,983.537 379.375,986.125 C417.998,995.689 458.42,1000.5 500,1000.5 C776.143,1000.5 1000,776.643 1000,500.5 C1000,467.988 997.176,436.282 991.25,405.5 L806.25,405.5 L806.25,618.625 L739.375,618.625 L739.375,405.5 L526.25,405.5 L526.25,338 L739.375,338 L739.375,128.625 L806.25,128.625 L806.25,338 L972.5,338 C905.019,141.687 719.215,0.5 500,0.5 L500,0.5 L500,0.5 Z M186.875,228 C171.924,228 157.328,231.273 143.125,238 C128.922,244.728 117.72,253.663 108.75,264.875 C99.032,276.836 91.862,290.047 88.125,304.25 C85.135,318.453 83.75,333.05 83.75,348 C83.75,366.688 86.642,387.952 91.875,411.125 C97.855,434.299 106.287,455.942 117.5,476.125 C129.46,496.309 144.057,513.172 161.25,527.375 C179.19,540.83 199.829,547.375 223.75,547.375 C237.953,547.375 252.169,544.605 265.625,538.625 C279.828,532.645 291.029,525.096 300,516.125 C312.707,503.417 320.76,489.323 323.75,473.625 C326.739,457.928 328.125,444.716 328.125,434.25 C328.125,414.067 325.354,391.921 319.375,368 C313.395,344.08 304.46,322.056 292.5,301.125 C280.54,280.195 265.44,262.706 247.5,249.25 C230.307,235.048 210.048,228.001 186.875,228 L186.875,228 L186.875,228 Z M0.625,474.875 C0.193,483.398 0,491.87 0,500.5 C0,582.783 20.413,660.166 55.625,728.625 C60.549,726.612 65.548,724.132 70.625,722.375 C90.808,716.395 110.564,711.737 130,708 C149.436,704.263 167.807,701.37 185,699.875 C202.193,698.38 216.667,697.498 229.375,696.75 C221.152,686.285 213.725,675.463 206.25,664.25 C199.522,652.29 196.25,637.693 196.25,620.5 C196.25,610.782 197.132,602.73 199.375,596.75 C201.617,590.022 203.885,583.478 206.875,576.75 L189.375,579.25 L171.25,579.25 C141.349,579.25 115.048,573.968 91.875,564.25 C68.702,553.785 48.823,540.695 33.125,524.25 C19.163,509.623 8.674,493.05 0.625,474.875 L0.625,474.875 L0.625,474.875 Z M226.25,728 C218.027,728.747 208.087,729.752 196.875,730.5 C185.662,731.995 173.958,733.883 161.25,736.125 C148.542,739.115 136.335,742.388 124.375,746.125 C118.395,748.367 109.337,751.64 98.125,756.125 C91.459,759.458 84.791,763.776 78.125,768.625 C137.945,862.58 228.112,935.014 335,972.375 C339.305,969.623 343.691,966.816 347.5,963.625 C375.905,941.199 390,912.508 390,877.375 C390,863.172 387.107,849.96 381.875,838 C377.39,826.787 370.343,815.463 360.625,804.25 C350.907,793.037 338.197,781.835 322.5,769.875 C306.802,757.915 288.43,744.2 267.5,729.25 C263.015,728.502 259.362,728 255.625,728 L241.875,728 L226.25,728 L226.25,728 Z M226.25,728" id="Google+" fill="#444444"></path>
    </g>
</svg>