<?xml version="1.0" encoding="UTF-8" standalone="no"?>
<svg width="1001px" height="1002px" viewBox="0 0 1001 1002" version="1.1" xmlns="http://www.w3.org/2000/svg" xmlns:xlink="http://www.w3.org/1999/xlink" xmlns:sketch="http://www.bohemiancoding.com/sketch/ns">
    <title>Instagram</title>
    <description>Created with Sketch (http://www.bohemiancoding.com/sketch)</description>
    <defs></defs>
    <g id="Page 1" fill="#D8D8D8" fill-rule="evenodd">
        <path d="M500,0.5 C223.857,0.5 0,224.357 0,500.5 C0,776.643 223.857,1000.5 500,1000.5 C776.143,1000.5 1000,776.643 1000,500.5 C1000,224.357 776.143,0.5 500,0.5 L500,0.5 L500,0.5 Z M262.75,160.5 L741.594,160.5 C797.31,160.5 842.188,200.566 842.188,250.344 L842.188,750.656 C842.188,800.434 797.31,840.5 741.594,840.5 L262.75,840.5 C207.034,840.5 162.188,800.435 162.188,750.656 L162.188,250.344 C162.188,200.566 207.034,160.5 262.75,160.5 L262.75,160.5 L262.75,160.5 Z M677.469,230.906 C664.946,230.906 654.844,240.976 654.844,253.5 L654.844,325.844 C654.844,338.367 664.946,348.438 677.469,348.438 L749.813,348.438 C762.336,348.438 772.407,338.368 772.407,325.844 L772.407,253.5 C772.407,240.977 762.337,230.906 749.813,230.906 L677.469,230.906 L677.469,230.906 Z M616.312,359 C616.808,359.354 617.319,359.704 617.812,360.062 L617.812,359 L616.312,359 L616.312,359 Z M500,372.5 C417.157,372.5 350,439.657 350,522.5 C350,605.343 417.157,672.5 500,672.5 C582.843,672.5 650,605.343 650,522.5 C650,439.657 582.843,372.5 500,372.5 L500,372.5 L500,372.5 Z M200,428.812 L200,740.5 C200,773.74 226.76,800.5 260,800.5 L740,800.5 C773.24,800.5 800,773.74 800,740.5 L800,435.156 L680.406,435.156 C692.951,461.271 700,490.528 700,521.438 C700,631.638 610.669,720.969 500.469,720.969 C390.269,720.969 300.938,631.638 300.938,521.438 C300.938,488.001 309.184,456.495 323.719,428.813 L200,428.813 L200,428.812 L200,428.812 Z M200,428.812" id="Instagram" fill="#444444"></path>
    </g>
</svg>