<?xml version="1.0" encoding="UTF-8" standalone="no"?>
<svg width="1003px" height="1004px" viewBox="0 0 1003 1004" version="1.1" xmlns="http://www.w3.org/2000/svg" xmlns:xlink="http://www.w3.org/1999/xlink" xmlns:sketch="http://www.bohemiancoding.com/sketch/ns">
    <title>iTunes</title>
    <description>Created with Sketch (http://www.bohemiancoding.com/sketch)</description>
    <defs></defs>
    <g id="Page 1" fill="#D8D8D8" fill-rule="evenodd">
        <path d="M500.99999,1.5 C224.85763,1.5 1,225.35763 1,501.50002 C1,777.64242 224.85763,1001.5 500.99999,1001.5 C777.14237,1001.5 1001,777.64242 1001,501.50002 C1001,225.35763 777.14237,1.5 500.99999,1.5 L500.99999,1.5 L500.99999,1.5 Z M748.5,130.875 L747.24999,245.87502 C746.83679,309.24501 745.79559,434.26702 744.75,523.37503 L742.87499,685.25003 L736,697.12504 C721.00225,724.12904 687.7143,749.18304 657.25,755.87503 C638.73507,759.94503 601.32542,757.24704 585.375,750.87505 C561.5285,741.34104 539.62439,718.95704 532.875,697.12504 C531.0388,691.18703 530.32132,680.13003 530.99999,669.00004 C532.5248,643.99203 540.4734,628.12804 561,607.75003 C593.06167,575.91803 622.96846,568.40902 684.75,577.12502 L694.75,578.37503 L694.75,451.50002 L694.75,325.25002 L685.99999,325.25002 C675.7937,325.26022 593.89266,337.12002 540.99999,346.50001 C505.90308,352.72201 450.62739,364.81201 407.87499,375.25003 L385.99999,380.25002 L384.12501,538.37503 C382.3584,711.02904 380.12026,763.82504 374.125,777.12504 C368.94632,788.60903 340.50764,816.88502 326,824.625 C319.47954,828.10101 307.8715,832.57308 300.37499,834.62507 C284.16982,839.06907 250.76553,839.55808 234.125,835.25001 C196.41019,825.41405 170.56908,795.15801 167.25001,757.75004 C165.91601,742.71603 166.14999,739.74904 172.875,724.62504 C187.78686,691.08504 222.7232,662.21203 256.62499,655.25004 C271.09419,652.27604 310.64939,653.41503 326.625,657.12502 L332.875,659.00004 L332.875,439.62502 C332.875,287.63101 333.57081,218.19801 335.37501,212.75001 C338.20278,204.21601 334.4916,206.01001 394.74999,187.75001 C450.5929,170.82601 540.79053,146.98101 564.125,143.37501 C602.5231,137.443 675.31648,131.912 713.5,131.50001 L748.5,130.875 L748.5,130.875 Z M748.5,130.875" id="iTunes" stroke="rgb(0,0,0)" stroke-width="1" fill="#444444"></path>
    </g>
</svg>