<?xml version="1.0" encoding="UTF-8" standalone="no"?>
<svg width="201px" height="200px" viewBox="0 0 201 200" version="1.1" xmlns="http://www.w3.org/2000/svg" xmlns:xlink="http://www.w3.org/1999/xlink" xmlns:sketch="http://www.bohemiancoding.com/sketch/ns">
    <title>LinkedIn</title>
    <description>Created with Sketch (http://www.bohemiancoding.com/sketch)</description>
    <defs></defs>
    <g id="Page 1" stroke="none" stroke-width="1" fill="none" fill-rule="evenodd">
        <path d="M82.8806444,80.7221807 L82.8806444,159.65156 L107.40504,159.65156 L107.40504,120.605335 C107.40504,110.310265 109.352259,100.338328 122.117533,100.338328 C134.689081,100.338328 134.869024,112.111232 134.869024,121.269978 L134.869024,159.65156 L159.37198,159.65156 L159.37198,116.357901 C159.37198,95.0977583 154.786864,78.7542871 129.963839,78.7542871 C118.029368,78.7542871 110.025325,85.2988733 106.749586,91.5027153 L106.414967,91.5027153 L106.414967,80.7221807 Z M100.5,0 C155.728474,-2.27373675e-14 200.5,44.771526 200.5,100 C200.5,155.228474 155.728474,200 100.5,200 C45.271526,200 0.5,155.228474 0.5,100 C0.5,44.771526 45.271526,1.51545443e-14 100.5,0 Z M55.2252307,41.4822291 C47.3620791,41.4822291 41.0058594,47.8568261 41.0058594,55.7023661 C41.0058594,63.556329 47.3620791,69.930926 55.2252307,69.930926 C63.0677078,69.930926 69.4423048,63.556329 69.4423048,55.7023661 C69.4423048,47.8568261 63.0677078,41.4822291 55.2252307,41.4822291 Z M42.9530786,80.7221807 L42.9530786,159.65156 L67.4950856,159.65156 L67.4950856,80.7221807 Z M42.9530786,80.7221807" id="LinkedIn" fill="#444444"></path>
    </g>
</svg>