<?xml version="1.0" encoding="UTF-8" standalone="no"?>
<svg width="201px" height="200px" viewBox="0 0 201 200" version="1.1" xmlns="http://www.w3.org/2000/svg" xmlns:xlink="http://www.w3.org/1999/xlink" xmlns:sketch="http://www.bohemiancoding.com/sketch/ns">
    <title>Phone</title>
    <description>Created with Sketch (http://www.bohemiancoding.com/sketch)</description>
    <defs></defs>
    <g id="Page 1" stroke="none" stroke-width="1" fill="none" fill-rule="evenodd">
        <path d="M100.5,0 C45.2714,0 0.5,44.7714 0.5,100 C0.5,155.2286 45.2714,200 100.5,200 C155.7286,200 200.5,155.2286 200.5,100 C200.5,44.7714 155.7286,0 100.5,0 L100.5,0 L100.5,0 Z M56.2624,35.6376 C63.4052,35.6328 63.359,35.5962 67.3248,44.6626 C75.38,63.0776 77.678,69.1418 77.3062,71.0376 C76.8242,73.4956 73.4758,78.4552 69.2,83.0438 C67.0816,85.3172 65.8624,87.2456 65.8624,88.325 C65.8624,89.2736 68.013,93.2916 70.7248,97.4062 C76.6792,106.4406 86.464,116.3992 95.3,122.4188 C102.444,127.2856 113.2718,132.891 116.5624,133.425 C118.5872,133.7536 119.0266,133.4428 122.1624,129.4688 C127.989,122.0846 133.7,116 137.7,116 C140.5286,116 138.2112,115.9566 152.5438,122.9312 C164.0588,128.5346 168.5838,131.0742 168.8438,132.0688 C169.0418,132.826 169.204,136.6522 168.075,140.3064 C165.6978,148.0004 162.423,152.9792 152.9812,159.2002 C145.6982,163.9986 134.9932,164.5376 122.4562,160.969 C110.1278,157.4598 105.3002,155.7534 99.3624,152.7878 C86.6982,145.9974 75.7174,138.1338 66.3374,128.7002 C50.5942,112.7692 39.2036,95.726 33.5062,79.5814 C29.912,69.3966 32.533,59.8328 37.7,50.0002 C43.4666,41.3382 49.697,35.9982 56.2624,35.6376 L56.2624,35.6376 L56.2624,35.6376 Z M56.2624,35.6376" id="Phone" fill="#444444"></path>
    </g>
</svg>