<?xml version="1.0" encoding="UTF-8" standalone="no"?>
<svg width="201px" height="200px" viewBox="0 0 201 200" version="1.1" xmlns="http://www.w3.org/2000/svg" xmlns:xlink="http://www.w3.org/1999/xlink" xmlns:sketch="http://www.bohemiancoding.com/sketch/ns">
    <title>Rdio</title>
    <description>Created with Sketch (http://www.bohemiancoding.com/sketch)</description>
    <defs></defs>
    <g id="Page 1" stroke="none" stroke-width="1" fill="none" fill-rule="evenodd">
        <path d="M100.5,0 C155.728474,-1.51545443e-14 200.5,44.771526 200.5,100 C200.5,155.228474 155.728474,200 100.5,200 C45.271526,200 0.5,155.228474 0.5,100 C0.5,44.771526 45.271526,3.03201907e-14 100.5,0 Z M107.175012,44.7214353 C106.150337,44.3513716 105.364047,43.9684428 104.532349,43.7837894 C96.9691266,42.0916375 89.3937954,41.9607152 81.6716497,42.8862526 C52.0378018,46.4385608 27.211754,72.7259437 30.8563888,106.312434 C32.5159993,121.604614 39.0674121,134.220075 50.873123,143.990058 C65.727129,156.282376 83.0285497,159.659869 101.632382,156.65471 C126.217775,152.683148 144.521168,135.218263 149.36605,111.180777 C150.617001,104.975967 150.501971,98.4956916 151.045337,91.7573551 C152.123743,91.3123706 153.646377,90.7372206 155.125118,90.0644464 C161.265601,87.2711849 166.277731,83.1951876 169.320728,77.0547044 C170.575464,74.5225307 171.276995,71.8526238 169.077047,69.7661914 C160.409687,67.5753239 151.665893,65.622841 143.541143,62.1991848 C135.412608,58.7747719 127.903116,53.8799425 119.53317,49.3074999 L119.53317,53.9382143 C119.53317,68.0566337 119.553603,82.1758098 119.505926,96.294986 C119.499872,98.0348148 119.347003,99.8314018 118.898235,101.503878 C113.856591,120.300688 90.4858237,130.921287 73.0224529,122.402256 C64.3475257,118.170363 59.8976808,109.824633 61.4551266,100.709262 C63.7080497,87.5201643 78.3554558,74.9304332 91.8063984,74.9402713 C96.8820973,74.9440551 101.957796,75.6675333 107.175012,76.074679 Z M107.175012,44.7214353" id="Rdio" fill="#444444"></path>
    </g>
</svg>