<?xml version="1.0" encoding="UTF-8" standalone="no"?>
<svg width="200px" height="200px" viewBox="0 0 200 200" version="1.1" xmlns="http://www.w3.org/2000/svg" xmlns:xlink="http://www.w3.org/1999/xlink" xmlns:sketch="http://www.bohemiancoding.com/sketch/ns">
    <title>Rdio</title>
    <description>Created with Sketch (http://www.bohemiancoding.com/sketch)</description>
    <defs></defs>
    <g id="Page 1" stroke="none" stroke-width="1" fill="none" fill-rule="evenodd">
        <path d="M100,0 C155.228474,-1.51545443e-14 200,44.771526 200,100 C200,155.228474 155.228474,200 100,200 C44.771526,200 1.5158245e-14,155.228474 0,100 C0,44.771526 44.771526,3.03201907e-14 100,0 Z M106.675012,44.7214353 C105.650337,44.3513716 104.864047,43.9684428 104.032349,43.7837894 C96.4691266,42.0916375 88.8937954,41.9607152 81.1716497,42.8862526 C51.5378018,46.4385608 26.711754,72.7259437 30.3563888,106.312434 C32.0159993,121.604614 38.5674121,134.220075 50.373123,143.990058 C65.227129,156.282376 82.5285497,159.659869 101.132382,156.65471 C125.717775,152.683148 144.021168,135.218263 148.86605,111.180777 C150.117001,104.975967 150.001971,98.4956916 150.545337,91.7573551 C151.623743,91.3123706 153.146377,90.7372206 154.625118,90.0644464 C160.765601,87.2711849 165.777731,83.1951876 168.820728,77.0547044 C170.075464,74.5225307 170.776995,71.8526238 168.577047,69.7661914 C159.909687,67.5753239 151.165893,65.622841 143.041143,62.1991848 C134.912608,58.7747719 127.403116,53.8799425 119.03317,49.3074999 L119.03317,53.9382143 C119.03317,68.0566337 119.053603,82.1758098 119.005926,96.294986 C118.999872,98.0348148 118.847003,99.8314018 118.398235,101.503878 C113.356591,120.300688 89.9858237,130.921287 72.5224529,122.402256 C63.8475257,118.170363 59.3976808,109.824633 60.9551266,100.709262 C63.2080497,87.5201643 77.8554558,74.9304332 91.3063984,74.9402713 C96.3820973,74.9440551 101.457796,75.6675333 106.675012,76.074679 Z M106.675012,44.7214353" id="Rdio" fill="#444444"></path>
    </g>
</svg>