<?xml version="1.0" encoding="UTF-8" standalone="no"?>
<svg width="201px" height="200px" viewBox="0 0 201 200" version="1.1" xmlns="http://www.w3.org/2000/svg" xmlns:xlink="http://www.w3.org/1999/xlink" xmlns:sketch="http://www.bohemiancoding.com/sketch/ns">
    <title>Soundcloud</title>
    <description>Created with Sketch (http://www.bohemiancoding.com/sketch)</description>
    <defs></defs>
    <g id="Page 1" stroke="none" stroke-width="1" fill="none" fill-rule="evenodd">
        <path d="M0.5,100 C0.5,155.228474 45.271526,200 100.5,200 C155.728474,200 200.5,155.228474 200.5,100 C200.5,44.771526 155.728474,-2.2737368e-14 100.5,0 C45.271526,1.5158245e-14 0.5,44.771526 0.5,100 Z M122.36875,67.11875 C125.11243,67.52029 127.115732,68.019714 129.46875,68.89375 C140.419006,72.961262 148.480598,82.70959 150.4375,94.25 L150.8625,96.7375 L151.9,96.38125 C154.979726,95.321676 159.613938,95.160588 162.775,96.00625 C166.387502,96.972682 170.283506,99.521682 172.60625,102.4375 C174.07301,104.278782 175.548706,107.198896 176.15,109.45625 C176.782126,111.82938 176.777814,116.509224 176.14375,118.86875 C174.378724,125.436902 169.437966,130.407338 162.7625,132.33125 L161.2375,132.76875 L133.5,132.8125 C118.204714,132.837174 106.132269,132.815416 106.132269,132.815416 C105.027137,132.813805 104.13125,131.9248 104.13125,130.814274 L104.13125,100.86875 L104.13125,70.25625 L104.70625,69.71875 C105.384176,69.08547 108.5973,67.995958 111.51875,67.40625 C113.11206,67.084634 115.43499,66.899808 117.675,66.875 C119.41723,66.855706 121.113758,66.93508 122.36875,67.11875 Z M102.631348,73.2285157 C102.62413,74.7869314 102.767898,86.047144 102.9875,96.5 C102.9875,96.5 103.38661,110.38335 103.3875,115.50625 C103.38839,120.62915 103.198242,123.299999 103.198242,123.299999 C102.929043,127.825625 102.158203,132.837039 100.35,132.837035 C98.5417969,132.837033 97.8003776,127.661893 97.5620117,123.299999 C97.5620117,123.299999 97.325,120.643311 97.325,115.40625 C97.325,110.169189 97.75,94.0875 97.75,94.0875 C98.04077,79.486628 98.1621094,74.8950196 98.1621094,73.2285156 C98.1621094,71.6643066 99.369756,71.267018 100.35,71.2625 C101.112934,71.25898 102.638878,71.6027832 102.631348,73.2285157 Z M95.9375,76.03125 C96.1943357,76.7885742 96.35,95.76875 96.35,95.76875 C96.35,95.76875 96.538942,111.177002 96.5369871,115.518675 C96.5350321,119.860349 96.3375,123.51875 96.3375,123.51875 C95.880516,132.156948 95.9374998,130.927367 95.7473142,131.549315 C95.6366365,131.911256 94.9862061,132.789038 93.9158209,132.761717 C92.8454357,132.734396 92.4061115,131.830104 92.2399902,131.549315 C91.9278564,131.021728 91.705734,127.1525 91.525,123.0875 C91.213908,116.090512 91.217736,114.659102 91.5375,96.2125 C91.726742,85.295918 91.751831,76.8926513 92.0625,76.11875 C92.373169,75.3448485 93.1466065,74.8166013 94.1865235,74.8424072 C95.2264405,74.8682131 95.6806643,75.2739255 95.9375,76.03125 Z M74.175,79.39375 C74.361176,79.377602 74.581872,79.4125 74.85,79.4125 C76.565318,79.4125 76.400962,77.974038 77.025,97.85625 L77.56875,115.3375 L77.025,123.3875 C76.725716,127.816134 76.39349,131.66709 76.28125,131.94375 C75.951218,132.75724 74.93405,133.077404 74.05,132.65 C73.81995,132.538778 73.541494,132.221324 73.43125,131.94375 C73.321004,131.666172 73.010792,127.841304 72.74375,123.44375 L72.2625,115.45 L72.75,97.9125 C73.217934,81.078006 73.169654,79.480948 74.175,79.39375 L74.175,79.39375 L74.175,79.39375 Z M81.15625,79.9735107 C82.5151124,79.9731912 82.830842,80.5971494 82.9125,81.075 C83.0812499,82.0624999 83.41875,98.2875 83.41875,98.2875 L83.925,115.5 L83.4,123.5625 C83.110928,127.999536 82.814158,131.767286 82.74375,131.93125 C82.580048,132.312464 81.61729,132.885002 81.15625,132.875 C80.961372,132.87078 80.575782,132.743634 80.3,132.59375 C80.02422,132.443868 79.707808,132.075874 79.59375,131.78125 C79.479688,131.486628 79.197128,127.675422 78.9625,123.30625 L78.53125,115.3625 L78.95625,98.44375 C79.224198,87.80619 79.4477539,81.7107667 79.59375,80.99375 C79.6690987,80.6236972 79.7973876,79.9738302 81.15625,79.9735107 Z M68.56875,80.4875 C69.160134,80.466542 69.615584,80.748122 69.85625,81.29375 C70.069778,81.777858 70.25161,85.59139 70.69375,98.80625 L71.2625,115.7 L70.7125,122.99375 C70.41059,127.005958 70.159996,130.62094 70.15625,131.025 C70.15113,131.575498 70.007982,131.898272 69.5875,132.31875 C68.966922,132.93933 68.577852,132.996596 67.825,132.5875 C67.54789,132.436918 67.271556,132.132082 67.2125,131.90625 C67.153442,131.68042 66.86803,127.870794 66.58125,123.4375 L66.0625,115.375 L66.58125,98.45 C67.142466,80.26863 67.098468,80.81078 68.1375,80.55 C68.286892,80.512506 68.432276,80.492336 68.56875,80.4875 L68.56875,80.4875 L68.56875,80.4875 Z M87.65,81.10625 C87.854512,81.10852 88.050632,81.142264 88.23125,81.2125 C89.42479,81.67662 89.35143,80.87701 89.8625,98.6625 L90.33125,114.93125 L89.93125,122.225 C89.427846,131.429976 89.405712,131.636078 88.89375,132.225 C88.43743,132.749912 87.38685,132.977056 86.71875,132.69375 C85.716894,132.268914 85.690426,132.091424 85.25,123.45 L84.8375,115.35625 L85.24375,98.85625 C85.633026,83.062962 85.66794,82.333344 86.03125,81.84375 C86.377064,81.377738 87.036462,81.09944 87.65,81.10625 L87.65,81.10625 L87.65,81.10625 Z M62.43125,83.20625 C62.851508,83.221954 63.267154,83.413174 63.5,83.7875 C63.70742,84.12095 63.904442,87.686534 64.3875,99.80625 L65.0125,115.39375 L64.36875,123.6875 C63.868924,130.175868 63.668128,132.054156 63.4375,132.325 C63.06834,132.758536 62.318666,132.921364 61.75,132.6875 C61.510898,132.589168 61.244058,132.30915 61.15625,132.06875 C61.068444,131.82835 60.748918,127.983874 60.45,123.525 L59.90625,115.41875 L60.45,99.9125 C60.749202,91.384496 61.069304,84.213866 61.15625,83.975 C61.345564,83.454886 61.890918,83.18606 62.43125,83.20625 L62.43125,83.20625 L62.43125,83.20625 Z M57.175,89.54375 C57.391316,89.879322 57.60224,92.800056 58.13125,102.65 L58.8125,115.33125 L58.13125,123.675 C57.459142,131.930816 57.175,132.157595 56.975,132.45 C56.775,132.742405 56.6748048,132.88125 56.23125,132.88125 C55.7876952,132.881249 55.614624,132.693514 55.447937,132.449999 C55.28125,132.206484 54.997092,132.00275 54.39375,123.71875 L53.7875,115.425 L54.39375,102.70625 C54.877346,92.509394 55.05154,89.900578 55.28125,89.55 C55.479872,89.246864 55.856804,89.094822 56.23125,89.09375 C56.605696,89.092678 56.980312,89.241746 57.175,89.54375 Z M44.89375,98.2625 C44.9586,98.431494 45.357704,102.359504 45.78125,106.9875 L46.55,115.4 L45.775,123.6125 C45.056806,131.215646 44.967532,131.851472 44.59375,132.1625 C44.371696,132.347272 44.2691039,132.444215 44.0375,132.444215 C43.8058962,132.444215 43.710774,132.347272 43.4875,132.1625 C43.107394,131.847938 43.03927,131.302078 42.4,123.5875 L41.7125,115.34375 L42.3875,106.96875 C42.758868,102.361304 43.120408,98.449838 43.1875,98.275 C43.309824,97.956232 43.672334,97.796028 44.0375,97.79375 C44.402666,97.791472 44.772012,97.945258 44.89375,98.2625 Z M38.01875,98.3625 C38.230142,98.34525 38.43774,98.400238 38.58125,98.54375 C38.771996,98.73449 39.068444,101.040248 39.61875,106.58125 C40.04329,110.855936 40.393662,114.808624 40.39375,115.3625 C40.393942,117.140868 38.866608,131.200222 38.64375,131.46875 C38.297564,131.885878 37.530998,131.78329 37.325,131.29375 C37.225032,131.056186 36.826692,127.364352 36.44375,123.0875 L35.75,115.3125 L36.44375,107.34375 C36.824214,102.962678 37.177724,99.185958 37.23125,98.95 C37.307142,98.615442 37.666428,98.39125 38.01875,98.3625 L38.01875,98.3625 L38.01875,98.3625 Z M49.965271,98.8060913 C50.7421265,98.8001158 50.9137094,99.3116212 51.036499,99.5375 C51.2744141,99.9751587 51.463256,102.51057 51.91875,107.3875 L52.65625,115.3125 L52,122.9 C51.21709,131.909932 51.20274,132.028508 50.83125,132.4 C50.435696,132.795552 49.738898,132.760978 49.35,132.33125 C49.084348,132.037708 48.914924,130.544986 48.375,123.68125 L47.71875,115.38125 L48.2796631,107.3875 C48.5456258,104.176106 48.947998,99.7172119 49.03125,99.5375 C49.114502,99.3577881 49.1884155,98.8120669 49.965271,98.8060913 Z M32.2875,101.09375 C32.758466,101.243224 32.69588,100.886722 33.6875,108.98125 L34.4875,115.50625 L33.60625,122.30625 C33.024008,126.807532 32.644682,129.158802 32.48125,129.2625 C32.11631,129.49405 31.83044,129.457786 31.575,129.15 C31.44724,128.996058 31.018912,125.912646 30.59375,122.1125 L29.83125,115.35 L30.59375,108.4375 C31.260306,102.358384 31.42934,101.12496 31.95625,101.04375 C32.053826,101.028712 32.159988,101.053278 32.2875,101.09375 Z M27.79375,110.99375 L28.475,115.31875 L27.80625,119.5375 C27.440154,121.85962 27.104336,123.86802 27.05625,124 C26.901634,124.424348 26.005186,124.282012 25.83125,123.80625 C25.744396,123.568686 25.432172,121.561022 25.14375,119.34375 L24.625,115.3125 L25.1875,111.04375 C25.72962,106.963608 25.9342,106.19375 26.475,106.19375 C26.965972,106.19375 27.126544,106.768356 27.79375,110.99375 Z M27.79375,110.99375" id="Soundcloud" fill="#444444"></path>
    </g>
</svg>