<?xml version="1.0" encoding="UTF-8" standalone="no"?>
<svg width="1001px" height="1002px" viewBox="0 0 1001 1002" version="1.1" xmlns="http://www.w3.org/2000/svg" xmlns:xlink="http://www.w3.org/1999/xlink" xmlns:sketch="http://www.bohemiancoding.com/sketch/ns">
    <title>Tumblr</title>
    <description>Created with Sketch (http://www.bohemiancoding.com/sketch)</description>
    <defs></defs>
    <g id="Page 1" fill="#D8D8D8" fill-rule="evenodd">
        <path d="M500,0.5 C223.85762,0.5 0,224.35763 0,500.5 C0,776.64237 223.85762,1000.5 500,1000.5 C776.14238,1000.5 1000,776.64237 1000,500.5 C1000,224.35763 776.14238,0.5 500,0.5 L500,0.5 L500,0.5 Z M418.53125,119.5625 L472,120.5 L525.46875,121.4375 L526.375,218.15625 L527.28125,314.875 L616.21875,314.875 L705.1875,314.875 L705.1875,372.5625 L705.1875,430.28125 L616.09375,432 C567.09103,432.94239 526.56751,434.32619 526.03125,435.0625 C525.49494,435.7988 525.91363,498.02912 526.96875,573.34375 C529.11361,726.43134 528.55341,723.14654 554.46875,740.96875 C574.55894,754.78487 585.65516,757.59538 619.59375,757.53125 C654.46678,757.46555 681.84457,750.43685 711.6875,733.90625 C719.97602,729.31507 727.64865,726.4299 728.71875,727.5 C729.78882,728.57004 731.21726,754.41084 731.90625,784.90625 L733.15625,840.34375 L718.3125,846.65625 C686.33226,860.24013 654.42202,870.41192 629.875,874.84375 C596.97539,880.78352 514.85137,880.58276 486.84375,874.5 C437.94349,863.87999 385.02077,827.82943 365.53125,791.84375 C360.60639,782.75049 354.89013,766.07844 352.8125,754.78125 C350.69681,743.27717 348.05091,668.35249 346.8125,584.46875 L344.625,434.6875 L304.09375,434.6875 L263.5625,434.6875 L263.6875,380.75 L263.78125,326.84375 L293.625,312.5625 C329.37928,295.45191 356.70402,271.95519 377.90625,240.0625 C394.43044,215.20654 412.23969,167.52076 416.15625,137.625 L418.53125,119.5625 L418.53125,119.5625 Z M418.53125,119.5625" id="Tumblr" fill="#444444"></path>
    </g>
</svg>