<?xml version="1.0" encoding="UTF-8" standalone="no"?>
<svg width="200px" height="200px" viewBox="0 0 200 200" version="1.1" xmlns="http://www.w3.org/2000/svg" xmlns:xlink="http://www.w3.org/1999/xlink" xmlns:sketch="http://www.bohemiancoding.com/sketch/ns">
    <title>Twitter</title>
    <description>Created with Sketch (http://www.bohemiancoding.com/sketch)</description>
    <defs></defs>
    <g id="Page 1" stroke="none" stroke-width="1" fill="none" fill-rule="evenodd">
        <path d="M100,0 C44.772,0 0,44.772 0,100 C0,155.228 44.772,200 100,200 C155.228,200 200,155.228 200,100 C200,44.772 155.228,0 100,0 L100,0 L100,0 Z M129.124,45.252 C130.44,45.284 131.716,45.504 133,45.752 C138.108,46.74 144.36,49.58 147.124,52.252 L149.372,54.376 L153.748,53.252 C156.192,52.62 159.932,51.344 162.124,50.376 C164.316,49.408 166.316,48.692 166.5,48.876 C167.264,49.64 162.844,55.86 159,59.376 L154.876,63.128 L158.5,62.628 C160.528,62.36 164.052,61.508 166.252,60.752 C168.636,59.932 170.252,59.68 170.252,60.128 C170.252,60.54 167.352,63.692 163.876,67.128 L157.628,73.376 L157.128,80.5 C155.584,102.48 147.584,120.492 132.752,135.5 C121.1,147.292 107.66,154.46 91.628,157.5 C84.344,158.884 71.124,159.34 64.876,158.5 C57.22,157.472 47.708,154.6 39.876,150.876 L32.876,147.5 L40.252,147 C49.044,146.448 55.112,144.988 62.128,141.752 C67.312,139.36 74.164,135.164 73.628,134.628 C73.468,134.468 71.452,133.928 69.128,133.504 C60.808,131.98 53.048,126.436 49.128,119.004 L47.252,115.38 L53.004,115.004 C58.772,114.644 60.852,113.996 58.38,113.252 C50.908,111.012 43.392,104.808 40.004,98.128 C38.64,95.436 36.628,88.168 36.628,85.88 C36.628,85.744 37.32,86.072 38.128,86.504 C39.692,87.34 48.984,89.396 49.38,89.004 C49.508,88.876 47.768,86.944 45.628,84.756 C43.492,82.568 40.872,78.912 39.752,76.632 C37.912,72.876 37.756,71.796 37.752,65.008 C37.748,59.244 38.056,56.708 39.128,54.008 L40.504,50.508 L43.38,53.756 C56.504,68.472 75.676,78.064 96.628,80.38 L100.628,80.756 L100.38,75.132 C100.1,68.28 101.392,63.388 104.88,58.132 C110.208,50.092 119.904,45.04 129.124,45.252 L129.124,45.252 L129.124,45.252 Z M129.124,45.252" id="Twitter" fill="#444444"></path>
    </g>
</svg>