<?xml version="1.0" encoding="UTF-8" standalone="no"?>
<svg width="1000px" height="1000px" viewBox="0 0 1000 1000" version="1.1" xmlns="http://www.w3.org/2000/svg" xmlns:xlink="http://www.w3.org/1999/xlink" xmlns:sketch="http://www.bohemiancoding.com/sketch/ns">
    <title>500px</title>
    <description>Created with Sketch (http://www.bohemiancoding.com/sketch)</description>
    <defs></defs>
    <g id="Page 1" fill="#D8D8D8" fill-rule="evenodd">
        <g id="500px" fill="#000000">
            <g id="Page 1" fill="#D8D8D8">
                <g id="500px" fill="#000000">
                    <g id="Page 1" fill="#D8D8D8">
                        <g id="svg2" fill="#000000">
                            <path d="M500,0 C223.85763,0 0,223.85763 0,500 C0,776.14237 223.85763,1000 500,1000 C776.14237,1000 1000,776.14237 1000,500 C1000,223.85763 776.14237,-1.2079227e-13 500,0 L500,0 L500,0 Z M150.4375,309.5 L254.34375,309.5 L358.28125,309.5 L358.28125,340.5625 L358.28125,371.625 L281.28125,371.625 C208.36305,371.625 204.26907,371.67078 204.03125,372.46875 C203.32281,374.84552 189.2941,456.15095 189.5,456.6875 C189.89818,457.72515 190.57551,457.42996 193.5,454.90625 C211.47117,439.39788 225.18347,433.10383 247.5625,430.0625 C255.68938,428.95805 271.61275,428.95258 279.8125,430.0625 C295.89184,432.239 306.94062,435.85145 319.375,442.96875 C339.0487,454.22975 351.95955,467.76398 363.09375,488.78125 C364.73338,491.87627 366.24442,494.40625 366.4375,494.40625 C366.63059,494.40625 367.48962,492.62213 368.375,490.4375 C370.8501,484.33034 376.70968,472.98807 380,467.90625 C396.70801,442.10113 423.84119,423.70637 455.09375,416.96875 C466.47797,414.51447 487.66034,413.52742 499.84375,414.90625 C527.78419,418.06834 554.99068,430.76324 581.4375,452.9375 C591.0173,460.96965 606.4059,476.86331 621.40625,494.28125 C625.10496,498.57605 628.37067,502.09375 628.6875,502.09375 C629.00434,502.09375 632.33567,498.50972 636.09375,494.125 C646.79052,481.64454 652.27242,475.71487 663.96875,464 C680.6365,447.30596 693.3389,437.90204 711.15625,429 C730.55254,419.30909 745.19214,415.38698 765.125,414.53125 C784.56887,413.6965 800.82007,415.75774 816.3125,421.03125 C859.38402,435.69245 888.88268,472.74017 897.03125,522.375 C898.362,530.48072 899.12497,549.79425 898.5,559.625 C895.5652,605.79332 874.67236,644.60502 840.71875,666.90625 C827.24908,675.75334 809.98796,682.02759 791.28125,684.90625 C783.71073,686.07124 760.39318,686.07787 752.375,684.90625 C730.75544,681.74711 709.27204,672.83894 687.625,658.0625 C672.45589,647.708 653.44604,630.19954 634.90625,609.53125 L628.6875,602.625 L625.5625,605.90625 C612.47611,619.65873 591.34542,641.03828 587.3125,644.59375 C576.70434,653.94592 564.75658,662.54898 554.25,668.4375 C542.37385,675.09364 527.28226,680.85156 515.125,683.34375 C495.16378,687.43573 469.58838,686.76101 450.375,681.65625 C438.81552,678.58501 425.27177,672.33558 414.0625,664.875 C393.68936,651.31519 379.10802,633.62167 369.1875,610.4375 L367.84375,607.34375 L364.0625,614.6875 C348.46118,644.93486 324.85895,666.48477 293.75,678.9375 C279.48863,684.64624 266.86192,687.40546 250.40625,688.40625 C242.85008,688.86579 241.20425,688.90082 234.0625,688.59375 C194.0101,686.87163 161.43624,675.185 138.5,654.34375 C121.78454,639.15506 110.39308,619.98822 105.375,598.625 C103.88613,592.28652 102.73247,584.2346 102.25,576.84375 L101.875,571.4375 L139.3125,571.4375 L176.75,571.4375 L176.96875,572.5 C177.09218,573.09581 177.68384,575.95435 178.25,578.84375 C183.029,603.23324 198.84748,619.98718 222.75,625.90625 C227.58933,627.10464 242.68063,627.68515 247.84375,626.875 C262.90653,624.51148 277.43922,615.94672 286.78125,603.9375 C294.39788,594.14628 299.40211,582.86443 301.75,570.125 C302.94167,563.6591 303.17821,550.71805 302.25,543.6875 C299.11054,519.90807 287.62101,502.33939 268.59375,492.21875 C260.06272,487.68107 250.89909,485.71649 238.09375,485.71875 C217.24575,485.72275 205.60708,490.06742 192.40625,502.6875 C189.85925,505.12245 186.33694,508.89408 184.59375,511.09375 L181.4375,515.09375 L151.0625,515.03125 C134.35636,514.99665 119.15426,514.85149 117.28125,514.6875 L113.875,514.375 L123.1875,462.125 C128.30826,433.39372 136.4065,388.0265 141.1875,361.28125 C145.9685,334.53599 150.00762,311.95436 150.15625,311.09375 L150.4375,309.5 L150.4375,309.5 Z M483.9375,487.65625 C471.03196,487.65625 460.67008,491.00254 451.78125,498.03125 C441.01429,506.54511 432.04014,521.80381 428.71875,537.3125 C427.47453,543.12215 427.5214,560.31147 428.78125,566.125 C430.4895,574.00744 434.17803,582.81611 438.375,589 C441.21361,593.18245 447.36668,599.39261 451.5,602.25 C458.04025,606.77124 465.46913,609.66306 474.3125,611.15625 C478.72745,611.90173 490.66149,612.03138 495.25,611.375 C513.34772,608.78613 532.89419,599.30087 553.03125,583.3125 C557.87736,579.46481 580.79498,556.92932 583.40625,553.4375 L584.8125,551.5625 L571.25,538.21875 C553.94063,521.17237 544.18323,512.92079 531.09375,504.34375 C513.30335,492.68639 499.06875,487.65625 483.9375,487.65625 L483.9375,487.65625 L483.9375,487.65625 Z M770.59375,487.75 C764.77122,487.80287 758.61529,488.19864 756.21875,488.84375 C737.16124,493.97378 718.98087,505.36862 698.96875,524.71875 C691.35019,532.0852 673.15625,551.24377 673.15625,551.90625 C673.15625,553.76977 696.51968,577.1271 705.90625,584.65625 C724.70932,599.73846 744.82384,609.43779 761.1875,611.3125 C767.42462,612.02706 779.98901,611.94836 784.53125,611.15625 C790.53573,610.10916 796.0085,608.24828 801.46875,605.4375 C805.5721,603.32518 807.04059,602.21741 811.40625,597.90625 C820.76292,588.66639 826.47949,577.75129 829,564.21875 C830.31241,557.17225 830.18786,542.98585 828.75,536.28125 C826.65962,526.53437 823.83651,519.71877 818.71875,512.03125 C809.64708,498.4046 795.69625,489.79636 779.84375,488.0625 C777.46767,487.80261 774.08727,487.71828 770.59375,487.75 L770.59375,487.75 L770.59375,487.75 Z M770.59375,487.75" id="path2986" fill="#808080"></path>
                        </g>
                    </g>
                </g>
            </g>
        </g>
    </g>
</svg>