<?xml version="1.0" encoding="UTF-8" standalone="no"?>
<svg width="200px" height="200px" viewBox="0 0 200 200" version="1.1" xmlns="http://www.w3.org/2000/svg" xmlns:xlink="http://www.w3.org/1999/xlink" xmlns:sketch="http://www.bohemiancoding.com/sketch/ns">
    <title>500px</title>
    <description>Created with Sketch (http://www.bohemiancoding.com/sketch)</description>
    <defs></defs>
    <g id="Page-1" stroke="none" stroke-width="1" fill="none" fill-rule="evenodd" sketch:type="MSPage">
        <path d="M100,0 C44.771526,0 0,44.771526 0,100 C0,155.228474 44.771526,200 100,200 C155.228474,200 200,155.228474 200,100 C200,44.771526 155.228474,-2.4158454e-14 100,0 Z M30.0875,61.9 L50.86875,61.9 L71.65625,61.9 L71.65625,68.1125 L71.65625,74.325 L56.25625,74.325 C41.67261,74.325 40.853814,74.334156 40.80625,74.49375 C40.664562,74.969104 37.85882,91.23019 37.9,91.3375 C37.979636,91.54503 38.115102,91.485992 38.7,90.98125 C42.294234,87.879576 45.036694,86.620766 49.5125,86.0125 C51.137876,85.79161 54.32255,85.790516 55.9625,86.0125 C59.178368,86.4478 61.388124,87.17029 63.875,88.59375 C67.80974,90.84595 70.39191,93.552796 72.61875,97.75625 C72.946676,98.375254 73.248884,98.88125 73.2875,98.88125 C73.326118,98.88125 73.497924,98.524426 73.675,98.0875 C74.17002,96.866068 75.341936,94.597614 76,93.58125 C79.341602,88.420226 84.768238,84.741274 91.01875,83.39375 C93.295594,82.902894 97.532068,82.705484 99.96875,82.98125 C105.556838,83.613668 110.998136,86.152648 116.2875,90.5875 C118.20346,92.19393 121.28118,95.372662 124.28125,98.85625 C125.020992,99.71521 125.674134,100.41875 125.7375,100.41875 C125.800868,100.41875 126.467134,99.701944 127.21875,98.825 C129.358104,96.328908 130.454484,95.142974 132.79375,92.8 C136.1273,89.461192 138.66778,87.580408 142.23125,85.8 C146.110508,83.861818 149.038428,83.077396 153.025,82.90625 C156.913774,82.7393 160.164014,83.151548 163.2625,84.20625 C171.876804,87.13849 177.776536,94.548034 179.40625,104.475 C179.6724,106.096144 179.824994,109.95885 179.7,111.925 C179.11304,121.158664 174.934472,128.921004 168.14375,133.38125 C165.449816,135.150668 161.997592,136.405518 158.25625,136.98125 C156.742146,137.214248 152.078636,137.215574 150.475,136.98125 C146.151088,136.349422 141.854408,134.567788 137.525,131.6125 C134.491178,129.5416 130.689208,126.039908 126.98125,121.90625 L125.7375,120.525 L125.1125,121.18125 C122.495222,123.931746 118.269084,128.207656 117.4625,128.91875 C115.340868,130.789184 112.951316,132.509796 110.85,133.6875 C108.47477,135.018728 105.456452,136.170312 103.025,136.66875 C99.032756,137.487146 93.917676,137.352202 90.075,136.33125 C87.763104,135.717002 85.054354,134.467116 82.8125,132.975 C78.737872,130.263038 75.821604,126.724334 73.8375,122.0875 L73.56875,121.46875 L72.8125,122.9375 C69.692236,128.986972 64.97179,133.296954 58.75,135.7875 C55.897726,136.929248 53.372384,137.481092 50.08125,137.68125 C48.570016,137.773158 48.24085,137.780164 46.8125,137.71875 C38.80202,137.374326 32.287248,135.037 27.7,130.86875 C24.356908,127.831012 22.078616,123.997644 21.075,119.725 C20.777226,118.457304 20.546494,116.84692 20.45,115.36875 L20.375,114.2875 L27.8625,114.2875 L35.35,114.2875 L35.39375,114.5 C35.418436,114.619162 35.536768,115.19087 35.65,115.76875 C36.6058,120.646648 39.769496,123.997436 44.55,125.18125 C45.517866,125.420928 48.536126,125.53703 49.56875,125.375 C52.581306,124.902296 55.487844,123.189344 57.35625,120.7875 C58.879576,118.829256 59.880422,116.572886 60.35,114.025 C60.588334,112.73182 60.635642,110.14361 60.45,108.7375 C59.822108,103.981614 57.524202,100.467878 53.71875,98.44375 C52.012544,97.536214 50.179818,97.143298 47.61875,97.14375 C43.44915,97.14455 41.121416,98.013484 38.48125,100.5375 C37.97185,101.02449 37.267388,101.778816 36.91875,102.21875 L36.2875,103.01875 L30.2125,103.00625 C26.871272,102.99933 23.830852,102.970298 23.45625,102.9375 L22.775,102.875 L24.6375,92.425 C25.661652,86.678744 27.2813,77.6053 28.2375,72.25625 C29.1937,66.907198 30.001524,62.390872 30.03125,62.21875 L30.0875,61.9 Z M96.7875,97.53125 C94.206392,97.53125 92.134016,98.200508 90.35625,99.60625 C88.202858,101.309022 86.408028,104.360762 85.74375,107.4625 C85.494906,108.62443 85.50428,112.062294 85.75625,113.225 C86.0979,114.801488 86.835606,116.563222 87.675,117.8 C88.242722,118.63649 89.473336,119.878522 90.3,120.45 C91.60805,121.354248 93.093826,121.932612 94.8625,122.23125 C95.74549,122.380346 98.132298,122.406276 99.05,122.275 C102.669544,121.757226 106.578838,119.860174 110.60625,116.6625 C111.575472,115.892962 116.158996,111.385864 116.68125,110.6875 L116.9625,110.3125 L114.25,107.64375 C110.788126,104.234474 108.836646,102.584158 106.21875,100.86875 C102.66067,98.537278 99.81375,97.53125 96.7875,97.53125 L96.7875,97.53125 L96.7875,97.53125 Z M154.11875,97.55 C152.954244,97.560574 151.723058,97.639728 151.24375,97.76875 C147.432248,98.794756 143.796174,101.073724 139.79375,104.94375 C138.270038,106.41704 134.63125,110.248754 134.63125,110.38125 C134.63125,110.753954 139.303936,115.42542 141.18125,116.93125 C144.941864,119.947692 148.964768,121.887558 152.2375,122.2625 C153.484924,122.405412 155.997802,122.389672 156.90625,122.23125 C158.107146,122.021832 159.2017,121.649656 160.29375,121.0875 C161.11442,120.665036 161.408118,120.443482 162.28125,119.58125 C164.152584,117.733278 165.295898,115.550258 165.8,112.84375 C166.062482,111.43445 166.037572,108.59717 165.75,107.25625 C165.331924,105.306874 164.767302,103.943754 163.74375,102.40625 C161.929416,99.68092 159.13925,97.959272 155.96875,97.6125 C155.493534,97.560522 154.817454,97.543656 154.11875,97.55 L154.11875,97.55 L154.11875,97.55 Z" id="500px" fill="#808080" sketch:type="MSShapeGroup"></path>
    </g>
</svg>