<?xml version="1.0" encoding="UTF-8" standalone="no"?>
<svg width="200px" height="200px" viewBox="0 0 200 200" version="1.1" xmlns="http://www.w3.org/2000/svg" xmlns:xlink="http://www.w3.org/1999/xlink" xmlns:sketch="http://www.bohemiancoding.com/sketch/ns">
    <title>Behance</title>
    <description>Created with Sketch (http://www.bohemiancoding.com/sketch)</description>
    <defs></defs>
    <g id="Page-1" stroke="none" stroke-width="1" fill="none" fill-rule="evenodd" sketch:type="MSPage">
        <path d="M100,0 C44.771526,1.51545443e-14 0,44.771526 0,100 C-7.5791226e-15,155.228474 44.771526,200 100,200 C155.228474,200 200,155.228474 200,100 C200,44.771526 155.228474,-2.27373675e-14 100,0 Z M69.2472346,55.2224544 C73.5458197,55.2224544 77.427862,55.5946115 80.9753044,56.3628257 C84.5022611,57.1105542 87.5136607,58.3567683 90.0573032,60.0707395 C92.5633886,61.7847107 94.5231883,64.0586247 95.9264596,66.9300386 C97.295588,69.7536525 97.9852736,73.2942663 97.9852736,77.48018 C97.9852736,82.004108 96.9575737,85.7837218 94.902174,88.8087785 C92.8331171,91.8270067 89.790989,94.3023635 85.7279895,96.2246061 C91.2625459,97.815663 95.3596882,100.615377 98.0774593,104.596434 C100.808888,108.608219 102.143873,113.40529 102.143873,119.032032 C102.143873,123.590102 101.269816,127.516531 99.5285305,130.818144 C97.7667593,134.157315 95.3699311,136.868258 92.4165743,138.961215 C89.4393176,141.067829 86.0182038,142.6145 82.1873757,143.621714 C78.3975191,144.628928 74.4642624,145.134242 70.4354058,145.134242 L26.8554688,145.134242 L26.8554688,55.2224544 L69.2472346,55.2224544 L69.2472346,55.2224544 Z M67.7790919,129.824587 C69.7320631,129.824587 71.58602,129.650459 73.3307197,129.257816 C75.0993195,128.872002 76.6698907,128.25743 77.9946334,127.349231 C79.3193761,126.478588 80.4153616,125.283588 81.2108901,123.760817 C82.0132472,122.255117 82.3956471,120.302146 82.3956471,117.932632 C82.3956471,113.299447 81.0913901,110.01149 78.4999476,108.010719 C75.9016765,106.044091 72.436177,105.064191 68.175149,105.064191 L46.6514947,105.064191 L46.6514947,129.824587 L67.7790919,129.824587 L67.7790919,129.824587 Z M66.6865206,91.5470353 C70.1929916,91.5470353 73.0985483,90.717364 75.3963623,89.0272928 C77.6736906,87.3645359 78.779919,84.6194505 78.779919,80.8500796 C78.779919,78.7571227 78.4111762,77.0294944 77.6736906,75.6876803 C76.912305,74.3458662 75.9016765,73.2942663 74.6247338,72.560195 C73.358034,71.7953951 71.9274485,71.2695951 70.2646916,70.9827952 C68.6360775,70.6618524 66.9255206,70.5389381 65.1739922,70.5389381 L46.6514947,70.5389381 L46.6514947,91.5470353 L66.6865206,91.5470353 L66.6865206,91.5470353 Z M130.366355,129.52413 C133.043155,132.139473 136.914954,133.453973 141.930539,133.453973 C145.536024,133.453973 148.653267,132.545773 151.268609,130.725959 C153.860052,128.909559 155.437452,126.970245 156.045194,124.955817 L171.795292,124.955817 C169.265307,132.791601 165.424236,138.387615 160.183308,141.7541 C155.007252,145.134242 148.690824,146.820899 141.333039,146.820899 C136.204783,146.820899 131.588669,145.991228 127.443727,144.355785 C123.305613,142.699857 119.843528,140.381557 116.931143,137.356501 C114.093871,134.317787 111.891657,130.725959 110.321086,126.505902 C108.767586,122.309746 107.982301,117.662903 107.982301,112.630247 C107.982301,107.761476 108.798315,103.213648 110.385958,99.0072486 C112.011157,94.7940206 114.254343,91.1543925 117.204285,88.0986072 C120.164471,85.032579 123.670942,82.6118508 127.754427,80.8398367 C131.841326,79.0780655 136.344769,78.1903514 141.333039,78.1903514 C146.840281,78.1903514 151.664666,79.2487798 155.799366,81.4100224 C159.920408,83.5371221 163.297136,86.4256074 165.95345,90.0413355 C168.60635,93.6434065 170.49445,97.7678631 171.675792,102.397634 C172.843478,107.010333 173.253192,111.838133 172.918592,116.887861 L125.938027,116.887861 C125.938027,122.036603 127.679313,126.908788 130.366355,129.52413 L130.366355,129.52413 Z M150.913524,95.3164062 C148.786424,92.967378 145.187767,91.6938496 140.796996,91.6938496 C137.93924,91.6938496 135.57314,92.1752638 133.681626,93.1551637 C131.831083,94.1214064 130.311726,95.3232348 129.150869,96.7401632 C128.000255,98.1809916 127.211555,99.7037628 126.754041,101.328963 C126.296527,102.909777 126.01997,104.350605 125.938027,105.617305 L155.034566,105.617305 C154.60778,101.059234 153.047452,97.6893345 150.913524,95.3164062 Z M122.281328,70.1292239 L158.728823,70.1292239 L158.728823,61.2520822 L122.281328,61.2520822 L122.281328,70.1292239 Z" id="Behance" fill="#808080" sketch:type="MSShapeGroup"></path>
    </g>
</svg>