<?xml version="1.0" encoding="UTF-8" standalone="no"?>
<svg width="200px" height="200px" viewBox="0 0 200 200" version="1.1" xmlns="http://www.w3.org/2000/svg" xmlns:xlink="http://www.w3.org/1999/xlink" xmlns:sketch="http://www.bohemiancoding.com/sketch/ns">
    <title>Blog</title>
    <description>Created with Sketch (http://www.bohemiancoding.com/sketch)</description>
    <defs></defs>
    <g id="Page-1" stroke="none" stroke-width="1" fill="none" fill-rule="evenodd" sketch:type="MSPage">
        <path d="M174.346196,67.4512006 L172.798699,64.7708568 L172.798699,64.7708568 L55.313611,132.600904 L54.7977786,131.707456 L172.282866,63.8774089 L170.735369,61.1970651 L53.2502814,129.027112 L52.734449,128.133664 L170.219537,60.3036172 L170.219537,60.3036172 L168.67204,57.6232734 L168.67204,57.6232734 L51.1869518,125.45332 L50.6711194,124.559873 L168.156207,56.7298255 L166.60871,54.0494817 L49.1236222,121.879529 L48.6077898,120.986081 L166.092878,53.1560338 L166.092878,53.1560338 L164.54538,50.47569 L164.54538,50.47569 L47.0602926,118.305737 L46.5444602,117.412289 L164.029548,49.5822421 L163.26736,48.2620934 L46.6757199,115.576308 L46.6685257,115.563847 L45.7750778,116.07968 L58.8250778,138.682943 L59.2782596,138.421298 L59.2782596,138.421298 L176.310166,70.8528957 L174.862028,68.3446485 L57.3769406,136.174696 L56.8611082,135.281248 L174.346196,67.4512006 Z M0,100 C0,155.2286 44.7714,200 100,200 C155.2286,200 200,155.2286 200,100 C200,44.7714 155.2286,0 100,0 C44.7714,0 0,44.7714 0,100 Z M29.7834173,140.381311 L45.5946154,116.18387 L58.6446154,138.787133 L29.7834173,140.381311 Z M32.3944091,138.873854 L37.2529385,131.438366 L41.2629957,138.383989 L32.3944091,138.873854 Z" id="Blog" fill="#808080" sketch:type="MSShapeGroup"></path>
    </g>
</svg>