<?xml version="1.0" encoding="UTF-8" standalone="no"?>
<svg width="1000px" height="1000px" viewBox="0 0 1000 1000" version="1.1" xmlns="http://www.w3.org/2000/svg" xmlns:xlink="http://www.w3.org/1999/xlink" xmlns:sketch="http://www.bohemiancoding.com/sketch/ns">
    <title>Cross</title>
    <description>Created with Sketch (http://www.bohemiancoding.com/sketch)</description>
    <defs></defs>
    <g id="Page 1" fill="#D8D8D8" fill-rule="evenodd">
        <g id="Cross" fill="#000000">
            <g id="Page 1" fill="#D8D8D8">
                <g id="Cross" fill="#000000">
                    <g id="Page 1" fill="#D8D8D8">
                        <g id="svg2" fill="#000000">
                            <g id="layer1">
                                <path d="M500,-1.42108547e-14 C223.85762,1.37390099e-13 0,223.85762 0,500 C0,776.14238 223.85762,1000 500,1000 C776.14238,1000 1000,776.14238 1000,500 C1000,223.85762 776.14238,-1.84741111e-13 500,-1.42108547e-14 L500,-1.42108547e-14 L500,-1.42108547e-14 Z M420,198 L580,198 L580,419.4375 L801.4375,419.4375 L801.4375,579.4375 L580,579.4375 L580,800.84375 L420,800.84375 L420,579.4375 L198.5625,579.4375 L198.5625,419.4375 L420,419.4375 L420,198 L420,198 Z M420,198" id="path2985" fill="#808080"></path>
                            </g>
                        </g>
                    </g>
                </g>
            </g>
        </g>
    </g>
</svg>