<?xml version="1.0" encoding="UTF-8" standalone="no"?>
<svg width="200px" height="200px" viewBox="0 0 200 200" version="1.1" xmlns="http://www.w3.org/2000/svg" xmlns:xlink="http://www.w3.org/1999/xlink" xmlns:sketch="http://www.bohemiancoding.com/sketch/ns">
    <title>deviantART</title>
    <description>Created with Sketch (http://www.bohemiancoding.com/sketch)</description>
    <defs></defs>
    <g id="Page-1" stroke="none" stroke-width="1" fill="none" fill-rule="evenodd" sketch:type="MSPage">
        <path d="M100,0 C44.7714,0 0,44.7714 0,100 C0,155.2286 44.7714,200 100,200 C155.2286,200 200,155.2286 200,100 C200,44.7714 155.2286,0 100,0 Z M50.0252938,62.9206124 C55.8172892,61.042542 61.841578,59.6290585 68.0258425,58.5377177 L74.4730806,70.8426946 C107.38862,63.9462098 161.819789,70.1238999 180.039483,97.9114524 L104.901327,118.806903 L86.4208516,84.5348577 C90.0586542,83.9979531 94.1457036,83.5048775 97.9040358,83.2857328 C101.4235,83.1345229 104.820244,83.2265637 108.063586,83.5333663 L118.025905,100.304513 L143.334931,94.1399715 C127.205878,77.6383729 101.182441,78.2037663 80.1160576,81.6158499 L100.277373,120.095474 L25.0077308,141.025988 C22.2377413,135.867321 20.5766242,129.702779 20.169015,123.568918 C18.7796374,102.623064 32.9341959,85.0892939 56.0189024,75.6112841 L50.0252938,62.9206124 Z M72.8689411,111.296813 L61.6027103,87.4363341 C50.9040642,93.309413 44.9542847,102.912335 47.5511498,117.463546 L72.8689411,111.296813 Z" id="deviantART" fill="#808080" sketch:type="MSShapeGroup"></path>
    </g>
</svg>