<?xml version="1.0" encoding="UTF-8" standalone="no"?>
<svg width="1001px" height="1002px" viewBox="0 0 1001 1002" version="1.1" xmlns="http://www.w3.org/2000/svg" xmlns:xlink="http://www.w3.org/1999/xlink" xmlns:sketch="http://www.bohemiancoding.com/sketch/ns">
    <title>Download</title>
    <description>Created with Sketch (http://www.bohemiancoding.com/sketch)</description>
    <defs></defs>
    <g id="Page 1" fill="#D8D8D8" fill-rule="evenodd">
        <path d="M500,0.5 C223.85763,0.5 0,224.35763 0,500.5 C0,776.64237 223.85763,1000.5 500,1000.5 C776.14237,1000.5 1000,776.64237 1000,500.5 C1000,224.35763 776.14237,0.5 500,0.5 L500,0.5 L500,0.5 Z M499.9375,134.5 C551.98258,134.5 593.875,147.88 593.875,164.5 L593.875,593.8125 L607.59375,593.8125 C607.66799,593.8125 607.73839,593.81306 607.8125,593.8125 L607.8125,593.9375 L772.65625,593.9375 C777.80661,598.35358 770.76355,608.2677 765.34375,613.6875 L518.40625,860.625 C508.5289,870.50233 492.5961,870.50233 482.71875,860.625 L235.78125,613.6875 C230.36144,608.2677 224.6078,599.01394 228.4375,593.9375 L393.34375,593.9375 L393.34375,593.8125 L406,593.8125 L406,164.5 C406,147.88 447.89242,134.5 499.9375,134.5 L499.9375,134.5 L499.9375,134.5 Z M499.9375,134.5" id="Download" fill="#808080"></path>
    </g>
</svg>