<?xml version="1.0" encoding="UTF-8" standalone="no"?>
<svg width="201px" height="200px" viewBox="0 0 201 200" version="1.1" xmlns="http://www.w3.org/2000/svg" xmlns:xlink="http://www.w3.org/1999/xlink" xmlns:sketch="http://www.bohemiancoding.com/sketch/ns">
    <title>Download</title>
    <description>Created with Sketch (http://www.bohemiancoding.com/sketch)</description>
    <defs></defs>
    <g id="Page 1" stroke="none" stroke-width="1" fill="none" fill-rule="evenodd">
        <path d="M100.5,0 C45.271526,3.03201907e-14 0.5,44.771526 0.5,100 C0.5,155.228474 45.271526,200 100.5,200 C155.728474,200 200.5,155.228474 200.5,100 C200.5,44.771526 155.728474,-1.51545443e-14 100.5,0 L100.5,0 L100.5,0 Z M119.275,32.8 L119.275,116.666475 C119.275,117.768849 120.17675,118.66313 121.274029,118.663898 L153.032221,118.686102 C154.136254,118.686874 154.873073,119.565165 154.594915,120.64248 C154.594915,120.64248 154.65271,121.55354 153.56875,122.6375 L101.893621,174.875435 C101.117041,175.660473 99.8573749,175.656871 99.0879995,174.875435 L47.65625,122.6375 C46.572288,121.55354 46.6244594,120.632176 46.6244594,120.632176 C46.3831334,119.558161 47.0831032,118.68687 48.1857108,118.686093 L79.7017892,118.663907 C80.8053706,118.66313 81.7,117.770574 81.7,116.666475 L81.7,32.8 C81.7,29.476 90.078484,26.8 100.4875,26.8 C109.791016,26.8000001 119.275,29.476 119.275,32.8 Z M119.275,32.8" id="Download" fill="#808080"></path>
    </g>
</svg>