<?xml version="1.0" encoding="UTF-8" standalone="no"?>
<svg width="1000px" height="1000px" viewBox="0 0 1000 1000" version="1.1" xmlns="http://www.w3.org/2000/svg" xmlns:xlink="http://www.w3.org/1999/xlink" xmlns:sketch="http://www.bohemiancoding.com/sketch/ns">
    <title>Download</title>
    <description>Created with Sketch (http://www.bohemiancoding.com/sketch)</description>
    <defs></defs>
    <g id="Page 1" fill="#D8D8D8" fill-rule="evenodd">
        <g id="Download" fill="#000000">
            <g id="Page 1" fill="#D8D8D8">
                <g id="Download" fill="#000000">
                    <g id="Page 1" fill="#D8D8D8">
                        <g id="svg2" fill="#000000">
                            <g id="layer1">
                                <path d="M500,-1.42108547e-14 C223.85763,1.37390099e-13 0,223.85763 0,500 C7.5791225e-14,776.14237 223.85763,1000 500,1000 C776.14237,1000 1000,776.14237 1000,500 C1000,223.85763 776.14237,-8.99835761e-14 500,-1.42108547e-14 L500,-1.42108547e-14 L500,-1.42108547e-14 Z M499.9375,134 C551.98258,134 593.875,147.38 593.875,164 L593.875,593.3125 L607.59375,593.3125 C607.66799,593.3125 607.73839,593.31306 607.8125,593.3125 L607.8125,593.4375 L772.65625,593.4375 C777.80661,597.85358 770.76355,607.7677 765.34375,613.1875 L518.40625,860.125 C508.5289,870.00233 492.5961,870.00233 482.71875,860.125 L235.78125,613.1875 C230.36144,607.7677 224.6078,598.51394 228.4375,593.4375 L393.34375,593.4375 L393.34375,593.3125 L406,593.3125 L406,164 C406,147.38 447.89242,134 499.9375,134 L499.9375,134 L499.9375,134 Z M499.9375,134" id="path2985" fill="#808080"></path>
                            </g>
                        </g>
                    </g>
                </g>
            </g>
        </g>
    </g>
</svg>