<?xml version="1.0" encoding="UTF-8" standalone="no"?>
<svg width="200px" height="200px" viewBox="0 0 200 200" version="1.1" xmlns="http://www.w3.org/2000/svg" xmlns:xlink="http://www.w3.org/1999/xlink" xmlns:sketch="http://www.bohemiancoding.com/sketch/ns">
    <title>Download</title>
    <description>Created with Sketch (http://www.bohemiancoding.com/sketch)</description>
    <defs></defs>
    <g id="Page-1" stroke="none" stroke-width="1" fill="none" fill-rule="evenodd" sketch:type="MSPage">
        <path d="M100,0 C44.771526,3.03201907e-14 0,44.771526 0,100 C1.5158245e-14,155.228474 44.771526,200 100,200 C155.228474,200 200,155.228474 200,100 C200,44.771526 155.228474,-1.51545443e-14 100,0 Z M118.775,32.8 L118.775,116.666475 C118.775,117.768849 119.67675,118.66313 120.774029,118.663898 L152.532221,118.686102 C153.636254,118.686874 154.373073,119.565165 154.094915,120.64248 C154.094915,120.64248 154.15271,121.55354 153.06875,122.6375 L101.393621,174.875435 C100.617041,175.660473 99.3573749,175.656871 98.5879995,174.875435 L47.15625,122.6375 C46.072288,121.55354 46.1244594,120.632176 46.1244594,120.632176 C45.8831334,119.558161 46.5831032,118.68687 47.6857108,118.686093 L79.2017892,118.663907 C80.3053706,118.66313 81.2,117.770574 81.2,116.666475 L81.2,32.8 C81.2,29.476 89.578484,26.8 99.9875,26.8 C109.291016,26.8000001 118.775,29.476 118.775,32.8 Z" id="Download" fill="#808080" sketch:type="MSShapeGroup"></path>
    </g>
</svg>