<?xml version="1.0" encoding="UTF-8" standalone="no"?>
<svg width="1001px" height="1002px" viewBox="0 0 1001 1002" version="1.1" xmlns="http://www.w3.org/2000/svg" xmlns:xlink="http://www.w3.org/1999/xlink" xmlns:sketch="http://www.bohemiancoding.com/sketch/ns">
    <title>Dribbble</title>
    <description>Created with Sketch (http://www.bohemiancoding.com/sketch)</description>
    <defs></defs>
    <g id="Page 1" fill="#D8D8D8" fill-rule="evenodd">
        <path d="M500,0.5 C223.85763,0.5 0,224.35763 0,500.5 C0,776.64237 223.85763,1000.5 500,1000.5 C776.14237,1000.5 1000,776.64237 1000,500.5 C1000,224.35763 776.14237,0.5 500,0.5 L500,0.5 L500,0.5 Z M492.8125,76 C514.49477,75.96099 537.87863,76.693879 548.40625,78.09375 C629.00659,88.81127 699.97142,118.71186 762.125,168.15625 C780.71719,182.94676 813.48378,215.59357 828.03125,233.84375 C877.67423,296.12234 908.35244,368.78164 918.6875,448.5 C921.11881,467.25356 921.99901,511.88029 920.34375,531.78125 C910.17138,654.08387 849.59347,764.15189 752.0625,837.4375 C693.08021,881.75745 627.53036,908.52284 551.15625,919.53125 C533.89352,922.0196 472.09736,922.63436 453.25,920.5 C335.83976,907.20394 229.95261,846.98047 159.4375,753.40625 C116.11411,695.91575 89.000602,630.33632 77.875,556.0625 C74.985352,536.77138 73.7504,481.14278 75.75,461.03125 C88.496637,332.82827 154.90954,220.29602 260.09375,148.6875 C317.38742,109.68246 380.06307,86.47224 452.125,77.53125 C460.12876,76.538199 475.94851,76.030341 492.8125,76 L492.8125,76 L492.8125,76 Z M498.03125,137 C467.75863,136.9632 458.59479,137.6336 437.15625,141.40625 C432.28654,142.26319 427.08428,143.17096 425.5625,143.4375 C417.28208,144.88784 413.84696,145.57749 413.15625,145.96875 C412.73307,146.20847 418.25176,154.49872 425.40625,164.375 C464.97164,218.99233 504.5355,280.68594 536.8125,338.09375 C542.884,348.89246 548.28061,357.74405 548.8125,357.75 C549.34441,357.756 556.88968,354.79755 565.5625,351.1875 C622.51912,327.47937 672.91612,295.18587 708.96875,259.28125 C721.98912,246.31428 736.57194,229.05947 736.5,226.75 C736.4458,224.99915 716.44702,209.16575 701.6875,199.1875 C653.05544,166.30948 602.7148,147.20866 542.875,138.9375 C532.55759,137.5114 521.14223,137.0281 498.03125,137 L498.03125,137 L498.03125,137 Z M342.96875,170.875 L328.625,178.34375 C295.68272,195.47848 268.83264,215.39564 240.6875,243.65625 C201.3061,283.19923 173.40989,327.74247 155.53125,379.5 C150.60806,393.75228 143.3125,419.66096 143.3125,422.96875 C143.3125,424.46838 167.38344,424.49734 196.4375,423.03125 C283.56996,418.63436 370.43338,406.28878 449.90625,387 C463.60228,383.67583 475.47477,380.7341 476.28125,380.4375 C477.9382,379.82811 477.63585,379.27017 457.84375,345.5625 C427.39301,293.7022 382.55352,225.14368 349.15625,179.375 L342.96875,170.875 L342.96875,170.875 Z M777.84375,268.875 C777.401,268.96033 776.98916,269.4783 776.375,270.34375 C760.56915,292.61645 725.8527,325.1199 692.84375,348.5 C661.37141,370.79174 622.52408,392.37702 586.59375,407.5625 C581.72404,409.62061 577.29275,411.674 576.75,412.125 C576.20725,412.576 579.74899,421.07287 584.625,431 C589.5009,440.92715 596.67814,456.71299 600.5625,466.0625 L607.625,483.0625 L615.34375,482.40625 C619.60473,482.05066 629.58674,481.15523 637.5,480.40625 C656.92503,478.5677 732.38951,478.54482 753.15625,480.375 C785.90611,483.26131 811.89527,486.37915 834.5,490.15625 C847.27887,492.2915 857.92984,494.27352 858.1875,494.53125 C859.87163,496.21532 860.24918,493.69464 859.78125,484.1875 C855.91282,405.59413 830.05533,335.50998 781.71875,272.75 C779.46389,269.82225 778.58166,268.73278 777.84375,268.875 L777.84375,268.875 L777.84375,268.875 Z M506.40625,436.5625 C506.27667,436.57221 506.13642,436.56468 506,436.59375 C504.65864,436.87961 494.16096,439.72562 482.65625,442.90625 C388.42897,468.95662 274.99212,484.99043 171.28125,486.90625 L135.59375,487.5625 L135.5,492.65625 C134.8344,543.56336 142.96778,588.04949 161.53125,635 C173.9529,666.41664 197.96498,706.15255 220.1875,732.125 L227.53125,740.71875 L237.71875,725.5 C243.32111,717.11802 251.84665,705.01628 256.65625,698.625 C297.17893,644.77561 347.61763,596.83938 401.96875,560.5 C437.5011,536.74293 477.65375,517.05037 518.8125,503.21875 C529.13827,499.74872 536.65433,496.64966 536.46875,495.9375 C536.02202,494.22317 525.82714,472.26535 516.34375,452.53125 C509.71336,438.73401 508.34995,436.41681 506.40625,436.5625 L506.40625,436.5625 L506.40625,436.5625 Z M698.65625,535.1875 C679.50327,535.34235 660.92708,536.51724 643.65625,538.78125 C636.67164,539.69685 630.71884,540.68737 630.4375,540.96875 C630.15605,541.25012 631.5705,545.83232 633.59375,551.15625 C655.85404,609.73083 684.75838,714.92613 697.90625,785.21875 C699.24409,792.37112 700.83753,798.25 701.4375,798.25 C702.03758,798.25 704.32893,797.12551 706.53125,795.78125 C708.73357,794.43699 711.04753,792.76026 711.65625,792.03125 C712.26496,791.30234 717.98351,786.60168 724.375,781.59375 C738.98709,770.14474 768.70834,740.45855 780.84375,725.1875 C815.42462,681.67161 840.92662,627.70134 852.34375,573.84375 C856.26763,555.33348 856.90418,556.87613 843.75,553.21875 C800.22062,541.11593 747.60275,534.79178 698.65625,535.1875 L698.65625,535.1875 L698.65625,535.1875 Z M560.21875,558.875 C557.2274,558.80152 551.89328,561.17196 540.65625,565.46875 C446.69717,601.3966 366.0457,659.33521 309.84375,731.28125 C300.2398,743.57559 284.02301,767.91201 278.90625,777.6875 L275.59375,784.03125 L280.5625,788.46875 C295.26793,801.62835 334.62557,823.99936 363.5625,835.625 C395.40798,848.41926 432.85274,857.19746 468.15625,860.15625 C484.78518,861.54987 524.91845,860.68203 541.75,858.5625 C572.92894,854.63608 610.02957,845.10766 633.75,834.9375 L638.875,832.75 L636.71875,820.75 C633.26956,801.53736 625.07653,764.22036 618.5,737.90625 C606.24274,688.86247 592.80178,645.32479 566.46875,569.34375 C563.99337,562.20125 563.60894,558.95828 560.21875,558.875 L560.21875,558.875 L560.21875,558.875 Z M560.21875,558.875" id="Dribbble" fill="#808080"></path>
    </g>
</svg>