<?xml version="1.0" encoding="UTF-8" standalone="no"?>
<svg width="200px" height="200px" viewBox="0 0 200 200" version="1.1" xmlns="http://www.w3.org/2000/svg" xmlns:xlink="http://www.w3.org/1999/xlink" xmlns:sketch="http://www.bohemiancoding.com/sketch/ns">
    <title>Dribbble</title>
    <description>Created with Sketch (http://www.bohemiancoding.com/sketch)</description>
    <defs></defs>
    <g id="Page-1" stroke="none" stroke-width="1" fill="none" fill-rule="evenodd" sketch:type="MSPage">
        <path d="M100,0 C44.771526,1.51545443e-14 0,44.771526 0,100 C-7.5791226e-15,155.228474 44.771526,200 100,200 C155.228474,200 200,155.228474 200,100 C200,44.771526 155.228474,-2.27373675e-14 100,0 L100,0 L100,0 Z M99.4161023,13.2698928 C103.84631,13.2619155 108.624192,13.4117861 110.775237,13.6980497 C127.243817,15.8897057 141.743632,22.0041619 154.443097,32.1151852 C158.241927,35.1397385 164.936926,41.815777 167.909323,45.547808 C178.052573,58.2833331 184.320866,73.1416391 186.432567,89.4434721 C186.929341,93.2784407 187.109187,102.404287 186.770978,106.473891 C184.692519,131.4839 172.315001,153.992021 152.387088,168.978402 C140.335593,178.041514 126.942188,183.514845 111.337128,185.765986 C107.809939,186.274835 95.183503,186.400549 91.3325359,185.964088 C67.3428113,183.245139 45.7075301,170.929871 31.2996039,151.794614 C22.4475975,140.038219 16.9076584,126.627696 14.6344314,111.439232 C14.0440071,107.494336 13.7916768,96.1186866 14.200243,92.0060229 C16.8046862,65.7894327 30.3744332,42.7773943 51.866087,28.1339654 C63.5725562,20.1577144 76.3786929,15.4113908 91.1026714,13.5830224 C92.7380313,13.3799506 95.9703852,13.2760973 99.4161023,13.2698928 L99.4161023,13.2698928 L99.4161023,13.2698928 Z M100.96694,26.1484303 C94.8161805,26.1409534 92.9542811,26.2771645 88.5984211,27.0436876 C87.6089985,27.2177998 86.5520088,27.4022395 86.2428151,27.4563948 C84.5604081,27.7510734 83.862464,27.8911958 83.7221263,27.9706915 C83.636145,28.0193976 84.7574267,29.7038019 86.2110684,31.7104541 C94.2499228,42.8075458 102.288466,55.3423887 108.846473,67.0064472 C110.080074,69.2005177 111.176552,70.9989745 111.284621,71.0001834 C111.392694,71.0014025 112.925734,70.4003077 114.687868,69.6668215 C126.260254,64.8498286 136.499864,58.2884692 143.824999,50.9934062 C146.470464,48.3587909 149.433386,44.8529767 149.41877,44.383741 C149.407757,44.0280052 145.344426,40.8109916 142.345602,38.7836213 C132.464592,32.1034997 122.236433,28.2226152 110.078246,26.5420896 C107.981965,26.2523361 105.662604,26.1541397 100.96694,26.1484303 L100.96694,26.1484303 L100.96694,26.1484303 Z M69.4615038,33.0311173 L66.5471557,34.54861 C59.8539779,38.0300265 54.3986069,42.0767741 48.6801069,47.8187352 C40.6786354,55.8530363 35.0107128,64.903285 31.3781495,75.4193255 C30.3778609,78.3150888 28.8955567,83.5791872 28.8955567,84.2512605 C28.8955567,84.5559537 33.786265,84.5618378 39.6894384,84.2639592 C57.3929201,83.3706037 75.0417385,80.8622417 91.1889527,76.9431677 C93.9716977,76.2677663 96.3839377,75.6700687 96.5477975,75.6098058 C96.8844548,75.4859906 96.8230237,75.3726289 92.8016856,68.5239399 C86.6147362,57.9870187 77.5042958,44.0573706 70.7186735,34.7581383 L69.4615038,33.0311173 L69.4615038,33.0311173 Z M157.818949,52.9426543 C157.728992,52.9599915 157.645315,53.0652321 157.52053,53.2410734 C154.309114,57.7664171 147.255462,64.370434 140.548739,69.1207781 C134.154222,73.6499904 126.261262,78.0356649 118.960975,81.1210348 C117.971553,81.5391994 117.071208,81.956405 116.960933,82.0480388 C116.850657,82.1396725 117.570264,83.8660576 118.560967,85.8830414 C119.551647,87.9000293 121.009911,91.1073797 121.799131,93.0070033 L123.234083,96.4610455 L124.80237,96.3277093 C125.668112,96.2554609 127.696246,96.0735284 129.304054,95.9213514 C133.250811,95.5477967 148.583605,95.543148 152.802969,95.915002 C159.457051,96.5014395 164.737501,97.1349189 169.330307,97.9023461 C171.926704,98.336184 174.090757,98.7388887 174.143108,98.791254 C174.485288,99.1334216 174.561998,98.6212725 174.466924,96.6896218 C173.680941,80.7211035 168.427243,66.4814795 158.606268,53.7299727 C158.148128,53.1351155 157.968877,52.9137582 157.818949,52.9426543 L157.818949,52.9426543 L157.818949,52.9426543 Z M102.668563,87.0132243 C102.642235,87.0151972 102.61374,87.0136673 102.586022,87.0195737 C102.313486,87.0776544 100.180578,87.6559037 97.8430633,88.3021408 C78.6980635,93.5950276 55.6500835,96.8527603 34.578218,97.2420146 L27.3272692,97.3753507 L27.3082212,98.4102935 C27.1729853,108.753547 28.8255169,117.792192 32.5972232,127.331547 C35.121041,133.714747 39.9997902,141.788247 44.5149384,147.065303 L46.0070338,148.811372 L48.0769194,145.719242 C49.215201,144.0162 50.9474113,141.557381 51.9246207,140.258808 C60.1579763,129.317745 70.4060584,119.578112 81.4490618,112.194715 C88.6684873,107.367779 96.8266606,103.366665 105.189252,100.556371 C107.287231,99.8513341 108.814336,99.2216704 108.77663,99.0769744 C108.685864,98.7286587 106.614479,94.2672919 104.687654,90.2577382 C103.340498,87.4544294 103.063482,86.9836232 102.668563,87.0132243 L102.668563,87.0132243 L102.668563,87.0132243 Z M141.729716,107.051748 C137.838234,107.08321 134.063943,107.321923 130.554874,107.781923 C129.135748,107.967953 127.926265,108.169206 127.869102,108.226376 C127.811918,108.283545 128.099304,109.214552 128.510386,110.296262 C133.033208,122.197384 138.905962,143.570854 141.577332,157.852835 C141.849153,159.306046 142.172906,160.500511 142.294808,160.500511 C142.416731,160.500511 142.882285,160.272038 143.329751,159.998912 C143.777216,159.725787 144.247364,159.385111 144.371043,159.236991 C144.49472,159.088892 145.656609,158.133817 146.955225,157.116311 C149.924094,154.790113 155.962826,148.758504 158.428486,145.655749 C165.454591,136.814236 170.636061,125.848613 172.955781,114.905884 C173.753031,111.144987 173.882364,111.458421 171.209712,110.715319 C162.365458,108.25628 151.674615,106.971346 141.729716,107.051748 L141.729716,107.051748 L141.729716,107.051748 Z M113.602131,111.86455 C112.994351,111.84962 111.91057,112.331243 109.627442,113.204261 C90.5369352,120.504044 74.1502542,132.275949 62.7312011,146.89387 C60.7798806,149.391821 57.4849703,154.33647 56.4453524,156.322643 L55.7723221,157.61156 L56.7818675,158.513166 C59.7697013,161.18692 67.7663453,165.732238 73.6457203,168.094324 C80.1160514,170.693848 87.7240384,172.477394 94.8969685,173.078557 C98.275617,173.361712 106.429853,173.185385 109.849669,172.754741 C116.184574,171.956975 123.722641,170.021001 128.542133,167.954638 L129.583425,167.510184 L129.14532,165.072037 C128.444517,161.168433 126.779866,153.586404 125.443654,148.239931 C122.953236,138.275267 120.222316,129.429327 114.871999,113.991579 C114.369054,112.540374 114.290946,111.88147 113.602131,111.86455 L113.602131,111.86455 L113.602131,111.86455 Z" id="Dribbble" fill="#808080" sketch:type="MSShapeGroup"></path>
    </g>
</svg>