<?xml version="1.0" encoding="UTF-8" standalone="no"?>
<svg width="1000px" height="1000px" viewBox="0 0 1000 1000" version="1.1" xmlns="http://www.w3.org/2000/svg" xmlns:xlink="http://www.w3.org/1999/xlink" xmlns:sketch="http://www.bohemiancoding.com/sketch/ns">
    <title>Dribbble</title>
    <description>Created with Sketch (http://www.bohemiancoding.com/sketch)</description>
    <defs></defs>
    <g id="Page 1" fill="#D8D8D8" fill-rule="evenodd">
        <g id="Dribbble" fill="#000000">
            <g id="Page 1" fill="#D8D8D8">
                <g id="Dribbble" fill="#000000">
                    <g id="Page 1" fill="#D8D8D8">
                        <g id="svg2" fill="#000000">
                            <g id="layer1">
                                <path d="M500,-1.42108547e-14 C223.85763,6.15618667e-14 0,223.85763 0,500 C-3.7895613e-14,776.14237 223.85763,1000 500,1000 C776.14237,1000 1000,776.14237 1000,500 C1000,223.85763 776.14237,-1.27897692e-13 500,-1.42108547e-14 L500,-1.42108547e-14 L500,-1.42108547e-14 Z M492.8125,75.5 C514.49477,75.46099 537.87863,76.193879 548.40625,77.59375 C629.00659,88.31127 699.97142,118.21186 762.125,167.65625 C780.71719,182.44676 813.48378,215.09357 828.03125,233.34375 C877.67423,295.62234 908.35244,368.28164 918.6875,448 C921.11881,466.75356 921.99901,511.38029 920.34375,531.28125 C910.17138,653.58387 849.59347,763.65189 752.0625,836.9375 C693.08021,881.25745 627.53036,908.02284 551.15625,919.03125 C533.89352,921.5196 472.09736,922.13436 453.25,920 C335.83976,906.70394 229.95261,846.48047 159.4375,752.90625 C116.11411,695.41575 89.000602,629.83632 77.875,555.5625 C74.985352,536.27138 73.7504,480.64278 75.75,460.53125 C88.496637,332.32827 154.90954,219.79602 260.09375,148.1875 C317.38742,109.18246 380.06307,85.97224 452.125,77.03125 C460.12876,76.038199 475.94851,75.530341 492.8125,75.5 L492.8125,75.5 L492.8125,75.5 Z M498.03125,136.5 C467.75863,136.4632 458.59479,137.1336 437.15625,140.90625 C432.28654,141.76319 427.08428,142.67096 425.5625,142.9375 C417.28208,144.38784 413.84696,145.07749 413.15625,145.46875 C412.73307,145.70847 418.25176,153.99872 425.40625,163.875 C464.97164,218.49233 504.5355,280.18594 536.8125,337.59375 C542.884,348.39246 548.28061,357.24405 548.8125,357.25 C549.34441,357.256 556.88968,354.29755 565.5625,350.6875 C622.51912,326.97937 672.91612,294.68587 708.96875,258.78125 C721.98912,245.81428 736.57194,228.55947 736.5,226.25 C736.4458,224.49915 716.44702,208.66575 701.6875,198.6875 C653.05544,165.80948 602.7148,146.70866 542.875,138.4375 C532.55759,137.0114 521.14223,136.5281 498.03125,136.5 L498.03125,136.5 L498.03125,136.5 Z M342.96875,170.375 L328.625,177.84375 C295.68272,194.97848 268.83264,214.89564 240.6875,243.15625 C201.3061,282.69923 173.40989,327.24247 155.53125,379 C150.60806,393.25228 143.3125,419.16096 143.3125,422.46875 C143.3125,423.96838 167.38344,423.99734 196.4375,422.53125 C283.56996,418.13436 370.43338,405.78878 449.90625,386.5 C463.60228,383.17583 475.47477,380.2341 476.28125,379.9375 C477.9382,379.32811 477.63585,378.77017 457.84375,345.0625 C427.39301,293.2022 382.55352,224.64368 349.15625,178.875 L342.96875,170.375 L342.96875,170.375 Z M777.84375,268.375 C777.401,268.46033 776.98916,268.9783 776.375,269.84375 C760.56915,292.11645 725.8527,324.6199 692.84375,348 C661.37141,370.29174 622.52408,391.87702 586.59375,407.0625 C581.72404,409.12061 577.29275,411.174 576.75,411.625 C576.20725,412.076 579.74899,420.57287 584.625,430.5 C589.5009,440.42715 596.67814,456.21299 600.5625,465.5625 L607.625,482.5625 L615.34375,481.90625 C619.60473,481.55066 629.58674,480.65523 637.5,479.90625 C656.92503,478.0677 732.38951,478.04482 753.15625,479.875 C785.90611,482.76131 811.89527,485.87915 834.5,489.65625 C847.27887,491.7915 857.92984,493.77352 858.1875,494.03125 C859.87163,495.71532 860.24918,493.19464 859.78125,483.6875 C855.91282,405.09413 830.05533,335.00998 781.71875,272.25 C779.46389,269.32225 778.58166,268.23278 777.84375,268.375 L777.84375,268.375 L777.84375,268.375 Z M506.40625,436.0625 C506.27667,436.07221 506.13642,436.06468 506,436.09375 C504.65864,436.37961 494.16096,439.22562 482.65625,442.40625 C388.42897,468.45662 274.99212,484.49043 171.28125,486.40625 L135.59375,487.0625 L135.5,492.15625 C134.8344,543.06336 142.96778,587.54949 161.53125,634.5 C173.9529,665.91664 197.96498,705.65255 220.1875,731.625 L227.53125,740.21875 L237.71875,725 C243.32111,716.61802 251.84665,704.51628 256.65625,698.125 C297.17893,644.27561 347.61763,596.33938 401.96875,560 C437.5011,536.24293 477.65375,516.55037 518.8125,502.71875 C529.13827,499.24872 536.65433,496.14966 536.46875,495.4375 C536.02202,493.72317 525.82714,471.76535 516.34375,452.03125 C509.71336,438.23401 508.34995,435.91681 506.40625,436.0625 L506.40625,436.0625 L506.40625,436.0625 Z M698.65625,534.6875 C679.50327,534.84235 660.92708,536.01724 643.65625,538.28125 C636.67164,539.19685 630.71884,540.18737 630.4375,540.46875 C630.15605,540.75012 631.5705,545.33232 633.59375,550.65625 C655.85404,609.23083 684.75838,714.42613 697.90625,784.71875 C699.24409,791.87112 700.83753,797.75 701.4375,797.75 C702.03758,797.75 704.32893,796.62551 706.53125,795.28125 C708.73357,793.93699 711.04753,792.26026 711.65625,791.53125 C712.26496,790.80234 717.98351,786.10168 724.375,781.09375 C738.98709,769.64474 768.70834,739.95855 780.84375,724.6875 C815.42462,681.17161 840.92662,627.20134 852.34375,573.34375 C856.26763,554.83348 856.90418,556.37613 843.75,552.71875 C800.22062,540.61593 747.60275,534.29178 698.65625,534.6875 L698.65625,534.6875 L698.65625,534.6875 Z M560.21875,558.375 C557.2274,558.30152 551.89328,560.67196 540.65625,564.96875 C446.69717,600.8966 366.0457,658.83521 309.84375,730.78125 C300.2398,743.07559 284.02301,767.41201 278.90625,777.1875 L275.59375,783.53125 L280.5625,787.96875 C295.26793,801.12835 334.62557,823.49936 363.5625,835.125 C395.40798,847.91926 432.85274,856.69746 468.15625,859.65625 C484.78518,861.04987 524.91845,860.18203 541.75,858.0625 C572.92894,854.13608 610.02957,844.60766 633.75,834.4375 L638.875,832.25 L636.71875,820.25 C633.26956,801.03736 625.07653,763.72036 618.5,737.40625 C606.24274,688.36247 592.80178,644.82479 566.46875,568.84375 C563.99337,561.70125 563.60894,558.45828 560.21875,558.375 L560.21875,558.375 L560.21875,558.375 Z M560.21875,558.375" id="path2985" fill="#808080"></path>
                            </g>
                        </g>
                    </g>
                </g>
            </g>
        </g>
    </g>
</svg>