<?xml version="1.0" encoding="UTF-8" standalone="no"?>
<!-- Created with Inkscape (http://www.inkscape.org/) -->

<svg
   xmlns:dc="http://purl.org/dc/elements/1.1/"
   xmlns:cc="http://creativecommons.org/ns#"
   xmlns:rdf="http://www.w3.org/1999/02/22-rdf-syntax-ns#"
   xmlns:svg="http://www.w3.org/2000/svg"
   xmlns="http://www.w3.org/2000/svg"
   xmlns:sodipodi="http://sodipodi.sourceforge.net/DTD/sodipodi-0.dtd"
   xmlns:inkscape="http://www.inkscape.org/namespaces/inkscape"
   width="1000"
   height="1000"
   id="svg2"
   version="1.1"
   inkscape:version="0.48.2 r9819"
   sodipodi:docname="Dribbble.svg">
  <defs
     id="defs4" />
  <sodipodi:namedview
     id="base"
     pagecolor="#ffffff"
     bordercolor="#666666"
     borderopacity="1.0"
     inkscape:pageopacity="0.0"
     inkscape:pageshadow="2"
     inkscape:zoom="0.35"
     inkscape:cx="238.86518"
     inkscape:cy="536.26667"
     inkscape:document-units="px"
     inkscape:current-layer="layer1"
     showgrid="false"
     inkscape:window-width="777"
     inkscape:window-height="530"
     inkscape:window-x="0"
     inkscape:window-y="0"
     inkscape:window-maximized="0">
    <inkscape:grid
       type="xygrid"
       id="grid3825"
       empspacing="5"
       visible="true"
       enabled="true"
       snapvisiblegridlinesonly="true" />
  </sodipodi:namedview>
  <metadata
     id="metadata7">
    <rdf:RDF>
      <cc:Work
         rdf:about="">
        <dc:format>image/svg+xml</dc:format>
        <dc:type
           rdf:resource="http://purl.org/dc/dcmitype/StillImage" />
        <dc:title />
      </cc:Work>
    </rdf:RDF>
  </metadata>
  <g
     inkscape:label="Layer 1"
     inkscape:groupmode="layer"
     id="layer1"
     transform="translate(0,-52.362183)">
    <path
       style="fill:#000000"
       d=""
       id="path3819"
       inkscape:connector-curvature="0" />
    <path
       style="fill:#808080;fill-opacity:1;stroke:none"
       d="M 500 0 C 223.85763 7.5791225e-14 0 223.85763 0 500 C -3.7895613e-14 776.14237 223.85763 1000 500 1000 C 776.14237 1000 1000 776.14237 1000 500 C 1000 223.85763 776.14237 -1.1368684e-13 500 0 z M 492.8125 75.5 C 514.49477 75.46099 537.87863 76.193879 548.40625 77.59375 C 629.00659 88.31127 699.97142 118.21186 762.125 167.65625 C 780.71719 182.44676 813.48378 215.09357 828.03125 233.34375 C 877.67423 295.62234 908.35244 368.28164 918.6875 448 C 921.11881 466.75356 921.99901 511.38029 920.34375 531.28125 C 910.17138 653.58387 849.59347 763.65189 752.0625 836.9375 C 693.08021 881.25745 627.53036 908.02284 551.15625 919.03125 C 533.89352 921.5196 472.09736 922.13436 453.25 920 C 335.83976 906.70394 229.95261 846.48047 159.4375 752.90625 C 116.11411 695.41575 89.000602 629.83632 77.875 555.5625 C 74.985352 536.27138 73.7504 480.64278 75.75 460.53125 C 88.496637 332.32827 154.90954 219.79602 260.09375 148.1875 C 317.38742 109.18246 380.06307 85.97224 452.125 77.03125 C 460.12876 76.038199 475.94851 75.530341 492.8125 75.5 z M 498.03125 136.5 C 467.75863 136.4632 458.59479 137.1336 437.15625 140.90625 C 432.28654 141.76319 427.08428 142.67096 425.5625 142.9375 C 417.28208 144.38784 413.84696 145.07749 413.15625 145.46875 C 412.73307 145.70847 418.25176 153.99872 425.40625 163.875 C 464.97164 218.49233 504.5355 280.18594 536.8125 337.59375 C 542.884 348.39246 548.28061 357.24405 548.8125 357.25 C 549.34441 357.256 556.88968 354.29755 565.5625 350.6875 C 622.51912 326.97937 672.91612 294.68587 708.96875 258.78125 C 721.98912 245.81428 736.57194 228.55947 736.5 226.25 C 736.4458 224.49915 716.44702 208.66575 701.6875 198.6875 C 653.05544 165.80948 602.7148 146.70866 542.875 138.4375 C 532.55759 137.0114 521.14223 136.5281 498.03125 136.5 z M 342.96875 170.375 L 328.625 177.84375 C 295.68272 194.97848 268.83264 214.89564 240.6875 243.15625 C 201.3061 282.69923 173.40989 327.24247 155.53125 379 C 150.60806 393.25228 143.3125 419.16096 143.3125 422.46875 C 143.3125 423.96838 167.38344 423.99734 196.4375 422.53125 C 283.56996 418.13436 370.43338 405.78878 449.90625 386.5 C 463.60228 383.17583 475.47477 380.2341 476.28125 379.9375 C 477.9382 379.32811 477.63585 378.77017 457.84375 345.0625 C 427.39301 293.2022 382.55352 224.64368 349.15625 178.875 L 342.96875 170.375 z M 777.84375 268.375 C 777.401 268.46033 776.98916 268.9783 776.375 269.84375 C 760.56915 292.11645 725.8527 324.6199 692.84375 348 C 661.37141 370.29174 622.52408 391.87702 586.59375 407.0625 C 581.72404 409.12061 577.29275 411.174 576.75 411.625 C 576.20725 412.076 579.74899 420.57287 584.625 430.5 C 589.5009 440.42715 596.67814 456.21299 600.5625 465.5625 L 607.625 482.5625 L 615.34375 481.90625 C 619.60473 481.55066 629.58674 480.65523 637.5 479.90625 C 656.92503 478.0677 732.38951 478.04482 753.15625 479.875 C 785.90611 482.76131 811.89527 485.87915 834.5 489.65625 C 847.27887 491.7915 857.92984 493.77352 858.1875 494.03125 C 859.87163 495.71532 860.24918 493.19464 859.78125 483.6875 C 855.91282 405.09413 830.05533 335.00998 781.71875 272.25 C 779.46389 269.32225 778.58166 268.23278 777.84375 268.375 z M 506.40625 436.0625 C 506.27667 436.07221 506.13642 436.06468 506 436.09375 C 504.65864 436.37961 494.16096 439.22562 482.65625 442.40625 C 388.42897 468.45662 274.99212 484.49043 171.28125 486.40625 L 135.59375 487.0625 L 135.5 492.15625 C 134.8344 543.06336 142.96778 587.54949 161.53125 634.5 C 173.9529 665.91664 197.96498 705.65255 220.1875 731.625 L 227.53125 740.21875 L 237.71875 725 C 243.32111 716.61802 251.84665 704.51628 256.65625 698.125 C 297.17893 644.27561 347.61763 596.33938 401.96875 560 C 437.5011 536.24293 477.65375 516.55037 518.8125 502.71875 C 529.13827 499.24872 536.65433 496.14966 536.46875 495.4375 C 536.02202 493.72317 525.82714 471.76535 516.34375 452.03125 C 509.71336 438.23401 508.34995 435.91681 506.40625 436.0625 z M 698.65625 534.6875 C 679.50327 534.84235 660.92708 536.01724 643.65625 538.28125 C 636.67164 539.19685 630.71884 540.18737 630.4375 540.46875 C 630.15605 540.75012 631.5705 545.33232 633.59375 550.65625 C 655.85404 609.23083 684.75838 714.42613 697.90625 784.71875 C 699.24409 791.87112 700.83753 797.75 701.4375 797.75 C 702.03758 797.75 704.32893 796.62551 706.53125 795.28125 C 708.73357 793.93699 711.04753 792.26026 711.65625 791.53125 C 712.26496 790.80234 717.98351 786.10168 724.375 781.09375 C 738.98709 769.64474 768.70834 739.95855 780.84375 724.6875 C 815.42462 681.17161 840.92662 627.20134 852.34375 573.34375 C 856.26763 554.83348 856.90418 556.37613 843.75 552.71875 C 800.22062 540.61593 747.60275 534.29178 698.65625 534.6875 z M 560.21875 558.375 C 557.2274 558.30152 551.89328 560.67196 540.65625 564.96875 C 446.69717 600.8966 366.0457 658.83521 309.84375 730.78125 C 300.2398 743.07559 284.02301 767.41201 278.90625 777.1875 L 275.59375 783.53125 L 280.5625 787.96875 C 295.26793 801.12835 334.62557 823.49936 363.5625 835.125 C 395.40798 847.91926 432.85274 856.69746 468.15625 859.65625 C 484.78518 861.04987 524.91845 860.18203 541.75 858.0625 C 572.92894 854.13608 610.02957 844.60766 633.75 834.4375 L 638.875 832.25 L 636.71875 820.25 C 633.26956 801.03736 625.07653 763.72036 618.5 737.40625 C 606.24274 688.36247 592.80178 644.82479 566.46875 568.84375 C 563.99337 561.70125 563.60894 558.45828 560.21875 558.375 z "
       transform="translate(0,52.362183)"
       id="path2985" />
  </g>
</svg>
