<?xml version="1.0" encoding="UTF-8" standalone="no"?>
<svg width="200px" height="200px" viewBox="0 0 200 200" version="1.1" xmlns="http://www.w3.org/2000/svg" xmlns:xlink="http://www.w3.org/1999/xlink" xmlns:sketch="http://www.bohemiancoding.com/sketch/ns">
    <title>Etsy</title>
    <description>Created with Sketch (http://www.bohemiancoding.com/sketch)</description>
    <defs></defs>
    <g id="Page-1" stroke="none" stroke-width="1" fill="none" fill-rule="evenodd" sketch:type="MSPage">
        <path d="M100,0 C44.771526,1.51545443e-14 0,44.771526 0,100 C-7.5791226e-15,155.228474 44.771526,200 100,200 C155.228474,200 200,155.228474 200,100 C200,44.771526 155.228474,-2.27373675e-14 100,0 Z M56.6926855,41.8316307 C58.9061914,41.8316307 81.3619382,42.5482312 96.4627353,42.5482312 C127.772506,42.5482312 135.283055,40 140.659797,40 C143.664586,40.0793038 144.297423,42.3886682 144.297423,43.7425653 C144.297423,45.0964624 142.874251,47.9628642 142.874251,51.704474 C142.874251,55.4470392 143.743335,59.4284713 143.743335,62.6923475 C143.743335,65.9571791 140.97669,67.071254 139.474769,67.071254 C137.9719,67.071254 137.026915,66.5132611 136.943422,63.7271185 C136.785924,58.3927448 140.659797,50.6697029 102.629811,50.6697029 C83.2585512,50.6697029 82.7841608,52.8997635 82.7841608,59.1093453 C82.7841608,65.3198825 82.9426072,85.8624286 82.9426072,89.047001 C82.9426072,92.2325289 83.8913881,93.1879961 86.4217868,93.1879961 L114.173629,93.1879961 C119.55037,93.1879961 125.004912,90.2422906 125.637749,82.5985525 C125.874944,78.5378166 126.981222,78.3782536 128.958482,78.3782536 C130.934792,78.3782536 132.753605,79.9710175 132.437661,83.7919311 C132.120769,87.6147556 131.330434,91.6754915 131.330434,97.1684728 C131.330434,102.663365 132.437661,108.077998 132.437661,112.057519 C132.437661,116.039907 127.218418,116.994418 126.191837,112.695771 C125.163358,108.396169 123.660489,101.149905 111.484784,101.149905 L86.8164797,101.149905 C84.1285833,101.149905 82.7841608,102.663365 82.7841608,107.121575 L82.7841608,138.891817 C82.7841608,144.384799 84.4445274,150.277165 95.5139544,150.277165 C106.582433,150.277165 126.665278,151.471499 135.837143,144.225235 C139.789765,140.960404 140.97669,136.42289 142.320163,129.018019 C142.953,125.594579 150.306052,125.673883 149.990108,133.556488 C149.751964,137.21975 146.267092,145.084201 146.267092,150.130979 C146.267092,154.352233 147.225361,160 143.348642,160 C140.072501,160 141.450131,158.318378 127.06092,158.318378 C112.67076,158.318378 63.0182079,158.637504 54.7163749,158.637504 C51.6328369,158.637504 51,157.76134 51,155.850406 C51,153.940427 52.1072273,152.50627 54.7163749,152.50627 C57.3255224,152.50627 68.3940006,152.664878 68.3940006,138.493387 L68.3940006,64.8421488 C68.3940006,57.1984107 66.733634,49.5556281 57.4042712,48.5992054 C53.7675939,48.2810348 54.0047892,46.6882708 53.9250916,44.8575956 C53.8529842,43.1864833 54.4791796,41.8316307 56.6926855,41.8316307 Z" id="Etsy" fill="#808080" sketch:type="MSShapeGroup"></path>
    </g>
</svg>