<?xml version="1.0" encoding="UTF-8" standalone="no"?>
<svg width="201px" height="200px" viewBox="0 0 201 200" version="1.1" xmlns="http://www.w3.org/2000/svg" xmlns:xlink="http://www.w3.org/1999/xlink" xmlns:sketch="http://www.bohemiancoding.com/sketch/ns">
    <title>Facebook</title>
    <description>Created with Sketch (http://www.bohemiancoding.com/sketch)</description>
    <defs></defs>
    <g id="Page 1" stroke="none" stroke-width="1" fill="none" fill-rule="evenodd">
        <path d="M100.5,0 C45.2714,0 0.5,44.7714 0.5,100 C0.5,155.2286 45.2714,200 100.5,200 C155.7286,200 200.5,155.2286 200.5,100 C200.5,44.7714 155.7286,0 100.5,0 L100.5,0 L100.5,0 Z M121.5,25.75 C128.4302,25.7702 136.4218,26.2968 136.875,26.75 C136.9728,26.8478 136.9082,32.0382 136.75,38.375 L136.5,50 L127.75,50 C115.5174,50.0116 112.9846,50.6444 111.125,54.125 C110.2474,55.7676 110.2436,56.281 110.125,67.625 L110,79.375 L123.5,79.375 L137,79.375 L136.875,82.625 C136.8526,84.4526 136.6294,90.1552 136.375,95.25 L136,104.5 L123,104.625 L110,104.75 L110,139.625 L110,174.375 L96.75,174.375 C89.477,174.375 83.4072,174.2822 83.25,174.125 C83.0928,173.9678 83.0942,158.2536 83.25,139.25 L83.5,104.75 L74.25,104.75 L64.875,104.75 L64.875,92 L64.875,79.375 L74.125,79.375 L83.375,79.375 L83.5,65.125 C83.642,52.1172 83.7308,50.7032 84.5,48.25 C87.6398,38.2354 94.1002,31.4748 103.875,28 C108.8738,26.223 113.054,25.7254 121.5,25.75 L121.5,25.75 L121.5,25.75 Z M121.5,25.75" id="Facebook" fill="#808080"></path>
    </g>
</svg>