<?xml version="1.0" encoding="UTF-8" standalone="no"?>
<!-- Created with Inkscape (http://www.inkscape.org/) -->

<svg
   xmlns:dc="http://purl.org/dc/elements/1.1/"
   xmlns:cc="http://creativecommons.org/ns#"
   xmlns:rdf="http://www.w3.org/1999/02/22-rdf-syntax-ns#"
   xmlns:svg="http://www.w3.org/2000/svg"
   xmlns="http://www.w3.org/2000/svg"
   version="1.1"
   width="1000"
   height="1000"
   id="svg2">
  <defs
     id="defs4">
    <clipPath
       id="clipPath3033">
      <path
         d="M 0,792 612,792 612,0 0,0 0,792 z"
         id="path3035" />
    </clipPath>
    <clipPath
       id="clipPath3833">
      <rect
         width="13.889598"
         height="25.885159"
         x="22.602163"
         y="1014.8603"
         id="rect3835"
         style="fill:#303030;fill-opacity:1" />
    </clipPath>
    <clipPath
       id="clipPath3992">
      <rect
         width="56.481354"
         height="111.7296"
         x="-359.02158"
         y="-447.10541"
         transform="scale(-1,-1)"
         id="rect3994"
         style="fill:#3f3f3f;fill-opacity:1" />
    </clipPath>
  </defs>
  <metadata
     id="metadata7">
    <rdf:RDF>
      <cc:Work
         rdf:about="">
        <dc:format>image/svg+xml</dc:format>
        <dc:type
           rdf:resource="http://purl.org/dc/dcmitype/StillImage" />
        <dc:title></dc:title>
      </cc:Work>
    </rdf:RDF>
  </metadata>
  <g
     transform="translate(0,-52.3622)"
     id="layer1">
    <path
       d="M 500.00002,52.3622 C 223.85763,52.3622 0,276.21983 0,552.36218 0,828.50457 223.85763,1052.3622 500.00002,1052.3622 776.14237,1052.3622 1000,828.50457 1000,552.36218 1000,276.21983 776.14237,52.3622 500.00002,52.3622 z M 595,176.11218 c 34.65138,0.10103 74.60895,2.73398 76.875,5.00003 0.48943,0.48935 0.16602,26.44145 -0.62499,58.12498 l -1.25002,58.12502 -43.74999,0 c -61.16295,0.0582 -73.82682,3.22179 -83.125,20.62498 -4.38797,8.21299 -4.40752,10.7803 -4.99999,67.5 l -0.62499,58.75 67.5,0 67.49997,0 -0.62499,16.24999 c -0.11207,9.13742 -1.22741,37.65112 -2.5,63.125 l -1.875,46.25 -65.00001,0.62503 -64.99997,0.62499 0,174.37501 0,173.74991 -66.25003,0 c -36.36485,0 -66.71379,-0.46361 -67.49997,-1.25006 -0.78622,-0.78606 -0.7796,-79.35713 0,-174.37486 l 1.24998,-172.5 -46.25,0 -46.875,0 0,-63.75 0,-63.12501 46.25001,0 46.25,0 L 405,372.98718 c 0.7096,-65.03891 1.1542,-72.1088 4.99999,-84.37498 15.69897,-50.0733 48.00095,-83.87584 96.87502,-101.25003 24.99387,-8.88502 45.89472,-11.37293 88.12499,-11.24999 z"
       id="path2985"
       style="fill:#808080;fill-opacity:1;stroke-width:0;stroke-miterlimit:4;stroke-dasharray:none" />
  </g>
  <g
     transform="translate(0,950)"
     id="layer2">
    <path
       d=""
       id="path3062"
       style="fill:#000000" />
    <path
       d="m 20.273088,34.843738 0,-8.649431 -2.272844,0 -2.272843,0 0,-3.030458 0,-3.030458 2.256148,0 2.256148,0 0.06741,-3.377697 c 0.07489,-3.752393 0.151085,-4.227844 0.93586,-5.839945 0.876932,-1.8014115 2.609606,-3.1476783 4.907319,-3.8129263 0.92779,-0.2686196 1.238026,-0.2904997 4.064344,-0.2866477 2.071531,0.00282 3.105228,0.049517 3.200273,0.1445623 0.100177,0.100177 0.11403,0.9373557 0.04836,2.9226295 l -0.09203,2.7822372 -2.603167,0.04052 c -3.96255,0.06168 -3.928992,0.02303 -3.928992,4.52563 l 0,2.901633 3.363852,0 3.363854,0 -0.08217,1.799335 c -0.04519,0.989633 -0.117308,2.353339 -0.160258,3.030457 l -0.07809,1.231124 -3.203595,0 -3.203596,0 0,8.649431 0,8.649431 -3.282996,0 -3.282995,0 0,-8.649431 z"
       id="path3838"
       style="fill:#333333;fill-opacity:0" />
    <path
       d="m 20.273088,34.843738 0,-8.649431 -2.272844,0 -2.272843,0 0,-3.030458 0,-3.030458 2.256148,0 2.256148,0 0.06741,-3.377697 c 0.07489,-3.752393 0.151085,-4.227844 0.93586,-5.839945 0.876932,-1.8014115 2.609606,-3.1476783 4.907319,-3.8129263 0.92779,-0.2686196 1.238026,-0.2904997 4.064344,-0.2866477 2.071531,0.00282 3.105228,0.049517 3.200273,0.1445623 0.100177,0.100177 0.11403,0.9373557 0.04836,2.9226295 l -0.09203,2.7822372 -2.603167,0.04052 c -3.96255,0.06168 -3.928992,0.02303 -3.928992,4.52563 l 0,2.901633 3.363852,0 3.363854,0 -0.08217,1.799335 c -0.04519,0.989633 -0.117308,2.353339 -0.160258,3.030457 l -0.07809,1.231124 -3.203595,0 -3.203596,0 0,8.649431 0,8.649431 -3.282996,0 -3.282995,0 0,-8.649431 z"
       id="path3840"
       style="fill:#333333;fill-opacity:0" />
  </g>
</svg>
