<?xml version="1.0" encoding="UTF-8" standalone="no"?>
<svg width="1000px" height="1000px" viewBox="0 0 1000 1000" version="1.1" xmlns="http://www.w3.org/2000/svg" xmlns:xlink="http://www.w3.org/1999/xlink" xmlns:sketch="http://www.bohemiancoding.com/sketch/ns">
    <title>Facebook</title>
    <description>Created with Sketch (http://www.bohemiancoding.com/sketch)</description>
    <defs></defs>
    <g id="Page 1" fill="#D8D8D8" fill-rule="evenodd">
        <g id="Facebook" fill="#000000">
            <g id="Page 1" fill="#D8D8D8">
                <g id="Facebook" fill="#000000">
                    <g id="Page 1" fill="#D8D8D8">
                        <g id="svg2" fill="#000000">
                            <g id="layer1">
                                <path d="M500,-0.0002 C223.857,-0.0002 0,223.8568 0,499.9998 C0,776.1428 223.857,999.9998 500,999.9998 C776.143,999.9998 1000,776.1428 1000,499.9998 C1000,223.8568 776.143,-0.0002 500,-0.0002 L500,-0.0002 L500,-0.0002 Z M595,123.7498 C629.651,123.8508 669.609,126.4838 671.875,128.7498 C672.364,129.2388 672.041,155.1908 671.25,186.8748 L670,244.9998 L626.25,244.9998 C565.087,245.0578 552.423,248.2218 543.125,265.6248 C538.737,273.8378 538.718,276.4048 538.125,333.1248 L537.5,391.8748 L605,391.8748 L672.5,391.8748 L671.875,408.1248 C671.763,417.2628 670.647,445.7758 669.375,471.2498 L667.5,517.4998 L602.5,518.1248 L537.5,518.7498 L537.5,693.1248 L537.5,866.8748 L471.25,866.8748 C434.885,866.8748 404.536,866.4108 403.75,865.6248 C402.964,864.8388 402.971,786.2678 403.75,691.2498 L405,518.7498 L358.75,518.7498 L311.875,518.7498 L311.875,454.9998 L311.875,391.8748 L358.125,391.8748 L404.375,391.8748 L405,320.6248 C405.71,255.5858 406.154,248.5158 410,236.2498 C425.699,186.1768 458.001,152.3738 506.875,134.9998 C531.869,126.1148 552.77,123.6268 595,123.7498 L595,123.7498 L595,123.7498 Z M595,123.7498" id="path2985" fill="#808080"></path>
                            </g>
                            <g id="layer2">
                                <path d="M20.273,984.844 L20.273,976.195 L18,976.195 L15.728,976.195 L15.728,973.165 L15.728,970.135 L17.984,970.135 L20.24,970.135 L20.307,966.757 C20.382,963.004 20.458,962.529 21.243,960.917 C22.12,959.115 23.852,957.769 26.15,957.104 C27.078,956.835 27.388,956.814 30.214,956.818 C32.285,956.821 33.319,956.867 33.414,956.963 C33.514,957.063 33.528,957.901 33.462,959.886 L33.37,962.668 L30.767,962.708 C26.805,962.77 26.838,962.731 26.838,967.233 L26.838,970.135 L30.202,970.135 L33.566,970.135 L33.483,971.934 C33.438,972.923 33.366,974.288 33.323,974.964 L33.245,976.195 L30.041,976.195 L26.837,976.195 L26.837,984.844 L26.837,993.493 L23.554,993.493 L20.271,993.493 L20.271,984.844 L20.273,984.844 L20.273,984.844 Z M20.273,984.844" id="path3838" fill-opacity="0" fill="#333333"></path>
                                <path d="M20.273,984.844 L20.273,976.195 L18,976.195 L15.728,976.195 L15.728,973.165 L15.728,970.135 L17.984,970.135 L20.24,970.135 L20.307,966.757 C20.382,963.004 20.458,962.529 21.243,960.917 C22.12,959.115 23.852,957.769 26.15,957.104 C27.078,956.835 27.388,956.814 30.214,956.818 C32.285,956.821 33.319,956.867 33.414,956.963 C33.514,957.063 33.528,957.901 33.462,959.886 L33.37,962.668 L30.767,962.708 C26.805,962.77 26.838,962.731 26.838,967.233 L26.838,970.135 L30.202,970.135 L33.566,970.135 L33.483,971.934 C33.438,972.923 33.366,974.288 33.323,974.964 L33.245,976.195 L30.041,976.195 L26.837,976.195 L26.837,984.844 L26.837,993.493 L23.554,993.493 L20.271,993.493 L20.271,984.844 L20.273,984.844 L20.273,984.844 Z M20.273,984.844" id="path3840" fill-opacity="0" fill="#333333"></path>
                            </g>
                        </g>
                    </g>
                </g>
            </g>
        </g>
    </g>
</svg>