<?xml version="1.0" encoding="UTF-8" standalone="no"?>
<!-- Created with Inkscape (http://www.inkscape.org/) -->

<svg
   xmlns:dc="http://purl.org/dc/elements/1.1/"
   xmlns:cc="http://creativecommons.org/ns#"
   xmlns:rdf="http://www.w3.org/1999/02/22-rdf-syntax-ns#"
   xmlns:svg="http://www.w3.org/2000/svg"
   xmlns="http://www.w3.org/2000/svg"
   xmlns:sodipodi="http://sodipodi.sourceforge.net/DTD/sodipodi-0.dtd"
   xmlns:inkscape="http://www.inkscape.org/namespaces/inkscape"
   width="1000"
   height="1000"
   id="svg2"
   version="1.1"
   inkscape:version="0.48.2 r9819"
   sodipodi:docname="Fancy.svg">
  <defs
     id="defs4" />
  <sodipodi:namedview
     id="base"
     pagecolor="#ffffff"
     bordercolor="#666666"
     borderopacity="1.0"
     inkscape:pageopacity="0.0"
     inkscape:pageshadow="2"
     inkscape:zoom="0.35"
     inkscape:cx="517.43661"
     inkscape:cy="667.46188"
     inkscape:document-units="px"
     inkscape:current-layer="layer1"
     showgrid="false"
     inkscape:window-width="777"
     inkscape:window-height="530"
     inkscape:window-x="0"
     inkscape:window-y="0"
     inkscape:window-maximized="0">
    <inkscape:grid
       type="xygrid"
       id="grid3825"
       empspacing="5"
       visible="true"
       enabled="true"
       snapvisiblegridlinesonly="true" />
  </sodipodi:namedview>
  <metadata
     id="metadata7">
    <rdf:RDF>
      <cc:Work
         rdf:about="">
        <dc:format>image/svg+xml</dc:format>
        <dc:type
           rdf:resource="http://purl.org/dc/dcmitype/StillImage" />
        <dc:title />
      </cc:Work>
    </rdf:RDF>
  </metadata>
  <g
     inkscape:label="Layer 1"
     inkscape:groupmode="layer"
     id="layer1"
     transform="translate(0,-52.362183)">
    <path
       style="fill:#808080;fill-opacity:1"
       d="M 500 0 C 223.85763 -1.1368684e-13 0 223.85763 0 500 C -1.1368684e-13 776.14237 223.85763 1000 500 1000 C 776.14237 1000 1000 776.14237 1000 500 C 1000 223.85763 776.14237 -1.2789769e-13 500 0 z M 495.375 101.5625 C 511.46619 101.644 529.45682 103.77307 550 108 C 590.55183 116.34385 611.5096 124.25389 635.75 140.34375 C 678.81109 168.92608 704.17976 207.84052 720.9375 271 C 726.73929 292.86676 727.30503 310.34072 727.3125 468.09375 C 727.3228 654.05464 727.59242 651.20894 709.3125 664.78125 C 700.45221 671.35983 694.10355 671.95963 621.0625 673.21875 L 542.34375 674.5625 L 542.125 759 C 541.87272 863.2952 540.43273 873.53688 523.96875 888.625 C 513.44405 898.27018 509.11986 899.9658 495.25 899.78125 C 486.26732 899.66158 475.83302 898.27838 472.0625 896.71875 C 468.29198 895.15921 461.43334 889.81671 456.8125 884.84375 C 445.65292 872.83381 443.31663 850.36106 443.09375 752.15625 L 442.9375 674.59375 L 369.28125 673.1875 C 301.6302 671.87632 294.86121 671.18163 286.15625 664.71875 C 267.95996 651.20906 268.21051 654.01467 268.15625 467.1875 C 268.10825 302.01536 268.46342 291.81095 275.1875 266.71875 C 285.91068 226.70396 303.60946 196.0597 333.21875 166.15625 C 368.47397 130.55081 385.2836 122.51886 460.96875 105.09375 C 471.48685 102.67217 482.85963 101.49911 495.375 101.5625 z "
       transform="translate(0,52.362183)"
       id="path2987" />
    <path
       style="fill:#000000"
       d=""
       id="path3819"
       inkscape:connector-curvature="0" />
  </g>
</svg>
