<?xml version="1.0" encoding="UTF-8" standalone="no"?>
<svg width="1001px" height="1002px" viewBox="0 0 1001 1002" version="1.1" xmlns="http://www.w3.org/2000/svg" xmlns:xlink="http://www.w3.org/1999/xlink" xmlns:sketch="http://www.bohemiancoding.com/sketch/ns">
    <title>Fancy</title>
    <description>Created with Sketch (http://www.bohemiancoding.com/sketch)</description>
    <defs></defs>
    <g id="Page 1" fill="#D8D8D8" fill-rule="evenodd">
        <path d="M500,0.5 C223.857,0.5 0,224.357 0,500.5 C0,776.643 223.857,1000.5 500,1000.5 C776.143,1000.5 1000,776.643 1000,500.5 C1000,224.357 776.143,0.5 500,0.5 L500,0.5 L500,0.5 Z M495.375,102.063 C511.466,102.145 529.457,104.273 550,108.501 C590.552,116.845 611.51,124.755 635.75,140.845 C678.812,169.428 704.18,208.342 720.938,271.501 C726.74,293.368 727.305,310.842 727.313,468.595 C727.324,654.556 727.593,651.71 709.313,665.283 C700.453,671.861 694.104,672.462 621.063,673.721 L542.344,675.065 L542.125,759.503 C541.873,863.798 540.433,874.04 523.969,889.128 C513.445,898.774 509.12,900.469 495.25,900.284 C486.268,900.164 475.833,898.781 472.062,897.222 C468.291,895.663 461.433,890.32 456.812,885.347 C445.653,873.337 443.316,850.865 443.093,752.659 L442.937,675.097 L369.281,673.691 C301.63,672.379 294.861,671.685 286.156,665.222 C267.96,651.712 268.21,654.518 268.156,467.691 C268.108,302.519 268.463,292.315 275.187,267.222 C285.91,227.207 303.609,196.563 333.218,166.66 C368.473,131.055 385.282,123.023 460.968,105.598 C471.487,103.173 482.859,101.999 495.375,102.063 L495.375,102.063 L495.375,102.063 Z M495.375,102.063" id="Fancy" fill="#808080"></path>
    </g>
</svg>