<?xml version="1.0" encoding="UTF-8" standalone="no"?>
<svg width="1001px" height="1002px" viewBox="0 0 1001 1002" version="1.1" xmlns="http://www.w3.org/2000/svg" xmlns:xlink="http://www.w3.org/1999/xlink" xmlns:sketch="http://www.bohemiancoding.com/sketch/ns">
    <title>Flickr</title>
    <description>Created with Sketch (http://www.bohemiancoding.com/sketch)</description>
    <defs></defs>
    <g id="Page 1" fill="#D8D8D8" fill-rule="evenodd">
        <path d="M500,0.5 C223.85763,0.5 0,224.35763 0,500.5 C1.13686838e-13,776.64237 223.85763,1000.5 500,1000.5 C776.14237,1000.5 1000,776.64237 1000,500.5 C1000,224.35763 776.14237,0.5 500,0.5 L500,0.5 L500,0.5 Z M296,322.5 C394.25528,322.5 473.90625,402.15097 473.90625,500.40625 C473.90625,598.66153 394.25528,678.3125 296,678.3125 C197.74472,678.3125 118.09375,598.66153 118.09375,500.40625 C118.09375,402.15097 197.74472,322.5 296,322.5 L296,322.5 L296,322.5 Z M705.1875,322.5 C803.44278,322.5 883.09375,402.15097 883.09375,500.40625 C883.09375,598.66153 803.44278,678.3125 705.1875,678.3125 C606.93222,678.3125 527.28125,598.66153 527.28125,500.40625 C527.28125,402.15097 606.93222,322.5 705.1875,322.5 L705.1875,322.5 L705.1875,322.5 Z M705.1875,322.5" id="Flickr" fill="#808080"></path>
    </g>
</svg>