<?xml version="1.0" encoding="UTF-8" standalone="no"?>
<svg width="200px" height="200px" viewBox="0 0 200 200" version="1.1" xmlns="http://www.w3.org/2000/svg" xmlns:xlink="http://www.w3.org/1999/xlink" xmlns:sketch="http://www.bohemiancoding.com/sketch/ns">
    <title>Foursquare</title>
    <description>Created with Sketch (http://www.bohemiancoding.com/sketch)</description>
    <defs></defs>
    <g id="Page-1" stroke="none" stroke-width="1" fill="none" fill-rule="evenodd" sketch:type="MSPage">
        <path d="M100,200 C155.228478,200 200,155.228478 200,100 C200,44.7715223 155.228478,0 100,0 C44.7715223,0 0,44.7715223 0,100 C0,155.228478 44.7715223,200 100,200 Z M164.678554,88.1510508 L108.546689,144.305871 C106.123282,146.706323 102.916122,148.026243 99.5023654,148.026243 L97.0100936,148.022964 L96.4870444,147.673718 C94.1997291,147.129353 92.0845773,145.950443 90.4137713,144.271439 L53.4822372,107.264481 C51.06211,104.849272 49.7274329,101.637193 49.7290725,98.2201572 C49.7290725,94.8014816 51.0653893,91.5861229 53.4838769,89.174194 L64.4105215,78.2573873 C66.7847384,75.8962876 70.0689624,74.5386553 73.449926,74.5320967 C76.8210517,74.5320967 80.118393,75.9061255 82.4860512,78.286901 L99.513843,95.3458462 L135.686218,59.1570747 L111.594803,35.0656597 C105.216555,28.6890509 94.7834454,28.6890509 88.405197,35.0656597 L35.0656597,88.405197 C28.6874113,94.7818057 28.6874113,105.218194 35.0656597,111.594803 L88.4068366,164.93434 C94.7850851,171.310949 105.218194,171.310949 111.596443,164.93434 L164.93434,111.594803 C171.312589,105.218194 171.312589,94.7834454 164.93434,88.405197 L164.678554,88.1510508 Z M157.879537,55.1929514 C157.003962,54.3222959 155.862764,53.8418777 154.633025,53.8467967 C153.404925,53.8418777 152.253889,54.3239355 151.379954,55.1880324 L99.2324443,107.358497 L76.4068411,84.4902632 C75.5525821,83.632725 74.3785909,83.1391895 73.1619687,83.1424688 C71.9568241,83.1457482 70.7729949,83.6294457 69.9154567,84.4837046 L59.0019293,95.3857545 C57.2048701,97.1778947 57.1983114,100.08008 58.9970103,101.87386 L95.940022,138.893935 C96.6795053,139.635058 97.6387021,140.0958 98.6618452,140.207297 C98.8356484,140.231891 99.0110912,140.24009 99.1865341,140.23845 C100.458904,140.243369 101.629616,139.756392 102.503551,138.890656 L168.773388,72.594584 C170.567168,70.8040834 170.568808,67.9018984 168.776668,66.1064788 L157.879537,55.1929514 Z" id="Foursquare" fill="#808080" sketch:type="MSShapeGroup"></path>
    </g>
</svg>