<?xml version="1.0" encoding="UTF-8" standalone="no"?>
<svg width="1001px" height="1002px" viewBox="0 0 1001 1002" version="1.1" xmlns="http://www.w3.org/2000/svg" xmlns:xlink="http://www.w3.org/1999/xlink" xmlns:sketch="http://www.bohemiancoding.com/sketch/ns">
    <title>GitHub</title>
    <description>Created with Sketch (http://www.bohemiancoding.com/sketch)</description>
    <defs></defs>
    <g id="Page 1" fill="#D8D8D8" fill-rule="evenodd">
        <path d="M500,0.5 C223.857,0.5 0,224.357 0,500.5 C0,776.643 223.857,1000.5 500,1000.5 C776.143,1000.5 1000,776.643 1000,500.5 C1000,224.357 776.143,0.5 500,0.5 L500,0.5 L500,0.5 Z M740.156,121.938 C747.231,121.67 750.663,123.505 753.281,127.5 C763.849,143.63 769.923,190.186 765.781,223.469 L763.125,244.781 L776.031,260.437 C801.687,291.541 815.775,329.149 818.593,374.125 C820.17,399.292 816.626,458.373 812.343,478.344 C810.939,484.894 810.212,490.682 810.749,491.219 C811.286,491.756 834.194,491.108 861.655,489.781 C890.933,488.367 915.44,488.214 920.905,489.406 C927.589,490.864 914.415,491.811 874.311,492.75 C843.337,493.475 815.56,495.177 812.061,496.562 C807.82,498.242 805.097,501.572 803.749,506.718 C801.351,515.872 795.215,514.659 860.343,517.843 C887.254,519.158 912.92,521.17 917.405,522.312 C928.289,525.083 922.238,525.205 902.28,522.593 C893.309,521.419 866.551,520.281 842.842,520.093 L799.748,519.781 L791.81,533.375 C780.071,553.482 749.609,582.722 729.591,593.094 C705.368,605.645 668.03,617.407 635.185,622.844 C619.331,625.468 604.913,628.12 603.154,628.719 C600.951,629.469 603.257,633.288 610.529,641.063 C622.508,653.87 628.609,664.835 634.123,683.313 C637.141,693.424 638.282,711.422 639.435,768.657 C640.846,838.682 640.727,841.239 636.435,842.532 C622.409,846.758 596.73,853.407 594.404,853.407 C592.422,853.407 591.437,835.91 590.748,788.751 C589.763,721.411 588.511,712.66 578.748,704.563 C575.173,701.598 574.904,707.075 574.904,779.532 L574.904,857.688 L559.185,859.407 C550.535,860.358 539.248,861.233 534.123,861.345 L524.811,861.564 L523.342,819.626 C522.541,796.56 521.752,759.06 521.592,736.314 L521.311,694.97 L514.342,694.97 L507.342,694.97 L507.342,778.845 L507.342,862.72 L488.123,862.345 C477.551,862.14 465.476,861.549 461.311,861.033 L453.749,860.095 L453.749,779.564 C453.749,706.746 453.393,699.357 450.093,702.095 C439.314,711.041 438.652,715.828 437.874,788.814 L437.124,858.22 L428.53,856.658 C423.81,855.794 413.141,853.375 404.811,851.314 L389.686,847.564 L389.03,802.502 L388.405,757.44 L376.874,759.034 C355.656,761.952 318.076,760.917 305.124,757.065 C274.128,747.848 255.44,730.963 239.155,697.409 C225.457,669.185 213.116,652.574 194.811,637.784 C175.674,622.322 172.116,616.985 178.623,613.503 C181.118,612.168 188.748,611.109 195.561,611.128 C207.073,611.16 207.538,611.357 202.123,614.097 C194.175,618.118 194.651,623.703 203.029,624.659 C210.529,625.515 214.844,621.044 210.998,616.409 C203.596,607.49 228.101,620.839 241.06,632.784 C246.851,638.122 256.242,648.993 261.935,656.972 C285.859,690.498 311.159,703.96 345.123,701.253 C364.816,699.684 388.466,692.817 390.998,687.941 C391.989,686.031 395.152,678.309 398.029,670.785 C401.381,662.017 407.8,652.224 415.873,643.504 C427.765,630.659 428.138,629.832 423.029,628.816 C420.052,628.224 405.063,625.519 389.685,622.785 C332.639,612.643 290.541,593.668 258.966,563.847 C248.415,553.882 236.36,540.37 232.154,533.816 L224.498,521.878 L174.279,523.316 C146.363,524.108 115.81,526.27 105.498,528.191 C88.652,531.329 82.963,531.413 85.904,528.472 C87.737,526.639 155.192,520.3 188.716,518.816 C206.337,518.036 220.747,516.405 220.747,515.191 C220.747,513.977 219.192,509.955 217.278,506.253 C212.554,497.119 206.145,496.441 136.278,497.347 C104.56,497.759 78.621,497.376 78.622,496.535 C78.627,493.442 125.256,491.62 167.966,493.035 C208.991,494.394 211.802,494.239 210.341,490.473 C209.481,488.255 206.5,477.522 203.716,466.629 C199.278,449.261 198.635,440.52 198.622,395.567 C198.608,347.729 198.992,343.226 204.153,328.005 C211.395,306.651 223.903,282.704 235.997,267.13 L245.716,254.63 L241.154,235.38 C235.445,211.408 236.463,173.656 243.529,147.974 C250.108,124.063 251.034,123.257 270.779,124.786 C296.159,126.752 328.383,139.603 368.717,163.817 L387.373,175.005 L405.998,170.505 C462.38,156.876 543.602,155.59 603.748,167.38 L622.092,170.974 L641.311,159.193 C667.643,143.045 693.381,131.673 715.717,126.318 C726.949,123.62 734.653,122.146 740.156,121.938 L740.156,121.938 L740.156,121.938 Z M227.812,627.406 C222.516,627.406 220.75,628.453 220.75,631.656 C220.75,638.967 227.299,641.466 234.5,636.906 C239.891,633.492 235.597,627.406 227.812,627.406 L227.812,627.406 L227.812,627.406 Z M241.5,644.188 C236.599,644.247 233.841,647.36 235.562,651.844 C237.525,656.959 249.561,655.635 250.593,650.188 C251.103,647.498 249.329,645.697 245.187,644.657 C243.854,644.321 242.631,644.174 241.5,644.188 L241.5,644.188 L241.5,644.188 Z M255.844,664.656 C247.496,664.656 244.238,668.998 249.625,672.937 C254.93,676.816 262.687,674.514 262.687,669.062 C262.688,665.76 261.001,664.656 255.844,664.656 L255.844,664.656 L255.844,664.656 Z M269.75,681.375 C269.407,681.375 269.059,681.389 268.719,681.437 C265.726,681.865 263.583,684.148 263.125,687.375 C262.494,691.815 263.434,692.625 269.375,692.625 C273.233,692.625 277.08,691.525 277.906,690.187 C280.08,686.67 274.889,681.383 269.75,681.375 L269.75,681.375 L269.75,681.375 Z M288.562,697.531 C283.314,697.649 280.429,700.937 282.156,705.437 C284.355,711.166 296.468,709.212 296.468,703.125 C296.468,699.998 294.666,698.211 290.968,697.687 C290.129,697.569 289.312,697.515 288.562,697.531 L288.562,697.531 L288.562,697.531 Z M372.188,701.938 C369.939,701.938 366.815,703.516 365.219,705.438 C361.657,709.729 365.766,715.938 372.188,715.938 C374.437,715.938 377.592,714.36 379.188,712.438 C382.749,708.147 378.609,701.938 372.188,701.938 L372.188,701.938 L372.188,701.938 Z M343.812,706.719 C338.946,707.059 335.881,711.323 338.156,717.25 C339.968,721.97 348.777,720.733 352.156,715.281 C354.138,712.081 353.918,710.627 351.218,708.906 C348.59,707.231 346.024,706.565 343.812,706.719 L343.812,706.719 L343.812,706.719 Z M316.375,707.094 C313.204,707.224 310.252,709.034 309.656,712.156 C308.208,719.748 318.104,723.332 323.281,717.094 C325.599,714.301 325.58,712.883 323.187,710 C321.463,707.922 318.842,706.993 316.375,707.094 L316.375,707.094 L316.375,707.094 Z M316.375,707.094" id="GitHub" fill="#808080"></path>
    </g>
</svg>