<?xml version="1.0" encoding="UTF-8" standalone="no"?>
<svg width="200px" height="200px" viewBox="0 0 200 200" version="1.1" xmlns="http://www.w3.org/2000/svg" xmlns:xlink="http://www.w3.org/1999/xlink" xmlns:sketch="http://www.bohemiancoding.com/sketch/ns">
    <title>Gittip</title>
    <description>Created with Sketch (http://www.bohemiancoding.com/sketch)</description>
    <defs></defs>
    <g id="Page-1" stroke="none" stroke-width="1" fill="none" fill-rule="evenodd" sketch:type="MSPage">
        <path d="M100,0 C44.771524,3.03201907e-14 0,44.771524 0,100 C0,155.228476 44.771524,200 100,200 C155.228476,200 200,155.228476 200,100 C200,44.771524 155.228476,-3.41060513e-14 100,0 Z M111.410273,60.5540541 C109.295408,63.0135135 105.667029,65.9121622 98.8156781,65.9121622 C91.9643268,65.9121622 88.3359484,63.0135135 86.2210835,60.5540541 C80.5386511,53.9527027 69.7008133,48.2567568 58.3021646,55.777027 C44.903516,64.6081081 48.8021646,80.5743243 52.70757,85.1689189 L98.8156781,147.594595 L144.923786,85.1689189 C148.822435,80.5743243 152.721084,64.6081081 139.329192,55.777027 C127.923786,48.2567568 117.085948,53.9527027 111.410273,60.5540541 Z" id="Gittip" fill="#808080" sketch:type="MSShapeGroup"></path>
    </g>
</svg>