<?xml version="1.0" encoding="UTF-8" standalone="no"?>
<svg width="200px" height="200px" viewBox="0 0 200 200" version="1.1" xmlns="http://www.w3.org/2000/svg" xmlns:xlink="http://www.w3.org/1999/xlink" xmlns:sketch="http://www.bohemiancoding.com/sketch/ns">
    <title>Goodreads</title>
    <description>Created with Sketch (http://www.bohemiancoding.com/sketch)</description>
    <defs></defs>
    <g id="Page-1" stroke="none" stroke-width="1" fill="none" fill-rule="evenodd" sketch:type="MSPage">
        <path d="M100,0 C44.771524,3.03201907e-14 0,44.771524 0,100 C0,155.228476 44.771524,200 100,200 C155.228476,200 200,155.228476 200,100 C200,44.771524 155.228476,-3.41060513e-14 100,0 L100,0 L100,0 Z M99.62248,128.323556 C114.81688,128.197556 125.62144,120.618889 132.03148,105.590667 L132.36688,105.590667 L132.36688,128.511778 C132.36688,130.219778 132.25456,132.868889 132.03148,136.468444 C131.5744,140.194 130.35292,144.204222 128.37172,148.497556 C126.38584,152.538889 123.18004,155.982889 118.76212,158.821778 C114.39256,161.915778 108.29608,163.525778 100.468,163.653333 C92.92696,163.653333 86.54968,161.694889 81.32992,157.781111 C75.99472,153.928 72.87784,147.676222 71.97304,139.025778 L65.33992,139.025778 C66.02008,150.264667 69.61744,158.285111 76.13824,163.085556 C82.48744,167.693111 90.54328,170 100.29952,170 C109.9372,170 117.45328,168.200222 122.83996,164.599111 C128.16892,161.127111 131.9956,156.799556 134.32312,151.621111 C136.64752,146.444222 138.03748,141.517778 138.48832,136.846444 C138.83308,132.172 139,128.826 139,126.805333 L139,32.2742222 L132.36376,32.2742222 L132.36376,53.1124444 L132.02836,53.1124444 C129.47464,45.4731111 125.25172,39.6957778 119.35024,35.7788889 C113.39728,31.9273333 106.81876,30 99.61936,30 C87.08164,30.2535556 77.55628,35.0835556 71.03704,44.4931111 C64.34308,53.8373333 61,65.364 61,79.0668889 C61,93.1493333 64.1746,104.798889 70.5238,114.018667 C76.93852,123.429778 86.63392,128.197556 99.62248,128.323556 L99.62248,128.323556 Z M75.63436,49.6093333 C80.84788,41.0833333 88.84288,36.664 99.62248,36.3482222 C110.67976,36.6655556 118.86976,40.9588889 124.20496,49.2313333 C129.53392,57.5053333 132.19996,67.45 132.19996,79.07 C132.19996,90.69 129.53392,100.570889 124.20496,108.717333 C118.86976,117.370889 110.67976,121.788667 99.62248,121.978444 C89.18764,121.787111 81.24412,117.492222 75.80284,109.095333 C70.30072,100.948889 67.552,90.9404444 67.552,79.0684444 C67.55044,67.954 70.24456,58.1337778 75.63436,49.6093333 L75.63436,49.6093333 Z" id="Goodreads" fill="#808080" sketch:type="MSShapeGroup"></path>
    </g>
</svg>