<?xml version="1.0" encoding="UTF-8" standalone="no"?>
<svg width="201px" height="200px" viewBox="0 0 201 200" version="1.1" xmlns="http://www.w3.org/2000/svg" xmlns:xlink="http://www.w3.org/1999/xlink" xmlns:sketch="http://www.bohemiancoding.com/sketch/ns">
    <title>GooglePlus</title>
    <description>Created with Sketch (http://www.bohemiancoding.com/sketch)</description>
    <defs></defs>
    <g id="Page 1" stroke="none" stroke-width="1" fill="none" fill-rule="evenodd">
        <path d="M100.5,0 C64.2562,0 32.5386,19.2602 15,48.125 C20.4712,44.2438 26.2332,41.6286 32.125,40.375 C39.3012,38.88 45.8704,38.125 52,38.125 L98.25,38.125 L83.875,46.25 L70,46.25 C71.3456,47.2966 72.8308,48.706 74.625,50.5 C76.419,52.1446 78.2304,54.2084 79.875,56.75 C81.5196,59.1422 82.929,61.961 84.125,65.25 C85.3208,68.5392 85.875,72.314 85.875,76.5 C85.875,80.6862 85.4214,84.3606 84.375,87.5 C83.3284,90.6396 81.794,93.4584 80,96 C78.2058,98.3922 76.2424,100.657 74,102.75 C71.7574,104.6936 69.392,106.581 67,108.375 C65.5048,109.8702 64.0956,111.3554 62.75,113 C61.4044,114.6446 60.75,116.7084 60.75,119.25 C60.75,121.7916 61.4044,123.88 62.75,125.375 C64.0956,126.7206 65.429,127.9536 66.625,129 L74.625,135.25 C77.017,137.343 79.3824,139.407 81.625,141.5 C84.017,143.593 85.9802,145.858 87.625,148.25 C89.419,150.642 90.9534,153.26 92,156.25 C93.0464,159.24 93.4998,162.7378 93.5,166.625 C93.4998,171.8576 92.2914,177.0418 89.75,182.125 C87.2084,187.208 83.4336,191.6128 78.5,195.5 C77.8304,196.0478 77.0914,196.6074 76.375,197.125 C84.0996,199.0378 92.184,200 100.5,200 C155.7286,200 200.5,155.2286 200.5,100 C200.5,93.4976 199.9352,87.1564 198.75,81 L161.75,81 L161.75,123.625 L148.375,123.625 L148.375,81 L105.75,81 L105.75,67.5 L148.375,67.5 L148.375,25.625 L161.75,25.625 L161.75,67.5 L195,67.5 C181.5038,28.2374 144.343,0 100.5,0 L100.5,0 L100.5,0 Z M37.875,45.5 C34.8848,45.5 31.9656,46.1546 29.125,47.5 C26.2844,48.8456 24.044,50.6326 22.25,52.875 C20.3064,55.2672 18.8724,57.9094 18.125,60.75 C17.527,63.5906 17.25,66.51 17.25,69.5 C17.25,73.2376 17.8284,77.4904 18.875,82.125 C20.071,86.7598 21.7574,91.0884 24,95.125 C26.392,99.1618 29.3114,102.5344 32.75,105.375 C36.338,108.066 40.4658,109.375 45.25,109.375 C48.0906,109.375 50.9338,108.821 53.625,107.625 C56.4656,106.429 58.7058,104.9192 60.5,103.125 C63.0414,100.5834 64.652,97.7646 65.25,94.625 C65.8478,91.4856 66.125,88.8432 66.125,86.75 C66.125,82.7134 65.5708,78.2842 64.375,73.5 C63.179,68.716 61.392,64.3112 59,60.125 C56.608,55.939 53.588,52.4412 50,49.75 C46.5614,46.9096 42.5096,45.5002 37.875,45.5 L37.875,45.5 L37.875,45.5 Z M0.625,94.875 C0.5386,96.5796 0.5,98.274 0.5,100 C0.5,116.4566 4.5826,131.9332 11.625,145.625 C12.6098,145.2224 13.6096,144.7264 14.625,144.375 C18.6616,143.179 22.6128,142.2474 26.5,141.5 C30.3872,140.7526 34.0614,140.174 37.5,139.875 C40.9386,139.576 43.8334,139.3996 46.375,139.25 C44.7304,137.157 43.245,134.9926 41.75,132.75 C40.4044,130.358 39.75,127.4386 39.75,124 C39.75,122.0564 39.9264,120.446 40.375,119.25 C40.8234,117.9044 41.277,116.5956 41.875,115.25 L38.375,115.75 L34.75,115.75 C28.7698,115.75 23.5096,114.6936 18.875,112.75 C14.2404,110.657 10.2646,108.039 7.125,104.75 C4.3326,101.8246 2.2348,98.51 0.625,94.875 L0.625,94.875 L0.625,94.875 Z M45.75,145.5 C44.1054,145.6494 42.1174,145.8504 39.875,146 C37.6324,146.299 35.2916,146.6766 32.75,147.125 C30.2084,147.723 27.767,148.3776 25.375,149.125 C24.179,149.5734 22.3674,150.228 20.125,151.125 C18.7918,151.7916 17.4582,152.6552 16.125,153.625 C28.089,172.416 46.1224,186.9028 67.5,194.375 C68.361,193.8246 69.2382,193.2632 70,192.625 C75.681,188.1398 78.5,182.4016 78.5,175.375 C78.5,172.5344 77.9214,169.892 76.875,167.5 C75.978,165.2574 74.5686,162.9926 72.625,160.75 C70.6814,158.5074 68.1394,156.267 65,153.875 C61.8604,151.483 58.186,148.74 54,145.75 C53.103,145.6004 52.3724,145.5 51.625,145.5 L48.875,145.5 L45.75,145.5 L45.75,145.5 Z M45.75,145.5" id="Google+" fill="#808080"></path>
    </g>
</svg>