<?xml version="1.0" encoding="UTF-8" standalone="no"?>
<!-- Created with Inkscape (http://www.inkscape.org/) -->

<svg
   xmlns:dc="http://purl.org/dc/elements/1.1/"
   xmlns:cc="http://creativecommons.org/ns#"
   xmlns:rdf="http://www.w3.org/1999/02/22-rdf-syntax-ns#"
   xmlns:svg="http://www.w3.org/2000/svg"
   xmlns="http://www.w3.org/2000/svg"
   version="1.1"
   width="1000"
   height="1000"
   id="svg2">
  <defs
     id="defs4">
    <clipPath
       id="clipPath3052">
      <path
         d="m 0.06,162.536 199.94,0 0,-162.476 -199.94,0 0,162.476 z"
         id="path3054" />
    </clipPath>
  </defs>
  <metadata
     id="metadata7">
    <rdf:RDF>
      <cc:Work
         rdf:about="">
        <dc:format>image/svg+xml</dc:format>
        <dc:type
           rdf:resource="http://purl.org/dc/dcmitype/StillImage" />
        <dc:title></dc:title>
      </cc:Work>
    </rdf:RDF>
  </metadata>
  <path
     d="M 500,-2 C 223.85763,-2 0,221.85763 0,498 0,774.14237 223.85763,998 500,998 776.14237,998 1000,774.14237 1000,498 1000,221.85763 776.14237,-2 500,-2 z m -237.25,160 478.84375,0 c 55.71598,0 100.59375,40.06583 100.59375,89.84375 l 0,500.3125 C 842.1875,797.93417 797.30973,838 741.59375,838 L 262.75,838 c -55.71598,0 -100.5625,-40.06583 -100.5625,-89.84375 l 0,-500.3125 C 162.1875,198.06583 207.03402,158 262.75,158 z m 414.71875,70.40625 c -12.52341,0 -22.625,10.07034 -22.625,22.59375 l 0,72.34375 c 0,12.52341 10.10159,22.59375 22.625,22.59375 l 72.34375,0 c 12.52341,0 22.59375,-10.07034 22.59375,-22.59375 l 0,-72.34375 c 0,-12.52341 -10.07034,-22.59375 -22.59375,-22.59375 l -72.34375,0 z M 616.3125,356.5 c 0.49616,0.35458 1.00723,0.7035 1.5,1.0625 l 0,-1.0625 -1.5,0 z M 500,370 c -82.84271,0 -150,67.15729 -150,150 0,82.84271 67.15729,150 150,150 82.84271,0 150,-67.15729 150,-150 0,-82.84271 -67.15729,-150 -150,-150 z M 200,426.3125 200,738 c 0,33.24 26.76,60 60,60 l 480,0 c 33.24,0 60,-26.76 60,-60 l 0,-305.34375 -119.59375,0 C 692.95099,458.77118 700,488.02849 700,518.9375 c 0,110.19977 -89.33148,199.53125 -199.53125,199.53125 -110.19977,0 -199.53125,-89.33148 -199.53125,-199.53125 0,-33.4363 8.24574,-64.94337 22.78125,-92.625 l -123.71875,0 z"
     id="path2986"
     style="fill:#808080;fill-opacity:1;stroke:none" />
</svg>
