<?xml version="1.0" encoding="UTF-8" standalone="no"?>
<svg width="200px" height="200px" viewBox="0 0 200 200" version="1.1" xmlns="http://www.w3.org/2000/svg" xmlns:xlink="http://www.w3.org/1999/xlink" xmlns:sketch="http://www.bohemiancoding.com/sketch/ns">
    <title>Instagram</title>
    <description>Created with Sketch (http://www.bohemiancoding.com/sketch)</description>
    <defs></defs>
    <g id="Page-1" stroke="none" stroke-width="1" fill="none" fill-rule="evenodd" sketch:type="MSPage">
        <path d="M100,0 C44.7714,0 0,44.7714 0,100 C0,155.2286 44.7714,200 100,200 C155.2286,200 200,155.2286 200,100 C200,44.7714 155.2286,0 100,0 Z M150.003136,165 L49.9968638,165 C41.7151679,165 35,158.282476 35,149.994964 L35,49.9969963 C35,41.7140787 41.7151679,35 49.9968638,35 L150.003136,35 C158.285981,35 165,41.7140787 165,49.9969963 L165,149.994964 C165,158.282476 158.285981,165 150.003136,165 Z M155,88 L142.438773,88 C143.354031,91.5742396 143.894519,95.3087878 143.894519,99.1703003 C143.894519,123.842429 124.018868,143.837394 99.4993626,143.837394 C74.9811316,143.837394 55.1042066,123.842429 55.1042066,99.1703003 C55.1042066,95.3087878 55.6472432,91.5742396 56.5625022,88 L44,88 L44,149.421262 C44,152.500469 46.485731,155 49.5552901,155 L149.44471,155 C152.514269,155 155,152.500469 155,149.421262 L155,88 Z M156,48.9990813 C156,46.239423 153.760577,44 150.995177,44 L135.999081,44 C133.237126,44 131,46.239423 131,48.9990813 L131,64.0009187 C131,66.760577 133.237126,69 135.999081,69 L150.995177,69 C153.760577,69 156,66.760577 156,64.0009187 L156,48.9990813 Z M100.498369,65 C80.8917497,65 65,80.890484 65,100.497554 C65,120.101362 80.8917497,136 100.498369,136 C120.104989,136 136,120.101362 136,100.497554 C136,80.890484 120.104989,65 100.498369,65 Z" id="Instagram" fill="#808080" sketch:type="MSShapeGroup"></path>
    </g>
</svg>