<?xml version="1.0" encoding="UTF-8" standalone="no"?>
<svg width="201px" height="200px" viewBox="0 0 201 200" version="1.1" xmlns="http://www.w3.org/2000/svg" xmlns:xlink="http://www.w3.org/1999/xlink" xmlns:sketch="http://www.bohemiancoding.com/sketch/ns">
    <title>iTunes</title>
    <description>Created with Sketch (http://www.bohemiancoding.com/sketch)</description>
    <defs></defs>
    <g id="Page 1" stroke="none" stroke-width="1" fill="none" fill-rule="evenodd">
        <path d="M100.499998,0 C45.271526,0 0.5,44.771526 0.5,100.000004 C0.5,155.228484 45.271526,200 100.499998,200 C155.728474,200 200.5,155.228484 200.5,100.000004 C200.5,44.771526 155.728474,0 100.499998,0 L100.499998,0 L100.499998,0 Z M149.749998,48.875004 C149.667358,61.549002 149.459118,86.553404 149.25,104.375006 L148.874998,136.750006 L147.5,139.125008 C144.50045,144.525808 137.84286,149.536608 131.75,150.875006 C128.047014,151.689006 120.565084,151.149408 117.375,149.87501 C112.6057,147.968208 108.224878,143.491408 106.875,139.125008 C106.50776,137.937406 106.364264,135.726006 106.499998,133.500008 C106.80496,128.498406 108.39468,125.325608 112.5,121.250006 C118.912334,114.883606 124.893692,113.381804 137.25,115.125004 L139.25,115.375006 L139.25,90.000004 L139.25,64.750004 L137.499998,64.750004 C135.45874,64.752044 119.078532,67.124004 108.499998,69.000002 C101.480616,70.244402 90.425478,72.662402 81.874998,74.750006 L77.499998,75.750004 L77.125002,107.375006 C76.77168,141.905808 76.324052,152.465008 75.125,155.125008 C74.089264,157.421806 68.401528,163.077004 65.5,164.625 C64.195908,165.320202 61.8743,166.214616 60.374998,166.625014 C57.133964,167.513814 50.453106,167.611616 47.125,166.750002 C39.582038,164.78281 34.413816,158.731602 33.750002,151.250008 C33.483202,148.243206 33.529998,147.649808 34.875,144.625008 C37.857372,137.917008 44.84464,132.142406 51.624998,130.750008 C54.518838,130.155208 62.429878,130.383006 65.625,131.125004 L66.875,131.500008 L66.875,87.625004 C66.875,57.226202 67.014162,43.339602 67.375002,42.250002 C67.940556,40.543202 67.19832,40.902002 79.249998,37.250002 C90.41858,33.865202 102.722165,30.2392578 113.125,28.375002 C120.783613,27.0025286 135.363296,26.0824 143,26.000002 L150,25.875 L149.749998,48.875004 Z M149.749998,48.875004" id="iTunes" fill="#808080"></path>
    </g>
</svg>