<?xml version="1.0" encoding="UTF-8" standalone="no"?>
<!-- Created with Inkscape (http://www.inkscape.org/) -->

<svg
   xmlns:dc="http://purl.org/dc/elements/1.1/"
   xmlns:cc="http://creativecommons.org/ns#"
   xmlns:rdf="http://www.w3.org/1999/02/22-rdf-syntax-ns#"
   xmlns:svg="http://www.w3.org/2000/svg"
   xmlns="http://www.w3.org/2000/svg"
   version="1.1"
   width="1000"
   height="1000"
   id="svg2">
  <defs
     id="defs4">
    <clipPath
       id="clipPath3007">
      <path
         d="m 11.607143,1014.6836 c 0.357143,0 0.715752,0.032 1.071428,0 1.205326,-0.1095 0.576272,-0.1491 1.607143,-0.5357 0.229797,-0.086 0.476191,-0.119 0.714286,-0.1786 0.238095,-0.059 0.478306,-0.1111 0.714286,-0.1785 0.180988,-0.052 0.353103,-0.1329 0.535714,-0.1786 0.294451,-0.074 0.602144,-0.091 0.892857,-0.1786 0.307027,-0.092 0.58583,-0.265 0.892857,-0.3571 0.290713,-0.087 0.60492,-0.083 0.892857,-0.1786 0.252539,-0.084 0.461748,-0.2729 0.714286,-0.3571 0.287938,-0.096 0.608669,-0.072 0.892857,-0.1786 0.200952,-0.075 0.343756,-0.2612 0.535715,-0.3571 0.168358,-0.084 0.357142,-0.1191 0.535714,-0.1786 0.357143,-0.1191 0.706207,-0.2659 1.071428,-0.3572 0.294451,-0.074 0.596572,-0.1127 0.892858,-0.1785 0.772253,-0.1716 1.533705,-0.4373 2.321428,-0.5357 0.354385,-0.044 0.714286,0 1.071429,0 0.47619,0 0.952381,0 1.428571,0 0.583707,0 1.038748,-0.035 1.607143,0.1785 0.249249,0.094 0.465036,0.2637 0.714286,0.3572 0.229796,0.086 0.484489,0.092 0.714285,0.1785 1.195517,0.4484 0.233055,0.266 1.428572,0.7143 0.457716,0.1717 0.818293,0.1413 1.25,0.3572 1.297444,0.6487 -0.103702,0.05 0.892857,0.7143 1.114757,0.7431 0.297619,0.06 1.25,0.5357 0.191959,0.096 0.357143,0.2381 0.535714,0.3571 0.178572,0.1191 0.370842,0.2198 0.535715,0.3572 0.194005,0.1616 0.338515,0.3779 0.535714,0.5357 0.103933,0.083 0.250663,0.099 0.357143,0.1785 0.134687,0.1011 0.21706,0.2638 0.357143,0.3572 0.22149,0.1476 0.47619,0.2381 0.714285,0.3571 0.119048,0.06 0.263028,0.085 0.357143,0.1786 0.04209,0.042 -0.04209,0.1365 0,0.1786 0.09412,0.094 0.263028,0.084 0.357143,0.1785 0.50281,0.011 0.04547,0.4027 0.178571,0.5358 0.09412,0.094 0.263028,0.084 0.357143,0.1785 0.09412,0.094 0.104742,0.2464 0.178572,0.3572 0.04669,0.07 0.119047,0.119 0.178571,0.1785 0.05952,0.1191 0.104741,0.2464 0.178572,0.3572 0.04669,0.07 0.151951,0.099 0.178571,0.1786 0,0.8129 -0.08418,0.01 0.178571,0.5357 0.02662,0.053 0,0.119 0,0.1785 0,0.1857 -0.03512,0.931 0,1.0715 0.03228,0.1291 0.146291,0.228 0.178572,0.3571 0.02887,0.1155 0,0.2381 0,0.3572 0,0.2381 0,0.4761 0,0.7142 0,0.3572 0,0.7143 0,1.0715 0,0.3571 0,0.7143 0,1.0714 0,0.1786 -0.04331,0.3625 0,0.5357 0.03228,0.1291 0.14629,0.228 0.178571,0.3572 0.02887,0.1155 -0.04421,0.2466 0,0.3571 0.07971,0.1993 0.261164,0.3438 0.357143,0.5357 0.08418,0.1684 0.108664,0.361 0.178572,0.5357 0.163275,0.4082 0.284166,0.4736 0.535714,0.8929 0.136958,0.2282 0.209482,0.4928 0.357143,0.7143 0.04669,0.07 0.119047,0.119 0.178571,0.1785 0.119048,0.1786 0.246724,0.3517 0.357143,0.5358 0.06848,0.1141 0.104741,0.2464 0.178571,0.3571 0.09339,0.1401 0.303904,0.1974 0.357143,0.3571 0.03765,0.113 -0.03765,0.2442 0,0.3572 0.02662,0.08 0.131877,0.1085 0.178572,0.1786 0.07383,0.1107 0.08446,0.263 0.178571,0.3571 0.04209,0.042 0.125332,-0.027 0.178572,0 0.214285,0.1071 0.321428,0.4286 0.535714,0.5357 0.113945,0.057 0.966028,-0.053 1.071428,0 0.150585,0.075 0.206559,0.2819 0.357143,0.3572 0.10648,0.053 0.24165,-0.029 0.357143,0 0.129125,0.032 0.230874,0.1364 0.357143,0.1785 0.122827,0.041 0.430354,-0.053 0.535714,0 0.07529,0.038 0.09871,0.152 0.178572,0.1786 0.225877,0.075 0.483299,-0.058 0.714285,0 0.257885,0.064 1.079688,0.578 1.25,0.7143 0.131467,0.1052 0.225677,0.252 0.357143,0.3571 0.167587,0.1341 0.383958,0.2054 0.535715,0.3572 0.09411,0.094 0.09871,0.2506 0.178571,0.3571 0.101015,0.1347 0.256128,0.2225 0.357143,0.3572 0.07986,0.1064 0.119047,0.2381 0.178571,0.3571 0.05952,0.119 0.119048,0.2381 0.178572,0.3571 0.05952,0.1191 0.119047,0.2381 0.178571,0.3572 0,0.119 -0.03765,0.2442 0,0.3571 0.05324,0.1597 0.281851,0.2066 0.357143,0.3572 0.02662,0.053 0,0.119 0,0.1785 0,0.06 0,0.1191 0,0.1786 0,0.4167 0,0.8333 0,1.25 0,0.066 0.0072,0.7071 0,0.7143 -0.28139,0.2814 -1.036215,0.1786 -1.428571,0.1786 -0.714286,0 -1.428572,0 -2.142858,0 -0.416666,0 -0.83655,-0.052 -1.25,0 -0.243527,0.03 -0.472202,0.1382 -0.714285,0.1785 -0.117428,0.02 -0.238096,0 -0.357143,0 -0.238095,0 -0.476191,0 -0.714286,0 -0.238095,0 -0.478583,-0.034 -0.714286,0 -0.186339,0.027 -0.354725,0.1269 -0.535714,0.1786 -0.23598,0.067 -0.472202,0.1382 -0.714286,0.1786 -0.117427,0.02 -0.238095,0 -0.357142,0 -0.238096,0 -0.476191,0 -0.714286,0 -0.119048,0 -0.24165,-0.029 -0.357143,0 -0.129125,0.032 -0.238095,0.119 -0.357143,0.1786 -0.178571,0.059 -0.351139,0.1416 -0.535714,0.1785 -0.169899,0.034 -0.98358,-0.044 -1.071429,0 -0.150584,0.075 -0.21706,0.2638 -0.357143,0.3572 -0.110745,0.074 -0.246397,0.1047 -0.357142,0.1785 -0.07004,0.047 -0.09691,0.1582 -0.178572,0.1786 -0.17324,0.043 -0.366306,-0.056 -0.535714,0 -0.203603,0.068 -0.351683,0.2467 -0.535714,0.3572 -0.114132,0.068 -0.233564,0.1291 -0.357143,0.1785 -1.663577,0.6655 0.561786,-0.2297 -1.071429,0.1786 -0.08167,0.02 -0.09871,0.152 -0.178571,0.1786 -0.812908,0 -0.01021,-0.084 -0.535715,0.1785 -0.06458,0.032 -0.768653,0 -0.892857,0 -0.654762,0 -1.309524,0 -1.964285,0 -0.904443,0 0.380684,-0.029 -1.071429,0.1786 -0.176777,0.025 -0.357143,0 -0.535714,0 -0.297619,0 -0.595238,0 -0.892857,0 -0.833334,0 -1.666667,0 -2.5,0 -1.011905,0 -2.02381,0 -3.035715,0 -0.357143,0 -0.714285,0 -1.071428,0 -0.119048,0 -0.250664,0.053 -0.357143,0 -0.05324,-0.027 0.05647,-0.1597 0,-0.1786 -0.09148,-0.03 -1.257056,0 -1.428572,0 -0.119047,0 -0.244204,0.038 -0.357142,0 -0.07986,-0.027 -0.10328,-0.1409 -0.178572,-0.1785 -0.116931,-0.059 -0.734387,0.053 -0.892857,0 -0.126269,-0.042 -0.230874,-0.1365 -0.357143,-0.1786 -0.143732,-0.048 -0.600175,0.057 -0.714286,0 -0.07529,-0.038 -0.103279,-0.1409 -0.178571,-0.1786 -0.07946,-0.04 -0.632609,0.027 -0.714286,0 -0.07986,-0.027 -0.0969,-0.1581 -0.178571,-0.1785 -0.03893,-0.01 -0.811607,0.041 -0.892857,0 -0.07529,-0.038 -0.103279,-0.141 -0.178572,-0.1786 -0.05324,-0.027 -0.129044,0.033 -0.178571,0 -0.140083,-0.093 -0.206558,-0.2819 -0.357143,-0.3572 -0.106479,-0.053 -0.238095,0 -0.357143,0 -0.119047,-0.06 -0.246397,-0.1047 -0.357143,-0.1785 -0.07004,-0.047 -0.10853,-0.1319 -0.178571,-0.1786 -0.110745,-0.074 -0.246398,-0.1047 -0.357143,-0.1786 -0.07004,-0.047 -0.09871,-0.1519 -0.178571,-0.1785 -0.112939,-0.038 -0.244205,0.038 -0.357143,0 -0.07986,-0.027 -0.10853,-0.1319 -0.178572,-0.1786 -0.110745,-0.074 -0.230874,-0.1365 -0.357143,-0.1786 -0.189752,-0.063 -0.524533,0.063 -0.714285,0 -1.532228,-0.5107 1.138213,0.16 -0.892857,-0.1786 -1.214431,-0.2024 0.162615,-0.1243 -1.071429,-0.5357 -0.169408,-0.056 -0.358938,0.025 -0.535714,0 -0.452158,0.017 -0.822556,-0.2859 -1.25,-0.3571 -0.176142,-0.029 -0.359573,0.029 -0.535715,0 -0.371339,-0.062 -0.7000887,-0.2953 -1.0714281,-0.3572 -0.1761418,-0.029 -0.3571429,0 -0.5357143,0 -0.4166667,0 -0.8333334,0 -1.25,0 -0.4166667,0 -0.8333334,0 -1.25,0 -0.1190476,0 -0.2380953,0 -0.3571429,0 -0.1190476,0 -0.2416497,-0.029 -0.3571428,0 -0.1291253,0.032 -0.2280176,0.1463 -0.3571429,0.1786 -0.1154932,0.029 -0.2380952,0 -0.3571429,0 -0.1785714,0 -0.3571428,0 -0.5357142,0 -0.2380953,0 -0.4785835,-0.034 -0.7142858,0 -0.186339,0.027 -0.3493752,0.152 -0.5357142,0.1786 -0.412479,0.059 -0.8414248,-0.082 -1.25,0 -0.1305146,0.026 -0.2258546,0.1567 -0.3571429,0.1786 -0.2348557,0.039 -0.47619048,0 -0.71428571,0 -0.17857143,0 -0.3606106,0.035 -0.53571429,0 -0.1845755,-0.037 -0.35004456,-0.1477 -0.53571429,-0.1786 -0.17614177,-0.029 -0.35957251,0.029 -0.53571431,0 -0.5076401,-0.085 -0.4764926,-0.1906 -0.8928571,-0.3572 -0.6943055,-0.2777 -0.6936583,-0.096 -0.8928572,-0.8928 -0.014437,-0.058 0,-0.1191 0,-0.1786 0,-0.119 0,-0.2381 0,-0.3571 0,-0.2976 0,-0.5953 0,-0.8929 0,-0.2381 -0.083601,-0.4913 0,-0.7143 0.1045011,-0.2786 0.402615,-0.4481 0.5357143,-0.7143 0.1683588,-0.3367 0.1887841,-0.7347 0.3571429,-1.0714 0.1919585,-0.3839 0.4838414,-0.7093 0.7142857,-1.0714 0.186339,-0.2928 0.32262749,-0.6189 0.53571429,-0.8929 0.20672455,-0.2658 0.49058277,-0.4626 0.71428571,-0.7143 0.25321454,-0.2848 0.4802894,-0.592 0.71428571,-0.8928 0.18272042,-0.2349 0.32526589,-0.5039 0.53571429,-0.7143 0.2104484,-0.2104 0.4903046,-0.3397 0.7142857,-0.5357 0.3801086,-0.3326 0.6879461,-0.7427 1.0714286,-1.0714 0.2893818,-0.2481 0.6060213,-0.4633 0.8928571,-0.7143 1.1556152,-1.0112 -0.1508725,-0.028 1.25,-1.4286 0.2104485,-0.2104 0.5038373,-0.3253 0.7142857,-0.5357 0.1517566,-0.1518 0.2230733,-0.3681 0.3571429,-0.5357 0.1051729,-0.1315 0.2380952,-0.2381 0.3571429,-0.3572 0.059524,-0.059 0.1409252,-0.1033 0.1785714,-0.1785 0.02662,-0.053 -0.02662,-0.1254 0,-0.1786 0.037646,-0.075 0.1409253,-0.1033 0.1785714,-0.1786 0.02662,-0.053 -0.018823,-0.1221 0,-0.1786 0.04209,-0.1262 0.1364818,-0.2308 0.1785714,-0.3571 0.018823,-0.057 -0.04209,-0.1365 0,-0.1786 0.8749939,-0.4375 0.1493624,0.058 0.3571429,-0.3571 0.037646,-0.075 0.1519516,-0.099 0.1785714,-0.1786 0.037646,-0.1129 -0.037646,-0.2442 0,-0.3571 0.02662,-0.08 0.1318771,-0.1086 0.1785715,-0.1786 0.07383,-0.1107 0.1364817,-0.2309 0.1785714,-0.3571 0.037646,-0.113 -0.084179,-0.273 0,-0.3572 0.1517565,-0.1517 0.3839577,-0.2054 0.5357143,-0.3571 0.04209,-0.042 -0.02662,-0.1254 0,-0.1786 0.3715857,-0.7432 -0.012328,0.1909 0.3571428,-0.1786 0.04209,-0.042 -0.04209,-0.1365 0,-0.1785 0.011085,-0.5029 0.402615,-0.045 0.5357143,-0.1786 0.059524,-0.1191 0.1190476,-0.2381 0.1785714,-0.3572 0.059524,0 0.1364818,0.042 0.1785715,0 0.094115,-0.094 0.084456,-0.263 0.1785714,-0.3571 0.04209,-0.042 0.136482,0.042 0.178571,0 0.04209,-0.042 -0.04209,-0.1365 0,-0.1786 0.09412,-0.094 0.263028,-0.084 0.357143,-0.1785 0.09412,-0.094 0.08446,-0.2631 0.178572,-0.3572 0.04209,-0.042 0.136481,0.042 0.178571,0 0.04209,-0.042 -0.01882,-0.1221 0,-0.1786 0.04209,-0.1262 0.136482,-0.2308 0.178572,-0.3571 0.03765,-0.1129 -0.05324,-0.2507 0,-0.3571 0.03765,-0.075 0.119047,-0.1191 0.178571,-0.1786 0.119048,-0.2976 0.238095,-0.5953 0.357143,-0.8929 z"
         id="path3009"
         style="fill:none;stroke:#000000;stroke-width:1px;stroke-linecap:butt;stroke-linejoin:miter;stroke-opacity:1" />
    </clipPath>
    <clipPath
       id="clipPath3172">
      <path
         d="M 0,216 216,216 216,0 0,0 0,216 z"
         id="path3174" />
    </clipPath>
    <clipPath
       id="clipPath3160">
      <path
         d="m 121.724,55.661 c 0.343,1.114 0.39,2.832 -3.038,2.054 l 0,0 c 0,0 -9.395,-1.342 -9.843,-12.303 l 0,0 -0.214,-20.989 -2.258,0 -0.213,20.989 c -0.448,10.961 -9.842,12.303 -9.842,12.303 l 0,0 c -3.428,0.778 -3.383,-0.938 -3.04,-2.052 l 0,0 c -3.371,5.738 -12.394,4.996 -12.394,4.996 l 0,0 c -3.133,-1.117 -0.224,-3.131 -0.224,-3.131 l 0,0 c 4.921,-1.788 5.369,-7.158 5.369,-7.158 l 0,0 0,-15.18 0.52,-11.728 c 1.117,-5.224 3.874,-8.312 6.578,-10.129 l 0,0 28.803,0.033 c 3.484,2.365 7.047,6.846 7.047,15.307 l 0,0 0,21.697 c 0,0 0.447,5.37 5.369,7.158 l 0,0 c 0,0 2.906,2.014 -0.225,3.131 l 0,0 c 0,0 -0.382,0.031 -1.017,0.032 l 0,0 c -2.455,0 -8.7,-0.469 -11.378,-5.03 m -27.197,-21.619 0,16.552 c 0,1.617 -0.285,2.977 -0.773,4.12 l 0,0 c 3.239,-2.526 3.457,-8.855 3.457,-8.855 l 0,0 0,-20.663 c -3.225,2.282 -2.684,8.846 -2.684,8.846 m 23.264,11.817 c 0,0 0.217,6.329 3.456,8.855 l 0,0 c -0.487,-1.143 -0.772,-2.503 -0.772,-4.12 l 0,0 0,-16.552 c 0,0 0.539,-6.101 -2.684,-8.612 l 0,0 0,20.429 z"
         id="path3162" />
    </clipPath>
    <clipPath
       id="clipPath3148">
      <path
         d="M 0,216 216,216 216,0 0,0 0,216 z"
         id="path3150" />
    </clipPath>
    <filter
       x="0"
       y="0"
       width="1"
       height="1"
       color-interpolation-filters="sRGB"
       id="filter3301">
      <feColorMatrix
         values="0"
         type="saturate"
         id="feColorMatrix3303" />
    </filter>
    <clipPath
       id="clipPath3309">
      <path
         d="m 55.432119,24.556784 a 25.253813,13.068849 0 1 1 -0.0063,-0.292563"
         transform="matrix(3.6618068,0,0,-3.7322195,0.03901332,247.68464)"
         id="path3311"
         style="fill:#3f3f3f;fill-opacity:1" />
    </clipPath>
    <clipPath
       id="clipPath3545">
      <path
         d="m 47.224632,24.556784 a 17.867073,14.836616 0 1 1 -35.734146,0 17.867073,14.836616 0 1 1 35.734146,0 z"
         transform="matrix(1.1518539,0,0,0.78125503,-10.929273,5.4038358)"
         id="path3547"
         style="fill:#3f3f3f;fill-opacity:1" />
    </clipPath>
    <clipPath
       id="clipPath3549">
      <path
         d="m 47.224632,24.556784 a 17.867073,14.836616 0 1 1 -35.734146,0 17.867073,14.836616 0 1 1 35.734146,0 z"
         transform="matrix(4.7247422,0,0,-3.2045979,-31.669058,232.84327)"
         id="path3551"
         style="fill:#3f3f3f;fill-opacity:1" />
    </clipPath>
  </defs>
  <metadata
     id="metadata7">
    <rdf:RDF>
      <cc:Work
         rdf:about="">
        <dc:format>image/svg+xml</dc:format>
        <dc:type
           rdf:resource="http://purl.org/dc/dcmitype/StillImage" />
        <dc:title></dc:title>
      </cc:Work>
    </rdf:RDF>
  </metadata>
  <g
     transform="translate(0,-52.3622)"
     id="layer1">
    <path
       d="M 499.99999,52.3622 C 223.85763,52.3622 0,276.21983 0,552.36222 0,828.50462 223.85763,1052.3622 499.99999,1052.3622 776.14237,1052.3622 1000,828.50462 1000,552.36222 1000,276.21983 776.14237,52.3622 499.99999,52.3622 z M 747.5,181.7372 746.24999,296.73722 c -0.4132,63.36999 -1.4544,188.392 -2.49999,277.50001 l -1.87501,161.875 L 735,747.98724 c -14.99775,27.004 -48.2857,52.058 -78.75,58.74999 -18.51493,4.07 -55.92458,1.37201 -71.875,-4.99998 -23.8465,-9.53401 -45.75061,-31.91801 -52.5,-53.75001 -1.8362,-5.93801 -2.55368,-16.99501 -1.87501,-28.125 1.52481,-25.00801 9.47341,-40.872 30.00001,-61.25001 32.06167,-31.832 61.96846,-39.34101 123.75,-30.62501 l 10,1.25001 0,-126.87501 0,-126.25 -8.75001,0 c -10.20629,0.0102 -92.10733,11.87 -145,21.24999 -35.09691,6.222 -90.3726,18.312 -133.125,28.75002 l -21.875,4.99999 -1.87498,158.12501 c -1.76661,172.65401 -4.00475,225.45001 -10.00001,238.75001 -5.17868,11.48399 -33.61736,39.75998 -48.125,47.49996 -6.52046,3.47601 -18.1285,7.94808 -25.62501,10.00007 -16.20517,4.444 -49.60946,4.93301 -66.24999,0.62494 -37.71481,-9.83596 -63.55592,-40.092 -66.87499,-77.49997 -1.334,-15.03401 -1.10002,-18.001 5.62499,-33.125 14.91186,-33.54 49.8482,-62.41301 83.74999,-69.375 14.4692,-2.974 54.0244,-1.83501 70.00001,1.87498 l 6.25,1.87502 0,-219.37502 c 0,-151.99401 0.69581,-221.42701 2.50001,-226.87501 2.82777,-8.534 -0.88341,-6.74 59.37498,-25 55.84291,-16.924 146.04054,-40.769 169.37501,-44.375 38.3981,-5.93201 111.19148,-11.46301 149.375,-11.875 l 35,-0.62501 z"
       id="path2985"
       style="fill:#808080;fill-opacity:1;stroke-width:0;stroke-miterlimit:4;stroke-dasharray:none" />
  </g>
</svg>
