<?xml version="1.0" encoding="UTF-8" standalone="no"?>
<svg width="200px" height="200px" viewBox="0 0 200 200" version="1.1" xmlns="http://www.w3.org/2000/svg" xmlns:xlink="http://www.w3.org/1999/xlink" xmlns:sketch="http://www.bohemiancoding.com/sketch/ns">
    <title>Kickstarter</title>
    <description>Created with Sketch (http://www.bohemiancoding.com/sketch)</description>
    <defs></defs>
    <g id="Page-1" stroke="none" stroke-width="1" fill="none" fill-rule="evenodd" sketch:type="MSPage">
        <path d="M100,0 C44.771524,3.03201907e-14 0,44.771524 0,100 C0,155.228476 44.771524,200 100,200 C155.228476,200 200,155.228476 200,100 C200,44.771524 155.228476,-3.41060513e-14 100,0 Z M90.6470148,81.2358962 L112.461565,49.0857406 C116.58593,43.0285802 121.910844,40 128.437611,40 C133.762525,40 138.370499,41.9213716 142.265442,45.7654408 C146.157779,49.6095099 148.103947,54.2107241 148.103947,59.5690834 C148.103947,63.5298404 147.075463,67.0251721 145.013281,70.0537522 L125.344338,99.1461557 L149.39444,130.161257 C151.798147,133.248181 153,136.8602 153,140.994663 C153,146.46971 151.112491,151.1717 147.332258,155.103285 C143.553329,159.036196 138.970122,161 133.59046,161 C127.691993,161 123.19873,159.050782 120.105457,155.147043 L90.6470148,117.755216 L90.6470148,138.37449 C90.6470148,144.257945 89.6459049,148.828661 87.6410779,152.090617 C83.9768591,158.029764 78.651945,161 71.6676389,161 C65.3116337,161 60.3855992,158.816081 56.8947497,154.448242 C53.6307142,150.429141 52,145.098628 52,138.46068 L52,62.0155503 C52,55.7250142 53.6580883,50.5430128 56.9807826,46.4642419 C60.4729356,42.1547473 65.2816525,40 71.4082368,40 C77.2493482,40 82.1154204,42.1547473 86.0090602,46.4642419 C88.1846493,48.8523649 89.5585684,51.2696598 90.1308175,53.7161268 C90.474949,55.2317429 90.6470148,58.0547933 90.6470148,62.1905821 L90.6470148,81.2358962 Z" id="Kickstarter" fill="#808080" sketch:type="MSShapeGroup"></path>
    </g>
</svg>