<?xml version="1.0" encoding="UTF-8" standalone="no"?>
<svg width="200px" height="200px" viewBox="0 0 200 200" version="1.1" xmlns="http://www.w3.org/2000/svg" xmlns:xlink="http://www.w3.org/1999/xlink" xmlns:sketch="http://www.bohemiancoding.com/sketch/ns">
    <title>LastFm</title>
    <description>Created with Sketch (http://www.bohemiancoding.com/sketch)</description>
    <defs></defs>
    <g id="Page-1" stroke="none" stroke-width="1" fill="none" fill-rule="evenodd" sketch:type="MSPage">
        <path d="M100,0 C44.771526,3.03201907e-14 0,44.771526 0,100 C1.5158245e-14,155.228474 44.771526,200 100,200 C155.228474,200 200,155.228474 200,100 C200,44.771526 155.228474,-1.51545443e-14 100,0 Z M142.051333,141.519333 C127.469556,141.460222 119.699556,134.279778 114.298667,121.628444 L112.760222,118.175111 L99.4415556,87.6177778 C95.0315556,76.8004444 84.0711111,69.4924444 71.7106667,69.4924444 C54.9853333,69.4924444 41.4162222,83.1548889 41.4162222,100.004667 C41.4162222,116.856 54.9853333,130.518444 71.7106667,130.518444 C83.3773333,130.518444 93.5288889,123.876222 98.5875556,114.136889 L103.976,126.640444 C96.332,136.025111 84.7104444,142 71.7091111,142 C48.6744444,142 30,123.210444 30,100.004667 C30,76.8128889 48.6744444,58 71.7091111,58 C89.0971111,58 103.132889,67.3473333 110.263556,83.9124444 C110.811111,85.1973333 117.806444,101.681556 123.913556,115.709556 C127.696667,124.394222 130.918222,130.151333 141.379333,130.507556 C151.655333,130.862222 158.708222,124.565333 158.708222,116.604 C158.708222,108.826222 153.330667,106.956444 144.250889,103.916889 C127.936222,98.5035556 119.505111,93.0653333 119.505111,80.0344444 C119.505111,67.324 128.093333,58.8477778 142.051333,58.8477778 C151.145111,58.8477778 157.704889,62.9202222 162.250222,71.0402222 L153.330667,75.6275556 C149.969111,70.8908889 146.266889,69.0211111 141.552,69.0211111 C134.998444,69.0211111 130.328667,73.6084444 130.328667,79.7108889 C130.328667,88.3722222 138.017778,89.6804444 148.785333,93.2364444 C163.267556,97.9871111 170,103.411333 170,116.958667 C170,131.184222 157.877556,141.542667 142.051333,141.519333 Z" id="LastFm" fill="#808080" sketch:type="MSShapeGroup"></path>
    </g>
</svg>