<?xml version="1.0" encoding="UTF-8" standalone="no"?>
<svg width="200px" height="200px" viewBox="0 0 200 200" version="1.1" xmlns="http://www.w3.org/2000/svg" xmlns:xlink="http://www.w3.org/1999/xlink" xmlns:sketch="http://www.bohemiancoding.com/sketch/ns">
    <title>Medium</title>
    <description>Created with Sketch (http://www.bohemiancoding.com/sketch)</description>
    <defs></defs>
    <g id="Page-1" stroke="none" stroke-width="1" fill="none" fill-rule="evenodd" sketch:type="MSPage">
        <path d="M100,0 C44.771524,0 0,44.771526 0,100 C0,155.228474 44.771524,200 100,200 C155.228476,200 200,155.228474 200,100 C200,44.771526 155.228476,-2.2737368e-14 100,0 Z M170,60.7998552 L164.462913,60.7998552 C162.406362,60.7998552 160.03353,63.5197353 160.03353,65.4405873 L160.03353,135.03854 C160.03353,136.96084 162.406362,139.838499 164.462913,139.838499 L170,139.838499 L170,156 L120.327936,156 L120.327936,139.838499 L130.294406,139.838499 L130.294406,66.7201902 L129.819267,66.7201902 L105.299518,156 L86.3154236,156 L62.1133873,66.7201902 L61.6382483,66.7201902 L61.6382483,139.838499 L72.0798577,139.838499 L72.0798577,156 L30,156 L30,139.838499 L35.3782303,139.838499 C37.5936376,139.838499 39.9664704,136.96084 39.9664704,135.03854 L39.9664704,65.4405873 C39.9664704,63.5197353 37.5936376,60.7998552 35.3782303,60.7998552 L30,60.7998552 L30,44 L82.520036,44 L99.7624305,108.960116 L100.23757,108.960116 L117.638821,44 L170,44 L170,60.7998552 Z" id="Medium" fill="#808080" sketch:type="MSShapeGroup"></path>
    </g>
</svg>