<?xml version="1.0" encoding="UTF-8" standalone="no"?>
<svg width="200px" height="200px" viewBox="0 0 200 200" version="1.1" xmlns="http://www.w3.org/2000/svg" xmlns:xlink="http://www.w3.org/1999/xlink" xmlns:sketch="http://www.bohemiancoding.com/sketch/ns">
    <title>MySpace</title>
    <description>Created with Sketch (http://www.bohemiancoding.com/sketch)</description>
    <defs></defs>
    <g id="Page-1" stroke="none" stroke-width="1" fill="none" fill-rule="evenodd" sketch:type="MSPage">
        <path d="M100,0 C44.7714,0 0,44.7714 0,100 C0,155.2286 44.7714,200 100,200 C155.2286,200 200,155.2286 200,100 C200,44.7714 155.2286,0 100,0 Z M145.621677,107.364129 C131.463129,107.364129 121.080661,119.791097 121.080661,132.633419 L121.080661,141.274484 C121.080661,142.496694 122.081161,143.5 123.31179,143.5 L167.924548,143.5 C169.16079,143.5 170.16129,142.496694 170.16129,141.274484 L170.16129,132.633419 C170.16129,119.791097 159.781629,107.364129 145.621677,107.364129 Z M95.3258548,110.976032 C82.5831613,110.976032 73.2390806,122.162548 73.2390806,133.718113 L73.2390806,141.496194 C73.2390806,142.596323 74.1385484,143.5 75.2456935,143.5 L115.400403,143.5 C116.513161,143.5 117.411226,142.596323 117.411226,141.496194 L117.411226,133.718113 C117.411226,122.162548 108.068548,110.976032 95.3258548,110.976032 Z M49.7154032,114.232919 C38.2468387,114.232919 29.8387097,124.298258 29.8387097,134.697565 L29.8387097,141.698258 C29.8387097,142.687532 30.648371,143.5 31.6446613,143.5 L67.7805323,143.5 C68.7810323,143.5 69.5906935,142.687532 69.5906935,141.698258 L69.5906935,134.697565 C69.5906935,124.298258 61.1839677,114.232919 49.7154032,114.232919 Z M49.7154032,110.118661 C59.7021613,110.118661 67.8015806,102.057129 67.8015806,92.1068548 C67.8015806,82.152371 59.7021613,74.0880323 49.7154032,74.0880323 C39.7244355,74.0880323 31.6278226,82.152371 31.6278226,92.1068548 C31.6278226,102.057129 39.7244355,110.118661 49.7154032,110.118661 Z M95.3258548,106.411339 C106.421161,106.411339 115.421452,97.4475323 115.421452,86.3915161 C115.421452,75.3326935 106.421161,66.3688871 95.3258548,66.3688871 C84.2263387,66.3688871 75.2288548,75.3326935 75.2288548,86.3915161 C75.2288548,97.4475323 84.2263387,106.411339 95.3258548,106.411339 Z M145.624484,102.291468 C157.950419,102.291468 167.947,92.3341774 167.947,80.0475323 C167.947,67.7636935 157.950419,57.8035968 145.624484,57.8035968 C133.288726,57.8035968 123.290742,67.7636935 123.290742,80.0475323 C123.290742,92.3341774 133.288726,102.291468 145.624484,102.291468 Z" id="MySpace" fill="#808080" sketch:type="MSShapeGroup"></path>
    </g>
</svg>