<?xml version="1.0" encoding="UTF-8" standalone="no"?>
<svg width="200px" height="200px" viewBox="0 0 200 200" version="1.1" xmlns="http://www.w3.org/2000/svg" xmlns:xlink="http://www.w3.org/1999/xlink" xmlns:sketch="http://www.bohemiancoding.com/sketch/ns">
    <title>Phone</title>
    <description>Created with Sketch (http://www.bohemiancoding.com/sketch)</description>
    <defs></defs>
    <g id="Page-1" stroke="none" stroke-width="1" fill="none" fill-rule="evenodd" sketch:type="MSPage">
        <path d="M100,0 C44.7714,0 0,44.7714 0,100 C0,155.2286 44.7714,200 100,200 C155.2286,200 200,155.2286 200,100 C200,44.7714 155.2286,0 100,0 Z M55.7624,35.6376 C62.9052,35.6328 62.859,35.5962 66.8248,44.6626 C74.88,63.0776 77.178,69.1418 76.8062,71.0376 C76.3242,73.4956 72.9758,78.4552 68.7,83.0438 C66.5816,85.3172 65.3624,87.2456 65.3624,88.325 C65.3624,89.2736 67.513,93.2916 70.2248,97.4062 C76.1792,106.4406 85.964,116.3992 94.8,122.4188 C101.944,127.2856 112.7718,132.891 116.0624,133.425 C118.0872,133.7536 118.5266,133.4428 121.6624,129.4688 C127.489,122.0846 133.2,116 137.2,116 C140.0286,116 137.7112,115.9566 152.0438,122.9312 C163.5588,128.5346 168.0838,131.0742 168.3438,132.0688 C168.5418,132.826 168.704,136.6522 167.575,140.3064 C165.1978,148.0004 161.923,152.9792 152.4812,159.2002 C145.1982,163.9986 134.4932,164.5376 121.9562,160.969 C109.6278,157.4598 104.8002,155.7534 98.8624,152.7878 C86.1982,145.9974 75.2174,138.1338 65.8374,128.7002 C50.0942,112.7692 38.7036,95.726 33.0062,79.5814 C29.412,69.3966 32.033,59.8328 37.2,50.0002 C42.9666,41.3382 49.197,35.9982 55.7624,35.6376 Z" id="Phone" fill="#808080" sketch:type="MSShapeGroup"></path>
    </g>
</svg>