<?xml version="1.0" encoding="UTF-8" standalone="no"?>
<!-- Created with Inkscape (http://www.inkscape.org/) -->

<svg
   xmlns:dc="http://purl.org/dc/elements/1.1/"
   xmlns:cc="http://creativecommons.org/ns#"
   xmlns:rdf="http://www.w3.org/1999/02/22-rdf-syntax-ns#"
   xmlns:svg="http://www.w3.org/2000/svg"
   xmlns="http://www.w3.org/2000/svg"
   version="1.1"
   width="1000"
   height="1000"
   id="svg2">
  <defs
     id="defs4" />
  <metadata
     id="metadata7">
    <rdf:RDF>
      <cc:Work
         rdf:about="">
        <dc:format>image/svg+xml</dc:format>
        <dc:type
           rdf:resource="http://purl.org/dc/dcmitype/StillImage" />
        <dc:title></dc:title>
      </cc:Work>
    </rdf:RDF>
  </metadata>
  <g
     transform="translate(0,-52.362183)"
     id="layer1">
    <path
       d="M 500,0 C 223.85763,0 0,223.85763 0,500 c 0,276.14237 223.85763,500 500,500 276.14237,0 500,-223.85763 500,-500 C 1000,223.85763 776.14237,0 500,0 z M 278.8125,178.1875 c 35.71387,-0.0242 35.48386,-0.20651 55.3125,45.125 40.27507,92.07507 51.76489,122.39622 49.90625,131.875 -2.40982,12.28965 -19.15274,37.08834 -40.53125,60.03125 -10.59187,11.36693 -16.6875,21.00886 -16.6875,26.40625 0,4.74329 10.75309,24.83288 24.3125,45.40625 29.77194,45.17212 78.6952,94.96521 122.875,125.0625 35.71991,24.334 89.8592,52.36124 106.3125,55.03125 10.12418,1.64293 12.32141,0.0891 28,-19.78125 C 637.4451,610.42247 666,580 686,580 c 14.14214,0 2.55559,-0.21662 74.21875,34.65625 57.57481,28.0164 80.19977,40.71531 81.5,45.6875 0.99006,3.78592 1.80113,22.91707 -3.84375,41.1875 -11.88581,38.47008 -28.25958,63.36471 -75.46875,94.46875 -36.41533,23.99245 -89.94011,26.68607 -152.625,8.84375 C 548.13934,787.2983 524.00093,778.76529 494.3125,763.9375 430.99111,729.985 376.08775,690.66821 329.1875,643.5 250.47142,563.84509 193.51855,478.6287 165.03125,397.90625 147.05983,346.98192 160.16534,299.16347 186,250 c 28.8326,-43.3093 59.98518,-70.00905 92.8125,-71.8125 z"
       transform="translate(0,52.362183)"
       id="path3184"
       style="fill:#808080;fill-opacity:1;stroke:none" />
  </g>
</svg>
