<?xml version="1.0" encoding="UTF-8" standalone="no"?>
<svg width="1001px" height="1002px" viewBox="0 0 1001 1002" version="1.1" xmlns="http://www.w3.org/2000/svg" xmlns:xlink="http://www.w3.org/1999/xlink" xmlns:sketch="http://www.bohemiancoding.com/sketch/ns">
    <title>Phone</title>
    <description>Created with Sketch (http://www.bohemiancoding.com/sketch)</description>
    <defs></defs>
    <g id="Page 1" fill="#D8D8D8" fill-rule="evenodd">
        <path d="M500,0.5 C223.857,0.5 0,224.357 0,500.5 C0,776.643 223.857,1000.5 500,1000.5 C776.143,1000.5 1000,776.643 1000,500.5 C1000,224.357 776.143,0.5 500,0.5 L500,0.5 L500,0.5 Z M278.812,178.688 C314.526,178.664 314.295,178.481 334.124,223.813 C374.4,315.888 385.89,346.209 384.031,355.688 C381.621,367.978 364.879,392.776 343.5,415.719 C332.908,427.086 326.812,436.728 326.812,442.125 C326.812,446.868 337.565,466.958 351.124,487.531 C380.896,532.703 429.82,582.496 474,612.594 C509.72,636.928 563.859,664.955 580.312,667.625 C590.436,669.268 592.633,667.714 608.312,647.844 C637.445,610.923 666,580.5 686,580.5 C700.143,580.5 688.556,580.283 760.219,615.156 C817.794,643.173 840.419,655.871 841.719,660.844 C842.709,664.63 843.52,683.761 837.875,702.032 C825.989,740.502 809.615,765.396 762.406,796.501 C725.991,820.493 672.466,823.188 609.781,805.345 C548.139,787.799 524.001,779.267 494.312,764.439 C430.991,730.487 376.087,691.169 329.187,644.001 C250.471,564.346 193.518,479.13 165.031,398.407 C147.06,347.483 160.165,299.664 186,250.501 C214.833,207.191 245.985,180.491 278.812,178.688 L278.812,178.688 L278.812,178.688 Z M278.812,178.688" id="Phone" fill="#808080"></path>
    </g>
</svg>