<?xml version="1.0" encoding="UTF-8" standalone="no"?>
<svg width="200px" height="200px" viewBox="0 0 200 200" version="1.1" xmlns="http://www.w3.org/2000/svg" xmlns:xlink="http://www.w3.org/1999/xlink" xmlns:sketch="http://www.bohemiancoding.com/sketch/ns">
    <title>Pinterest</title>
    <description>Created with Sketch (http://www.bohemiancoding.com/sketch)</description>
    <defs></defs>
    <g id="Page-1" stroke="none" stroke-width="1" fill="none" fill-rule="evenodd" sketch:type="MSPage">
        <path d="M100,0 C44.771526,1.51545443e-14 0,44.771526 0,100 C-7.5791226e-15,155.228474 44.771526,200 100,200 C155.228474,200 200,155.228474 200,100 C200,44.771526 155.228474,-2.27373675e-14 100,0 Z M103.549742,24.2536772 C62.2072785,24.2536772 41.3620871,53.8954253 41.3620871,78.6121841 C41.3620871,93.5785078 47.0283376,106.893182 59.181348,111.855862 C61.1731854,112.669607 62.9591705,111.883889 63.5371029,109.677502 C63.9391429,108.150523 64.890122,104.297318 65.3143901,102.69399 C65.8971547,100.511764 65.6710073,99.7463418 64.0638139,97.8443835 C60.5594946,93.7109103 58.3192816,88.35972 58.3192816,80.7799139 C58.3192816,58.7894885 74.7729597,39.1040277 101.161664,39.1040277 C124.529269,39.1040277 137.367487,53.3822445 137.367487,72.4511152 C137.367487,97.5409207 126.264033,118.715669 109.780395,118.715669 C100.67651,118.715669 93.8621257,111.187084 96.0472515,101.954662 C98.662444,90.9304562 103.728534,79.0345194 103.728534,71.0768344 C103.728534,63.955122 99.9052887,58.0134355 91.9930265,58.0134355 C82.6871548,58.0134355 75.2117245,67.6411325 75.2117245,80.5363705 C75.2117245,88.7501626 77.9873464,94.3062387 77.9873464,94.3062387 C77.9873464,94.3062387 68.4640252,134.656166 66.7949795,141.721825 C63.469452,155.795156 66.2943625,173.047115 66.5340401,174.789611 C66.6741742,175.821771 68.0010994,176.067247 68.60126,175.287328 C69.4594606,174.166256 80.543586,160.483367 84.3117441,146.812076 C85.3777298,142.940509 90.4322224,122.893598 90.4322224,122.893598 C93.45622,128.659393 102.291434,133.739013 111.688152,133.739013 C139.660854,133.739013 158.637913,108.238469 158.637913,74.1037314 C158.637913,48.2919936 136.776024,24.2536772 103.549742,24.2536772 Z" id="Pinterest" fill="#808080" sketch:type="MSShapeGroup"></path>
    </g>
</svg>