<?xml version="1.0" encoding="UTF-8" standalone="no"?>
<svg width="201px" height="200px" viewBox="0 0 201 200" version="1.1" xmlns="http://www.w3.org/2000/svg" xmlns:xlink="http://www.w3.org/1999/xlink" xmlns:sketch="http://www.bohemiancoding.com/sketch/ns">
    <title>Pinterest</title>
    <description>Created with Sketch (http://www.bohemiancoding.com/sketch)</description>
    <defs></defs>
    <g id="Page 1" stroke="none" stroke-width="1" fill="none" fill-rule="evenodd">
        <path d="M100.5,0 C155.728474,-2.27373675e-14 200.5,44.771526 200.5,100 C200.5,155.228474 155.728474,200 100.5,200 C45.271526,200 0.5,155.228474 0.5,100 C0.5,44.771526 45.271526,1.51545443e-14 100.5,0 Z M104.049742,24.2536772 C62.7072785,24.2536772 41.8620871,53.8954253 41.8620871,78.6121841 C41.8620871,93.5785078 47.5283376,106.893182 59.681348,111.855862 C61.6731854,112.669607 63.4591705,111.883889 64.0371029,109.677502 C64.4391429,108.150523 65.390122,104.297318 65.8143901,102.69399 C66.3971547,100.511764 66.1710073,99.7463418 64.5638139,97.8443835 C61.0594946,93.7109103 58.8192816,88.35972 58.8192816,80.7799139 C58.8192816,58.7894885 75.2729597,39.1040277 101.661664,39.1040277 C125.029269,39.1040277 137.867487,53.3822445 137.867487,72.4511152 C137.867487,97.5409207 126.764033,118.715669 110.280395,118.715669 C101.17651,118.715669 94.3621257,111.187084 96.5472515,101.954662 C99.162444,90.9304562 104.228534,79.0345194 104.228534,71.0768344 C104.228534,63.955122 100.405289,58.0134355 92.4930265,58.0134355 C83.1871548,58.0134355 75.7117245,67.6411325 75.7117245,80.5363705 C75.7117245,88.7501626 78.4873464,94.3062387 78.4873464,94.3062387 C78.4873464,94.3062387 68.9640252,134.656166 67.2949795,141.721825 C63.969452,155.795156 66.7943625,173.047115 67.0340401,174.789611 C67.1741742,175.821771 68.5010994,176.067247 69.10126,175.287328 C69.9594606,174.166256 81.043586,160.483367 84.8117441,146.812076 C85.8777298,142.940509 90.9322224,122.893598 90.9322224,122.893598 C93.95622,128.659393 102.791434,133.739013 112.188152,133.739013 C140.160854,133.739013 159.137913,108.238469 159.137913,74.1037314 C159.137913,48.2919936 137.276024,24.2536772 104.049742,24.2536772 Z M104.049742,24.2536772" id="Pinterest" fill="#808080"></path>
    </g>
</svg>