<?xml version="1.0" encoding="UTF-8" standalone="no"?>
<svg width="200px" height="200px" viewBox="0 0 200 200" version="1.1" xmlns="http://www.w3.org/2000/svg" xmlns:xlink="http://www.w3.org/1999/xlink" xmlns:sketch="http://www.bohemiancoding.com/sketch/ns">
    <title>PlayStation</title>
    <description>Created with Sketch (http://www.bohemiancoding.com/sketch)</description>
    <defs></defs>
    <g id="Page-1" stroke="none" stroke-width="1" fill="none" fill-rule="evenodd" sketch:type="MSPage">
        <path d="M100,0 C44.7714,0 0,44.7714 0,100 C0,155.2286 44.7714,200 100,200 C155.2286,200 200,155.2286 200,100 C200,44.7714 155.2286,0 100,0 Z M137.746269,114.149625 C145.751119,114.18 153.796269,115.18125 161.452985,117.594375 C162.955224,118.053375 164.410448,118.647375 165.90709,119.126625 C168.574627,120.1065 171.245522,121.2945 173.381343,123.221625 C174.665299,124.398375 175.771269,125.9835 175.78694,127.793625 C175.86306,129.26625 175.199254,130.67925 174.248881,131.766 C172.439925,133.8045 170.048881,135.205125 167.647761,136.426875 C165.092164,137.736375 162.345149,138.58125 159.665299,139.578 C143.308582,145.480875 126.950746,151.3815 110.596269,157.291125 C110.59403,152.6865 110.600746,148.083 110.59403,143.480625 C110.618657,143.29725 110.51791,142.976625 110.776493,142.92825 C123.222015,138.47775 135.664179,134.014875 148.107463,129.553125 C149.789925,128.920875 151.602239,128.463 153.030597,127.3155 C153.614925,126.85425 154.18694,126.12075 153.900373,125.329875 C153.601493,124.638 152.887313,124.254375 152.230224,123.968625 C150.367537,123.22725 148.339179,123.08325 146.357836,123.028125 C143.25597,123.0495 140.126119,123.43425 137.176493,124.43325 C128.31194,127.555125 119.46306,130.71525 110.596269,133.827 C110.597388,128.882625 110.59403,123.941625 110.598507,118.998375 C117.013806,116.736 123.712313,115.364625 130.457836,114.585 C132.877985,114.30375 135.313806,114.237375 137.746269,114.149625 Z M76.6033582,107.966625 C76.6201493,112.1775 76.6033582,116.3895 76.6100746,120.60375 C76.6033582,121.17525 76.6402985,121.749 76.5686567,122.317125 C68.130597,125.323125 59.7093284,128.382 51.2791045,131.407125 C50.1104478,131.850375 48.9115672,132.35325 48.0104478,133.249875 C47.5906716,133.670625 47.2492537,134.291625 47.4787313,134.894625 C47.7675373,135.6045 48.4884328,135.990375 49.1533582,136.282875 C51.0026119,137.038875 53.0242537,137.14575 54.994403,137.236875 C57.1906716,137.202 59.3958955,137.036625 61.5473881,136.559625 C63.0014925,136.27275 64.4007463,135.78 65.7865672,135.256875 C69.388806,133.94625 72.9910448,132.62775 76.5988806,131.330625 C76.6257463,134.892375 76.6033582,138.456375 76.6100746,142.0215 C76.5988806,142.733625 76.6425373,143.45025 76.5720149,144.160125 C72.1414179,144.96 67.658209,145.503375 63.1548507,145.57425 C54.0865672,145.780125 44.9970149,144.369375 36.383209,141.520875 C33.5578358,140.6985 30.7503731,139.603875 28.391791,137.8005 C27.0932836,136.79025 25.9313433,135.520125 25.3402985,133.9575 C24.8455224,132.6345 24.8813433,131.105625 25.4981343,129.82875 C26.0925373,128.55525 27.1313433,127.548375 28.2753731,126.7665 C30.9227612,124.929375 33.8421642,123.52875 36.8007463,122.278875 C39.3496269,121.185375 41.9936567,120.334875 44.5962687,119.380875 C55.2675373,115.584 65.9276119,111.751125 76.6033582,107.966625 Z M100.803731,46.81275 C104.473134,47.88375 108.132463,48.991875 111.768284,50.172 C117.479478,52.000125 123.166045,54.070125 128.338806,57.157125 C130.65597,58.57125 132.881343,60.16875 134.783209,62.11725 C136.84403,64.141125 138.53097,66.541875 139.76903,69.154125 C142.024627,73.888125 142.797015,79.17675 143.025373,84.3765 C143.132836,87.7695 143.126119,91.19175 142.495896,94.540875 C141.972015,97.45125 141.040672,100.321125 139.491418,102.849 C138.123507,105.082125 136.221642,107.012625 133.913433,108.256875 C131.699254,109.456125 129.163806,110.027625 126.652985,109.977 C122.844776,110.0175 119.149627,108.796875 115.73209,107.19825 C115.670522,95.776125 115.723134,84.35175 115.705224,72.93075 C115.680597,70.864125 115.820522,68.776125 115.406343,66.737625 C115.115299,65.158125 114.473881,63.56625 113.240299,62.494125 C112.422015,61.75275 111.36194,61.33425 110.296269,61.108125 C109.218284,60.90225 108.068657,61.362375 107.401493,62.232 C106.292164,63.62475 106.001119,65.47425 105.950746,67.207875 C105.941791,97.7865 105.96194,128.36625 105.941791,158.942625 C97.7567164,156.336 89.5705224,153.727125 81.3876866,151.112625 C81.3787313,114.741375 81.3820896,78.37125 81.3865672,42 C87.9440299,43.2285 94.3895522,44.9835 100.803731,46.81275 Z" id="PlayStation" fill="#808080" sketch:type="MSShapeGroup"></path>
    </g>
</svg>