<?xml version="1.0" encoding="UTF-8" standalone="no"?>
<svg width="200px" height="200px" viewBox="0 0 200 200" version="1.1" xmlns="http://www.w3.org/2000/svg" xmlns:xlink="http://www.w3.org/1999/xlink" xmlns:sketch="http://www.bohemiancoding.com/sketch/ns">
    <title>Rdio</title>
    <description>Created with Sketch (http://www.bohemiancoding.com/sketch)</description>
    <defs></defs>
    <g id="Page-1" stroke="none" stroke-width="1" fill="none" fill-rule="evenodd" sketch:type="MSPage">
        <path d="M100,0 C44.771526,3.03201907e-14 0,44.771526 0,100 C1.5158245e-14,155.228474 44.771526,200 100,200 C155.228474,200 200,155.228474 200,100 C200,44.771526 155.228474,-1.51545443e-14 100,0 Z M117.865727,43.1420477 L117.865727,75.3910984 C112.499448,74.97232 107.278729,74.228171 102.05801,74.224279 C88.2227545,74.2141598 73.1568511,87.1635976 70.8395587,100.729527 C69.2376146,110.105337 73.8145979,118.689516 82.7373801,123.042321 C100.699704,131.804753 124.738207,120.880708 129.923898,101.546845 C130.385489,99.8265847 130.542725,97.9786667 130.548952,96.1891285 C130.597992,81.6665473 130.576975,67.1439661 130.576975,52.6221633 L130.576975,47.8591427 C139.186062,52.5622266 146.910111,57.5969082 155.270889,61.1191615 C163.627776,64.6406364 172.621392,66.6489046 181.536391,68.9023683 C183.799195,71.048413 183.07762,73.794603 181.787035,76.3991245 C178.657095,82.7150501 173.501761,86.9075045 167.185836,89.7805734 C165.664845,90.4725697 164.098707,91.0641526 162.989489,91.5218509 C162.430599,98.4527114 162.548916,105.118138 161.262223,111.500227 C156.278916,136.2245 137.452569,154.188381 112.164736,158.273416 C93.0293654,161.364437 75.2336184,157.890444 59.9552122,145.246917 C47.8121953,135.197792 41.0735993,122.221889 39.3665714,106.49279 C35.6178041,71.9466849 61.1531676,44.9082339 91.6336968,41.2544313 C99.5764753,40.3024499 107.368244,40.4371128 115.147559,42.1776119 C116.003019,42.3675412 116.811775,42.7614108 117.865727,43.1420477 Z" id="Rdio" fill="#808080" sketch:type="MSShapeGroup"></path>
    </g>
</svg>