<?xml version="1.0" encoding="UTF-8" standalone="no"?>
<svg width="200px" height="200px" viewBox="0 0 200 200" version="1.1" xmlns="http://www.w3.org/2000/svg" xmlns:xlink="http://www.w3.org/1999/xlink" xmlns:sketch="http://www.bohemiancoding.com/sketch/ns">
    <title>Rdio</title>
    <description>Created with Sketch (http://www.bohemiancoding.com/sketch)</description>
    <defs></defs>
    <g id="Page 1" stroke="none" stroke-width="1" fill="none" fill-rule="evenodd">
        <path d="M100,0 C155.228474,-1.51545443e-14 200,44.771526 200,100 C200,155.228474 155.228474,200 100,200 C44.771526,200 1.5158245e-14,155.228474 0,100 C0,44.771526 44.771526,3.03201907e-14 100,0 Z M118.176264,36.4296505 C116.997888,36.0040774 116.093654,35.5637092 115.137202,35.3513578 C106.439496,33.4053831 97.7278648,33.2548225 88.8473971,34.3191905 C54.7684721,38.4043449 26.2185171,68.6348352 30.4098472,107.2593 C32.3183992,124.845306 39.8525239,139.353087 53.4290914,150.588567 C70.5111983,164.724732 90.4078321,168.608849 111.80224,165.152917 C140.075442,160.58562 161.124343,140.501003 166.695957,112.857893 C168.134551,105.722362 168.002267,98.2700453 168.627137,90.5209583 C169.867304,90.0092262 171.618334,89.3478036 173.318886,88.5741134 C180.380441,85.3618627 186.14439,80.6744657 189.643838,73.61291 C191.086783,70.7009103 191.893545,67.6305174 189.363603,65.2311201 C179.39614,62.7116225 169.340777,60.4662671 159.997314,56.5290625 C150.649499,52.5909877 142.013584,46.9619339 132.388145,41.7036249 L132.388145,47.0289464 C132.388145,63.2651287 132.411643,79.5021813 132.356815,95.7392339 C132.349853,97.740037 132.174053,99.8061121 131.65797,101.729459 C125.860079,123.345791 98.9836973,135.559481 78.9008208,125.762595 C68.9246546,120.895917 63.807333,111.298328 65.5983955,100.815652 C68.1892572,85.648189 85.0337741,71.1699981 100.502358,71.1813119 C106.339412,71.1856634 112.176466,72.0176633 118.176264,72.4858808 Z M118.176264,36.4296505" id="Rdio" fill="#808080"></path>
    </g>
</svg>