<?xml version="1.0" encoding="UTF-8" standalone="no"?>
<svg width="200px" height="200px" viewBox="0 0 200 200" version="1.1" xmlns="http://www.w3.org/2000/svg" xmlns:xlink="http://www.w3.org/1999/xlink" xmlns:sketch="http://www.bohemiancoding.com/sketch/ns">
    <title>reddit</title>
    <description>Created with Sketch (http://www.bohemiancoding.com/sketch)</description>
    <defs></defs>
    <g id="Page-1" stroke="none" stroke-width="1" fill="none" fill-rule="evenodd" sketch:type="MSPage">
        <path d="M137.537017,47.8018735 L111.526115,41.5688289 C110.245733,41.2620084 108.946828,42.0008242 108.556132,43.2581518 L98.8460785,74.5067892 C82.083987,74.7041677 66.8224616,79.1937079 55.4810762,86.4658987 L55.4810762,86.4658987 C52.5077931,83.8805204 48.7099499,82.4330113 44.7621119,82.4330113 C35.6623097,82.4330113 28.259377,89.9490302 28.259377,99.186375 C28.259377,104.98439 31.1306555,110.226057 35.8688444,113.28671 C35.62508,114.833231 35.5,116.405657 35.5,118 C35.5,142.294364 64.5425959,161.5 100,161.5 C135.457404,161.5 164.5,142.294364 164.5,118 C164.5,116.570733 164.39948,115.159079 164.203049,113.767912 C169.343763,110.817804 172.577412,105.276734 172.577412,99.186375 C172.577412,89.9490302 165.174479,82.4330113 156.074677,82.4330113 C151.942286,82.4330113 148.012178,83.9923114 144.994222,86.7737953 L144.994222,86.7737953 C134.258869,79.7480541 119.910618,75.245482 104.062714,74.5844802 L104.062714,74.5844802 L112.750093,46.8318 L136.503502,52.689397 C136.501172,52.7926493 136.5,52.8961878 136.5,53 C136.5,60.4557478 142.544096,66.5 150,66.5 C157.455904,66.5 163.5,60.4557478 163.5,53 C163.5,45.5439692 157.456031,39.5 150,39.5 C144.386166,39.5 139.572825,42.9263045 137.537017,47.8018735 L137.537017,47.8018735 Z M100,0 C44.771524,3.03201907e-14 0,44.771524 0,100 C0,155.228476 44.771524,200 100,200 C155.228476,200 200,155.228476 200,100 C200,44.771524 155.228476,-3.41060513e-14 100,0 Z M101,145.5 C110.929209,145.5 118.552871,143.703599 123.718277,138.815909 C124.721176,137.866931 124.764887,136.284622 123.815909,135.281723 C122.866931,134.278824 121.284622,134.235113 120.281723,135.184091 C116.290054,138.96115 109.759401,140.5 101,140.5 C100.828767,140.5 100.661555,140.517215 100.5,140.550009 C100.338445,140.517215 100.171233,140.5 100,140.5 C91.2411891,140.5 84.7066938,138.960593 80.7188822,135.184664 C79.7162999,134.235352 78.1339766,134.278536 77.1846642,135.281118 C76.2353518,136.2837 76.2785356,137.866023 77.2811178,138.815336 C82.4431332,143.70308 90.0707237,145.5 100,145.5 C100.171233,145.5 100.338445,145.482785 100.5,145.449991 C100.661555,145.482785 100.828767,145.5 101,145.5 Z M122.081252,100 C116.602946,100 112,104.593296 112,110.074893 C112,115.55649 116.602946,120 122.081252,120 C127.559558,120 132,115.55649 132,110.074893 C132,104.593296 127.559558,100 122.081252,100 Z M79.0750946,100 C73.5961912,100 69,104.596099 69,110.074893 C69,115.553687 73.5961912,120 79.0750946,120 C84.553998,120 89,115.553687 89,110.074893 C89,104.596099 84.553998,100 79.0750946,100 Z M158.5,53 C158.5,57.6943529 154.694451,61.5 150,61.5 C145.305549,61.5 141.5,57.6943529 141.5,53 C141.5,48.3053929 145.305393,44.5 150,44.5 C154.694607,44.5 158.5,48.3053929 158.5,53 Z" id="reddit" fill="#808080" sketch:type="MSShapeGroup"></path>
    </g>
</svg>