<?xml version="1.0" encoding="UTF-8" standalone="no"?>
<svg width="200px" height="200px" viewBox="0 0 200 200" version="1.1" xmlns="http://www.w3.org/2000/svg" xmlns:xlink="http://www.w3.org/1999/xlink" xmlns:sketch="http://www.bohemiancoding.com/sketch/ns">
    <title>ResearchGate</title>
    <description>Created with Sketch (http://www.bohemiancoding.com/sketch)</description>
    <defs></defs>
    <g id="Page-1" stroke="none" stroke-width="1" fill="none" fill-rule="evenodd" sketch:type="MSPage">
        <path d="M100,0 C44.7714,0 0,44.7714 0,100 C0,155.2286 44.7714,200 100,200 C155.2286,200 200,155.2286 200,100 C200,44.7714 155.2286,0 100,0 Z M49.8571429,96 L49.8571429,66.55 L59.6236948,66.55 C69.1987936,66.55 73.9862712,71.2676713 73.9862712,80.7031553 C73.9862712,86.2310147 72.6457775,90.1624074 69.9647498,92.4974515 C67.2837222,94.8324955 63.4537401,96 58.4746887,96 L49.8571429,96 Z M31,52 L31,149 L50.6363636,149 L50.6363636,107.971989 L61.1363636,107.971989 C65.2272932,107.971989 68.136355,109.058813 69.8636364,111.232493 C71.5909177,113.406173 72.5454536,116.394939 72.7272727,120.19888 L73.2727273,138.810924 C73.3636368,140.712895 73.5454532,142.54691 73.8181818,144.313025 C74.0909105,146.07914 74.7272677,147.64145 75.7272727,149 L97,149 L97,148.184874 C95.1818091,147.188604 94.0000027,145.331946 93.4545455,142.614846 C93.0909073,139.897746 92.8181827,135.958009 92.6363636,130.795518 C92.5454541,128.168988 92.4545459,125.791561 92.3636364,123.663165 C92.2727268,121.53477 92.1363645,119.564902 91.9545455,117.753501 C91.4090882,112.319301 90.0000114,108.379564 87.7272727,105.934174 C85.4545341,103.488783 81.8636609,101.903832 76.9545455,101.179272 L76.9545455,100.907563 C82.5000277,99.7301528 86.5908959,97.0810197 89.2272727,92.960084 C91.8636495,88.8391484 93.1818182,83.5182399 93.1818182,76.9971989 C93.1818182,68.5741876 90.9091136,62.3023082 86.3636364,58.1813725 C81.8181591,54.0604369 75.4545864,52 67.2727273,52 L31,52 Z M150.429787,80.5818674 L168.92766,80.5818674 C168.92766,70.7487104 166.604279,63.1935311 161.957447,57.9161028 C157.310615,52.6386746 149.714946,50 139.170213,50 C133.004224,50 127.865978,51.0374276 123.755319,53.1123139 C119.64466,55.1872003 116.33831,58.2769303 113.83617,62.3815968 C111.33403,66.4862632 109.569154,71.6057429 108.541489,77.7401894 C107.513825,83.874636 107,91.0013126 107,99.120433 C107,107.510191 107.357443,114.884948 108.07234,121.244926 C108.787238,127.604903 110.19467,132.949911 112.294681,137.280108 C114.394691,141.610306 117.298918,144.8128 121.007447,146.887686 C124.715976,148.962572 129.519119,150 135.417021,150 C139.974491,150 143.884026,149.210653 147.145745,147.631935 C150.407463,146.053217 153.199988,143.369437 155.523404,139.580514 L155.791489,139.580514 L155.791489,148.511502 L170,148.511502 L170,96.4140731 L138.768085,96.4140731 L138.768085,110.757781 L151.502128,110.757781 L151.502128,120.635995 C151.502128,123.252156 151.100004,125.529986 150.295745,127.469553 C149.491485,129.409121 148.486176,131.010368 147.279787,132.273342 C146.073398,133.536317 144.777666,134.483533 143.392553,135.11502 C142.00744,135.746507 140.734048,136.062246 139.57234,136.062246 C136.802114,136.062246 134.545753,135.182688 132.803191,133.423545 C131.06063,131.664403 129.720217,129.138492 128.781915,125.845737 C127.843612,122.552983 127.195746,118.561142 126.838298,113.870095 C126.480849,109.179047 126.302128,103.946804 126.302128,98.173207 C126.302128,86.0847388 127.329777,77.4244736 129.385106,72.1921516 C131.440436,66.9598295 134.791466,64.3437077 139.438298,64.3437077 C141.404265,64.3437077 143.07978,64.8624215 144.464894,65.8998647 C145.850007,66.9373078 146.989357,68.2453687 147.882979,69.8240866 C148.7766,71.4028045 149.424466,73.1393681 149.826596,75.0338295 C150.228725,76.9282909 150.429787,78.7776184 150.429787,80.5818674 Z" id="ResearchGate" fill="#808080" sketch:type="MSShapeGroup"></path>
    </g>
</svg>