<?xml version="1.0" encoding="UTF-8" standalone="no"?>
<svg width="200px" height="200px" viewBox="0 0 200 200" version="1.1" xmlns="http://www.w3.org/2000/svg" xmlns:xlink="http://www.w3.org/1999/xlink" xmlns:sketch="http://www.bohemiancoding.com/sketch/ns">
    <title>Runkeeper</title>
    <description>Created with Sketch (http://www.bohemiancoding.com/sketch)</description>
    <defs></defs>
    <g id="Page-1" stroke="none" stroke-width="1" fill="none" fill-rule="evenodd" sketch:type="MSPage">
        <path d="M0,100 C0,155.2286 44.7714,200 100,200 C155.2286,200 200,155.2286 200,100 C200,44.7714 155.2286,0 100,0 C44.7714,0 0,44.7714 0,100 Z M102.921975,39.8630403 C100.892709,39.8989047 99.2872507,39.6935636 97.7666484,40.4303068 C93.4146363,42.5388034 89.0035536,44.530565 84.7014703,46.735872 C81.3726476,48.4423596 78.1584502,50.3759881 74.9233905,52.260391 C73.6756387,52.9872891 72.5178994,53.8707715 71.6025376,55.0130398 C70.9888584,55.7786152 70.5083228,56.5873215 70.4696455,57.6421558 C70.3278289,61.5068344 70.2396916,65.3738571 70.5158238,69.2310346 C70.6424039,70.9972961 70.8228978,72.8003596 72.1484729,74.2356375 C74.1003853,76.3490567 74.0103728,78.9985662 73.6271163,81.5381384 C73.3973968,83.0599128 73.3198079,84.5481668 73.3254337,86.0638465 C73.3268401,86.4543696 73.3695023,86.8484089 73.3327003,87.234947 C73.2290921,88.322364 73.648213,89.2213173 74.2982253,90.0386967 C74.9831644,90.9001447 75.8028879,91.6289181 76.6891831,92.2695541 C77.5398484,92.8846397 78.4329415,93.0156736 79.4169847,92.4460631 C80.4279848,91.8607472 81.5029782,91.3863062 82.5496083,90.8626395 C84.3885362,89.942824 85.4874391,88.3704176 83.5683439,86.1618289 C82.8667618,85.354529 82.3864606,84.4349479 82.0657909,83.4122274 C81.4132001,81.3299844 80.7582652,79.2470382 80.0407434,77.1865952 C78.8133851,73.6627453 78.0682032,70.0596656 77.9934272,66.318051 C77.9706897,65.1809396 78.382075,64.2681563 79.1012377,63.4521833 C80.0217564,62.4078973 81.1895752,61.7006895 82.4176368,61.0860727 C83.7108637,60.4388733 85.072772,59.963729 86.4381965,59.4951481 C88.7998533,58.6850354 91.1439296,57.8226497 93.5140252,57.0387906 C96.3208221,56.1105364 97.7235174,57.9393847 97.313304,60.0089697 C96.9952129,61.6139587 97.2139152,63.2672357 97.4063639,64.9073859 C97.8308761,68.5280461 97.8522072,72.1372204 96.8665231,75.7060766 C96.6009393,76.6680855 96.1506422,77.4278006 95.4035851,78.023196 C94.0937152,79.0672476 93.4434685,80.4115753 93.4240126,82.0786824 C93.4195589,82.4710808 93.3136067,82.8463674 93.1846825,83.2197788 C92.5487346,85.0626915 91.8755158,86.895056 91.3145784,88.7609407 C90.7662989,90.5855697 90.1779358,92.4036353 90.1287102,94.3501562 C90.0905017,95.8665392 90.5091538,97.286815 90.8546706,98.7213897 C91.0954073,99.7209039 91.1078309,100.625952 90.5543944,101.530765 C89.7597526,102.829852 89.1289616,104.216373 88.4878568,105.596331 C86.2023824,110.515844 84.1703026,115.532167 82.5695329,120.721015 C81.9103787,122.85764 81.1190185,124.930038 79.0660765,126.202871 C77.7735528,127.004311 76.5604934,127.939598 75.2414816,128.691343 C70.4944927,131.39711 66.9228237,135.204593 64.3187893,139.984868 C63.0689278,142.279015 62.0089365,144.675365 60.5942865,146.880906 C59.3097327,148.883216 58.0554174,150.905216 56.7673475,152.905182 C56.163279,153.843047 55.3367577,154.390623 54.1579218,154.431879 C53.1075412,154.468681 52.0606767,154.646362 51.0152187,154.783022 C49.8422429,154.936324 48.9704809,155.55352 48.4845539,156.626638 C48.0230053,157.645373 47.861264,158.739822 48.130364,159.833334 C48.3577394,160.756666 48.3910253,161.684451 48.4313434,162.620675 C48.4597067,163.283346 48.4784593,163.950704 48.5733944,164.605639 C49.1219082,168.383821 49.748011,172.151689 50.2311252,175.938076 C50.4709242,177.817791 51.3890988,179.00108 53.1098853,179.692114 C54.6919023,180.327359 55.4863098,180.021926 56.0362301,178.378728 C56.5073894,176.971345 56.7378121,175.504891 56.9159619,174.03492 C57.1077074,172.453606 57.4972929,170.942146 58.687146,169.807848 C60.4170743,168.15879 61.0466932,166.014194 61.6158349,163.804434 C62.2290453,161.423321 62.981025,159.067524 64.1521255,156.903942 C66.6677882,152.256342 70.2359411,148.530198 74.5354458,145.488994 C75.7513182,144.628952 76.9142145,143.699995 77.8438751,142.536161 C79.2861853,140.730519 81.134255,139.327823 82.632823,137.570704 C83.5397461,136.507431 84.8348483,135.828586 86.0823657,135.180684 C89.1552153,133.584836 91.5607064,131.357495 93.5773152,128.49069 C97.4893442,122.929369 102.200703,118.015247 106.815955,113.032444 C107.681154,112.09833 108.384142,111.506919 109.777461,112.073014 C110.952078,112.550268 111.557318,112.964935 111.718122,114.219953 C111.940575,115.955742 111.515828,117.518772 110.659537,119.036327 C108.742786,122.432659 106.887449,125.863918 105.020393,129.288145 C103.091921,132.824418 101.081172,136.304199 98.0887245,139.081695 C95.5613414,141.427647 93.5822378,144.149588 92.3087011,147.361676 C91.3555997,149.765761 91.063059,152.132106 92.3743353,154.570883 C93.7662478,157.159446 95.3780347,159.59166 97.1234339,161.940893 C98.0139484,163.139654 99.0870666,164.157452 100.512734,164.739251 C100.971235,164.926309 101.383558,164.938029 101.868782,164.813324 C103.215688,164.467339 103.599882,163.406644 103.736776,162.25875 C103.90344,160.863321 103.946102,159.422886 103.659891,158.053477 C103.206312,155.883331 103.324453,153.701699 103.24077,151.521708 C103.18123,149.971805 103.454081,148.507461 104.145818,147.101015 C104.609007,146.159399 104.983356,145.167386 105.31809,144.171154 C106.027408,142.059141 107.132405,140.227714 108.769508,138.689766 C110.077034,137.461235 111.338616,136.173634 112.522843,134.826494 C115.461377,131.483372 118.660338,128.387316 121.652083,125.092717 C124.352693,122.118787 127.139096,119.217993 129.869008,116.267738 C130.869225,115.186885 131.605734,113.882875 131.799355,112.448769 C132.370137,108.21818 131.109727,104.64112 127.558921,102.08467 C125.565518,100.649392 123.465694,99.3624946 121.457993,97.9459693 C120.216336,97.069988 118.809421,96.4349777 117.704893,95.362094 C116.69483,94.3808636 116.45761,93.4094784 117.129891,92.2029824 C118.195977,90.2899817 119.03961,88.2738417 119.998571,86.3118498 C122.344523,81.5118848 124.685552,76.7095757 127.026346,71.9070321 C127.487192,70.9614318 127.865995,69.9666058 128.412633,69.0742159 C129.039908,68.0503234 129.755554,68.1201769 130.326337,69.1841531 C130.546446,69.5943665 130.721314,70.0369281 130.857739,70.4827714 C131.553695,72.7560566 132.209802,75.0417654 132.922401,77.3096592 C133.283389,78.4589598 133.531393,79.6544387 134.189609,80.6970838 C135.023866,82.0193773 136.201764,82.2718343 137.45397,81.3553005 C137.765732,81.1269874 138.067415,80.8588251 138.299244,80.5526887 C138.840257,79.8377455 139.348218,79.096783 139.848444,78.3520699 C142.328008,74.6599153 144.694587,70.8957976 147.032803,67.1124585 C149.032535,63.8771644 150.811454,60.5617029 151.524288,56.7685186 C151.813781,55.2277572 152.123668,53.7104366 151.318712,52.2203073 C151.17502,51.9540203 151.172442,51.6150668 151.077507,51.3183068 C150.658855,50.0072649 148.824615,48.9212544 147.35652,49.8736526 C146.405528,50.4906134 145.394059,50.9983404 144.448459,51.6164733 C142.797292,52.6959204 141.774102,54.0808007 142.163219,56.2125037 C142.316287,57.0507454 142.2973,57.9201633 142.423646,58.7731726 C142.660163,60.3676133 141.598531,62.1441888 140.116137,62.7431003 C138.682266,63.3225559 137.189792,62.7194251 136.656984,61.2628161 C136.081279,59.6892377 135.566988,58.0929217 135.168261,56.4607414 C134.687022,54.4914829 134.227114,52.5142545 133.653988,50.5712497 C132.836374,47.799145 130.606689,46.6625024 128.042738,46.0171782 C126.305543,45.580008 124.498729,45.341381 123.224723,43.8728172 C122.065812,42.5366938 122.192861,41.0217172 123.556176,39.8801521 C124.189311,39.3501564 124.90988,38.9563516 125.610993,38.536762 C127.385693,37.4748954 128.274098,35.9512458 128.123374,33.8680652 C127.987418,31.9876472 128.260737,30.2312308 129.410272,28.6527298 C130.211477,27.5524204 130.020435,26.3503781 129.178677,25.4164981 C127.206137,23.2280685 125.362287,20.7745238 122.104255,20.4184586 C120.736018,20.2689066 119.375516,19.6875756 117.971648,20.2206186 C116.587706,20.7461605 115.198137,21.2574035 113.822868,21.8049797 C112.230537,22.4390524 111.098114,23.5771014 110.302768,25.0831705 C109.756364,26.1178457 109.180894,27.1377533 108.601907,28.154848 C107.325088,30.3978946 106.878307,32.5685093 108.499471,34.9371984 C109.719093,36.7191652 108.87757,38.6638109 106.880417,39.4964268 C105.439045,40.0976824 103.951963,39.792718 102.921975,39.8630403 Z" id="Runkeeper" fill="#808080" sketch:type="MSShapeGroup"></path>
    </g>
</svg>