<?xml version="1.0" encoding="UTF-8" standalone="no"?>
<svg width="200px" height="200px" viewBox="0 0 200 200" version="1.1" xmlns="http://www.w3.org/2000/svg" xmlns:xlink="http://www.w3.org/1999/xlink" xmlns:sketch="http://www.bohemiancoding.com/sketch/ns">
    <title>Skype</title>
    <description>Created with Sketch (http://www.bohemiancoding.com/sketch)</description>
    <defs></defs>
    <g id="Page-1" stroke="none" stroke-width="1" fill="none" fill-rule="evenodd" sketch:type="MSPage">
        <path d="M100,0 C44.7714,0 0,44.7714 0,100 C0,155.2286 44.7714,200 100,200 C155.2286,200 200,155.2286 200,100 C200,44.7714 155.2286,0 100,0 L100,0 L100,0 Z M164.926099,114.836301 C165.918862,110.291507 166.447477,105.57194 166.447477,100.731322 C166.447477,64.4438758 137.025572,35.0219709 100.73168,35.0219709 C96.9024484,35.0219709 93.1441289,35.3507433 89.4954001,35.982502 C83.6226228,32.2822011 76.6732772,30.1355108 69.2211032,30.1355108 C48.1732243,30.1355108 31.1092931,47.1994421 31.1092931,68.2408745 C31.1092931,75.2804713 33.0239087,81.8623655 36.3503116,87.5159611 C35.4800318,91.7900021 35.0158825,96.2058664 35.0158825,100.731322 C35.0158825,137.025214 64.4377874,166.447119 100.73168,166.447119 C104.844558,166.447119 108.867185,166.066774 112.767327,165.344764 C118.13083,168.226358 124.261468,169.864489 130.778897,169.864489 C151.826776,169.864489 168.890707,152.807004 168.890707,131.759126 C168.890707,125.679343 167.45958,119.935497 164.926099,114.836301 Z M80.4996434,57.3491254 C74.9742618,59.3926714 70.6830301,62.3716786 67.7441345,66.2044913 C64.7837505,70.0645226 63.2824283,74.5384056 63.2824283,79.5029402 C63.2824283,84.7110098 64.7128388,89.1419161 67.5349808,92.6724587 C70.3134298,96.1507129 74.111861,98.9298781 78.8235489,100.934745 C83.4320924,102.89377 89.2260789,104.627883 96.0457779,106.088377 C101.060452,107.138443 105.115311,108.142668 108.102914,109.073831 C110.967317,109.967032 113.326026,111.267796 115.11386,112.940309 C116.822187,114.539762 117.651639,116.57901 117.651639,119.173375 C117.651639,122.456801 116.061498,125.138552 112.788816,127.372629 C109.438059,129.65971 104.984949,130.820083 99.5526833,130.820083 C95.6016845,130.820083 92.3906026,130.247775 90.0082564,129.120351 C87.6395194,128.000806 85.7850713,126.566814 84.4972004,124.860636 C83.1563248,123.086411 81.8856446,120.835144 80.7216901,118.167718 C79.6795031,115.718042 78.3816043,113.822049 76.8688216,112.539909 C75.2858434,111.201898 73.3382789,110.524298 71.0805653,110.524298 C68.329335,110.524298 66.0221981,111.382401 64.2221872,113.075686 C62.4035531,114.784729 61.4809848,116.872685 61.4809848,119.280101 C61.4809848,123.132969 62.8970698,127.127661 65.6884118,131.153869 C68.4525351,135.139966 72.0926685,138.370387 76.5078166,140.754882 C82.6835802,144.031146 90.5970383,145.691482 100.03474,145.691482 C107.898774,145.691482 114.807292,144.477388 120.570479,142.081432 C126.389535,139.661839 130.881325,136.253064 133.921216,131.951088 C136.972567,127.633354 138.519015,122.698904 138.519015,117.285978 C138.519015,112.761955 137.620084,108.868259 135.847292,105.714479 C134.078797,102.57216 131.58686,99.9391162 128.438811,97.88984 C125.355227,95.8835406 121.57327,94.1565902 117.197517,92.7555471 C112.876202,91.3738436 107.988309,90.0952843 102.670649,88.9535345 C98.4689521,87.9822592 95.4039913,87.2315981 93.5781944,86.7244721 C91.7953742,86.2316716 90.0161354,85.5426106 88.2884688,84.6744796 C86.6231185,83.8414463 85.3058801,82.8400873 84.3725677,81.6990537 C83.4908274,80.6224853 83.0617758,79.3711447 83.0617758,77.8734039 C83.0617758,75.4323226 84.3940561,73.3715859 87.1352585,71.5744402 C89.9796052,69.7092479 93.810269,68.7644749 98.5212406,68.7644749 C103.593217,68.7644749 107.284206,69.6168478 109.49178,71.2965237 C111.767401,73.0256229 113.75078,75.4803134 115.388911,78.5939812 C116.804996,81.0321973 118.08069,82.7276314 119.310543,83.8142277 C120.632795,84.9846287 122.537383,85.5791408 124.970585,85.5791408 C127.649471,85.5791408 129.920077,84.6300702 131.719372,82.7584314 C133.508639,80.8989693 134.416165,78.7651721 134.416165,76.4172072 C134.416165,73.9775586 133.723523,71.4555378 132.360442,68.9213402 C131.010971,66.4122124 128.8607,63.996201 125.971227,61.7384874 C123.101811,59.4972482 119.450217,57.6757489 115.118874,56.326278 C110.811884,54.9868349 105.652521,54.3085181 99.7840417,54.3085181 C92.4407422,54.3092343 85.953397,55.3320818 80.4996434,57.3491254 Z" id="Skype" fill="#808080" sketch:type="MSShapeGroup"></path>
    </g>
</svg>