<?xml version="1.0" encoding="UTF-8" standalone="no"?>
<svg width="200px" height="200px" viewBox="0 0 200 200" version="1.1" xmlns="http://www.w3.org/2000/svg" xmlns:xlink="http://www.w3.org/1999/xlink" xmlns:sketch="http://www.bohemiancoding.com/sketch/ns">
    <title>SlideShare</title>
    <description>Created with Sketch (http://www.bohemiancoding.com/sketch)</description>
    <defs></defs>
    <g id="Page-1" stroke="none" stroke-width="1" fill="none" fill-rule="evenodd" sketch:type="MSPage">
        <path d="M49.8552021,103.888776 C66.9161426,112.994187 81.5816656,111.388172 89.5647443,111.137091 C93.6944856,110.929764 96.0117525,112.108443 97.132922,114.176598 L97.132922,114.176598 C98.799745,115.702875 100.422394,117.008198 102.001428,118.070307 L102.001428,118.070307 C102.06335,113.715983 104.149828,110.821576 110.433932,111.137091 C118.371593,111.386723 132.915876,112.975701 149.85042,104.045297 L149.85042,56.1517682 C149.85042,47.916039 147.180071,44.6535295 139.617182,44.6535295 L60.0588379,44.6535295 C52.0767061,44.6535295 49.8552021,47.3985423 49.8552021,56.1517682 L49.8552021,103.888776 Z M43,99.7065932 C42.6283708,99.4505949 42.255927,99.1891233 41.8827087,98.9220651 C38.0677069,96.2531435 35.5662125,99.8859569 37.9058334,103.357892 C42.4602404,108.950115 51.1170434,115.894674 64.3927285,121.356957 C50.3481443,169.313669 98.6735584,176.931302 97.935525,152.34381 C97.935525,152.797193 97.9622128,138.564317 97.9812482,128.354927 C99.5126575,128.711642 100.800854,129.06087 102.02038,129.345144 C102.039046,139.458749 102.063789,152.782708 102.063789,152.34381 C101.326438,176.931302 149.684366,169.313669 135.606778,121.356957 C148.882539,115.894674 157.541449,108.950115 162.093824,103.357892 C164.433458,99.8859569 161.934007,96.2531435 158.117612,98.9220651 C157.408859,99.4292483 156.702894,99.9162821 155.999995,100.383942 L156,50.5000681 C156,43.5860629 150.81695,38 144.443636,38 L54.5542992,38 C48.1809852,38 43,43.5860629 43,50.5000681 L43,99.7065932 Z M100,0 C44.7714,0 0,44.7714 0,100 C0,155.2286 44.7714,200 100,200 C155.2286,200 200,155.2286 200,100 C200,44.7714 155.2286,0 100,0 Z M103,90.4996546 C103,98.5096587 109.943453,105 118.501036,105 C127.057238,105 134,98.5096587 134,90.4996546 C134,82.4910321 127.057238,76 118.501036,76 C109.943453,76 103,82.4910321 103,90.4996546 Z M98,90.4996546 C98,98.5096587 91.0581551,105 82.5,105 C73.9425357,105 67,98.5096587 67,90.4996546 C67,82.4910321 73.9425357,76 82.5,76 C91.0581551,76 98,82.4910321 98,90.4996546 Z" id="SlideShare" fill="#808080" sketch:type="MSShapeGroup"></path>
    </g>
</svg>