<?xml version="1.0" encoding="UTF-8" standalone="no"?>
<svg width="200px" height="200px" viewBox="0 0 200 200" version="1.1" xmlns="http://www.w3.org/2000/svg" xmlns:xlink="http://www.w3.org/1999/xlink" xmlns:sketch="http://www.bohemiancoding.com/sketch/ns">
    <title>Soundcloud</title>
    <description>Created with Sketch (http://www.bohemiancoding.com/sketch)</description>
    <defs></defs>
    <g id="Page-1" stroke="none" stroke-width="1" fill="none" fill-rule="evenodd" sketch:type="MSPage">
        <path d="M94.8071745,132.33886 L94.8073394,132.336881 L94.8071633,132.339347 C94.7943756,132.892376 94.5629384,133.393385 94.1981651,133.756697 C93.8311927,134.122569 93.3288073,134.348991 92.7790826,134.348991 C92.16,134.348991 91.6014679,134.062385 91.2278899,133.615046 C90.9515596,133.284404 90.7787156,132.864954 90.7559633,132.409541 C90.7544954,132.386422 90.7515596,132.36367 90.7511927,132.340183 C90.7511927,132.340183 89.9856881,116.046972 89.9856881,116.022752 L90.7438532,75.826055 L90.7511927,75.4433028 C90.7622018,74.7354128 91.1346789,74.1119266 91.6866055,73.7508257 C92.0033028,73.5438532 92.3779817,73.4220183 92.7790826,73.4220183 C93.1915596,73.4220183 93.5772477,73.5493578 93.8994495,73.7677064 C94.4355963,74.1310092 94.7952294,74.746055 94.8073394,75.4418349 L95.6612844,116.035596 L94.8917431,130.718165 L94.8073622,132.330574 L94.8077064,132.329541 L94.8073394,132.333578 L94.8072418,132.335824 C94.8072762,132.33422 94.8073087,132.332615 94.8073394,132.331009 L94.8073394,132.336514 L94.8071811,132.338573 C94.8071789,132.338669 94.8071767,132.338764 94.8071745,132.33886 L94.8071745,132.33886 Z M0,100 C7.5791226e-15,155.228474 44.771526,200 100,200 C155.228474,200 200,155.228474 200,100 C200,44.771526 155.228474,-2.2737368e-14 100,0 C44.771526,1.5158245e-14 0,44.771526 0,100 Z M160.106789,95.0829358 C157.413945,95.0829358 154.844404,95.6289908 152.504954,96.6088073 C150.940917,78.8979817 136.088807,65.0033028 117.971009,65.0033028 C113.537248,65.0033028 109.216147,65.8748624 105.398532,67.3519266 C103.914862,67.9266055 103.521468,68.5155963 103.507156,69.6627523 L103.507156,132.038165 C103.522936,133.241101 104.456147,134.17578 105.630092,134.293211 C105.680367,134.298349 160.106789,134.293211 160.106789,134.293211 C170.960367,134.293211 179.758532,125.592294 179.758532,114.737248 C179.758532,103.881835 170.960367,95.0829358 160.106789,95.0829358 Z M100.591193,69.9188991 C100.267523,69.7229358 99.8913761,69.6080734 99.4902752,69.6080734 C98.9743119,69.6080734 98.4983486,69.7933945 98.1247706,70.1020183 C97.6444037,70.4983486 97.333578,71.0976147 97.3247706,71.7666055 L97.320367,71.9897248 L96.4374312,116.039633 L96.8877064,124.182752 L97.3251376,132.107156 C97.3405505,133.28 98.3108257,134.24844 99.4902752,134.24844 C100.665688,134.24844 101.63633,133.28 101.652844,132.090275 L101.652844,132.108624 L101.652844,132.108991 L102.616147,116.04 L102.616147,116.039633 L101.652844,71.7640367 C101.642202,70.9812844 101.216147,70.2965138 100.591193,69.9188991 Z M86.0392661,80.0363303 C84.9988991,80.0363303 84.1673394,80.8645872 84.1475229,81.9207339 L83.3020183,116.030826 L84.1482569,132.44367 C84.1677064,133.489174 84.9988991,134.314862 86.0392661,134.314862 C87.0766972,134.314862 87.9075229,133.489174 87.9302752,132.431927 L87.9302752,132.445505 L88.8777982,116.032294 L87.9302752,81.9174312 C87.9075229,80.8638532 87.0766972,80.0363303 86.0392661,80.0363303 Z M79.3504587,78.88 C78.3882569,78.88 77.6168807,79.6469725 77.5944954,80.626055 L76.6682569,116.028991 L77.5955963,132.546055 C77.6172477,133.515963 78.3882569,134.284771 79.3504587,134.284771 C80.3086239,134.284771 81.0788991,133.515963 81.1049541,132.537615 L81.1049541,132.549358 L82.146422,116.028991 L81.1049541,80.6242202 C81.0788991,79.6462385 80.3089908,78.88 79.3504587,78.88 Z M74.3317431,79.6957798 C74.3031193,78.7930275 73.5926606,78.0866055 72.7133945,78.0866055 C71.8311927,78.0866055 71.12,78.7937615 71.0943119,79.6968807 L70.0873394,116.026055 L71.0950459,132.702385 C71.12,133.595229 71.8311927,134.301284 72.7133945,134.301284 C73.5926606,134.301284 74.3023853,133.595229 74.3317431,132.695046 L75.466422,116.027156 L74.3317431,79.6957798 Z M66.1273394,79.4058716 C65.3240367,79.4058716 64.6726606,80.053211 64.6440367,80.8785321 C64.6440367,80.879633 63.5566972,116.023853 63.5566972,116.023853 L64.6447706,132.804404 C64.6726606,133.621651 65.3240367,134.267523 66.1273394,134.267523 C66.9262385,134.267523 67.5768807,133.623119 67.6099083,132.797431 L67.6091743,132.807339 L68.8370642,116.023486 L67.6099083,80.8774312 C67.5768807,80.0521101 66.9262385,79.4058716 66.1273394,79.4058716 Z M59.4943119,82.3368807 C58.7695413,82.3368807 58.1783486,82.9225688 58.146789,83.6708257 C58.146789,83.6726606 56.9790826,116.109358 56.9790826,116.109358 L58.1482569,133.064587 C58.1783486,133.806239 58.7695413,134.391927 59.4943119,134.391927 C60.213945,134.391927 60.8051376,133.806239 60.839633,133.057982 L60.8388991,133.067523 L62.1607339,116.108991 L60.839633,83.6704587 C60.8051376,82.9222018 60.213945,82.3368807 59.4943119,82.3368807 Z M53.1108257,88.4190826 C52.4653211,88.4190826 51.933578,88.9453211 51.9009174,89.6165138 C51.9009174,89.6172477 50.6517431,116.017248 50.6517431,116.017248 L51.9009174,133.078165 C51.933578,133.74422 52.4653211,134.271193 53.1108257,134.271193 C53.7508257,134.271193 54.2818349,133.744587 54.32,133.074495 L54.32,133.079633 L55.733578,116.016881 L54.32,89.6150459 C54.2822018,88.9442202 53.7511927,88.4190826 53.1108257,88.4190826 Z M47.7522936,99.7768807 C47.7111927,99.1787156 47.2495413,98.7240367 46.6788991,98.7240367 C46.1031193,98.7240367 45.6418349,99.1794495 45.6058716,99.7838532 L44.2755963,116.010642 L45.6058716,133.073394 C45.6418349,133.674495 46.1027523,134.130642 46.6788991,134.130642 C47.2491743,134.130642 47.7104587,133.674862 47.7522936,133.072661 L49.2594495,116.010642 L47.7522936,99.7768807 Z M47.7526606,133.07156 L47.7526606,133.072661 L47.7522936,133.074862 L47.7526606,133.07156 Z M40.2998165,97.5944954 C39.8044037,97.5944954 39.4011009,97.9908257 39.3614679,98.5159633 L37.9522936,116.009174 L39.3618349,132.932477 C39.4011009,133.45578 39.8047706,133.851743 40.3001835,133.851743 C40.7889908,133.851743 41.1919266,133.45578 41.2363303,132.932477 L42.8370642,116.009174 L41.2359633,98.5130275 C41.1915596,97.9897248 40.7886239,97.5944954 40.2998165,97.5944954 Z M33.9710092,98.1963303 C33.5489908,98.1963303 33.2121101,98.5258716 33.1695413,98.9805505 C33.1695413,98.9816514 31.6788991,116.005505 31.6788991,116.005505 L33.1695413,132.408807 C33.2117431,132.864954 33.5486239,133.194128 33.9710092,133.194128 C34.3853211,133.194128 34.7214679,132.865321 34.7706422,132.41211 L36.4653211,116.005505 L34.7717431,98.9798165 C34.7214679,98.5251376 34.3853211,98.1963303 33.9710092,98.1963303 Z M21.786422,106.505321 C21.453211,106.505321 21.1897248,106.762936 21.1456881,107.130275 L19.9772477,116.004037 L21.1456881,124.726606 C21.1897248,125.093945 21.453211,125.350826 21.786422,125.350826 C22.1104587,125.350826 22.372844,125.096147 22.4256881,124.729908 L23.8095413,116.004404 L22.4256881,107.127706 C22.373578,106.761101 22.1104587,106.505321 21.786422,106.505321 Z M27.693945,101.009541 C27.3544954,101.009541 27.0748624,101.281101 27.0293578,101.655413 C27.0293578,101.656881 25.4583486,116.004037 25.4583486,116.004037 L27.0293578,130.035963 C27.0748624,130.411376 27.3544954,130.68367 27.693945,130.68367 C28.0308257,130.68367 28.3031193,130.418349 28.3570642,130.039266 L30.1453211,116.004037 L28.3577982,101.654679 C28.3031193,101.273761 28.0308257,101.009541 27.693945,101.009541 Z" id="Soundcloud" fill="#808080" sketch:type="MSShapeGroup"></path>
    </g>
</svg>