<?xml version="1.0" encoding="UTF-8" standalone="no"?>
<svg width="1001px" height="1002px" viewBox="0 0 1001 1002" version="1.1" xmlns="http://www.w3.org/2000/svg" xmlns:xlink="http://www.w3.org/1999/xlink" xmlns:sketch="http://www.bohemiancoding.com/sketch/ns">
    <title>Soundcloud</title>
    <description>Created with Sketch (http://www.bohemiancoding.com/sketch)</description>
    <defs></defs>
    <g id="Page 1" fill="#D8D8D8" fill-rule="evenodd">
        <path d="M500,0.5 C223.85763,0.5 0,224.35763 0,500.5 C5.68434189e-14,776.64237 223.85763,1000.5 500,1000.5 C776.14237,1000.5 1000,776.64237 1000,500.5 C1000,224.35763 776.14237,0.5 500,0.5 L500,0.5 L500,0.5 Z M585.875,334.875 C594.58615,334.77853 603.06879,335.1754 609.34375,336.09375 C623.06215,338.10145 633.07866,340.59857 644.84375,344.96875 C699.59503,365.30631 739.90299,414.04795 749.6875,471.75 L751.8125,484.1875 L757,482.40625 C772.39863,477.10838 795.56969,476.30294 811.375,480.53125 C829.43751,485.36341 848.91753,498.10841 860.53125,512.6875 C867.86505,521.89391 875.24353,536.49448 878.25,547.78125 C881.41063,559.6469 881.38907,583.04612 878.21875,594.84375 C869.39362,627.68451 844.68983,652.53669 811.3125,662.15625 L803.6875,664.34375 L665,664.5625 C588.52357,664.68587 525.39896,664.42673 524.28125,663.96875 C523.16633,663.5119 521.31625,661.96625 520.1875,660.53125 L518.15625,657.90625 L518.15625,504.84375 L518.15625,351.78125 L521.03125,349.09375 C524.42088,345.92735 540.4865,340.47979 555.09375,337.53125 C563.0603,335.92317 574.67495,334.99904 585.875,334.875 L585.875,334.875 L585.875,334.875 Z M499.25,356.8125 C503.06467,356.7949 504.37266,357.24766 506.59375,359.46875 C509.21007,362.08505 509.31114,362.58272 509.875,375.09375 C510.19476,382.18876 511.33949,430.73572 512.4375,483 L514.4375,578.03125 L512.46875,611.15625 C509.57096,659.87225 509.78286,658.02964 506.59375,661.21875 C504.35859,663.4539 503.07454,663.93034 499.25,663.90625 C496.70177,663.89015 493.86138,663.44435 492.9375,662.90625 C488.91367,660.56256 488.50685,657.7266 486.28125,617 L484.125,577.53125 L486.25,470.9375 C487.70385,397.93314 488.73047,363.69329 489.46875,362.25 C491.39732,358.47978 494.34878,356.83509 499.25,356.8125 L499.25,356.8125 L499.25,356.8125 Z M467.28125,374.71875 C469.76627,374.79616 472.2943,375.76306 474.25,377.71875 L477.1875,380.65625 L479.25,479.34375 L481.3125,578 L479.1875,618.09375 C476.90258,661.28474 476.79546,661.94354 471.46875,663.96875 C467.18906,665.59589 463.77421,665.04173 460.71875,662.1875 C458.99903,660.58104 457.62032,658.13028 457.3125,656.1875 C457.02633,654.38142 456.02867,636.2625 455.125,615.9375 C453.56954,580.95256 453.58868,573.79551 455.1875,481.5625 C456.13371,426.97959 457.29228,382.79744 457.8125,381.09375 C459.09357,376.89818 463.13955,374.58973 467.28125,374.71875 L467.28125,374.71875 L467.28125,374.71875 Z M368.375,397.46875 C369.30588,397.38801 370.40936,397.5625 371.75,397.5625 C380.32659,397.5625 379.50481,390.37019 382.625,489.78125 L385.34375,577.1875 L382.625,617.4375 C381.12858,639.58067 379.46745,658.83545 378.90625,660.21875 C377.25609,664.2862 372.17025,665.88702 367.75,663.75 C366.59975,663.19389 365.20747,661.60662 364.65625,660.21875 C364.10502,658.83086 362.55396,639.70652 361.21875,617.71875 L358.8125,577.75 L361.25,490.0625 C363.58967,405.89003 363.34827,397.90474 368.375,397.46875 L368.375,397.46875 L368.375,397.46875 Z M403.6875,400.9375 C406.46029,400.9375 408.02526,401.57034 409.75,403.40625 L412.0625,405.875 L414.59375,491.9375 L417.125,578 L414.5,618.3125 C413.05464,640.49768 411.57079,659.33643 411.21875,660.15625 C410.40024,662.06232 405.58645,664.92501 403.28125,664.875 C402.30686,664.8539 400.37891,664.21817 399,663.46875 C397.6211,662.71934 396.03904,660.87937 395.46875,659.40625 C394.89844,657.93314 393.48564,638.87711 392.3125,617.03125 L390.15625,577.3125 L392.28125,492.71875 C393.62099,439.53095 394.81571,407.15168 395.46875,405.46875 C396.76541,402.12714 398.90803,400.9375 403.6875,400.9375 L403.6875,400.9375 L403.6875,400.9375 Z M340.34375,402.9375 C343.30067,402.83271 345.57792,404.24061 346.78125,406.96875 C347.84889,409.38929 348.75805,428.45695 350.96875,494.53125 L353.8125,579 L351.0625,615.46875 C349.55295,635.52979 348.29998,653.6047 348.28125,655.625 C348.25565,658.37749 347.53991,659.99136 345.4375,662.09375 C342.33461,665.19665 340.38926,665.48298 336.625,663.4375 C335.23945,662.68459 333.85778,661.16041 333.5625,660.03125 C333.26721,658.9021 331.84015,639.85397 330.40625,617.6875 L327.8125,577.375 L330.40625,492.75 C333.21233,401.84315 332.99234,404.5539 338.1875,403.25 C338.93446,403.06253 339.66138,402.96168 340.34375,402.9375 L340.34375,402.9375 L340.34375,402.9375 Z M435.75,406.03125 C436.77256,406.0426 437.75316,406.21132 438.65625,406.5625 C444.62395,408.8831 444.25715,404.88505 446.8125,493.8125 L449.15625,575.15625 L447.15625,611.625 C444.63923,657.64988 444.52856,658.68039 441.96875,661.625 C439.68715,664.24956 434.43425,665.38528 431.09375,663.96875 C426.08447,661.84457 425.95213,660.95712 423.75,617.75 L421.6875,577.28125 L423.71875,494.78125 C425.66513,415.81481 425.8397,412.16672 427.65625,409.71875 C429.38532,407.38869 432.68231,405.9972 435.75,406.03125 L435.75,406.03125 L435.75,406.03125 Z M309.65625,416.53125 C311.75754,416.60977 313.83577,417.56587 315,419.4375 C316.0371,421.10475 317.02221,438.93267 319.4375,499.53125 L322.5625,577.46875 L319.34375,618.9375 C316.84462,651.37934 315.84064,660.77078 314.6875,662.125 C312.8417,664.29268 309.09333,665.10682 306.25,663.9375 C305.05449,663.44584 303.72029,662.04575 303.28125,660.84375 C302.84222,659.64175 301.24459,640.41937 299.75,618.125 L297.03125,577.59375 L299.75,500.0625 C301.24601,457.42248 302.84652,421.56933 303.28125,420.375 C304.22782,417.77443 306.95459,416.4303 309.65625,416.53125 L309.65625,416.53125 L309.65625,416.53125 Z M278.65625,445.96875 C280.52848,445.96339 282.40156,446.70873 283.375,448.21875 C284.45658,449.89661 285.5112,464.50028 288.15625,513.75 L291.5625,577.15625 L288.15625,618.875 C284.79571,660.15408 284.74253,660.61273 282.375,662.75 C281.05922,663.93783 279.38925,664.90625 278.65625,664.90625 C277.92325,664.90625 276.23699,663.93783 274.90625,662.75 C272.49002,660.59327 272.48546,660.51375 269.46875,619.09375 L266.4375,577.625 L269.46875,514.03125 C271.88673,463.04697 272.7577,450.00289 273.90625,448.25 C274.89936,446.73432 276.78402,445.97411 278.65625,445.96875 L278.65625,445.96875 L278.65625,445.96875 Z M217.6875,489.46875 C219.51333,489.45736 221.36006,490.22629 221.96875,491.8125 C222.293,492.65747 224.28852,512.29752 226.40625,535.4375 L230.25,577.5 L226.375,618.5625 C222.78403,656.57823 222.33766,659.75736 220.46875,661.3125 C219.35848,662.23636 218.1297,662.96875 217.71875,662.96875 C217.3078,662.96875 216.05387,662.23636 214.9375,661.3125 C213.03697,659.73969 212.69635,657.01039 209.5,618.4375 L206.0625,577.21875 L209.4375,535.34375 C211.29434,512.30652 213.10204,492.74919 213.4375,491.875 C214.04912,490.28116 215.86167,489.48014 217.6875,489.46875 L217.6875,489.46875 L217.6875,489.46875 Z M187.59375,492.3125 C188.65071,492.22625 189.6887,492.50119 190.40625,493.21875 C191.35998,494.17245 192.84222,505.70124 195.59375,533.40625 C197.71645,554.77968 199.46831,574.54312 199.46875,577.3125 C199.46971,586.20434 191.83304,656.50111 190.71875,657.84375 C188.98782,659.92939 185.15499,659.41645 184.125,656.96875 C183.62516,655.78093 181.63346,637.32176 179.71875,615.9375 L176.25,577.0625 L179.71875,537.21875 C181.62107,515.31339 183.38862,496.42979 183.65625,495.25 C184.03571,493.57721 185.83214,492.45625 187.59375,492.3125 L187.59375,492.3125 L187.59375,492.3125 Z M248.34375,495.0625 C249.92931,495.04142 251.45084,495.48098 252.21875,496.40625 C252.93424,497.26837 254.81628,513.05285 257.09375,537.4375 L260.78125,577.0625 L257.5,615 C253.58545,660.04966 253.5137,660.64254 251.65625,662.5 C249.67848,664.47776 246.19449,664.30489 244.25,662.15625 C242.92174,660.68854 242.07462,653.22493 239.375,618.90625 L236.09375,577.40625 L239.375,537.875 C241.17509,516.13963 242.65151,498.28177 242.65625,498.1875 C242.66125,498.0932 243.3579,497.32958 244.1875,496.5 C245.13558,495.55192 246.75819,495.08358 248.34375,495.0625 L248.34375,495.0625 L248.34375,495.0625 Z M157.28125,505.71875 C157.76913,505.64356 158.29994,505.76639 158.9375,505.96875 C161.29233,506.71612 160.9794,504.93361 165.9375,545.40625 L169.9375,578.03125 L165.53125,612.03125 C162.62004,634.53766 160.72341,646.29401 159.90625,646.8125 C158.08155,647.97025 156.6522,647.78893 155.375,646.25 C154.7362,645.48029 152.59456,630.06323 150.46875,611.0625 L146.65625,577.25 L150.46875,542.6875 C153.80153,512.29192 154.6467,506.1248 157.28125,505.71875 L157.28125,505.71875 L157.28125,505.71875 Z M129.875,531.46875 C132.32986,531.46875 133.13272,534.34178 136.46875,555.46875 L139.875,577.09375 L136.53125,598.1875 C134.70077,609.7981 133.02168,619.8401 132.78125,620.5 C132.00817,622.62174 127.52593,621.91006 126.65625,619.53125 C126.22198,618.34343 124.66086,608.30511 123.21875,597.21875 L120.625,577.0625 L123.4375,555.71875 C126.1481,535.31804 127.171,531.46875 129.875,531.46875 L129.875,531.46875 L129.875,531.46875 Z M129.875,531.46875" id="Soundcloud" fill="#808080"></path>
    </g>
</svg>