<?xml version="1.0" encoding="UTF-8" standalone="no"?>
<svg width="200px" height="200px" viewBox="0 0 200 200" version="1.1" xmlns="http://www.w3.org/2000/svg" xmlns:xlink="http://www.w3.org/1999/xlink" xmlns:sketch="http://www.bohemiancoding.com/sketch/ns">
    <title>Spotify</title>
    <description>Created with Sketch (http://www.bohemiancoding.com/sketch)</description>
    <defs></defs>
    <g id="Page-1" stroke="none" stroke-width="1" fill="none" fill-rule="evenodd" sketch:type="MSPage">
        <path d="M100,0 C44.771526,3.03201907e-14 0,44.771526 0,100 C1.5158245e-14,155.228474 44.771526,200 100,200 C155.228474,200 200,155.228474 200,100 C200,44.771526 155.228474,-1.51545443e-14 100,0 Z M173.554561,80.2608667 C173.510125,79.799569 173.659149,79.259695 173.419084,78.7532836 C173.425994,77.8317721 173.016719,77.0347636 172.657435,76.2239364 C172.34462,75.5179681 171.884406,74.9108977 171.428798,74.2893313 C170.793955,73.4233652 169.973645,72.8138562 169.093183,72.2459384 C168.011673,71.5483697 166.87787,70.9379124 165.759647,70.3084883 C164.814427,69.7764719 163.838996,69.2840146 162.865461,68.7983312 C162.15719,68.4448729 161.432119,68.1139037 160.719242,67.7718254 C159.362986,67.120996 157.989389,66.5102677 156.62514,65.8782696 C156.492238,65.8167633 156.373018,65.7181363 156.23551,65.6751903 C155.455029,65.430926 154.723998,65.073268 153.981586,64.7375571 C153.393212,64.4714811 152.773406,64.275853 152.16891,64.0451364 C151.584058,63.8220065 151.002051,63.59129 150.416927,63.3689729 C149.578057,63.0501966 148.741624,62.7239691 147.895844,62.4241595 C147.323727,62.2213511 146.735081,62.0659595 146.158222,61.8760214 C145.582718,61.6864897 145.014393,61.4755527 144.439837,61.282905 C143.863385,61.08958 143.291132,60.8901585 142.697609,60.7411343 C141.887595,60.537784 141.104134,60.2302522 140.304145,59.9843623 C139.741917,59.8114942 139.160994,59.6955263 138.606488,59.5020658 C137.931273,59.266472 137.232214,59.1158221 136.547786,58.9208714 C135.922291,58.7427197 135.293274,58.5571168 134.656805,58.4103957 C134.448035,58.3623015 134.218132,58.3808618 134.022097,58.3058078 C133.049917,57.9335183 132.013386,57.8226984 131.019395,57.5426684 C130.857636,57.4971483 130.697367,57.443635 130.533169,57.4096304 C130.366669,57.3750839 130.203826,57.3828061 130.027436,57.325364 C129.545681,57.1684822 129.034392,57.1020987 128.534484,57.0010332 C128.242532,56.9419654 127.944213,56.9059286 127.659305,56.8228815 C127.172403,56.6809021 126.673713,56.5652051 126.181256,56.4803968 C125.611577,56.3823118 125.028622,56.2861234 124.476826,56.15295 C123.877884,56.0085319 123.255505,55.9948488 122.669704,55.7890599 C122.410944,55.6981552 122.123327,55.6580541 121.847903,55.6537189 C121.452583,55.6474869 121.089099,55.4136544 120.684973,55.5103847 C120.112042,55.2611078 119.481263,55.2116589 118.884896,55.1361984 C118.155219,55.0439389 117.435432,54.8786575 116.700878,54.8064485 C116.361916,54.7731213 115.997755,54.7706827 115.677895,54.673546 C115.464384,54.6087882 115.263066,54.5835896 115.049825,54.5579845 C114.818025,54.5300764 114.591508,54.4604414 114.359979,54.4296882 C114.141997,54.4006962 113.88405,54.4646412 113.709285,54.3684528 C113.483039,54.2439499 113.273863,54.30085 113.061707,54.2988179 C112.8379,54.2966503 112.642949,54.203036 112.438244,54.1697087 C111.899318,54.0821909 111.349148,54.064037 110.803177,54.0209555 C110.713492,54.0139107 110.591563,54.0576696 110.537779,54.0133688 C110.323726,53.8372493 110.075668,53.8629898 109.84441,53.8927947 C109.566818,53.9285605 109.342876,53.76355 109.086554,53.7516281 C108.695027,53.7333388 108.304719,53.6726453 107.92132,53.6422985 C107.219687,53.5866177 106.525099,53.3850285 105.81195,53.4764752 C105.723078,53.4878552 105.60562,53.5144086 105.545604,53.471869 C105.263948,53.2717701 104.947204,53.3260962 104.649833,53.3522432 C104.331056,53.3802869 104.055903,53.2323465 103.7565,53.2105347 C103.18777,53.1692144 102.622155,53.2308562 102.046651,53.0929411 C101.568012,52.9781925 101.05144,53.0314347 100.546654,52.9589548 C99.7188925,52.8401419 98.872706,52.9718251 98.0286871,52.8199559 C97.2961654,52.6881372 96.5370903,52.8267297 95.7808602,52.6897629 C95.1250182,52.5710854 94.4300235,52.6827181 93.7534536,52.6600935 C93.0714646,52.6373335 92.3911014,52.5401968 91.7095189,52.535726 C89.2712119,52.5198753 86.832363,52.5087662 84.3941916,52.5353196 C81.9743094,52.5616021 79.5515823,52.4114941 77.1342742,52.6596871 C76.2763012,52.7477468 75.4153477,52.6335401 74.5447754,52.7722681 C73.6789447,52.9101832 72.7778902,52.7692876 71.8941767,52.9253566 C71.3132532,53.0279124 70.7098407,52.850709 70.1179436,53.055956 C69.855932,53.1468608 69.5297044,53.1094692 69.2443908,53.0612396 C68.9177568,53.0059652 68.6581838,53.2082316 68.3505165,53.212025 C67.8478985,53.2181214 67.3516479,53.1950904 66.8433399,53.3208127 C66.3651077,53.4392192 65.848942,53.3347667 65.3418533,53.4571021 C64.9065671,53.5620964 64.4370054,53.5045189 63.9767916,53.5943398 C63.3554961,53.7155913 62.7083246,53.7039403 62.0722622,53.7481057 C62.0047949,53.7528474 61.9049487,53.7197911 61.874331,53.7535248 C61.6926569,53.9540301 61.4588244,53.8543193 61.2481584,53.8864273 C61.0170354,53.9217866 60.7892993,53.9792287 60.5587182,54.0185169 C60.2179947,54.0765009 59.8803871,53.9645972 59.519884,54.1304205 C59.2290158,54.2642714 58.843856,54.2133322 58.4997456,54.2641359 C57.9041907,54.3520602 57.3049779,54.4078765 56.7186354,54.5590683 C56.449037,54.6285678 56.1761873,54.5005425 55.8803065,54.6715139 C55.6478287,54.8057711 55.2762165,54.6327676 55.0026894,54.83246 C54.294418,54.7469743 53.6449434,55.0851238 52.9481875,55.1198058 C52.6329336,55.1355211 52.277985,55.1627518 51.9963292,55.2638173 C51.4698674,55.4526717 50.911433,55.4373628 50.388629,55.6305524 C50.0526472,55.7546489 49.6627457,55.728231 49.2992621,55.7841828 C49.1342516,55.8095169 48.9768279,55.8810485 48.8124948,55.9135629 C48.6461296,55.9463482 48.482203,55.9692437 48.3151604,56.0153058 C47.6198947,56.207276 46.9011916,56.3133542 46.1930557,56.4603462 C45.8993426,56.5213107 45.5842241,56.5404129 45.3142193,56.6307757 C44.7139227,56.831552 44.0945239,56.9563259 43.4874535,57.1151044 C42.8965048,57.2696832 42.2924149,57.3994697 41.6999759,57.5541839 C41.0929055,57.7126915 40.4812289,57.8630704 39.879442,58.0530086 C39.3644957,58.2155804 38.8219121,58.342251 38.3001919,58.5025198 C37.7828069,58.6614338 37.2617641,58.8150642 36.7502047,59.0064925 C35.7833085,59.3682149 34.8894342,59.8450924 34.1248046,60.5051341 C33.102634,61.3874929 32.2766335,62.4287657 31.6867686,63.6846333 C31.1302309,64.8696467 30.7900493,66.0740332 30.7710826,67.3671569 C30.7617347,68.0026774 30.6771973,68.6445653 30.8866441,69.2788665 C30.9996315,69.6210803 30.9400218,70.0220909 31.0618153,70.359292 C31.5997926,71.8488567 32.2779882,73.2651285 33.4485056,74.3810489 C33.7171556,74.637235 34.0221134,74.8549459 34.298621,75.1035453 C34.7787499,75.5353091 35.3156435,75.8783357 35.8965669,76.1537596 C36.1224063,76.260786 36.3594903,76.3443751 36.5892585,76.4435439 C37.3537527,76.7734293 38.1438519,76.997372 38.9790649,77.0545431 C39.1908147,77.0690391 39.3929457,77.0514272 39.6205463,77.1352872 C39.9131757,77.2431265 40.2937293,77.2271403 40.5997708,77.1381322 C40.7710132,77.0884123 40.9335851,77.0691746 41.1025243,77.0521046 C41.4024694,77.0218933 41.7235488,77.1342034 41.9946374,76.9154087 C42.6755426,76.9445362 43.2560596,76.5723821 43.8969991,76.4329767 C44.5915874,76.2819204 45.2546096,75.9780465 45.9513655,75.8466342 C46.7865785,75.689075 47.5745101,75.3297912 48.4334314,75.2896901 C48.5769011,75.010202 48.8834845,75.2420024 49.0940151,75.0713019 C49.2575353,74.9385349 49.528082,74.9230906 49.756089,74.888544 C49.9675679,74.8564361 50.172273,74.8901698 50.3851066,74.7621444 C50.57369,74.6487506 50.8358371,74.6575565 51.0654699,74.6123074 C51.2951026,74.5671937 51.532593,74.5452465 51.7526069,74.4714117 C52.0898081,74.3581534 52.479845,74.4383555 52.7699003,74.3129042 C53.2937882,74.0862519 53.8491065,74.0954643 54.3800391,73.9544332 C55.0762531,73.7695077 55.802001,73.6608555 56.5136593,73.5574869 C57.2392718,73.4520862 57.9544525,73.2238082 58.7002509,73.2563226 C58.7646022,73.2591676 58.8341017,73.2556452 58.8939823,73.2346463 C59.3433581,73.0765452 59.8022171,72.9769699 60.2813977,72.9864533 C60.3942497,72.9886209 60.5518089,73.0348184 60.6123669,72.9784602 C60.8701788,72.7385312 61.2210631,72.9752087 61.4321355,72.8329583 C61.7200232,72.6389559 61.9943632,72.7621041 62.2693806,72.7187516 C62.379523,72.7014106 62.5261087,72.7610203 62.602111,72.708049 C62.9269838,72.4820741 63.321356,72.6946368 63.6214366,72.5499478 C63.9759787,72.3791119 64.3190053,72.4920993 64.6629803,72.4467147 C64.7517174,72.4350637 64.8781171,72.4831579 64.927566,72.4381797 C65.1181815,72.2649052 65.3411759,72.3307468 65.554416,72.3054127 C65.7862164,72.2779109 66.0124622,72.1985217 66.2442626,72.1782002 C66.7227658,72.1364734 67.2167133,72.2616537 67.6780109,72.0383884 C68.4559173,72.1027397 69.2121474,71.8002206 69.9928988,71.9008797 C70.1039895,71.9152402 70.248543,71.9474836 70.3260356,71.8950542 C70.6332964,71.6869622 70.9745618,71.7453526 71.2898158,71.7805765 C71.6574991,71.8217614 71.9696371,71.6422549 72.3187602,71.6268106 C73.0907056,71.5926705 73.8575028,71.6575638 74.6382542,71.5238484 C75.4805119,71.3795659 76.3554195,71.4760252 77.2216565,71.3844431 C78.6381994,71.234606 80.0705929,71.4380918 81.5012253,71.2486956 C82.4331685,71.1254119 83.394781,71.2253936 84.3429814,71.2253936 C85.2911818,71.2253936 86.240195,71.2043947 87.187718,71.2313546 C88.1176291,71.257908 89.0433404,71.2270193 89.9800252,71.3307944 C91.4388367,71.4924179 92.922305,71.2652237 94.392632,71.485644 C95.1546876,71.5998508 95.9296134,71.4653226 96.7105003,71.6045925 C97.5066959,71.7465719 98.3391994,71.6728726 99.1581551,71.7365466 C100.105001,71.8101104 101.053066,72.0065514 102.012375,71.9033183 C102.057082,71.8985766 102.115337,71.8843515 102.145819,71.9054859 C102.423411,72.0979981 102.739342,72.0545101 103.039423,72.0308017 C103.355083,72.0057385 103.634978,72.1397248 103.932755,72.1666847 C104.411123,72.2099017 104.885833,72.185245 105.370568,72.2882071 C105.988341,72.4193484 106.638222,72.3998398 107.27442,72.4438697 C107.341887,72.4484759 107.436585,72.4154196 107.473164,72.4491533 C107.702526,72.6607676 107.979304,72.5481866 108.234,72.5819203 C108.509966,72.6183635 108.782545,72.6825794 109.058917,72.7127906 C109.558419,72.7673877 110.078784,72.739344 110.55363,72.8746851 C110.861432,72.9623384 111.152165,72.9578677 111.452246,72.9890273 C111.773461,73.0223546 112.095624,73.0609654 112.411555,73.1258586 C112.79685,73.204977 113.214389,73.17883 113.567577,73.2839598 C114.252275,73.487852 114.957972,73.5180633 115.647277,73.6356569 C116.324118,73.7510829 116.998385,73.9533494 117.69785,73.9346537 C117.985467,74.1554804 118.348544,73.9846445 118.643341,74.1050832 C119.205569,74.3348514 119.809659,74.3330902 120.387195,74.4718182 C120.743092,74.5573039 121.123781,74.565297 121.471143,74.646312 C122.04868,74.7809757 122.618765,74.9396187 123.208765,75.0240206 C123.520361,75.0685924 123.82288,75.1749415 124.13109,75.2462021 C124.790996,75.3986133 125.446702,75.5794745 126.113924,75.6867719 C126.807564,75.7982691 127.473025,76.0128639 128.155285,76.1632429 C128.97817,76.344646 129.793738,76.5620859 130.60714,76.78359 C131.093636,76.9160861 131.590293,77.0010299 132.069609,77.1749818 C132.520881,77.3386375 132.993288,77.4728947 133.459057,77.5743667 C134.223822,77.7410028 134.97233,77.9705001 135.71596,78.1913269 C136.677573,78.4769114 137.638779,78.7749599 138.594837,79.0841173 C139.311102,79.3157822 140.044165,79.5114104 140.732928,79.8085105 C141.656607,80.2068115 142.633393,80.4510757 143.55355,80.8484285 C144.224701,81.1383483 144.931075,81.3379052 145.588814,81.6583073 C146.208755,81.9602845 146.870422,82.1586222 147.501066,82.4408198 C148.107323,82.7123148 148.721709,82.9821841 149.340024,83.231461 C149.980015,83.4895438 150.608491,83.7702512 151.230058,84.0646418 C152.457882,84.6461071 153.676358,85.247894 154.889279,85.8598415 C155.842899,86.3410543 156.79137,86.8339179 157.725074,87.3523867 C158.40747,87.7311791 159.059925,88.1637558 159.730534,88.5642245 C159.96396,88.7036298 160.203618,88.8392419 160.455469,88.9386816 C160.688759,89.0308057 160.950636,89.0505853 161.184333,89.1421674 C161.440383,89.2425555 161.696705,89.3226222 161.963052,89.3925281 C162.216664,89.4590471 162.46147,89.5063284 162.72294,89.5212308 C162.999447,89.5369461 163.274465,89.6506109 163.54745,89.641263 C164.251793,89.6170127 164.958032,89.7383997 165.66251,89.5257015 C166.284889,89.337931 166.922577,89.2394396 167.544415,88.9984268 C168.677812,88.5590763 169.627367,87.9965777 170.177131,87.5172617 C171.50304,86.3612403 172.52223,85.0612073 173.138242,83.1984047 C173.407975,82.3829714 173.604281,81.5374622 173.555509,80.660658 C173.549142,80.5490253 173.554561,80.4357669 173.554561,80.2608667 Z M159.465,112.671735 C159.452129,112.221004 159.478005,111.69969 159.342258,111.174312 C159.199872,110.623736 159.083633,110.07492 158.850207,109.547375 C158.539695,108.845471 158.134214,108.20277 157.679012,107.598951 C157.388415,107.21352 156.982663,106.912085 156.615657,106.587618 C156.182674,106.204762 155.678295,105.923783 155.186515,105.625735 C154.608843,105.275799 154.039435,104.911367 153.453228,104.576469 C152.999381,104.317167 152.497441,104.134815 152.066219,103.844896 C151.381249,103.384411 150.636399,103.043552 149.913361,102.65934 C149.081806,102.217416 148.241038,101.792968 147.402168,101.364997 C146.395983,100.851812 145.413101,100.281049 144.372641,99.8500985 C143.389352,99.4427205 142.443997,98.9505342 141.442554,98.5843411 C140.954432,98.4059185 140.51752,98.0689883 140.022083,97.932157 C138.988261,97.6467079 138.088561,97.0172838 137.028457,96.8156947 C135.75281,96.1808516 134.389916,95.7698158 133.05493,95.2915835 C131.500201,94.7347749 129.926641,94.2298538 128.355926,93.7188363 C127.598341,93.4724044 126.832357,93.2491391 126.062714,93.0430792 C125.554677,92.9070608 125.061678,92.7244384 124.541584,92.6203924 C123.98762,92.5095726 123.446798,92.3236987 122.904349,92.1611269 C122.298092,91.9794528 121.687093,91.8264998 121.072571,91.6801851 C120.476339,91.5383412 119.869946,91.4139737 119.288887,91.2397509 C118.459093,90.9908804 117.612093,90.8083935 116.773629,90.629158 C116.005071,90.464825 115.247486,90.1803242 114.442484,90.1929235 C113.947317,89.9177707 113.351762,90.0356353 112.849957,89.7864939 C112.18558,89.8696765 111.596799,89.4182686 110.93039,89.5155408 C110.31492,89.2459425 109.634828,89.2913271 108.993075,89.1343098 C108.753553,89.0756484 108.507256,88.9625255 108.242535,88.9706541 C107.961557,88.9791891 107.691959,88.9176828 107.413825,88.8596988 C106.827889,88.7377699 106.22258,88.7116229 105.631767,88.5779076 C105.320577,88.5074598 104.994891,88.5565023 104.668257,88.4509661 C104.37197,88.3550487 104.034904,88.4016526 103.70949,88.3161669 C103.362263,88.2248557 102.984826,88.2785044 102.614433,88.179742 C102.267748,88.087347 101.889498,88.1139004 101.520595,88.0449428 C100.897945,87.928704 100.252264,87.9346649 99.6163368,87.890635 C99.5488695,87.8860288 99.4548487,87.9190851 99.4174572,87.8853515 C99.1658773,87.6586992 98.8645774,87.7943112 98.5890181,87.7535328 C98.3135943,87.7127543 98.04088,87.6466418 97.7642369,87.6227979 C97.2635155,87.5797164 96.7671295,87.6217141 96.2576022,87.5079138 C95.7110897,87.3858494 95.1282696,87.4705223 94.5546619,87.3689148 C93.8882528,87.2509148 93.1990835,87.3495417 92.5111336,87.2356059 C91.6653535,87.0955232 90.7947812,87.2365543 89.9256991,87.1037872 C89.1094529,86.9791488 88.256899,87.0383521 87.4246665,87.0879365 C86.5971758,87.1372499 85.7944772,86.9256356 84.9743022,86.9410799 C83.2318028,86.9737297 81.4878131,86.8687354 79.746533,87.0653119 C79.1000389,87.1383338 78.438236,87.0658538 77.7838842,87.0803498 C77.1464671,87.0945748 76.5148754,87.0834658 75.8719037,87.1880537 C75.0484772,87.32204 74.1971425,87.1621776 73.3551558,87.3319297 C72.7356215,87.4568391 72.0880436,87.2972478 71.4452074,87.4629356 C70.9692783,87.5856773 70.4517578,87.4943661 69.9442627,87.5955671 C69.3935505,87.7053031 68.8130335,87.6276751 68.240916,87.7375465 C67.6192141,87.8570369 66.9721781,87.8449794 66.3362512,87.8894158 C66.291273,87.8925317 66.2282764,87.8703136 66.2034842,87.8928027 C65.9329375,88.1380152 65.6057616,87.9781529 65.3086615,88.0248923 C65.0121034,88.0716317 64.7139195,88.1587431 64.4184451,88.151021 C63.9307295,88.1382862 63.4759348,88.3956916 62.9842904,88.2962518 C62.6167425,88.5999903 62.1106021,88.2684791 61.7419704,88.5672049 C61.2944913,88.4722359 60.8811524,88.68805 60.4450534,88.7212418 C60.1051427,88.7471178 59.7350208,88.763375 59.424373,88.8634922 C59.0090019,88.997343 58.5853668,89.0221352 58.1708085,89.0904154 C57.789442,89.1532765 57.4151203,89.3413179 57.0109938,89.2444522 C56.2780656,89.5408749 55.4852568,89.589511 54.7240141,89.7617017 C54.0000274,89.9254928 53.2637124,90.0685561 52.5282102,90.196175 C52.2168851,90.2502301 51.9116564,90.3399156 51.6046665,90.4174082 C51.0120921,90.5668388 50.4280527,90.7779113 49.8264013,90.8560813 C48.9570483,90.9689332 48.1448664,91.2787681 47.3016603,91.4772412 C46.7518965,91.6066214 46.2105322,91.7985916 45.6659165,91.9293265 C44.9062994,92.1116779 44.1634815,92.3545874 43.4077933,92.5466931 C42.7295977,92.7191548 42.0676593,93.0006751 41.4490733,93.3731001 C40.9480811,93.6746709 40.4701198,93.9874863 40.0407946,94.3868711 C39.2382315,95.1333469 38.6799326,96.0310145 38.1949266,97.0092907 C37.8273787,97.7503474 37.6343246,98.5304214 37.5649606,99.3140178 C37.4978997,100.072416 37.4626758,100.850457 37.6489561,101.631073 C37.8113925,102.311978 37.9959115,102.976355 38.2898957,103.604154 C38.6295354,104.329495 39.0717308,104.992517 39.6714855,105.538488 C40.000829,105.838298 40.2941357,106.187556 40.6554517,106.440355 C41.2568321,106.86101 41.8729795,107.274484 42.5845023,107.498834 C43.0846817,107.656528 43.5893319,107.906483 44.0956078,107.915695 C45.0450274,107.9329 46.0036595,108.06079 46.9536211,107.813817 C47.5849418,107.649619 48.2101661,107.472145 48.8345775,107.284374 C49.5398684,107.072353 50.2561329,106.894337 50.9730749,106.72445 C51.5893577,106.578541 52.2022536,106.409873 52.8117626,106.247843 C53.4424059,106.080123 54.0848357,105.959955 54.7135824,105.783023 C55.2255483,105.638876 55.7371078,105.431732 56.2914778,105.501367 C56.7878639,105.230956 57.3690583,105.281624 57.8810242,105.087216 C58.2447787,104.949165 58.6570339,105.073532 58.968359,104.935211 C59.491163,104.703004 60.0463459,104.695824 60.5775494,104.580533 C61.1160687,104.463617 61.6720645,104.378267 62.2219638,104.293458 C62.8162994,104.201741 63.416596,104.155272 64.005919,104.018035 C64.2394806,103.963708 64.5306197,104.06071 64.7243512,103.956528 C64.9531711,103.83338 65.161805,103.875784 65.3698969,103.88608 C65.6217478,103.898544 65.8370201,103.744372 66.0587952,103.752907 C66.6368736,103.77499 67.1840634,103.507288 67.7643095,103.602799 C67.8279835,103.613231 67.9234944,103.623662 67.9579055,103.588574 C68.1875382,103.354741 68.4710907,103.518262 68.7238899,103.469896 C68.9754699,103.421802 69.2265079,103.362735 69.4806619,103.337265 C69.9582168,103.289171 70.4322492,103.354199 70.9206422,103.222516 C71.3715081,103.100994 71.8688425,103.167106 72.3515455,103.083788 C73.0191739,102.968633 73.7079367,103.082975 74.3954802,102.948583 C75.058367,102.819067 75.7513295,102.945873 76.439144,102.815003 C77.0273832,102.703099 77.6538267,102.791836 78.2633357,102.791836 C78.8728447,102.791836 79.4854697,102.753496 80.0910499,102.802674 C80.6967655,102.851852 81.2673928,102.636309 81.8644379,102.654057 C83.0201884,102.688468 84.1744486,102.627368 85.3325022,102.771921 C86.1549803,102.874612 87.0008959,102.777205 87.8357024,102.796036 C88.6531679,102.814461 89.4686012,102.740897 90.2893182,102.909024 C90.8847376,103.030952 91.50942,102.921758 92.1300381,103.040165 C92.838174,103.17537 93.5792307,103.00467 94.308501,103.181738 C94.7669537,103.292964 95.2607657,103.166023 95.7430622,103.31884 C96.1738776,103.4554 96.6407298,103.27901 97.1140849,103.44104 C97.5270174,103.582342 98.0156813,103.464884 98.4749469,103.588032 C98.8438495,103.68693 99.2481115,103.575704 99.6396388,103.723644 C99.8767227,103.813194 100.223543,103.649945 100.433938,103.762797 C100.70191,103.906537 100.948478,103.857766 101.202903,103.869552 C101.464643,103.881745 101.709043,103.934987 101.962655,103.996765 C102.250543,104.066942 102.552927,104.023996 102.857884,104.126822 C103.15241,104.226127 103.490424,104.191038 103.815703,104.259318 C104.400827,104.38206 105.006813,104.411188 105.596814,104.544767 C105.844736,104.600855 106.098619,104.565495 106.359276,104.668728 C106.604217,104.76573 106.901724,104.684986 107.182567,104.808405 C107.448372,104.925321 107.770535,104.914076 108.06777,104.959326 C108.365141,105.004439 108.675112,105.011484 108.956497,105.104827 C109.276086,105.210906 109.611526,105.167689 109.914722,105.248568 C110.328061,105.358846 110.734491,105.452731 111.159345,105.51776 C111.662776,105.594846 112.144124,105.810931 112.670044,105.788984 C112.700527,105.787765 112.728299,105.864715 112.766639,105.877721 C112.945197,105.938144 113.127684,106.036771 113.307732,106.034332 C113.877547,106.026881 114.379352,106.391313 114.956482,106.314091 C115.098597,106.594257 115.409109,106.354057 115.614356,106.53844 C115.798333,106.703586 116.108439,106.518525 116.35731,106.705076 C116.526113,106.831476 116.80804,106.799097 117.03388,106.858707 C117.401427,106.955708 117.766943,107.057316 118.137065,107.145104 C118.526696,107.237499 118.9231,107.324611 119.303925,107.433398 C120.252667,107.704352 121.200596,107.977066 122.151235,108.243142 C122.995525,108.479413 123.834531,108.750637 124.667712,109.030938 C124.967386,109.131732 125.256222,109.242417 125.569986,109.311916 C125.890117,109.382771 126.207132,109.517976 126.518186,109.63286 C126.990051,109.807083 127.466251,109.959901 127.941503,110.121389 C128.434096,110.288702 128.921947,110.477692 129.413591,110.653134 C130.002779,110.863529 130.597114,111.069454 131.162323,111.334717 C131.900534,111.68113 132.722064,111.823652 133.414485,112.275195 C134.921526,112.723893 136.292413,113.501529 137.748109,114.076085 C138.425762,114.343651 139.010615,114.826218 139.741917,114.984726 C140.331782,115.480435 141.081238,115.680669 141.741822,116.049436 C143.040636,116.774371 144.363835,117.458121 145.66292,118.185224 C146.214174,118.493704 146.772337,118.805842 147.283355,119.163907 C147.847208,119.558956 148.448182,119.878274 149.077471,120.071735 C149.615584,120.237152 150.163586,120.510814 150.772689,120.411239 C150.911688,120.388479 151.064641,120.470984 151.212852,120.480468 C151.469851,120.496996 151.746088,120.551999 151.979243,120.479113 C152.130841,120.431696 152.275395,120.395659 152.419677,120.409071 C152.974318,120.460959 153.485065,120.281182 154.000553,120.131345 C155.252492,119.767455 156.356219,119.133018 157.257138,118.194436 C157.893878,117.531143 158.413024,116.776132 158.795881,115.923849 C159.185105,115.057477 159.474212,114.179589 159.465,113.220686 C159.463645,113.062991 159.465,112.905025 159.465,112.671735 Z M80.064361,132.326131 C80.5836426,132.326131 81.1057692,132.292533 81.6215285,132.335343 C82.158693,132.38005 82.6583305,132.166133 83.1896696,132.184829 C83.8662394,132.208537 84.5467382,132.227639 85.220734,132.180223 C85.9145094,132.131451 86.5796993,132.316783 87.2648042,132.335479 C88.6686122,132.373548 90.0760781,132.197428 91.4782604,132.449956 C92.0352045,132.550209 92.6097605,132.475697 93.1855359,132.570124 C93.9409531,132.69395 94.7231947,132.612935 95.4986625,132.707768 C96.1931153,132.792712 96.8936646,132.969915 97.6070841,132.86885 C97.6513849,132.862618 97.7195296,132.848664 97.7390382,132.871017 C97.9373759,133.09916 98.1999295,132.966664 98.4311879,133.005004 C98.6619045,133.043344 98.8889632,133.111488 99.1207636,133.135468 C99.6653793,133.19169 100.225304,133.171775 100.75285,133.294788 C101.101566,133.376074 101.465456,133.321477 101.779491,133.426878 C102.479905,133.662065 103.220419,133.610584 103.921511,133.810276 C104.20845,133.891969 104.513408,133.931663 104.812269,133.944805 C105.117904,133.958217 105.379509,134.167528 105.70655,134.098841 C105.830917,134.072694 105.979806,134.196791 106.122734,134.219009 C106.486082,134.275503 106.893731,134.229576 107.204785,134.383884 C107.466526,134.513671 107.716344,134.436855 107.959118,134.529928 C108.612522,134.780289 109.309819,134.879457 109.989505,135.013037 C110.490769,135.111664 110.975368,135.272746 111.476225,135.372727 C112.211727,135.519449 112.930159,135.805711 113.661462,135.959747 C114.90324,136.221353 116.077009,136.696604 117.307136,136.985034 C117.855003,137.113466 118.3816,137.331989 118.919984,137.502825 C119.458503,137.673661 119.946896,137.99745 120.530258,138.030642 C121.330654,138.496546 122.230354,138.730649 123.08372,139.059315 C124.525597,139.614769 125.946746,140.216827 127.36925,140.815633 C128.311354,141.212173 129.195203,141.738229 130.152074,142.110789 C130.4424,142.223777 130.67542,142.563145 130.959108,142.597556 C131.499795,142.662992 131.817758,143.156668 132.341104,143.203001 C132.903467,143.660235 133.594669,143.888106 134.210545,144.251725 C135.242063,144.860557 136.337256,145.372116 137.322306,146.046518 C138.398125,146.782969 139.582461,146.986726 140.821801,147.09741 C141.137596,147.125589 141.42142,146.962069 141.714049,146.970604 C142.20881,146.984965 142.635154,146.778092 143.062176,146.61281 C144.263311,146.147855 145.238878,145.363717 145.938073,144.28004 C146.253462,143.791105 146.542298,143.260443 146.712863,142.708376 C146.949947,141.940766 147.08583,141.135629 146.997228,140.320331 C146.958211,139.960234 146.912691,139.592416 146.801465,139.250473 C146.627513,138.715882 146.439878,138.176821 146.178272,137.681654 C145.678499,136.735486 144.907231,136.018815 144.016744,135.448323 C143.058112,134.834208 142.074146,134.255181 141.083541,133.697018 C140.044165,133.111217 138.985551,132.554002 137.927751,131.999361 C136.373157,131.184199 134.801358,130.401009 133.191084,129.699918 C132.957522,129.598175 132.745095,129.445086 132.519662,129.360143 C131.776709,129.080113 131.076024,128.70281 130.324265,128.444186 C129.831943,128.27484 129.358994,128.049949 128.874801,127.856353 C128.390337,127.662621 127.8865,127.496798 127.421409,127.279629 C126.432972,126.818196 125.39346,126.499826 124.381044,126.115479 C122.856797,125.536859 121.284185,125.081793 119.719973,124.614535 C119.197305,124.45833 118.649573,124.34304 118.138555,124.172881 C117.080619,123.820777 115.992336,123.588706 114.927897,123.266949 C114.387074,123.103565 113.826201,122.951695 113.269528,122.863365 C112.676683,122.769344 112.119468,122.56342 111.540983,122.456122 C111.058686,122.366708 110.570022,122.308588 110.099648,122.163222 C109.627106,122.017178 109.121643,122.059718 108.652758,121.895927 C108.494386,121.840652 108.329782,121.766411 108.167481,121.765327 C107.4691,121.760992 106.811903,121.467821 106.112302,121.487871 C105.837014,121.297391 105.473395,121.454273 105.23333,121.327467 C104.961022,121.183591 104.68885,121.316358 104.470191,121.203777 C104.214411,121.071958 103.963779,121.105015 103.707187,121.0767 C103.519958,121.056108 103.339774,120.972383 103.152546,120.951113 C102.951905,120.928353 102.709266,121.014652 102.552656,120.929166 C102.339145,120.812656 102.135523,120.833384 101.92269,120.806831 C101.691025,120.777839 101.464372,120.709152 101.232978,120.677586 C100.868547,120.628002 100.508856,120.700346 100.12898,120.564734 C99.7790441,120.439825 99.363673,120.51095 98.9702491,120.4256 C98.5086805,120.325618 98.0189328,120.393085 97.5369072,120.286465 C97.1190975,120.19407 96.6758183,120.229836 96.2385,120.155459 C95.6377969,120.053446 95.016366,120.130938 94.3984574,120.016054 C93.7546729,119.896428 93.0867735,120.030415 92.4210417,119.884642 C91.9039277,119.771519 91.3389905,119.824761 90.8012841,119.872313 C90.2398692,119.921898 89.7163879,119.708793 89.1629661,119.721393 C88.3053996,119.740901 87.4471556,119.726541 86.5891826,119.726541 C85.3022909,119.726541 84.0147217,119.70229 82.7285074,119.73345 C81.4601759,119.764203 80.1900832,119.621546 78.920668,119.845083 C78.35126,119.945335 77.7486603,119.882068 77.1628597,119.856463 C76.5635115,119.830316 75.9955938,120.060084 75.3887943,120.011854 C74.9612303,119.97785 74.5256732,119.948316 74.0836132,120.111971 C73.7858357,120.222249 73.4128688,120.115358 73.0756677,120.137847 C72.7316927,120.160878 72.3915111,120.241081 72.0474006,120.264789 C71.2314254,120.321012 70.4142308,120.35881 69.5975782,120.403517 C69.5526,120.405956 69.4878422,120.384279 69.4650821,120.406904 C69.2189212,120.650897 68.9126087,120.495235 68.6377268,120.539535 C68.3627094,120.583836 68.0894532,120.641956 67.8129456,120.671625 C67.4689706,120.708475 67.1309566,120.662413 66.7781757,120.789625 C66.4451743,120.909793 66.0586597,120.805747 65.6831187,120.922663 C65.3239704,121.034567 64.9142893,120.955719 64.5224911,121.064236 C64.1978893,121.154193 63.8432117,121.09675 63.4938177,121.196461 C63.1502491,121.294682 62.7682053,121.219086 62.3986252,121.33397 C62.1432519,121.413359 61.8529257,121.398186 61.5757407,121.472427 C61.290969,121.5487 60.9795084,121.557506 60.6841695,121.596523 C60.0860405,121.675777 59.4915694,121.751915 58.901569,121.886172 C58.6536469,121.942666 58.3996284,121.900804 58.1385651,122.010269 C57.8957911,122.112012 57.5710538,121.96231 57.3221834,122.164848 C56.5250394,122.197497 55.7551261,122.381339 54.9827743,122.564639 C54.6270129,122.649041 54.2372469,122.609888 53.8936783,122.721385 C53.5486196,122.833289 53.1874391,122.892628 52.8454963,122.954134 C51.9013602,123.124022 50.9654882,123.328591 50.0254164,123.516091 C49.5013931,123.620679 48.9535259,123.679204 48.4541593,123.822268 C47.7847697,124.014238 47.0988519,124.131967 46.428243,124.309577 C45.7423252,124.491386 45.1166945,124.76803 44.5355001,125.139371 C44.0173023,125.470475 43.5129231,125.816076 43.1377885,126.353241 C42.8070903,126.826596 42.5208283,127.313769 42.23416,127.811104 C41.9378727,128.325102 41.8166212,128.898303 41.7671723,129.438448 C41.6913054,130.267023 41.6176062,131.127028 41.8741988,131.952486 C42.0104882,132.39116 42.0916386,132.878875 42.3441669,133.242765 C42.8546426,133.978132 43.236551,134.836918 44.0876146,135.295235 C44.3680511,135.446291 44.6021546,135.681885 44.8787977,135.842018 C45.1301067,135.987385 45.4433285,136.039137 45.6694388,136.210921 C45.9443208,136.41969 46.2934438,136.312122 46.5691386,136.511408 C46.688358,136.597706 46.9468472,136.473203 47.0916717,136.545548 C47.6101404,136.804037 48.1695231,136.710017 48.6650963,136.62846 C49.2636317,136.530104 49.8843853,136.445973 50.4617864,136.241674 C50.7676924,136.133428 51.0832173,136.126654 51.3898007,136.035208 C52.0162443,135.848386 52.6659898,135.688523 53.3054391,135.608321 C53.9275475,135.530287 54.5096902,135.214897 55.1536103,135.306073 C55.7967174,135.055848 56.4877833,135.034984 57.1479606,134.879457 C57.4512926,134.808061 57.7855132,134.862116 58.0339772,134.741678 C58.3580371,134.58466 58.7026895,134.584796 59.0221432,134.523289 C59.3753305,134.45528 59.748162,134.413689 60.1112391,134.355028 C60.2981968,134.324816 60.4785161,134.248543 60.6657447,134.227273 C60.8663854,134.204513 61.0868058,134.270761 61.2718668,134.212913 C61.7903355,134.050883 62.3180167,133.978403 62.8558586,133.951714 C62.9234614,133.948327 63.0224947,133.980299 63.0540608,133.946566 C63.2790873,133.705824 63.5910898,133.915542 63.8089361,133.802554 C64.0867985,133.658543 64.3596483,133.689838 64.6402202,133.680625 C64.7522593,133.676967 64.9171343,133.722352 64.9667187,133.665723 C65.1367418,133.471043 65.3448338,133.579153 65.5320624,133.543523 C65.7401544,133.503964 65.944453,133.433923 66.1538997,133.413737 C66.5649356,133.374042 66.9713652,133.377835 67.3890394,133.298717 C68.1738551,133.150099 68.9826501,133.091302 69.7802006,133.026816 C70.5036453,132.968425 71.2223484,132.774016 71.9574442,132.866682 C72.0018805,132.872372 72.0623031,132.886326 72.0906177,132.864515 C72.3656351,132.652087 72.6852242,132.763178 72.9847629,132.729851 C73.3058423,132.694085 73.6236703,132.624586 73.9451562,132.600064 C74.6257904,132.548041 75.3203786,132.704381 75.988549,132.461065 C76.947723,132.563621 77.8880657,132.282372 78.845072,132.322744 C79.2508243,132.340356 79.6579314,132.326131 80.064361,132.326131 Z" id="Spotify" fill="#808080" sketch:type="MSShapeGroup"></path>
    </g>
</svg>