<?xml version="1.0" encoding="UTF-8" standalone="no"?>
<svg width="200px" height="200px" viewBox="0 0 200 200" version="1.1" xmlns="http://www.w3.org/2000/svg" xmlns:xlink="http://www.w3.org/1999/xlink" xmlns:sketch="http://www.bohemiancoding.com/sketch/ns">
    <title>Steam</title>
    <description>Created with Sketch (http://www.bohemiancoding.com/sketch)</description>
    <defs></defs>
    <g id="Page-1" stroke="none" stroke-width="1" fill="none" fill-rule="evenodd" sketch:type="MSPage">
        <path d="M100,0 C44.7714,0 0,44.7714 0,100 C0,155.2286 44.7714,200 100,200 C155.2286,200 200,155.2286 200,100 C200,44.7714 155.2286,0 100,0 Z M158.258929,64 C146.358414,64 136.692907,73.5974571 136.584821,85.4732143 L123.080357,104.825893 C122.5302,104.768964 121.971036,104.736607 121.40625,104.736607 C118.389071,104.736603 115.56945,105.566009 113.147321,107.013393 L51.9866071,82.4151786 C50.3881671,75.1588836 43.90355,69.6919643 36.1830357,69.6919643 C27.2692014,69.6919621 20,76.9834843 20,85.8973214 C19.9999991,94.8111543 27.2691986,102.080357 36.1830357,102.080357 C39.2000793,102.080353 42.0198336,101.250999 44.4419643,99.8035714 L105.602679,124.357143 C107.184964,131.630394 113.670264,137.10268 121.40625,137.10268 C129.785757,137.10268 136.699314,130.67943 137.5,122.504464 L158.258929,107.325893 C170.224079,107.325891 179.933043,97.6358043 179.933036,85.6741071 C179.933043,73.7055671 170.224943,64 158.258929,64 Z M158.258929,71.1428571 C166.275943,71.1428571 172.790179,77.6568986 172.790179,85.6741071 C172.790171,93.6913143 166.275943,100.183036 158.258929,100.183036 C150.241921,100.183034 143.727679,93.6913157 143.727679,85.6741071 C143.727671,77.6568971 150.241914,71.1428571 158.258929,71.1428571 Z M169.924114,85.6071436 C169.924114,92.0142864 164.724114,97.2142871 158.316964,97.2142871 C151.909829,97.2142871 146.709821,92.0142864 146.709821,85.6071436 C146.709821,79.2 151.909829,74 158.316964,74 C164.724114,74 169.924114,79.2 169.924114,85.6071436 Z M36.1830357,73.9776786 C40.7526086,73.9776764 44.7018479,76.5306829 46.6964286,80.2946429 L40.78125,77.9285714 L40.78125,77.9508929 C36.0155329,76.2394643 30.72125,78.56875 28.8169643,83.3080357 C26.9126771,88.0473171 29.1033929,93.4117857 33.7276786,95.4732143 L33.7276786,95.4955357 L38.75,97.5044643 C37.9243764,97.684295 37.0644021,97.7946429 36.1830357,97.7946429 C29.5880421,97.7946443 24.2857143,92.4923186 24.2857143,85.8973214 C24.2857143,79.3023229 29.5880386,73.9776786 36.1830357,73.9776786 Z M121.40625,109.022321 C128.001614,109.022316 133.303571,114.324251 133.303571,120.919643 C133.303543,127.515037 128.001643,132.816966 121.40625,132.816966 C116.81865,132.816966 112.857507,130.259109 110.870536,126.477679 C112.827036,127.267187 114.786907,128.04863 116.741071,128.843751 C121.590336,130.792323 127.113214,128.44893 129.0625,123.598214 C131.011757,118.748925 128.644643,113.247679 123.794643,111.299107 L118.839286,109.3125 C119.664914,109.132676 120.524829,109.022321 121.40625,109.022321 Z" id="Steam" fill="#808080" sketch:type="MSShapeGroup"></path>
    </g>
</svg>