<?xml version="1.0" encoding="UTF-8" standalone="no"?>
<svg width="200px" height="200px" viewBox="0 0 200 200" version="1.1" xmlns="http://www.w3.org/2000/svg" xmlns:xlink="http://www.w3.org/1999/xlink" xmlns:sketch="http://www.bohemiancoding.com/sketch/ns">
    <title>Tumblr</title>
    <description>Created with Sketch (http://www.bohemiancoding.com/sketch)</description>
    <defs></defs>
    <g id="Page-1" stroke="none" stroke-width="1" fill="none" fill-rule="evenodd" sketch:type="MSPage">
        <path d="M100,0 C44.771524,0 0,44.771526 0,100 C0,155.228474 44.771524,200 100,200 C155.228476,200 200,155.228474 200,100 C200,44.771526 155.228476,-2.2737368e-14 100,0 Z M83.70625,23.8125 L94.4,24 L105.09375,24.1875 L105.275,43.53125 L105.45625,62.875 L123.24375,62.875 L141.0375,62.875 L141.0375,74.4125 L141.0375,85.95625 L123.21875,86.3 C113.418206,86.488478 105.313502,86.765238 105.20625,86.9125 C105.098988,87.05976 105.182726,99.505824 105.39375,114.56875 C105.822722,145.186268 105.710682,144.529308 110.89375,148.09375 C114.911788,150.856974 117.131032,151.419076 123.91875,151.40625 C130.893356,151.39311 136.368914,149.98737 142.3375,146.68125 C143.995204,145.763014 145.52973,145.18598 145.74375,145.4 C145.957764,145.614008 146.243452,150.782168 146.38125,156.88125 L146.63125,167.96875 L143.6625,169.23125 C137.266452,171.948026 130.884404,173.982384 125.975,174.86875 C119.395078,176.056704 102.970274,176.016552 97.36875,174.8 C87.588698,172.675998 77.004154,165.465886 73.10625,158.26875 C72.121278,156.450098 70.978026,153.115688 70.5625,150.85625 C70.139362,148.555434 69.610182,133.570498 69.3625,116.79375 L68.925,86.8375 L60.81875,86.8375 L52.7125,86.8375 L52.7375,76.05 L52.75625,65.26875 L58.725,62.4125 C65.875856,58.990382 71.340804,54.291038 75.58125,47.9125 C78.886088,42.941308 82.447938,33.404152 83.23125,27.425 L83.70625,23.8125 Z" id="Tumblr" fill="#808080" sketch:type="MSShapeGroup"></path>
    </g>
</svg>