<?xml version="1.0" encoding="UTF-8" standalone="no"?>
<svg width="201px" height="200px" viewBox="0 0 201 200" version="1.1" xmlns="http://www.w3.org/2000/svg" xmlns:xlink="http://www.w3.org/1999/xlink" xmlns:sketch="http://www.bohemiancoding.com/sketch/ns">
    <title>Tumblr</title>
    <description>Created with Sketch (http://www.bohemiancoding.com/sketch)</description>
    <defs></defs>
    <g id="Page 1" stroke="none" stroke-width="1" fill="none" fill-rule="evenodd">
        <path d="M100.5,0 C45.271524,0 0.5,44.771526 0.5,100 C0.5,155.228474 45.271524,200 100.5,200 C155.728476,200 200.5,155.228474 200.5,100 C200.5,44.771526 155.728476,-2.2737368e-14 100.5,0 L100.5,0 L100.5,0 Z M84.20625,23.8125 L94.9,24 L105.59375,24.1875 L105.775,43.53125 L105.95625,62.875 L123.74375,62.875 L141.5375,62.875 L141.5375,74.4125 L141.5375,85.95625 L123.71875,86.3 C113.918206,86.488478 105.813502,86.765238 105.70625,86.9125 C105.598988,87.05976 105.682726,99.505824 105.89375,114.56875 C106.322722,145.186268 106.210682,144.529308 111.39375,148.09375 C115.411788,150.856974 117.631032,151.419076 124.41875,151.40625 C131.393356,151.39311 136.868914,149.98737 142.8375,146.68125 C144.495204,145.763014 146.02973,145.18598 146.24375,145.4 C146.457764,145.614008 146.743452,150.782168 146.88125,156.88125 L147.13125,167.96875 L144.1625,169.23125 C137.766452,171.948026 131.384404,173.982384 126.475,174.86875 C119.895078,176.056704 103.470274,176.016552 97.86875,174.8 C88.088698,172.675998 77.504154,165.465886 73.60625,158.26875 C72.621278,156.450098 71.478026,153.115688 71.0625,150.85625 C70.639362,148.555434 70.110182,133.570498 69.8625,116.79375 L69.425,86.8375 L61.31875,86.8375 L53.2125,86.8375 L53.2375,76.05 L53.25625,65.26875 L59.225,62.4125 C66.375856,58.990382 71.840804,54.291038 76.08125,47.9125 C79.386088,42.941308 82.947938,33.404152 83.73125,27.425 L84.20625,23.8125 L84.20625,23.8125 Z M84.20625,23.8125" id="Tumblr" fill="#808080"></path>
    </g>
</svg>