<?xml version="1.0" encoding="UTF-8" standalone="no"?>
<!-- Generator: Adobe Illustrator 16.0.0, SVG Export Plug-In . SVG Version: 6.00 Build 0)  -->

<svg
   xmlns:dc="http://purl.org/dc/elements/1.1/"
   xmlns:cc="http://creativecommons.org/ns#"
   xmlns:rdf="http://www.w3.org/1999/02/22-rdf-syntax-ns#"
   xmlns:svg="http://www.w3.org/2000/svg"
   xmlns="http://www.w3.org/2000/svg"
   xmlns:sodipodi="http://sodipodi.sourceforge.net/DTD/sodipodi-0.dtd"
   xmlns:inkscape="http://www.inkscape.org/namespaces/inkscape"
   version="1.1"
   id="Circle_1_"
   sodipodi:docname="Tumblr.svg"
   inkscape:version="0.48.2 r9819"
   x="0px"
   y="0px"
   width="1000px"
   height="1000px"
   viewBox="0 0 1000 1000"
   enable-background="new 0 0 1000 1000"
   xml:space="preserve"><metadata
   id="metadata9"><rdf:RDF><cc:Work
       rdf:about=""><dc:format>image/svg+xml</dc:format><dc:type
         rdf:resource="http://purl.org/dc/dcmitype/StillImage" /></cc:Work></rdf:RDF></metadata><defs
   id="defs7" /><sodipodi:namedview
   pagecolor="#ffffff"
   bordercolor="#666666"
   borderopacity="1"
   objecttolerance="10"
   gridtolerance="10"
   guidetolerance="10"
   inkscape:pageopacity="0"
   inkscape:pageshadow="2"
   inkscape:window-width="778"
   inkscape:window-height="596"
   id="namedview5"
   showgrid="false"
   inkscape:zoom="0.3337544"
   inkscape:cx="229.46034"
   inkscape:cy="488.83034"
   inkscape:window-x="0"
   inkscape:window-y="0"
   inkscape:window-maximized="0"
   inkscape:current-layer="Circle_1_"><inkscape:grid
     type="xygrid"
     id="grid3848" /></sodipodi:namedview>


<path
   style="fill:#808080;fill-opacity:1;stroke:none"
   d="M 500 0 C 223.85762 0 0 223.85763 0 500 C 0 776.14237 223.85762 1000 500 1000 C 776.14238 1000 1000 776.14237 1000 500 C 1000 223.85763 776.14238 -1.1368684e-13 500 0 z M 418.53125 119.0625 L 472 120 L 525.46875 120.9375 L 526.375 217.65625 L 527.28125 314.375 L 616.21875 314.375 L 705.1875 314.375 L 705.1875 372.0625 L 705.1875 429.78125 L 616.09375 431.5 C 567.09103 432.44239 526.56751 433.82619 526.03125 434.5625 C 525.49494 435.2988 525.91363 497.52912 526.96875 572.84375 C 529.11361 725.93134 528.55341 722.64654 554.46875 740.46875 C 574.55894 754.28487 585.65516 757.09538 619.59375 757.03125 C 654.46678 756.96555 681.84457 749.93685 711.6875 733.40625 C 719.97602 728.81507 727.64865 725.9299 728.71875 727 C 729.78882 728.07004 731.21726 753.91084 731.90625 784.40625 L 733.15625 839.84375 L 718.3125 846.15625 C 686.33226 859.74013 654.42202 869.91192 629.875 874.34375 C 596.97539 880.28352 514.85137 880.08276 486.84375 874 C 437.94349 863.37999 385.02077 827.32943 365.53125 791.34375 C 360.60639 782.25049 354.89013 765.57844 352.8125 754.28125 C 350.69681 742.77717 348.05091 667.85249 346.8125 583.96875 L 344.625 434.1875 L 304.09375 434.1875 L 263.5625 434.1875 L 263.6875 380.25 L 263.78125 326.34375 L 293.625 312.0625 C 329.37928 294.95191 356.70402 271.45519 377.90625 239.5625 C 394.43044 214.70654 412.23969 167.02076 416.15625 137.125 L 418.53125 119.0625 z "
   id="path2983" /></svg>