<?xml version="1.0" encoding="UTF-8" standalone="no"?>
<svg width="201px" height="200px" viewBox="0 0 201 200" version="1.1" xmlns="http://www.w3.org/2000/svg" xmlns:xlink="http://www.w3.org/1999/xlink" xmlns:sketch="http://www.bohemiancoding.com/sketch/ns">
    <title>Twitter</title>
    <description>Created with Sketch (http://www.bohemiancoding.com/sketch)</description>
    <defs></defs>
    <g id="Page 1" stroke="none" stroke-width="1" fill="none" fill-rule="evenodd">
        <path d="M100.5,0 C45.272,0 0.5,44.772 0.5,100 C0.5,155.228 45.272,200 100.5,200 C155.728,200 200.5,155.228 200.5,100 C200.5,44.772 155.728,0 100.5,0 L100.5,0 L100.5,0 Z M131.585844,49.1820697 C136.382815,50.1099098 142.254127,52.7769806 144.849825,55.2862809 L146.960943,57.2809493 L151.070486,56.2253903 C153.365669,55.6318732 156.877938,54.4335696 158.936466,53.5245117 C160.994994,52.6154537 162.873213,51.9430514 163.046009,52.1158475 C163.763489,52.8333271 159.612625,58.6745877 156.002689,61.9764964 L152.129801,65.5000349 L155.533134,65.0304802 C157.437648,64.7787989 160.747069,63.9786777 162.81311,63.268711 C165.051947,62.4986412 166.569548,62.2619857 166.569548,62.6827067 C166.569548,63.0696198 163.84613,66.0296927 160.581786,69.2564726 L154.71423,75.1240283 L154.244676,81.8142438 C152.794691,102.455869 145.281815,119.371108 131.352945,133.465262 C120.410442,144.53924 107.788811,151.270776 92.7330088,154.125669 C85.8925358,155.425396 73.4775093,155.85363 67.6099537,155.064778 C60.420132,154.099374 51.4873232,151.402252 44.1322182,147.905008 L37.5584523,144.734575 L44.4853234,144.26502 C52.7419734,143.746632 58.4404893,142.375532 65.029281,139.336574 C69.8976242,137.090224 76.332402,133.149721 75.8290393,132.646358 C75.6787818,132.496101 73.7855372,131.988982 71.6030469,131.590799 C63.7896566,130.159597 56.5021675,124.953174 52.8208586,117.973713 L51.0590893,114.57038 L56.4608467,114.217275 C61.8776298,113.879196 63.8309774,113.270653 61.5094989,112.571955 C54.4924733,110.46835 47.4341269,104.642115 44.2524242,98.3688646 C42.971479,95.840782 41.0819908,89.0153348 41.0819908,86.8666524 C41.0819908,86.7389335 41.7318546,87.0469614 42.490655,87.4526567 C43.9594221,88.2377522 52.6856268,90.1685611 53.0575141,89.8004302 C53.1777201,89.6802242 51.5436698,87.8658648 49.5339756,85.8110934 C47.5280379,83.756322 45.0675712,80.322938 44.0157687,78.1817685 C42.2878073,74.6544736 42.1413063,73.6402354 42.1375498,67.2655607 C42.1337934,61.852534 42.4230391,59.4709525 43.4297644,56.9353571 L44.721979,53.6484741 L47.4228576,56.6987015 C59.7477296,70.5186357 77.7523354,79.5265732 97.4285559,81.7015506 L101.184994,82.0546558 L100.952094,76.7731044 C100.689144,70.3383267 101.902473,65.7442034 105.178087,60.8082443 C110.181662,53.2578046 119.287267,48.5134238 127.945856,48.712515 C129.181724,48.7425665 130.380027,48.9491706 131.585844,49.1820697 Z M131.585844,49.1820697" id="Twitter" fill="#808080"></path>
    </g>
</svg>