<?xml version="1.0" encoding="UTF-8" standalone="no"?>
<svg width="200px" height="200px" viewBox="0 0 200 200" version="1.1" xmlns="http://www.w3.org/2000/svg" xmlns:xlink="http://www.w3.org/1999/xlink" xmlns:sketch="http://www.bohemiancoding.com/sketch/ns">
    <title>Vimeo</title>
    <description>Created with Sketch (http://www.bohemiancoding.com/sketch)</description>
    <defs></defs>
    <g id="Page-1" stroke="none" stroke-width="1" fill="none" fill-rule="evenodd" sketch:type="MSPage">
        <path d="M100,0 C44.771524,2.2737368e-14 0,44.771526 0,100 C1.5158245e-14,155.228474 44.771524,200 100,200 C155.228476,200 200,155.228474 200,100 C200,44.771526 155.228476,-1.13686838e-14 100,0 L100,0 L100,0 Z M147.65,41.41875 C148.310824,41.42446 148.937952,41.44591 149.51875,41.4875 C158.46887,42.128422 164.93428,48.05062 166.96875,57.46875 C167.145904,58.28886 167.369452,61.21603 167.46875,63.975 C167.955892,77.510118 159.874926,95.14026 142.65625,118.10625 C140.196742,121.386704 138.042022,124.182066 137.86875,124.31875 C137.695478,124.455438 136.230688,126.249714 134.6125,128.3 C130.020256,134.118494 118.780412,145.356366 113.5375,149.36875 C102.776904,157.603812 93.947218,160.432786 87.775,157.63125 C83.024002,155.474798 77.29722,148.318802 74.16875,140.63125 C72.928662,137.584002 71.323158,132.647872 69.75625,127.05625 C59.52,90.527482 58.551242,87.358364 56.10625,82.31875 C54.804696,79.635986 53.127294,77.064434 51.9125,75.8875 C49.155684,73.216606 47.695578,73.313064 42.08125,76.53125 C39.674776,77.910662 37.452826,79.104252 37.14375,79.1875 C36.627922,79.326438 31.4875,73.41427 31.4875,72.68125 C31.4875,71.692834 56.374272,50.396436 60.9875,47.4375 C66.701746,43.772374 68.046608,43.254156 72.6125,42.9375 C75.236414,42.75552 76.126312,42.925776 78.4625,44.06875 C79.986132,44.814198 82.169332,46.475022 83.34375,47.78125 C87.11701,51.978028 88.066156,54.543632 90.9125,68.1875 C91.051692,68.854704 92.051956,74.352074 93.1375,80.40625 C97.307546,103.663022 99.999138,112.502298 104,116.08125 C107.160736,118.90868 111.342094,115.713462 118.43125,105.05625 C128.58266,89.795516 131.395918,77.90723 126.2,72.2375 C124.635036,70.529826 124.449834,70.466312 120.4125,70.2625 C117.753032,70.12824 115.091694,70.31889 113.0875,70.7875 L109.94375,71.51875 L110.25625,70.275 C110.795262,68.127416 114.577712,60.608828 116.6125,57.64375 C120.993294,51.260092 128.207568,45.157066 133.56875,43.29375 C136.772976,42.180092 143.024236,41.378774 147.65,41.41875 L147.65,41.41875 L147.65,41.41875 Z" id="Vimeo" fill="#808080" sketch:type="MSShapeGroup"></path>
    </g>
</svg>