<?xml version="1.0" encoding="UTF-8" standalone="no"?>
<svg width="201px" height="200px" viewBox="0 0 201 200" version="1.1" xmlns="http://www.w3.org/2000/svg" xmlns:xlink="http://www.w3.org/1999/xlink" xmlns:sketch="http://www.bohemiancoding.com/sketch/ns">
    <title>Vimeo</title>
    <description>Created with Sketch (http://www.bohemiancoding.com/sketch)</description>
    <defs></defs>
    <g id="Page 1" stroke="none" stroke-width="1" fill="none" fill-rule="evenodd">
        <path d="M100.5,0 C45.271524,2.2737368e-14 0.5,44.771526 0.5,100 C0.5,155.228474 45.271524,200 100.5,200 C155.728476,200 200.5,155.228474 200.5,100 C200.5,44.771526 155.728476,-1.13686838e-14 100.5,0 L100.5,0 L100.5,0 Z M148.15,41.41875 C148.810824,41.42446 149.437952,41.44591 150.01875,41.4875 C158.96887,42.128422 165.43428,48.05062 167.46875,57.46875 C167.645904,58.28886 167.869452,61.21603 167.96875,63.975 C168.455892,77.510118 160.374926,95.14026 143.15625,118.10625 C140.696742,121.386704 138.542022,124.182066 138.36875,124.31875 C138.195478,124.455438 136.730688,126.249714 135.1125,128.3 C130.520256,134.118494 119.280412,145.356366 114.0375,149.36875 C103.276904,157.603812 94.447218,160.432786 88.275,157.63125 C83.524002,155.474798 77.79722,148.318802 74.66875,140.63125 C73.428662,137.584002 71.823158,132.647872 70.25625,127.05625 C60.02,90.527482 59.051242,87.358364 56.60625,82.31875 C55.304696,79.635986 53.627294,77.064434 52.4125,75.8875 C49.655684,73.216606 48.195578,73.313064 42.58125,76.53125 C40.174776,77.910662 37.952826,79.104252 37.64375,79.1875 C37.127922,79.326438 31.9875,73.41427 31.9875,72.68125 C31.9875,71.692834 56.874272,50.396436 61.4875,47.4375 C67.201746,43.772374 68.546608,43.254156 73.1125,42.9375 C75.736414,42.75552 76.626312,42.925776 78.9625,44.06875 C80.486132,44.814198 82.669332,46.475022 83.84375,47.78125 C87.61701,51.978028 88.566156,54.543632 91.4125,68.1875 C91.551692,68.854704 92.551956,74.352074 93.6375,80.40625 C97.807546,103.663022 100.499138,112.502298 104.5,116.08125 C107.660736,118.90868 111.842094,115.713462 118.93125,105.05625 C129.08266,89.795516 131.895918,77.90723 126.7,72.2375 C125.135036,70.529826 124.949834,70.466312 120.9125,70.2625 C118.253032,70.12824 115.591694,70.31889 113.5875,70.7875 L110.44375,71.51875 L110.75625,70.275 C111.295262,68.127416 115.077712,60.608828 117.1125,57.64375 C121.493294,51.260092 128.707568,45.157066 134.06875,43.29375 C137.272976,42.180092 143.524236,41.378774 148.15,41.41875 L148.15,41.41875 L148.15,41.41875 Z M148.15,41.41875" id="Vimeo" fill="#808080"></path>
    </g>
</svg>