<?xml version="1.0" encoding="UTF-8" standalone="no"?>
<svg width="1001px" height="1002px" viewBox="0 0 1001 1002" version="1.1" xmlns="http://www.w3.org/2000/svg" xmlns:xlink="http://www.w3.org/1999/xlink" xmlns:sketch="http://www.bohemiancoding.com/sketch/ns">
    <title>Vimeo</title>
    <description>Created with Sketch (http://www.bohemiancoding.com/sketch)</description>
    <defs></defs>
    <g id="Page 1" fill="#D8D8D8" fill-rule="evenodd">
        <path d="M500,0.5 C223.85762,0.5 0,224.35763 0,500.5 C0,776.64237 223.85762,1000.5 500,1000.5 C776.14238,1000.5 1000,776.64237 1000,500.5 C1000,224.35763 776.14238,0.5 500,0.5 L500,0.5 L500,0.5 Z M738.25,207.59375 C741.55412,207.6223 744.68976,207.72955 747.59375,207.9375 C792.34435,211.14211 824.6714,240.7531 834.84375,287.84375 C835.72952,291.9443 836.84726,306.58015 837.34375,320.375 C839.77946,388.05059 799.37463,476.2013 713.28125,591.03125 C700.98371,607.43352 690.21011,621.41033 689.34375,622.09375 C688.47739,622.77719 681.15344,631.74857 673.0625,642 C650.10128,671.09247 593.90206,727.28183 567.6875,747.34375 C513.88452,788.51906 469.73609,802.66393 438.875,788.65625 C415.12001,777.87399 386.4861,742.09401 370.84375,703.65625 C364.64331,688.42001 356.61579,663.73936 348.78125,635.78125 C297.6,453.13741 292.75621,437.29182 280.53125,412.09375 C274.02348,398.67993 265.63647,385.82217 259.5625,379.9375 C245.77842,366.58303 238.47789,367.06532 210.40625,383.15625 C198.37388,390.05331 187.26413,396.02126 185.71875,396.4375 C183.13961,397.13219 157.4375,367.57135 157.4375,363.90625 C157.4375,358.96417 281.87136,252.48218 304.9375,237.6875 C333.50873,219.36187 340.23304,216.77078 363.0625,215.1875 C376.18207,214.2776 380.63156,215.12888 392.3125,220.84375 C399.93066,224.57099 410.84666,232.87511 416.71875,239.40625 C435.58505,260.39014 440.33078,273.21816 454.5625,341.4375 C455.25846,344.77352 460.25978,372.26037 465.6875,402.53125 C486.53773,518.81511 499.99569,563.01149 520,580.90625 C535.80368,595.0434 556.71047,579.06731 592.15625,525.78125 C642.9133,449.47758 656.97959,390.03615 631,361.6875 C623.17518,353.14913 622.24917,352.83156 602.0625,351.8125 C588.76516,351.1412 575.45847,352.09445 565.4375,354.4375 L549.71875,358.09375 L551.28125,351.875 C553.97631,341.13708 572.88856,303.54414 583.0625,288.71875 C604.96647,256.80046 641.03784,226.28533 667.84375,216.96875 C683.86488,211.40046 715.12118,207.39387 738.25,207.59375 L738.25,207.59375 L738.25,207.59375 Z M738.25,207.59375" id="Vimeo" fill="#808080"></path>
    </g>
</svg>