<?xml version="1.0" encoding="UTF-8" standalone="no"?>
<svg width="1000px" height="1000px" viewBox="0 0 1000 1000" version="1.1" xmlns="http://www.w3.org/2000/svg" xmlns:xlink="http://www.w3.org/1999/xlink" xmlns:sketch="http://www.bohemiancoding.com/sketch/ns">
    <title>Vimeo</title>
    <description>Created with Sketch (http://www.bohemiancoding.com/sketch)</description>
    <defs></defs>
    <g id="Page 1" fill="#D8D8D8" fill-rule="evenodd">
        <path d="M500,0 C223.85762,1.1368684e-13 0,223.85763 0,500 C7.5791225e-14,776.14237 223.85762,1000 500,1000 C776.14238,1000 1000,776.14237 1000,500 C1000,223.85763 776.14238,-5.6843419e-14 500,0 L500,0 L500,0 Z M738.25,207.09375 C741.55412,207.1223 744.68976,207.22955 747.59375,207.4375 C792.34435,210.64211 824.6714,240.2531 834.84375,287.34375 C835.72952,291.4443 836.84726,306.08015 837.34375,319.875 C839.77946,387.55059 799.37463,475.7013 713.28125,590.53125 C700.98371,606.93352 690.21011,620.91033 689.34375,621.59375 C688.47739,622.27719 681.15344,631.24857 673.0625,641.5 C650.10128,670.59247 593.90206,726.78183 567.6875,746.84375 C513.88452,788.01906 469.73609,802.16393 438.875,788.15625 C415.12001,777.37399 386.4861,741.59401 370.84375,703.15625 C364.64331,687.92001 356.61579,663.23936 348.78125,635.28125 C297.6,452.63741 292.75621,436.79182 280.53125,411.59375 C274.02348,398.17993 265.63647,385.32217 259.5625,379.4375 C245.77842,366.08303 238.47789,366.56532 210.40625,382.65625 C198.37388,389.55331 187.26413,395.52126 185.71875,395.9375 C183.13961,396.63219 157.4375,367.07135 157.4375,363.40625 C157.4375,358.46417 281.87136,251.98218 304.9375,237.1875 C333.50873,218.86187 340.23304,216.27078 363.0625,214.6875 C376.18207,213.7776 380.63156,214.62888 392.3125,220.34375 C399.93066,224.07099 410.84666,232.37511 416.71875,238.90625 C435.58505,259.89014 440.33078,272.71816 454.5625,340.9375 C455.25846,344.27352 460.25978,371.76037 465.6875,402.03125 C486.53773,518.31511 499.99569,562.51149 520,580.40625 C535.80368,594.5434 556.71047,578.56731 592.15625,525.28125 C642.9133,448.97758 656.97959,389.53615 631,361.1875 C623.17518,352.64913 622.24917,352.33156 602.0625,351.3125 C588.76516,350.6412 575.45847,351.59445 565.4375,353.9375 L549.71875,357.59375 L551.28125,351.375 C553.97631,340.63708 572.88856,303.04414 583.0625,288.21875 C604.96647,256.30046 641.03784,225.78533 667.84375,216.46875 C683.86488,210.90046 715.12118,206.89387 738.25,207.09375 L738.25,207.09375 L738.25,207.09375 Z M738.25,207.09375" id="Vimeo" fill="#808080"></path>
    </g>
</svg>