<?xml version="1.0" encoding="UTF-8" standalone="no"?>
<svg width="200px" height="200px" viewBox="0 0 200 200" version="1.1" xmlns="http://www.w3.org/2000/svg" xmlns:xlink="http://www.w3.org/1999/xlink" xmlns:sketch="http://www.bohemiancoding.com/sketch/ns">
    <title>Vine</title>
    <description>Created with Sketch (http://www.bohemiancoding.com/sketch)</description>
    <defs></defs>
    <g id="Page-1" stroke="none" stroke-width="1" fill="none" fill-rule="evenodd" sketch:type="MSPage">
        <path d="M100,0 C44.7714,0 0,44.7714 0,100 C0,155.2286 44.7714,200 100,200 C155.2286,200 200,155.2286 200,100 C200,44.7714 155.2286,0 100,0 Z M165,100.073242 C161.180006,100.957986 157.485272,101.348532 154.158953,101.348532 C135.449501,101.348532 121.044968,88.2189691 121.044968,65.3896142 C121.044968,54.1998246 125.350348,48.3809674 131.438852,48.3809674 C137.231244,48.3809674 141.092684,53.6029001 141.092684,64.1966906 C141.092684,70.2200754 139.48732,76.82095 138.301487,80.7264096 C138.301487,80.7264096 144.067168,90.8324804 159.832531,87.7312494 C163.180495,80.2632147 165,70.5921121 165,62.1083803 C165,39.2790254 153.417059,26 132.181667,26 C110.354971,26 97.5838939,42.8605725 97.5838939,65.0930029 C97.5838939,87.116741 107.829952,106.021664 124.726346,114.635887 C117.621479,128.916264 108.581056,141.495639 99.1528777,150.973319 C82.046948,130.195256 66.5827639,102.475285 60.2368301,48.3809674 L35,48.3809674 C46.6598475,138.473072 81.4072889,167.159691 90.5946169,172.668518 C95.7920196,175.801677 100.266409,175.652677 105.018492,172.965592 C112.478418,168.703366 134.877538,146.201162 147.292634,119.842549 C152.503852,119.827742 158.765051,119.227115 165,117.811155 L165,100.073242 Z" id="Vine" fill="#808080" sketch:type="MSShapeGroup"></path>
    </g>
</svg>