<?xml version="1.0" encoding="UTF-8" standalone="no"?>
<svg width="200px" height="200px" viewBox="0 0 200 200" version="1.1" xmlns="http://www.w3.org/2000/svg" xmlns:xlink="http://www.w3.org/1999/xlink" xmlns:sketch="http://www.bohemiancoding.com/sketch/ns">
    <title>VK</title>
    <description>Created with Sketch (http://www.bohemiancoding.com/sketch)</description>
    <defs></defs>
    <g id="Page-1" stroke="none" stroke-width="1" fill="none" fill-rule="evenodd" sketch:type="MSPage">
        <path d="M100,0 C44.7714,0 0,44.7714 0,100 C0,155.2286 44.7714,200 100,200 C155.2286,200 200,155.2286 200,100 C200,44.7714 155.2286,0 100,0 Z M106.866163,139.599653 C106.866163,139.599653 109.393201,139.321116 110.685313,137.930408 C111.872912,136.652592 111.834953,134.254716 111.834953,134.254716 C111.834953,134.254716 111.671282,123.026997 116.881634,121.373034 C122.02001,119.743228 128.616634,132.225099 135.608138,137.024302 C140.895395,140.655132 144.913218,139.860441 144.913218,139.860441 L163.609651,139.599653 C163.609651,139.599653 173.389475,138.995747 168.751971,131.306669 C168.372373,130.678607 166.050909,125.618616 154.850304,115.222561 C143.126643,104.34141 144.697784,106.101857 158.819814,87.2802068 C167.419434,75.8178271 170.857507,68.8204068 169.782801,65.8230618 C168.759365,62.9676963 162.433883,63.7219624 162.433883,63.7219624 L141.38345,63.8526033 C141.38345,63.8526033 139.821676,63.639634 138.664641,64.3322771 C137.533242,65.0091446 136.807076,66.5906385 136.807076,66.5906385 C136.807076,66.5906385 133.474009,75.4599204 129.032219,83.0040603 C119.658615,98.9205539 115.910454,99.7630642 114.377766,98.7731515 C110.812503,96.4694355 111.703819,89.5203278 111.703819,84.5821033 C111.703819,69.1566222 114.043523,62.725148 107.147657,61.0608328 C104.859717,60.5081973 103.174203,60.1428959 97.3219855,60.0837377 C89.8103825,60.0068322 83.454335,60.106415 79.8545631,61.8698201 C77.459645,63.0431229 75.6119395,65.6554471 76.7379159,65.8063004 C78.1296107,65.9916625 81.2797809,66.6566984 82.950012,68.9293564 C85.1078046,71.8650783 85.031885,78.4552935 85.031885,78.4552935 C85.031885,78.4552935 86.2717407,96.613387 82.1370807,98.8682975 C79.2999557,100.415282 75.407351,97.2572246 67.0502799,82.8162333 C62.7692036,75.4199887 59.536212,67.2423639 59.536212,67.2423639 C59.536212,67.2423639 58.9135728,65.7146053 57.800907,64.8967442 C56.4521018,63.9058456 54.5674225,63.5918146 54.5674225,63.5918146 L34.5631025,63.7224554 C34.5631025,63.7224554 31.5608277,63.8062628 30.4575286,65.1121784 C29.4759968,66.2746355 30.3791441,68.6764554 30.3791441,68.6764554 C30.3791441,68.6764554 46.0392858,105.31604 63.7724268,123.779784 C80.0354883,140.710839 98.4982462,139.599653 98.4982462,139.599653 L106.866163,139.599653 Z" id="VK" fill="#808080" sketch:type="MSShapeGroup"></path>
    </g>
</svg>