<?xml version="1.0" encoding="UTF-8" standalone="no"?>
<svg width="201px" height="201px" viewBox="0 0 201 201" version="1.1" xmlns="http://www.w3.org/2000/svg" xmlns:xlink="http://www.w3.org/1999/xlink" xmlns:sketch="http://www.bohemiancoding.com/sketch/ns">
    <title>Website</title>
    <description>Created with Sketch (http://www.bohemiancoding.com/sketch)</description>
    <defs></defs>
    <g id="Page-1" stroke="none" stroke-width="1" fill="none" fill-rule="evenodd" sketch:type="MSPage">
        <path d="M100.201055,0 C155.540432,0 200.402109,44.8616775 200.402109,100.201055 C200.402109,155.540432 155.540432,200.402109 100.201055,200.402109 C44.8616775,200.402109 0,155.540432 0,100.201055 C0,44.8616775 44.8616775,0 100.201055,0 Z M10.3298172,100.210406 C10.3298172,126.647308 21.764832,150.41805 39.9673927,166.864419 L32.8424879,152.640954 C25.3384223,152.640954 21.5861525,135.7887 21.5861525,128.298284 C21.5861525,122.287597 19.1694766,117.482736 22.093754,111.947946 C11.5061635,101.334394 17.8338828,107.088684 17.8338828,100.210406 C17.8338828,96.6449605 14.4328107,93.0790417 10.8686995,90.3215808 C10.5122883,93.5691309 10.3298172,96.8682443 10.3298172,100.210406 Z M100.3805,10.3291965 C95.8253571,10.3291965 91.3488903,10.6669606 86.9752708,11.3183629 C86.0392177,13.3529896 85.3718947,15.5863011 85.3718947,17.8191396 C85.3718947,25.3095558 77.8678292,10.3291965 70.3637636,25.3095558 C62.8592241,40.289442 70.3637636,25.3095558 70.3637636,40.289442 C70.3637636,47.7798582 59.5031773,42.3600213 62.8592241,44.0346501 C70.3637636,47.7798582 70.3637636,47.7798582 62.8592241,55.2698013 C62.8592241,55.2698013 47.8510929,47.7798582 47.8510929,55.2698013 C47.8510929,62.7597444 40.3465534,62.7597444 32.8424879,62.7597444 C25.3384223,62.7597444 32.8424879,77.7401037 25.3384223,77.7401037 C19.5685433,77.7401037 22.6710263,68.8839662 17.5916938,64.7905867 C15.6608176,69.2808627 14.0858786,73.9594162 12.902423,78.7912408 C17.9599537,83.3141579 18.8069041,101.181596 25.3384223,107.700822 C32.8424879,100.210406 32.8424879,107.700822 40.3465534,107.700822 C47.8510929,107.700822 47.8510929,107.700822 51.6028888,115.190765 C59.1074283,115.190765 62.8592241,122.680709 70.3637636,130.170652 C77.8678292,137.661068 92.8759603,137.661068 92.8759603,145.151011 C92.8759603,152.640954 85.3718947,145.151011 85.3718947,160.13137 C85.3718947,167.621313 85.3718947,167.621313 77.8678292,167.621313 C73.143012,167.621313 68.417721,176.529487 65.565958,183.128187 C76.2763018,187.61326 88.0383428,190.091616 100.3805,190.091616 C125.584738,190.091616 148.370404,179.756696 164.715551,163.100762 L160.413972,154.513795 C160.413972,154.513795 169.79441,139.533435 162.290344,132.043492 C154.785805,124.553549 154.785805,117.063133 154.785805,117.063133 C154.785805,117.063133 139.777673,132.043492 132.273134,124.553076 C124.769068,117.063133 124.769068,124.553076 117.265003,109.57319 C109.760463,94.5928305 124.769068,87.1028874 124.769068,87.1028874 C124.769068,87.1028874 124.769068,72.1225281 132.273134,72.1225281 C139.777673,72.1225281 147.281739,57.1426419 162.290344,72.1225281 C162.290344,72.1225281 170.963173,66.3516814 183.233763,64.9410195 C179.384807,55.9453296 174.108785,47.7036957 167.68912,40.4994802 C166.341203,41.4668859 164.577158,42.1622826 162.290344,42.1622826 C154.785805,42.1622826 169.79441,57.1426419 162.290344,57.1426419 C154.785805,57.1426419 154.785805,49.6522257 147.281739,49.6522257 C139.777673,49.6522257 139.777673,57.1426419 132.273134,64.632585 C124.769068,72.1225281 132.273134,64.632585 124.769068,57.1426419 C117.265003,49.6522257 139.777673,57.1426419 132.273134,49.6522257 C124.769068,42.1622826 139.777673,42.1622826 139.777673,34.6723395 C139.777673,28.7974198 149.010238,27.5305678 152.992848,27.2571397 C148.661884,24.1401539 144.042758,21.3978309 139.777673,19.6919802 C147.281739,27.1819233 132.273134,34.6723395 124.769068,34.6723395 C117.719996,34.6723395 123.913587,21.454598 124.69134,13.6429748 C116.957883,11.4839335 108.80403,10.3291965 100.3805,10.3291965 Z" id="Website" fill="#808080" sketch:type="MSShapeGroup"></path>
    </g>
</svg>