<?xml version="1.0" encoding="UTF-8" standalone="no"?>
<svg width="200px" height="200px" viewBox="0 0 200 200" version="1.1" xmlns="http://www.w3.org/2000/svg" xmlns:xlink="http://www.w3.org/1999/xlink" xmlns:sketch="http://www.bohemiancoding.com/sketch/ns">
    <title>WordPress</title>
    <description>Created with Sketch (http://www.bohemiancoding.com/sketch)</description>
    <defs></defs>
    <g id="Page-1" stroke="none" stroke-width="1" fill="none" fill-rule="evenodd" sketch:type="MSPage">
        <path d="M149.868313,160.544386 L113.76602,53.159318 C119.780129,52.8430335 125.199295,52.2104644 125.199295,52.2104644 C130.582011,51.5731922 129.94709,43.6625514 124.562022,43.9776602 C124.562022,43.9776602 108.380952,45.2475015 97.9353322,45.2475015 C88.1199295,45.2475015 71.6261023,43.9776602 71.6261023,43.9776602 C66.2386831,43.6625514 65.6072898,51.8918283 70.9923574,52.2104644 C70.9923574,52.2104644 76.0881834,52.8430335 81.4708995,53.159318 L97.0335097,95.8036449 L75.1687243,161.368607 L38.792475,53.159318 C44.8112875,52.8430335 50.2245738,52.2104644 50.2245738,52.2104644 C55.6037625,51.5731922 54.9688419,43.6625514 49.5861258,43.9776602 C49.5861258,43.9776602 33.4085832,45.2475015 22.9617872,45.2475015 C21.0875955,45.2475015 18.8783069,45.2016461 16.5326279,45.1263962 C34.3950617,18.0082305 65.0970018,0.0999412111 99.9988242,0.0999412111 C126.004703,0.0999412111 149.684891,10.0435038 167.45679,26.3280423 C167.026455,26.3021752 166.606702,26.2480894 166.163433,26.2480894 C156.350382,26.2480894 149.387419,34.7960024 149.387419,43.9776602 C149.387419,52.2104644 154.137566,59.175779 159.20047,67.4074074 C162.999412,74.0611405 167.436802,82.6078777 167.436802,94.9582598 C167.436802,103.507349 164.148148,113.429747 159.835391,127.252205 L149.868313,160.544386 Z M56.4056437,189.90241 C23.0781893,173.711934 0.102292769,139.537919 0.102292769,99.9964727 C0.102292769,85.5132275 3.20870076,71.7648442 8.75249853,59.3415638 L56.4056437,189.90241 Z M99.9988242,199.901235 C90.1928277,199.901235 80.728983,198.463257 71.776602,195.830688 L101.753086,108.734862 L132.457378,192.86067 C132.659612,193.354497 132.907701,193.809524 133.172252,194.237507 C122.788948,197.893004 111.631981,199.901235 99.9988242,199.901235 Z M187.659024,52.0717225 C195.45679,66.2998236 199.89418,82.627866 199.89418,99.9964727 C199.89418,136.851264 179.921223,169.027631 150.222222,186.343327 L180.733686,98.1246326 C186.432687,83.8730159 188.330394,72.4773663 188.330394,62.3445032 C188.330394,58.6666667 188.088183,55.2533804 187.659024,52.0717225 Z" id="WordPress" fill="#808080" sketch:type="MSShapeGroup"></path>
    </g>
</svg>