<?xml version="1.0" encoding="UTF-8" standalone="no"?>
<svg width="200px" height="200px" viewBox="0 0 200 200" version="1.1" xmlns="http://www.w3.org/2000/svg" xmlns:xlink="http://www.w3.org/1999/xlink" xmlns:sketch="http://www.bohemiancoding.com/sketch/ns">
    <title>Xbox</title>
    <description>Created with Sketch (http://www.bohemiancoding.com/sketch)</description>
    <defs></defs>
    <g id="Page-1" stroke="none" stroke-width="1" fill="none" fill-rule="evenodd" sketch:type="MSPage">
        <path d="M167.455062,26.176199 C187.455217,44.4611219 200,70.7655263 200,100 C200,123.226018 192.081879,144.602611 178.797786,161.577629 L178.797786,161.577629 C181.36533,125.252683 140.057811,73.4264509 127.169921,57.316014 C127.566995,56.6474637 127.973818,55.9760466 128.39118,55.3015303 C136.846479,43.7058318 152.080355,29.7690201 167.455062,26.176199 Z M150.155731,13.4684324 C135.411935,4.90414122 118.278695,0 100,0 C81.7221546,0 64.5896569,4.90368547 49.8463247,13.4672386 L49.8463247,13.4672386 C70.276639,13.4102891 88.9045135,22.8674393 100.400717,30.1905679 C111.748069,22.9371796 130.046544,13.6012145 150.155731,13.4684324 Z M100.36063,80.8296517 C96.4863975,84.0319575 92.8976283,87.1708474 89.3649585,90.251947 C89.3639396,90.2497443 89.3629207,90.2475417 89.3619018,90.2453391 C63.9110888,113.373814 31.4358547,143.902276 31.1823579,172.55473 C49.1098731,189.564438 73.3362259,200 100,200 C126.933969,200 151.380868,189.351871 169.360698,172.03561 C168.631231,143.553032 136.561966,113.2805 111.384727,90.3088567 C111.3841,90.3102151 111.383474,90.3115734 111.382847,90.3129318 C107.841451,87.2141109 104.243308,84.056833 100.36063,80.8296517 Z M32.6677679,26.0640895 C12.5961588,44.3535182 0,70.7057246 0,100 C0,123.571005 8.15509089,145.237236 21.7977011,162.33112 L21.7977019,162.331128 C18.4789197,126.007194 60.4788831,73.5168407 73.5229252,57.2840331 C73.1244409,56.6159842 72.716205,55.9450615 72.2974246,55.2710379 C63.7385145,43.5711574 48.2430107,29.4854646 32.6677679,26.0640895 L32.6677679,26.0640895 Z" id="Xbox" fill="#808080" sketch:type="MSShapeGroup"></path>
    </g>
</svg>