<?xml version="1.0" encoding="UTF-8" standalone="no"?>
<svg width="200px" height="200px" viewBox="0 0 200 200" version="1.1" xmlns="http://www.w3.org/2000/svg" xmlns:xlink="http://www.w3.org/1999/xlink" xmlns:sketch="http://www.bohemiancoding.com/sketch/ns">
    <title>Yelp</title>
    <description>Created with Sketch (http://www.bohemiancoding.com/sketch)</description>
    <defs></defs>
    <g id="Page-1" stroke="none" stroke-width="1" fill="none" fill-rule="evenodd" sketch:type="MSPage">
        <path d="M100,0 C44.771524,3.03201907e-14 0,44.771524 0,100 C0,155.228476 44.771524,200 100,200 C155.228476,200 200,155.228476 200,100 C200,44.771524 155.228476,-3.41060513e-14 100,0 Z M47.9872204,97.3634973 C45.6511303,101.114877 44.6642541,112.930005 45.4758906,120.770679 C45.7604904,123.359157 46.2282355,125.518642 46.9094304,126.805621 C47.8449205,128.587592 49.4154898,129.647535 51.206097,129.712214 C52.3550369,129.770293 53.0691716,129.574936 74.66977,122.618649 C74.66977,122.618649 84.2697432,119.548378 84.3079533,119.529899 C86.7033351,118.918749 88.3134321,116.714384 88.468908,113.89887 C88.6243838,111.010757 87.1381403,108.461878 84.6847846,107.539213 C84.6847846,107.539213 77.9149984,104.775177 77.9018225,104.775177 C54.6924446,95.1842126 53.6475944,94.8080187 52.4788905,94.7948189 C50.6869658,94.72354 49.0966326,95.6264054 47.9872204,97.3634973 Z M100.813425,86.9462258 C100.391795,77.2061034 97.4641065,33.835565 97.1202151,31.8265575 C96.6274358,30.006307 95.2057543,28.704808 93.16744,28.1913364 C86.9049266,26.6377215 62.9669205,33.3537728 58.534542,37.9380587 C57.1062726,39.4269946 56.5805535,41.2617649 57.0087708,42.8866586 C57.7097296,44.3241154 87.3647661,91.0685191 87.3647661,91.0685191 C91.7470761,98.188484 95.32302,97.0836618 96.4969942,96.7127478 C97.6591101,96.3550336 101.216608,95.2502115 100.813425,86.9462258 Z M125.439214,107.239578 C149.972771,101.283834 150.921437,100.972319 151.888549,100.334769 C153.374793,99.3329054 154.12055,97.6552126 153.991426,95.6145256 C153.991426,95.5485267 154.003284,95.4772478 153.991426,95.405969 C153.361617,89.3723466 142.807707,73.6751605 137.608491,71.1262818 C135.76518,70.2418961 133.921869,70.2999751 132.390827,71.3282385 C131.442161,71.9459885 130.747791,72.8818534 117.611401,90.8797622 C117.611401,90.8797622 111.679603,98.9751912 111.607136,99.05307 C110.043155,100.959119 110.016803,103.690155 111.549162,106.030477 C113.132907,108.456598 115.806301,109.639299 118.260974,108.95687 C118.260974,108.95687 118.163472,109.132427 118.13712,109.164106 C119.344034,108.710034 121.506202,108.176762 125.439214,107.239578 Z M136.59658,160.909909 C142.048775,158.731945 153.938722,143.57463 154.77671,137.742964 C155.067898,135.714157 154.432819,133.963865 153.037489,132.845843 C152.121763,132.156814 151.427392,131.890179 129.83997,124.790014 C129.83997,124.790014 120.370438,121.655064 120.246585,121.596985 C117.955293,120.706 115.339873,121.532306 113.580888,123.703671 C111.750753,125.934435 111.478012,128.879307 112.937903,131.103471 L116.748379,137.319251 C129.56064,158.165674 130.540929,159.64273 131.461925,160.363438 C132.890195,161.48938 134.707154,161.670217 136.59658,160.909909 Z M99.9121919,168.823181 C100.287706,167.730239 100.333821,166.983131 100.398383,144.250459 C100.398383,144.250459 100.449769,134.205421 100.456357,134.107743 C100.613151,131.643343 99.0228175,129.399379 96.4192563,128.398835 C93.7392748,127.365292 90.8511138,128.001522 89.2278408,130.023729 C89.2278408,130.023729 84.489781,135.654758 84.4766051,135.654758 C68.218841,154.791808 67.5363285,155.676194 67.141051,156.807416 C66.9012493,157.470045 66.8037476,158.185473 66.8814855,158.894302 C66.9789873,159.908045 67.4401444,160.909909 68.1990772,161.845774 C71.9700246,166.332382 90.0526532,172.998274 95.8289752,172.00961 C97.8343498,171.645296 99.295559,170.514074 99.9121919,168.823181 Z" id="Yelp" fill="#808080" sketch:type="MSShapeGroup"></path>
    </g>
</svg>