<?xml version="1.0" encoding="UTF-8" standalone="no"?>
<svg width="1001px" height="1002px" viewBox="0 0 1001 1002" version="1.1" xmlns="http://www.w3.org/2000/svg" xmlns:xlink="http://www.w3.org/1999/xlink" xmlns:sketch="http://www.bohemiancoding.com/sketch/ns">
    <title>YouTube</title>
    <description>Created with Sketch (http://www.bohemiancoding.com/sketch)</description>
    <defs></defs>
    <g id="Page 1" fill="#D8D8D8" fill-rule="evenodd">
        <path d="M500,0.5 C223.85762,0.5 0,224.35762 0,500.5 C0,776.64238 223.85762,1000.5 500,1000.5 C776.14238,1000.5 1000,776.64238 1000,500.5 C1000,224.35762 776.14238,0.5 500,0.5 L500,0.5 L500,0.5 Z M310.96875,130.28125 C313.9698,130.27872 317.25138,130.39456 320.4375,130.65625 L335.90625,131.9375 L349.625,181 C357.17212,207.98031 364.38785,229.00986 365.65625,227.75 C366.9246,226.49018 373.3571,204.40795 379.96875,178.6875 L392,131.9375 L411.03125,130.71875 C425.22556,129.80795 430.0625,130.92513 430.0625,135.09375 C430.0625,138.16816 420.15259,173.21571 408.03125,213 L385.96875,285.34375 L385.96875,341.875 L385.96875,398.40625 L366.375,398.40625 L346.78125,398.40625 L345.09375,337.3125 L343.40625,276.1875 L319.25,204.6875 C302.00868,153.64698 296.53289,132.63571 300.0625,131.28125 C301.76214,130.62905 305.96701,130.28547 310.96875,130.28125 L310.96875,130.28125 L310.96875,130.28125 Z M570.3125,198.0625 L588.34375,198.0625 L606.375,198.0625 L606.375,282.1875 L606.375,366.34375 L615.78125,366.34375 C636.4442,366.34375 638.4375,358.28968 638.4375,274.875 L638.4375,198.0625 L656.46875,198.0625 L674.5,198.0625 L674.5,298.21875 L674.5,398.40625 L656.46875,398.40625 C641.10838,398.40625 638.4375,397.23307 638.4375,390.40625 C638.4375,380.26235 637.80239,380.32526 620,392.40625 C602.16784,404.50748 589.04127,405.13502 578.3125,394.40625 C570.75311,386.84686 570.3125,381.04183 570.3125,292.21875 L570.3125,198.0625 L570.3125,198.0625 Z M486.40625,198.09375 C496.55561,198.12084 506.87544,200.3526 514.53125,204.875 C534.92584,216.92238 538.26663,230.42099 538.25,300.84375 C538.238,356.76214 537.2935,365.89205 530.40625,377.1875 C515.3483,401.88338 483.71614,409.42648 458.875,394.28125 C437.837,381.4547 434.0625,366.87353 434.0625,298.15625 C434.0625,232.62321 436.64855,222.07055 456.5625,206.40625 C463.6065,200.86543 474.90364,198.06305 486.40625,198.09375 L486.40625,198.09375 L486.40625,198.09375 Z M486.15625,230.15625 C483.92712,230.15625 481.71033,230.95393 479.15625,232.5625 C473.12479,236.36111 471.95966,244.77422 470.96875,292.65625 C469.544,361.50064 470.55478,366.34375 486.15625,366.34375 C495.13214,366.34375 498.56335,364.16228 500.25,357.34375 C501.4766,352.38502 501.97742,323.27421 501.34375,292.65625 C500.35284,244.77422 499.18771,236.36111 493.15625,232.5625 C490.60217,230.95393 488.38538,230.15625 486.15625,230.15625 L486.15625,230.15625 L486.15625,230.15625 Z M485.03125,444.21875 C594.89814,443.96601 716.85049,448.62422 738.59375,455.3125 C758.30285,461.37514 773.69389,473.04643 781.28125,487.71875 C802.74216,529.21954 808.02807,705.03765 790.46875,793.34375 C785.99752,815.82978 768.82738,839.78548 750.34375,849.34375 C731.88048,858.89148 527.30453,868.33926 424.0625,864.40625 C339.17675,861.17252 259.83537,854.50995 248.21875,849.65625 C229.10975,841.67199 210.63917,817.17287 205.78125,793.34375 C199.01506,760.15447 193.16789,659.54518 195.75,620.8125 C203.22155,508.73583 209.35124,483.87347 233.75,466.5 C252.84755,452.90138 264.49571,451.33436 383.375,446.21875 C413.15354,444.93733 448.40895,444.303 485.03125,444.21875 L485.03125,444.21875 L485.03125,444.21875 Z M237.71875,510.59375 L237.71875,530.625 L237.71875,550.6875 L259.75,550.6875 L281.8125,550.6875 L281.8125,666.875 L281.8125,783.09375 L303.84375,783.09375 L325.875,783.09375 L325.875,666.875 L325.875,550.6875 L347.90625,550.6875 L369.96875,550.6875 L369.96875,530.625 L369.96875,510.59375 L303.84375,510.59375 L237.71875,510.59375 L237.71875,510.59375 Z M510.1875,510.59375 L510.1875,646.84375 L510.1875,783.09375 L528.21875,783.09375 C543.48716,783.09375 546.25,781.87119 546.25,775.1875 C546.25,767.7014 547.01232,767.80121 560.84375,777.1875 C579.18717,789.6357 590.87322,789.71332 605.15625,777.4375 L616.375,767.75 L617.5,686.28125 C618.53606,610.49276 618.06495,603.86064 610.5625,591.75 C600.4121,575.36494 579.1108,572.77442 559.59375,585.5625 L550.28125,591.65625 L550.28125,551.125 L550.28125,510.59375 L530.25,510.59375 L510.1875,510.59375 L510.1875,510.59375 Z M700.75,577.90625 C689.17782,577.88863 677.93863,580.50519 670.90625,585.65625 C650.10747,600.89084 646.46875,615.15006 646.46875,680.90625 C646.46875,749.09143 650.1629,761.94022 674.5,778.34375 C693.93261,791.44165 721.93028,789.04653 738.875,772.8125 C751.81374,760.4164 760.23741,738.44767 758.03125,722.8125 C756.80893,714.14977 754.34745,712.82502 737.59375,711.75 L718.5625,710.53125 L718.5625,726.28125 C718.5625,744.01055 711.44773,752.29819 697.90625,750.34375 C687.47392,748.8381 683.49934,738.13324 682.90625,710.09375 L682.5,691.21875 L719.5625,690.0625 L756.625,688.90625 L756.4375,652.84375 C756.22633,611.08991 749.80623,594.67212 729.53125,584.1875 C721.44241,580.0046 710.96075,577.9218 700.75,577.90625 L700.75,577.90625 L700.75,577.90625 Z M442.09375,578.28125 L442.09375,656.65625 C442.09375,730.44962 441.59183,735.47066 433.8125,743.25 C429.26922,747.79328 422.50252,750.93401 418.78125,750.21875 C412.7257,749.05482 411.9054,739.97445 410.9375,663.8125 L409.875,578.71875 L392.15625,578.71875 C382.41269,578.71875 373.24122,580.66893 371.78125,583.03125 C370.32128,585.39353 370.44297,628.89827 372.0625,679.71875 C374.69301,762.26458 375.81106,772.90481 382.5,779.59375 C391.01063,788.10442 402.54225,789.17081 415.3125,782.59375 C420.12633,780.11446 428.10376,774.39155 433.0625,769.875 L442.09375,761.65625 L442.09375,772.375 C442.09375,782.40422 443.24909,783.09375 460.125,783.09375 L478.15625,783.09375 L479,702.9375 C479.46622,658.85989 479.91525,613.32037 480,601.75 L480.15625,580.71875 L461.125,579.5 L442.09375,578.28125 L442.09375,578.28125 Z M703.40625,611.15625 C706.08591,611.05975 708.11098,612.8922 712.28125,617.0625 C716.10979,620.89104 718.5625,630.33545 718.5625,641.125 L718.5625,658.875 L702.78125,658.875 C694.0958,658.875 685.81829,657.00353 684.40625,654.71875 C679.72873,647.15034 686.96912,618.81604 694.625,614.71875 C698.83695,612.46459 701.32207,611.23131 703.40625,611.15625 L703.40625,611.15625 L703.40625,611.15625 Z M566.03125,612.15625 C568.57859,612.21253 570.81258,613.5626 573.59375,616.34375 C578.50956,621.2596 580.3272,633.88131 581.5625,671.84375 C583.49935,731.36484 580.02105,748.51819 565.71875,750.21875 C560.14778,750.88111 553.88223,749.085 551.78125,746.21875 C549.58847,743.22716 548.59261,714.9545 549.46875,679.84375 C550.87795,623.36995 551.63417,618.35273 559.125,614.34375 C561.88369,612.86734 564.04999,612.11247 566.03125,612.15625 L566.03125,612.15625 L566.03125,612.15625 Z M566.03125,612.15625" id="YouTube" fill="#808080"></path>
    </g>
</svg>