<?xml version="1.0" encoding="UTF-8" standalone="no"?>
<svg width="1000px" height="1000px" viewBox="0 0 1000 1000" version="1.1" xmlns="http://www.w3.org/2000/svg" xmlns:xlink="http://www.w3.org/1999/xlink" xmlns:sketch="http://www.bohemiancoding.com/sketch/ns">
    <title>YouTube</title>
    <description>Created with Sketch (http://www.bohemiancoding.com/sketch)</description>
    <defs></defs>
    <g id="Page 1" fill="#D8D8D8" fill-rule="evenodd">
        <g id="YouTube" fill="#000000">
            <g id="Page 1" fill="#D8D8D8">
                <g id="YouTube" fill="#000000">
                    <g id="Page 1" fill="#D8D8D8">
                        <g id="svg2" fill="#000000">
                            <path d="M500,0 C223.85762,7.5791225e-14 0,223.85762 0,500 C-7.5791225e-14,776.14238 223.85762,1000 500,1000 C776.14238,1000 1000,776.14238 1000,500 C1000,223.85762 776.14238,-1.1368684e-13 500,0 L500,0 L500,0 Z M310.96875,129.78125 C313.9698,129.77872 317.25138,129.89456 320.4375,130.15625 L335.90625,131.4375 L349.625,180.5 C357.17212,207.48031 364.38785,228.50986 365.65625,227.25 C366.9246,225.99018 373.3571,203.90795 379.96875,178.1875 L392,131.4375 L411.03125,130.21875 C425.22556,129.30795 430.0625,130.42513 430.0625,134.59375 C430.0625,137.66816 420.15259,172.71571 408.03125,212.5 L385.96875,284.84375 L385.96875,341.375 L385.96875,397.90625 L366.375,397.90625 L346.78125,397.90625 L345.09375,336.8125 L343.40625,275.6875 L319.25,204.1875 C302.00868,153.14698 296.53289,132.13571 300.0625,130.78125 C301.76214,130.12905 305.96701,129.78547 310.96875,129.78125 L310.96875,129.78125 L310.96875,129.78125 Z M570.3125,197.5625 L588.34375,197.5625 L606.375,197.5625 L606.375,281.6875 L606.375,365.84375 L615.78125,365.84375 C636.4442,365.84375 638.4375,357.78968 638.4375,274.375 L638.4375,197.5625 L656.46875,197.5625 L674.5,197.5625 L674.5,297.71875 L674.5,397.90625 L656.46875,397.90625 C641.10838,397.90625 638.4375,396.73307 638.4375,389.90625 C638.4375,379.76235 637.80239,379.82526 620,391.90625 C602.16784,404.00748 589.04127,404.63502 578.3125,393.90625 C570.75311,386.34686 570.3125,380.54183 570.3125,291.71875 L570.3125,197.5625 L570.3125,197.5625 Z M486.40625,197.59375 C496.55561,197.62084 506.87544,199.8526 514.53125,204.375 C534.92584,216.42238 538.26663,229.92099 538.25,300.34375 C538.238,356.26214 537.2935,365.39205 530.40625,376.6875 C515.3483,401.38338 483.71614,408.92648 458.875,393.78125 C437.837,380.9547 434.0625,366.37353 434.0625,297.65625 C434.0625,232.12321 436.64855,221.57055 456.5625,205.90625 C463.6065,200.36543 474.90364,197.56305 486.40625,197.59375 L486.40625,197.59375 L486.40625,197.59375 Z M486.15625,229.65625 C483.92712,229.65625 481.71033,230.45393 479.15625,232.0625 C473.12479,235.86111 471.95966,244.27422 470.96875,292.15625 C469.544,361.00064 470.55478,365.84375 486.15625,365.84375 C495.13214,365.84375 498.56335,363.66228 500.25,356.84375 C501.4766,351.88502 501.97742,322.77421 501.34375,292.15625 C500.35284,244.27422 499.18771,235.86111 493.15625,232.0625 C490.60217,230.45393 488.38538,229.65625 486.15625,229.65625 L486.15625,229.65625 L486.15625,229.65625 Z M485.03125,443.71875 C594.89814,443.46601 716.85049,448.12422 738.59375,454.8125 C758.30285,460.87514 773.69389,472.54643 781.28125,487.21875 C802.74216,528.71954 808.02807,704.53765 790.46875,792.84375 C785.99752,815.32978 768.82738,839.28548 750.34375,848.84375 C731.88048,858.39148 527.30453,867.83926 424.0625,863.90625 C339.17675,860.67252 259.83537,854.00995 248.21875,849.15625 C229.10975,841.17199 210.63917,816.67287 205.78125,792.84375 C199.01506,759.65447 193.16789,659.04518 195.75,620.3125 C203.22155,508.23583 209.35124,483.37347 233.75,466 C252.84755,452.40138 264.49571,450.83436 383.375,445.71875 C413.15354,444.43733 448.40895,443.803 485.03125,443.71875 L485.03125,443.71875 L485.03125,443.71875 Z M237.71875,510.09375 L237.71875,530.125 L237.71875,550.1875 L259.75,550.1875 L281.8125,550.1875 L281.8125,666.375 L281.8125,782.59375 L303.84375,782.59375 L325.875,782.59375 L325.875,666.375 L325.875,550.1875 L347.90625,550.1875 L369.96875,550.1875 L369.96875,530.125 L369.96875,510.09375 L303.84375,510.09375 L237.71875,510.09375 L237.71875,510.09375 Z M510.1875,510.09375 L510.1875,646.34375 L510.1875,782.59375 L528.21875,782.59375 C543.48716,782.59375 546.25,781.37119 546.25,774.6875 C546.25,767.2014 547.01232,767.30121 560.84375,776.6875 C579.18717,789.1357 590.87322,789.21332 605.15625,776.9375 L616.375,767.25 L617.5,685.78125 C618.53606,609.99276 618.06495,603.36064 610.5625,591.25 C600.4121,574.86494 579.1108,572.27442 559.59375,585.0625 L550.28125,591.15625 L550.28125,550.625 L550.28125,510.09375 L530.25,510.09375 L510.1875,510.09375 L510.1875,510.09375 Z M700.75,577.40625 C689.17782,577.38863 677.93863,580.00519 670.90625,585.15625 C650.10747,600.39084 646.46875,614.65006 646.46875,680.40625 C646.46875,748.59143 650.1629,761.44022 674.5,777.84375 C693.93261,790.94165 721.93028,788.54653 738.875,772.3125 C751.81374,759.9164 760.23741,737.94767 758.03125,722.3125 C756.80893,713.64977 754.34745,712.32502 737.59375,711.25 L718.5625,710.03125 L718.5625,725.78125 C718.5625,743.51055 711.44773,751.79819 697.90625,749.84375 C687.47392,748.3381 683.49934,737.63324 682.90625,709.59375 L682.5,690.71875 L719.5625,689.5625 L756.625,688.40625 L756.4375,652.34375 C756.22633,610.58991 749.80623,594.17212 729.53125,583.6875 C721.44241,579.5046 710.96075,577.4218 700.75,577.40625 L700.75,577.40625 L700.75,577.40625 Z M442.09375,577.78125 L442.09375,656.15625 C442.09375,729.94962 441.59183,734.97066 433.8125,742.75 C429.26922,747.29328 422.50252,750.43401 418.78125,749.71875 C412.7257,748.55482 411.9054,739.47445 410.9375,663.3125 L409.875,578.21875 L392.15625,578.21875 C382.41269,578.21875 373.24122,580.16893 371.78125,582.53125 C370.32128,584.89353 370.44297,628.39827 372.0625,679.21875 C374.69301,761.76458 375.81106,772.40481 382.5,779.09375 C391.01063,787.60442 402.54225,788.67081 415.3125,782.09375 C420.12633,779.61446 428.10376,773.89155 433.0625,769.375 L442.09375,761.15625 L442.09375,771.875 C442.09375,781.90422 443.24909,782.59375 460.125,782.59375 L478.15625,782.59375 L479,702.4375 C479.46622,658.35989 479.91525,612.82037 480,601.25 L480.15625,580.21875 L461.125,579 L442.09375,577.78125 L442.09375,577.78125 Z M703.40625,610.65625 C706.08591,610.55975 708.11098,612.3922 712.28125,616.5625 C716.10979,620.39104 718.5625,629.83545 718.5625,640.625 L718.5625,658.375 L702.78125,658.375 C694.0958,658.375 685.81829,656.50353 684.40625,654.21875 C679.72873,646.65034 686.96912,618.31604 694.625,614.21875 C698.83695,611.96459 701.32207,610.73131 703.40625,610.65625 L703.40625,610.65625 L703.40625,610.65625 Z M566.03125,611.65625 C568.57859,611.71253 570.81258,613.0626 573.59375,615.84375 C578.50956,620.7596 580.3272,633.38131 581.5625,671.34375 C583.49935,730.86484 580.02105,748.01819 565.71875,749.71875 C560.14778,750.38111 553.88223,748.585 551.78125,745.71875 C549.58847,742.72716 548.59261,714.4545 549.46875,679.34375 C550.87795,622.86995 551.63417,617.85273 559.125,613.84375 C561.88369,612.36734 564.04999,611.61247 566.03125,611.65625 L566.03125,611.65625 L566.03125,611.65625 Z M566.03125,611.65625" id="path2985" fill="#808080"></path>
                        </g>
                    </g>
                </g>
            </g>
        </g>
    </g>
</svg>