<?xml version="1.0" encoding="UTF-8" standalone="no"?>
<svg width="200px" height="200px" viewBox="0 0 200 200" version="1.1" xmlns="http://www.w3.org/2000/svg" xmlns:xlink="http://www.w3.org/1999/xlink" xmlns:sketch="http://www.bohemiancoding.com/sketch/ns">
    <title>YouVersion</title>
    <description>Created with Sketch (http://www.bohemiancoding.com/sketch)</description>
    <defs></defs>
    <g id="Page-1" stroke="none" stroke-width="1" fill="none" fill-rule="evenodd" sketch:type="MSPage">
        <path d="M100,0 C44.7714,0 0,44.7714 0,100 C0,155.2286 44.7714,200 100,200 C155.2286,200 200,155.2286 200,100 C200,44.7714 155.2286,0 100,0 Z M179.638005,100.218227 C179.638005,85.2558166 173.275325,77.3499143 161.222013,77.3499143 C149.156255,77.3499143 142.771796,85.2558166 142.771796,100.218227 C142.771796,115.180637 149.156255,123.102096 161.222013,123.102096 C173.275325,123.102096 179.638005,115.180637 179.638005,100.218227 Z M20.7110111,100.218227 C20.7110111,115.180637 27.0892479,123.102096 39.1394485,123.102096 C47.5556097,123.102096 57.5927766,119.141367 57.5927766,100.218227 C57.5927766,85.2558166 51.2145397,77.3499143 39.1394485,77.3499143 C27.0892479,77.3499143 20.7110111,85.2558166 20.7110111,100.218227 Z M100.175752,179.701947 C119.083335,179.701947 123.059622,169.680337 123.059622,161.261065 C123.059622,152.832458 119.083335,142.801514 100.175752,142.801514 C81.2526127,142.801514 77.2887719,152.832458 77.2887719,161.261065 C77.2887719,169.680337 81.2526127,179.701947 100.175752,179.701947 Z M100.175752,20.7376177 C81.2526127,20.7376177 77.2887719,30.7592278 77.2887719,39.1753891 C77.2887719,47.5822164 81.2526127,57.6224945 100.175752,57.6224945 C119.083335,57.6224945 123.059622,47.5822164 123.059622,39.1753891 C123.059622,30.7592278 119.083335,20.7376177 100.175752,20.7376177 Z M43.5273643,66.7327946 C49.1868827,57.1996641 57.1363437,49.2346464 66.6756969,43.5875733 C66.4827942,42.1252458 66.3147821,40.6629184 66.3147821,39.1788116 C66.3147821,35.0158453 67.1143952,30.9524417 68.6762854,27.1815037 C50.0829472,35.2274161 35.176541,50.1369336 27.143074,68.7333831 C30.9109007,67.1777155 34.9836383,66.3749911 39.1372705,66.3749911 C40.6151547,66.3749911 42.0774821,66.5492259 43.5273643,66.7327946 Z M133.674252,43.6021966 C143.182492,49.2554923 151.135064,57.2049534 156.782137,66.7318612 C158.241354,66.5514038 159.722349,66.3740577 161.222013,66.3740577 C165.366311,66.3740577 169.407935,67.1643368 173.150871,68.7013363 C165.132961,50.1235548 150.235889,35.22026 131.673664,27.1899043 C133.223109,30.9515083 134.032056,35.0242459 134.032056,39.1778782 C134.032056,40.661985 133.867155,42.1305351 133.674252,43.6021966 Z M66.6601403,156.878438 C57.1363437,151.225142 49.171326,143.253902 43.5273643,133.71766 C42.0774821,133.910563 40.6151547,134.078575 39.1372705,134.078575 C34.9680816,134.078575 30.8984554,133.269628 27.1275173,131.710849 C35.1609844,150.322855 50.0829472,165.244818 68.6887307,173.284508 C67.1143952,169.504236 66.3178934,165.428387 66.3178934,161.262309 C66.3178934,159.784425 66.4827942,158.32832 66.6601403,156.878438 Z M156.781204,133.717971 C151.146576,143.241768 143.197115,151.213008 133.667096,156.85697 C133.866222,158.322409 134.031122,159.784736 134.031122,161.26262 C134.031122,165.428698 133.231509,169.501435 131.660285,173.269262 C150.238067,165.235795 165.144473,150.335612 173.165494,131.745385 C169.422558,133.282384 165.362266,134.075775 161.221079,134.075775 C159.733861,134.075775 158.255977,133.910874 156.781204,133.717971 Z" id="YouVersion" fill="#808080" sketch:type="MSShapeGroup"></path>
    </g>
</svg>