<svg width="0" height="0" style="position:absolute"><symbol viewBox="0 0 53 53" id="GitHub" xmlns="http://www.w3.org/2000/svg"><defs><clipPath id="aa"><circle cx="26.5" cy="26.5" r="22" style="fill:none"/></clipPath></defs><circle cx="26.5" cy="26.5" r="25" style="fill:none;stroke:currentColor;stroke-miterlimit:10;stroke-width:3px"/><g style="clip-path:url(#aa)"><path style="fill:none;stroke:currentColor;stroke-linecap:square;stroke-miterlimit:10;stroke-width:.25px" d="M42.033 45.533H10.182M36.39 49.776H17.383M44.155 43.412H8.092M16.572 41.291H6.621M46.276 41.291H17.999M48.398 39.169H5.264M10.743 37.048H4.362M49.11 37.048H11.859M49.817 34.927H3.138M50.523 32.806H2.43M51.23 30.684H1.723M51.226 28.563H1.728M51.23 26.442H1.723M51.226 24.32H1.728M51.23 22.199H1.723M50.524 20.078H2.43M49.857 17.956H3.137M49.153 15.835H3.844M48.403 13.714H4.788M47.008 11.592H6.91M44.89 9.471H9.031M42.741 7.35H11.152M39.922 5.228H13.273M34.727 3.107H16.564"/></g><path d="M32.732 47.814c0-.83.029-3.544.029-6.915a6.022 6.022 0 0 0-1.709-4.665c5.61-.624 11.504-2.755 11.504-12.432a9.732 9.732 0 0 0-2.592-6.763 9.042 9.042 0 0 0-.248-6.667s-2.112-.678-6.921 2.582a23.899 23.899 0 0 0-12.618 0c-4.815-3.26-6.93-2.582-6.93-2.582a9.053 9.053 0 0 0-.244 6.667 9.75 9.75 0 0 0-2.596 6.763c0 9.654 5.882 11.815 11.479 12.452a5.366 5.366 0 0 0-1.6 3.369c-1.438.643-5.085 1.757-7.332-2.095a5.295 5.295 0 0 0-3.862-2.596s-2.459-.032-.173 1.532c0 0 1.651.774 2.798 3.686 0 0 1.479 4.497 8.488 2.973.01 2.105.034 4.09.034 4.69 0 .662-.458 1.434-1.7 1.215a25.187 25.187 0 0 0 15.895-.003c-1.254.229-1.702-.546-1.702-1.211ZM10.724 36.23c-.055.126-.252.163-.432.077-.182-.082-.285-.253-.226-.378.054-.13.252-.165.434-.08.183.084.287.256.224.381Zm.822 1.106c-.12.112-.355.06-.514-.116a.385.385 0 0 1-.074-.524c.124-.111.352-.059.517.117.165.177.197.41.071.523Zm1.268 1.415c-.155.107-.407.007-.563-.217-.154-.224-.154-.493.003-.6s.405-.011.564.211c.153.227.153.496-.004.606Zm1.02 1.639c-.138.152-.432.111-.647-.096-.22-.204-.282-.492-.143-.644s.435-.11.652.096c.219.203.286.493.138.644Zm1.859.553c-.061.197-.344.287-.63.203-.285-.086-.472-.317-.414-.517.06-.198.344-.292.631-.202.285.086.472.315.413.516Zm1.58.618c-.301.007-.545-.161-.548-.365 0-.21.236-.38.537-.386.3-.006.545.161.545.368.008.207-.234.38-.534.383Zm2.142-.414c-.292.054-.563-.071-.6-.273-.036-.207.176-.416.468-.47.298-.051.564.07.602.277.036.203-.172.41-.47.466Z" style="fill:currentColor"/></symbol><symbol viewBox="0 0 53 53" id="LinkedIn" xmlns="http://www.w3.org/2000/svg"><defs><clipPath id="ba"><circle cx="26.5" cy="26.5" r="22" style="fill:none"/></clipPath></defs><circle cx="26.5" cy="26.5" r="25" style="fill:none;stroke:currentColor;stroke-miterlimit:10;stroke-width:3px"/><g style="clip-path:url(#ba)"><path style="fill:none;stroke:currentColor;stroke-linecap:square;stroke-miterlimit:10;stroke-width:.25px" d="M42.033 45.533H10.182M39.912 47.655H13.597M36.39 49.776H17.383M44.155 43.412H8.092M46.276 41.291H6.621M48.398 39.169H5.264M49.11 37.048H4.362M49.817 34.927H3.138M50.523 32.806H2.43M51.23 30.684H1.723M51.226 28.563H1.728M51.23 26.442H1.723M51.226 24.32H1.728M51.23 22.199H1.723M50.524 20.078H2.43M49.857 17.956H3.137M49.153 15.835H3.844M48.403 13.714H4.788M47.008 11.592H6.91M44.89 9.471H9.031M42.741 7.35H11.152M39.922 5.228H13.273M34.727 3.107H16.564"/></g><path d="M22.435 21.97h5.342v2.556h.233a5.711 5.711 0 0 1 5.342-3.02c5.678 0 6.736 3.8 6.736 8.826v9.988h-5.575v-8.826c-.08-2.23-.121-4.968-3.02-4.878-2.95-.09-3.398 2.23-3.484 4.646v9.058h-5.574V21.97" style="fill:currentColor;fill-rule:evenodd"/><path style="fill:currentColor" d="M13.144 21.971h5.807v18.35h-5.807z"/><circle cx="16.164" cy="15.931" r="3.252" style="fill:currentColor"/></symbol><symbol viewBox="0 0 53 53" id="instagram" xmlns="http://www.w3.org/2000/svg"><defs><clipPath id="ca"><circle cx="26.5" cy="26.5" r="22" style="fill:none"/></clipPath></defs><circle cx="26.5" cy="26.5" r="25" style="fill:none;stroke:currentColor;stroke-miterlimit:10;stroke-width:3px"/><g style="clip-path:url(#ca)"><path style="fill:none;stroke:currentColor;stroke-linecap:square;stroke-miterlimit:10;stroke-width:.25px" d="M10.919 7.437H42.77M13.04 5.316h26.315M16.563 3.194H35.57M8.797 9.558H44.86M6.676 11.68h39.655M4.555 13.801h43.133M3.842 15.922h44.749M3.135 18.043h46.68M2.43 20.165h48.092M1.722 22.286h49.507M1.726 24.407h49.498M1.722 26.529h49.507M1.726 28.65h49.498M1.722 30.771h49.507M2.429 32.893h48.093M3.095 35.014h46.72M3.799 37.135h45.309M4.549 39.257h43.615M5.944 41.378h40.099M8.063 43.499h35.859M10.212 45.621H41.8M13.031 47.742h26.648M18.226 49.863h18.162"/></g><path d="M26.5 14.1c4.038 0 4.517.015 6.112.088a8.37 8.37 0 0 1 2.808.52 5.008 5.008 0 0 1 2.87 2.871 8.367 8.367 0 0 1 .521 2.809c.073 1.595.088 2.073.088 6.112s-.015 4.517-.088 6.111a8.368 8.368 0 0 1-.52 2.81 5.008 5.008 0 0 1-2.87 2.87 8.37 8.37 0 0 1-2.81.52c-1.594.073-2.072.088-6.111.088s-4.517-.015-6.112-.088a8.37 8.37 0 0 1-2.808-.52 5.009 5.009 0 0 1-2.87-2.87 8.371 8.371 0 0 1-.521-2.81c-.073-1.594-.089-2.072-.089-6.111s.015-4.517.088-6.112a8.37 8.37 0 0 1 .521-2.808 5.009 5.009 0 0 1 2.87-2.87 8.37 8.37 0 0 1 2.809-.521c1.595-.073 2.073-.088 6.112-.088m0-2.725c-4.108 0-4.623.017-6.236.09a11.102 11.102 0 0 0-3.672.704 7.734 7.734 0 0 0-4.423 4.423 11.1 11.1 0 0 0-.703 3.671c-.074 1.614-.091 2.129-.091 6.236s.017 4.623.09 6.236a11.1 11.1 0 0 0 .704 3.672 7.735 7.735 0 0 0 4.423 4.423 11.1 11.1 0 0 0 3.672.703c1.613.074 2.128.092 6.236.092s4.623-.018 6.236-.091a11.1 11.1 0 0 0 3.671-.703 7.734 7.734 0 0 0 4.424-4.424 11.102 11.102 0 0 0 .703-3.671c.073-1.614.09-2.129.09-6.237s-.017-4.622-.09-6.236a11.102 11.102 0 0 0-.703-3.67 7.733 7.733 0 0 0-4.424-4.424 11.102 11.102 0 0 0-3.671-.704c-1.613-.074-2.128-.091-6.236-.091Zm0 7.358a7.767 7.767 0 1 0 7.767 7.766 7.767 7.767 0 0 0-7.767-7.767Zm0 12.808a5.042 5.042 0 1 1 5.042-5.042 5.042 5.042 0 0 1-5.042 5.042Zm9.889-13.115a1.815 1.815 0 1 1-1.816-1.815 1.815 1.815 0 0 1 1.816 1.814Z" style="fill:currentColor"/></symbol><symbol viewBox="0 0 53 53" id="twitter" xmlns="http://www.w3.org/2000/svg"><defs><clipPath id="da"><circle cx="26.5" cy="26.5" r="22" style="fill:none"/></clipPath></defs><circle cx="26.5" cy="26.5" r="25" style="fill:none;stroke:currentColor;stroke-miterlimit:10;stroke-width:3px"/><g style="clip-path:url(#da)"><path style="fill:none;stroke:currentColor;stroke-linecap:square;stroke-miterlimit:10;stroke-width:.25px" d="M10.919 7.466H42.77M13.04 5.344h26.315M16.563 3.223H35.57M8.797 9.587H44.86M6.676 11.708h39.655M4.555 13.829h43.133M3.842 15.951h44.749M3.135 18.072h46.68M2.43 20.194h48.092M1.722 22.315h49.507M1.726 24.436h49.498M1.722 26.558h49.507M1.726 28.679h49.498M1.722 30.8h49.507M2.429 32.921h48.093M3.095 35.043h46.72M3.799 37.164h45.309M4.549 39.285h43.615M5.944 41.407h40.099M8.063 43.528h35.859M10.212 45.649H41.8M13.031 47.771h26.648M18.226 49.892h18.162"/></g><path d="M43.5 15.75a11.185 11.185 0 0 1-4 1 6.145 6.145 0 0 0 3-3.75 15.033 15.033 0 0 1-4.25 1.75A7.303 7.303 0 0 0 33 12.5a7.059 7.059 0 0 0-7 7 12.854 12.854 0 0 0 .25 1.5 20.135 20.135 0 0 1-14.5-7.25 7.303 7.303 0 0 0-.75 3.5A6.608 6.608 0 0 0 14 23a8.382 8.382 0 0 1-3.25-.75c.116-.05.116-.02 0 0A7.045 7.045 0 0 0 16.5 29a4.59 4.59 0 0 1-2 .25 6.894 6.894 0 0 1-1.25 0 7.112 7.112 0 0 0 6.5 4.75 13.713 13.713 0 0 1-8.5 3 13.246 13.246 0 0 0-1.75 0 20.85 20.85 0 0 0 10.75 3C33.023 40 40.04 29.421 40 20.25a4.614 4.614 0 0 0 0-1 12.097 12.097 0 0 0 3.5-3.5" style="fill:currentColor;fill-rule:evenodd"/></symbol></svg>