<svg xmlns="http://www.w3.org/2000/svg" xmlns:xlink="http://www.w3.org/1999/xlink" viewBox="0 0 53 53"><defs><style>.a,.b,.d{fill:none;}.b,.d{stroke:#009bcd;stroke-miterlimit:10;}.b{stroke-width:3px;}.c{clip-path:url(#a);}.d{stroke-linecap:square;stroke-width:0.25px;}.e,.f{fill:#009bcd;}.e{fill-rule:evenodd;}</style><clipPath id="a"><circle class="a" cx="26.5" cy="26.5" r="22"/></clipPath></defs><title>LinkedIn</title><circle class="b" cx="26.5" cy="26.5" r="25"/><g class="c"><line class="d" x1="42.03" y1="45.53" x2="10.18" y2="45.53"/><line class="d" x1="39.91" y1="47.65" x2="13.6" y2="47.65"/><line class="d" x1="36.39" y1="49.78" x2="17.38" y2="49.78"/><line class="d" x1="44.15" y1="43.41" x2="8.09" y2="43.41"/><line class="d" x1="46.28" y1="41.29" x2="6.62" y2="41.29"/><line class="d" x1="48.4" y1="39.17" x2="5.26" y2="39.17"/><line class="d" x1="49.11" y1="37.05" x2="4.36" y2="37.05"/><line class="d" x1="49.82" y1="34.93" x2="3.14" y2="34.93"/><line class="d" x1="50.52" y1="32.81" x2="2.43" y2="32.81"/><line class="d" x1="51.23" y1="30.68" x2="1.72" y2="30.68"/><line class="d" x1="51.23" y1="28.56" x2="1.73" y2="28.56"/><line class="d" x1="51.23" y1="26.44" x2="1.72" y2="26.44"/><line class="d" x1="51.23" y1="24.32" x2="1.73" y2="24.32"/><line class="d" x1="51.23" y1="22.2" x2="1.72" y2="22.2"/><line class="d" x1="50.52" y1="20.08" x2="2.43" y2="20.08"/><line class="d" x1="49.86" y1="17.96" x2="3.14" y2="17.96"/><line class="d" x1="49.15" y1="15.83" x2="3.84" y2="15.83"/><line class="d" x1="48.4" y1="13.71" x2="4.79" y2="13.71"/><line class="d" x1="47.01" y1="11.59" x2="6.91" y2="11.59"/><line class="d" x1="44.89" y1="9.47" x2="9.03" y2="9.47"/><line class="d" x1="42.74" y1="7.35" x2="11.15" y2="7.35"/><line class="d" x1="39.92" y1="5.23" x2="13.27" y2="5.23"/><line class="d" x1="34.73" y1="3.11" x2="16.56" y2="3.11"/></g><path class="e" d="M22.44,22h5.34v2.56H28a5.71,5.71,0,0,1,5.34-3c5.68,0,6.74,3.8,6.74,8.83v10H34.51V31.49c-.08-2.23-.12-5-3-4.88-2.95-.09-3.4,2.23-3.48,4.65v9.06H22.44V22"/><rect class="f" x="13.14" y="21.97" width="5.81" height="18.35"/><circle class="f" cx="16.16" cy="15.93" r="3.25"/></svg>