<svg height="64" viewBox="0 0 64 64" width="64" xmlns="http://www.w3.org/2000/svg"><g fill="none" fill-rule="evenodd"><path d="m0 0h64v64h-64z"/><g transform="translate(7 4)"><path d="m28.601771.12062552c8.9708023 0 15.4807606 2.99651704 20.7847785 7.80718211 1.0273817.93168408 1.0334717 2.53459567.023751 3.48509927 0 0-3.3918822 2.5254272-5.4722236 5.151225-2.0803414 2.6259183-5.7632033 10.3225964-1.6458813 10.3225964 4.1175656 0 .2749023-8.0528002-1.5373577-10.2015969-1.8123817-2.1489174-7.5948295-4.4494762-12.1530669-4.4494762-9.4157372 0-15.4885558 6.9732145-15.4885558 15.7773456s6.0728186 15.777225 15.4885558 15.777225c4.5464229 0 8.6999195-1.6804816 12.1266364-4.4281233.9538146-.7647217 2.333076-.7044029 3.2095477.1460921l5.2570032 5.1007985c.9938868.9643769.9571032 2.5563105-.0738107 3.4819627-5.0986634 4.5780758-11.8334641 7.8144203-20.5193766 7.8144203-16.7210485 0-28.601771-12.2889891-28.601771-27.8923753 0-15.5998877 11.8807225-27.89237528 28.601771-27.89237528" fill="#0040ff"/><path d="m28.601771.12062552c8.9708023 0 15.4807606 2.99651704 20.7847785 7.80718211 1.0273817.93168408 1.0334717 2.53459567.023751 3.48509927 0 0-3.3918822 2.5254272-5.4722236 5.151225-2.0803414 2.6259183-5.7632033 10.3225964-1.6458813 10.3225964 4.1175656 0 .2749023-8.0528002-1.5373577-10.2015969-1.8123817-2.1489174-12.1530669-6.1686824-12.1530669-16.56450588m10.2264902 40.60582928c.6551967-.4185229 1.2891772-.8744509 1.9000487-1.3643523.9538146-.7647217 2.3331979-.7044029 3.2096696.1460921l5.2570032 5.1007985c.9938868.9643769.9569814 2.5563105-.0738107 3.4819627-5.0986634 4.5780758-11.833586 7.8144203-20.5193767 7.8144203 10.6580957-2.1520539 8.5895797-14.3425685 10.2264659-15.1789213z" fill="#7385ff"/></g></g></svg>