<svg fill="none" height="64" viewBox="0 0 64 64" width="64" xmlns="http://www.w3.org/2000/svg"><g fill="#101010"><path d="m29.0664 42.6864s.0281 12.9566.0016 13.3038l-.0009.022c0 .3511-.1398.679-.3936.9234-.2535.2442-.4909.3705-.8426.358-.6798-.0257-1.137-.6178-1.137-1.3197v-13.2875h-2.9156v13.2688c0 2.2643 1.8159 4.13 4.0479 4.1589.0184.0003.0366.0004.0548.0004 1.086-.0001 2.1074-.4188 2.8813-1.1826.7871-.777 1.2206-1.8139 1.2206-2.9197v-13.3258z"/><path d="m59.8196 40.117v-6.917h-7.3387v26.64h7.5042v-8.439h-2.6027v5.6191h-2.0816v-9.6636h3.5086v-2.82h-3.5086v-8.5165h1.9162v4.097z"/><path d="m28.1793 4.16766v5.65621c0 1.79483.1269 3.77973.2839 5.55073l-2.8748-11.20694h-2.7613v17.19164h2.4577v-5.505c0-1.9444-.1311-3.8994-.2912-5.5641l3.1296 11.0691h2.5138v-17.19164z"/><path d="m12.5074 13.3271v-5.2694c0-2.26201-1.8402-4.10232-4.10217-4.10232-2.26201 0-4.10232 1.84031-4.10232 4.10232v18.9222c0 2.262 1.84031 4.1022 4.10232 4.1022 2.26197 0 4.10217-1.8402 4.10217-4.1022v-5.6206h-2.81988v5.6206c0 .707-.57523 1.2823-1.28229 1.2823s-1.28239-.5753-1.28239-1.2823v-18.9222c0-.70716.57533-1.2823 1.28239-1.2823s1.28229.57514 1.28229 1.2823v5.2694z"/><path d="m50.1106 11.0847v-6.91694h-7.3388v26.63994h7.5043v-9.4484h-2.6027v6.6285h-2.0817v-9.504h3.5086v-2.82h-3.5086v-8.67612h1.9163v4.09702z"/><path d="m41.5231 4.16766h-9.6375v6.91674h2.1159v-4.10676h1.4147v14.38166h2.6104v-14.38166h1.3806v4.10676h2.1159z"/><path d="m8.12346 33.0099c-2.26564 0-4.10232 1.8366-4.10232 4.1023v3.4911c0 5.4012 5.36825 6.6756 5.36825 12.3071v3.1239c0 .6982-.55878 1.2682-1.25694 1.2821-.71797.0141-1.30765-.564-1.30765-1.2821v-5.7559h-2.8248v5.7393c0 2.2626 1.83419 4.0969 4.09677 4.0969 2.26683 0 4.10293-1.841 4.09673-4.1079l-.0097-3.5755c0-6.4631-5.34742-7.4097-5.34742-12.3071v-2.9682c0-.7093.57494-1.2843 1.2843-1.2843.70955 0 1.28478.5755 1.28421 1.2852l-.00392 5.5296h2.82483v-5.5742c0-2.2657-1.8367-4.1023-4.10234-4.1023z"/><path d="m19.064 55.7378c0 .7071-.5752 1.2824-1.2822 1.2824-.7071 0-1.2824-.5753-1.2824-1.2824v-18.6256c0-.7071.5752-1.2824 1.2823-1.2824s1.2823.5753 1.2823 1.2824zm.3442 1.2824c1.1568-.2002 2.4758-1.2169 2.4758-3.6707v-16.2373c0-2.262-1.8403-4.1023-4.1023-4.1023-2.2619 0-4.1024 1.8403-4.1024 4.1023v19.2842c0 2.0768 1.5361 3.4437 3.5997 3.4437h5.2834v-2.8199z"/><path d="m38.2501 53.8753-.7641-9.0478h-.5328l-.7283 9.0478zm.2841 5.9647-.1596-3.2899h-2.2743l-.1597 3.2899h-3.0625l1.8138-17.1536h5.0199l1.8316 17.1536z"/><path d="m45.5597 44.6413v-8.6214h1.6979c.478 0 .8668.3888.8668.8668v6.8463c0 .478-.3888.8668-.8668.8668h-1.6979l.0069.0415zm2.5442 15.1987h2.9003l-2.1447-12.6843c1.2436-.5173 2.0848-1.735 2.0848-3.1381v-7.4154c0-1.8759-1.5262-3.4022-3.4022-3.4022h-4.8024v26.64h2.82v-12.4893h.4593z"/><path d="m54.6966 15.6074v-8.61981h1.6979c.478 0 .8667.38878.8667.86663v6.84648c0 .4778-.3887.8666-.8667.8666h-1.6979l.0067.0401zm2.5442 15.2002h2.9003l-2.1447-12.6844c1.2436-.5172 2.0848-1.7349 2.0848-3.138v-7.4153c0-1.87599-1.5262-3.40224-3.4022-3.40224h-4.8024v26.63994h2.82v-12.6053h.4399z"/><path d="m21.353 11.0847v-6.91694h-7.3387v26.63994h7.5042v-9.4484h-2.6026v6.6285h-2.0817v-9.504h3.5086v-2.82h-3.5086v-8.67612h1.9163v4.09702z"/></g></svg>