<svg height="64" viewBox="0 0 64 64" width="64" xmlns="http://www.w3.org/2000/svg"><g fill="none" fill-rule="evenodd"><path d="m0 0h64v64h-64z" fill="none"/><path d="m30.4 0h3.2v64h-3.2z" fill="#009bcd"/><circle cx="32" cy="32" fill="#009bcd" r="19.84"/><path d="m32 14.08c-9.8969429 0-17.92 8.0230571-17.92 17.92s8.0230571 17.92 17.92 17.92 17.92-8.0230571 17.92-17.92-8.0230571-17.92-17.92-17.92zm14.0294466 10.24c1.2558822 2.2718913 1.9705534 4.8790935 1.9705534 7.6524493 0 5.8848386-3.2167779 11.0226434-8 13.7875507l4.9140747-14.0864393c.9178621-2.2756462 1.2235005-4.095262 1.2235005-5.7132406 0-.5872635-.0390097-1.1322846-.1081286-1.6403201zm-14.0229905 23.68c-1.5588486 0-3.0633058-.2296566-4.4864561-.6500989l4.7653293-13.9099011 4.881028 13.4355655c.0321489.0788681.0715874.1515395.1136427.2198919-1.6506226.5838121-3.4242335.9045426-5.2735439.9045426zm-7.0464561-1.6c-5.3036629-2.5991895-8.96-8.0854235-8.96-14.4333351 0-2.3251138.4943474-4.5322541 1.376576-6.5266649m22.6878535 16.3475266-5.7792694-17.2595274c.9627411-.050835 1.8302432-.1525051 1.8302432-.1525051.8616673-.1024259.760029-1.3738682-.1020148-1.3232222 0 0-2.5902721.204096-4.2624112.204096-1.5712536 0-4.211592-.204096-4.211592-.204096-.8624202-.050646-.9634939 1.2720093-.1014501 1.3232222 0 0 .8157419.1016701 1.6774092.1525051l2.4912688 6.8540342-3.5001235 10.5379666-5.8231245-17.3920008c.9634939-.050835 1.8300549-.1525051 1.8300549-.1525051.8611027-.1024259.7594643-1.3738682-.102203-1.3232222 0 0-2.5897075.204096-4.2620347.204096-.3000214 0-.6536852-.0073702-1.0291824-.0194647 2.8594255-4.358583 7.7742043-7.2369032 13.361302-7.2369032 4.1630314 0 7.9537653 1.5981849 10.798698 4.2155268-.0688882-.0041575-.1360825-.0128505-.2070411-.0128505-1.5708771 0-2.685511 1.3738683-2.685511 2.8495956 0 1.3232222.7604054 2.4427265 1.5708771 3.7657597.6081362 1.0694251 1.3184753 2.4431045 1.3184753 4.4281268 0 1.3740573-.526449 2.9688405-1.2168369 5.190463" fill="#444"/></g></svg>