<svg height="64" viewBox="0 0 64 64" width="64" xmlns="http://www.w3.org/2000/svg"><g fill="none" fill-rule="evenodd"><path d="m0 0h64v64h-64z"/><g fill="#000" transform="translate(4 22)"><path d="m54.8677993 15.4110531c-2.6464096 3.7717528-7.1649963 4.7952399-11.5093395 3.8502399-7.1153801-1.5478561-13.276727-5.5109779-19.5455646-9.27170484-3.6805793-2.20801107-7.4500406-4.3087417-11.3470406-5.97219189-3.61784833-1.54438007-7.40098117-1.27398154-11.02674021.6537786 1.1222214-2.23480074 4.9029941-4.32478228 7.60366495-4.51684871 5.25347376-.3735166 9.90292026 1.70258303 14.41172106 4.27058303 5.2159372 2.97073063 10.3322324 6.15747231 15.5376199 9.15193731 3.3418229 1.9225461 6.865572 3.3438929 10.7105314 2.9648966 1.7915424-.1765904 3.5503394-.7649335 5.1651476-1.13069zm-53.42868491-.7810605c4.27870517 2.6682731 7.58007233 2.7973395 9.52669811 2.5809853.6168598-.0685572 1.306096-.2024059 3.695358-.8777048 3.6063985-1.0193137 6.4958745-2.0118487 8.4353579-2.7170369-3.9923469 2.7615166-7.981904 5.5920885-12.7971232 6.168631-2.02677014.2426568-3.28915575-.1369041-4.15269524-.4972362-2.6937321-1.1240258-4.14117675-3.560048-4.70759557-4.6576384zm53.82782661-9.45055441c-2.9336126-2.05328414-6.1296421-3.1879262-9.4918008-2.60360148-3.3299557.57863469-6.5727564 1.78217712-9.8499741 2.72808487-.6039631.17436532-1.1896052.42687454-1.8292251.47454244 4.6062177-3.40628414 9.3266568-6.55770111 15.1768671-5.60652399 2.6953284.43818819 4.5952583 2.44712546 5.9941329 5.00749816z"/><path d="m0 12.2953948c5.82953886-1.0800996 11.6228577-1.0538081 17.7595735-1.4466863-1.5901771.2301697-3.1804206.460262-4.7706642.6904207-.8285645.1014464-1.5245313.2086494-2.0472398.2960147-.6377502.1065055-1.31338673.2330037-2.12925721.5465646-.67174981.2582657-1.03222361.4871845-1.24885461.9033764-.1464786.2815018-.18332436.564476-.19102583.7591107.08014317.2824096.24063874.7255904.57321808 1.1538598.55816162.7187269 1.26287159.9600553 1.8289428 1.1538597.86874467.297465 1.55590297.273465 1.55590297.2732546.0000664-.0004206-2.70997308.220727-5.59591108-.7287896-2.61664207-.860834-4.52198082-2.4025129-5.73468462-3.6009853zm59.9417746-2.2215941c-7.2853837 7.0841513-9.623845 5.9127344-15.1058191 5.1901218-.0580074-.0076273 1.1485239.2119151 2.6852767-.2599262 1.434952-.4405461 2.7552731-1.3936716 3.2033137-1.7170849.214904-.1552251.1767343-.1370479.6960442-.523749 1.1589964-.8633358 2.067775-1.488941 2.1905868-1.5714355 1.4944206-1.0033616 5.0641217-1.1048745 6.3305977-1.1179262zm-59.83107349-2.83999044c3.54610096-3.18521402 7.48924228-3.61153506 11.74990319-2.74751292-.9313993-.0558487-1.6745502.07751292-2.16561257.20422141-1.26745129.32695572-1.56318487.76535424-1.63784723.88809963-.22468007.36997417-.26097011.77471955-.26006789 1.03548708.04760036.18907749.14238487.46566421.34659631.71858303.32168523.39835793.74023616.51271218.91669151.56884871.70228118.22350553 2.79781547.72178228 5.64572327 1.27883025-4.86510224-.64885239-9.73020999-1.29770479-14.59538659-1.94655719zm59.53813279 2.12760604c-1.7712841-.12843542-3.4139889-.06390775-4.9772435-.42487085-1.0572731-.24417343-2.2422841-.84417343-2.9519889-1.70945756-1.9029188-2.31979705-4.0683875-3.79978229-7.1070554-3.80976753 2.8003838-.55802214 5.3100332-.47676753 8.0718266 1.02466052 2.4026458 1.30616236 4.5532804 3.18596679 6.9644612 4.91943542z"/></g></g></svg>