<svg height="64" viewBox="0 0 64 64" width="64" xmlns="http://www.w3.org/2000/svg"><g fill="none" fill-rule="evenodd"><path d="m0 0h64v64h-64z"/><path d="m46.9682963 10v7.7556321h5.4554074l-6.0906667 22.6487193s-7.4536296-29.9821674-7.5591111-30.4043514c-.4071111 0-7.482074 0-7.8832592 0-.1114074.4121179-8.1754074 30.4067199-8.1754074 30.4067199l-5.6094815-22.6510878h5.68c0-.5092262 0-7.2475902 0-7.7556321-.5445926 0-22.24118521 0-22.7857778 0v7.7556321h5.04888889s8.71288891 34.8215918 8.81777781 35.2443679h12.2311111c.1084444-.41271 5.8382222-22.1773891 5.8382222-22.1773891s5.4441481 21.7587579 5.549037 22.1773891h12.2305186c.1096296-.4156706 9.2776296-35.2443679 9.2776296-35.2443679h5.0068148c0-.5092262 0-7.2475902 0-7.7556321-.5380741 0-16.4936296 0-17.0317037 0" fill="#2e296e"/></g></svg>