<svg height="64" viewBox="0 0 64 64" width="64" xmlns="http://www.w3.org/2000/svg"><g fill="none" fill-rule="evenodd"><path d="m0 0h64v64h-64z"/><g fill="#32373c" transform="translate(4 4)"><path d="m28 0c-15.4639955 0-28 12.5359857-28 27.999958s12.5360045 28.000042 28 28.000042 28-12.5360697 28-28.000042-12.5360045-27.999958-28-27.999958m0 1.67999916c3.5539596 0 7.000651.69568765 10.2443982 2.06765897 1.5592096.65948367 3.0632311 1.47587926 4.4702325 2.42633878 1.3940654.94180753 2.7049707 2.02347499 3.8964279 3.2149304 1.1914572 1.19145539 2.2731263 2.50244279 3.2149352 3.89642209.950545 1.4069993 1.7668578 2.9110185 2.4263425 4.4702257 1.3720573 3.2437424 2.067662 6.6905127 2.067662 10.2443829 0 3.5539542-.6956047 7.0006405-2.067662 10.2443829-.6594847 1.5592072-1.4757975 3.0632264-2.4263425 4.4702257-.9418089 1.3940633-2.023478 2.7049667-3.2149352 3.8964221s-2.5023625 2.2731229-3.8964279 3.2149304c-1.4070014.9505435-2.9110229 1.7668551-4.4702325 2.4263388-3.2437472 1.3720553-6.6904386 2.0677429-10.2443982 2.0677429-3.5538756 0-7.000651-.6956876-10.2443982-2.0677429-1.5592096-.6594837-3.0632311-1.4757953-4.4702325-2.4263388-1.3939814-.9418075-2.7049707-2.023475-3.89642791-3.2149304-1.19145719-1.1914554-2.27312627-2.5023588-3.21493522-3.8964221-.95046095-1.4069993-1.76685776-2.9110185-2.42634242-4.4702257-1.37197337-3.2437424-2.06766207-6.6904287-2.06766207-10.2443829 0-3.5538702.6956887-7.0006405 2.06766207-10.2443829.65948466-1.5592072 1.47588147-3.0632264 2.42634242-4.4702257.94180895-1.3939793 2.02347803-2.7049667 3.21493522-3.89642209 1.19145721-1.19145541 2.50244651-2.27312287 3.89642791-3.2149304 1.4070014-.95045952 2.9110229-1.76685511 4.4702325-2.42633878 3.2437472-1.37197132 6.6905226-2.06765897 10.2443982-2.06765897"/><path d="m48.7852662 16.4379843c.0995856.7384206.1558477 1.5306826.1558477 2.3841319 0 2.3520774-.4406641 4.9971524-1.7637418 8.304936l-7.0819299 20.4761876c6.8936104-4.0189914 11.5295578-11.4874236 11.5295578-20.0416163 0-4.0313457-1.0302476-7.8212814-2.8397338-11.1236392zm-19.9404085 13.1518333-6.9581366 20.2154114c2.078025.6113715 4.2749183.944771 6.5507789.944771 2.7001637 0 5.2905578-.4660414 7.7004791-1.3146491-.0620219-.0991684-.1192022-.2045139-.1663655-.3195426zm15.2461122-3.1975965c0-2.8665344-1.0296633-4.8505702-1.9114925-6.3946088-1.175494-1.9109116-2.2777805-3.5275736-2.2777805-5.4384017 0-2.1311189 1.6161582-4.1151547 3.8938552-4.1151547.1029246 0 .2003399.0123544.3002593.0186985-4.1254146-3.77991877-9.6217381-6.0877544-15.6583114-6.0877544-8.1011588 0-15.2275808 4.15664178-19.37378073 10.45083.54442352.0172794 1.05737703.0281311 1.49228143.0281311 2.4247798 0 6.1800666-.2947505 6.1800666-.2947505 1.2492859-.0732076 1.396953 1.7631607.1482515 1.9108281 0 0-1.2565482.1471666-2.6535846.2202908l8.4434895 25.116317 5.0750255-15.2183425-3.6123778-9.8979745c-1.2492858-.0731242-2.4319587-.2202908-2.4319587-.2202908-1.2499536-.0737919-1.1035386-1.9840357.1470829-1.9108281 0 0 3.8284108.2947505 6.1066922.2947505 2.4247798 0 6.180651-.2947505 6.180651-.2947505 1.2499536-.0732076 1.3970365 1.7631607.1477506 1.9108281 0 0-1.2578003.1471666-2.6536681.2202908l8.3797146 24.9249921 2.3920577-7.579621c1.0627194-3.3125418 1.6857763-5.6594437 1.6857763-7.6434795zm-38.8409699 1.1694024c0 9.1776681 5.3332135 17.1097209 13.0688355 20.8678527l-11.06101293-30.3042935c-1.28659915 2.8834798-2.00782257 6.0747322-2.00782257 9.4364408z"/></g></g></svg>