<svg height="1800" viewBox="0 0 2880 1800" width="2880" xmlns="http://www.w3.org/2000/svg"><g fill="none"><path d="m0 0h2880v1800h-2880z" fill="#50b8b8"/><g fill="#fff"><path d="m1307.28227 1199.35916-6.00355-16.96847h-32.74665l-6.00055 16.96847h-8.53152l27.58875-75.04124h6.73825l27.48679 75.04124zm-22.21494-63.55034-14.11224 39.62761h28.00857zm97.82011 25.18783c0 2.59922-.01699 5.339-.05098 8.21936-.03313 2.84123-.26208 5.67679-.68522 8.48648-.41008 2.72603-1.13359 5.39549-2.15612 7.95524-1.02165 2.52869-2.54469 4.82394-4.47717 6.74717-2.33005 2.29984-5.13446 4.06181-8.21665 5.16242-3.44442 1.23236-7.08105 1.83917-10.73862 1.79184h-25.69203v-75.04124h25.69203c3.6574-.04514 7.29365.5616 10.73862 1.79184 3.08253 1.10206 5.88694 2.86558 8.21665 5.16693 1.88695 1.85784 3.40601 4.05594 4.47717 6.47854 1.01607 2.36215 1.74013 4.83964 2.15612 7.37747.42437 2.61403.65341 5.25609.68522 7.90421.03499 2.70627.05248 5.35952.05248 7.95974zm-8.00373 0c0-2.31809-.0175-4.61917-.05248-6.90324-.02785-2.18553-.18607-4.36743-.47381-6.53407-.26224-2.00021-.75534-3.96324-1.4694-5.84975-.66256-1.75997-1.66528-3.37194-2.9508-4.74373-1.82744-1.94654-4.10557-3.41286-6.63329-4.2695-2.62168-.83102-5.35886-1.23881-8.1087-1.20807h-16.32384v60.70501h16.32384c2.75008.02931 5.48728-.38001 8.1087-1.21257 2.52855-.85491 4.80709-2.32148 6.63329-4.26951 1.32679-1.44106 2.33214-3.14812 2.9493-5.00785.7187-2.08365 1.21182-4.2385 1.4709-6.42752.28612-2.36081.44428-4.7354.47381-7.11334.03498-2.46115.05248-4.84977.05248-7.16586zm48.33429 38.36251h-6.52534l-24.64395-75.04124h8.42656l19.47706 60.70951 19.48155-60.70951h8.42357zm44.96216 0v-75.04124h8.00074v75.04124zm81.08394-20.6557c.04709 3.06787-.58209 6.10841-1.84275 8.90519-1.21047 2.61067-3.01369 4.90214-5.26586 6.69164-2.44582 1.91355-5.23262 3.34458-8.21215 4.21698-3.43489 1.01409-7.00169 1.50977-10.58268 1.47069-4.91038.12055-9.80096-.66491-14.42712-2.31709-4.24932-1.70563-8.08992-4.29197-11.2694-7.58906l5.47726-5.47758c2.63287 2.78353 5.82732 4.97454 9.37118 6.42752 3.54771 1.26047 7.29415 1.86755 11.05799 1.79184 5.47277 0 9.79001-1.21156 12.95172-3.6347 3.16669-2.4418 4.936-6.2824 4.73507-10.27833.02281-1.83007-.27926-3.64966-.89214-5.37402-.54735-1.5392-1.47108-2.91673-2.6869-4.00689-1.08745-.9881-2.35579-1.7561-3.73498-2.26156-1.97799-.60984-4.00384-1.05161-6.05603-1.32062l-8.74143-1.36714c-5.96457-.98446-10.5627-2.88135-13.79438-5.69067-3.79045-3.37559-5.68618-8.04878-5.68718-14.01959-.03579-2.98314.53824-5.9421 1.68681-8.69508 1.07213-2.56321 2.70988-4.85038 4.79055-6.69014 2.20603-1.90432 4.76521-3.3551 7.53143-4.26951 3.22553-1.06246 6.60558-1.57879 10.00092-1.52771 4.19074-.09641 8.3646.56291 12.32198 1.94641 3.68953 1.45993 7.0795 3.58625 10.00092 6.27295l-5.1579 5.16692c-2.1891-2.02925-4.7209-3.65322-7.47745-4.79625-3.19786-1.18261-6.59329-1.73797-10.00092-1.63577-5.05494 0-8.95135 1.2646-11.68924 3.79378-2.77605 2.6137-4.27657 6.30827-4.10982 10.11926-.22305 3.24079 1.01461 6.41144 3.37363 8.64255 1.34717 1.0746 2.85637 1.92814 4.47117 2.52869 1.82223.71256 3.71076 1.24191 5.6377 1.58024l8.21215 1.2651c1.75529.28013 3.31815.57927 4.68859.89742 1.23711.27408 2.45122.64335 3.63152 1.10452 1.00086.39766 1.96852.87438 2.89382 1.42567.88318.53141 1.71185 1.14868 2.47399 1.84286 4.21428 3.58169 6.32092 8.53551 6.31993 14.86148zm71.39038-16.86492c0 4.00588-.03448 7.50103-.10345 10.48543-.03863 2.68763-.30244 5.36728-.78868 8.01076-.40969 2.21118-1.11789 4.35633-2.10514 6.37649-1.04901 2.03313-2.41795 3.88413-4.05435 5.48208-2.46451 2.48721-5.39948 4.45799-8.63348 5.79722-3.34444 1.35516-6.92376 2.03452-10.53171 1.99894-7.19086.16194-14.12849-2.65976-19.16818-7.79616-1.63721-1.59689-3.00581-3.44811-4.05285-5.48208-.98721-2.01965-1.69541-4.1643-2.10514-6.37499-.48641-2.64447-.75022-5.32513-.78868-8.01376-.06997-2.9814-.10495-6.47605-.10495-10.48393 0-4.00588.03498-7.50102.10495-10.48542.03877-2.68812.30259-5.36826.78868-8.01226.41113-2.21033 1.11927-4.35479 2.10514-6.375 1.0488-2.03192 2.41779-3.88147 4.05435-5.47757 10.66508-10.39918 27.66679-10.39918 38.33187 0 1.63523 1.59727 3.00404 3.44659 4.05435 5.47757.9858 2.02023 1.69394 4.16469 2.10514 6.375.48609 2.644.74991 5.32414.78868 8.01226.06997 2.9874.10495 6.48254.10495 10.48542zm-7.99922 0c0-3.93184-.05349-7.2514-.16045-9.95867-.06406-2.31427-.29154-4.6211-.68072-6.90325-.28908-1.70255-.82237-3.35437-1.58336-4.9043-.74116-1.42196-1.69984-2.71922-2.84134-3.84481-1.6518-1.71001-3.64261-3.05542-5.84461-3.94985-4.54815-1.89889-9.66606-1.89889-14.21421 0-2.20313.89315-4.19468 2.23871-5.84611 3.94985-1.14283 1.12444-2.10168 2.42192-2.84135 3.84481-.76098 1.54993-1.29427 3.20175-1.58335 4.9043-.38926 2.28214-.61674 4.58898-.68072 6.90325-.10796 2.70627-.16144 6.02583-.16045 9.95867 0 3.93685.05349 7.25641.16045 9.95868.06429 2.31524.29177 4.62306.68072 6.90624.28905 1.70112.82235 3.35146 1.58335 4.8998.73962 1.42337 1.69847 2.72136 2.84135 3.84631 1.65073 1.71239 3.64174 3.05946 5.84461 3.95436 4.54925 1.89339 9.66496 1.89339 14.21421 0 2.20279-.89585 4.19411-2.24279 5.84611-3.95436 1.14157-1.12609 2.10025-2.42386 2.84134-3.84631.761-1.54834 1.29431-3.19868 1.58336-4.8998.38888-2.28319.61635-4.591.68072-6.90624.10796-2.70227.16143-6.02183.16045-9.95868zm71.92116 37.52062-17.06155-33.30364h-18.00615v33.30364h-8.00074v-75.04124h28.74628c3.04153-.03012 6.06648.45183 8.94835 1.42567 2.60775.87218 5.00921 2.27009 7.05612 4.10743 1.99381 1.83089 3.55809 4.08071 4.58063 6.58809 1.12428 2.77752 1.68003 5.75266 1.63434 8.74911.20504 4.88485-1.40853 9.67204-4.52816 13.43431-3.06096 3.50415-7.21977 5.86448-11.79569 6.69465l17.79924 34.04198zm-.10796-54.06739c0-4.63518-1.38543-8.0953-4.1563-10.38037-3.07979-2.38495-6.90555-3.59803-10.7956-3.42311h-20.00784v27.50492h20.00784c3.88172.17537 7.70196-1.01738 10.7956-3.37059 2.77286-2.24905 4.1583-5.69267 4.1563-10.33085zm74.12977 33.41169c.04814 3.06765-.58002 6.1082-1.83975 8.90519-1.2109 2.61083-3.01464 4.90231-5.26735 6.69164-2.44538 1.91338-5.23165 3.34441-8.21065 4.21698-3.43585 1.01441-7.00368 1.51009-10.58569 1.47069-4.90937.12018-9.7989-.66528-14.42411-2.31709-4.24982-1.70553-8.09093-4.29187-11.27091-7.58906l5.47727-5.47758c2.63293 2.78346 5.82736 4.97446 9.37118 6.42752 3.54818 1.26065 7.29514 1.86773 11.05949 1.79184 5.47277 0 9.79001-1.21156 12.95172-3.6347 3.16669-2.4418 4.93599-6.2824 4.73507-10.27833.02274-1.83007-.27932-3.64965-.89214-5.37402-.54747-1.53915-1.47118-2.91664-2.68691-4.00689-1.08742-.98813-2.35577-1.75613-3.73497-2.26156-1.97799-.60986-4.00384-1.05163-6.05603-1.32062l-8.74144-1.36714c-5.96557-.98446-10.56369-2.88135-13.79437-5.69067-3.79046-3.37559-5.68618-8.04878-5.68718-14.01959-.03627-2.98303.53725-5.94199 1.68531-8.69508 1.07261-2.56333 2.71087-4.8505 4.79204-6.69014 2.20559-1.90415 4.76425-3.35492 7.52993-4.26951 3.22554-1.06246 6.60559-1.57879 10.00093-1.52771 4.19073-.09637 8.36459.56294 12.32197 1.94641 3.68954 1.45993 7.07951 3.58625 10.00092 6.27295l-5.15789 5.16692c-2.18914-2.0292-4.72093-3.65317-7.47745-4.79625-3.19785-1.18264-6.59329-1.73801-10.00093-1.63577-5.05493 0-8.95135 1.2646-11.68923 3.79378-2.77551 2.61397-4.27546 6.30851-4.10832 10.11926-.22365 3.24059 1.01348 6.41128 3.37212 8.64255 1.34716 1.07463 2.85637 1.92816 4.47118 2.52869 1.82222.71257 3.71076 1.24193 5.6377 1.58024l8.21215 1.2651c1.75528.28013 3.31815.57927 4.68859.89742 1.23711.27406 2.45122.64333 3.63152 1.10452 1.00087.39763 1.96853.87436 2.89382 1.42567.88315.53145 1.71182 1.14872 2.47399 1.84286 4.21428 3.58169 6.32099 8.53551 6.31992 14.86148zm471.40177-572.70346h-27.76868l-539.63444 183.007947h39.29448l407.60728-135.290037-246.76487 135.290037h39.29297z"/><path d="m1798.544 600h-30.461l-106.083 189h39.388l80.876-148.163 80.349 148.163h39.387z"/><path d="m75.880207 191.034553c-36.7058215 0-52.9593273-12.608737-52.9593273-39.403432 0-27.319433 16.7772316-40.979149 51.9103752-40.979149h63.4473481v26.268454c0 18.914609-3.670582 31.523347-11.535472 38.878695-14.158603 13.659716-31.9862875 15.235432-50.862924 15.235432zm4.7195343-190.70978704c-33.0352394 0-55.0587322 7.35534752-72.3611902 31.52184394v.5262412l16.2550065 14.1844539v-.5262412c12.5844243-18.3883688 27.2667529-25.7437163 56.1061837-25.7437163 41.4238547 0 57.1551357 17.3373901 57.6788617 49.9102128v22.5907801h-66.0674775c-44.5692109 0-71.83596379 21.5413046-71.83596379 59.3675176 0 15.235433 5.76698577 30.470865 15.20605429 40.452908 13.1081501 13.659716 30.4121087 18.91461 60.8242174 18.91461 28.3172056 0 44.5707116-5.254894 61.8746696-22.592284v19.964085h22.547219v-141.3228082c-.525226-43.0796028-26.217801-67.24760284-80.2260801-67.24760284zm251.6914877 2.62669503v127.66609901c0 38.350951-20.974541 60.941731-57.680362 60.941731-36.705822 0-56.106184-21.539802-56.106184-60.943234v-127.66459601h-22.547219v131.34377301c0 24.166496 7.866391 44.129078 21.499768 57.264057 13.10815 12.608737 31.46106 19.439347 54.533505 19.439347 24.643623 0 44.569211-8.931064 59.775266-26.268454v23.641759h22.548719v-205.42048201zm145.246106 100.34666701 66.594204-100.34666701h-27.266752l-50.862924 81.95829791-51.38665-81.95829791h-27.266752l66.592703 100.34666701-69.73956 105.073815h27.266753l54.533506-85.635971 54.008279 85.635971h27.266753zm219.706701 7.355347v26.266951c0 18.914609-3.670582 31.523347-11.536973 38.878695-14.157102 14.184453-31.984786 15.76017-50.861423 15.76017-36.705821 0-52.960828-12.608738-52.960828-39.401929 0-27.319433 16.778733-40.979149 51.911876-40.979149h63.447348zm-57.155136-110.32870904c-33.035239 0-55.058732 7.35534752-72.36119 31.52184394v.5262412l16.255007 14.1844539v-.5262412c12.584424-18.3883688 27.266753-25.7422127 56.106183-25.7422127 41.423855 0 57.678862 17.3358865 57.678862 49.9102127v22.5907802h-66.068978c-44.569211 0-71.835964 22.064539-71.835964 59.366014 0 15.235433 5.766986 30.472369 15.204554 40.454412 13.109651 13.658212 30.413609 18.913106 60.825718 18.913106 28.317206 0 44.570711-5.254894 61.87467-22.59078v19.964085h22.547219v-141.3243122c-.525227-43.0796028-26.217801-67.24760284-80.226081-67.24760284zm258.507426 19.43934754c-13.10815-12.60873761-31.461061-19.43934754-54.533506-19.43934754-24.645123 0-44.569211 8.93106383-59.776766 26.26845394v-23.64175891h-22.547218v205.94672301h22.547218v-127.6660989c0-38.3524539 20.974541-60.943234 57.678862-60.943234 36.180595 0 56.106184 21.5398014 56.106184 60.943234v127.6660989h22.548719v-131.3452762c-.525227-24.6927376-8.390117-44.6568227-22.023493-57.7902979zm134.759584 171.7963655c-15.89324.098971-31.17375-6.137987-42.472805-17.337075-16.778732-16.812652-18.352911-44.656822-18.352911-68.298581 0-23.6417592 1.048952-51.4874329 18.352911-68.2985819 11.242545-11.2845846 26.560365-17.5367753 42.472805-17.3358865 15.89321-.0999938 31.17366 6.1369397 42.47281 17.3358865 16.77873 16.811149 18.35291 44.6553192 18.35291 68.2985819 0 23.643262-1.04895 51.485929-18.35291 68.297078-11.51224 10.871396-26.65563 17.052925-42.47281 17.338578zm57.15514-168.6449329c-14.68233-14.71069504-34.08269-22.59078014-57.15514-22.59078014-23.07244 0-42.472805 7.8800851-57.155134 22.59078014-22.021992 22.0660426-25.692574 53.5878865-25.692574 83.0092769 0 29.42139 3.670582 60.94173 25.692574 83.007773 14.682329 14.710695 34.084194 22.59078 57.155134 22.59078 23.07095 0 42.47281-7.880085 57.15514-22.59078 22.02349-21.539802 25.69407-53.586383 25.69407-83.007773 0-29.4213904-3.67058-61.4694755-25.69407-83.0092769zm31.3305 5.5721418c-.02255-2.5774949.49374-5.1311694 1.51566-7.4966808.97198-2.253587 2.37147-4.2966275 4.12077-6.015688 1.74964-1.7093196 3.80887-3.0682885 6.06712-4.0039432 7.07598-2.96021008 15.23356-1.38242099 20.70142 4.0039432 1.73564 1.7247697 3.12529 3.7668292 4.09376 6.015688 1.02192 2.3655114 1.53821 4.9191859 1.51566 7.4966808.02738 2.6187627-.48876 5.2146454-1.51566 7.6229788-.96781 2.2643227-2.35714 4.3232682-4.09376 6.0668085-1.72246 1.7194934-3.76764 3.0803027-6.01759 4.0039432-4.71031 1.9032653-9.97353 1.9032653-14.68383 0-2.26489-.9230597-4.3264-2.2835401-6.06712-4.0039432-1.74978-1.7379743-3.14844-3.7978938-4.11927-6.0668085-1.02742-2.4082231-1.54406-5.00411-1.51716-7.6229788zm3.43648 0c-.02224 2.222818.38122 4.4292831 1.18852 6.4998298.74986 1.9228684 1.86609 3.6811271 3.28641 5.1767093 2.91191 3.0355306 6.94485 4.7327695 11.14681 4.6910638 2.10426.0180112 4.18877-.4076883 6.11813-1.2494468 1.85379-.8099051 3.52883-1.9801957 4.92813-3.4431206 1.42016-1.4951377 2.53638-3.2528719 3.28642-5.1752057.80737-2.0705262 1.21083-4.2770054 1.18851-6.4998298.01804-2.1819373-.38555-4.3467527-1.18851-6.3750354-.75071-1.9068128-1.86724-3.6476709-3.28642-5.1240851-1.40509-1.4492699-3.07912-2.6096716-4.92813-3.4160568-1.92949-.8411562-4.01398-1.2663387-6.11813-1.2479432-4.19537-.0356434-8.22276 1.6494779-11.14681 4.664-1.41918 1.4764142-2.53571 3.2172723-3.28641 5.1240851-.80242 2.0283953-1.2055 4.1932-1.18702 6.3750354zm8.24156-11.0660992h8.54318c2.06961-.1624243 4.1317.3963188 5.83751 1.5817304 1.3352 1.2198933 2.03493 2.9881362 1.89682 4.793305.14173 1.6476932-.47235 3.2705068-1.66872 4.4099007-1.18073.9626887-2.62692 1.5408139-4.14478 1.6569078l6.31922 9.8422128h-3.69159l-6.01459-9.5866099h-3.63907v9.5866099h-3.43798zm3.43648 9.8933333h3.58954c.77534 0 1.50865-.0255603 2.19995-.0766809.63546-.0375255 1.25977-.1839898 1.8458-.4330212.52898-.2294143.97775-.6115295 1.28905-1.0975887.35394-.6279037.52061-1.3443824.48021-2.0643688.0312-.6240664-.11837-1.2438593-.43068-1.7847092-.27478-.431285-.65769-.7827889-1.11048-1.0194043-.49146-.2498081-1.02175-.4140323-1.56818-.4856454-.5775-.0836723-1.16024-.1258792-1.74375-.1262978h-4.54996z" transform="translate(649 856)"/></g></g></svg>