<svg xmlns="http://www.w3.org/2000/svg" width="1181" height="710" viewBox="0 0 1181 710">
  <g fill="none" fill-rule="evenodd">
    <path fill="#202020" d="m0 0h1181v710h-1181z"/>
    <g fill-rule="nonzero">
      <g transform="translate(377 32)">
        <path fill="#565656" d="m38.08 56.51 12.75-48.79-21.59-7.65-24.99 45.9zm42.84 0-33.66-10.54 24.99-45.9 21.42 7.65z"/>
        <path fill="#fff" d="m6.12 100h3.81l4.35-15.63 4.23 15.63h3.99l5.37-21.45h-3.72l-3.84 15.84-4.26-15.84h-3.3l-4.17 15.75-3.72-15.75h-4.08zm30.24.3c4.02 0 6.69-1.8 7.2-5.1h-3.51c-.27 1.53-1.41 2.4-3.6 2.4-2.7 0-4.2-1.68-4.32-4.65h11.49v-1.05c0-5.61-3.51-7.92-7.41-7.92-4.47 0-7.8 3.24-7.8 8.1v.24c0 4.95 3.33 7.98 7.95 7.98zm-4.17-9.78c.36-2.43 1.83-3.9 4.02-3.9 2.25 0 3.63 1.2 3.81 3.9zm25.92 9.78c2.4 0 3.78-.87 4.8-2.22v1.92h3.57v-10.29c0-4.29-2.76-5.73-6.27-5.73s-6.42 1.53-6.72 5.19h3.51c.18-1.56 1.11-2.46 3-2.46 2.13 0 2.85 1.05 2.85 3.15v.81h-1.95c-4.5 0-8.04 1.32-8.04 4.98 0 3.27 2.37 4.65 5.25 4.65zm.87-2.61c-1.8 0-2.52-.87-2.52-2.19 0-1.86 1.6611035-2.509365 4.2741742-2.548134l2.1158258-.001866v1.56c0 2.01-1.65 3.18-3.87 3.18zm11.67 2.31h3.63v-8.16c0-3.33 1.92-4.35 5.1-4.38v-3.39c-2.64.03-4.11 1.2-5.1 3.18v-2.94h-3.63zm18.51.3c4.02 0 6.69-1.8 7.2-5.1h-3.51c-.27 1.53-1.41 2.4-3.6 2.4-2.7 0-4.2-1.68-4.32-4.65h11.49v-1.05c0-5.61-3.51-7.92-7.41-7.92-4.3856604 0-7.6739338 3.118889-7.7964583 7.826647l-.0035417.513353c0 4.95 3.33 7.98 7.95 7.98zm-4.17-9.78c.36-2.43 1.83-3.9 4.02-3.9 2.25 0 3.63 1.2 3.81 3.9zm21.81 14.85h3.63v-7.83c.84 1.53 2.64 2.76 5.13 2.76 4.05 0 6.96-3.06 6.96-8.1v-.24c0-5.07-3.03-7.98-6.96-7.98-2.31 0-4.26 1.35-5.13 2.85v-2.52h-3.63zm7.86-7.95c-2.568649 0-4.256888-1.562016-4.346268-4.879477l-.003732-.520523c0-3.48 1.8-5.19 4.32-5.19 2.37 0 4.17 1.71 4.17 5.19v.24c0 3.36-1.47 5.16-4.14 5.16zm11.22 2.58h3.63v-22.95h-3.63zm12.15.3c2.4 0 3.78-.87 4.8-2.22v1.92h3.57v-10.29c0-4.29-2.76-5.73-6.27-5.73s-6.42 1.53-6.72 5.19h3.51c.18-1.56 1.11-2.46 3-2.46 2.13 0 2.85 1.05 2.85 3.15v.81h-1.95c-4.5 0-8.04 1.32-8.04 4.98 0 3.27 2.37 4.65 5.25 4.65zm.87-2.61c-1.8 0-2.52-.87-2.52-2.19 0-1.86 1.661104-2.509365 4.274174-2.548134l2.115826-.001866v1.56c0 2.01-1.65 3.18-3.87 3.18zm17.01 2.58c1.11 0 1.89-.18 2.46-.39v-2.88c-.51.21-1.05.3-1.77.3-1.14 0-1.8-.63-1.8-2.01v-8.25h3.45v-2.73h-3.45v-3.45h-3.63v3.45h-2.1v2.73h2.1v8.58c0 2.97 1.62 4.65 4.74 4.65zm6.21-.27h3.63v-12.96h3.57v-2.73h-3.57v-2.25c0-1.35.6-2.31 2.07-2.31.66 0 1.23.12 1.65.27v-2.82c-.66-.21-1.2-.3-2.07-.3-3.36 0-5.28 1.86-5.28 5.31v2.1h-2.13v2.73h2.13zm16.65-2.52c-2.76 0-4.35-2.01-4.35-5.22v-.24c0-3.24 1.65-5.19 4.35-5.19 2.627027 0 4.231644 1.874419 4.316461 4.960073l.003539.469927c0 3.21-1.62 5.22-4.32 5.22zm-.03 2.82c4.534444 0 7.941821-3.063313 8.066465-7.800102l.003535-.509898c0-4.8-3.45-8.01-8.04-8.01-4.62 0-8.07 3.24-8.07 8.1v.24c0 4.77 3.42 7.98 8.04 7.98zm11.34-.3h3.63v-8.16c0-3.33 1.92-4.35 5.1-4.38v-3.39c-2.64.03-4.11 1.2-5.1 3.18v-2.94h-3.63zm11.91 0h3.63v-9.39c0-2.4 1.65-3.6 3.45-3.6 1.77 0 2.79.99 2.79 3.3v9.69h3.63v-9.39c0-2.4 1.65-3.6 3.45-3.6s2.79.99 2.79 3.3v9.69h3.63v-9.93c0-4.32-2.34-6.09-5.22-6.09-1.95 0-4.11.87-5.31 2.82-.78-1.95-2.4-2.82-4.44-2.82-2.31 0-4.02 1.26-4.77 2.73v-2.4h-3.63zm27.06-6.87h7.2v-3h-7.2zm11.16 6.87h3.63v-22.95h-3.63zm14.94.3c4.02 0 6.69-1.8 7.2-5.1h-3.51c-.27 1.53-1.41 2.4-3.6 2.4-2.7 0-4.2-1.68-4.32-4.65h11.49v-1.05c0-5.61-3.51-7.92-7.41-7.92-4.47 0-7.8 3.24-7.8 8.1v.24c0 4.95 3.33 7.98 7.95 7.98zm-4.17-9.78c.36-2.43 1.83-3.9 4.02-3.9 2.25 0 3.63 1.2 3.81 3.9zm20.55 9.78c2.31 0 4.32-1.38 5.16-2.94v2.64h3.63v-22.95h-3.63v9.66c-.87-1.56-2.46-2.73-5.01-2.73-4.08 0-7.05 3.18-7.05 8.19v.24c0 5.1 2.97 7.89 6.9 7.89zm.9-2.88c-2.34 0-4.08-1.65-4.08-5.1v-.24c0-3.39 1.56-5.25 4.23-5.25 2.566667 0 4.140856 1.616319 4.226331 4.876527l.003669.523473c0 3.51-1.86 5.19-4.38 5.19zm13.14 6.27 3.93-6.72-3.45-1.38-2.73 7.11zm20.34-3.39c4.02 0 6.27-1.83 6.27-5.01 0-3.33-2.19-4.23-5.88-4.8l-.49067-.087541c-2.099211-.39781-2.74933-.86108-2.74933-1.922459 0-1.11.93-1.86 2.49-1.86 1.68 0 2.49.66 2.79 2.1h3.36c-.39-3.54-2.94-4.74-6.15-4.74-2.94 0-5.88 1.56-5.88 4.71 0 2.8 1.387755 3.994558 5.09621 4.672109l.57379.097891c2.31.39 3.36.87 3.36 2.16 0 1.32-.87 2.01-2.82 2.01-2.13 0-2.94-.93-3.12-2.52h-3.42c.15 3.33 2.52 5.19 6.57 5.19zm16.47-2.82c-2.76 0-4.35-2.01-4.35-5.22v-.24c0-3.24 1.65-5.19 4.35-5.19 2.627027 0 4.231644 1.874419 4.316461 4.960073l.003539.469927c0 3.21-1.62 5.22-4.32 5.22zm-.03 2.82c4.534444 0 7.941821-3.063313 8.066465-7.800102l.003535-.509898c0-4.8-3.45-8.01-8.04-8.01-4.62 0-8.07 3.24-8.07 8.1v.24c0 4.77 3.42 7.98 8.04 7.98zm21.72-.3h3.72l3.18-10.56 2.91 10.56h3.69l4.92-15.69h-3.54l-3.27 11.34-3.06-11.34h-3.03l-3.33 11.34-3.12-11.34h-3.87zm27.63.3c4.02 0 6.69-1.8 7.2-5.1h-3.51c-.27 1.53-1.41 2.4-3.6 2.4-2.7 0-4.2-1.68-4.32-4.65h11.49v-1.05c0-5.61-3.51-7.92-7.41-7.92-4.47 0-7.8 3.24-7.8 8.1v.24c0 4.95 3.33 7.98 7.95 7.98zm-4.17-9.78c.36-2.43 1.83-3.9 4.02-3.9 2.25 0 3.63 1.2 3.81 3.9zm28.71 9.78c4.02 0 6.69-1.8 7.2-5.1h-3.51c-.27 1.53-1.41 2.4-3.6 2.4-2.7 0-4.2-1.68-4.32-4.65h11.49v-1.05c0-5.61-3.51-7.92-7.41-7.92-4.47 0-7.8 3.24-7.8 8.1v.24c0 4.95 3.33 7.98 7.95 7.98zm-4.17-9.78c.36-2.43 1.83-3.9 4.02-3.9 2.25 0 3.63 1.2 3.81 3.9zm14.67 9.48h3.63v-9.39c0-2.4 1.65-3.6 3.45-3.6 1.77 0 2.79.99 2.79 3.3v9.69h3.63v-9.39c0-2.4 1.65-3.6 3.45-3.6s2.79.99 2.79 3.3v9.69h3.63v-9.93c0-4.32-2.34-6.09-5.22-6.09-1.95 0-4.11.87-5.31 2.82-.78-1.95-2.4-2.82-4.44-2.82-2.31 0-4.02 1.26-4.77 2.73v-2.4h-3.63zm27.54 5.37h3.63v-7.83c.84 1.53 2.64 2.76 5.13 2.76 3.970588 0 6.845444-2.941176 6.956657-7.805821l.003343-.534179c0-5.07-3.03-7.98-6.96-7.98-2.31 0-4.26 1.35-5.13 2.85v-2.52h-3.63zm7.86-7.95c-2.64 0-4.35-1.65-4.35-5.16v-.24c0-3.48 1.8-5.19 4.32-5.19 2.37 0 4.17 1.71 4.17 5.19v.24c0 3.36-1.47 5.16-4.14 5.16zm18.15.06c-2.76 0-4.35-2.01-4.35-5.22v-.24c0-3.24 1.65-5.19 4.35-5.19 2.627027 0 4.231644 1.874419 4.316461 4.960073l.003539.469927c0 3.21-1.62 5.22-4.32 5.22zm-.03 2.82c4.534444 0 7.941821-3.063313 8.066465-7.800102l.003535-.509898c0-4.8-3.45-8.01-8.04-8.01-4.62 0-8.07 3.24-8.07 8.1v.24c0 4.77 3.42 7.98 8.04 7.98zm14.13-.3h3.72l3.18-10.56 2.91 10.56h3.69l4.92-15.69h-3.54l-3.27 11.34-3.06-11.34h-3.03l-3.33 11.34-3.12-11.34h-3.87zm27.63.3c4.02 0 6.69-1.8 7.2-5.1h-3.51c-.27 1.53-1.41 2.4-3.6 2.4-2.7 0-4.2-1.68-4.32-4.65h11.49v-1.05c0-5.61-3.51-7.92-7.41-7.92-4.47 0-7.8 3.24-7.8 8.1v.24c0 4.95 3.33 7.98 7.95 7.98zm-4.17-9.78c.36-2.43 1.83-3.9 4.02-3.9 2.25 0 3.63 1.2 3.81 3.9zm14.67 9.48h3.63v-8.16c0-3.33 1.92-4.35 5.1-4.38v-3.39c-2.64.03-4.11 1.2-5.1 3.18v-2.94h-3.63zm26.07-2.52c-2.76 0-4.35-2.01-4.35-5.22v-.24c0-3.24 1.65-5.19 4.35-5.19 2.627027 0 4.231644 1.874419 4.316461 4.960073l.003539.469927c0 3.21-1.62 5.22-4.32 5.22zm-.03 2.82c4.534444 0 7.941821-3.063313 8.066465-7.800102l.003535-.509898c0-4.8-3.45-8.01-8.04-8.01-4.62 0-8.07 3.24-8.07 8.1v.24c0 4.77 3.42 7.98 8.04 7.98zm16.59 0c2.55 0 4.2-1.23 4.98-2.76v2.46h3.63v-15.69h-3.63v9.33c0 2.49-1.71 3.75-3.66 3.75-2.1 0-3.09-1.08-3.09-3.45v-9.63h-3.63v10.05c0 4.17 2.31 5.94 5.4 5.94zm12.9-.3h3.63v-8.16c0-3.33 1.92-4.35 5.1-4.38v-3.39c-2.64.03-4.11 1.2-5.1 3.18v-2.94h-3.63zm25.92.3c4.26 0 6.99-2.55 7.26-6.15h-3.33c-.21 2.22-1.86 3.36-3.78 3.36-2.67 0-4.35-1.8-4.35-5.22v-.24c0-3.24 1.77-5.16 4.26-5.16 1.92 0 3.3.87 3.6 2.97h3.51c-.42-4.32-3.69-5.88-7.17-5.88-4.38 0-7.92 3.15-7.92 8.13v.24c0 5.01 3.42 7.95 7.92 7.95zm15.63 0c2.55 0 4.2-1.23 4.98-2.76v2.46h3.63v-15.69h-3.63v9.33c0 2.49-1.71 3.75-3.66 3.75-2.1 0-3.09-1.08-3.09-3.45v-9.63h-3.63v10.05c0 4.17 2.31 5.94 5.4 5.94zm18.27 0c4.02 0 6.27-1.83 6.27-5.01 0-3.33-2.19-4.23-5.88-4.8l-.49067-.087541c-2.099211-.39781-2.74933-.86108-2.74933-1.922459 0-1.11.93-1.86 2.49-1.86 1.68 0 2.49.66 2.79 2.1h3.36c-.39-3.54-2.94-4.74-6.15-4.74-2.94 0-5.88 1.56-5.88 4.71 0 2.8 1.387755 3.994558 5.09621 4.672109l.57379.097891c2.31.39 3.36.87 3.36 2.16 0 1.32-.87 2.01-2.82 2.01-2.13 0-2.94-.93-3.12-2.52h-3.42c.15 3.33 2.52 5.19 6.57 5.19zm14.79-.03c1.11 0 1.89-.18 2.46-.39v-2.88c-.51.21-1.05.3-1.77.3-1.14 0-1.8-.63-1.8-2.01v-8.25h3.45v-2.73h-3.45v-3.45h-3.63v3.45h-2.1v2.73h2.1v8.58c0 2.97 1.62 4.65 4.74 4.65zm12.75-2.79c-2.76 0-4.35-2.01-4.35-5.22v-.24c0-3.24 1.65-5.19 4.35-5.19 2.627027 0 4.231644 1.874419 4.316461 4.960073l.003539.469927c0 3.21-1.62 5.22-4.32 5.22zm-.03 2.82c4.534444 0 7.941821-3.063313 8.066465-7.800102l.003535-.509898c0-4.8-3.45-8.01-8.04-8.01-4.62 0-8.07 3.24-8.07 8.1v.24c0 4.77 3.42 7.98 8.04 7.98zm11.34-.3h3.63v-9.39c0-2.4 1.65-3.6 3.45-3.6 1.77 0 2.79.99 2.79 3.3v9.69h3.63v-9.39c0-2.4 1.65-3.6 3.45-3.6s2.79.99 2.79 3.3v9.69h3.63v-9.93c0-4.32-2.34-6.09-5.22-6.09-1.95 0-4.11.87-5.31 2.82-.78-1.95-2.4-2.82-4.44-2.82-2.31 0-4.02 1.26-4.77 2.73v-2.4h-3.63zm34.44.3c4.02 0 6.69-1.8 7.2-5.1h-3.51c-.27 1.53-1.41 2.4-3.6 2.4-2.7 0-4.2-1.68-4.32-4.65h11.49v-1.05c0-5.61-3.51-7.92-7.41-7.92-4.47 0-7.8 3.24-7.8 8.1v.24c0 4.95 3.33 7.98 7.95 7.98zm-4.17-9.78c.36-2.43 1.83-3.9 4.02-3.9 2.25 0 3.63 1.2 3.81 3.9zm14.67 9.48h3.63v-8.16c0-3.33 1.92-4.35 5.1-4.38v-3.39c-2.64.03-4.11 1.2-5.1 3.18v-2.94h-3.63zm17.28.3c4.02 0 6.27-1.83 6.27-5.01 0-3.33-2.19-4.23-5.88-4.8l-.49067-.087541c-2.099211-.39781-2.74933-.86108-2.74933-1.922459 0-1.11.93-1.86 2.49-1.86 1.68 0 2.49.66 2.79 2.1h3.36c-.39-3.54-2.94-4.74-6.15-4.74-2.94 0-5.88 1.56-5.88 4.71 0 2.8 1.387755 3.994558 5.09621 4.672109l.57379.097891c2.31.39 3.36.87 3.36 2.16 0 1.32-.87 2.01-2.82 2.01-2.13 0-2.94-.93-3.12-2.52h-3.42c.15 3.33 2.52 5.19 6.57 5.19zm21.93-.03c1.11 0 1.89-.18 2.46-.39v-2.88c-.51.21-1.05.3-1.77.3-1.14 0-1.8-.63-1.8-2.01v-8.25h3.45v-2.73h-3.45v-3.45h-3.63v3.45h-2.1v2.73h2.1v8.58c0 2.97 1.62 4.65 4.74 4.65zm12.75-2.79c-2.76 0-4.35-2.01-4.35-5.22v-.24c0-3.24 1.65-5.19 4.35-5.19 2.627027 0 4.231644 1.874419 4.316461 4.960073l.003539.469927c0 3.21-1.62 5.22-4.32 5.22zm-.03 2.82c4.534444 0 7.941821-3.063313 8.066465-7.800102l.003535-.509898c0-4.8-3.45-8.01-8.04-8.01-4.62 0-8.07 3.24-8.07 8.1v.24c0 4.77 3.42 7.98 8.04 7.98zm-760.8 35.7h3.63v-12.96h3.57v-2.73h-3.57v-2.25c0-1.35.6-2.31 2.07-2.31.66 0 1.23.12 1.65.27v-2.82c-.66-.21-1.2-.3-2.07-.3-3.36 0-5.28 1.86-5.28 5.31v2.1h-2.13v2.73h2.13zm16.53.3c4.02 0 6.69-1.8 7.2-5.1h-3.51c-.27 1.53-1.41 2.4-3.6 2.4-2.7 0-4.2-1.68-4.32-4.65h11.49v-1.05c0-5.61-3.51-7.92-7.41-7.92-4.47 0-7.8 3.24-7.8 8.1v.24c0 4.95 3.33 7.98 7.95 7.98zm-4.17-9.78c.36-2.43 1.83-3.9 4.02-3.9 2.25 0 3.63 1.2 3.81 3.9zm21.57 9.78c4.02 0 6.69-1.8 7.2-5.1h-3.51c-.27 1.53-1.41 2.4-3.6 2.4-2.7 0-4.2-1.68-4.32-4.65h11.49v-1.05c0-5.61-3.51-7.92-7.41-7.92-4.47 0-7.8 3.24-7.8 8.1v.24c0 4.95 3.33 7.98 7.95 7.98zm-4.17-9.78c.36-2.43 1.83-3.9 4.02-3.9 2.25 0 3.63 1.2 3.81 3.9zm14.76 9.48h3.63v-22.95h-3.63zm19.29.3c2.4 0 3.78-.87 4.8-2.22v1.92h3.57v-10.29c0-4.29-2.76-5.73-6.27-5.73s-6.42 1.53-6.72 5.19h3.51c.18-1.56 1.11-2.46 3-2.46 2.13 0 2.85 1.05 2.85 3.15v.81h-1.95c-4.5 0-8.04 1.32-8.04 4.98 0 3.27 2.37 4.65 5.25 4.65zm.87-2.61c-1.8 0-2.52-.87-2.52-2.19 0-1.86 1.6611035-2.509365 4.2741742-2.548134l2.1158258-.001866v1.56c0 2.01-1.65 3.18-3.87 3.18zm24.18 2.61c4.02 0 6.27-1.83 6.27-5.01 0-3.33-2.19-4.23-5.88-4.8l-.4906696-.087541c-2.0992115-.39781-2.7493304-.86108-2.7493304-1.922459 0-1.11.93-1.86 2.49-1.86 1.68 0 2.49.66 2.79 2.1h3.36c-.39-3.54-2.94-4.74-6.15-4.74-2.94 0-5.88 1.56-5.88 4.71 0 2.8 1.3877551 3.994558 5.0962099 4.672109l.5737901.097891c2.31.39 3.36.87 3.36 2.16 0 1.32-.87 2.01-2.82 2.01-2.13 0-2.94-.93-3.12-2.52h-3.42c.15 3.33 2.52 5.19 6.57 5.19zm16.35 0c4.02 0 6.69-1.8 7.2-5.1h-3.51c-.27 1.53-1.41 2.4-3.6 2.4-2.7 0-4.2-1.68-4.32-4.65h11.49v-1.05c0-5.61-3.51-7.92-7.41-7.92-4.38566 0-7.673934 3.118889-7.796458 7.826647l-.003542.513353c0 4.95 3.33 7.98 7.95 7.98zm-4.17-9.78c.36-2.43 1.83-3.9 4.02-3.9 2.25 0 3.63 1.2 3.81 3.9zm14.67 9.48h3.63v-9.24c0-2.49 1.65-3.75 3.69-3.75 2.16 0 3.12 1.08 3.12 3.45v9.54h3.63v-9.87c0-4.32-2.22-6.15-5.37-6.15-2.58 0-4.32 1.29-5.07 2.82v-2.49h-3.63zm23.61.3c4.02 0 6.27-1.83 6.27-5.01 0-3.33-2.19-4.23-5.88-4.8l-.49067-.087541c-2.099211-.39781-2.74933-.86108-2.74933-1.922459 0-1.11.93-1.86 2.49-1.86 1.68 0 2.49.66 2.79 2.1h3.36c-.39-3.54-2.94-4.74-6.15-4.74-2.94 0-5.88 1.56-5.88 4.71 0 2.8 1.387755 3.994558 5.09621 4.672109l.57379.097891c2.31.39 3.36.87 3.36 2.16 0 1.32-.87 2.01-2.82 2.01-2.13 0-2.94-.93-3.12-2.52h-3.42c.15 3.33 2.52 5.19 6.57 5.19zm16.35 0c4.02 0 6.69-1.8 7.2-5.1h-3.51c-.27 1.53-1.41 2.4-3.6 2.4-2.7 0-4.2-1.68-4.32-4.65h11.49v-1.05c0-5.61-3.51-7.92-7.41-7.92-4.38566 0-7.673934 3.118889-7.796458 7.826647l-.003542.513353c0 4.95 3.33 7.98 7.95 7.98zm-4.17-9.78c.36-2.43 1.83-3.9 4.02-3.9 2.25 0 3.63 1.2 3.81 3.9zm28.83 6.96c-2.76 0-4.35-2.01-4.35-5.22v-.24c0-3.24 1.65-5.19 4.35-5.19s4.32 1.98 4.32 5.22v.21c0 3.21-1.62 5.22-4.32 5.22zm-.03 2.82c4.534444 0 7.941821-3.063313 8.066465-7.800102l.003535-.509898c0-4.8-3.45-8.01-8.04-8.01-4.62 0-8.07 3.24-8.07 8.1v.24c0 4.77 3.42 7.98 8.04 7.98zm11.97-.3h3.63v-12.96h3.57v-2.73h-3.57v-2.25c0-1.35.6-2.31 2.07-2.31.66 0 1.23.12 1.65.27v-2.82c-.66-.21-1.2-.3-2.07-.3-3.36 0-5.28 1.86-5.28 5.31v2.1h-2.13v2.73h2.13zm17.37 5.37h3.63v-7.83c.84 1.53 2.64 2.76 5.13 2.76 3.970588 0 6.845444-2.941176 6.956657-7.805821l.003343-.534179c0-5.07-3.03-7.98-6.96-7.98-2.31 0-4.26 1.35-5.13 2.85v-2.52h-3.63zm7.86-7.95c-2.64 0-4.35-1.65-4.35-5.16v-.24c0-3.48 1.8-5.19 4.32-5.19 2.37 0 4.17 1.71 4.17 5.19v.24c0 3.36-1.47 5.16-4.14 5.16zm11.13 2.58h3.63v-8.16c0-3.33 1.92-4.35 5.1-4.38v-3.39c-2.64.03-4.11 1.2-5.1 3.18v-2.94h-3.63zm12 0h3.63v-15.69h-3.63zm1.77-18.27c1.2 0 2.16-.9 2.16-2.07 0-1.2-.96-2.1-2.16-2.1s-2.16.9-2.16 2.1c0 1.17.96 2.07 2.16 2.07zm12.15 18.57c2.31 0 4.32-1.38 5.16-2.94v2.64h3.63v-22.95h-3.63v9.66c-.87-1.56-2.46-2.73-5.01-2.73-4 0-6.933103 3.056517-7.046588 7.897415l-.003412.532585c0 5.1 2.97 7.89 6.9 7.89zm.9-2.88c-2.34 0-4.08-1.65-4.08-5.1v-.24c0-3.39 1.56-5.25 4.23-5.25 2.566667 0 4.140856 1.616319 4.226331 4.876527l.003669.523473c0 3.51-1.86 5.19-4.38 5.19zm19.11 2.88c4.02 0 6.69-1.8 7.2-5.1h-3.51c-.27 1.53-1.41 2.4-3.6 2.4-2.7 0-4.2-1.68-4.32-4.65h11.49v-1.05c0-5.61-3.51-7.92-7.41-7.92-4.47 0-7.8 3.24-7.8 8.1v.24c0 4.95 3.33 7.98 7.95 7.98zm-4.17-9.78c.36-2.43 1.83-3.9 4.02-3.9 2.25 0 3.63 1.2 3.81 3.9zm27.15 9.75c1.11 0 1.89-.18 2.46-.39v-2.88c-.51.21-1.05.3-1.77.3-1.14 0-1.8-.63-1.8-2.01v-8.25h3.45v-2.73h-3.45v-3.45h-3.63v3.45h-2.1v2.73h2.1v8.58c0 2.97 1.62 4.65 4.74 4.65zm5.73-.27h3.63v-9.24c0-2.49 1.65-3.75 3.69-3.75 2.16 0 3.12 1.08 3.12 3.45v9.54h3.63v-9.87c0-4.32-2.22-6.15-5.37-6.15-2.58 0-4.32 1.29-5.07 2.82v-9.75h-3.63zm18.24 0h3.63v-8.16c0-3.33 1.92-4.35 5.1-4.38v-3.39c-2.64.03-4.11 1.2-5.1 3.18v-2.94h-3.63zm18.63-2.52c-2.76 0-4.35-2.01-4.35-5.22v-.24c0-3.24 1.65-5.19 4.35-5.19 2.627027 0 4.231644 1.874419 4.316461 4.960073l.003539.469927c0 3.21-1.62 5.22-4.32 5.22zm-.03 2.82c4.534444 0 7.941821-3.063313 8.066465-7.800102l.003535-.509898c0-4.8-3.45-8.01-8.04-8.01-4.62 0-8.07 3.24-8.07 8.1v.24c0 4.77 3.42 7.98 8.04 7.98zm16.59 0c2.55 0 4.2-1.23 4.98-2.76v2.46h3.63v-15.69h-3.63v9.33c0 2.49-1.71 3.75-3.66 3.75-2.1 0-3.09-1.08-3.09-3.45v-9.63h-3.63v10.05c0 4.17 2.31 5.94 5.4 5.94zm19.59 5.46c4.86 0 7.95-2.31 7.98-6.93v-14.52h-3.63v2.4c-.9-1.56-2.46-2.73-5.04-2.73-4.05 0-7.05 3.3-7.05 7.71v.21c0 4.53 3.03 7.47 6.96 7.47 2.31 0 4.26-1.41 5.13-2.91v2.31c0 2.82-1.56 4.23-4.38 4.23-2.37 0-3.57-.9-3.87-2.46h-3.66c.42 3 2.64 5.22 7.56 5.22zm.12-9.18c-2.34 0-4.14-1.8-4.14-4.71v-.24c0-2.85 1.56-4.8 4.26-4.8 2.535429 0 4.13662 1.670302 4.226047 4.488381l.003953.461619c0 3-1.83 4.8-4.35 4.8zm12.18 3.42h3.63v-9.24c0-2.49 1.65-3.75 3.69-3.75 2.16 0 3.12 1.08 3.12 3.45v9.54h3.63v-9.87c0-4.32-2.22-6.15-5.37-6.15-2.58 0-4.32 1.29-5.07 2.82v-9.75h-3.63zm32.28.3c4.02 0 6.69-1.8 7.2-5.1h-3.51c-.27 1.53-1.41 2.4-3.6 2.4-2.7 0-4.2-1.68-4.32-4.65h11.49v-1.05c0-5.61-3.51-7.92-7.41-7.92-4.47 0-7.8 3.24-7.8 8.1v.24c0 4.95 3.33 7.98 7.95 7.98zm-4.17-9.78c.36-2.43 1.83-3.9 4.02-3.9 2.25 0 3.63 1.2 3.81 3.9zm12.54 9.48h3.78l3.75-5.67 3.66 5.67h4.23l-5.61-8.31 5.07-7.38h-3.81l-3.24 5.07-3.27-5.07h-4.2l5.1 7.65zm18.21 5.37h3.63v-7.83c.84 1.53 2.64 2.76 5.13 2.76 3.970588 0 6.845444-2.941176 6.956657-7.805821l.003343-.534179c0-5.07-3.03-7.98-6.96-7.98-2.31 0-4.26 1.35-5.13 2.85v-2.52h-3.63zm7.86-7.95c-2.64 0-4.35-1.65-4.35-5.16v-.24c0-3.48 1.8-5.19 4.32-5.19 2.37 0 4.17 1.71 4.17 5.19v.24c0 3.36-1.47 5.16-4.14 5.16zm18.03 2.88c4.02 0 6.69-1.8 7.2-5.1h-3.51c-.27 1.53-1.41 2.4-3.6 2.4-2.7 0-4.2-1.68-4.32-4.65h11.49v-1.05c0-5.61-3.51-7.92-7.41-7.92-4.47 0-7.8 3.24-7.8 8.1v.24c0 4.95 3.33 7.98 7.95 7.98zm-4.17-9.78c.36-2.43 1.83-3.9 4.02-3.9 2.25 0 3.63 1.2 3.81 3.9zm14.67 9.48h3.63v-8.16c0-3.33 1.92-4.35 5.1-4.38v-3.39c-2.64.03-4.11 1.2-5.1 3.18v-2.94h-3.63zm12 0h3.63v-15.69h-3.63zm1.77-18.27c1.2 0 2.16-.9 2.16-2.07 0-1.2-.96-2.1-2.16-2.1s-2.16.9-2.16 2.1c0 1.17.96 2.07 2.16 2.07zm13.17 18.57c4.02 0 6.69-1.8 7.2-5.1h-3.51c-.27 1.53-1.41 2.4-3.6 2.4-2.7 0-4.2-1.68-4.32-4.65h11.49v-1.05c0-5.61-3.51-7.92-7.41-7.92-4.47 0-7.8 3.24-7.8 8.1v.24c0 4.95 3.33 7.98 7.95 7.98zm-4.17-9.78c.36-2.43 1.83-3.9 4.02-3.9 2.25 0 3.63 1.2 3.81 3.9zm14.67 9.48h3.63v-9.24c0-2.49 1.65-3.75 3.69-3.75 2.16 0 3.12 1.08 3.12 3.45v9.54h3.63v-9.87c0-4.32-2.22-6.15-5.37-6.15-2.58 0-4.32 1.29-5.07 2.82v-2.49h-3.63zm25.11.3c4.26 0 6.99-2.55 7.26-6.15h-3.33c-.21 2.22-1.86 3.36-3.78 3.36-2.597838 0-4.258466-1.704018-4.346332-4.946256l-.003668-.513744c0-3.24 1.77-5.16 4.26-5.16 1.92 0 3.3.87 3.6 2.97h3.51c-.42-4.32-3.69-5.88-7.17-5.88-4.297358 0-7.786116 3.032253-7.916237 7.850077l-.003763.519923c0 5.01 3.42 7.95 7.92 7.95zm10.47-.3h3.63v-15.69h-3.63zm1.77-18.27c1.2 0 2.16-.9 2.16-2.07 0-1.2-.96-2.1-2.16-2.1s-2.16.9-2.16 2.1c0 1.17.96 2.07 2.16 2.07zm6.27 18.27h3.63v-9.24c0-2.49 1.65-3.75 3.69-3.75 2.16 0 3.12 1.08 3.12 3.45v9.54h3.63v-9.87c0-4.32-2.22-6.15-5.37-6.15-2.58 0-4.32 1.29-5.07 2.82v-2.49h-3.63zm24.93 5.76c4.86 0 7.95-2.31 7.98-6.93v-14.52h-3.63v2.4c-.9-1.56-2.46-2.73-5.04-2.73-3.969 0-6.92958 3.16932-7.046416 7.44675l-.003584.47325c0 4.53 3.03 7.47 6.96 7.47 2.31 0 4.26-1.41 5.13-2.91v2.31c0 2.82-1.56 4.23-4.38 4.23-2.37 0-3.57-.9-3.87-2.46h-3.66c.42 3 2.64 5.22 7.56 5.22zm.12-9.18c-2.34 0-4.14-1.8-4.14-4.71v-.24c0-2.85 1.56-4.8 4.26-4.8 2.61 0 4.23 1.77 4.23 4.74v.21c0 3-1.83 4.8-4.35 4.8zm-590.49 39.42h3.63v-15.69h-3.63zm1.77-18.27c1.2 0 2.16-.9 2.16-2.07 0-1.2-.96-2.1-2.16-2.1s-2.16.9-2.16 2.1c0 1.17.96 2.07 2.16 2.07zm6.27 18.27h3.63v-9.24c0-2.49 1.65-3.75 3.69-3.75 2.16 0 3.12 1.08 3.12 3.45v9.54h3.63v-9.87c0-4.32-2.22-6.15-5.37-6.15-2.58 0-4.32 1.29-5.07 2.82v-2.49h-3.63zm23.58.27c1.11 0 1.89-.18 2.46-.39v-2.88c-.51.21-1.05.3-1.77.3-1.14 0-1.8-.63-1.8-2.01v-8.25h3.45v-2.73h-3.45v-3.45h-3.63v3.45h-2.1v2.73h2.1v8.58c0 2.97 1.62 4.65 4.74 4.65zm12.63.03c4.02 0 6.69-1.8 7.2-5.1h-3.51c-.27 1.53-1.41 2.4-3.6 2.4-2.7 0-4.2-1.68-4.32-4.65h11.49v-1.05c0-5.61-3.51-7.92-7.41-7.92-4.3856604 0-7.6739338 3.118889-7.7964583 7.826647l-.0035417.513353c0 4.95 3.33 7.98 7.95 7.98zm-4.17-9.78c.36-2.43 1.83-3.9 4.02-3.9 2.25 0 3.63 1.2 3.81 3.9zm14.67 9.48h3.63v-8.16c0-3.33 1.92-4.35 5.1-4.38v-3.39c-2.64.03-4.11 1.2-5.1 3.18v-2.94h-3.63zm18.48.3c4.26 0 6.99-2.55 7.26-6.15h-3.33c-.21 2.22-1.86 3.36-3.78 3.36-2.67 0-4.35-1.8-4.35-5.22v-.24c0-3.24 1.77-5.16 4.26-5.16 1.92 0 3.3.87 3.6 2.97h3.51c-.42-4.32-3.69-5.88-7.17-5.88-4.38 0-7.92 3.15-7.92 8.13v.24c0 5.01 3.42 7.95 7.92 7.95zm17.4-2.82c-2.76 0-4.35-2.01-4.35-5.22v-.24c0-3.24 1.65-5.19 4.35-5.19 2.627027 0 4.2316435 1.874419 4.3164606 4.960073l.0035394.469927c0 3.21-1.62 5.22-4.32 5.22zm-.03 2.82c4.5344444 0 7.941821-3.063313 8.066465-7.800102l.003535-.509898c0-4.8-3.45-8.01-8.04-8.01-4.62 0-8.07 3.24-8.07 8.1v.24c0 4.77 3.42 7.98 8.04 7.98zm11.34-.3h3.63v-9.24c0-2.49 1.65-3.75 3.69-3.75 2.16 0 3.12 1.08 3.12 3.45v9.54h3.63v-9.87c0-4.32-2.22-6.15-5.37-6.15-2.58 0-4.32 1.29-5.07 2.82v-2.49h-3.63zm18.24 0h3.63v-9.24c0-2.49 1.65-3.75 3.69-3.75 2.16 0 3.12 1.08 3.12 3.45v9.54h3.63v-9.87c0-4.32-2.22-6.15-5.37-6.15-2.58 0-4.32 1.29-5.07 2.82v-2.49h-3.63zm25.14.3c4.02 0 6.69-1.8 7.2-5.1h-3.51c-.27 1.53-1.41 2.4-3.6 2.4-2.7 0-4.2-1.68-4.32-4.65h11.49v-1.05c0-5.61-3.51-7.92-7.41-7.92-4.38566 0-7.673934 3.118889-7.796458 7.826647l-.003542.513353c0 4.95 3.33 7.98 7.95 7.98zm-4.17-9.78c.36-2.43 1.83-3.9 4.02-3.9 2.25 0 3.63 1.2 3.81 3.9zm21.54 9.78c4.26 0 6.99-2.55 7.26-6.15h-3.33c-.21 2.22-1.86 3.36-3.78 3.36-2.597838 0-4.258466-1.704018-4.346332-4.946256l-.003668-.513744c0-3.24 1.77-5.16 4.26-5.16 1.92 0 3.3.87 3.6 2.97h3.51c-.42-4.32-3.69-5.88-7.17-5.88-4.297358 0-7.786116 3.032253-7.916237 7.850077l-.003763.519923c0 5.01 3.42 7.95 7.92 7.95zm15.72-.03c1.11 0 1.89-.18 2.46-.39v-2.88c-.51.21-1.05.3-1.77.3-1.14 0-1.8-.63-1.8-2.01v-8.25h3.45v-2.73h-3.45v-3.45h-3.63v3.45h-2.1v2.73h2.1v8.58c0 2.97 1.62 4.65 4.74 4.65zm5.82-.27h3.63v-15.69h-3.63zm1.77-18.27c1.2 0 2.16-.9 2.16-2.07 0-1.2-.96-2.1-2.16-2.1s-2.16.9-2.16 2.1c0 1.17.96 2.07 2.16 2.07zm13.29 15.75c-2.76 0-4.35-2.01-4.35-5.22v-.24c0-3.24 1.65-5.19 4.35-5.19s4.32 1.98 4.32 5.22v.21c0 3.21-1.62 5.22-4.32 5.22zm-.03 2.82c4.534444 0 7.941821-3.063313 8.066465-7.800102l.003535-.509898c0-4.8-3.45-8.01-8.04-8.01-4.62 0-8.07 3.24-8.07 8.1v.24c0 4.77 3.42 7.98 8.04 7.98zm11.34-.3h3.63v-9.24c0-2.49 1.65-3.75 3.69-3.75 2.16 0 3.12 1.08 3.12 3.45v9.54h3.63v-9.87c0-4.32-2.22-6.15-5.37-6.15-2.58 0-4.32 1.29-5.07 2.82v-2.49h-3.63zm23.61.3c4.02 0 6.27-1.83 6.27-5.01 0-3.33-2.19-4.23-5.88-4.8l-.49067-.087541c-2.099211-.39781-2.74933-.86108-2.74933-1.922459 0-1.11.93-1.86 2.49-1.86 1.68 0 2.49.66 2.79 2.1h3.36c-.39-3.54-2.94-4.74-6.15-4.74-2.94 0-5.88 1.56-5.88 4.71 0 2.8 1.387755 3.994558 5.09621 4.672109l.57379.097891c2.31.39 3.36.87 3.36 2.16 0 1.32-.87 2.01-2.82 2.01-2.13 0-2.94-.93-3.12-2.52h-3.42c.15 3.33 2.52 5.19 6.57 5.19zm19.83-.3h3.72l3.18-10.56 2.91 10.56h3.69l4.92-15.69h-3.54l-3.27 11.34-3.06-11.34h-3.03l-3.33 11.34-3.12-11.34h-3.87zm21.27 0h3.63v-15.69h-3.63zm1.77-18.27c1.2 0 2.16-.9 2.16-2.07 0-1.2-.96-2.1-2.16-2.1s-2.16.9-2.16 2.1c0 1.17.96 2.07 2.16 2.07zm11.61 18.54c1.11 0 1.89-.18 2.46-.39v-2.88c-.51.21-1.05.3-1.77.3-1.14 0-1.8-.63-1.8-2.01v-8.25h3.45v-2.73h-3.45v-3.45h-3.63v3.45h-2.1v2.73h2.1v8.58c0 2.97 1.62 4.65 4.74 4.65zm5.73-.27h3.63v-9.24c0-2.49 1.65-3.75 3.69-3.75 2.16 0 3.12 1.08 3.12 3.45v9.54h3.63v-9.87c0-4.32-2.22-6.15-5.37-6.15-2.58 0-4.32 1.29-5.07 2.82v-9.75h-3.63zm18.33 0h3.63v-15.69h-3.63zm1.77-18.27c1.2 0 2.16-.9 2.16-2.07 0-1.2-.96-2.1-2.16-2.1s-2.16.9-2.16 2.1c0 1.17.96 2.07 2.16 2.07zm6.27 18.27h3.63v-9.24c0-2.49 1.65-3.75 3.69-3.75 2.16 0 3.12 1.08 3.12 3.45v9.54h3.63v-9.87c0-4.32-2.22-6.15-5.37-6.15-2.58 0-4.32 1.29-5.07 2.82v-2.49h-3.63zm29.49.3c2.4 0 3.78-.87 4.8-2.22v1.92h3.57v-10.29c0-4.29-2.76-5.73-6.27-5.73s-6.42 1.53-6.72 5.19h3.51c.18-1.56 1.11-2.46 3-2.46 2.13 0 2.85 1.05 2.85 3.15v.81h-1.95c-4.5 0-8.04 1.32-8.04 4.98 0 3.27 2.37 4.65 5.25 4.65zm.87-2.61c-1.8 0-2.52-.87-2.52-2.19 0-1.86 1.661104-2.509365 4.274174-2.548134l2.115826-.001866v1.56c0 2.01-1.65 3.18-3.87 3.18zm11.67 2.31h3.63v-9.24c0-2.49 1.65-3.75 3.69-3.75 2.16 0 3.12 1.08 3.12 3.45v9.54h3.63v-9.87c0-4.32-2.22-6.15-5.37-6.15-2.58 0-4.32 1.29-5.07 2.82v-2.49h-3.63zm24.12.3c2.31 0 4.32-1.38 5.16-2.94v2.64h3.63v-22.95h-3.63v9.66c-.87-1.56-2.46-2.73-5.01-2.73-4.08 0-7.05 3.18-7.05 8.19v.24c0 5.1 2.97 7.89 6.9 7.89zm.9-2.88c-2.34 0-4.08-1.65-4.08-5.1v-.24c0-3.39 1.56-5.25 4.23-5.25 2.566667 0 4.140856 1.616319 4.226331 4.876527l.003669.523473c0 3.51-1.86 5.19-4.38 5.19zm28.11 2.88c3.970588 0 6.845444-2.941176 6.956657-7.805821l.003343-.534179c0-5.07-3.03-7.98-6.96-7.98-2.31 0-4.26 1.35-5.13 2.85v-9.78h-3.63v22.95h3.63v-2.52c.84 1.59 2.64 2.82 5.13 2.82zm-.9-2.88c-2.568649 0-4.256888-1.562016-4.346268-4.879477l-.003732-.520523c0-3.48 1.8-5.19 4.32-5.19 2.37 0 4.17 1.71 4.17 5.19v.24c0 3.36-1.47 5.16-4.14 5.16zm18.03 2.88c4.02 0 6.69-1.8 7.2-5.1h-3.51c-.27 1.53-1.41 2.4-3.6 2.4-2.7 0-4.2-1.68-4.32-4.65h11.49v-1.05c0-5.61-3.51-7.92-7.41-7.92-4.47 0-7.8 3.24-7.8 8.1v.24c0 4.95 3.33 7.98 7.95 7.98zm-4.17-9.78c.36-2.43 1.83-3.9 4.02-3.9 2.25 0 3.63 1.2 3.81 3.9zm20.01 9.75c1.11 0 1.89-.18 2.46-.39v-2.88c-.51.21-1.05.3-1.77.3-1.14 0-1.8-.63-1.8-2.01v-8.25h3.45v-2.73h-3.45v-3.45h-3.63v3.45h-2.1v2.73h2.1v8.58c0 2.97 1.62 4.65 4.74 4.65zm8.97-.27h3.72l3.18-10.56 2.91 10.56h3.69l4.92-15.69h-3.54l-3.27 11.34-3.06-11.34h-3.03l-3.33 11.34-3.12-11.34h-3.87zm27.63.3c4.02 0 6.69-1.8 7.2-5.1h-3.51c-.27 1.53-1.41 2.4-3.6 2.4-2.7 0-4.2-1.68-4.32-4.65h11.49v-1.05c0-5.61-3.51-7.92-7.41-7.92-4.47 0-7.8 3.24-7.8 8.1v.24c0 4.95 3.33 7.98 7.95 7.98zm-4.17-9.78c.36-2.43 1.83-3.9 4.02-3.9 2.25 0 3.63 1.2 3.81 3.9zm21.57 9.78c4.02 0 6.69-1.8 7.2-5.1h-3.51c-.27 1.53-1.41 2.4-3.6 2.4-2.7 0-4.2-1.68-4.32-4.65h11.49v-1.05c0-5.61-3.51-7.92-7.41-7.92-4.47 0-7.8 3.24-7.8 8.1v.24c0 4.95 3.33 7.98 7.95 7.98zm-4.17-9.78c.36-2.43 1.83-3.9 4.02-3.9 2.25 0 3.63 1.2 3.81 3.9zm14.67 9.48h3.63v-9.24c0-2.49 1.65-3.75 3.69-3.75 2.16 0 3.12 1.08 3.12 3.45v9.54h3.63v-9.87c0-4.32-2.22-6.15-5.37-6.15-2.58 0-4.32 1.29-5.07 2.82v-2.49h-3.63zm30.72.27c1.11 0 1.89-.18 2.46-.39v-2.88c-.51.21-1.05.3-1.77.3-1.14 0-1.8-.63-1.8-2.01v-8.25h3.45v-2.73h-3.45v-3.45h-3.63v3.45h-2.1v2.73h2.1v8.58c0 2.97 1.62 4.65 4.74 4.65zm5.73-.27h3.63v-9.24c0-2.49 1.65-3.75 3.69-3.75 2.16 0 3.12 1.08 3.12 3.45v9.54h3.63v-9.87c0-4.32-2.22-6.15-5.37-6.15-2.58 0-4.32 1.29-5.07 2.82v-9.75h-3.63zm25.14.3c4.02 0 6.69-1.8 7.2-5.1h-3.51c-.27 1.53-1.41 2.4-3.6 2.4-2.7 0-4.2-1.68-4.32-4.65h11.49v-1.05c0-5.61-3.51-7.92-7.41-7.92-4.38566 0-7.673934 3.118889-7.796458 7.826647l-.003542.513353c0 4.95 3.33 7.98 7.95 7.98zm-4.17-9.78c.36-2.43 1.83-3.9 4.02-3.9 2.25 0 3.63 1.2 3.81 3.9zm14.76 9.48h3.63v-15.69h-3.63zm1.77-18.27c1.2 0 2.16-.9 2.16-2.07 0-1.2-.96-2.1-2.16-2.1s-2.16.9-2.16 2.1c0 1.17.96 2.07 2.16 2.07zm6.27 18.27h3.63v-8.16c0-3.33 1.92-4.35 5.1-4.38v-3.39c-2.64.03-4.11 1.2-5.1 3.18v-2.94h-3.63zm24.42.3c4.02 0 6.27-1.83 6.27-5.01 0-3.33-2.19-4.23-5.88-4.8l-.49067-.087541c-2.099211-.39781-2.74933-.86108-2.74933-1.922459 0-1.11.93-1.86 2.49-1.86 1.68 0 2.49.66 2.79 2.1h3.36c-.39-3.54-2.94-4.74-6.15-4.74-2.94 0-5.88 1.56-5.88 4.71 0 2.8 1.387755 3.994558 5.09621 4.672109l.57379.097891c2.31.39 3.36.87 3.36 2.16 0 1.32-.87 2.01-2.82 2.01-2.13 0-2.94-.93-3.12-2.52h-3.42c.15 3.33 2.52 5.19 6.57 5.19zm9.45 5.07h3.63v-7.83c.84 1.53 2.64 2.76 5.13 2.76 3.970588 0 6.845444-2.941176 6.956657-7.805821l.003343-.534179c0-5.07-3.03-7.98-6.96-7.98-2.31 0-4.26 1.35-5.13 2.85v-2.52h-3.63zm7.86-7.95c-2.64 0-4.35-1.65-4.35-5.16v-.24c0-3.48 1.8-5.19 4.32-5.19 2.37 0 4.17 1.71 4.17 5.19v.24c0 3.36-1.47 5.16-4.14 5.16zm15.24 2.88c2.4 0 3.78-.87 4.8-2.22v1.92h3.57v-10.29c0-4.29-2.76-5.73-6.27-5.73s-6.42 1.53-6.72 5.19h3.51c.18-1.56 1.11-2.46 3-2.46 2.13 0 2.85 1.05 2.85 3.15v.81h-1.95c-4.5 0-8.04 1.32-8.04 4.98 0 3.27 2.37 4.65 5.25 4.65zm.87-2.61c-1.8 0-2.52-.87-2.52-2.19 0-1.86 1.661104-2.509365 4.274174-2.548134l2.115826-.001866v1.56c0 2.01-1.65 3.18-3.87 3.18zm18.54 2.61c4.26 0 6.99-2.55 7.26-6.15h-3.33c-.21 2.22-1.86 3.36-3.78 3.36-2.597838 0-4.258466-1.704018-4.346332-4.946256l-.003668-.513744c0-3.24 1.77-5.16 4.26-5.16 1.92 0 3.3.87 3.6 2.97h3.51c-.42-4.32-3.69-5.88-7.17-5.88-4.297358 0-7.786116 3.032253-7.916237 7.850077l-.003763.519923c0 5.01 3.42 7.95 7.92 7.95zm17.28 0c4.02 0 6.69-1.8 7.2-5.1h-3.51c-.27 1.53-1.41 2.4-3.6 2.4-2.7 0-4.2-1.68-4.32-4.65h11.49v-1.05c0-5.61-3.51-7.92-7.41-7.92-4.47 0-7.8 3.24-7.8 8.1v.24c0 4.95 3.33 7.98 7.95 7.98zm-4.17-9.78c.36-2.43 1.83-3.9 4.02-3.9 2.25 0 3.63 1.2 3.81 3.9zm20.19 9.78c4.02 0 6.27-1.83 6.27-5.01 0-3.33-2.19-4.23-5.88-4.8l-.49067-.087541c-2.099211-.39781-2.74933-.86108-2.74933-1.922459 0-1.11.93-1.86 2.49-1.86 1.68 0 2.49.66 2.79 2.1h3.36c-.39-3.54-2.94-4.74-6.15-4.74-2.94 0-5.88 1.56-5.88 4.71 0 2.8 1.387755 3.994558 5.09621 4.672109l.57379.097891c2.31.39 3.36.87 3.36 2.16 0 1.32-.87 2.01-2.82 2.01-2.13 0-2.94-.93-3.12-2.52h-3.42c.15 3.33 2.52 5.19 6.57 5.19zm11.61-.09c-1.32 0-2.37-1.02-2.37-2.34s1.05-2.37 2.37-2.37c1.35 0 2.4 1.05 2.4 2.37s-1.05 2.34-2.4 2.34z"/>
      </g>
      <g transform="translate(32 266)">
        <path fill="#565656" d="m38.08 56.51 12.75-48.79-21.59-7.65-24.99 45.9zm42.84 0-33.66-10.54 24.99-45.9 21.42 7.65z"/>
        <path fill="#fff" d="m6.12 100h3.81l4.35-15.63 4.23 15.63h3.99l5.37-21.45h-3.72l-3.84 15.84-4.26-15.84h-3.3l-4.17 15.75-3.72-15.75h-4.08zm30.24.3c4.02 0 6.69-1.8 7.2-5.1h-3.51c-.27 1.53-1.41 2.4-3.6 2.4-2.7 0-4.2-1.68-4.32-4.65h11.49v-1.05c0-5.61-3.51-7.92-7.41-7.92-4.3856604 0-7.6739338 3.118889-7.7964583 7.826647l-.0035417.513353c0 4.95 3.33 7.98 7.95 7.98zm-4.17-9.78c.36-2.43 1.83-3.9 4.02-3.9 2.25 0 3.63 1.2 3.81 3.9zm25.92 9.78c2.4 0 3.78-.87 4.8-2.22v1.92h3.57v-10.29c0-4.29-2.76-5.73-6.27-5.73s-6.42 1.53-6.72 5.19h3.51c.18-1.56 1.11-2.46 3-2.46 2.13 0 2.85 1.05 2.85 3.15v.81h-1.95c-4.5 0-8.04 1.32-8.04 4.98 0 3.27 2.37 4.65 5.25 4.65zm.87-2.61c-1.8 0-2.52-.87-2.52-2.19 0-1.86 1.6611035-2.509365 4.2741742-2.548134l2.1158258-.001866v1.56c0 2.01-1.65 3.18-3.87 3.18zm11.67 2.31h3.63v-8.16c0-3.33 1.92-4.35 5.1-4.38v-3.39c-2.64.03-4.11 1.2-5.1 3.18v-2.94h-3.63zm18.51.3c4.02 0 6.69-1.8 7.2-5.1h-3.51c-.27 1.53-1.41 2.4-3.6 2.4-2.7 0-4.2-1.68-4.32-4.65h11.49v-1.05c0-5.61-3.51-7.92-7.41-7.92-4.3856604 0-7.6739338 3.118889-7.7964583 7.826647l-.0035417.513353c0 4.95 3.33 7.98 7.95 7.98zm-4.17-9.78c.36-2.43 1.83-3.9 4.02-3.9 2.25 0 3.63 1.2 3.81 3.9zm21.81 9.48h3.63v-8.16c0-3.33 1.92-4.35 5.1-4.38v-3.39c-2.64.03-4.11 1.2-5.1 3.18v-2.94h-3.63zm18.63-2.52c-2.76 0-4.35-2.01-4.35-5.22v-.24c0-3.24 1.65-5.19 4.35-5.19 2.627027 0 4.231644 1.874419 4.316461 4.960073l.003539.469927c0 3.21-1.62 5.22-4.32 5.22zm-.03 2.82c4.62 0 8.07-3.18 8.07-8.07v-.24c0-4.8-3.45-8.01-8.04-8.01-4.62 0-8.07 3.24-8.07 8.1v.24c0 4.77 3.42 7.98 8.04 7.98zm18.36-2.82c-2.76 0-4.35-2.01-4.35-5.22v-.24c0-3.24 1.65-5.19 4.35-5.19 2.627027 0 4.231644 1.874419 4.316461 4.960073l.003539.469927c0 3.21-1.62 5.22-4.32 5.22zm-.03 2.82c4.534444 0 7.941821-3.063313 8.066465-7.800102l.003535-.509898c0-4.8-3.45-8.01-8.04-8.01-4.62 0-8.07 3.24-8.07 8.1v.24c0 4.77 3.42 7.98 8.04 7.98zm16.68-.03c1.11 0 1.89-.18 2.46-.39v-2.88c-.51.21-1.05.3-1.77.3-1.14 0-1.8-.63-1.8-2.01v-8.25h3.45v-2.73h-3.45v-3.45h-3.63v3.45h-2.1v2.73h2.1v8.58c0 2.97 1.62 4.65 4.74 4.65zm12.63.03c4.02 0 6.69-1.8 7.2-5.1h-3.51c-.27 1.53-1.41 2.4-3.6 2.4-2.7 0-4.2-1.68-4.32-4.65h11.49v-1.05c0-5.61-3.51-7.92-7.41-7.92-4.47 0-7.8 3.24-7.8 8.1v.24c0 4.95 3.33 7.98 7.95 7.98zm-4.17-9.78c.36-2.43 1.83-3.9 4.02-3.9 2.25 0 3.63 1.2 3.81 3.9zm20.55 9.78c2.31 0 4.32-1.38 5.16-2.94v2.64h3.63v-22.95h-3.63v9.66c-.87-1.56-2.46-2.73-5.01-2.73-4.08 0-7.05 3.18-7.05 8.19v.24c0 5.1 2.97 7.89 6.9 7.89zm.9-2.88c-2.34 0-4.08-1.65-4.08-5.1v-.24c0-3.39 1.56-5.25 4.23-5.25 2.566667 0 4.140856 1.616319 4.226331 4.876527l.003669.523473c0 3.51-1.86 5.19-4.38 5.19zm19.44 2.58h3.63v-15.69h-3.63zm1.77-18.27c1.2 0 2.16-.9 2.16-2.07 0-1.2-.96-2.1-2.16-2.1s-2.16.9-2.16 2.1c0 1.17.96 2.07 2.16 2.07zm6.27 18.27h3.63v-9.24c0-2.49 1.65-3.75 3.69-3.75 2.16 0 3.12 1.08 3.12 3.45v9.54h3.63v-9.87c0-4.32-2.22-6.15-5.37-6.15-2.58 0-4.32 1.29-5.07 2.82v-2.49h-3.63zm30.72.27c1.11 0 1.89-.18 2.46-.39v-2.88c-.51.21-1.05.3-1.77.3-1.14 0-1.8-.63-1.8-2.01v-8.25h3.45v-2.73h-3.45v-3.45h-3.63v3.45h-2.1v2.73h2.1v8.58c0 2.97 1.62 4.65 4.74 4.65zm5.73-.27h3.63v-8.16c0-3.33 1.92-4.35 5.1-4.38v-3.39c-2.64.03-4.11 1.2-5.1 3.18v-2.94h-3.63zm17.16.3c2.55 0 4.2-1.23 4.98-2.76v2.46h3.63v-15.69h-3.63v9.33c0 2.49-1.71 3.75-3.66 3.75-2.1 0-3.09-1.08-3.09-3.45v-9.63h-3.63v10.05c0 4.17 2.31 5.94 5.4 5.94zm18.27 0c4.02 0 6.27-1.83 6.27-5.01 0-3.33-2.19-4.23-5.88-4.8l-.49067-.087541c-2.099211-.39781-2.74933-.86108-2.74933-1.922459 0-1.11.93-1.86 2.49-1.86 1.68 0 2.49.66 2.79 2.1h3.36c-.39-3.54-2.94-4.74-6.15-4.74-2.94 0-5.88 1.56-5.88 4.71 0 2.8 1.387755 3.994558 5.09621 4.672109l.57379.097891c2.31.39 3.36.87 3.36 2.16 0 1.32-.87 2.01-2.82 2.01-2.13 0-2.94-.93-3.12-2.52h-3.42c.15 3.33 2.52 5.19 6.57 5.19zm14.79-.03c1.11 0 1.89-.18 2.46-.39v-2.88c-.51.21-1.05.3-1.77.3-1.14 0-1.8-.63-1.8-2.01v-8.25h3.45v-2.73h-3.45v-3.45h-3.63v3.45h-2.1v2.73h2.1v8.58c0 2.97 1.62 4.65 4.74 4.65zm6.66 3.42 3.93-6.72-3.45-1.38-2.73 7.11zm20.31-3.42c1.11 0 1.89-.18 2.46-.39v-2.88c-.51.21-1.05.3-1.77.3-1.14 0-1.8-.63-1.8-2.01v-8.25h3.45v-2.73h-3.45v-3.45h-3.63v3.45h-2.1v2.73h2.1v8.58c0 2.97 1.62 4.65 4.74 4.65zm5.73-.27h3.63v-9.24c0-2.49 1.65-3.75 3.69-3.75 2.16 0 3.12 1.08 3.12 3.45v9.54h3.63v-9.87c0-4.32-2.22-6.15-5.37-6.15-2.58 0-4.32 1.29-5.07 2.82v-9.75h-3.63zm25.14.3c4.02 0 6.69-1.8 7.2-5.1h-3.51c-.27 1.53-1.41 2.4-3.6 2.4-2.7 0-4.2-1.68-4.32-4.65h11.49v-1.05c0-5.61-3.51-7.92-7.41-7.92-4.47 0-7.8 3.24-7.8 8.1v.24c0 4.95 3.33 7.98 7.95 7.98zm-4.17-9.78c.36-2.43 1.83-3.9 4.02-3.9 2.25 0 3.63 1.2 3.81 3.9zm14.67 9.48h3.63v-8.16c0-3.33 1.92-4.35 5.1-4.38v-3.39c-2.64.03-4.11 1.2-5.1 3.18v-2.94h-3.63zm18.51.3c4.02 0 6.69-1.8 7.2-5.1h-3.51c-.27 1.53-1.41 2.4-3.6 2.4-2.7 0-4.2-1.68-4.32-4.65h11.49v-1.05c0-5.61-3.51-7.92-7.41-7.92-4.47 0-7.8 3.24-7.8 8.1v.24c0 4.95 3.33 7.98 7.95 7.98zm-4.17-9.78c.36-2.43 1.83-3.9 4.02-3.9 2.25 0 3.63 1.2 3.81 3.9zm15.3 9.48h3.63v-12.96h3.57v-2.73h-3.57v-2.25c0-1.35.6-2.31 2.07-2.31.66 0 1.23.12 1.65.27v-2.82c-.66-.21-1.2-.3-2.07-.3-3.36 0-5.28 1.86-5.28 5.31v2.1h-2.13v2.73h2.13zm16.65-2.52c-2.76 0-4.35-2.01-4.35-5.22v-.24c0-3.24 1.65-5.19 4.35-5.19 2.627027 0 4.231644 1.874419 4.316461 4.960073l.003539.469927c0 3.21-1.62 5.22-4.32 5.22zm-.03 2.82c4.534444 0 7.941821-3.063313 8.066465-7.800102l.003535-.509898c0-4.8-3.45-8.01-8.04-8.01-4.62 0-8.07 3.24-8.07 8.1v.24c0 4.77 3.42 7.98 8.04 7.98zm11.34-.3h3.63v-8.16c0-3.33 1.92-4.35 5.1-4.38v-3.39c-2.64.03-4.11 1.2-5.1 3.18v-2.94h-3.63zm18.51.3c4.02 0 6.69-1.8 7.2-5.1h-3.51c-.27 1.53-1.41 2.4-3.6 2.4-2.7 0-4.2-1.68-4.32-4.65h11.49v-1.05c0-5.61-3.51-7.92-7.41-7.92-4.47 0-7.8 3.24-7.8 8.1v.24c0 4.95 3.33 7.98 7.95 7.98zm-4.17-9.78c.36-2.43 1.83-3.9 4.02-3.9 2.25 0 3.63 1.2 3.81 3.9zm15.45 13.17 3.93-6.72-3.45-1.38-2.73 7.11zm21.99-6.21c-2.76 0-4.35-2.01-4.35-5.22v-.24c0-3.24 1.65-5.19 4.35-5.19 2.627027 0 4.231644 1.874419 4.316461 4.960073l.003539.469927c0 3.21-1.62 5.22-4.32 5.22zm-.03 2.82c4.534444 0 7.941821-3.063313 8.066465-7.800102l.003535-.509898c0-4.8-3.45-8.01-8.04-8.01-4.62 0-8.07 3.24-8.07 8.1v.24c0 4.77 3.42 7.98 8.04 7.98zm16.59 0c2.55 0 4.2-1.23 4.98-2.76v2.46h3.63v-15.69h-3.63v9.33c0 2.49-1.71 3.75-3.66 3.75-2.1 0-3.09-1.08-3.09-3.45v-9.63h-3.63v10.05c0 4.17 2.31 5.94 5.4 5.94zm12.9-.3h3.63v-8.16c0-3.33 1.92-4.35 5.1-4.38v-3.39c-2.64.03-4.11 1.2-5.1 3.18v-2.94h-3.63zm25.92.3c4.26 0 6.99-2.55 7.26-6.15h-3.33c-.21 2.22-1.86 3.36-3.78 3.36-2.67 0-4.35-1.8-4.35-5.22v-.24c0-3.24 1.77-5.16 4.26-5.16 1.92 0 3.3.87 3.6 2.97h3.51c-.42-4.32-3.69-5.88-7.17-5.88-4.38 0-7.92 3.15-7.92 8.13v.24c0 5.01 3.42 7.95 7.92 7.95zm15.63 0c2.55 0 4.2-1.23 4.98-2.76v2.46h3.63v-15.69h-3.63v9.33c0 2.49-1.71 3.75-3.66 3.75-2.1 0-3.09-1.08-3.09-3.45v-9.63h-3.63v10.05c0 4.17 2.31 5.94 5.4 5.94zm18.27 0c4.02 0 6.27-1.83 6.27-5.01 0-3.33-2.19-4.23-5.88-4.8l-.49067-.087541c-2.099211-.39781-2.74933-.86108-2.74933-1.922459 0-1.11.93-1.86 2.49-1.86 1.68 0 2.49.66 2.79 2.1h3.36c-.39-3.54-2.94-4.74-6.15-4.74-2.94 0-5.88 1.56-5.88 4.71 0 2.8 1.387755 3.994558 5.09621 4.672109l.57379.097891c2.31.39 3.36.87 3.36 2.16 0 1.32-.87 2.01-2.82 2.01-2.13 0-2.94-.93-3.12-2.52h-3.42c.15 3.33 2.52 5.19 6.57 5.19zm14.79-.03c1.11 0 1.89-.18 2.46-.39v-2.88c-.51.21-1.05.3-1.77.3-1.14 0-1.8-.63-1.8-2.01v-8.25h3.45v-2.73h-3.45v-3.45h-3.63v3.45h-2.1v2.73h2.1v8.58c0 2.97 1.62 4.65 4.74 4.65zm12.75-2.79c-2.76 0-4.35-2.01-4.35-5.22v-.24c0-3.24 1.65-5.19 4.35-5.19 2.627027 0 4.231644 1.874419 4.316461 4.960073l.003539.469927c0 3.21-1.62 5.22-4.32 5.22zm-.03 2.82c4.534444 0 7.941821-3.063313 8.066465-7.800102l.003535-.509898c0-4.8-3.45-8.01-8.04-8.01-4.62 0-8.07 3.24-8.07 8.1v.24c0 4.77 3.42 7.98 8.04 7.98zm11.34-.3h3.63v-9.39c0-2.4 1.65-3.6 3.45-3.6 1.77 0 2.79.99 2.79 3.3v9.69h3.63v-9.39c0-2.4 1.65-3.6 3.45-3.6s2.79.99 2.79 3.3v9.69h3.63v-9.93c0-4.32-2.34-6.09-5.22-6.09-1.95 0-4.11.87-5.31 2.82-.78-1.95-2.4-2.82-4.44-2.82-2.31 0-4.02 1.26-4.77 2.73v-2.4h-3.63zm34.44.3c4.02 0 6.69-1.8 7.2-5.1h-3.51c-.27 1.53-1.41 2.4-3.6 2.4-2.7 0-4.2-1.68-4.32-4.65h11.49v-1.05c0-5.61-3.51-7.92-7.41-7.92-4.47 0-7.8 3.24-7.8 8.1v.24c0 4.95 3.33 7.98 7.95 7.98zm-4.17-9.78c.36-2.43 1.83-3.9 4.02-3.9 2.25 0 3.63 1.2 3.81 3.9zm14.67 9.48h3.63v-8.16c0-3.33 1.92-4.35 5.1-4.38v-3.39c-2.64.03-4.11 1.2-5.1 3.18v-2.94h-3.63zm17.28.3c4.02 0 6.27-1.83 6.27-5.01 0-3.33-2.19-4.23-5.88-4.8l-.49067-.087541c-2.099211-.39781-2.74933-.86108-2.74933-1.922459 0-1.11.93-1.86 2.49-1.86 1.68 0 2.49.66 2.79 2.1h3.36c-.39-3.54-2.94-4.74-6.15-4.74-2.94 0-5.88 1.56-5.88 4.71 0 2.8 1.387755 3.994558 5.09621 4.672109l.57379.097891c2.31.39 3.36.87 3.36 2.16 0 1.32-.87 2.01-2.82 2.01-2.13 0-2.94-.93-3.12-2.52h-3.42c.15 3.33 2.52 5.19 6.57 5.19zm17.22-.3h3.63v-12.96h3.57v-2.73h-3.57v-2.25c0-1.35.6-2.31 2.07-2.31.66 0 1.23.12 1.65.27v-2.82c-.66-.21-1.2-.3-2.07-.3-3.36 0-5.28 1.86-5.28 5.31v2.1h-2.13v2.73h2.13zm16.53.3c4.02 0 6.69-1.8 7.2-5.1h-3.51c-.27 1.53-1.41 2.4-3.6 2.4-2.7 0-4.2-1.68-4.32-4.65h11.49v-1.05c0-5.61-3.51-7.92-7.41-7.92-4.47 0-7.8 3.24-7.8 8.1v.24c0 4.95 3.33 7.98 7.95 7.98zm-4.17-9.78c.36-2.43 1.83-3.9 4.02-3.9 2.25 0 3.63 1.2 3.81 3.9zm21.57 9.78c4.02 0 6.69-1.8 7.2-5.1h-3.51c-.27 1.53-1.41 2.4-3.6 2.4-2.7 0-4.2-1.68-4.32-4.65h11.49v-1.05c0-5.61-3.51-7.92-7.41-7.92-4.47 0-7.8 3.24-7.8 8.1v.24c0 4.95 3.33 7.98 7.95 7.98zm-4.17-9.78c.36-2.43 1.83-3.9 4.02-3.9 2.25 0 3.63 1.2 3.81 3.9zm14.76 9.48h3.63v-22.95h-3.63zm-732.12 36h3.63v-8.16c0-3.33 1.92-4.35 5.1-4.38v-3.39c-2.64.03-4.11 1.2-5.1 3.18v-2.94h-3.63zm18.51.3c4.02 0 6.69-1.8 7.2-5.1h-3.51c-.27 1.53-1.41 2.4-3.6 2.4-2.7 0-4.2-1.68-4.32-4.65h11.49v-1.05c0-5.61-3.51-7.92-7.41-7.92-4.47 0-7.8 3.24-7.8 8.1v.24c0 4.95 3.33 7.98 7.95 7.98zm-4.17-9.78c.36-2.43 1.83-3.9 4.02-3.9 2.25 0 3.63 1.2 3.81 3.9zm14.76 9.48h3.63v-22.95h-3.63zm8.13 0h3.63v-15.69h-3.63zm1.77-18.27c1.2 0 2.16-.9 2.16-2.07 0-1.2-.96-2.1-2.16-2.1s-2.16.9-2.16 2.1c0 1.17.96 2.07 2.16 2.07zm13.17 18.57c4.02 0 6.69-1.8 7.2-5.1h-3.51c-.27 1.53-1.41 2.4-3.6 2.4-2.7 0-4.2-1.68-4.32-4.65h11.49v-1.05c0-5.61-3.51-7.92-7.41-7.92-4.47 0-7.8 3.24-7.8 8.1v.24c0 4.95 3.33 7.98 7.95 7.98zm-4.17-9.78c.36-2.43 1.83-3.9 4.02-3.9 2.25 0 3.63 1.2 3.81 3.9zm15.3 9.48h3.63v-12.96h3.57v-2.73h-3.57v-2.25c0-1.35.6-2.31 2.07-2.31.66 0 1.23.12 1.65.27v-2.82c-.66-.21-1.2-.3-2.07-.3-3.36 0-5.28 1.86-5.28 5.31v2.1h-2.13v2.73h2.13zm17.37 0h3.63v-7.71l5.88 7.71h4.2l-6.6-8.49 6.09-7.2h-3.96l-5.61 6.9v-14.16h-3.63zm16.2 0h3.63v-9.24c0-2.49 1.65-3.75 3.69-3.75 2.16 0 3.12 1.08 3.12 3.45v9.54h3.63v-9.87c0-4.32-2.22-6.15-5.37-6.15-2.58 0-4.32 1.29-5.07 2.82v-2.49h-3.63zm25.26-2.52c-2.76 0-4.35-2.01-4.35-5.22v-.24c0-3.24 1.65-5.19 4.35-5.19s4.32 1.98 4.32 5.22v.21c0 3.21-1.62 5.22-4.32 5.22zm-.03 2.82c4.534444 0 7.941821-3.063313 8.066465-7.800102l.003535-.509898c0-4.8-3.45-8.01-8.04-8.01-4.62 0-8.07 3.24-8.07 8.1v.24c0 4.77 3.42 7.98 8.04 7.98zm14.13-.3h3.72l3.18-10.56 2.91 10.56h3.69l4.92-15.69h-3.54l-3.27 11.34-3.06-11.34h-3.03l-3.33 11.34-3.12-11.34h-3.87zm21.27 0h3.63v-15.69h-3.63zm1.77-18.27c1.2 0 2.16-.9 2.16-2.07 0-1.2-.96-2.1-2.16-2.1s-2.16.9-2.16 2.1c0 1.17.96 2.07 2.16 2.07zm6.27 18.27h3.63v-9.24c0-2.49 1.65-3.75 3.69-3.75 2.16 0 3.12 1.08 3.12 3.45v9.54h3.63v-9.87c0-4.32-2.22-6.15-5.37-6.15-2.58 0-4.32 1.29-5.07 2.82v-2.49h-3.63zm24.93 5.76c4.86 0 7.95-2.31 7.98-6.93v-14.52h-3.63v2.4c-.9-1.56-2.46-2.73-5.04-2.73-3.969 0-6.92958 3.16932-7.046416 7.44675l-.003584.47325c0 4.53 3.03 7.47 6.96 7.47 2.31 0 4.26-1.41 5.13-2.91v2.31c0 2.82-1.56 4.23-4.38 4.23-2.37 0-3.57-.9-3.87-2.46h-3.66c.42 3 2.64 5.22 7.56 5.22zm.12-9.18c-2.34 0-4.14-1.8-4.14-4.71v-.24c0-2.85 1.56-4.8 4.26-4.8 2.535429 0 4.13662 1.670302 4.226047 4.488381l.003953.461619c0 3-1.83 4.8-4.35 4.8zm26.22 3.72c4.02 0 6.69-1.8 7.2-5.1h-3.51c-.27 1.53-1.41 2.4-3.6 2.4-2.7 0-4.2-1.68-4.32-4.65h11.49v-1.05c0-5.61-3.51-7.92-7.41-7.92-4.38566 0-7.673934 3.118889-7.796458 7.826647l-.003542.513353c0 4.95 3.33 7.98 7.95 7.98zm-4.17-9.78c.36-2.43 1.83-3.9 4.02-3.9 2.25 0 3.63 1.2 3.81 3.9zm18.48 9.48h4.23l5.67-15.69h-3.57l-4.05 11.97-4.11-11.97h-3.9zm18.9.3c4.02 0 6.69-1.8 7.2-5.1h-3.51c-.27 1.53-1.41 2.4-3.6 2.4-2.7 0-4.2-1.68-4.32-4.65h11.49v-1.05c0-5.61-3.51-7.92-7.41-7.92-4.38566 0-7.673934 3.118889-7.796458 7.826647l-.003542.513353c0 4.95 3.33 7.98 7.95 7.98zm-4.17-9.78c.36-2.43 1.83-3.9 4.02-3.9 2.25 0 3.63 1.2 3.81 3.9zm14.67 9.48h3.63v-8.16c0-3.33 1.92-4.35 5.1-4.38v-3.39c-2.64.03-4.11 1.2-5.1 3.18v-2.94h-3.63zm13.8 5.37h3.57l8.55-21.06h-3.54l-3.84 10.11-4.17-10.11h-3.93l6.21 14.1zm20.49-5.1c1.11 0 1.89-.18 2.46-.39v-2.88c-.51.21-1.05.3-1.77.3-1.14 0-1.8-.63-1.8-2.01v-8.25h3.45v-2.73h-3.45v-3.45h-3.63v3.45h-2.1v2.73h2.1v8.58c0 2.97 1.62 4.65 4.74 4.65zm5.73-.27h3.63v-9.24c0-2.49 1.65-3.75 3.69-3.75 2.16 0 3.12 1.08 3.12 3.45v9.54h3.63v-9.87c0-4.32-2.22-6.15-5.37-6.15-2.58 0-4.32 1.29-5.07 2.82v-9.75h-3.63zm18.33 0h3.63v-15.69h-3.63zm1.77-18.27c1.2 0 2.16-.9 2.16-2.07 0-1.2-.96-2.1-2.16-2.1s-2.16.9-2.16 2.1c0 1.17.96 2.07 2.16 2.07zm6.27 18.27h3.63v-9.24c0-2.49 1.65-3.75 3.69-3.75 2.16 0 3.12 1.08 3.12 3.45v9.54h3.63v-9.87c0-4.32-2.22-6.15-5.37-6.15-2.58 0-4.32 1.29-5.07 2.82v-2.49h-3.63zm24.93 5.76c4.86 0 7.95-2.31 7.98-6.93v-14.52h-3.63v2.4c-.9-1.56-2.46-2.73-5.04-2.73-3.969 0-6.92958 3.16932-7.046416 7.44675l-.003584.47325c0 4.53 3.03 7.47 6.96 7.47 2.31 0 4.26-1.41 5.13-2.91v2.31c0 2.82-1.56 4.23-4.38 4.23-2.37 0-3.57-.9-3.87-2.46h-3.66c.42 3 2.64 5.22 7.56 5.22zm.12-9.18c-2.34 0-4.14-1.8-4.14-4.71v-.24c0-2.85 1.56-4.8 4.26-4.8 2.535429 0 4.13662 1.670302 4.226047 4.488381l.003953.461619c0 3-1.83 4.8-4.35 4.8zm23.43 3.72c2.4 0 3.78-.87 4.8-2.22v1.92h3.57v-10.29c0-4.29-2.76-5.73-6.27-5.73s-6.42 1.53-6.72 5.19h3.51c.18-1.56 1.11-2.46 3-2.46 2.13 0 2.85 1.05 2.85 3.15v.81h-1.95c-4.5 0-8.04 1.32-8.04 4.98 0 3.27 2.37 4.65 5.25 4.65zm.87-2.61c-1.8 0-2.52-.87-2.52-2.19 0-1.86 1.661104-2.509365 4.274174-2.548134l2.115826-.001866v1.56c0 2.01-1.65 3.18-3.87 3.18zm20.43 2.61c3.970588 0 6.845444-2.941176 6.956657-7.805821l.003343-.534179c0-5.07-3.03-7.98-6.96-7.98-2.31 0-4.26 1.35-5.13 2.85v-9.78h-3.63v22.95h3.63v-2.52c.84 1.59 2.64 2.82 5.13 2.82zm-.9-2.88c-2.64 0-4.35-1.65-4.35-5.16v-.24c0-3.48 1.8-5.19 4.32-5.19 2.37 0 4.17 1.71 4.17 5.19v.24c0 3.36-1.47 5.16-4.14 5.16zm18.15.06c-2.76 0-4.35-2.01-4.35-5.22v-.24c0-3.24 1.65-5.19 4.35-5.19 2.627027 0 4.231644 1.874419 4.316461 4.960073l.003539.469927c0 3.21-1.62 5.22-4.32 5.22zm-.03 2.82c4.62 0 8.07-3.18 8.07-8.07v-.24c0-4.8-3.45-8.01-8.04-8.01-4.62 0-8.07 3.24-8.07 8.1v.24c0 4.77 3.42 7.98 8.04 7.98zm16.59 0c2.55 0 4.2-1.23 4.98-2.76v2.46h3.63v-15.69h-3.63v9.33c0 2.49-1.71 3.75-3.66 3.75-2.1 0-3.09-1.08-3.09-3.45v-9.63h-3.63v10.05c0 4.17 2.31 5.94 5.4 5.94zm18.24-.03c1.11 0 1.89-.18 2.46-.39v-2.88c-.51.21-1.05.3-1.77.3-1.14 0-1.8-.63-1.8-2.01v-8.25h3.45v-2.73h-3.45v-3.45h-3.63v3.45h-2.1v2.73h2.1v8.58c0 2.97 1.62 4.65 4.74 4.65zm18.21 0c1.11 0 1.89-.18 2.46-.39v-2.88c-.51.21-1.05.3-1.77.3-1.14 0-1.8-.63-1.8-2.01v-8.25h3.45v-2.73h-3.45v-3.45h-3.63v3.45h-2.1v2.73h2.1v8.58c0 2.97 1.62 4.65 4.74 4.65zm5.73-.27h3.63v-9.24c0-2.49 1.65-3.75 3.69-3.75 2.16 0 3.12 1.08 3.12 3.45v9.54h3.63v-9.87c0-4.32-2.22-6.15-5.37-6.15-2.58 0-4.32 1.29-5.07 2.82v-9.75h-3.63zm25.14.3c4.02 0 6.69-1.8 7.2-5.1h-3.51c-.27 1.53-1.41 2.4-3.6 2.4-2.7 0-4.2-1.68-4.32-4.65h11.49v-1.05c0-5.61-3.51-7.92-7.41-7.92-4.47 0-7.8 3.24-7.8 8.1v.24c0 4.95 3.33 7.98 7.95 7.98zm-4.17-9.78c.36-2.43 1.83-3.9 4.02-3.9 2.25 0 3.63 1.2 3.81 3.9zm14.76 9.48h3.63v-15.69h-3.63zm1.77-18.27c1.2 0 2.16-.9 2.16-2.07 0-1.2-.96-2.1-2.16-2.1s-2.16.9-2.16 2.1c0 1.17.96 2.07 2.16 2.07zm6.27 18.27h3.63v-8.16c0-3.33 1.92-4.35 5.1-4.38v-3.39c-2.64.03-4.11 1.2-5.1 3.18v-2.94h-3.63zm19.14 0h3.63v-15.69h-3.63zm1.77-18.27c1.2 0 2.16-.9 2.16-2.07 0-1.2-.96-2.1-2.16-2.1s-2.16.9-2.16 2.1c0 1.17.96 2.07 2.16 2.07zm6.27 18.27h3.63v-9.24c0-2.49 1.65-3.75 3.69-3.75 2.16 0 3.12 1.08 3.12 3.45v9.54h3.63v-9.87c0-4.32-2.22-6.15-5.37-6.15-2.58 0-4.32 1.29-5.07 2.82v-2.49h-3.63zm18.87 0h3.63v-12.96h3.57v-2.73h-3.57v-2.25c0-1.35.6-2.31 2.07-2.31.66 0 1.23.12 1.65.27v-2.82c-.66-.21-1.2-.3-2.07-.3-3.36 0-5.28 1.86-5.28 5.31v2.1h-2.13v2.73h2.13zm10.23 0h3.63v-8.16c0-3.33 1.92-4.35 5.1-4.38v-3.39c-2.64.03-4.11 1.2-5.1 3.18v-2.94h-3.63zm15.72.3c2.4 0 3.78-.87 4.8-2.22v1.92h3.57v-10.29c0-4.29-2.76-5.73-6.27-5.73s-6.42 1.53-6.72 5.19h3.51c.18-1.56 1.11-2.46 3-2.46 2.13 0 2.85 1.05 2.85 3.15v.81h-1.95c-4.5 0-8.04 1.32-8.04 4.98 0 3.27 2.37 4.65 5.25 4.65zm.87-2.61c-1.8 0-2.52-.87-2.52-2.19 0-1.86 1.661104-2.509365 4.274174-2.548134l2.115826-.001866v1.56c0 2.01-1.65 3.18-3.87 3.18zm17.04 2.61c4.02 0 6.27-1.83 6.27-5.01 0-3.33-2.19-4.23-5.88-4.8l-.49067-.087541c-2.099211-.39781-2.74933-.86108-2.74933-1.922459 0-1.11.93-1.86 2.49-1.86 1.68 0 2.49.66 2.79 2.1h3.36c-.39-3.54-2.94-4.74-6.15-4.74-2.94 0-5.88 1.56-5.88 4.71 0 2.8 1.387755 3.994558 5.09621 4.672109l.57379.097891c2.31.39 3.36.87 3.36 2.16 0 1.32-.87 2.01-2.82 2.01-2.13 0-2.94-.93-3.12-2.52h-3.42c.15 3.33 2.52 5.19 6.57 5.19zm14.79-.03c1.11 0 1.89-.18 2.46-.39v-2.88c-.51.21-1.05.3-1.77.3-1.14 0-1.8-.63-1.8-2.01v-8.25h3.45v-2.73h-3.45v-3.45h-3.63v3.45h-2.1v2.73h2.1v8.58c0 2.97 1.62 4.65 4.74 4.65zm5.73-.27h3.63v-8.16c0-3.33 1.92-4.35 5.1-4.38v-3.39c-2.64.03-4.11 1.2-5.1 3.18v-2.94h-3.63zm17.16.3c2.55 0 4.2-1.23 4.98-2.76v2.46h3.63v-15.69h-3.63v9.33c0 2.49-1.71 3.75-3.66 3.75-2.1 0-3.09-1.08-3.09-3.45v-9.63h-3.63v10.05c0 4.17 2.31 5.94 5.4 5.94zm19.77 0c4.26 0 6.99-2.55 7.26-6.15h-3.33c-.21 2.22-1.86 3.36-3.78 3.36-2.597838 0-4.258466-1.704018-4.346332-4.946256l-.003668-.513744c0-3.24 1.77-5.16 4.26-5.16 1.92 0 3.3.87 3.6 2.97h3.51c-.42-4.32-3.69-5.88-7.17-5.88-4.297358 0-7.786116 3.032253-7.916237 7.850077l-.003763.519923c0 5.01 3.42 7.95 7.92 7.95zm15.72-.03c1.11 0 1.89-.18 2.46-.39v-2.88c-.51.21-1.05.3-1.77.3-1.14 0-1.8-.63-1.8-2.01v-8.25h3.45v-2.73h-3.45v-3.45h-3.63v3.45h-2.1v2.73h2.1v8.58c0 2.97 1.62 4.65 4.74 4.65zm10.98.03c2.55 0 4.2-1.23 4.98-2.76v2.46h3.63v-15.69h-3.63v9.33c0 2.49-1.71 3.75-3.66 3.75-2.1 0-3.09-1.08-3.09-3.45v-9.63h-3.63v10.05c0 4.17 2.31 5.94 5.4 5.94zm12.9-.3h3.63v-8.16c0-3.33 1.92-4.35 5.1-4.38v-3.39c-2.64.03-4.11 1.2-5.1 3.18v-2.94h-3.63zm18.51.3c4.02 0 6.69-1.8 7.2-5.1h-3.51c-.27 1.53-1.41 2.4-3.6 2.4-2.7 0-4.2-1.68-4.32-4.65h11.49v-1.05c0-5.61-3.51-7.92-7.41-7.92-4.38566 0-7.673934 3.118889-7.796458 7.826647l-.003542.513353c0 4.95 3.33 7.98 7.95 7.98zm-4.17-9.78c.36-2.43 1.83-3.9 4.02-3.9 2.25 0 3.63 1.2 3.81 3.9zm21 2.28h24.57v-2.52h-24.57zm-732.06 48.96c4.86 0 7.95-2.31 7.98-6.93v-14.52h-3.63v2.4c-.9-1.56-2.46-2.73-5.04-2.73-4.05 0-7.05 3.3-7.05 7.71v.21c0 4.53 3.03 7.47 6.96 7.47 2.31 0 4.26-1.41 5.13-2.91v2.31c0 2.82-1.56 4.23-4.38 4.23-2.37 0-3.57-.9-3.87-2.46h-3.66c.42 3 2.64 5.22 7.56 5.22zm.12-9.18c-2.34 0-4.14-1.8-4.14-4.71v-.24c0-2.85 1.56-4.8 4.26-4.8 2.61 0 4.23 1.77 4.23 4.74v.21c0 3-1.83 4.8-4.35 4.8zm19.2.9c-2.76 0-4.35-2.01-4.35-5.22v-.24c0-3.24 1.65-5.19 4.35-5.19 2.627027 0 4.2316435 1.874419 4.3164606 4.960073l.0035394.469927c0 3.21-1.62 5.22-4.32 5.22zm-.03 2.82c4.5344444 0 7.941821-3.063313 8.0664651-7.800102l.0035349-.509898c0-4.8-3.45-8.01-8.04-8.01-4.62 0-8.07 3.24-8.07 8.1v.24c0 4.77 3.42 7.98 8.04 7.98zm18.36-2.82c-2.76 0-4.35-2.01-4.35-5.22v-.24c0-3.24 1.65-5.19 4.35-5.19 2.627027 0 4.2316435 1.874419 4.3164606 4.960073l.0035394.469927c0 3.21-1.62 5.22-4.32 5.22zm-.03 2.82c4.5344444 0 7.941821-3.063313 8.0664651-7.800102l.0035349-.509898c0-4.8-3.45-8.01-8.04-8.01-4.62 0-8.07 3.24-8.07 8.1v.24c0 4.77 3.42 7.98 8.04 7.98zm17.22 0c2.31 0 4.32-1.38 5.16-2.94v2.64h3.63v-22.95h-3.63v9.66c-.87-1.56-2.46-2.73-5.01-2.73-4.08 0-7.05 3.18-7.05 8.19v.24c0 5.1 2.97 7.89 6.9 7.89zm.9-2.88c-2.34 0-4.08-1.65-4.08-5.1v-.24c0-3.39 1.56-5.25 4.23-5.25 2.64 0 4.23 1.71 4.23 5.16v.24c0 3.51-1.86 5.19-4.38 5.19zm26.37.06c-2.76 0-4.35-2.01-4.35-5.22v-.24c0-3.24 1.65-5.19 4.35-5.19 2.627027 0 4.2316435 1.874419 4.3164606 4.960073l.0035394.469927c0 3.21-1.62 5.22-4.32 5.22zm-.03 2.82c4.5344444 0 7.941821-3.063313 8.0664651-7.800102l.0035349-.509898c0-4.8-3.45-8.01-8.04-8.01-4.62 0-8.07 3.24-8.07 8.1v.24c0 4.77 3.42 7.98 8.04 7.98zm11.34-.3h3.63v-8.16c0-3.33 1.92-4.35 5.1-4.38v-3.39c-2.64.03-4.11 1.2-5.1 3.18v-2.94h-3.63zm27.81.3c4.05 0 6.96-3.06 6.96-8.1v-.24c0-5.07-3.03-7.98-6.96-7.98-2.31 0-4.26 1.35-5.13 2.85v-9.78h-3.63v22.95h3.63v-2.52c.84 1.59 2.64 2.82 5.13 2.82zm-.9-2.88c-2.64 0-4.35-1.65-4.35-5.16v-.24c0-3.48 1.8-5.19 4.32-5.19 2.37 0 4.17 1.71 4.17 5.19v.24c0 3.36-1.47 5.16-4.14 5.16zm15.24 2.88c2.4 0 3.78-.87 4.8-2.22v1.92h3.57v-10.29c0-4.29-2.76-5.73-6.27-5.73s-6.42 1.53-6.72 5.19h3.51c.18-1.56 1.11-2.46 3-2.46 2.13 0 2.85 1.05 2.85 3.15v.81h-1.95c-4.5 0-8.04 1.32-8.04 4.98 0 3.27 2.37 4.65 5.25 4.65zm.87-2.61c-1.8 0-2.52-.87-2.52-2.19 0-1.86 1.661104-2.509365 4.274174-2.548134l2.115826-.001866v1.56c0 2.01-1.65 3.18-3.87 3.18zm17.55 2.61c2.31 0 4.32-1.38 5.16-2.94v2.64h3.63v-22.95h-3.63v9.66c-.87-1.56-2.46-2.73-5.01-2.73-4.08 0-7.05 3.18-7.05 8.19v.24c0 5.1 2.97 7.89 6.9 7.89zm.9-2.88c-2.34 0-4.08-1.65-4.08-5.1v-.24c0-3.39 1.56-5.25 4.23-5.25 2.566667 0 4.140856 1.616319 4.226331 4.876527l.003669.523473c0 3.51-1.86 5.19-4.38 5.19zm14.37 2.79c-1.32 0-2.37-1.02-2.37-2.34s1.05-2.37 2.37-2.37c1.35 0 2.4 1.05 2.4 2.37s-1.05 2.34-2.4 2.34z"/>
      </g>
      <g transform="translate(377 500)">
        <path fill="#565656" d="m38.08 56.51 12.75-48.79-21.59-7.65-24.99 45.9zm42.84 0-33.66-10.54 24.99-45.9 21.42 7.65z"/>
        <path fill="#fff" d="m6.12 100h3.81l4.35-15.63 4.23 15.63h3.99l5.37-21.45h-3.72l-3.84 15.84-4.26-15.84h-3.3l-4.17 15.75-3.72-15.75h-4.08zm30.24.3c4.02 0 6.69-1.8 7.2-5.1h-3.51c-.27 1.53-1.41 2.4-3.6 2.4-2.7 0-4.2-1.68-4.32-4.65h11.49v-1.05c0-5.61-3.51-7.92-7.41-7.92-4.47 0-7.8 3.24-7.8 8.1v.24c0 4.95 3.33 7.98 7.95 7.98zm-4.17-9.78c.36-2.43 1.83-3.9 4.02-3.9 2.25 0 3.63 1.2 3.81 3.9zm25.92 9.78c2.4 0 3.78-.87 4.8-2.22v1.92h3.57v-10.29c0-4.29-2.76-5.73-6.27-5.73s-6.42 1.53-6.72 5.19h3.51c.18-1.56 1.11-2.46 3-2.46 2.13 0 2.85 1.05 2.85 3.15v.81h-1.95c-4.5 0-8.04 1.32-8.04 4.98 0 3.27 2.37 4.65 5.25 4.65zm.87-2.61c-1.8 0-2.52-.87-2.52-2.19 0-1.86 1.6611035-2.509365 4.2741742-2.548134l2.1158258-.001866v1.56c0 2.01-1.65 3.18-3.87 3.18zm11.67 2.31h3.63v-8.16c0-3.33 1.92-4.35 5.1-4.38v-3.39c-2.64.03-4.11 1.2-5.1 3.18v-2.94h-3.63zm18.51.3c4.02 0 6.69-1.8 7.2-5.1h-3.51c-.27 1.53-1.41 2.4-3.6 2.4-2.7 0-4.2-1.68-4.32-4.65h11.49v-1.05c0-5.61-3.51-7.92-7.41-7.92-4.3856604 0-7.6739338 3.118889-7.7964583 7.826647l-.0035417.513353c0 4.95 3.33 7.98 7.95 7.98zm-4.17-9.78c.36-2.43 1.83-3.9 4.02-3.9 2.25 0 3.63 1.2 3.81 3.9zm25.92 9.78c2.4 0 3.78-.87 4.8-2.22v1.92h3.57v-10.29c0-4.29-2.76-5.73-6.27-5.73s-6.42 1.53-6.72 5.19h3.51c.18-1.56 1.11-2.46 3-2.46 2.13 0 2.85 1.05 2.85 3.15v.81h-1.95c-4.5 0-8.04 1.32-8.04 4.98 0 3.27 2.37 4.65 5.25 4.65zm.87-2.61c-1.8 0-2.52-.87-2.52-2.19 0-1.86 1.661104-2.509365 4.274174-2.548134l2.115826-.001866v1.56c0 2.01-1.65 3.18-3.87 3.18zm19.11 2.31h8.25c4.609787 0 7.236722-1.925378 7.34642-5.748008l.00358-.371992c0-2.85-1.38-4.44-4.29-5.07 2.346207-.724138 3.322045-2.315244 3.386555-4.34128l.003445-.33872c0-3.9-2.61-5.58-7.02-5.58h-7.68zm3.9-2.85v-6.87h3.6c2.94 0 4.17 1.11 4.17 3.33v.12c0 2.22-1.23 3.42-3.9 3.42zm0-9.57v-6.18h3.24c2.467742 0 3.64308.8147763 3.716341 2.716223l.003659.313777c0 2.19-1.02 3.15-3.66 3.15zm20.4 12.72c2.55 0 4.2-1.23 4.98-2.76v2.46h3.63v-15.69h-3.63v9.33c0 2.49-1.71 3.75-3.66 3.75-2.1 0-3.09-1.08-3.09-3.45v-9.63h-3.63v10.05c0 4.17 2.31 5.94 5.4 5.94zm18.27 0c4.02 0 6.27-1.83 6.27-5.01 0-3.33-2.19-4.23-5.88-4.8l-.49067-.087541c-2.099211-.39781-2.74933-.86108-2.74933-1.922459 0-1.11.93-1.86 2.49-1.86 1.68 0 2.49.66 2.79 2.1h3.36c-.39-3.54-2.94-4.74-6.15-4.74-2.94 0-5.88 1.56-5.88 4.71 0 2.8 1.387755 3.994558 5.09621 4.672109l.57379.097891c2.31.39 3.36.87 3.36 2.16 0 1.32-.87 2.01-2.82 2.01-2.13 0-2.94-.93-3.12-2.52h-3.42c.15 3.33 2.52 5.19 6.57 5.19zm9.54-.3h3.63v-15.69h-3.63zm1.77-18.27c1.2 0 2.16-.9 2.16-2.07 0-1.2-.96-2.1-2.16-2.1s-2.16.9-2.16 2.1c0 1.17.96 2.07 2.16 2.07zm6.27 18.27h3.63v-9.24c0-2.49 1.65-3.75 3.69-3.75 2.16 0 3.12 1.08 3.12 3.45v9.54h3.63v-9.87c0-4.32-2.22-6.15-5.37-6.15-2.58 0-4.32 1.29-5.07 2.82v-2.49h-3.63zm25.14.3c4.02 0 6.69-1.8 7.2-5.1h-3.51c-.27 1.53-1.41 2.4-3.6 2.4-2.7 0-4.2-1.68-4.32-4.65h11.49v-1.05c0-5.61-3.51-7.92-7.41-7.92-4.38566 0-7.673934 3.118889-7.796458 7.826647l-.003542.513353c0 4.95 3.33 7.98 7.95 7.98zm-4.17-9.78c.36-2.43 1.83-3.9 4.02-3.9 2.25 0 3.63 1.2 3.81 3.9zm20.19 9.78c4.02 0 6.27-1.83 6.27-5.01 0-3.33-2.19-4.23-5.88-4.8l-.49067-.087541c-2.099211-.39781-2.74933-.86108-2.74933-1.922459 0-1.11.93-1.86 2.49-1.86 1.68 0 2.49.66 2.79 2.1h3.36c-.39-3.54-2.94-4.74-6.15-4.74-2.94 0-5.88 1.56-5.88 4.71 0 2.8 1.387755 3.994558 5.09621 4.672109l.57379.097891c2.31.39 3.36.87 3.36 2.16 0 1.32-.87 2.01-2.82 2.01-2.13 0-2.94-.93-3.12-2.52h-3.42c.15 3.33 2.52 5.19 6.57 5.19zm14.82 0c4.02 0 6.27-1.83 6.27-5.01 0-3.33-2.19-4.23-5.88-4.8l-.49067-.087541c-2.099211-.39781-2.74933-.86108-2.74933-1.922459 0-1.11.93-1.86 2.49-1.86 1.68 0 2.49.66 2.79 2.1h3.36c-.39-3.54-2.94-4.74-6.15-4.74-2.94 0-5.88 1.56-5.88 4.71 0 2.8 1.387755 3.994558 5.09621 4.672109l.57379.097891c2.31.39 3.36.87 3.36 2.16 0 1.32-.87 2.01-2.82 2.01-2.13 0-2.94-.93-3.12-2.52h-3.42c.15 3.33 2.52 5.19 6.57 5.19zm8.97-7.17h7.2v-3h-7.2zm16.41 7.14c1.11 0 1.89-.18 2.46-.39v-2.88c-.51.21-1.05.3-1.77.3-1.14 0-1.8-.63-1.8-2.01v-8.25h3.45v-2.73h-3.45v-3.45h-3.63v3.45h-2.1v2.73h2.1v8.58c0 2.97 1.62 4.65 4.74 4.65zm12.75-2.79c-2.76 0-4.35-2.01-4.35-5.22v-.24c0-3.24 1.65-5.19 4.35-5.19 2.627027 0 4.231644 1.874419 4.316461 4.960073l.003539.469927c0 3.21-1.62 5.22-4.32 5.22zm-.03 2.82c4.534444 0 7.941821-3.063313 8.066465-7.800102l.003535-.509898c0-4.8-3.45-8.01-8.04-8.01-4.62 0-8.07 3.24-8.07 8.1v.24c0 4.77 3.42 7.98 8.04 7.98zm10.86-7.17h7.2v-3h-7.2zm11.37 6.87h3.99v-9.12h9.63v9.12h4.02v-21.45h-4.02v9.12h-9.63v-9.12h-3.99zm27.33.3c2.55 0 4.2-1.23 4.98-2.76v2.46h3.63v-15.69h-3.63v9.33c0 2.49-1.71 3.75-3.66 3.75-2.1 0-3.09-1.08-3.09-3.45v-9.63h-3.63v10.05c0 4.17 2.31 5.94 5.4 5.94zm12.9-.3h3.63v-9.39c0-2.4 1.65-3.6 3.45-3.6 1.77 0 2.79.99 2.79 3.3v9.69h3.63v-9.39c0-2.4 1.65-3.6 3.45-3.6s2.79.99 2.79 3.3v9.69h3.63v-9.93c0-4.32-2.34-6.09-5.22-6.09-1.95 0-4.11.87-5.31 2.82-.78-1.95-2.4-2.82-4.44-2.82-2.31 0-4.02 1.26-4.77 2.73v-2.4h-3.63zm31.65.3c2.4 0 3.78-.87 4.8-2.22v1.92h3.57v-10.29c0-4.29-2.76-5.73-6.27-5.73s-6.42 1.53-6.72 5.19h3.51c.18-1.56 1.11-2.46 3-2.46 2.13 0 2.85 1.05 2.85 3.15v.81h-1.95c-4.5 0-8.04 1.32-8.04 4.98 0 3.27 2.37 4.65 5.25 4.65zm.87-2.61c-1.8 0-2.52-.87-2.52-2.19 0-1.86 1.661104-2.509365 4.274174-2.548134l2.115826-.001866v1.56c0 2.01-1.65 3.18-3.87 3.18zm11.67 2.31h3.63v-9.24c0-2.49 1.65-3.75 3.69-3.75 2.16 0 3.12 1.08 3.12 3.45v9.54h3.63v-9.87c0-4.32-2.22-6.15-5.37-6.15-2.58 0-4.32 1.29-5.07 2.82v-2.49h-3.63zm32.4-2.52c-2.76 0-4.35-2.01-4.35-5.22v-.24c0-3.24 1.65-5.19 4.35-5.19 2.627027 0 4.231644 1.874419 4.316461 4.960073l.003539.469927c0 3.21-1.62 5.22-4.32 5.22zm-.03 2.82c4.534444 0 7.941821-3.063313 8.066465-7.800102l.003535-.509898c0-4.8-3.45-8.01-8.04-8.01-4.62 0-8.07 3.24-8.07 8.1v.24c0 4.77 3.42 7.98 8.04 7.98zm11.34-.3h3.63v-8.16c0-3.33 1.92-4.35 5.1-4.38v-3.39c-2.64.03-4.11 1.2-5.1 3.18v-2.94h-3.63zm18.3 5.76c4.86 0 7.95-2.31 7.98-6.93v-14.52h-3.63v2.4c-.9-1.56-2.46-2.73-5.04-2.73-4.05 0-7.05 3.3-7.05 7.71v.21c0 4.53 3.03 7.47 6.96 7.47 2.31 0 4.26-1.41 5.13-2.91v2.31c0 2.82-1.56 4.23-4.38 4.23-2.37 0-3.57-.9-3.87-2.46h-3.66c.42 3 2.64 5.22 7.56 5.22zm.12-9.18c-2.34 0-4.14-1.8-4.14-4.71v-.24c0-2.85 1.56-4.8 4.26-4.8 2.535429 0 4.13662 1.670302 4.226047 4.488381l.003953.461619c0 3-1.83 4.8-4.35 4.8zm16.29 3.72c2.4 0 3.78-.87 4.8-2.22v1.92h3.57v-10.29c0-4.29-2.76-5.73-6.27-5.73s-6.42 1.53-6.72 5.19h3.51c.18-1.56 1.11-2.46 3-2.46 2.13 0 2.85 1.05 2.85 3.15v.81h-1.95c-4.5 0-8.04 1.32-8.04 4.98 0 3.27 2.37 4.65 5.25 4.65zm.87-2.61c-1.8 0-2.52-.87-2.52-2.19 0-1.86 1.661104-2.509365 4.274174-2.548134l2.115826-.001866v1.56c0 2.01-1.65 3.18-3.87 3.18zm11.67 2.31h3.63v-9.24c0-2.49 1.65-3.75 3.69-3.75 2.16 0 3.12 1.08 3.12 3.45v9.54h3.63v-9.87c0-4.32-2.22-6.15-5.37-6.15-2.58 0-4.32 1.29-5.07 2.82v-2.49h-3.63zm18.33 0h3.63v-15.69h-3.63zm1.77-18.27c1.2 0 2.16-.9 2.16-2.07 0-1.2-.96-2.1-2.16-2.1s-2.16.9-2.16 2.1c0 1.17.96 2.07 2.16 2.07zm4.62 18.27h13.44v-2.91h-8.04l8.28-12.27v-.51h-12.87v2.88h7.5l-8.31 12.39zm20.7.3c2.4 0 3.78-.87 4.8-2.22v1.92h3.57v-10.29c0-4.29-2.76-5.73-6.27-5.73s-6.42 1.53-6.72 5.19h3.51c.18-1.56 1.11-2.46 3-2.46 2.13 0 2.85 1.05 2.85 3.15v.81h-1.95c-4.5 0-8.04 1.32-8.04 4.98 0 3.27 2.37 4.65 5.25 4.65zm.87-2.61c-1.8 0-2.52-.87-2.52-2.19 0-1.86 1.661104-2.509365 4.274174-2.548134l2.115826-.001866v1.56c0 2.01-1.65 3.18-3.87 3.18zm17.01 2.58c1.11 0 1.89-.18 2.46-.39v-2.88c-.51.21-1.05.3-1.77.3-1.14 0-1.8-.63-1.8-2.01v-8.25h3.45v-2.73h-3.45v-3.45h-3.63v3.45h-2.1v2.73h2.1v8.58c0 2.97 1.62 4.65 4.74 4.65zm5.82-.27h3.63v-15.69h-3.63zm1.77-18.27c1.2 0 2.16-.9 2.16-2.07 0-1.2-.96-2.1-2.16-2.1s-2.16.9-2.16 2.1c0 1.17.96 2.07 2.16 2.07zm13.29 15.75c-2.76 0-4.35-2.01-4.35-5.22v-.24c0-3.24 1.65-5.19 4.35-5.19 2.627027 0 4.231644 1.874419 4.316461 4.960073l.003539.469927c0 3.21-1.62 5.22-4.32 5.22zm-.03 2.82c4.534444 0 7.941821-3.063313 8.066465-7.800102l.003535-.509898c0-4.8-3.45-8.01-8.04-8.01-4.62 0-8.07 3.24-8.07 8.1v.24c0 4.77 3.42 7.98 8.04 7.98zm11.34-.3h3.63v-9.24c0-2.49 1.65-3.75 3.69-3.75 2.16 0 3.12 1.08 3.12 3.45v9.54h3.63v-9.87c0-4.32-2.22-6.15-5.37-6.15-2.58 0-4.32 1.29-5.07 2.82v-2.49h-3.63zm19.17 3.69 3.93-6.72-3.45-1.38-2.73 7.11zm20.34-3.39c4.02 0 6.27-1.83 6.27-5.01 0-3.33-2.19-4.23-5.88-4.8l-.49067-.087541c-2.099211-.39781-2.74933-.86108-2.74933-1.922459 0-1.11.93-1.86 2.49-1.86 1.68 0 2.49.66 2.79 2.1h3.36c-.39-3.54-2.94-4.74-6.15-4.74-2.94 0-5.88 1.56-5.88 4.71 0 2.8 1.387755 3.994558 5.09621 4.672109l.57379.097891c2.31.39 3.36.87 3.36 2.16 0 1.32-.87 2.01-2.82 2.01-2.13 0-2.94-.93-3.12-2.52h-3.42c.15 3.33 2.52 5.19 6.57 5.19zm16.47-2.82c-2.76 0-4.35-2.01-4.35-5.22v-.24c0-3.24 1.65-5.19 4.35-5.19s4.32 1.98 4.32 5.22v.21c0 3.21-1.62 5.22-4.32 5.22zm-.03 2.82c4.62 0 8.07-3.18 8.07-8.07v-.24c0-4.8-3.45-8.01-8.04-8.01-4.534444 0-7.941821 3.121111-8.066465 7.831677l-.003535.508323c0 4.77 3.42 7.98 8.04 7.98zm21.72-.3h3.72l3.18-10.56 2.91 10.56h3.69l4.92-15.69h-3.54l-3.27 11.34-3.06-11.34h-3.03l-3.33 11.34-3.12-11.34h-3.87zm27.63.3c4.02 0 6.69-1.8 7.2-5.1h-3.51c-.27 1.53-1.41 2.4-3.6 2.4-2.7 0-4.2-1.68-4.32-4.65h11.49v-1.05c0-5.61-3.51-7.92-7.41-7.92-4.38566 0-7.673934 3.118889-7.796458 7.826647l-.003542.513353c0 4.95 3.33 7.98 7.95 7.98zm-4.17-9.78c.36-2.43 1.83-3.9 4.02-3.9 2.25 0 3.63 1.2 3.81 3.9zm-677.1 45.48h3.63v-15.69h-3.63zm1.77-18.27c1.2 0 2.16-.9 2.16-2.07 0-1.2-.96-2.1-2.16-2.1s-2.16.9-2.16 2.1c0 1.17.96 2.07 2.16 2.07zm6.27 18.27h3.63v-9.24c0-2.49 1.65-3.75 3.69-3.75 2.16 0 3.12 1.08 3.12 3.45v9.54h3.63v-9.87c0-4.32-2.22-6.15-5.37-6.15-2.58 0-4.32 1.29-5.07 2.82v-2.49h-3.63zm22.05 0h4.23l5.67-15.69h-3.57l-4.05 11.97-4.11-11.97h-3.9zm18.9.3c4.02 0 6.69-1.8 7.2-5.1h-3.51c-.27 1.53-1.41 2.4-3.6 2.4-2.7 0-4.2-1.68-4.32-4.65h11.49v-1.05c0-5.61-3.51-7.92-7.41-7.92-4.47 0-7.8 3.24-7.8 8.1v.24c0 4.95 3.33 7.98 7.95 7.98zm-4.17-9.78c.36-2.43 1.83-3.9 4.02-3.9 2.25 0 3.63 1.2 3.81 3.9zm20.19 9.78c4.02 0 6.27-1.83 6.27-5.01 0-3.33-2.19-4.23-5.88-4.8l-.4906696-.087541c-2.0992115-.39781-2.7493304-.86108-2.7493304-1.922459 0-1.11.93-1.86 2.49-1.86 1.68 0 2.49.66 2.79 2.1h3.36c-.39-3.54-2.94-4.74-6.15-4.74-2.94 0-5.88 1.56-5.88 4.71 0 2.8 1.3877551 3.994558 5.0962099 4.672109l.5737901.097891c2.31.39 3.36.87 3.36 2.16 0 1.32-.87 2.01-2.82 2.01-2.13 0-2.94-.93-3.12-2.52h-3.42c.15 3.33 2.52 5.19 6.57 5.19zm14.79-.03c1.11 0 1.89-.18 2.46-.39v-2.88c-.51.21-1.05.3-1.77.3-1.14 0-1.8-.63-1.8-2.01v-8.25h3.45v-2.73h-3.45v-3.45h-3.63v3.45h-2.1v2.73h2.1v8.58c0 2.97 1.62 4.65 4.74 4.65zm12.96-.27h3.63v-15.69h-3.63zm1.77-18.27c1.2 0 2.16-.9 2.16-2.07 0-1.2-.96-2.1-2.16-2.1s-2.16.9-2.16 2.1c0 1.17.96 2.07 2.16 2.07zm6.27 18.27h3.63v-9.24c0-2.49 1.65-3.75 3.69-3.75 2.16 0 3.12 1.08 3.12 3.45v9.54h3.63v-9.87c0-4.32-2.22-6.15-5.37-6.15-2.58 0-4.32 1.29-5.07 2.82v-2.49h-3.63zm32.4-2.52c-2.76 0-4.35-2.01-4.35-5.22v-.24c0-3.24 1.65-5.19 4.35-5.19 2.627027 0 4.231644 1.874419 4.316461 4.960073l.003539.469927c0 3.21-1.62 5.22-4.32 5.22zm-.03 2.82c4.534444 0 7.941821-3.063313 8.066465-7.800102l.003535-.509898c0-4.8-3.45-8.01-8.04-8.01-4.62 0-8.07 3.24-8.07 8.1v.24c0 4.77 3.42 7.98 8.04 7.98zm16.59 0c2.55 0 4.2-1.23 4.98-2.76v2.46h3.63v-15.69h-3.63v9.33c0 2.49-1.71 3.75-3.66 3.75-2.1 0-3.09-1.08-3.09-3.45v-9.63h-3.63v10.05c0 4.17 2.31 5.94 5.4 5.94zm12.9-.3h3.63v-8.16c0-3.33 1.92-4.35 5.1-4.38v-3.39c-2.64.03-4.11 1.2-5.1 3.18v-2.94h-3.63zm25.92.3c4.26 0 6.99-2.55 7.26-6.15h-3.33c-.21 2.22-1.86 3.36-3.78 3.36-2.597838 0-4.258466-1.704018-4.346332-4.946256l-.003668-.513744c0-3.24 1.77-5.16 4.26-5.16 1.92 0 3.3.87 3.6 2.97h3.51c-.42-4.32-3.69-5.88-7.17-5.88-4.297358 0-7.786116 3.032253-7.916237 7.850077l-.003763.519923c0 5.01 3.42 7.95 7.92 7.95zm15.63 0c2.55 0 4.2-1.23 4.98-2.76v2.46h3.63v-15.69h-3.63v9.33c0 2.49-1.71 3.75-3.66 3.75-2.1 0-3.09-1.08-3.09-3.45v-9.63h-3.63v10.05c0 4.17 2.31 5.94 5.4 5.94zm18.27 0c4.02 0 6.27-1.83 6.27-5.01 0-3.33-2.19-4.23-5.88-4.8l-.49067-.087541c-2.099211-.39781-2.74933-.86108-2.74933-1.922459 0-1.11.93-1.86 2.49-1.86 1.68 0 2.49.66 2.79 2.1h3.36c-.39-3.54-2.94-4.74-6.15-4.74-2.94 0-5.88 1.56-5.88 4.71 0 2.8 1.387755 3.994558 5.09621 4.672109l.57379.097891c2.31.39 3.36.87 3.36 2.16 0 1.32-.87 2.01-2.82 2.01-2.13 0-2.94-.93-3.12-2.52h-3.42c.15 3.33 2.52 5.19 6.57 5.19zm14.79-.03c1.11 0 1.89-.18 2.46-.39v-2.88c-.51.21-1.05.3-1.77.3-1.14 0-1.8-.63-1.8-2.01v-8.25h3.45v-2.73h-3.45v-3.45h-3.63v3.45h-2.1v2.73h2.1v8.58c0 2.97 1.62 4.65 4.74 4.65zm12.75-2.79c-2.76 0-4.35-2.01-4.35-5.22v-.24c0-3.24 1.65-5.19 4.35-5.19 2.627027 0 4.231644 1.874419 4.316461 4.960073l.003539.469927c0 3.21-1.62 5.22-4.32 5.22zm-.03 2.82c4.534444 0 7.941821-3.063313 8.066465-7.800102l.003535-.509898c0-4.8-3.45-8.01-8.04-8.01-4.62 0-8.07 3.24-8.07 8.1v.24c0 4.77 3.42 7.98 8.04 7.98zm11.34-.3h3.63v-9.39c0-2.4 1.65-3.6 3.45-3.6 1.77 0 2.79.99 2.79 3.3v9.69h3.63v-9.39c0-2.4 1.65-3.6 3.45-3.6s2.79.99 2.79 3.3v9.69h3.63v-9.93c0-4.32-2.34-6.09-5.22-6.09-1.95 0-4.11.87-5.31 2.82-.78-1.95-2.4-2.82-4.44-2.82-2.31 0-4.02 1.26-4.77 2.73v-2.4h-3.63zm34.44.3c4.02 0 6.69-1.8 7.2-5.1h-3.51c-.27 1.53-1.41 2.4-3.6 2.4-2.7 0-4.2-1.68-4.32-4.65h11.49v-1.05c0-5.61-3.51-7.92-7.41-7.92-4.38566 0-7.673934 3.118889-7.796458 7.826647l-.003542.513353c0 4.95 3.33 7.98 7.95 7.98zm-4.17-9.78c.36-2.43 1.83-3.9 4.02-3.9 2.25 0 3.63 1.2 3.81 3.9zm14.67 9.48h3.63v-8.16c0-3.33 1.92-4.35 5.1-4.38v-3.39c-2.64.03-4.11 1.2-5.1 3.18v-2.94h-3.63zm17.28.3c4.02 0 6.27-1.83 6.27-5.01 0-3.33-2.19-4.23-5.88-4.8l-.49067-.087541c-2.099211-.39781-2.74933-.86108-2.74933-1.922459 0-1.11.93-1.86 2.49-1.86 1.68 0 2.49.66 2.79 2.1h3.36c-.39-3.54-2.94-4.74-6.15-4.74-2.94 0-5.88 1.56-5.88 4.71 0 2.8 1.387755 3.994558 5.09621 4.672109l.57379.097891c2.31.39 3.36.87 3.36 2.16 0 1.32-.87 2.01-2.82 2.01-2.13 0-2.94-.93-3.12-2.52h-3.42c.15 3.33 2.52 5.19 6.57 5.19zm23.28 5.46c4.86 0 7.95-2.31 7.98-6.93v-14.52h-3.63v2.4c-.9-1.56-2.46-2.73-5.04-2.73-3.969 0-6.92958 3.16932-7.046416 7.44675l-.003584.47325c0 4.53 3.03 7.47 6.96 7.47 2.31 0 4.26-1.41 5.13-2.91v2.31c0 2.82-1.56 4.23-4.38 4.23-2.37 0-3.57-.9-3.87-2.46h-3.66c.42 3 2.64 5.22 7.56 5.22zm.12-9.18c-2.34 0-4.14-1.8-4.14-4.71v-.24c0-2.85 1.56-4.8 4.26-4.8 2.535429 0 4.13662 1.670302 4.226047 4.488381l.003953.461619c0 3-1.83 4.8-4.35 4.8zm19.08 3.72c4.02 0 6.69-1.8 7.2-5.1h-3.51c-.27 1.53-1.41 2.4-3.6 2.4-2.7 0-4.2-1.68-4.32-4.65h11.49v-1.05c0-5.61-3.51-7.92-7.41-7.92-4.38566 0-7.673934 3.118889-7.796458 7.826647l-.003542.513353c0 4.95 3.33 7.98 7.95 7.98zm-4.17-9.78c.36-2.43 1.83-3.9 4.02-3.9 2.25 0 3.63 1.2 3.81 3.9zm20.01 9.75c1.11 0 1.89-.18 2.46-.39v-2.88c-.51.21-1.05.3-1.77.3-1.14 0-1.8-.63-1.8-2.01v-8.25h3.45v-2.73h-3.45v-3.45h-3.63v3.45h-2.1v2.73h2.1v8.58c0 2.97 1.62 4.65 4.74 4.65zm11.07 0c1.11 0 1.89-.18 2.46-.39v-2.88c-.51.21-1.05.3-1.77.3-1.14 0-1.8-.63-1.8-2.01v-8.25h3.45v-2.73h-3.45v-3.45h-3.63v3.45h-2.1v2.73h2.1v8.58c0 2.97 1.62 4.65 4.74 4.65zm5.82-.27h3.63v-15.69h-3.63zm1.77-18.27c1.2 0 2.16-.9 2.16-2.07 0-1.2-.96-2.1-2.16-2.1s-2.16.9-2.16 2.1c0 1.17.96 2.07 2.16 2.07zm6.27 18.27h3.63v-9.24c0-2.49 1.65-3.75 3.69-3.75 2.16 0 3.12 1.08 3.12 3.45v9.54h3.63v-9.87c0-4.32-2.22-6.15-5.37-6.15-2.58 0-4.32 1.29-5.07 2.82v-2.49h-3.63zm24.93 5.76c4.86 0 7.95-2.31 7.98-6.93v-14.52h-3.63v2.4c-.9-1.56-2.46-2.73-5.04-2.73-4.05 0-7.05 3.3-7.05 7.71v.21c0 4.53 3.03 7.47 6.96 7.47 2.31 0 4.26-1.41 5.13-2.91v2.31c0 2.82-1.56 4.23-4.38 4.23-2.37 0-3.57-.9-3.87-2.46h-3.66c.42 3 2.64 5.22 7.56 5.22zm.12-9.18c-2.34 0-4.14-1.8-4.14-4.71v-.24c0-2.85 1.56-4.8 4.26-4.8 2.535429 0 4.13662 1.670302 4.226047 4.488381l.003953.461619c0 3-1.83 4.8-4.35 4.8zm19.32 8.79h3.63v-7.83c.84 1.53 2.64 2.76 5.13 2.76 3.970588 0 6.845444-2.941176 6.956657-7.805821l.003343-.534179c0-5.07-3.03-7.98-6.96-7.98-2.31 0-4.26 1.35-5.13 2.85v-2.52h-3.63zm7.86-7.95c-2.64 0-4.35-1.65-4.35-5.16v-.24c0-3.48 1.8-5.19 4.32-5.19 2.37 0 4.17 1.71 4.17 5.19v.24c0 3.36-1.47 5.16-4.14 5.16zm15.24 2.88c2.4 0 3.78-.87 4.8-2.22v1.92h3.57v-10.29c0-4.29-2.76-5.73-6.27-5.73s-6.42 1.53-6.72 5.19h3.51c.18-1.56 1.11-2.46 3-2.46 2.13 0 2.85 1.05 2.85 3.15v.81h-1.95c-4.5 0-8.04 1.32-8.04 4.98 0 3.27 2.37 4.65 5.25 4.65zm.87-2.61c-1.8 0-2.52-.87-2.52-2.19 0-1.86 1.661104-2.509365 4.274174-2.548134l2.115826-.001866v1.56c0 2.01-1.65 3.18-3.87 3.18zm11.67 2.31h3.63v-8.16c0-3.33 1.92-4.35 5.1-4.38v-3.39c-2.64.03-4.11 1.2-5.1 3.18v-2.94h-3.63zm17.4.27c1.11 0 1.89-.18 2.46-.39v-2.88c-.51.21-1.05.3-1.77.3-1.14 0-1.8-.63-1.8-2.01v-8.25h3.45v-2.73h-3.45v-3.45h-3.63v3.45h-2.1v2.73h2.1v8.58c0 2.97 1.62 4.65 4.74 4.65zm19.89-2.79c-2.76 0-4.35-2.01-4.35-5.22v-.24c0-3.24 1.65-5.19 4.35-5.19 2.627027 0 4.231644 1.874419 4.316461 4.960073l.003539.469927c0 3.21-1.62 5.22-4.32 5.22zm-.03 2.82c4.534444 0 7.941821-3.063313 8.066465-7.800102l.003535-.509898c0-4.8-3.45-8.01-8.04-8.01-4.62 0-8.07 3.24-8.07 8.1v.24c0 4.77 3.42 7.98 8.04 7.98zm11.97-.3h3.63v-12.96h3.57v-2.73h-3.57v-2.25c0-1.35.6-2.31 2.07-2.31.66 0 1.23.12 1.65.27v-2.82c-.66-.21-1.2-.3-2.07-.3-3.36 0-5.28 1.86-5.28 5.31v2.1h-2.13v2.73h2.13zm22.71.27c1.11 0 1.89-.18 2.46-.39v-2.88c-.51.21-1.05.3-1.77.3-1.14 0-1.8-.63-1.8-2.01v-8.25h3.45v-2.73h-3.45v-3.45h-3.63v3.45h-2.1v2.73h2.1v8.58c0 2.97 1.62 4.65 4.74 4.65zm5.73-.27h3.63v-9.24c0-2.49 1.65-3.75 3.69-3.75 2.16 0 3.12 1.08 3.12 3.45v9.54h3.63v-9.87c0-4.32-2.22-6.15-5.37-6.15-2.58 0-4.32 1.29-5.07 2.82v-9.75h-3.63zm25.14.3c4.02 0 6.69-1.8 7.2-5.1h-3.51c-.27 1.53-1.41 2.4-3.6 2.4-2.7 0-4.2-1.68-4.32-4.65h11.49v-1.05c0-5.61-3.51-7.92-7.41-7.92-4.38566 0-7.673934 3.118889-7.796458 7.826647l-.003542.513353c0 4.95 3.33 7.98 7.95 7.98zm-4.17-9.78c.36-2.43 1.83-3.9 4.02-3.9 2.25 0 3.63 1.2 3.81 3.9zm14.76 9.48h3.63v-15.69h-3.63zm1.77-18.27c1.2 0 2.16-.9 2.16-2.07 0-1.2-.96-2.1-2.16-2.1s-2.16.9-2.16 2.1c0 1.17.96 2.07 2.16 2.07zm6.27 18.27h3.63v-8.16c0-3.33 1.92-4.35 5.1-4.38v-3.39c-2.64.03-4.11 1.2-5.1 3.18v-2.94h-3.63zm19.14 0h3.63v-22.95h-3.63zm8.13 0h3.63v-15.69h-3.63zm1.77-18.27c1.2 0 2.16-.9 2.16-2.07 0-1.2-.96-2.1-2.16-2.1s-2.16.9-2.16 2.1c0 1.17.96 2.07 2.16 2.07zm6.9 18.27h3.63v-12.96h3.57v-2.73h-3.57v-2.25c0-1.35.6-2.31 2.07-2.31.66 0 1.23.12 1.65.27v-2.82c-.66-.21-1.2-.3-2.07-.3-3.36 0-5.28 1.86-5.28 5.31v2.1h-2.13v2.73h2.13zm16.53.3c4.02 0 6.69-1.8 7.2-5.1h-3.51c-.27 1.53-1.41 2.4-3.6 2.4-2.7 0-4.2-1.68-4.32-4.65h11.49v-1.05c0-5.61-3.51-7.92-7.41-7.92-4.38566 0-7.673934 3.118889-7.796458 7.826647l-.003542.513353c0 4.95 3.33 7.98 7.95 7.98zm-4.17-9.78c.36-2.43 1.83-3.9 4.02-3.9 2.25 0 3.63 1.2 3.81 3.9zm30.57 9.78c3.970588 0 6.845444-2.941176 6.956657-7.805821l.003343-.534179c0-5.07-3.03-7.98-6.96-7.98-2.31 0-4.26 1.35-5.13 2.85v-9.78h-3.63v22.95h3.63v-2.52c.84 1.59 2.64 2.82 5.13 2.82zm-.9-2.88c-2.64 0-4.35-1.65-4.35-5.16v-.24c0-3.48 1.8-5.19 4.32-5.19 2.37 0 4.17 1.71 4.17 5.19v.24c0 3.36-1.47 5.16-4.14 5.16zm15.24 2.88c2.4 0 3.78-.87 4.8-2.22v1.92h3.57v-10.29c0-4.29-2.76-5.73-6.27-5.73s-6.42 1.53-6.72 5.19h3.51c.18-1.56 1.11-2.46 3-2.46 2.13 0 2.85 1.05 2.85 3.15v.81h-1.95c-4.5 0-8.04 1.32-8.04 4.98 0 3.27 2.37 4.65 5.25 4.65zm.87-2.61c-1.8 0-2.52-.87-2.52-2.19 0-1.86 1.661104-2.509365 4.274174-2.548134l2.115826-.001866v1.56c0 2.01-1.65 3.18-3.87 3.18zm18.54 2.61c4.26 0 6.99-2.55 7.26-6.15h-3.33c-.21 2.22-1.86 3.36-3.78 3.36-2.597838 0-4.258466-1.704018-4.346332-4.946256l-.003668-.513744c0-3.24 1.77-5.16 4.26-5.16 1.92 0 3.3.87 3.6 2.97h3.51c-.42-4.32-3.69-5.88-7.17-5.88-4.38 0-7.92 3.15-7.92 8.13v.24c0 5.01 3.42 7.95 7.92 7.95zm10.38-.3h3.63v-7.71l5.88 7.71h4.2l-6.6-8.49 6.09-7.2h-3.96l-5.61 6.9v-14.16h-3.63zm-726 36.27c1.11 0 1.89-.18 2.46-.39v-2.88c-.51.21-1.05.3-1.77.3-1.14 0-1.8-.63-1.8-2.01v-8.25h3.45v-2.73h-3.45v-3.45h-3.63v3.45h-2.1v2.73h2.1v8.58c0 2.97 1.62 4.65 4.74 4.65zm5.73-.27h3.63v-9.24c0-2.49 1.65-3.75 3.69-3.75 2.16 0 3.12 1.08 3.12 3.45v9.54h3.63v-9.87c0-4.32-2.22-6.15-5.37-6.15-2.58 0-4.32 1.29-5.07 2.82v-9.75h-3.63zm18.24 0h3.63v-8.16c0-3.33 1.92-4.35 5.1-4.38v-3.39c-2.64.03-4.11 1.2-5.1 3.18v-2.94h-3.63zm18.63-2.52c-2.76 0-4.35-2.01-4.35-5.22v-.24c0-3.24 1.65-5.19 4.35-5.19s4.32 1.98 4.32 5.22v.21c0 3.21-1.62 5.22-4.32 5.22zm-.03 2.82c4.62 0 8.07-3.18 8.07-8.07v-.24c0-4.8-3.45-8.01-8.04-8.01-4.62 0-8.07 3.24-8.07 8.1v.24c0 4.77 3.42 7.98 8.04 7.98zm16.59 0c2.55 0 4.2-1.23 4.98-2.76v2.46h3.63v-15.69h-3.63v9.33c0 2.49-1.71 3.75-3.66 3.75-2.1 0-3.09-1.08-3.09-3.45v-9.63h-3.63v10.05c0 4.17 2.31 5.94 5.4 5.94zm19.59 5.46c4.86 0 7.95-2.31 7.98-6.93v-14.52h-3.63v2.4c-.9-1.56-2.46-2.73-5.04-2.73-3.969 0-6.92958 3.16932-7.0464156 7.44675l-.0035844.47325c0 4.53 3.03 7.47 6.96 7.47 2.31 0 4.26-1.41 5.13-2.91v2.31c0 2.82-1.56 4.23-4.38 4.23-2.37 0-3.57-.9-3.87-2.46h-3.66c.42 3 2.64 5.22 7.56 5.22zm.12-9.18c-2.34 0-4.14-1.8-4.14-4.71v-.24c0-2.85 1.56-4.8 4.26-4.8 2.5354286 0 4.1366204 1.670302 4.2260473 4.488381l.0039527.461619c0 3-1.83 4.8-4.35 4.8zm12.18 3.42h3.63v-9.24c0-2.49 1.65-3.75 3.69-3.75 2.16 0 3.12 1.08 3.12 3.45v9.54h3.63v-9.87c0-4.32-2.22-6.15-5.37-6.15-2.58 0-4.32 1.29-5.07 2.82v-9.75h-3.63zm29.49.3c2.4 0 3.78-.87 4.8-2.22v1.92h3.57v-10.29c0-4.29-2.76-5.73-6.27-5.73s-6.42 1.53-6.72 5.19h3.51c.18-1.56 1.11-2.46 3-2.46 2.13 0 2.85 1.05 2.85 3.15v.81h-1.95c-4.5 0-8.04 1.32-8.04 4.98 0 3.27 2.37 4.65 5.25 4.65zm.87-2.61c-1.8 0-2.52-.87-2.52-2.19 0-1.86 1.661104-2.509365 4.274174-2.548134l2.115826-.001866v1.56c0 2.01-1.65 3.18-3.87 3.18zm24.06 2.61c2.55 0 4.2-1.23 4.98-2.76v2.46h3.63v-15.69h-3.63v9.33c0 2.49-1.71 3.75-3.66 3.75-2.1 0-3.09-1.08-3.09-3.45v-9.63h-3.63v10.05c0 4.17 2.31 5.94 5.4 5.94zm18.27 0c4.02 0 6.27-1.83 6.27-5.01 0-3.33-2.19-4.23-5.88-4.8l-.49067-.087541c-2.099211-.39781-2.74933-.86108-2.74933-1.922459 0-1.11.93-1.86 2.49-1.86 1.68 0 2.49.66 2.79 2.1h3.36c-.39-3.54-2.94-4.74-6.15-4.74-2.94 0-5.88 1.56-5.88 4.71 0 2.8 1.387755 3.994558 5.09621 4.672109l.57379.097891c2.31.39 3.36.87 3.36 2.16 0 1.32-.87 2.01-2.82 2.01-2.13 0-2.94-.93-3.12-2.52h-3.42c.15 3.33 2.52 5.19 6.57 5.19zm16.35 0c4.02 0 6.69-1.8 7.2-5.1h-3.51c-.27 1.53-1.41 2.4-3.6 2.4-2.7 0-4.2-1.68-4.32-4.65h11.49v-1.05c0-5.61-3.51-7.92-7.41-7.92-4.38566 0-7.673934 3.118889-7.796458 7.826647l-.003542.513353c0 4.95 3.33 7.98 7.95 7.98zm-4.17-9.78c.36-2.43 1.83-3.9 4.02-3.9 2.25 0 3.63 1.2 3.81 3.9zm14.67 9.48h3.63v-8.16c0-3.33 1.92-4.35 5.1-4.38v-3.39c-2.64.03-4.11 1.2-5.1 3.18v-2.94h-3.63zm11.13-6.87h7.2v-3h-7.2zm17.94 7.17c4.26 0 6.99-2.55 7.26-6.15h-3.33c-.21 2.22-1.86 3.36-3.78 3.36-2.67 0-4.35-1.8-4.35-5.22v-.24c0-3.24 1.77-5.16 4.26-5.16 1.92 0 3.3.87 3.6 2.97h3.51c-.42-4.32-3.69-5.88-7.17-5.88-4.38 0-7.92 3.15-7.92 8.13v.24c0 5.01 3.42 7.95 7.92 7.95zm17.28 0c4.02 0 6.69-1.8 7.2-5.1h-3.51c-.27 1.53-1.41 2.4-3.6 2.4-2.7 0-4.2-1.68-4.32-4.65h11.49v-1.05c0-5.61-3.51-7.92-7.41-7.92-4.47 0-7.8 3.24-7.8 8.1v.24c0 4.95 3.33 7.98 7.95 7.98zm-4.17-9.78c.36-2.43 1.83-3.9 4.02-3.9 2.25 0 3.63 1.2 3.81 3.9zm14.67 9.48h3.63v-9.24c0-2.49 1.65-3.75 3.69-3.75 2.16 0 3.12 1.08 3.12 3.45v9.54h3.63v-9.87c0-4.32-2.22-6.15-5.37-6.15-2.58 0-4.32 1.29-5.07 2.82v-2.49h-3.63zm23.58.27c1.11 0 1.89-.18 2.46-.39v-2.88c-.51.21-1.05.3-1.77.3-1.14 0-1.8-.63-1.8-2.01v-8.25h3.45v-2.73h-3.45v-3.45h-3.63v3.45h-2.1v2.73h2.1v8.58c0 2.97 1.62 4.65 4.74 4.65zm12.63.03c4.02 0 6.69-1.8 7.2-5.1h-3.51c-.27 1.53-1.41 2.4-3.6 2.4-2.7 0-4.2-1.68-4.32-4.65h11.49v-1.05c0-5.61-3.51-7.92-7.41-7.92-4.38566 0-7.673934 3.118889-7.796458 7.826647l-.003542.513353c0 4.95 3.33 7.98 7.95 7.98zm-4.17-9.78c.36-2.43 1.83-3.9 4.02-3.9 2.25 0 3.63 1.2 3.81 3.9zm14.67 9.48h3.63v-8.16c0-3.33 1.92-4.35 5.1-4.38v-3.39c-2.64.03-4.11 1.2-5.1 3.18v-2.94h-3.63zm18.51.3c4.02 0 6.69-1.8 7.2-5.1h-3.51c-.27 1.53-1.41 2.4-3.6 2.4-2.7 0-4.2-1.68-4.32-4.65h11.49v-1.05c0-5.61-3.51-7.92-7.41-7.92-4.38566 0-7.673934 3.118889-7.796458 7.826647l-.003542.513353c0 4.95 3.33 7.98 7.95 7.98zm-4.17-9.78c.36-2.43 1.83-3.9 4.02-3.9 2.25 0 3.63 1.2 3.81 3.9zm20.55 9.78c2.31 0 4.32-1.38 5.16-2.94v2.64h3.63v-22.95h-3.63v9.66c-.87-1.56-2.46-2.73-5.01-2.73-4.08 0-7.05 3.18-7.05 8.19v.24c0 5.1 2.97 7.89 6.9 7.89zm.9-2.88c-2.34 0-4.08-1.65-4.08-5.1v-.24c0-3.39 1.56-5.25 4.23-5.25 2.566667 0 4.140856 1.616319 4.226331 4.876527l.003669.523473c0 3.51-1.86 5.19-4.38 5.19zm26.22 2.88c4.26 0 6.99-2.55 7.26-6.15h-3.33c-.21 2.22-1.86 3.36-3.78 3.36-2.67 0-4.35-1.8-4.35-5.22v-.24c0-3.24 1.77-5.16 4.26-5.16 1.92 0 3.3.87 3.6 2.97h3.51c-.42-4.32-3.69-5.88-7.17-5.88-4.38 0-7.92 3.15-7.92 8.13v.24c0 5.01 3.42 7.95 7.92 7.95zm15.63 0c2.55 0 4.2-1.23 4.98-2.76v2.46h3.63v-15.69h-3.63v9.33c0 2.49-1.71 3.75-3.66 3.75-2.1 0-3.09-1.08-3.09-3.45v-9.63h-3.63v10.05c0 4.17 2.31 5.94 5.4 5.94zm18.27 0c4.02 0 6.27-1.83 6.27-5.01 0-3.33-2.19-4.23-5.88-4.8l-.49067-.087541c-2.099211-.39781-2.74933-.86108-2.74933-1.922459 0-1.11.93-1.86 2.49-1.86 1.68 0 2.49.66 2.79 2.1h3.36c-.39-3.54-2.94-4.74-6.15-4.74-2.94 0-5.88 1.56-5.88 4.71 0 2.8 1.387755 3.994558 5.09621 4.672109l.57379.097891c2.31.39 3.36.87 3.36 2.16 0 1.32-.87 2.01-2.82 2.01-2.13 0-2.94-.93-3.12-2.52h-3.42c.15 3.33 2.52 5.19 6.57 5.19zm14.79-.03c1.11 0 1.89-.18 2.46-.39v-2.88c-.51.21-1.05.3-1.77.3-1.14 0-1.8-.63-1.8-2.01v-8.25h3.45v-2.73h-3.45v-3.45h-3.63v3.45h-2.1v2.73h2.1v8.58c0 2.97 1.62 4.65 4.74 4.65zm12.75-2.79c-2.76 0-4.35-2.01-4.35-5.22v-.24c0-3.24 1.65-5.19 4.35-5.19 2.627027 0 4.231644 1.874419 4.316461 4.960073l.003539.469927c0 3.21-1.62 5.22-4.32 5.22zm-.03 2.82c4.534444 0 7.941821-3.063313 8.066465-7.800102l.003535-.509898c0-4.8-3.45-8.01-8.04-8.01-4.62 0-8.07 3.24-8.07 8.1v.24c0 4.77 3.42 7.98 8.04 7.98zm11.34-.3h3.63v-9.39c0-2.4 1.65-3.6 3.45-3.6 1.77 0 2.79.99 2.79 3.3v9.69h3.63v-9.39c0-2.4 1.65-3.6 3.45-3.6s2.79.99 2.79 3.3v9.69h3.63v-9.93c0-4.32-2.34-6.09-5.22-6.09-1.95 0-4.11.87-5.31 2.82-.78-1.95-2.4-2.82-4.44-2.82-2.31 0-4.02 1.26-4.77 2.73v-2.4h-3.63zm34.44.3c4.02 0 6.69-1.8 7.2-5.1h-3.51c-.27 1.53-1.41 2.4-3.6 2.4-2.7 0-4.2-1.68-4.32-4.65h11.49v-1.05c0-5.61-3.51-7.92-7.41-7.92-4.47 0-7.8 3.24-7.8 8.1v.24c0 4.95 3.33 7.98 7.95 7.98zm-4.17-9.78c.36-2.43 1.83-3.9 4.02-3.9 2.25 0 3.63 1.2 3.81 3.9zm14.67 9.48h3.63v-8.16c0-3.33 1.92-4.35 5.1-4.38v-3.39c-2.64.03-4.11 1.2-5.1 3.18v-2.94h-3.63zm25.95.3c4.02 0 6.69-1.8 7.2-5.1h-3.51c-.27 1.53-1.41 2.4-3.6 2.4-2.7 0-4.2-1.68-4.32-4.65h11.49v-1.05c0-5.61-3.51-7.92-7.41-7.92-4.47 0-7.8 3.24-7.8 8.1v.24c0 4.95 3.33 7.98 7.95 7.98zm-4.17-9.78c.36-2.43 1.83-3.9 4.02-3.9 2.25 0 3.63 1.2 3.81 3.9zm12.54 9.48h3.78l3.75-5.67 3.66 5.67h4.23l-5.61-8.31 5.07-7.38h-3.81l-3.24 5.07-3.27-5.07h-4.2l5.1 7.65zm18.21 5.37h3.63v-7.83c.84 1.53 2.64 2.76 5.13 2.76 3.970588 0 6.845444-2.941176 6.956657-7.805821l.003343-.534179c0-5.07-3.03-7.98-6.96-7.98-2.31 0-4.26 1.35-5.13 2.85v-2.52h-3.63zm7.86-7.95c-2.64 0-4.35-1.65-4.35-5.16v-.24c0-3.48 1.8-5.19 4.32-5.19 2.37 0 4.17 1.71 4.17 5.19v.24c0 3.36-1.47 5.16-4.14 5.16zm18.03 2.88c4.02 0 6.69-1.8 7.2-5.1h-3.51c-.27 1.53-1.41 2.4-3.6 2.4-2.7 0-4.2-1.68-4.32-4.65h11.49v-1.05c0-5.61-3.51-7.92-7.41-7.92-4.47 0-7.8 3.24-7.8 8.1v.24c0 4.95 3.33 7.98 7.95 7.98zm-4.17-9.78c.36-2.43 1.83-3.9 4.02-3.9 2.25 0 3.63 1.2 3.81 3.9zm14.67 9.48h3.63v-8.16c0-3.33 1.92-4.35 5.1-4.38v-3.39c-2.64.03-4.11 1.2-5.1 3.18v-2.94h-3.63zm12 0h3.63v-15.69h-3.63zm1.77-18.27c1.2 0 2.16-.9 2.16-2.07 0-1.2-.96-2.1-2.16-2.1s-2.16.9-2.16 2.1c0 1.17.96 2.07 2.16 2.07zm13.17 18.57c4.02 0 6.69-1.8 7.2-5.1h-3.51c-.27 1.53-1.41 2.4-3.6 2.4-2.7 0-4.2-1.68-4.32-4.65h11.49v-1.05c0-5.61-3.51-7.92-7.41-7.92-4.47 0-7.8 3.24-7.8 8.1v.24c0 4.95 3.33 7.98 7.95 7.98zm-4.17-9.78c.36-2.43 1.83-3.9 4.02-3.9 2.25 0 3.63 1.2 3.81 3.9zm14.67 9.48h3.63v-9.24c0-2.49 1.65-3.75 3.69-3.75 2.16 0 3.12 1.08 3.12 3.45v9.54h3.63v-9.87c0-4.32-2.22-6.15-5.37-6.15-2.58 0-4.32 1.29-5.07 2.82v-2.49h-3.63zm25.11.3c4.26 0 6.99-2.55 7.26-6.15h-3.33c-.21 2.22-1.86 3.36-3.78 3.36-2.67 0-4.35-1.8-4.35-5.22v-.24c0-3.24 1.77-5.16 4.26-5.16 1.92 0 3.3.87 3.6 2.97h3.51c-.42-4.32-3.69-5.88-7.17-5.88-4.38 0-7.92 3.15-7.92 8.13v.24c0 5.01 3.42 7.95 7.92 7.95zm17.28 0c4.02 0 6.69-1.8 7.2-5.1h-3.51c-.27 1.53-1.41 2.4-3.6 2.4-2.7 0-4.2-1.68-4.32-4.65h11.49v-1.05c0-5.61-3.51-7.92-7.41-7.92-4.47 0-7.8 3.24-7.8 8.1v.24c0 4.95 3.33 7.98 7.95 7.98zm-4.17-9.78c.36-2.43 1.83-3.9 4.02-3.9 2.25 0 3.63 1.2 3.81 3.9zm16.68 9.69c-1.32 0-2.37-1.02-2.37-2.34s1.05-2.37 2.37-2.37c1.35 0 2.4 1.05 2.4 2.37s-1.05 2.34-2.4 2.34z"/>
      </g>
    </g>
  </g>
</svg>
