<svg xmlns="http://www.w3.org/2000/svg" width="200" height="200" viewBox="0 0 200 200">
  <path fill="#009BCD" fill-rule="evenodd" d="M100 0C44.772 0 0 44.772 0 100s44.772 100 100 100 100-44.772 100-100S155.228 0 100 0zm-1 13c4.875-.008 9.655.142 12 0 16.28 2.62 30.785 8.737 43 19 4.288 2.875 10.986 9.553 14 13 10.105 13.024 16.376 27.886 18 44 .985 4.027 1.165 13.155 1 17-2.253 25.24-14.634 47.755-35 63-11.624 8.81-25.02 14.284-41 17-3.16.045-15.79.17-20 0-23.64-2.985-45.282-15.303-60-34-8.55-12.202-14.09-25.616-16-41-.956-3.754-1.208-15.132-1-19 2.806-26.468 16.38-49.485 38-64 11.59-8.11 24.4-12.858 39-15 1.763.11 4.997.007 8 0zm2 13c-5.85-.007-7.72.13-12 1-1.09.073-2.153.258-2 0-2.153.608-2.854.75-3 1-.082-.123 1.045 1.567 3 4 7.58 10.714 15.655 23.29 22 35 1.482 2.194 2.584 4 3 4-.2 0 1.34-.602 3-1 11.736-5.17 22.022-11.754 29-19 3.038-2.716 6.015-6.233 6-7-.01-.06-4.093-3.29-7-5-10.03-7.025-20.306-10.92-33-13-1.625.105-3.955.006-9 0zm-31 7l-3 2c-6.94 2.955-12.414 6.966-18 13-8.178 7.62-13.865 16.592-18 27-.513 2.886-2 8.104-2 9 0 .072 4.907.078 11 0 17.59-1.103 35.297-3.59 51-7 3.29-1.144 5.71-1.736 6-2 .21.08.15-.03-4-7-6.092-10.264-15.233-24.07-22-33l-1-2zm88 20c.095.02.01.125 0 0-3.352 4.832-10.46 11.443-17 16-6.662 4.732-14.616 9.123-22 12-.97.63-1.878 1.048-2 1-.1.23.625 1.96 2 4 .622 1.998 2.092 5.21 3 7l1 4 2-1c.786.363 2.83.18 4 0 4.427-.346 19.88-.35 24 0 6.836.61 12.157 1.243 17 2 2.402.446 4.583.85 5 1-.02.244.058-.27 0-2-.83-16.19-6.124-30.444-16-43-.483-.805-.664-1.026-1-1zm-56 34c-.1.003-.128.002 0 0-.426.066-2.546.646-5 1-18.903 5.604-41.816 8.873-63 9h-7v1c-.127 10.812 1.516 19.88 5 29 2.775 6.854 7.625 14.954 12 20l2 2 2-3c.786-1.81 2.508-4.278 3-6 8.665-10.557 18.853-20.328 30-28 7.01-4.578 15.12-8.592 23-11 2.52-1.12 4.037-1.75 4-2-.09-.245-2.15-4.72-4-9-1.405-2.556-1.68-3.028-2-3zm40 20c-3.935.035-7.743.27-11 1-1.715-.088-2.935.112-3 0-.05.225.24 1.148 1 2 4.217 12.02 10.142 33.214 13 47 .11 1.816.438 3 1 3-.316 0 .153-.227 1 0 .056-.768.53-1.106 1-1-.22-.4.952-1.347 2-2 3.257-2.662 9.35-8.643 12-12 6.925-8.486 12.153-19.36 14-30 1.297-3.938 1.428-3.627-1-4-9.19-2.802-19.977-4.076-30-4zm-28 5c-.632-.015-1.718.464-4 1-19.146 7.59-35.575 19.295-47 34-1.98 2.312-5.283 7.23-6 9l-1 1 1 1c3.008 3.04 11.025 7.56 17 10 6.406 2.492 14.033 4.265 21 5 3.612.145 11.787-.03 15 0 6.567-1.252 14.124-3.177 19-5l1-1v-2c-1.142-3.98-2.81-11.517-4-17-2.647-9.74-5.385-18.536-11-34-.253-1.328-.332-1.983-1-2z"/>
</svg>
