<?xml version="1.0" encoding="UTF-8" standalone="no"?>
<svg width="200px" height="200px" viewBox="0 0 200 200" version="1.1" xmlns="http://www.w3.org/2000/svg" xmlns:xlink="http://www.w3.org/1999/xlink" xmlns:sketch="http://www.bohemiancoding.com/sketch/ns">
    <title>Dribbble</title>
    <description>Created with Sketch (http://www.bohemiancoding.com/sketch)</description>
    <defs></defs>
    <g id="Page 1" fill="#D8D8D8" fill-rule="evenodd">
        <path d="M100,0 C44.771526,1.42108547e-14 0,44.771526 0,100 C0,155.228474 44.771526,200 100,200 C155.228474,200 200,155.228474 200,100 C200,44.771526 155.228474,-2.13162821e-14 100,0 L100,0 L100,0 Z M98.5625,15.1 C102.898954,15.092198 107.575726,15.2387758 109.68125,15.51875 C125.801318,17.662254 139.994284,23.642372 152.425,33.53125 C156.143438,36.489352 162.696756,43.018714 165.60625,46.66875 C175.534846,59.124468 181.670488,73.656328 183.7375,89.6 C184.223762,93.350712 184.399802,102.276058 184.06875,106.25625 C182.034276,130.716774 169.918694,152.730378 150.4125,167.3875 C138.616042,176.25149 125.506072,181.604568 110.23125,183.80625 C106.778704,184.30392 94.419472,184.426872 90.65,184 C67.167952,181.340788 45.990522,169.296094 31.8875,150.58125 C23.222822,139.08315 17.8001204,125.967264 15.575,111.1125 C14.9970704,107.254276 14.75008,96.128556 15.15,92.10625 C17.6993274,66.465654 30.981908,43.959204 52.01875,29.6375 C63.477484,21.836492 76.012614,17.194448 90.425,15.40625 C92.025752,15.2076398 95.189702,15.1060682 98.5625,15.1 L98.5625,15.1 L98.5625,15.1 Z M99.60625,27.3 C93.551726,27.29264 91.718958,27.42672 87.43125,28.18125 C86.457308,28.352638 85.416856,28.534192 85.1125,28.5875 C83.456416,28.877568 82.769392,29.015498 82.63125,29.09375 C82.546614,29.141694 83.650352,30.799744 85.08125,32.775 C92.994328,43.698466 100.9071,56.037188 107.3625,67.51875 C108.5768,69.678492 109.656122,71.44881 109.7625,71.45 C109.868882,71.4512 111.377936,70.85951 113.1125,70.1375 C124.503824,65.395874 134.583224,58.937174 141.79375,51.75625 C144.397824,49.162856 147.314388,45.711894 147.3,45.25 C147.28916,44.89983 143.289404,41.73315 140.3375,39.7375 C130.611088,33.161896 120.54296,29.341732 108.575,27.6875 C106.511518,27.40228 104.228446,27.30562 99.60625,27.3 L99.60625,27.3 L99.60625,27.3 Z M68.59375,34.075 L65.725,35.56875 C59.136544,38.995696 53.766528,42.979128 48.1375,48.63125 C40.26122,56.539846 34.681978,65.448494 31.10625,75.8 C30.121612,78.650456 28.6625,83.832192 28.6625,84.49375 C28.6625,84.793676 33.476688,84.799468 39.2875,84.50625 C56.713992,83.626872 74.086676,81.157756 89.98125,77.3 C92.720456,76.635166 95.094954,76.04682 95.25625,75.9875 C95.58764,75.865622 95.52717,75.754034 91.56875,69.0125 C85.478602,58.64044 76.510704,44.928736 69.83125,35.775 L68.59375,34.075 L68.59375,34.075 Z M155.56875,53.675 C155.4802,53.692066 155.397832,53.79566 155.275,53.96875 C152.11383,58.42329 145.17054,64.92398 138.56875,69.6 C132.274282,74.058348 124.504816,78.375404 117.31875,81.4125 C116.344808,81.824122 115.45855,82.2348 115.35,82.325 C115.24145,82.4152 115.949798,84.114574 116.925,86.1 C117.90018,88.08543 119.335628,91.242598 120.1125,93.1125 L121.525,96.5125 L123.06875,96.38125 C123.920946,96.310132 125.917348,96.131046 127.5,95.98125 C131.385006,95.61354 146.477902,95.608964 150.63125,95.975 C157.181222,96.552262 162.379054,97.17583 166.9,97.93125 C169.455774,98.3583 171.585968,98.754704 171.6375,98.80625 C171.974326,99.143064 172.049836,98.638928 171.95625,96.7375 C171.182564,81.018826 166.011066,67.001996 156.34375,54.45 C155.892778,53.86445 155.716332,53.646556 155.56875,53.675 L155.56875,53.675 L155.56875,53.675 Z M101.28125,87.2125 C101.255334,87.214442 101.227284,87.212936 101.2,87.21875 C100.931728,87.275922 98.832192,87.845124 96.53125,88.48125 C77.685794,93.691324 54.998424,96.898086 34.25625,97.28125 L27.11875,97.4125 L27.1,98.43125 C26.96688,108.612672 28.593556,117.509898 32.30625,126.9 C34.79058,133.183328 39.592996,141.13051 44.0375,146.325 L45.50625,148.04375 L47.54375,145 C48.664222,143.323604 50.36933,140.903256 51.33125,139.625 C59.435786,128.855122 69.523526,119.267876 80.39375,112 C87.50022,107.248586 95.53075,103.310074 103.7625,100.54375 C105.827654,99.849744 107.330866,99.229932 107.29375,99.0875 C107.204404,98.744634 105.165428,94.35307 103.26875,90.40625 C101.942672,87.646802 101.66999,87.183362 101.28125,87.2125 L101.28125,87.2125 L101.28125,87.2125 Z M139.73125,106.9375 C135.900654,106.96847 132.185416,107.203448 128.73125,107.65625 C127.334328,107.83937 126.143768,108.037474 126.0875,108.09375 C126.03121,108.150024 126.3141,109.066464 126.71875,110.13125 C131.170808,121.846166 136.951676,142.885226 139.58125,156.94375 C139.848818,158.374224 140.167506,159.55 140.2875,159.55 C140.407516,159.55 140.865786,159.325102 141.30625,159.05625 C141.746714,158.787398 142.209506,158.452052 142.33125,158.30625 C142.452992,158.160468 143.596702,157.220336 144.875,156.21875 C147.797418,153.928948 153.741668,147.99171 156.16875,144.9375 C163.084924,136.234322 168.185324,125.440268 170.46875,114.66875 C171.253526,110.966696 171.380836,111.275226 168.75,110.54375 C160.044124,108.123186 149.52055,106.858356 139.73125,106.9375 L139.73125,106.9375 L139.73125,106.9375 Z M112.04375,111.675 C111.44548,111.660304 110.378656,112.134392 108.13125,112.99375 C89.339434,120.17932 73.20914,131.767042 61.96875,146.15625 C60.04796,148.615118 56.804602,153.482402 55.78125,155.4375 L55.11875,156.70625 L56.1125,157.59375 C59.053586,160.22567 66.925114,164.699872 72.7125,167.025 C79.081596,169.583852 86.570548,171.339492 93.63125,171.93125 C96.957036,172.209974 104.98369,172.036406 108.35,171.6125 C114.585788,170.827216 122.005914,168.921532 126.75,166.8875 L127.775,166.45 L127.34375,164.05 C126.653912,160.207472 125.015306,152.744072 123.7,147.48125 C121.248548,137.672494 118.560356,128.964958 113.29375,113.76875 C112.798674,112.34025 112.721788,111.691656 112.04375,111.675 L112.04375,111.675 L112.04375,111.675 Z M112.04375,111.675" id="Dribbble" fill="#009BCD"></path>
    </g>
</svg>