<?xml version="1.0" encoding="UTF-8" standalone="no"?>
<svg width="1000px" height="1000px" viewBox="0 0 1000 1000" version="1.1" xmlns="http://www.w3.org/2000/svg" xmlns:xlink="http://www.w3.org/1999/xlink" xmlns:sketch="http://www.bohemiancoding.com/sketch/ns">
    <title>Email</title>
    <description>Created with Sketch (http://www.bohemiancoding.com/sketch)</description>
    <defs></defs>
    <g id="Page 1" fill="#D8D8D8" fill-rule="evenodd">
        <g id="svg2" fill="#000000">
            <g id="layer1">
                <path d="M500,-0.000183 C223.857,-0.000183 0,223.856817 0,499.999817 C0,776.142817 223.857,999.999817 500,999.999817 C776.143,999.999817 1000,776.142817 1000,499.999817 C1000,223.856817 776.143,-0.000183 500,-0.000183 L500,-0.000183 Z M237.625,292.155817 L785.25,292.155817 C815.588,292.155817 840,316.567817 840,346.905817 L840,648.093817 C840,678.431817 815.588,702.843817 785.25,702.843817 L237.625,702.843817 C207.287,702.843817 182.844,678.431817 182.844,648.093817 L182.844,346.905817 C182.844,316.568817 207.287,292.155817 237.625,292.155817 L237.625,292.155817 Z M237.625,292.155817" id="path2985" fill-opacity="0.9882" fill="#009BCD"></path>
                <path d="M123.715,272.521817 L508.892,477.261817 L500,499.999817 L114.824,295.259817 L123.715,272.521817 Z M123.715,272.521817" id="rect2985" fill-opacity="0.9882" fill="#009BCD"></path>
                <path d="M906.988,275.378817 L490.383,477.547817 L500,499.999817 L916.604,297.830817 L906.988,275.378817 Z M906.988,275.378817" id="rect3755" fill-opacity="0.9882" fill="#009BCD"></path>
            </g>
        </g>
    </g>
</svg>