<?xml version="1.0" encoding="UTF-8" standalone="no"?>
<svg width="200px" height="200px" viewBox="0 0 200 200" version="1.1" xmlns="http://www.w3.org/2000/svg" xmlns:xlink="http://www.w3.org/1999/xlink">
    <!-- Generator: Sketch 3.8.2 (29753) - http://www.bohemiancoding.com/sketch -->
    <title>Email</title>
    <desc>Created with Sketch.</desc>
    <defs></defs>
    <g id="Page-1" stroke="none" stroke-width="1" fill="none" fill-rule="evenodd">
        <path d="M165,82.2049625 L165,141 L36,141 L36,82.6438114 L98.9953616,110.289258 L100,110.730142 L101.004638,110.289258 L165,82.2049625 Z M30.5,74.7698576 L30.5,60.5 L169.5,60.5 L169.5,74.7698576 L168.495362,75.2107421 L98.9953616,105.710742 L101.004638,105.710742 L31.5046384,75.2107421 L30.5,74.7698576 Z M100,0 C44.7714,0 0,44.7714 0,100 C0,155.2286 44.7714,200 100,200 C155.2286,200 200,155.2286 200,100 C200,44.7714 155.2286,0 100,0 Z" id="Email" fill="#009BCD"></path>
    </g>
</svg>