<?xml version="1.0" encoding="UTF-8" standalone="no"?>
<!-- Created with Inkscape (http://www.inkscape.org/) -->

<svg
   xmlns:dc="http://purl.org/dc/elements/1.1/"
   xmlns:cc="http://creativecommons.org/ns#"
   xmlns:rdf="http://www.w3.org/1999/02/22-rdf-syntax-ns#"
   xmlns:svg="http://www.w3.org/2000/svg"
   xmlns="http://www.w3.org/2000/svg"
   xmlns:sodipodi="http://sodipodi.sourceforge.net/DTD/sodipodi-0.dtd"
   xmlns:inkscape="http://www.inkscape.org/namespaces/inkscape"
   width="1000"
   height="1000"
   id="svg2"
   version="1.1"
   inkscape:version="0.48.2 r9819"
   sodipodi:docname="Email.svg">
  <defs
     id="defs4" />
  <sodipodi:namedview
     id="base"
     pagecolor="#ffffff"
     bordercolor="#666666"
     borderopacity="1.0"
     inkscape:pageopacity="0.0"
     inkscape:pageshadow="2"
     inkscape:zoom="0.49497475"
     inkscape:cx="572.54896"
     inkscape:cy="634.28571"
     inkscape:document-units="px"
     inkscape:current-layer="layer1"
     showgrid="false"
     inkscape:window-width="946"
     inkscape:window-height="635"
     inkscape:window-x="0"
     inkscape:window-y="0"
     inkscape:window-maximized="0">
    <inkscape:grid
       type="xygrid"
       id="grid3757" />
  </sodipodi:namedview>
  <metadata
     id="metadata7">
    <rdf:RDF>
      <cc:Work
         rdf:about="">
        <dc:format>image/svg+xml</dc:format>
        <dc:type
           rdf:resource="http://purl.org/dc/dcmitype/StillImage" />
        <dc:title />
      </cc:Work>
    </rdf:RDF>
  </metadata>
  <g
     inkscape:label="Layer 1"
     inkscape:groupmode="layer"
     id="layer1"
     transform="translate(0,-52.362183)">
    <path
       style="fill:#009bcd;fill-opacity:0.98823529"
       d="M 500 0 C 223.85762 1.1368684e-13 0 223.85762 0 500 C 0 776.14238 223.85762 1000 500 1000 C 776.14238 1000 1000 776.14238 1000 500 C 1000 223.85762 776.14238 -1.1723955e-13 500 0 z M 237.625 292.15625 L 785.25 292.15625 C 815.58809 292.15625 840 316.56816 840 346.90625 L 840 648.09375 C 840 678.43184 815.58809 702.84375 785.25 702.84375 L 237.625 702.84375 C 207.28691 702.84375 182.84375 678.43184 182.84375 648.09375 L 182.84375 346.90625 C 182.84375 316.56816 207.28691 292.15625 237.625 292.15625 z "
       transform="translate(0,52.362183)"
       id="path2985" />
    <rect
       style="fill:#009bcd;fill-opacity:0.98823529"
       id="rect2985"
       width="436.21033"
       height="24.414652"
       x="235.11295"
       y="230.34991"
       ry="0"
       rx="0"
       transform="matrix(0.88300591,0.46936186,-0.36418886,0.93132512,0,0)" />
    <rect
       transform="matrix(-0.89966258,0.43658589,0.39373256,0.91922504,0,0)"
       rx="0"
       ry="0"
       y="691.60162"
       x="-705.46649"
       height="24.425346"
       width="463.06799"
       id="rect3755"
       style="fill:#009bcd;fill-opacity:0.98823529" />
  </g>
</svg>
