<?xml version="1.0" encoding="UTF-8" standalone="no"?>
<svg width="52px" height="52px" viewBox="0 0 52 52" version="1.1" xmlns="http://www.w3.org/2000/svg" xmlns:xlink="http://www.w3.org/1999/xlink">
    <!-- Generator: Sketch 39.1 (31720) - http://www.bohemiancoding.com/sketch -->
    <title>facebook</title>
    <desc>Created with Sketch.</desc>
    <defs></defs>
    <g id="Page-1" stroke="none" stroke-width="1" fill="none" fill-rule="evenodd">
        <g id="facebook" transform="translate(1.000000, 1.000000)">
            <path d="M0,25 C0,38.80715 11.19285,50 25,50 C38.80715,50 50,38.80715 50,25 C50,11.19285 38.80715,0 25,0 C11.19285,0 0,11.19285 0,25 Z" id="Circle" stroke="#009BCD" stroke-width="2"></path>
            <path d="M28,50.2512563 L28,31.9095477 L34,31.9095477 L35,24.8743719 L28,24.8743719 L28,20.1005025 C27.9684815,18.1353755 28.5394773,16.7254022 31.5,16.8341709 L35.25,16.8341709 L35.25,10.3015075 C34.5991213,10.2448833 32.3666301,10.0502513 29.75,10.0502513 C24.3460618,10.0502513 20.633355,13.3806412 20.75,19.5979899 L20.75,24.8743719 L14.5,24.8743719 L14.5,31.9095477 L20.75,31.9095477 L20.75,50.2512563 L28,50.2512563" id="Logo" fill="#009BCD"></path>
        </g>
    </g>
</svg>