<svg xmlns="http://www.w3.org/2000/svg" viewBox="0 0 53 53"><defs><style>.cls-1, .cls-2, .cls-4 { fill: none; } .cls-2, .cls-4 { stroke: #009bcd; stroke-miterlimit: 10; } .cls-2 { stroke-width: 3px; } .cls-3 { clip-path: url(#clip-path); } .cls-4 { stroke-linecap: square; stroke-width: 0.25px; } .cls-5 { fill: #009bcd; fill-rule: evenodd; }</style><clipPath id="clip-path"><circle class="cls-1" cx="26.5" cy="26.5" r="22"/></clipPath></defs><g id="Layer_2" data-name="Layer 2"><g id="Layer_1-2" data-name="Layer 1"><g id="Facebook"><circle id="Circle" class="cls-2" cx="26.5" cy="26.5" r="25"/><g class="cls-3" id="Hatching"><path class="cls-4" d="M10.92 7.47h31.85M13.04 5.34h26.32m-22.8-2.12h19.01M8.8 9.59h36.06M6.68 11.71h39.65M4.55 13.83h43.14M3.84 15.95h44.75M3.14 18.07h46.67M2.43 20.19h48.09m-48.8 2.12h49.51m-49.5 2.13h49.49m-49.5 2.12h49.51m-49.5 2.12h49.49M1.72 30.8h49.51m-48.8 2.12h48.09M3.09 35.04h46.73M3.8 37.16h45.31M4.55 39.29h43.61M5.94 41.41h40.1M8.06 43.53h35.86m-33.71 2.12H41.8m-28.77 2.12h26.65m-21.45 2.12h18.16" id="Lines"/></g><path class="cls-5" d="M29.5 51.75V33.41h6l1-7h-7V21.6c0-2 .54-3.38 3.5-3.27h3.75V11.8c-.65-.06-2.88-.25-5.5-.25-5.4 0-9.12 3.33-9 9.55v5.28H16v7h6.25v18.37h7.25"/></g></g></g></svg>