<svg xmlns="http://www.w3.org/2000/svg" viewBox="0 0 53 56.751"><defs><style>.a,.b,.c,.e{fill:none;}.b{clip-rule:evenodd;}.c,.e{stroke:#009bcd;stroke-miterlimit:10;}.c{stroke-width:3px;}.d{clip-path:url(#a);}.e{stroke-linecap:square;stroke-width:0.25px;}.f{clip-path:url(#b);}.g{fill:#009bcd;}</style><clipPath id="a"><circle class="a" cx="26.5" cy="26.5" r="22"/></clipPath><clipPath id="b"><path class="b" d="M29.5 51.75V33.41h6l1-7.036h-7V21.6c-.032-1.965.54-3.375 3.5-3.266h3.75v-6.532c-.65-.057-2.883-.252-5.5-.252-5.404 0-9.117 3.33-9 9.548v5.276H16v7.036h6.25v18.34h7.25"/></clipPath></defs><title>facebook</title><circle class="c" cx="26.5" cy="26.5" r="25"/><path class="d e" d="M10.92 7.466h31.85M13.04 5.344h26.316m-22.793-2.12H35.57M8.797 9.586H44.86m-38.184 2.12H46.33M4.555 13.83h43.133M3.842 15.95h44.75M3.135 18.072h46.68M2.43 20.194h48.092m-48.8 2.12H51.23M1.726 24.437h49.498m-49.502 2.12H51.23M1.726 28.68h49.498M1.722 30.8H51.23m-48.8 2.12h48.09M3.095 35.043h46.72M3.8 37.163h45.308M4.55 39.286h43.614m-42.22 2.122h40.1m-37.982 2.12h35.86m-33.71 2.123H41.8m-28.77 2.12h26.65m-21.454 2.123h18.162"/><path class="f g" d="M11 6.55h30.75v50.2H11z"/></svg>