<svg xmlns="http://www.w3.org/2000/svg" width="200" height="200" viewBox="0 0 200 200">
  <path fill="#009BCD" fill-rule="evenodd" d="M0 100c0 55.23 44.77 100 100 100s100-44.77 100-100S155.23 0 100 0 0 44.77 0 100zm151-75c2.186 3.34 3.402 12.64 3 19l-1 5 3 3c4.76 5.89 7.582 13.402 8 22 .462 5.415-.248 17.22-1 21-.386 1.517-.532 2.674 0 3-.317-.112 4.27-.24 10-1 5.63.21 10.535.18 12 0 .968.71-1.67.9-10 1-5.9.232-11.46.572-12 1-1.01.184-1.556.85-2 2-.306 1.706-1.534 1.464 12 2 4.892.363 10.03.764 11 1 2.108.546.896.57-3 0-1.896-.186-7.253-.413-12 0l-9-1-1 3c-2.566 4.22-8.665 10.06-13 12-4.522 2.64-11.998 4.99-19 6-2.747.6-5.634 1.13-6 1-.427.4.035 1.164 1 3 2.89 2.276 4.11 4.466 5 8 .818 2.178 1.047 5.773 1 17 .56 14.198.536 14.708 0 15-3.13.81-8.272 2.14-9 2-.135.14-.332-3.356 0-13-.667-13.23-.918-14.98-3-17-.588-.19-.642.905-1 15v16h-3c-1.52.528-3.78.703-5 1h-2v-9c-.125-4.218-.283-11.71 0-16v-9h-3v34h-4c-2.132-.116-4.55-.234-5 0l-2-1v-16c.102-14.16.03-15.637-1-15-1.788 1.697-1.92 2.654-2 17v14h-2c-.892-.384-3.028-.867-5-1l-3-1v-18h-2c-4.536.868-12.06.662-15 0-5.86-1.95-9.6-5.323-13-12-2.603-5.665-5.074-8.983-9-12-3.57-3.027-4.282-4.093-3-5 .52-.056 2.048-.267 3 0 2.717-.257 6.926 1.677 10 4 .68 1.13 2.56 3.3 4 5 4.49 6.593 9.555 9.283 16 9 4.297-.572 9.032-1.944 10-3-.262-.3.37-1.842 1-3 .618-2.097 1.903-4.053 4-6 1.9-2.362 1.975-2.527 1-3-.644.152-3.645-.388-7-1-11.145-1.96-19.573-5.752-26-12-2.007-1.7-4.42-4.4-5-6l-2-2H35c-5.438.35-11.555.783-14 1-2.992.794-4.13.81-4 0 .825-.143 14.33-1.41 21-2 3.57.138 6.454-.187 6 0 .454-.673.143-1.476 0-2-1.186-2.04-2.47-2.176-16-2-6.807.087-12 .01-12 0 0-.775 9.336-1.14 18-1 8.1.415 8.663.384 8 0 .2-.81-.398-2.956-1-5-.844-3.602-.973-5.348-1-14 .022-9.886.1-10.786 1-14 1.582-4.093 4.086-8.877 7-12l1-2v-4c-1.603-5.12-1.4-12.663 0-18 1.332-4.57 1.518-4.73 5-4 5.552-.033 12.003 2.534 20 7l4 3 4-1c10.83-3.015 27.09-3.272 39-1l4 1 4-3c4.925-2.778 10.078-5.05 15-6 1.798-.66 3.34-.953 4-1 1.86-.048 2.546.318 3 1zM45 126c-.672 0-1 .178-1 1 0 .96 1.216 1.385 3 1 .554-.968-.243-2-2-2zm-4-2c-.672 0-1 .178-1 1 0 .96 1.216 1.385 3 1 .554-.968-.243-2-2-2zm7 5c-.702.01-1.232.584-1 1 .475 1.35 2.786 1.107 3 0 .082-.39-.26-.722-1-1-.31.025-.545-.002-1 0zm3 4c-1.903 0-2.526.85-1 2 .518.38 2-.07 2-1 0-.784-.322-1-1-1zm3 3c.252 0 .184.002 0 0-.462.087-.878.493-1 1-.09.856.093 1 1 1 .994 0 1.74-.196 2 0 .323-1.06-.684-2-2-2zm3 3c-.664.02-1.248.602-1 1 .547 1.408 3 1.063 3 0 0-.564-.365-.88-1-1-.284.007-.45-.002-1 0zm17 1c.09 0-.473.338-1 1-.406.67.337 2 1 2 .904 0 1.474-.338 2-1 .407-.67-.342-2-2-2zm-6 1c-.71.08-1.282 1.03-1 2 .48 1.4 2.124 1.124 3 0 .125-.802.084-1.125 0-2-.91.12-1.39-.03-2 0zm-5 0c-.285.03-.857.443-1 1-.253 1.878 1.664 2.693 3 1 .116-.36.112-.682 0-1-.685-.81-1.193-1.02-2-1z"/>
</svg>
