<?xml version="1.0" encoding="UTF-8" standalone="no"?>
<svg width="1000px" height="1000px" viewBox="0 0 1000 1000" version="1.1" xmlns="http://www.w3.org/2000/svg" xmlns:xlink="http://www.w3.org/1999/xlink" xmlns:sketch="http://www.bohemiancoding.com/sketch/ns">
    <title>GitHub</title>
    <description>Created with Sketch (http://www.bohemiancoding.com/sketch)</description>
    <defs></defs>
    <g id="Page 1" fill="#D8D8D8" fill-rule="evenodd">
        <g id="svg2" fill="#000000">
            <g id="layer1">
                <path d="M500,-0.0002 C223.857,-0.0002 0,223.8568 0,499.9998 C0,776.1428 223.857,999.9998 500,999.9998 C776.143,999.9998 1000,776.1428 1000,499.9998 C1000,223.8568 776.143,-0.0002 500,-0.0002 L500,-0.0002 Z M740.156,121.4378 C747.231,121.1698 750.663,123.0048 753.281,126.9998 C763.849,143.1298 769.923,189.6858 765.781,222.9688 L763.125,244.2808 L776.031,259.9368 C801.687,291.0408 815.775,328.6488 818.593,373.6248 C820.17,398.7918 816.626,457.8728 812.343,477.8438 C810.939,484.3938 810.212,490.1818 810.749,490.7188 C811.286,491.2558 834.194,490.6078 861.655,489.2808 C890.933,487.8668 915.44,487.7138 920.905,488.9058 C927.589,490.3638 914.415,491.3108 874.311,492.2498 C843.337,492.9748 815.56,494.6768 812.061,496.0618 C807.82,497.7418 805.097,501.0718 803.749,506.2178 C801.351,515.3718 795.215,514.1588 860.343,517.3428 C887.254,518.6578 912.92,520.6698 917.405,521.8118 C928.289,524.5828 922.238,524.7048 902.28,522.0928 C893.309,520.9188 866.551,519.7808 842.842,519.5928 L799.748,519.2808 L791.81,532.8748 C780.071,552.9818 749.609,582.2218 729.591,592.5938 C705.368,605.1448 668.03,616.9068 635.185,622.3438 C619.331,624.9678 604.913,627.6198 603.154,628.2188 C600.951,628.9688 603.257,632.7878 610.529,640.5628 C622.508,653.3698 628.609,664.3348 634.123,682.8128 C637.141,692.9238 638.282,710.9218 639.435,768.1568 C640.846,838.1818 640.727,840.7388 636.435,842.0318 C622.409,846.2578 596.73,852.9068 594.404,852.9068 C592.422,852.9068 591.437,835.4098 590.748,788.2508 C589.763,720.9108 588.511,712.1598 578.748,704.0628 C575.173,701.0978 574.904,706.5748 574.904,779.0318 L574.904,857.1878 L559.185,858.9068 C550.535,859.8578 539.248,860.7328 534.123,860.8448 L524.811,861.0638 L523.342,819.1258 C522.541,796.0598 521.752,758.5598 521.592,735.8138 L521.311,694.4698 L514.342,694.4698 L507.342,694.4698 L507.342,778.3448 L507.342,862.2198 L488.123,861.8448 C477.551,861.6398 465.476,861.0488 461.311,860.5328 L453.749,859.5948 L453.749,779.0638 C453.749,706.2458 453.393,698.8568 450.093,701.5948 C439.314,710.5408 438.652,715.3278 437.874,788.3138 L437.124,857.7198 L428.53,856.1578 C423.81,855.2938 413.141,852.8748 404.811,850.8138 L389.686,847.0638 L389.03,802.0018 L388.405,756.9398 L376.874,758.5338 C355.656,761.4518 318.076,760.4168 305.124,756.5648 C274.128,747.3478 255.44,730.4628 239.155,696.9088 C225.457,668.6848 213.116,652.0738 194.811,637.2838 C175.674,621.8218 172.116,616.4848 178.623,613.0028 C181.118,611.6678 188.748,610.6088 195.561,610.6278 C207.073,610.6598 207.538,610.8568 202.123,613.5968 C194.175,617.6178 194.651,623.2028 203.029,624.1588 C210.529,625.0148 214.844,620.5438 210.998,615.9088 C203.596,606.9898 228.101,620.3388 241.06,632.2838 C246.851,637.6218 256.242,648.4928 261.935,656.4718 C285.859,689.9978 311.159,703.4598 345.123,700.7528 C364.816,699.1838 388.466,692.3168 390.998,687.4408 C391.989,685.5308 395.152,677.8088 398.029,670.2848 C401.381,661.5168 407.8,651.7238 415.873,643.0038 C427.765,630.1588 428.138,629.3318 423.029,628.3158 C420.052,627.7238 405.063,625.0188 389.685,622.2848 C332.639,612.1428 290.541,593.1678 258.966,563.3468 C248.415,553.3818 236.36,539.8698 232.154,533.3158 L224.498,521.3778 L174.279,522.8158 C146.363,523.6078 115.81,525.7698 105.498,527.6908 C88.652,530.8288 82.963,530.9128 85.904,527.9718 C87.737,526.1388 155.192,519.7998 188.716,518.3158 C206.337,517.5358 220.747,515.9048 220.747,514.6908 C220.747,513.4768 219.192,509.4548 217.278,505.7528 C212.554,496.6188 206.145,495.9408 136.278,496.8468 C104.56,497.2588 78.621,496.8758 78.622,496.0348 C78.627,492.9418 125.256,491.1198 167.966,492.5348 C208.991,493.8938 211.802,493.7388 210.341,489.9728 C209.481,487.7548 206.5,477.0218 203.716,466.1288 C199.278,448.7608 198.635,440.0198 198.622,395.0668 C198.608,347.2288 198.992,342.7258 204.153,327.5048 C211.395,306.1508 223.903,282.2038 235.997,266.6298 L245.716,254.1298 L241.154,234.8798 C235.445,210.9078 236.463,173.1558 243.529,147.4738 C250.108,123.5628 251.034,122.7568 270.779,124.2858 C296.159,126.2518 328.383,139.1028 368.717,163.3168 L387.373,174.5048 L405.998,170.0048 C462.38,156.3758 543.602,155.0898 603.748,166.8798 L622.092,170.4738 L641.311,158.6928 C667.643,142.5448 693.381,131.1728 715.717,125.8178 C726.949,123.1198 734.653,121.6458 740.156,121.4378 L740.156,121.4378 Z M227.812,626.9058 C222.516,626.9058 220.75,627.9528 220.75,631.1558 C220.75,638.4668 227.299,640.9658 234.5,636.4058 C239.891,632.9918 235.597,626.9058 227.812,626.9058 L227.812,626.9058 Z M241.5,643.6878 C236.599,643.7468 233.841,646.8598 235.562,651.3438 C237.525,656.4588 249.561,655.1348 250.593,649.6878 C251.103,646.9978 249.329,645.1968 245.187,644.1568 C243.854,643.8208 242.631,643.6738 241.5,643.6878 L241.5,643.6878 Z M255.844,664.1558 C247.496,664.1558 244.238,668.4978 249.625,672.4368 C254.93,676.3158 262.687,674.0138 262.687,668.5618 C262.688,665.2598 261.001,664.1558 255.844,664.1558 L255.844,664.1558 Z M269.75,680.8748 C269.407,680.8748 269.059,680.8888 268.719,680.9368 C265.726,681.3648 263.583,683.6478 263.125,686.8748 C262.494,691.3148 263.434,692.1248 269.375,692.1248 C273.233,692.1248 277.08,691.0248 277.906,689.6868 C280.08,686.1698 274.889,680.8828 269.75,680.8748 L269.75,680.8748 Z M288.562,697.0308 C283.314,697.1488 280.429,700.4368 282.156,704.9368 C284.355,710.6658 296.468,708.7118 296.468,702.6248 C296.468,699.4978 294.666,697.7108 290.968,697.1868 C290.129,697.0688 289.312,697.0148 288.562,697.0308 L288.562,697.0308 Z M372.188,701.4378 C369.939,701.4378 366.815,703.0158 365.219,704.9378 C361.657,709.2288 365.766,715.4378 372.188,715.4378 C374.437,715.4378 377.592,713.8598 379.188,711.9378 C382.749,707.6468 378.609,701.4378 372.188,701.4378 L372.188,701.4378 Z M343.812,706.2188 C338.946,706.5588 335.881,710.8228 338.156,716.7498 C339.968,721.4698 348.777,720.2328 352.156,714.7808 C354.138,711.5808 353.918,710.1268 351.218,708.4058 C348.59,706.7308 346.024,706.0648 343.812,706.2188 L343.812,706.2188 Z M316.375,706.5938 C313.204,706.7238 310.252,708.5338 309.656,711.6558 C308.208,719.2478 318.104,722.8318 323.281,716.5938 C325.599,713.8008 325.58,712.3828 323.187,709.4998 C321.463,707.4218 318.842,706.4928 316.375,706.5938 L316.375,706.5938 Z M316.375,706.5938" id="path3063" fill="#009BCD"></path>
            </g>
        </g>
    </g>
</svg>