<svg xmlns="http://www.w3.org/2000/svg" viewBox="0 0 53 53"><defs><style>.a,.b,.c,.e{fill:none;}.b{clip-rule:evenodd;}.c,.e{stroke:#009bcd;stroke-miterlimit:10;}.c{stroke-width:3px;}.d{clip-path:url(#a);}.e{stroke-linecap:square;stroke-width:0.25px;}.f{clip-path:url(#b);}.g{fill:#009bcd;}</style><clipPath id="a"><circle cx="26.5" cy="26.5" r="22" class="a"/></clipPath><clipPath id="b"><path d="M17.25 39.75A.37.37 0 0 0 17 40c-.063.47.416.674.75.25a.376.376 0 0 0 0-.25.556.556 0 0 0-.5-.25zm1.25 0a.38.38 0 0 0-.25.5c.12.35.53.282.75 0a1.608 1.608 0 0 0 0-.5 3.69 3.69 0 0 1-.5 0zm1.5-.25c.023 0-.118.086-.25.25-.1.168.084.5.25.5a.583.583 0 0 0 .5-.25c.102-.166-.085-.5-.5-.5zm-4.25-.25c-.166.006-.312.152-.25.25.137.353.75.267.75 0 0-.14-.09-.22-.25-.25-.07.003-.112 0-.25 0zM15 38.5c.063 0 .046.002 0 0a.335.335 0 0 0-.25.25c-.022.215.023.25.25.25.25 0 .435-.048.5 0 .08-.264-.17-.5-.5-.5zm-.75-.75c-.476 0-.63.214-.25.5.13.096.5-.016.5-.25 0-.195-.08-.25-.25-.25zm-.75-1c-.176.004-.308.147-.25.25.12.34.696.278.75 0 .02-.097-.065-.18-.25-.25-.078.007-.136 0-.25 0zm-1.75-1.25c-.168 0-.25.045-.25.25 0 .24.304.347.75.25.14-.24-.06-.5-.5-.5zm1 .5c-.168 0-.25.045-.25.25 0 .24.304.347.75.25.14-.24-.06-.5-.5-.5zm26.5-25.25A10.226 10.226 0 0 1 40 15.5l-.25 1.25.75.75a9.345 9.345 0 0 1 2 5.5 28.527 28.527 0 0 1-.25 5.25c-.097.38-.133.67 0 .75-.08-.027 1.067-.06 2.5-.25a28.595 28.595 0 0 0 3 0c.242.18-.418.226-2.5.25a16.8 16.8 0 0 0-3 .25c-.253.047-.39.213-.5.5-.077.428-.384.367 3 .5 1.223.092 2.508.192 2.75.25.527.138.224.144-.75 0a19.43 19.43 0 0 0-3 0l-2.25-.25-.25.75A9.203 9.203 0 0 1 38 34a14.403 14.403 0 0 1-4.75 1.5 8.468 8.468 0 0 1-1.5.25c-.107.1.01.292.25.75a3.25 3.25 0 0 1 1.25 2c.205.545.262 1.444.25 4.25.14 3.55.134 3.678 0 3.75a16.693 16.693 0 0 1-2.25.5 20.6 20.6 0 0 1 0-3.25c-.167-3.307-.23-3.744-.75-4.25-.147-.046-.16.227-.25 3.75v4h-.75c-.38.133-.945.177-1.25.25h-.5v-2.25c-.03-1.053-.07-2.926 0-4V39H27v8.5h-1a5.595 5.595 0 0 0-1.25 0l-.5-.25v-4c.026-3.54.008-3.908-.25-3.75-.447.425-.48.664-.5 4.25v3.5H23a4.65 4.65 0 0 0-1.25-.25l-.75-.25v-4.5h-.5a12.25 12.25 0 0 1-3.75 0 5.297 5.297 0 0 1-3.25-3 7.176 7.176 0 0 0-2.25-3c-.892-.756-1.07-1.022-.75-1.25a2.31 2.31 0 0 1 .75 0 4.344 4.344 0 0 1 2.5 1 14.255 14.255 0 0 0 1 1.25 4.35 4.35 0 0 0 4 2.25 6.158 6.158 0 0 0 2.5-.75c-.066-.074.093-.46.25-.75a3.344 3.344 0 0 1 1-1.5c.475-.59.494-.63.25-.75A10.23 10.23 0 0 1 21 35.5a11.87 11.87 0 0 1-6.5-3 4.93 4.93 0 0 1-1.25-1.5l-.5-.5h-2.5c-1.36.09-2.89.197-3.5.25-.748.2-1.033.204-1 0 .206-.035 3.582-.35 5.25-.5.892.036 1.613-.046 1.5 0a.585.585 0 0 0 0-.5c-.297-.51-.617-.543-4-.5-1.702.023-3 .004-3 0 0-.193 2.334-.284 4.5-.25 2.025.105 2.166.097 2 0a3.853 3.853 0 0 0-.25-1.25 13.05 13.05 0 0 1-.25-3.5c.005-2.47.025-2.695.25-3.5a9.89 9.89 0 0 1 1.75-3l.25-.5v-1a9.132 9.132 0 0 1 0-4.5c.333-1.142.38-1.182 1.25-1a10.852 10.852 0 0 1 5 1.75l1 .75 1-.25a24.115 24.115 0 0 1 9.75-.25l1 .25 1-.75a12.89 12.89 0 0 1 3.75-1.5 4.245 4.245 0 0 1 1-.25c.465-.01.637.08.75.25z" class="b"/></clipPath></defs><circle cx="26.5" cy="26.5" r="25" class="c"/><path d="M42.034 45.533H10.182m29.73 2.122H13.597m22.793 2.12H17.383m26.772-6.363H8.092m38.184-2.122H6.62m41.777-2.12H5.264m43.846-2.122H4.36m45.457-2.12H3.137m47.386-2.122H2.43m48.8-2.122H1.723m49.503-2.12H1.728M51.23 26.44H1.723m49.503-2.122H1.728M51.23 22.2H1.723m48.8-2.122H2.43m47.427-2.122H3.137m46.016-2.12H3.843m44.56-2.122H4.788m42.22-2.122h-40.1M44.89 9.47H9.03m33.71-2.12H11.153m28.77-2.122h-26.65m21.454-2.12H16.564" class="d e"/><path d="M.5 5.5h52.297v47H.5z" class="f g"/></svg>