<?xml version="1.0" encoding="UTF-8" standalone="no"?>
<svg width="52px" height="52px" viewBox="0 0 52 52" version="1.1" xmlns="http://www.w3.org/2000/svg" xmlns:xlink="http://www.w3.org/1999/xlink">
    <!-- Generator: Sketch 39.1 (31720) - http://www.bohemiancoding.com/sketch -->
    <title>GitHub</title>
    <desc>Created with Sketch.</desc>
    <defs></defs>
    <g id="Page-1" stroke="none" stroke-width="1" fill="none" fill-rule="evenodd">
        <g id="GitHub" transform="translate(1.000000, 1.000000)">
            <path d="M0,25 C0,38.80715 11.19285,50 25,50 C38.80715,50 50,38.80715 50,25 C50,11.19285 38.80715,0 25,0 C11.19285,0 0,11.19285 0,25 Z" id="Circle" stroke="#009BCD" stroke-width="2"></path>
            <path d="M37.75,9.25106451 C38.2964836,10.0857607 38.600495,12.4110231 38.5,14.0010645 L38.25,15.2510645 L39,16.0010645 C40.1903236,17.4732484 40.895446,19.3515984 41,21.5010645 C41.1154213,22.8549251 40.9380396,25.8057547 40.75,26.7510645 C40.653398,27.1303591 40.6170107,27.4194436 40.75,27.5010645 C40.6707658,27.473085 41.8173404,27.4407204 43.25,27.2510645 C44.6571995,27.3038198 45.8838061,27.2961781 46.25,27.2510645 C46.491879,27.4285337 45.8325035,27.4758321 43.75,27.5010645 C42.2749591,27.5589413 40.8846849,27.6439486 40.75,27.7510645 C40.4972881,27.7970315 40.3609985,27.96335 40.25,28.2510645 C40.1735064,28.6775705 39.8663918,28.6169867 43.25,28.7510645 C44.4730609,28.8416914 45.7576769,28.9421817 46,29.0010645 C46.5269149,29.1376185 46.2240546,29.1437118 45.25,29.0010645 C44.7761214,28.9546182 43.4368494,28.8977802 42.25,29.0010645 L40,28.7510645 L39.75,29.5010645 C39.1084153,30.5560205 37.5837534,32.0164267 36.5,32.5010645 C35.3694351,33.1613272 33.5006206,33.7487861 31.75,34.0010645 C31.0631737,34.1513967 30.3415345,34.2838521 30.25,34.2510645 C30.1432313,34.3512286 30.2586495,34.5419704 30.5,35.0010645 C31.2221866,35.5699485 31.5275494,36.1176008 31.75,37.0010645 C31.9545869,37.5454925 32.0116954,38.4444115 32,41.2510645 C32.1400268,44.8004748 32.1340707,44.9281854 32,45.0010645 C31.2172315,45.2038346 29.9319649,45.5359221 29.75,45.5010645 C29.716344,45.5359221 29.6670435,44.6620259 29.75,42.2510645 C29.5832577,38.943317 29.5205935,38.506244 29,38.0010645 C28.8530096,37.953747 28.8395458,38.2272984 28.75,41.7510645 L28.75,45.7510645 L28,45.7510645 C27.6198463,45.8830933 27.0549176,45.9267956 26.75,46.0010645 L26.25,46.0010645 L26.25,43.7510645 C26.218711,42.6966708 26.1792206,40.8237148 26.25,39.7510645 L26.25,37.5010645 L25.75,37.5010645 L25.5,37.5010645 L25.5,41.7510645 L25.5,46.0010645 L24.5,46.0010645 C23.9669042,45.9720961 23.3625351,45.9425783 23.25,46.0010645 L22.75,45.7510645 L22.75,41.7510645 C22.7755838,38.2108664 22.7577656,37.8418191 22.5,38.0010645 C22.0530937,38.4253822 22.0199598,38.6644713 22,42.2510645 L22,45.7510645 L21.5,45.7510645 C21.2770988,45.655142 20.7431018,45.5343239 20.25,45.5010645 L19.5,45.2510645 L19.5,43.0010645 L19.5,40.7510645 L19,40.7510645 C17.8659043,40.9681572 15.9849775,40.9164636 15.25,40.7510645 C13.7853242,40.263726 12.849966,39.4203963 12,37.7510645 C11.3492787,36.3348637 10.7315959,35.5052192 9.75,34.7510645 C8.85757614,33.9942681 8.67949371,33.7277091 9,33.5010645 C9.13005527,33.4871216 9.51194648,33.4342293 9.75,33.5010645 C10.4291361,33.4367766 11.4816142,33.920199 12.25,34.5010645 C12.4200756,34.7834069 12.8901071,35.3263644 13.25,35.7510645 C14.3724756,37.399352 15.6387728,38.0717182 17.25,38.0010645 C18.324374,37.8581513 19.5080866,37.5151756 19.75,37.2510645 C19.6844172,37.1762455 19.8427294,36.7905664 20,36.5010645 C20.1544988,35.9768544 20.4757779,35.4877382 21,35.0010645 C21.4750516,34.4106637 21.4937207,34.3693588 21.25,34.2510645 C21.0890061,34.2890464 20.3387876,34.1539439 19.5,34.0010645 C16.7138742,33.5108457 14.6068157,32.56313 13,31.0010645 C12.4983558,30.5759987 11.8949877,29.9011352 11.75,29.5010645 L11.25,29.0010645 L8.75,29.0010645 C7.39052328,29.0889216 5.86130674,29.1969038 5.25,29.2510645 C4.50201427,29.449578 4.21727258,29.4537734 4.25,29.2510645 C4.45621735,29.2153336 7.83242596,28.8987292 9.5,28.7510645 C10.3922983,28.7856526 11.1135372,28.7041915 11,28.7510645 C11.1135372,28.5829238 11.0357074,28.3820431 11,28.2510645 C10.7034671,27.7409427 10.3826885,27.7070797 7,27.7510645 C5.29822992,27.7729078 3.99994995,27.7537787 4,27.7510645 C4.00025026,27.5572931 6.33409106,27.4662925 8.5,27.5010645 C10.5251344,27.6048413 10.6658285,27.5970997 10.5,27.5010645 C10.5496595,27.2982259 10.4004567,26.7621609 10.25,26.2510645 C10.0389864,25.3506514 10.0068034,24.9140778 10,22.7510645 C10.005452,20.2795857 10.0246717,20.0546811 10.25,19.2510645 C10.6454577,18.2279248 11.271499,17.0318801 12,16.2510645 L12.25,15.7510645 L12.25,14.7510645 C11.8491908,13.4709663 11.900143,11.5854241 12.25,10.2510645 C12.5830926,9.10847729 12.6294401,9.06822122 13.5,9.25106451 C14.8880037,9.24278072 16.500856,9.88463024 18.5,11.0010645 L19.5,11.7510645 L20.5,11.5010645 C23.2075764,10.7473387 27.2728409,10.6831088 30.25,11.2510645 L31.25,11.5010645 L32.25,10.7510645 C33.4812508,10.0565426 34.7694705,9.48856248 36,9.25106451 C36.4495916,9.08635144 36.8351866,9.01273178 37,9.00106451 C37.4647315,8.98895773 37.6365075,9.08060771 37.75,9.25106451 Z M11.25,34.5010645 C11.0819819,34.5010645 11,34.5454609 11,34.7510645 C11,34.9912905 11.3040201,35.0972566 11.75,35.0010645 C11.8885707,34.7591317 11.689233,34.5010645 11.25,34.5010645 L11.25,34.5010645 L11.25,34.5010645 Z M10.25,34.0010645 C10.0819819,34.0010645 10,34.0454609 10,34.2510645 C10,34.4912905 10.3040201,34.5972566 10.75,34.5010645 C10.8885707,34.2591317 10.689233,34.0010645 10.25,34.0010645 L10.25,34.0010645 L10.25,34.0010645 Z M12,35.2510645 C11.8244187,35.2538209 11.6920787,35.3970436 11.75,35.5010645 C11.8688519,35.8386738 12.4463878,35.7777593 12.5,35.5010645 C12.5203792,35.4033927 12.4352555,35.3205324 12.25,35.2510645 C12.1725429,35.2572255 12.1138584,35.2504623 12,35.2510645 L12,35.2510645 L12,35.2510645 Z M12.75,36.2510645 C12.2742707,36.2510645 12.1186242,36.4636317 12.5,36.7510645 C12.6294199,36.8463702 13,36.7336733 13,36.5010645 C13.0000478,36.305112 12.9194536,36.2510645 12.75,36.2510645 L12.75,36.2510645 L12.75,36.2510645 Z M13.5,37.0010645 C13.5629808,37.0010645 13.5460964,37.0016867 13.5,37.0010645 C13.3843843,37.0228423 13.2804092,37.124309 13.25,37.2510645 C13.2275726,37.4650645 13.2731799,37.5010645 13.5,37.5010645 C13.7486125,37.5010645 13.9352631,37.4521756 14,37.5010645 C14.0808185,37.2363978 13.8289591,37.0014201 13.5,37.0010645 L13.5,37.0010645 L13.5,37.0010645 Z M14.25,37.7510645 C14.0839923,37.7563954 13.9379202,37.9015529 14,38.0010645 C14.1366998,38.3531391 14.75,38.2668746 14.75,38.0010645 C14.75,37.8600982 14.6587619,37.7812064 14.5,37.7510645 C14.4290465,37.7528636 14.3876805,37.7504796 14.25,37.7510645 L14.25,37.7510645 L14.25,37.7510645 Z M18.5,38.0010645 C18.5228025,38.0010645 18.3816421,38.0856002 18.25,38.2510645 C18.1485739,38.4184395 18.3342423,38.7510645 18.5,38.7510645 C18.7260482,38.7510645 18.8686094,38.6665288 19,38.5010645 C19.1016325,38.3336895 18.9145633,38.0010645 18.5,38.0010645 L18.5,38.0010645 L18.5,38.0010645 Z M17,38.2510645 C16.822549,38.271185 16.6795833,38.5084882 16.75,38.7510645 C16.8702198,39.1010226 17.2811123,39.0321802 17.5,38.7510645 C17.5311741,38.550673 17.5209123,38.4697539 17.5,38.2510645 C17.2723898,38.2807573 17.1526997,38.2436926 17,38.2510645 L17,38.2510645 L17,38.2510645 Z M15.75,38.2510645 C15.6787406,38.2588736 15.5357911,38.3617336 15.5,38.5010645 C15.4368112,38.9705969 15.9160212,39.1742712 16.25,38.7510645 C16.2789638,38.6610507 16.2780437,38.5804675 16.25,38.5010645 C16.0786795,38.29854 15.9517586,38.2457461 15.75,38.2510645 L15.75,38.2510645 L15.75,38.2510645 Z" fill="#009BCD"></path>
        </g>
    </g>
</svg>