<svg xmlns="http://www.w3.org/2000/svg" viewBox="0 0 53 53"><defs><style>.cls-1, .cls-2, .cls-4 { fill: none; } .cls-2, .cls-4 { stroke: #009bcd; stroke-miterlimit: 10; } .cls-2 { stroke-width: 3px; } .cls-3 { clip-path: url(#clip-path); } .cls-4 { stroke-linecap: square; stroke-width: 0.25px; } .cls-5 { fill: #009bcd; fill-rule: evenodd; }</style><clipPath id="clip-path"><circle class="cls-1" cx="26.5" cy="26.5" r="22"/></clipPath></defs><g id="Layer_2" data-name="Layer 2"><g id="Layer_1-2" data-name="Layer 1"><g id="GitHub"><circle id="Circle" class="cls-2" cx="26.5" cy="26.5" r="25"/><g class="cls-3" id="Hatching"><path class="cls-4" d="M42.03 45.53H10.18m29.73 2.12H13.6m22.79 2.13H17.38m26.77-6.37H8.09m38.19-2.12H6.62m41.78-2.12H5.26m43.85-2.12H4.36m45.46-2.12H3.14m47.38-2.12H2.43m48.8-2.13H1.72m49.51-2.12H1.73m49.5-2.12H1.72m49.51-2.12H1.73m49.5-2.12H1.72m48.8-2.12H2.43m47.43-2.12H3.14m46.01-2.13H3.84m44.56-2.12H4.79m42.22-2.12H6.91m37.98-2.12H9.03m33.71-2.12H11.15m28.77-2.12H13.27m21.46-2.12H16.56" id="Lines"/></g><path class="cls-5" d="M17.25 39.75A.37.37 0 0 0 17 40c-.06.47.42.67.75.25a.38.38 0 0 0 0-.25.56.56 0 0 0-.5-.25zm1.25 0a.38.38 0 0 0-.25.5c.12.35.53.28.75 0a1.61 1.61 0 0 0 0-.5 3.69 3.69 0 0 1-.5 0zm1.5-.25s-.12.08-.25.25.08.5.25.5a.58.58 0 0 0 .5-.25c.1-.17-.09-.5-.5-.5zm-4.25-.25c-.17 0-.31.15-.25.25.14.35.75.27.75 0s-.09-.22-.25-.25zM15 38.5a.33.33 0 0 0-.25.25c0 .21 0 .25.25.25h.5c.08-.26-.17-.5-.5-.5zm-.75-.75c-.48 0-.63.21-.25.5.13.1.5 0 .5-.25s-.08-.25-.25-.25zm-.75-1c-.18 0-.31.15-.25.25.12.34.7.28.75 0 0-.1-.06-.18-.25-.25zm-1.75-1.25c-.17 0-.25 0-.25.25s.3.35.75.25c.14-.24-.06-.5-.5-.5zm1 .5c-.17 0-.25 0-.25.25s.3.35.75.25c.14-.24-.06-.5-.5-.5zm26.5-25.25A10.23 10.23 0 0 1 40 15.5l-.25 1.25.75.75a9.35 9.35 0 0 1 2 5.5 28.53 28.53 0 0 1-.25 5.25c-.1.38-.13.67 0 .75-.08 0 1.07-.06 2.5-.25a28.6 28.6 0 0 0 3 0c.24.18-.42.22-2.5.25a16.8 16.8 0 0 0-3 .25c-.25 0-.39.21-.5.5s-.38.37 3 .5c1.22.09 2.51.19 2.75.25.53.14.22.14-.75 0a19.43 19.43 0 0 0-3 0l-2.25-.25-.25.75A9.2 9.2 0 0 1 38 34a14.4 14.4 0 0 1-4.75 1.5 8.47 8.47 0 0 1-1.5.25c-.11.1 0 .29.25.75a3.25 3.25 0 0 1 1.25 2c.2.54.26 1.44.25 4.25.14 3.55.13 3.68 0 3.75a16.69 16.69 0 0 1-2.25.5 20.6 20.6 0 0 1 0-3.25c-.17-3.31-.25-3.75-.75-4.25-.15 0-.16.23-.25 3.75v4h-.75c-.38.13-.95.18-1.25.25h-.5v-2.25c0-1.05-.07-2.93 0-4V39H27v8.5h-1a5.59 5.59 0 0 0-1.25 0l-.5-.25v-4c0-3.54 0-3.91-.25-3.75-.45.42-.48.66-.5 4.25v3.5H23a4.65 4.65 0 0 0-1.25-.25l-.75-.25v-4.5h-.5a12.25 12.25 0 0 1-3.75 0 5.3 5.3 0 0 1-3.25-3 7.18 7.18 0 0 0-2.25-3c-.89-.76-1.07-1-.75-1.25a2.31 2.31 0 0 1 .75 0 4.34 4.34 0 0 1 2.5 1 14.25 14.25 0 0 0 1 1.25 4.35 4.35 0 0 0 4 2.25 6.16 6.16 0 0 0 2.5-.75c-.07-.07.09-.46.25-.75a3.34 3.34 0 0 1 1-1.5c.48-.59.49-.63.25-.75A10.23 10.23 0 0 1 21 35.5a11.87 11.87 0 0 1-6.5-3 4.93 4.93 0 0 1-1.25-1.5l-.5-.5h-2.5c-1.36.09-2.89.2-3.5.25s-1 .2-1 0c.21 0 3.58-.35 5.25-.5h1.5a.58.58 0 0 0 0-.5c-.3-.51-.62-.54-4-.5h-3c0-.19 2.33-.28 4.5-.25s2.17.1 2 0a3.85 3.85 0 0 0-.25-1.25 13.05 13.05 0 0 1-.25-3.5c0-2.47 0-2.7.25-3.5a9.89 9.89 0 0 1 1.75-3l.25-.5v-1a9.13 9.13 0 0 1 0-4.5c.33-1.14.38-1.18 1.25-1a10.85 10.85 0 0 1 5 1.75l1 .75 1-.25a24.12 24.12 0 0 1 9.75-.25l1 .25 1-.75a12.89 12.89 0 0 1 3.75-1.5 4.25 4.25 0 0 1 1-.25c.5-.01.64.08.75.25z"/></g></g></g></svg>