<?xml version="1.0" encoding="UTF-8" standalone="no"?>
<svg width="1000px" height="1000px" viewBox="0 0 1000 1000" version="1.1" xmlns="http://www.w3.org/2000/svg" xmlns:xlink="http://www.w3.org/1999/xlink" xmlns:sketch="http://www.bohemiancoding.com/sketch/ns">
    <title>Google Plus</title>
    <description>Created with Sketch (http://www.bohemiancoding.com/sketch)</description>
    <defs></defs>
    <g id="Page 1" fill="#D8D8D8" fill-rule="evenodd">
        <g id="svg2" fill="#000000">
            <g id="layer1">
                <path d="M500,-0.0002 C318.781,-0.0002 160.193,96.3008 72.5,240.6248 C99.856,221.2188 128.666,208.1428 158.125,201.8748 C194.006,194.3998 226.852,190.6248 257.5,190.6248 L488.75,190.6248 L416.875,231.2498 L347.5,231.2498 C354.228,236.4828 361.654,243.5298 370.625,252.4998 C379.595,260.7228 388.652,271.0418 396.875,283.7498 C405.098,295.7108 412.145,309.8048 418.125,326.2498 C424.104,342.6958 426.875,361.5698 426.875,382.4998 C426.875,403.4308 424.607,421.8028 419.375,437.4998 C414.142,453.1978 406.47,467.2918 397.5,479.9998 C388.529,491.9608 378.712,503.2848 367.5,513.7498 C356.287,523.4678 344.46,532.9048 332.5,541.8748 C325.024,549.3508 317.978,556.7768 311.25,564.9998 C304.522,573.2228 301.25,583.5418 301.25,596.2498 C301.25,608.9578 304.522,619.3998 311.25,626.8748 C317.978,633.6028 324.645,639.7678 330.625,644.9998 L370.625,676.2498 C382.585,686.7148 394.412,697.0348 405.625,707.4998 C417.585,717.9648 427.401,729.2898 435.625,741.2498 C444.595,753.2098 452.267,766.2998 457.5,781.2498 C462.732,796.1998 464.999,813.6888 465,833.1248 C464.999,859.2878 458.957,885.2088 446.25,910.6248 C433.542,936.0398 414.668,958.0638 390,977.4998 C386.652,980.2388 382.957,983.0368 379.375,985.6248 C417.998,995.1888 458.42,999.9998 500,999.9998 C776.143,999.9998 1000,776.1428 1000,499.9998 C1000,467.4878 997.176,435.7818 991.25,404.9998 L806.25,404.9998 L806.25,618.1248 L739.375,618.1248 L739.375,404.9998 L526.25,404.9998 L526.25,337.4998 L739.375,337.4998 L739.375,128.1248 L806.25,128.1248 L806.25,337.4998 L972.5,337.4998 C905.019,141.1868 719.215,-0.0002 500,-0.0002 L500,-0.0002 Z M186.875,227.4998 C171.924,227.4998 157.328,230.7728 143.125,237.4998 C128.922,244.2278 117.72,253.1628 108.75,264.3748 C99.032,276.3358 91.862,289.5468 88.125,303.7498 C85.135,317.9528 83.75,332.5498 83.75,347.4998 C83.75,366.1878 86.642,387.4518 91.875,410.6248 C97.855,433.7988 106.287,455.4418 117.5,475.6248 C129.46,495.8088 144.057,512.6718 161.25,526.8748 C179.19,540.3298 199.829,546.8748 223.75,546.8748 C237.953,546.8748 252.169,544.1048 265.625,538.1248 C279.828,532.1448 291.029,524.5958 300,515.6248 C312.707,502.9168 320.76,488.8228 323.75,473.1248 C326.739,457.4278 328.125,444.2158 328.125,433.7498 C328.125,413.5668 325.354,391.4208 319.375,367.4998 C313.395,343.5798 304.46,321.5558 292.5,300.6248 C280.54,279.6948 265.44,262.2058 247.5,248.7498 C230.307,234.5478 210.048,227.5008 186.875,227.4998 L186.875,227.4998 Z M0.625,474.3748 C0.193,482.8978 0,491.3698 0,499.9998 C0,582.2828 20.413,659.6658 55.625,728.1248 C60.549,726.1118 65.548,723.6318 70.625,721.8748 C90.808,715.8948 110.564,711.2368 130,707.4998 C149.436,703.7628 167.807,700.8698 185,699.3748 C202.193,697.8798 216.667,696.9978 229.375,696.2498 C221.152,685.7848 213.725,674.9628 206.25,663.7498 C199.522,651.7898 196.25,637.1928 196.25,619.9998 C196.25,610.2818 197.132,602.2298 199.375,596.2498 C201.617,589.5218 203.885,582.9778 206.875,576.2498 L189.375,578.7498 L171.25,578.7498 C141.349,578.7498 115.048,573.4678 91.875,563.7498 C68.702,553.2848 48.823,540.1948 33.125,523.7498 C19.163,509.1228 8.674,492.5498 0.625,474.3748 L0.625,474.3748 Z M226.25,727.4998 C218.027,728.2468 208.087,729.2518 196.875,729.9998 C185.662,731.4948 173.958,733.3828 161.25,735.6248 C148.542,738.6148 136.335,741.8878 124.375,745.6248 C118.395,747.8668 109.337,751.1398 98.125,755.6248 C91.459,758.9578 84.791,763.2758 78.125,768.1248 C137.945,862.0798 228.112,934.5138 335,971.8748 C339.305,969.1228 343.691,966.3158 347.5,963.1248 C375.905,940.6988 390,912.0078 390,876.8748 C390,862.6718 387.107,849.4598 381.875,837.4998 C377.39,826.2868 370.343,814.9628 360.625,803.7498 C350.907,792.5368 338.197,781.3348 322.5,769.3748 C306.802,757.4148 288.43,743.6998 267.5,728.7498 C263.015,728.0018 259.362,727.4998 255.625,727.4998 L241.875,727.4998 L226.25,727.4998 L226.25,727.4998 Z M226.25,727.4998" id="path2985" fill="#009BCD"></path>
            </g>
        </g>
    </g>
</svg>