<svg xmlns="http://www.w3.org/2000/svg" width="200" height="200" viewBox="0 0 200 200">
  <path fill="#009BCD" fill-rule="evenodd" d="M100 0C44.77 0 0 44.77 0 100s44.77 100 100 100 100-44.77 100-100S155.23 0 100 0zm-9.198 78.716s-1-.847-1.516-1.26c-9.582-7.708-23.57-7.664-33.33.258-7.745 6.286-11.466 14.54-10.7 24.488 1.1 14.276 12.346 24.634 24.63 25.792 8.013.755 15.373-.893 21.52-6.406 3.55-3.186 5.557-6.96 6.65-12.07H72.41v-19.17h44.206s1.28 3.694 1.28 11.4c0 7.707-.903 12.775-2.753 17.603-5.283 13.785-15.063 22.673-29.362 26.346-12.402 3.185-24.46 2.06-35.706-4.254-13.727-7.704-21.89-19.472-24.118-35.092-3.35-23.488 11.233-45.122 32.795-51.544 16.72-4.98 32.427-1.568 45.74 10 .16.14-13.687 13.912-13.687 13.912zm54.986 24.814h-16.075V91.57h16.075V75.12h12.105v16.45h16.63v11.96h-16.57v16.632H145.79V103.53z"/>
</svg>
