<?xml version="1.0" encoding="UTF-8" standalone="no"?><svg xmlns="http://www.w3.org/2000/svg" xmlns:xlink="http://www.w3.org/1999/xlink"><symbol viewBox="0 0 52 52" id="GitHub"><title>GitHub</title><g transform="translate(1 1)" fill="none" fill-rule="evenodd"><path d="M0 25c0 13.807 11.193 25 25 25s25-11.193 25-25S38.807 0 25 0 0 11.193 0 25z" stroke="#009BCD" stroke-width="2"/><path d="M37.75 9.251c.546.835.85 3.16.75 4.75l-.25 1.25.75.75c1.19 1.472 1.895 3.35 2 5.5.115 1.354-.062 4.305-.25 5.25-.097.38-.133.668 0 .75-.08-.028 1.067-.06 2.5-.25 1.407.053 2.634.045 3 0 .242.178-.417.225-2.5.25-1.475.058-2.865.143-3 .25-.253.046-.389.212-.5.5-.076.427-.384.366 3 .5 1.223.09 2.508.191 2.75.25.527.137.224.143-.75 0a19.43 19.43 0 0 0-3 0l-2.25-.25-.25.75c-.642 1.055-2.166 2.515-3.25 3-1.13.66-3 1.248-4.75 1.5-.687.15-1.408.283-1.5.25-.107.1.009.291.25.75.722.569 1.028 1.117 1.25 2 .205.544.262 1.443.25 4.25.14 3.55.134 3.677 0 3.75-.783.203-2.068.535-2.25.5-.034.035-.083-.839 0-3.25-.167-3.308-.23-3.745-.75-4.25-.147-.047-.16.226-.25 3.75v4H28c-.38.132-.945.176-1.25.25h-.5v-2.25c-.031-1.054-.07-2.927 0-4v-2.25h-.75v8.5h-1c-.533-.029-1.137-.058-1.25 0l-.5-.25v-4c.026-3.54.008-3.91-.25-3.75-.447.424-.48.663-.5 4.25v3.5h-.5c-.223-.096-.757-.217-1.25-.25l-.75-.25v-4.5H19c-1.134.217-3.015.165-3.75 0-1.465-.487-2.4-1.33-3.25-3-.65-1.416-1.268-2.246-2.25-3-.892-.757-1.07-1.023-.75-1.25.13-.014.512-.067.75 0 .68-.064 1.732.42 2.5 1 .17.282.64.825 1 1.25 1.122 1.648 2.389 2.32 4 2.25 1.074-.143 2.258-.486 2.5-.75-.066-.075.093-.46.25-.75.154-.524.476-1.013 1-1.5.475-.59.494-.632.25-.75-.161.038-.911-.097-1.75-.25-2.786-.49-4.893-1.438-6.5-3-.502-.425-1.105-1.1-1.25-1.5l-.5-.5h-2.5c-1.36.088-2.889.196-3.5.25-.748.199-1.033.203-1 0 .206-.036 3.582-.352 5.25-.5.892.035 1.614-.047 1.5 0 .114-.168.036-.369 0-.5-.297-.51-.617-.544-4-.5-1.702.022-3 .003-3 0 0-.194 2.334-.285 4.5-.25 2.025.104 2.166.096 2 0 .05-.203-.1-.739-.25-1.25-.211-.9-.243-1.337-.25-3.5.005-2.471.025-2.696.25-3.5.395-1.023 1.021-2.22 1.75-3l.25-.5v-1c-.4-1.28-.35-3.166 0-4.5.333-1.143.38-1.183 1.25-1 1.388-.008 3 .634 5 1.75l1 .75 1-.25c2.708-.754 6.773-.818 9.75-.25l1 .25 1-.75c1.231-.694 2.52-1.262 3.75-1.5.45-.165.835-.238 1-.25.465-.012.637.08.75.25zm-26.5 25.25c-.168 0-.25.044-.25.25 0 .24.304.346.75.25.139-.242-.06-.5-.5-.5zm-1-.5c-.168 0-.25.044-.25.25 0 .24.304.346.75.25.139-.242-.06-.5-.5-.5zm1.75 1.25c-.176.003-.308.146-.25.25.119.338.696.277.75 0 .02-.098-.065-.18-.25-.25-.077.006-.136 0-.25 0zm.75 1c-.476 0-.631.213-.25.5.13.095.5-.017.5-.25 0-.196-.08-.25-.25-.25zm.75.75c.063 0 .046 0 0 0a.335.335 0 0 0-.25.25c-.022.214.023.25.25.25.249 0 .435-.049.5 0 .08-.265-.171-.5-.5-.5zm.75.75c-.166.005-.312.15-.25.25.137.352.75.266.75 0 0-.14-.091-.22-.25-.25-.071.002-.112 0-.25 0zm4.25.25c.023 0-.118.085-.25.25-.101.167.084.5.25.5a.583.583 0 0 0 .5-.25c.102-.167-.085-.5-.5-.5zm-1.5.25c-.177.02-.32.257-.25.5.12.35.531.281.75 0 .031-.2.02-.281 0-.5-.228.03-.347-.007-.5 0zm-1.25 0c-.071.008-.214.11-.25.25-.063.47.416.673.75.25a.376.376 0 0 0 0-.25c-.171-.202-.298-.255-.5-.25z" fill="#009BCD"/></g></symbol><symbol viewBox="0 0 52 52" id="facebook"><title>facebook</title><g transform="translate(1 1)" fill="none" fill-rule="evenodd"><path d="M0 25c0 13.807 11.193 25 25 25s25-11.193 25-25S38.807 0 25 0 0 11.193 0 25z" stroke="#009BCD" stroke-width="2"/><path d="M28 50.251V31.91h6l1-7.036h-7v-4.773c-.032-1.966.54-3.376 3.5-3.267h3.75v-6.532c-.65-.057-2.883-.252-5.5-.252-5.404 0-9.117 3.33-9 9.548v5.276H14.5v7.036h6.25V50.25H28" fill="#009BCD"/></g></symbol><symbol viewBox="0 0 52 52" id="instagram"><title>instagram</title><g transform="translate(1 1)" fill="none" fill-rule="evenodd"><path d="M0 25c0 13.807 11.193 25 25 25s25-11.193 25-25S38.807 0 25 0 0 11.193 0 25z" stroke="#009BCD" stroke-width="2"/><path d="M25 8.25c-4.64 0-5.206.02-7 0-1.749.18-2.958.462-4 .75-1.108.548-2.035 1.116-3 2-.884.965-1.452 1.892-2 3a23.098 23.098 0 0 0-.75 4c.02 1.794 0 2.36 0 7 0 4.39.02 4.956 0 6.75.18 1.749.462 2.958.75 4 .548 1.108 1.116 2.035 2 3 .965.884 1.892 1.452 3 2 1.042.288 2.251.57 4 .75 1.794-.02 2.36 0 7 0 4.39 0 4.956-.02 6.75 0a23.098 23.098 0 0 0 4-.75c1.108-.548 2.035-1.116 3-2 .884-.965 1.452-1.892 2-3 .288-1.042.57-2.251.75-4-.02-1.794 0-2.36 0-6.75 0-4.64-.02-5.206 0-7a23.098 23.098 0 0 0-.75-4c-.548-1.108-1.116-2.035-2-3-.965-.884-1.892-1.452-3-2a23.098 23.098 0 0 0-4-.75c-1.794.02-2.36 0-6.75 0zm0 3c4.313 0 4.838.017 6.5 0 1.711.17 2.591.442 3.25.75.702.22 1.256.58 1.75 1.25A3.259 3.259 0 0 1 37.75 15c.308.659.58 1.539.75 3.25-.017 1.662 0 2.187 0 6.75 0 4.313-.017 4.838 0 6.5-.17 1.711-.442 2.591-.75 3.25a3.259 3.259 0 0 1-1.25 1.75 3.259 3.259 0 0 1-1.75 1.25c-.659.308-1.539.58-3.25.75-1.661-.017-2.187 0-6.5 0-4.563 0-5.088-.017-6.75 0-1.711-.17-2.591-.442-3.25-.75a3.259 3.259 0 0 1-1.75-1.25A3.259 3.259 0 0 1 12 34.75c-.308-.659-.58-1.539-.75-3.25.017-1.662 0-2.187 0-6.5 0-4.563.017-5.088 0-6.75.17-1.711.442-2.591.75-3.25.22-.702.58-1.256 1.25-1.75A3.259 3.259 0 0 1 15 12c.659-.308 1.539-.58 3.25-.75 1.662.017 2.187 0 6.75 0zM35.75 16a2 2 0 1 1-4 0 2 2 0 0 1 4 0zm-11 .5a8.5 8.5 0 1 0 0 17 8.5 8.5 0 0 0 0-17zm0 14a5.5 5.5 0 1 1 0-11 5.5 5.5 0 0 1 0 11z" fill="#009BCD"/></g></symbol><symbol viewBox="0 0 52 52" id="twitter"><title>twitter</title><g transform="translate(1 1)" fill="none" fill-rule="evenodd"><path d="M0 25c0 13.807 11.193 25 25 25s25-11.193 25-25S38.807 0 25 0 0 11.193 0 25z" stroke="#009BCD" stroke-width="2"/><path d="M42 14.25c-1.251.558-2.595.93-4 1 1.434-.76 2.54-2.121 3-3.75-1.287.803-2.78 1.381-4.25 1.75C35.359 11.843 33.546 11 31.5 11c-3.813 0-6.936 3.108-7 7 .064.486.126 1.016.25 1.5-5.803-.265-10.943-3.029-14.5-7.25-.484 1.046-.828 2.239-.75 3.5a6.608 6.608 0 0 0 3 5.75c-1.118.003-2.193-.309-3.25-.75.116-.05.116-.02 0 0 .116 3.372 2.52 6.178 5.75 6.75-.624.224-1.24.31-2 .25-.326.06-.763.016-1.25 0 .949 2.693 3.525 4.7 6.5 4.75-2.31 1.868-5.318 2.978-8.5 3-.649-.022-1.204-.055-1.75 0 3.087 1.85 6.754 3 10.75 3 12.773 0 19.79-10.579 19.75-19.75.04-.304.033-.603 0-1 1.382-.88 2.565-2.102 3.5-3.5" fill="#009BCD"/></g></symbol></svg>