<?xml version="1.0" encoding="utf-8"?><svg xmlns="http://www.w3.org/2000/svg" xmlns:xlink="http://www.w3.org/1999/xlink"><symbol viewBox="0 0 53 53" id="GitHub"><defs><style>.acls-1,.acls-2,.acls-4{fill:none}.acls-2,.acls-4{stroke:#009bcd;stroke-miterlimit:10}.acls-2{stroke-width:3px}.acls-3{clip-path:url(#aclip-path)}.acls-4{stroke-linecap:square;stroke-width:.25px}.acls-5{fill:#009bcd;fill-rule:evenodd}</style><clipPath id="aclip-path"><circle class="acls-1" cx="26.5" cy="26.5" r="22"/></clipPath></defs><g id="aLayer_2" data-name="Layer 2"><g id="aLayer_1-2" data-name="Layer 1"><g id="aGitHub"><circle id="aCircle" class="acls-2" cx="26.5" cy="26.5" r="25"/><g class="acls-3" id="aHatching"><path class="acls-4" d="M42.03 45.53H10.18m29.73 2.12H13.6m22.79 2.13H17.38m26.77-6.37H8.09m38.19-2.12H6.62m41.78-2.12H5.26m43.85-2.12H4.36m45.46-2.12H3.14m47.38-2.12H2.43m48.8-2.13H1.72m49.51-2.12H1.73m49.5-2.12H1.72m49.51-2.12H1.73m49.5-2.12H1.72m48.8-2.12H2.43m47.43-2.12H3.14m46.01-2.13H3.84m44.56-2.12H4.79m42.22-2.12H6.91m37.98-2.12H9.03m33.71-2.12H11.15m28.77-2.12H13.27m21.46-2.12H16.56" id="aLines"/></g><path class="acls-5" d="M17.25 39.75A.37.37 0 0 0 17 40c-.06.47.42.67.75.25a.38.38 0 0 0 0-.25.56.56 0 0 0-.5-.25zm1.25 0a.38.38 0 0 0-.25.5c.12.35.53.28.75 0a1.61 1.61 0 0 0 0-.5 3.69 3.69 0 0 1-.5 0zm1.5-.25s-.12.08-.25.25.08.5.25.5a.58.58 0 0 0 .5-.25c.1-.17-.09-.5-.5-.5zm-4.25-.25c-.17 0-.31.15-.25.25.14.35.75.27.75 0s-.09-.22-.25-.25zM15 38.5a.33.33 0 0 0-.25.25c0 .21 0 .25.25.25h.5c.08-.26-.17-.5-.5-.5zm-.75-.75c-.48 0-.63.21-.25.5.13.1.5 0 .5-.25s-.08-.25-.25-.25zm-.75-1c-.18 0-.31.15-.25.25.12.34.7.28.75 0 0-.1-.06-.18-.25-.25zm-1.75-1.25c-.17 0-.25 0-.25.25s.3.35.75.25c.14-.24-.06-.5-.5-.5zm1 .5c-.17 0-.25 0-.25.25s.3.35.75.25c.14-.24-.06-.5-.5-.5zm26.5-25.25A10.23 10.23 0 0 1 40 15.5l-.25 1.25.75.75a9.35 9.35 0 0 1 2 5.5 28.53 28.53 0 0 1-.25 5.25c-.1.38-.13.67 0 .75-.08 0 1.07-.06 2.5-.25a28.6 28.6 0 0 0 3 0c.24.18-.42.22-2.5.25a16.8 16.8 0 0 0-3 .25c-.25 0-.39.21-.5.5s-.38.37 3 .5c1.22.09 2.51.19 2.75.25.53.14.22.14-.75 0a19.43 19.43 0 0 0-3 0l-2.25-.25-.25.75A9.2 9.2 0 0 1 38 34a14.4 14.4 0 0 1-4.75 1.5 8.47 8.47 0 0 1-1.5.25c-.11.1 0 .29.25.75a3.25 3.25 0 0 1 1.25 2c.2.54.26 1.44.25 4.25.14 3.55.13 3.68 0 3.75a16.69 16.69 0 0 1-2.25.5 20.6 20.6 0 0 1 0-3.25c-.17-3.31-.25-3.75-.75-4.25-.15 0-.16.23-.25 3.75v4h-.75c-.38.13-.95.18-1.25.25h-.5v-2.25c0-1.05-.07-2.93 0-4V39H27v8.5h-1a5.59 5.59 0 0 0-1.25 0l-.5-.25v-4c0-3.54 0-3.91-.25-3.75-.45.42-.48.66-.5 4.25v3.5H23a4.65 4.65 0 0 0-1.25-.25l-.75-.25v-4.5h-.5a12.25 12.25 0 0 1-3.75 0 5.3 5.3 0 0 1-3.25-3 7.18 7.18 0 0 0-2.25-3c-.89-.76-1.07-1-.75-1.25a2.31 2.31 0 0 1 .75 0 4.34 4.34 0 0 1 2.5 1 14.25 14.25 0 0 0 1 1.25 4.35 4.35 0 0 0 4 2.25 6.16 6.16 0 0 0 2.5-.75c-.07-.07.09-.46.25-.75a3.34 3.34 0 0 1 1-1.5c.48-.59.49-.63.25-.75A10.23 10.23 0 0 1 21 35.5a11.87 11.87 0 0 1-6.5-3 4.93 4.93 0 0 1-1.25-1.5l-.5-.5h-2.5c-1.36.09-2.89.2-3.5.25s-1 .2-1 0c.21 0 3.58-.35 5.25-.5h1.5a.58.58 0 0 0 0-.5c-.3-.51-.62-.54-4-.5h-3c0-.19 2.33-.28 4.5-.25s2.17.1 2 0a3.85 3.85 0 0 0-.25-1.25 13.05 13.05 0 0 1-.25-3.5c0-2.47 0-2.7.25-3.5a9.89 9.89 0 0 1 1.75-3l.25-.5v-1a9.13 9.13 0 0 1 0-4.5c.33-1.14.38-1.18 1.25-1a10.85 10.85 0 0 1 5 1.75l1 .75 1-.25a24.12 24.12 0 0 1 9.75-.25l1 .25 1-.75a12.89 12.89 0 0 1 3.75-1.5 4.25 4.25 0 0 1 1-.25c.5-.01.64.08.75.25z"/></g></g></g></symbol><symbol viewBox="0 0 53 53" id="LinkedIn"><defs><style>.bcls-1,.bcls-2,.bcls-4{fill:none}.bcls-2,.bcls-4{stroke:#009bcd;stroke-miterlimit:10}.bcls-2{stroke-width:3px}.bcls-3{clip-path:url(#bclip-path)}.bcls-4{stroke-linecap:square;stroke-width:.25px}.bcls-5,.bcls-6{fill:#009bcd}.bcls-5{fill-rule:evenodd}</style><clipPath id="bclip-path"><circle class="bcls-1" cx="26.5" cy="26.5" r="22"/></clipPath></defs><g id="bLayer_2" data-name="Layer 2"><g id="bLayer_1-2" data-name="Layer 1"><g id="bLinkedIn"><circle id="bCircle" class="bcls-2" cx="26.5" cy="26.5" r="25"/><g class="bcls-3" id="bHatching"><path class="bcls-4" d="M42.03 45.53H10.18m29.73 2.12H13.6m22.79 2.13H17.38m26.77-6.37H8.09m38.19-2.12H6.62m41.78-2.12H5.26m43.85-2.12H4.36m45.46-2.12H3.14m47.38-2.12H2.43m48.8-2.13H1.72m49.51-2.12H1.73m49.5-2.12H1.72m49.51-2.12H1.73m49.5-2.12H1.72m48.8-2.12H2.43m47.43-2.12H3.14m46.01-2.13H3.84m44.56-2.12H4.79m42.22-2.12H6.91m37.98-2.12H9.03m33.71-2.12H11.15m28.77-2.12H13.27m21.46-2.12H16.56" id="bLines"/></g><g id="bLogo"><path class="bcls-5" d="M22.44 22h5.34v2.56H28a5.71 5.71 0 0 1 5.34-3c5.68 0 6.74 3.8 6.74 8.83v10h-5.57v-8.9c-.08-2.23-.12-5-3-4.88-2.95-.09-3.4 2.23-3.48 4.65v9.06h-5.59V22"/><path class="bcls-6" d="M13.14 21.97h5.81v18.35h-5.81z"/><circle class="bcls-6" cx="16.16" cy="15.93" r="3.25"/></g></g></g></g></symbol><symbol viewBox="0 0 53 53" id="facebook"><defs><style>.ccls-1,.ccls-2,.ccls-4{fill:none}.ccls-2,.ccls-4{stroke:#009bcd;stroke-miterlimit:10}.ccls-2{stroke-width:3px}.ccls-3{clip-path:url(#cclip-path)}.ccls-4{stroke-linecap:square;stroke-width:.25px}.ccls-5{fill:#009bcd;fill-rule:evenodd}</style><clipPath id="cclip-path"><circle class="ccls-1" cx="26.5" cy="26.5" r="22"/></clipPath></defs><g id="cLayer_2" data-name="Layer 2"><g id="cLayer_1-2" data-name="Layer 1"><g id="cFacebook"><circle id="cCircle" class="ccls-2" cx="26.5" cy="26.5" r="25"/><g class="ccls-3" id="cHatching"><path class="ccls-4" d="M10.92 7.47h31.85M13.04 5.34h26.32m-22.8-2.12h19.01M8.8 9.59h36.06M6.68 11.71h39.65M4.55 13.83h43.14M3.84 15.95h44.75M3.14 18.07h46.67M2.43 20.19h48.09m-48.8 2.12h49.51m-49.5 2.13h49.49m-49.5 2.12h49.51m-49.5 2.12h49.49M1.72 30.8h49.51m-48.8 2.12h48.09M3.09 35.04h46.73M3.8 37.16h45.31M4.55 39.29h43.61M5.94 41.41h40.1M8.06 43.53h35.86m-33.71 2.12H41.8m-28.77 2.12h26.65m-21.45 2.12h18.16" id="cLines"/></g><path class="ccls-5" d="M29.5 51.75V33.41h6l1-7h-7V21.6c0-2 .54-3.38 3.5-3.27h3.75V11.8c-.65-.06-2.88-.25-5.5-.25-5.4 0-9.12 3.33-9 9.55v5.28H16v7h6.25v18.37h7.25"/></g></g></g></symbol><symbol viewBox="0 0 53 53" id="instagram"><defs><style>.dcls-1,.dcls-2,.dcls-4{fill:none}.dcls-2,.dcls-4{stroke:#009bcd;stroke-miterlimit:10}.dcls-2{stroke-width:3px}.dcls-3{clip-path:url(#dclip-path)}.dcls-4{stroke-linecap:square;stroke-width:.25px}.dcls-5{fill:#009bcd;fill-rule:evenodd}</style><clipPath id="dclip-path"><circle class="dcls-1" cx="26.5" cy="26.5" r="22"/></clipPath></defs><g id="dLayer_2" data-name="Layer 2"><g id="dLayer_1-2" data-name="Layer 1"><g id="dInstagram"><circle id="dCircle" class="dcls-2" cx="26.5" cy="26.5" r="25"/><g class="dcls-3" id="dHatching"><path class="dcls-4" d="M10.92 7.47h31.85M13.04 5.34h26.32m-22.8-2.12h19.01M8.8 9.59h36.06M6.68 11.71h39.65M4.55 13.83h43.14M3.84 15.95h44.75M3.14 18.07h46.67M2.43 20.19h48.09m-48.8 2.12h49.51m-49.5 2.13h49.49m-49.5 2.12h49.51m-49.5 2.12h49.49M1.72 30.8h49.51m-48.8 2.12h48.09M3.09 35.04h46.73M3.8 37.16h45.31M4.55 39.29h43.61M5.94 41.41h40.1M8.06 43.53h35.86m-33.71 2.12H41.8m-28.77 2.12h26.65m-21.45 2.12h18.16" id="dLines"/></g><path class="dcls-5" d="M26.25 32a5.5 5.5 0 1 1 5.5-5.5 5.5 5.5 0 0 1-5.5 5.5zm0-14a8.5 8.5 0 1 0 8.5 8.5 8.5 8.5 0 0 0-8.5-8.5zm11-.5a2 2 0 1 1-2-2 2 2 0 0 1 2 2zM26.5 12.75H33a9.58 9.58 0 0 1 3.25.75A3.26 3.26 0 0 1 38 14.75a3.26 3.26 0 0 1 1.25 1.75 9.58 9.58 0 0 1 .75 3.25V33a9.58 9.58 0 0 1-.75 3.25A3.26 3.26 0 0 1 38 38a3.26 3.26 0 0 1-1.75 1.25A9.58 9.58 0 0 1 33 40H19.75a9.58 9.58 0 0 1-3.25-.75A3.26 3.26 0 0 1 14.75 38a3.26 3.26 0 0 1-1.25-1.75 9.58 9.58 0 0 1-.75-3.25V19.75a9.58 9.58 0 0 1 .75-3.25 3.26 3.26 0 0 1 1.25-1.75 3.26 3.26 0 0 1 1.75-1.25 9.58 9.58 0 0 1 3.25-.75c1.66.02 2.19 0 6.75 0zm0-3h-7a23.1 23.1 0 0 0-4 .75 12.12 12.12 0 0 0-3 2 12.12 12.12 0 0 0-2 3 23.1 23.1 0 0 0-.75 4v13.75a23.1 23.1 0 0 0 .75 4 12.12 12.12 0 0 0 2 3 12.12 12.12 0 0 0 3 2 23.1 23.1 0 0 0 4 .75h13.75a23.1 23.1 0 0 0 4-.75 12.12 12.12 0 0 0 3-2 12.12 12.12 0 0 0 2-3 23.1 23.1 0 0 0 .75-4V19.5a23.1 23.1 0 0 0-.75-4 12.12 12.12 0 0 0-2-3 12.12 12.12 0 0 0-3-2 23.1 23.1 0 0 0-4-.75c-1.79.02-2.36 0-6.75 0z" id="dLogo"/></g></g></g></symbol><symbol viewBox="0 0 53 53" id="twitter"><defs><style>.ecls-1,.ecls-2,.ecls-4{fill:none}.ecls-2,.ecls-4{stroke:#009bcd;stroke-miterlimit:10}.ecls-2{stroke-width:3px}.ecls-3{clip-path:url(#eclip-path)}.ecls-4{stroke-linecap:square;stroke-width:.25px}.ecls-5{fill:#009bcd;fill-rule:evenodd}</style><clipPath id="eclip-path"><circle class="ecls-1" cx="26.5" cy="26.5" r="22"/></clipPath></defs><g id="eLayer_2" data-name="Layer 2"><g id="eLayer_1-2" data-name="Layer 1"><g id="eTwitter"><circle id="eCircle" class="ecls-2" cx="26.5" cy="26.5" r="25"/><g class="ecls-3" id="eHatching"><path class="ecls-4" d="M10.92 7.47h31.85M13.04 5.34h26.32m-22.8-2.12h19.01M8.8 9.59h36.06M6.68 11.71h39.65M4.55 13.83h43.14M3.84 15.95h44.75M3.14 18.07h46.67M2.43 20.19h48.09m-48.8 2.12h49.51m-49.5 2.13h49.49m-49.5 2.12h49.51m-49.5 2.12h49.49M1.72 30.8h49.51m-48.8 2.12h48.09M3.09 35.04h46.73M3.8 37.16h45.31M4.55 39.29h43.61M5.94 41.41h40.1M8.06 43.53h35.86m-33.71 2.12H41.8m-28.77 2.12h26.65m-21.45 2.12h18.16" id="eLines"/></g><path id="eLogo" class="ecls-5" d="M43.5 15.75a11.19 11.19 0 0 1-4 1 6.15 6.15 0 0 0 3-3.75 15 15 0 0 1-4.25 1.75A7.3 7.3 0 0 0 33 12.5a7.06 7.06 0 0 0-7 7 12.84 12.84 0 0 0 .25 1.5 20.14 20.14 0 0 1-14.5-7.25 7.3 7.3 0 0 0-.75 3.5A6.61 6.61 0 0 0 14 23a8.38 8.38 0 0 1-3.25-.75c.12 0 .12 0 0 0A7 7 0 0 0 16.5 29a4.59 4.59 0 0 1-2 .25 6.9 6.9 0 0 1-1.25 0 7.11 7.11 0 0 0 6.5 4.75 13.71 13.71 0 0 1-8.5 3 13.25 13.25 0 0 0-1.75 0 20.85 20.85 0 0 0 10.75 3C33 40 40 29.42 40 20.25a4.61 4.61 0 0 0 0-1 12.1 12.1 0 0 0 3.5-3.5"/></g></g></g></symbol></svg>