<?xml version="1.0" encoding="utf-8"?><svg xmlns="http://www.w3.org/2000/svg" xmlns:xlink="http://www.w3.org/1999/xlink"><symbol viewBox="0 0 200 200" id="GitHub"><path fill="#009BCD" fill-rule="evenodd" d="M0 100c0 55.23 44.77 100 100 100s100-44.77 100-100S155.23 0 100 0 0 44.77 0 100zm151-75c2.186 3.34 3.402 12.64 3 19l-1 5 3 3c4.76 5.89 7.582 13.402 8 22 .462 5.415-.248 17.22-1 21-.386 1.517-.532 2.674 0 3-.317-.112 4.27-.24 10-1 5.63.21 10.535.18 12 0 .968.71-1.67.9-10 1-5.9.232-11.46.572-12 1-1.01.184-1.556.85-2 2-.306 1.706-1.534 1.464 12 2 4.892.363 10.03.764 11 1 2.108.546.896.57-3 0-1.896-.186-7.253-.413-12 0l-9-1-1 3c-2.566 4.22-8.665 10.06-13 12-4.522 2.64-11.998 4.99-19 6-2.747.6-5.634 1.13-6 1-.427.4.035 1.164 1 3 2.89 2.276 4.11 4.466 5 8 .818 2.178 1.047 5.773 1 17 .56 14.198.536 14.708 0 15-3.13.81-8.272 2.14-9 2-.135.14-.332-3.356 0-13-.667-13.23-.918-14.98-3-17-.588-.19-.642.905-1 15v16h-3c-1.52.528-3.78.703-5 1h-2v-9c-.125-4.218-.283-11.71 0-16v-9h-3v34h-4c-2.132-.116-4.55-.234-5 0l-2-1v-16c.102-14.16.03-15.637-1-15-1.788 1.697-1.92 2.654-2 17v14h-2c-.892-.384-3.028-.867-5-1l-3-1v-18h-2c-4.536.868-12.06.662-15 0-5.86-1.95-9.6-5.323-13-12-2.603-5.665-5.074-8.983-9-12-3.57-3.027-4.282-4.093-3-5 .52-.056 2.048-.267 3 0 2.717-.257 6.926 1.677 10 4 .68 1.13 2.56 3.3 4 5 4.49 6.593 9.555 9.283 16 9 4.297-.572 9.032-1.944 10-3-.262-.3.37-1.842 1-3 .618-2.097 1.903-4.053 4-6 1.9-2.362 1.975-2.527 1-3-.644.152-3.645-.388-7-1-11.145-1.96-19.573-5.752-26-12-2.007-1.7-4.42-4.4-5-6l-2-2H35c-5.438.35-11.555.783-14 1-2.992.794-4.13.81-4 0 .825-.143 14.33-1.41 21-2 3.57.138 6.454-.187 6 0 .454-.673.143-1.476 0-2-1.186-2.04-2.47-2.176-16-2-6.807.087-12 .01-12 0 0-.775 9.336-1.14 18-1 8.1.415 8.663.384 8 0 .2-.81-.398-2.956-1-5-.844-3.602-.973-5.348-1-14 .022-9.886.1-10.786 1-14 1.582-4.093 4.086-8.877 7-12l1-2v-4c-1.603-5.12-1.4-12.663 0-18 1.332-4.57 1.518-4.73 5-4 5.552-.033 12.003 2.534 20 7l4 3 4-1c10.83-3.015 27.09-3.272 39-1l4 1 4-3c4.925-2.778 10.078-5.05 15-6 1.798-.66 3.34-.953 4-1 1.86-.048 2.546.318 3 1zM45 126c-.672 0-1 .178-1 1 0 .96 1.216 1.385 3 1 .554-.968-.243-2-2-2zm-4-2c-.672 0-1 .178-1 1 0 .96 1.216 1.385 3 1 .554-.968-.243-2-2-2zm7 5c-.702.01-1.232.584-1 1 .475 1.35 2.786 1.107 3 0 .082-.39-.26-.722-1-1-.31.025-.545-.002-1 0zm3 4c-1.903 0-2.526.85-1 2 .518.38 2-.07 2-1 0-.784-.322-1-1-1zm3 3c.252 0 .184.002 0 0-.462.087-.878.493-1 1-.09.856.093 1 1 1 .994 0 1.74-.196 2 0 .323-1.06-.684-2-2-2zm3 3c-.664.02-1.248.602-1 1 .547 1.408 3 1.063 3 0 0-.564-.365-.88-1-1-.284.007-.45-.002-1 0zm17 1c.09 0-.473.338-1 1-.406.67.337 2 1 2 .904 0 1.474-.338 2-1 .407-.67-.342-2-2-2zm-6 1c-.71.08-1.282 1.03-1 2 .48 1.4 2.124 1.124 3 0 .125-.802.084-1.125 0-2-.91.12-1.39-.03-2 0zm-5 0c-.285.03-.857.443-1 1-.253 1.878 1.664 2.693 3 1 .116-.36.112-.682 0-1-.685-.81-1.193-1.02-2-1z"/></symbol><symbol viewBox="0 0 200 200" id="facebook"><path fill="#009BCD" fill-rule="evenodd" d="M83.015 198.563C35.875 190.498 0 149.44 0 100 0 44.77 44.77 0 100 0s100 44.77 100 100c0 51.034-38.23 93.14-87.613 99.24v-72.223h24.498l3.668-28.443h-28.166v-18.16c0-8.235 2.287-13.847 14.096-13.847l15.062-.007V41.12C138.94 40.776 130 40 119.598 40c-21.716 0-36.583 13.255-36.583 37.598v20.976h-24.56v28.443h24.56v71.546z"/></symbol><symbol viewBox="0 0 200 200" id="instagram"><title>Instagram</title><path d="M100 0C44.771 0 0 44.771 0 100s44.771 100 100 100 100-44.771 100-100S155.229 0 100 0zm-.359 33c-18.099 0-20.368.077-27.476.401-7.093.324-11.938 1.45-16.176 3.098-4.383 1.702-8.1 3.981-11.804 7.686-3.705 3.705-5.984 7.421-7.686 11.804-1.648 4.238-2.774 9.083-3.098 16.176C33.077 79.273 33 81.542 33 99.64c0 18.098.077 20.368.401 27.476.324 7.093 1.45 11.937 3.098 16.176 1.702 4.382 3.981 8.099 7.686 11.804s7.421 5.983 11.804 7.686c4.238 1.648 9.083 2.774 16.176 3.098 7.108.324 9.377.4 27.476.4 18.098 0 20.368-.076 27.476-.4 7.093-.324 11.937-1.45 16.176-3.098 4.382-1.703 8.099-3.981 11.804-7.686s5.983-7.422 7.686-11.804c1.648-4.239 2.774-9.083 3.098-16.176.324-7.108.4-9.378.4-27.476 0-18.099-.076-20.368-.4-27.476-.324-7.093-1.45-11.938-3.098-16.176-1.703-4.383-3.981-8.1-7.686-11.804-3.705-3.705-7.422-5.984-11.804-7.686-4.239-1.648-9.083-2.774-16.176-3.098-7.108-.324-9.378-.401-27.476-.401zm0 12.007c17.794 0 19.901.068 26.928.389 6.498.296 10.026 1.382 12.375 2.294 3.11 1.21 5.33 2.653 7.662 4.986 2.332 2.331 3.776 4.551 4.985 7.662.913 2.348 1.999 5.877 2.295 12.374.32 7.027.388 9.135.388 26.929 0 17.794-.068 19.901-.388 26.928-.296 6.498-1.382 10.026-2.295 12.375-1.209 3.11-2.653 5.33-4.985 7.662-2.332 2.332-4.552 3.776-7.662 4.985-2.349.913-5.877 1.999-12.375 2.295-7.025.32-9.133.388-26.928.388s-19.903-.068-26.929-.388c-6.497-.296-10.026-1.382-12.374-2.295-3.11-1.209-5.33-2.653-7.662-4.985-2.332-2.332-3.777-4.552-4.986-7.662-.912-2.349-1.998-5.877-2.294-12.375-.32-7.027-.389-9.134-.389-26.928s.068-19.902.389-26.929c.296-6.497 1.382-10.026 2.294-12.374 1.21-3.11 2.653-5.33 4.986-7.662 2.331-2.333 4.551-3.777 7.662-4.986 2.348-.912 5.877-1.998 12.374-2.294 7.027-.32 9.135-.389 26.929-.389zm43.08 19.422a7.997 7.997 0 1 1-15.994 0 7.997 7.997 0 0 1 15.994 0zM99.44 65.95c-18.9 0-34.221 15.32-34.221 34.22s15.32 34.222 34.22 34.222 34.222-15.321 34.222-34.221S118.339 65.95 99.44 65.95zm0 56.434c-12.269 0-22.214-9.945-22.214-22.213 0-12.269 9.945-22.214 22.214-22.214 12.268 0 22.213 9.945 22.213 22.214 0 12.268-9.945 22.213-22.213 22.213z" fill="#009BCD" fill-rule="evenodd"/></symbol><symbol viewBox="0 0 200 200" id="twitter"><path fill="#009BCD" fill-rule="evenodd" d="M100 0C44.772 0 0 44.772 0 100s44.772 100 100 100 100-44.772 100-100S155.228 0 100 0zm68 58.022a56.024 56.024 0 0 1-16.026 4.372c5.76-3.437 10.185-8.88 12.27-15.363a55.995 55.995 0 0 1-17.72 6.74 27.93 27.93 0 0 0-20.366-8.77c-15.41 0-27.903 12.434-27.903 27.77 0 2.177.248 4.296.723 6.328-23.19-1.158-43.75-12.213-57.51-29.014a27.538 27.538 0 0 0-3.778 13.96c0 9.635 4.926 18.135 12.413 23.115a27.913 27.913 0 0 1-12.638-3.474c-.002.115-.002.232-.002.35 0 13.453 9.617 24.677 22.382 27.228a28.06 28.06 0 0 1-12.602.476c3.55 11.032 13.856 19.06 26.065 19.284-9.55 7.448-21.58 11.888-34.652 11.888a57.13 57.13 0 0 1-6.656-.388A79.24 79.24 0 0 0 74.77 155c51.323 0 79.388-42.315 79.388-79.01 0-1.205-.027-2.403-.08-3.593A56.606 56.606 0 0 0 168 58.022z"/></symbol></svg>