<?xml version="1.0" encoding="utf-8"?><svg xmlns="http://www.w3.org/2000/svg" xmlns:xlink="http://www.w3.org/1999/xlink"><symbol viewBox="0 0 53 53" id="GitHub"><defs><style>.aa,.ab,.ac,.ae{fill:none}.ab{clip-rule:evenodd}.ac,.ae{stroke:#009bcd;stroke-miterlimit:10}.ac{stroke-width:3px}.ad{clip-path:url(#aa)}.ae{stroke-linecap:square;stroke-width:.25px}.af{clip-path:url(#ab)}.ag{fill:#009bcd}</style><clipPath id="aa"><circle class="aa" cx="26.5" cy="26.5" r="22"/></clipPath><clipPath id="ab"><path class="ab" d="M17.25 39.75A.37.37 0 0 0 17 40c-.063.47.416.674.75.25a.376.376 0 0 0 0-.25.556.556 0 0 0-.5-.25zm1.25 0a.38.38 0 0 0-.25.5c.12.35.53.282.75 0a1.608 1.608 0 0 0 0-.5 3.69 3.69 0 0 1-.5 0zm1.5-.25c.023 0-.118.086-.25.25-.1.168.084.5.25.5a.583.583 0 0 0 .5-.25c.102-.166-.085-.5-.5-.5zm-4.25-.25c-.166.006-.312.152-.25.25.137.353.75.267.75 0 0-.14-.09-.22-.25-.25-.07.003-.112 0-.25 0zM15 38.5c.063 0 .046.002 0 0a.335.335 0 0 0-.25.25c-.022.215.023.25.25.25.25 0 .435-.048.5 0 .08-.264-.17-.5-.5-.5zm-.75-.75c-.476 0-.63.214-.25.5.13.096.5-.016.5-.25 0-.195-.08-.25-.25-.25zm-.75-1c-.176.004-.308.147-.25.25.12.34.696.278.75 0 .02-.097-.065-.18-.25-.25-.078.007-.136 0-.25 0zm-1.75-1.25c-.168 0-.25.045-.25.25 0 .24.304.347.75.25.14-.24-.06-.5-.5-.5zm1 .5c-.168 0-.25.045-.25.25 0 .24.304.347.75.25.14-.24-.06-.5-.5-.5zm26.5-25.25A10.226 10.226 0 0 1 40 15.5l-.25 1.25.75.75a9.345 9.345 0 0 1 2 5.5 28.527 28.527 0 0 1-.25 5.25c-.097.38-.133.67 0 .75-.08-.027 1.067-.06 2.5-.25a28.595 28.595 0 0 0 3 0c.242.18-.418.226-2.5.25a16.8 16.8 0 0 0-3 .25c-.253.047-.39.213-.5.5-.077.428-.384.367 3 .5 1.223.092 2.508.192 2.75.25.527.138.224.144-.75 0a19.43 19.43 0 0 0-3 0l-2.25-.25-.25.75A9.203 9.203 0 0 1 38 34a14.403 14.403 0 0 1-4.75 1.5 8.468 8.468 0 0 1-1.5.25c-.107.1.01.292.25.75a3.25 3.25 0 0 1 1.25 2c.205.545.262 1.444.25 4.25.14 3.55.134 3.678 0 3.75a16.693 16.693 0 0 1-2.25.5 20.6 20.6 0 0 1 0-3.25c-.167-3.307-.23-3.744-.75-4.25-.147-.046-.16.227-.25 3.75v4h-.75c-.38.133-.945.177-1.25.25h-.5v-2.25c-.03-1.053-.07-2.926 0-4V39H27v8.5h-1a5.595 5.595 0 0 0-1.25 0l-.5-.25v-4c.026-3.54.008-3.908-.25-3.75-.447.425-.48.664-.5 4.25v3.5H23a4.65 4.65 0 0 0-1.25-.25l-.75-.25v-4.5h-.5a12.25 12.25 0 0 1-3.75 0 5.297 5.297 0 0 1-3.25-3 7.176 7.176 0 0 0-2.25-3c-.892-.756-1.07-1.022-.75-1.25a2.31 2.31 0 0 1 .75 0 4.344 4.344 0 0 1 2.5 1 14.255 14.255 0 0 0 1 1.25 4.35 4.35 0 0 0 4 2.25 6.158 6.158 0 0 0 2.5-.75c-.066-.074.093-.46.25-.75a3.344 3.344 0 0 1 1-1.5c.475-.59.494-.63.25-.75A10.23 10.23 0 0 1 21 35.5a11.87 11.87 0 0 1-6.5-3 4.93 4.93 0 0 1-1.25-1.5l-.5-.5h-2.5c-1.36.09-2.89.197-3.5.25-.748.2-1.033.204-1 0 .206-.035 3.582-.35 5.25-.5.892.036 1.613-.046 1.5 0a.585.585 0 0 0 0-.5c-.297-.51-.617-.543-4-.5-1.702.023-3 .004-3 0 0-.193 2.334-.284 4.5-.25 2.025.105 2.166.097 2 0a3.853 3.853 0 0 0-.25-1.25 13.05 13.05 0 0 1-.25-3.5c.005-2.47.025-2.695.25-3.5a9.89 9.89 0 0 1 1.75-3l.25-.5v-1a9.132 9.132 0 0 1 0-4.5c.333-1.142.38-1.182 1.25-1a10.852 10.852 0 0 1 5 1.75l1 .75 1-.25a24.115 24.115 0 0 1 9.75-.25l1 .25 1-.75a12.89 12.89 0 0 1 3.75-1.5 4.245 4.245 0 0 1 1-.25c.465-.01.637.08.75.25z"/></clipPath></defs><title>GitHub</title><circle class="ac" cx="26.5" cy="26.5" r="25"/><path class="ad ae" d="M42.034 45.533H10.182m29.73 2.122H13.597m22.793 2.12H17.383m26.772-6.363H8.092m38.184-2.122H6.62m41.777-2.12H5.264m43.846-2.122H4.36m45.457-2.12H3.137m47.386-2.122H2.43m48.8-2.122H1.723m49.503-2.12H1.728M51.23 26.44H1.723m49.503-2.122H1.728M51.23 22.2H1.723m48.8-2.122H2.43m47.427-2.122H3.137m46.016-2.12H3.843m44.56-2.122H4.788m42.22-2.122h-40.1M44.89 9.47H9.03m33.71-2.12H11.153m28.77-2.122h-26.65m21.454-2.12H16.564"/><path class="af ag" d="M.5 5.5h52.297v47H.5z"/></symbol><symbol viewBox="0 0 53 53" id="LinkedIn"><defs><style>.bba,.bb,.bd{fill:none}.bb,.bd{stroke:#009bcd;stroke-miterlimit:10}.bb{stroke-width:3px}.bc{clip-path:url(#ba)}.bd{stroke-linecap:square;stroke-width:.25px}.be,.bf{fill:#009bcd}.be{fill-rule:evenodd}</style><clipPath id="ba"><circle class="ba" cx="26.5" cy="26.5" r="22"/></clipPath></defs><title>LinkedIn</title><circle class="bb" cx="26.5" cy="26.5" r="25"/><path class="bc bd" d="M42.034 45.533H10.182m29.73 2.122H13.597m22.793 2.12H17.383m26.772-6.363H8.092m38.184-2.122H6.62m41.777-2.12H5.264m43.846-2.122H4.36m45.457-2.12H3.137m47.386-2.122H2.43m48.8-2.122H1.723m49.503-2.12H1.728M51.23 26.44H1.723m49.503-2.122H1.728M51.23 22.2H1.723m48.8-2.122H2.43m47.427-2.122H3.137m46.016-2.12H3.843m44.56-2.122H4.788m42.22-2.122h-40.1M44.89 9.47H9.03m33.71-2.12H11.153m28.77-2.122h-26.65m21.454-2.12H16.564"/><path class="be" d="M22.435 21.97h5.343v2.556h.232a5.71 5.71 0 0 1 5.342-3.02c5.678 0 6.736 3.8 6.736 8.827v9.987h-5.574v-8.826c-.08-2.23-.122-4.968-3.02-4.878-2.95-.09-3.4 2.23-3.484 4.646v9.058h-5.575V21.97"/><path class="bf" d="M13.144 21.97h5.807v18.35h-5.804z"/><circle class="bf" cx="16.164" cy="15.931" r="3.252"/></symbol><symbol viewBox="0 0 53 56.751" id="facebook"><defs><style>.cca,.ccb,.cc,.ce{fill:none}.cb{clip-rule:evenodd}.cc,.ce{stroke:#009bcd;stroke-miterlimit:10}.cc{stroke-width:3px}.cd{clip-path:url(#ca)}.ce{stroke-linecap:square;stroke-width:.25px}.cf{clip-path:url(#cb)}.cg{fill:#009bcd}</style><clipPath id="ca"><circle class="ca" cx="26.5" cy="26.5" r="22"/></clipPath><clipPath id="cb"><path class="cb" d="M29.5 51.75V33.41h6l1-7.036h-7V21.6c-.032-1.965.54-3.375 3.5-3.266h3.75v-6.532a63.871 63.871 0 0 0-5.5-.252c-5.404 0-9.117 3.33-9 9.548v5.276H16v7.036h6.25v18.34h7.25"/></clipPath></defs><title>facebook</title><circle class="cc" cx="26.5" cy="26.5" r="25"/><path class="cd ce" d="M10.92 7.466h31.85M13.04 5.344h26.316m-22.793-2.12H35.57M8.797 9.586H44.86m-38.184 2.12H46.33M4.555 13.83h43.133M3.842 15.95h44.75M3.135 18.072h46.68M2.43 20.194h48.092m-48.8 2.12H51.23M1.726 24.437h49.498m-49.502 2.12H51.23M1.726 28.68h49.498M1.722 30.8H51.23m-48.8 2.12h48.09M3.095 35.043h46.72M3.8 37.163h45.308M4.55 39.286h43.614m-42.22 2.122h40.1m-37.982 2.12h35.86m-33.71 2.123H41.8m-28.77 2.12h26.65m-21.454 2.123h18.162"/><path class="cf cg" d="M11 6.55h30.75v50.2H11z"/></symbol><symbol viewBox="0 0 53 53" id="instagram"><defs><style>.da,.db,.dc,.de{fill:none}.db{clip-rule:evenodd}.dc,.de{stroke:#009bcd;stroke-miterlimit:10}.dc{stroke-width:3px}.dd{clip-path:url(#da)}.de{stroke-linecap:square;stroke-width:.25px}.df{clip-path:url(#db)}.dg{fill:#009bcd}</style><clipPath id="da"><circle class="da" cx="26.5" cy="26.5" r="22"/></clipPath><clipPath id="db"><path class="db" d="M26.25 32a5.5 5.5 0 1 1 5.5-5.5 5.5 5.5 0 0 1-5.5 5.5zm0-14a8.5 8.5 0 1 0 8.5 8.5 8.5 8.5 0 0 0-8.5-8.5zm11-.5a2 2 0 1 1-2-2 2 2 0 0 1 2 2zM26.5 12.75c4.313 0 4.838.017 6.5 0a9.58 9.58 0 0 1 3.25.75A3.258 3.258 0 0 1 38 14.75a3.26 3.26 0 0 1 1.25 1.75 9.58 9.58 0 0 1 .75 3.25c-.017 1.662 0 2.187 0 6.75 0 4.313-.017 4.838 0 6.5a9.58 9.58 0 0 1-.75 3.25A3.26 3.26 0 0 1 38 38a3.258 3.258 0 0 1-1.75 1.25A9.58 9.58 0 0 1 33 40c-1.66-.017-2.187 0-6.5 0-4.563 0-5.088-.017-6.75 0a9.58 9.58 0 0 1-3.25-.75A3.258 3.258 0 0 1 14.75 38a3.26 3.26 0 0 1-1.25-1.75 9.58 9.58 0 0 1-.75-3.25c.017-1.662 0-2.187 0-6.5 0-4.563.017-5.088 0-6.75a9.58 9.58 0 0 1 .75-3.25 3.26 3.26 0 0 1 1.25-1.75 3.258 3.258 0 0 1 1.75-1.25 9.58 9.58 0 0 1 3.25-.75c1.662.017 2.187 0 6.75 0zm0-3c-4.64 0-5.206.02-7 0a23.098 23.098 0 0 0-4 .75 12.12 12.12 0 0 0-3 2 12.12 12.12 0 0 0-2 3 23.1 23.1 0 0 0-.75 4c.02 1.794 0 2.36 0 7 0 4.39.02 4.956 0 6.75a23.1 23.1 0 0 0 .75 4 12.12 12.12 0 0 0 2 3 12.12 12.12 0 0 0 3 2 23.098 23.098 0 0 0 4 .75c1.794-.02 2.36 0 7 0 4.39 0 4.956-.02 6.75 0a23.098 23.098 0 0 0 4-.75 12.12 12.12 0 0 0 3-2 12.12 12.12 0 0 0 2-3 23.1 23.1 0 0 0 .75-4c-.02-1.794 0-2.36 0-6.75 0-4.64-.02-5.206 0-7a23.1 23.1 0 0 0-.75-4 12.12 12.12 0 0 0-2-3 12.12 12.12 0 0 0-3-2 23.098 23.098 0 0 0-4-.75c-1.794.02-2.36 0-6.75 0z"/></clipPath></defs><title>instagram</title><circle class="dc" cx="26.5" cy="26.5" r="25"/><path class="dd de" d="M10.92 7.466h31.85M13.04 5.344h26.316m-22.793-2.12H35.57M8.797 9.586H44.86m-38.184 2.12H46.33M4.555 13.83h43.133M3.842 15.95h44.75M3.135 18.072h46.68M2.43 20.194h48.092m-48.8 2.12H51.23M1.726 24.437h49.498m-49.502 2.12H51.23M1.726 28.68h49.498M1.722 30.8H51.23m-48.8 2.12h48.09M3.095 35.043h46.72M3.8 37.163h45.308M4.55 39.286h43.614m-42.22 2.122h40.1m-37.982 2.12h35.86m-33.71 2.123H41.8m-28.77 2.12h26.65m-21.454 2.123h18.162"/><path class="df dg" d="M4.75 4.75H48V48H4.75z"/></symbol><symbol viewBox="0 0 53 53" id="twitter"><defs><style>.ea,.eb,.ed{fill:none}.eb,.ed{stroke:#009bcd;stroke-miterlimit:10}.eb{stroke-width:3px}.ec{clip-path:url(#ea)}.ed{stroke-linecap:square;stroke-width:.25px}.ee{fill:#009bcd;fill-rule:evenodd}</style><clipPath id="ea"><circle class="ea" cx="26.5" cy="26.5" r="22"/></clipPath></defs><title>twitter</title><circle class="eb" cx="26.5" cy="26.5" r="25"/><path class="ec ed" d="M10.92 7.466h31.85M13.04 5.344h26.316m-22.793-2.12H35.57M8.797 9.586H44.86m-38.184 2.12H46.33M4.555 13.83h43.133M3.842 15.95h44.75M3.135 18.072h46.68M2.43 20.194h48.092m-48.8 2.12H51.23M1.726 24.437h49.498m-49.502 2.12H51.23M1.726 28.68h49.498M1.722 30.8H51.23m-48.8 2.12h48.09M3.095 35.043h46.72M3.8 37.163h45.308M4.55 39.286h43.614m-42.22 2.122h40.1m-37.98 2.12h35.86M10.21 45.65H41.8m-28.77 2.12h26.65m-21.454 2.122h18.162"/><path class="ee" d="M43.5 15.75a11.185 11.185 0 0 1-4 1 6.145 6.145 0 0 0 3-3.75 15.033 15.033 0 0 1-4.25 1.75A7.302 7.302 0 0 0 33 12.5a7.06 7.06 0 0 0-7 7 12.837 12.837 0 0 0 .25 1.5 20.135 20.135 0 0 1-14.5-7.25 7.303 7.303 0 0 0-.75 3.5A6.608 6.608 0 0 0 14 23a8.382 8.382 0 0 1-3.25-.75c.116-.05.116-.02 0 0A7.045 7.045 0 0 0 16.5 29a4.59 4.59 0 0 1-2 .25 6.896 6.896 0 0 1-1.25 0 7.112 7.112 0 0 0 6.5 4.75 13.713 13.713 0 0 1-8.5 3 13.253 13.253 0 0 0-1.75 0 20.85 20.85 0 0 0 10.75 3C33.023 40 40.04 29.42 40 20.25a4.61 4.61 0 0 0 0-1 12.098 12.098 0 0 0 3.5-3.5"/></symbol></svg>