<svg xmlns="http://www.w3.org/2000/svg" viewBox="0 0 53 53"><defs><style>.a,.b,.c,.e{fill:none;}.b{clip-rule:evenodd;}.c,.e{stroke:#009bcd;stroke-miterlimit:10;}.c{stroke-width:3px;}.d{clip-path:url(#a);}.e{stroke-linecap:square;stroke-width:0.25px;}.f{clip-path:url(#b);}.g{fill:#009bcd;}</style><clipPath id="a"><circle class="a" cx="26.5" cy="26.5" r="22"/></clipPath><clipPath id="b"><path class="b" d="M26.25 32a5.5 5.5 0 1 1 5.5-5.5 5.5 5.5 0 0 1-5.5 5.5zm0-14a8.5 8.5 0 1 0 8.5 8.5 8.5 8.5 0 0 0-8.5-8.5zm11-.5a2 2 0 1 1-2-2 2 2 0 0 1 2 2zM26.5 12.75c4.313 0 4.838.017 6.5 0a9.58 9.58 0 0 1 3.25.75A3.258 3.258 0 0 1 38 14.75a3.26 3.26 0 0 1 1.25 1.75 9.58 9.58 0 0 1 .75 3.25c-.017 1.662 0 2.187 0 6.75 0 4.313-.017 4.838 0 6.5a9.58 9.58 0 0 1-.75 3.25A3.26 3.26 0 0 1 38 38a3.258 3.258 0 0 1-1.75 1.25A9.58 9.58 0 0 1 33 40c-1.66-.017-2.187 0-6.5 0-4.563 0-5.088-.017-6.75 0a9.58 9.58 0 0 1-3.25-.75A3.258 3.258 0 0 1 14.75 38a3.26 3.26 0 0 1-1.25-1.75 9.58 9.58 0 0 1-.75-3.25c.017-1.662 0-2.187 0-6.5 0-4.563.017-5.088 0-6.75a9.58 9.58 0 0 1 .75-3.25 3.26 3.26 0 0 1 1.25-1.75 3.258 3.258 0 0 1 1.75-1.25 9.58 9.58 0 0 1 3.25-.75c1.662.017 2.187 0 6.75 0zm0-3c-4.64 0-5.206.02-7 0a23.098 23.098 0 0 0-4 .75 12.12 12.12 0 0 0-3 2 12.12 12.12 0 0 0-2 3 23.1 23.1 0 0 0-.75 4c.02 1.794 0 2.36 0 7 0 4.39.02 4.956 0 6.75a23.1 23.1 0 0 0 .75 4 12.12 12.12 0 0 0 2 3 12.12 12.12 0 0 0 3 2 23.098 23.098 0 0 0 4 .75c1.794-.02 2.36 0 7 0 4.39 0 4.956-.02 6.75 0a23.098 23.098 0 0 0 4-.75 12.12 12.12 0 0 0 3-2 12.12 12.12 0 0 0 2-3 23.1 23.1 0 0 0 .75-4c-.02-1.794 0-2.36 0-6.75 0-4.64-.02-5.206 0-7a23.1 23.1 0 0 0-.75-4 12.12 12.12 0 0 0-2-3 12.12 12.12 0 0 0-3-2 23.098 23.098 0 0 0-4-.75c-1.794.02-2.36 0-6.75 0z"/></clipPath></defs><title>instagram</title><circle class="c" cx="26.5" cy="26.5" r="25"/><path class="d e" d="M10.92 7.466h31.85M13.04 5.344h26.316m-22.793-2.12H35.57M8.797 9.586H44.86m-38.184 2.12H46.33M4.555 13.83h43.133M3.842 15.95h44.75M3.135 18.072h46.68M2.43 20.194h48.092m-48.8 2.12H51.23M1.726 24.437h49.498m-49.502 2.12H51.23M1.726 28.68h49.498M1.722 30.8H51.23m-48.8 2.12h48.09M3.095 35.043h46.72M3.8 37.163h45.308M4.55 39.286h43.614m-42.22 2.122h40.1m-37.982 2.12h35.86m-33.71 2.123H41.8m-28.77 2.12h26.65m-21.454 2.123h18.162"/><path class="f g" d="M4.75 4.75H48V48H4.75z"/></svg>