<svg xmlns="http://www.w3.org/2000/svg" viewBox="0 0 53 53">
<defs>
	<style>.instaa, .instab, .instad {fill:none;}
		.instab, .instad {stroke:#009bcd;stroke-miterlimit:10;}
		.instab {stroke-width:3px;}.c{clip-path:url(#a);}
		.instad {stroke-linecap:square;stroke-width:0.25px;}
		.instae {fill:#009bcd;fill-rule:evenodd;}</style>
	<clipPath id="a"><circle cx="26.5" cy="26.5" r="22" class="instaa"/></clipPath>
</defs>

<circle cx="26.5" cy="26.5" r="25" class="instab"/>
<path d="M10.92 7.47h31.85M13.04 5.34h26.32m-22.8-2.12h19.01M8.8 9.59h36.06M6.68 11.71h39.65M4.55 13.83h43.14M3.84 15.95h44.75M3.14 18.07h46.67M2.43 20.19h48.09m-48.8 2.12h49.51m-49.5 2.13h49.49m-49.5 2.12h49.51m-49.5 2.12h49.49M1.72 30.8h49.51m-48.8 2.12h48.09M3.09 35.04h46.73M3.8 37.16h45.31M4.55 39.29h43.61M5.94 41.41h40.1M8.06 43.53h35.86m-33.71 2.12H41.8m-28.77 2.12h26.65m-21.45 2.12h18.16" class="instac instad"/>
<path d="M26.25 32a5.5 5.5 0 1 1 5.5-5.5 5.5 5.5 0 0 1-5.5 5.5zm0-14a8.5 8.5 0 1 0 8.5 8.5 8.5 8.5 0 0 0-8.5-8.5zm11-.5a2 2 0 1 1-2-2 2 2 0 0 1 2 2zM26.5 12.75H33a9.58 9.58 0 0 1 3.25.75A3.26 3.26 0 0 1 38 14.75a3.26 3.26 0 0 1 1.25 1.75 9.58 9.58 0 0 1 .75 3.25V33a9.58 9.58 0 0 1-.75 3.25A3.26 3.26 0 0 1 38 38a3.26 3.26 0 0 1-1.75 1.25A9.58 9.58 0 0 1 33 40H19.75a9.58 9.58 0 0 1-3.25-.75A3.26 3.26 0 0 1 14.75 38a3.26 3.26 0 0 1-1.25-1.75 9.58 9.58 0 0 1-.75-3.25V19.75a9.58 9.58 0 0 1 .75-3.25 3.26 3.26 0 0 1 1.25-1.75 3.26 3.26 0 0 1 1.75-1.25 9.58 9.58 0 0 1 3.25-.75c1.66.02 2.19 0 6.75 0zm0-3h-7a23.1 23.1 0 0 0-4 .75 12.12 12.12 0 0 0-3 2 12.12 12.12 0 0 0-2 3 23.1 23.1 0 0 0-.75 4v13.75a23.1 23.1 0 0 0 .75 4 12.12 12.12 0 0 0 2 3 12.12 12.12 0 0 0 3 2 23.1 23.1 0 0 0 4 .75h13.75a23.1 23.1 0 0 0 4-.75 12.12 12.12 0 0 0 3-2 12.12 12.12 0 0 0 2-3 23.1 23.1 0 0 0 .75-4V19.5a23.1 23.1 0 0 0-.75-4 12.12 12.12 0 0 0-2-3 12.12 12.12 0 0 0-3-2 23.1 23.1 0 0 0-4-.75c-1.79.02-2.36 0-6.75 0z" class="instae"/></svg>