<?xml version="1.0" encoding="UTF-8" standalone="no"?>
<svg width="100%" height="100%" viewBox="0 0 200 200" version="1.1" xmlns="http://www.w3.org/2000/svg" xmlns:xlink="http://www.w3.org/1999/xlink" xmlns:sketch="http://www.bohemiancoding.com/sketch/ns">
    <title>Instagram</title>
    <description>Created with Sketch (http://www.bohemiancoding.com/sketch)</description>
    <defs></defs>
    <g id="Page-1" stroke="none" stroke-width="1" fill="none" fill-rule="evenodd" sketch:type="MSPage">
        <path d="M100,0 C44.7714,0 0,44.7714 0,100 C0,155.2286 44.7714,200 100,200 C155.2286,200 200,155.2286 200,100 C200,44.7714 155.2286,0 100,0 L100,0 L100,0 Z M52.55,32 L148.3188,32 C159.462,32 168.4376,40.0132 168.4376,49.9688 L168.4376,150.0312 C168.4376,159.9868 159.462,168 148.3188,168 L52.55,168 C41.4068,168 32.4376,159.987 32.4376,150.0312 L32.4376,49.9688 C32.4376,40.0132 41.4068,32 52.55,32 L52.55,32 L52.55,32 Z M135.4938,46.0812 C132.9892,46.0812 130.9688,48.0952 130.9688,50.6 L130.9688,65.0688 C130.9688,67.5734 132.9892,69.5876 135.4938,69.5876 L149.9626,69.5876 C152.4672,69.5876 154.4814,67.5736 154.4814,65.0688 L154.4814,50.6 C154.4814,48.0954 152.4674,46.0812 149.9626,46.0812 L135.4938,46.0812 L135.4938,46.0812 Z M123.2624,71.7 C123.3616,71.7708 123.4638,71.8408 123.5624,71.9124 L123.5624,71.7 L123.2624,71.7 L123.2624,71.7 Z M100,74.4 C83.4314,74.4 70,87.8314 70,104.4 C70,120.9686 83.4314,134.4 100,134.4 C116.5686,134.4 130,120.9686 130,104.4 C130,87.8314 116.5686,74.4 100,74.4 L100,74.4 L100,74.4 Z M40,85.6624 L40,148 C40,154.648 45.352,160 52,160 L148,160 C154.648,160 160,154.648 160,148 L160,86.9312 L136.0812,86.9312 C138.5902,92.1542 140,98.0056 140,104.1876 C140,126.2276 122.1338,144.0938 100.0938,144.0938 C78.0538,144.0938 60.1876,126.2276 60.1876,104.1876 C60.1876,97.5002 61.8368,91.199 64.7438,85.6626 L40,85.6626 L40,85.6624 L40,85.6624 Z" id="Instagram" fill="#009BCD" sketch:type="MSShapeGroup"></path>
    </g>
</svg>