<svg xmlns="http://www.w3.org/2000/svg" width="200" height="200" viewBox="0 0 200 200">
  <path fill="#009BCD" fill-rule="evenodd" d="M100 0C44.77 0 0 44.77 0 100s44.77 100 100 100 100-44.77 100-100S155.23 0 100 0zm50 165H50c-8.285 0-15-6.718-15-15V50c0-8.286 6.715-15 15-15h100c8.286 0 15 6.714 15 15v100c0 8.282-6.714 15-15 15zm5-77h-13c1.354 3.574 1.895 7.31 2 11-.105 24.842-19.98 44.837-45 45-24.02-.163-43.896-20.158-44-45 .104-3.69.647-7.426 2-11H44v61c0 3.5 2.486 6 6 6h99c3.514 0 6-2.5 6-6V88zm1-39c0-2.76-2.24-5-5-5h-15c-2.763 0-5 2.24-5 5v15c0 2.76 2.237 5 5 5h15c2.76 0 5-2.24 5-5V49zm-56 16c-19.108 0-35 15.89-35 35 0 20.1 15.892 36 35 36 20.105 0 36-15.9 36-36 0-19.11-15.895-35-36-35z"/>
</svg>
