<?xml version="1.0" encoding="UTF-8" standalone="no"?>
<svg width="1000px" height="1000px" viewBox="0 0 1000 1000" version="1.1" xmlns="http://www.w3.org/2000/svg" xmlns:xlink="http://www.w3.org/1999/xlink" xmlns:sketch="http://www.bohemiancoding.com/sketch/ns">
    <title>Instagram</title>
    <description>Created with Sketch (http://www.bohemiancoding.com/sketch)</description>
    <defs></defs>
    <g id="Page 1" fill="#D8D8D8" fill-rule="evenodd">
        <g id="svg2" fill="#000000">
            <path d="M500,0 C223.857,0 0,223.857 0,500 C0,776.143 223.857,1000 500,1000 C776.143,1000 1000,776.143 1000,500 C1000,223.857 776.143,0 500,0 L500,0 Z M262.75,160 L741.594,160 C797.31,160 842.188,200.066 842.188,249.844 L842.188,750.156 C842.188,799.934 797.31,840 741.594,840 L262.75,840 C207.034,840 162.188,799.935 162.188,750.156 L162.188,249.844 C162.188,200.066 207.034,160 262.75,160 L262.75,160 Z M677.469,230.406 C664.946,230.406 654.844,240.476 654.844,253 L654.844,325.344 C654.844,337.867 664.946,347.938 677.469,347.938 L749.813,347.938 C762.336,347.938 772.407,337.868 772.407,325.344 L772.407,253 C772.407,240.477 762.337,230.406 749.813,230.406 L677.469,230.406 L677.469,230.406 Z M616.312,358.5 C616.808,358.854 617.319,359.204 617.812,359.562 L617.812,358.5 L616.312,358.5 L616.312,358.5 Z M500,372 C417.157,372 350,439.157 350,522 C350,604.843 417.157,672 500,672 C582.843,672 650,604.843 650,522 C650,439.157 582.843,372 500,372 L500,372 Z M200,428.312 L200,740 C200,773.24 226.76,800 260,800 L740,800 C773.24,800 800,773.24 800,740 L800,434.656 L680.406,434.656 C692.951,460.771 700,490.028 700,520.938 C700,631.138 610.669,720.469 500.469,720.469 C390.269,720.469 300.938,631.138 300.938,520.938 C300.938,487.501 309.184,455.995 323.719,428.313 L200,428.313 L200,428.312 Z M200,428.312" id="path2986" fill="#009BCD"></path>
        </g>
    </g>
</svg>