<?xml version="1.0" encoding="UTF-8" standalone="no"?>
<svg width="52px" height="52px" viewBox="0 0 52 52" version="1.1" xmlns="http://www.w3.org/2000/svg" xmlns:xlink="http://www.w3.org/1999/xlink">
    <!-- Generator: Sketch 39.1 (31720) - http://www.bohemiancoding.com/sketch -->
    <title>instagram</title>
    <desc>Created with Sketch.</desc>
    <defs></defs>
    <g id="Page-1" stroke="none" stroke-width="1" fill="none" fill-rule="evenodd">
        <g id="instagram" transform="translate(1.000000, 1.000000)">
            <path d="M0,25 C0,38.80715 11.19285,50 25,50 C38.80715,50 50,38.80715 50,25 C50,11.19285 38.80715,0 25,0 C11.19285,0 0,11.19285 0,25 Z" id="Circle" stroke="#009BCD" stroke-width="2"></path>
            <path d="M25,8.25 C20.3599211,8.25 19.7937668,8.26913798 18,8.25 C16.2509963,8.43075494 15.0424658,8.7118193 14,9 C12.8917526,9.54762117 11.9646163,10.1160852 11,11 C10.1160852,11.9646163 9.54762117,12.8917526 9,14 C8.7118193,15.0424658 8.43075494,16.2509963 8.25,18 C8.26913798,19.7937668 8.25,20.3599211 8.25,25 C8.25,29.3900789 8.26913798,29.9562332 8.25,31.75 C8.43075494,33.4990037 8.7118193,34.7075342 9,35.75 C9.54762117,36.8582474 10.1160852,37.7853837 11,38.75 C11.9646163,39.6339148 12.8917526,40.2023788 14,40.75 C15.0424658,41.0381807 16.2509963,41.3192451 18,41.5 C19.7937668,41.480862 20.3599211,41.5 25,41.5 C29.3900789,41.5 29.9562332,41.480862 31.75,41.5 C33.4990037,41.3192451 34.7075342,41.0381807 35.75,40.75 C36.8582474,40.2023788 37.7853837,39.6339148 38.75,38.75 C39.6339148,37.7853837 40.2023788,36.8582474 40.75,35.75 C41.0381807,34.7075342 41.3192451,33.4990037 41.5,31.75 C41.480862,29.9562332 41.5,29.3900789 41.5,25 C41.5,20.3599211 41.480862,19.7937668 41.5,18 C41.3192451,16.2509963 41.0381807,15.0424658 40.75,14 C40.2023788,12.8917526 39.6339148,11.9646163 38.75,11 C37.7853837,10.1160852 36.8582474,9.54762117 35.75,9 C34.7075342,8.7118193 33.4990037,8.43075494 31.75,8.25 C29.9562332,8.26913798 29.3900789,8.25 25,8.25 Z M25,11.25 C29.3125861,11.25 29.8382447,11.2669546 31.5,11.25 C33.2110885,11.4207994 34.0910784,11.6915453 34.75,12 C35.4524602,12.2206343 36.0060905,12.5807711 36.5,13.25 C37.1692289,13.7439095 37.5293657,14.2975398 37.75,15 C38.0584547,15.6589216 38.3292006,16.5389115 38.5,18.25 C38.4830454,19.9117553 38.5,20.4374139 38.5,25 C38.5,29.3125861 38.4830454,29.8382447 38.5,31.5 C38.3292006,33.2110885 38.0584547,34.0910784 37.75,34.75 C37.5293657,35.4524602 37.1692289,36.0060905 36.5,36.5 C36.0060905,37.1692289 35.4524602,37.5293657 34.75,37.75 C34.0910784,38.0584547 33.2110885,38.3292006 31.5,38.5 C29.8385085,38.4830454 29.312916,38.5 25,38.5 C20.437084,38.5 19.9115574,38.4830454 18.25,38.5 C16.5389115,38.3292006 15.6589216,38.0584547 15,37.75 C14.2975398,37.5293657 13.7439095,37.1692289 13.25,36.5 C12.5808371,36.0060905 12.2206343,35.4524602 12,34.75 C11.6915453,34.0910784 11.4207994,33.2110885 11.25,31.5 C11.2669546,29.8382447 11.25,29.3125861 11.25,25 C11.25,20.4374139 11.2669546,19.9117553 11.25,18.25 C11.4207994,16.5389115 11.6915453,15.6589216 12,15 C12.2206343,14.2975398 12.5807711,13.7439095 13.25,13.25 C13.7439095,12.5807711 14.2975398,12.2206343 15,12 C15.6589216,11.6915453 16.5389115,11.4207994 18.25,11.25 C19.9117553,11.2669546 20.4374139,11.25 25,11.25 Z M35.75,16 C35.75,17.1046129 34.8545467,18 33.75,18 C32.6454533,18 31.75,17.1046129 31.75,16 C31.75,14.8954533 32.6454533,14 33.75,14 C34.8545467,14 35.75,14.8954533 35.75,16 Z M24.75,16.5 C20.0555494,16.5 16.25,20.3055494 16.25,25 C16.25,29.6944506 20.0555494,33.5 24.75,33.5 C29.4444506,33.5 33.25,29.6944506 33.25,25 C33.25,20.3055494 29.4444506,16.5 24.75,16.5 Z M24.75,30.5 C21.7124197,30.5 19.25,28.0375803 19.25,25 C19.25,21.9624197 21.7124197,19.5 24.75,19.5 C27.7875803,19.5 30.25,21.9624197 30.25,25 C30.25,28.0375803 27.7875803,30.5 24.75,30.5 Z" id="Logo" fill="#009BCD"></path>
        </g>
    </g>
</svg>