<svg xmlns="http://www.w3.org/2000/svg" viewBox="0 0 53 53"><defs><style>.cls-1, .cls-2, .cls-4 { fill: none; } .cls-2, .cls-4 { stroke: #009bcd; stroke-miterlimit: 10; } .cls-2 { stroke-width: 3px; } .cls-3 { clip-path: url(#clip-path); } .cls-4 { stroke-linecap: square; stroke-width: 0.25px; } .cls-5, .cls-6 { fill: #009bcd; } .cls-5 { fill-rule: evenodd; }</style><clipPath id="clip-path"><circle class="cls-1" cx="26.5" cy="26.5" r="22"/></clipPath></defs><g id="Layer_2" data-name="Layer 2"><g id="Layer_1-2" data-name="Layer 1"><g id="LinkedIn"><circle id="Circle" class="cls-2" cx="26.5" cy="26.5" r="25"/><g class="cls-3" id="Hatching"><path class="cls-4" d="M42.03 45.53H10.18m29.73 2.12H13.6m22.79 2.13H17.38m26.77-6.37H8.09m38.19-2.12H6.62m41.78-2.12H5.26m43.85-2.12H4.36m45.46-2.12H3.14m47.38-2.12H2.43m48.8-2.13H1.72m49.51-2.12H1.73m49.5-2.12H1.72m49.51-2.12H1.73m49.5-2.12H1.72m48.8-2.12H2.43m47.43-2.12H3.14m46.01-2.13H3.84m44.56-2.12H4.79m42.22-2.12H6.91m37.98-2.12H9.03m33.71-2.12H11.15m28.77-2.12H13.27m21.46-2.12H16.56" id="Lines"/></g><g id="Logo"><path class="cls-5" d="M22.44 22h5.34v2.56H28a5.71 5.71 0 0 1 5.34-3c5.68 0 6.74 3.8 6.74 8.83v10h-5.57v-8.9c-.08-2.23-.12-5-3-4.88-2.95-.09-3.4 2.23-3.48 4.65v9.06h-5.59V22"/><path class="cls-6" d="M13.14 21.97h5.81v18.35h-5.81z"/><circle class="cls-6" cx="16.16" cy="15.93" r="3.25"/></g></g></g></g></svg>