<svg xmlns="http://www.w3.org/2000/svg" viewBox="0 0 53 53"><defs><style>.a,.b,.d{fill:none;}.b,.d{stroke:#009bcd;stroke-miterlimit:10;}.b{stroke-width:3px;}.c{clip-path:url(#a);}.d{stroke-linecap:square;stroke-width:0.25px;}.e,.f{fill:#009bcd;}.e{fill-rule:evenodd;}</style><clipPath id="a"><circle class="a" cx="26.5" cy="26.5" r="22"/></clipPath></defs><title>LinkedIn</title><circle class="b" cx="26.5" cy="26.5" r="25"/><path class="c d" d="M42.034 45.533H10.182m29.73 2.122H13.597m22.793 2.12H17.383m26.772-6.363H8.092m38.184-2.122H6.62m41.777-2.12H5.264m43.846-2.122H4.36m45.457-2.12H3.137m47.386-2.122H2.43m48.8-2.122H1.723m49.503-2.12H1.728M51.23 26.44H1.723m49.503-2.122H1.728M51.23 22.2H1.723m48.8-2.122H2.43m47.427-2.122H3.137m46.016-2.12H3.843m44.56-2.122H4.788m42.22-2.122h-40.1M44.89 9.47H9.03m33.71-2.12H11.153m28.77-2.122h-26.65m21.454-2.12H16.564"/><path class="e" d="M22.435 21.97h5.343v2.556h.232a5.71 5.71 0 0 1 5.342-3.02c5.678 0 6.736 3.8 6.736 8.827v9.987h-5.574v-8.826c-.08-2.23-.122-4.968-3.02-4.878-2.95-.09-3.4 2.23-3.484 4.646v9.058h-5.575V21.97"/><path class="f" d="M13.144 21.97h5.807v18.35h-5.804z"/><circle class="f" cx="16.164" cy="15.931" r="3.252"/></svg>