<?xml version="1.0" encoding="UTF-8" standalone="no"?>
<svg width="200px" height="200px" viewBox="0 0 200 200" version="1.1" xmlns="http://www.w3.org/2000/svg" xmlns:xlink="http://www.w3.org/1999/xlink" xmlns:sketch="http://www.bohemiancoding.com/sketch/ns">
    <!-- Generator: Sketch 3.1 (8751) - http://www.bohemiancoding.com/sketch -->
    <title>Rdio</title>
    <desc>Created with Sketch.</desc>
    <defs></defs>
    <g id="Page-1" stroke="none" stroke-width="1" fill="none" fill-rule="evenodd" sketch:type="MSPage">
        <path d="M100,0 C44.771526,3.03201907e-14 0,44.771526 0,100 C1.5158245e-14,155.228474 44.771526,200 100,200 C155.228474,200 200,155.228474 200,100 C200,44.771526 155.228474,-1.51545443e-14 100,0 Z M118.655206,78.7854975 C113.344399,75.7677855 108.016188,75.3632747 102.787907,75.7677867 C89.0861297,76.8278928 74.3556565,87.9204192 72.2166939,101.16735 C70.4689254,110.710643 75.1089862,119.032609 84.2182063,123.745851 C101.771113,132.061227 124.677151,121.559776 129.895303,102.302887 C130.19225,101.014883 130.572705,100.090324 130.572705,97.3570649 L130.572705,53.9352638 C130.572705,53.9352638 130.572703,53.6992613 130.572705,48.8167346 C138.690873,53.6992615 147.325542,58.9052855 155.348335,62.8898621 C159.716248,64.427798 165.148529,67.0319906 171.077392,67.8824602 C177.006254,68.7329297 180.166321,67.6133632 181.858392,69.3466119 C183.550464,71.0798605 183.200588,74.1573278 181.858392,76.8278928 C178.733451,83.0455866 175.186882,86.8021366 167.355044,91.1984846 C165.732274,92.1094155 163.488404,92.6042323 162.398809,93.0608825 C162.398809,101.16735 162.834641,106.112667 161.298572,112.420341 C156.616643,137.01359 137.946439,154.858831 112.704969,158.978992 C93.891673,161.987493 76.2435207,158.536444 61.1362472,146.101067 C49.0495259,135.993663 42.3668186,123.103458 40.3104173,107.467293 C36.9562727,73.1602908 61.2454346,47.8378086 90.8358087,42.7305092 C100.907571,40.9921227 113.505499,42.7305092 118.655206,44.06828 C118.522046,55.4024282 118.522047,68.1747182 118.655206,78.7854975 Z" id="Rdio" fill="#009BCD" sketch:type="MSShapeGroup"></path>
    </g>
</svg>