<?xml version="1.0" encoding="UTF-8" standalone="no"?>
<svg width="1000px" height="1000px" viewBox="0 0 1000 1000" version="1.1" xmlns="http://www.w3.org/2000/svg" xmlns:xlink="http://www.w3.org/1999/xlink" xmlns:sketch="http://www.bohemiancoding.com/sketch/ns">
    <title>Twitter</title>
    <description>Created with Sketch (http://www.bohemiancoding.com/sketch)</description>
    <defs></defs>
    <g id="Page 1" fill="#D8D8D8" fill-rule="evenodd">
        <g id="svg2" fill="#000000">
            <g id="layer1">
                <path d="M500,-0.004 C223.86,-0.004 0,223.856 0,499.996 C0,776.136 223.86,999.996 500,999.996 C776.14,999.996 1000,776.136 1000,499.996 C1000,223.856 776.14,-0.004 500,-0.004 L500,-0.004 Z M645.62,226.256 C652.2,226.416 658.58,227.516 665,228.756 C690.54,233.696 721.8,247.896 735.62,261.256 L746.86,271.876 L768.74,266.256 C780.96,263.096 799.66,256.716 810.62,251.876 C821.58,247.036 831.58,243.456 832.5,244.376 C836.32,248.196 814.22,279.296 795,296.876 L774.38,315.636 L792.5,313.136 C802.64,311.796 820.26,307.536 831.26,303.756 C843.18,299.656 851.26,298.396 851.26,300.636 C851.26,302.696 836.76,318.456 819.38,335.636 L788.14,366.876 L785.64,402.496 C777.92,512.396 737.92,602.456 663.76,677.496 C605.5,736.456 538.3,772.296 458.14,787.496 C421.72,794.416 355.62,796.696 324.38,792.496 C286.1,787.356 238.54,772.996 199.38,754.376 L164.38,737.496 L201.26,734.996 C245.22,732.236 275.56,724.936 310.64,708.756 C336.56,696.796 370.82,675.816 368.14,673.136 C367.34,672.336 357.26,669.636 345.64,667.516 C304.04,659.896 265.24,632.176 245.64,595.016 L236.26,576.896 L265.02,575.016 C293.86,573.216 304.26,569.976 291.9,566.256 C254.54,555.056 216.96,524.036 200.02,490.636 C193.2,477.176 183.14,440.836 183.14,429.396 C183.14,428.716 186.6,430.356 190.64,432.516 C198.46,436.696 244.92,446.976 246.9,445.016 C247.54,444.376 238.84,434.716 228.14,423.776 C217.46,412.836 204.36,394.556 198.76,383.156 C189.56,364.376 188.78,358.976 188.76,325.036 C188.74,296.216 190.28,283.536 195.64,270.036 L202.52,252.536 L216.9,268.776 C282.52,342.356 378.38,390.316 483.14,401.896 L503.14,403.776 L501.9,375.656 C500.5,341.396 506.96,316.936 524.4,290.656 C551.04,250.456 599.52,225.196 645.62,226.256 L645.62,226.256 Z M645.62,226.256" id="path2985" fill="#009BCD"></path>
            </g>
        </g>
    </g>
</svg>