<svg xmlns="http://www.w3.org/2000/svg" viewBox="0 0 53 53"><defs><style>.a,.b,.c,.e{fill:none;}.b{clip-rule:evenodd;}.c,.e{stroke:#009bcd;stroke-miterlimit:10;}.c{stroke-width:3px;}.d{clip-path:url(#a);}.e{stroke-linecap:square;stroke-width:0.25px;}.f{clip-path:url(#b);}.g{fill:#009bcd;}</style><clipPath id="a"><circle cx="26.5" cy="26.5" r="22" class="a"/></clipPath><clipPath id="b"><path d="M43.5 15.75a11.185 11.185 0 0 1-4 1 6.145 6.145 0 0 0 3-3.75 15.033 15.033 0 0 1-4.25 1.75A7.302 7.302 0 0 0 33 12.5a7.06 7.06 0 0 0-7 7 12.837 12.837 0 0 0 .25 1.5 20.135 20.135 0 0 1-14.5-7.25 7.303 7.303 0 0 0-.75 3.5A6.608 6.608 0 0 0 14 23a8.382 8.382 0 0 1-3.25-.75c.116-.05.116-.02 0 0A7.045 7.045 0 0 0 16.5 29a4.59 4.59 0 0 1-2 .25 6.896 6.896 0 0 1-1.25 0 7.112 7.112 0 0 0 6.5 4.75 13.713 13.713 0 0 1-8.5 3 13.253 13.253 0 0 0-1.75 0 20.85 20.85 0 0 0 10.75 3C33.023 40 40.04 29.42 40 20.25a4.61 4.61 0 0 0 0-1 12.098 12.098 0 0 0 3.5-3.5" class="b"/></clipPath></defs><circle cx="26.5" cy="26.5" r="25" class="c"/><path d="M10.92 7.466h31.85M13.04 5.344h26.316m-22.793-2.12H35.57M8.797 9.586H44.86m-38.184 2.12H46.33M4.555 13.83h43.133M3.842 15.95h44.75M3.135 18.072h46.68M2.43 20.194h48.092m-48.8 2.12H51.23M1.726 24.437h49.498m-49.502 2.12H51.23M1.726 28.68h49.498M1.722 30.8H51.23m-48.8 2.12h48.09M3.095 35.043h46.72M3.8 37.163h45.308M4.55 39.286h43.614m-42.22 2.122h40.1m-37.98 2.12h35.86M10.21 45.65H41.8m-28.77 2.12h26.65m-21.454 2.122h18.162" class="d e"/><path d="M4.5 7.5h44V45h-44z" class="f g"/></svg>