<svg xmlns="http://www.w3.org/2000/svg" viewBox="0 0 53 53"><defs><style>.cls-1, .cls-2, .cls-4 { fill: none; } .cls-2, .cls-4 { stroke: #009bcd; stroke-miterlimit: 10; } .cls-2 { stroke-width: 3px; } .cls-3 { clip-path: url(#clip-path); } .cls-4 { stroke-linecap: square; stroke-width: 0.25px; } .cls-5 { fill: #009bcd; fill-rule: evenodd; }</style><clipPath id="clip-path"><circle class="cls-1" cx="26.5" cy="26.5" r="22"/></clipPath></defs><g id="Layer_2" data-name="Layer 2"><g id="Layer_1-2" data-name="Layer 1"><g id="Twitter"><circle id="Circle" class="cls-2" cx="26.5" cy="26.5" r="25"/><g class="cls-3" id="Hatching"><path class="cls-4" d="M10.92 7.47h31.85M13.04 5.34h26.32m-22.8-2.12h19.01M8.8 9.59h36.06M6.68 11.71h39.65M4.55 13.83h43.14M3.84 15.95h44.75M3.14 18.07h46.67M2.43 20.19h48.09m-48.8 2.12h49.51m-49.5 2.13h49.49m-49.5 2.12h49.51m-49.5 2.12h49.49M1.72 30.8h49.51m-48.8 2.12h48.09M3.09 35.04h46.73M3.8 37.16h45.31M4.55 39.29h43.61M5.94 41.41h40.1M8.06 43.53h35.86m-33.71 2.12H41.8m-28.77 2.12h26.65m-21.45 2.12h18.16" id="Lines"/></g><path id="Logo" class="cls-5" d="M43.5 15.75a11.19 11.19 0 0 1-4 1 6.15 6.15 0 0 0 3-3.75 15 15 0 0 1-4.25 1.75A7.3 7.3 0 0 0 33 12.5a7.06 7.06 0 0 0-7 7 12.84 12.84 0 0 0 .25 1.5 20.14 20.14 0 0 1-14.5-7.25 7.3 7.3 0 0 0-.75 3.5A6.61 6.61 0 0 0 14 23a8.38 8.38 0 0 1-3.25-.75c.12 0 .12 0 0 0A7 7 0 0 0 16.5 29a4.59 4.59 0 0 1-2 .25 6.9 6.9 0 0 1-1.25 0 7.11 7.11 0 0 0 6.5 4.75 13.71 13.71 0 0 1-8.5 3 13.25 13.25 0 0 0-1.75 0 20.85 20.85 0 0 0 10.75 3C33 40 40 29.42 40 20.25a4.61 4.61 0 0 0 0-1 12.1 12.1 0 0 0 3.5-3.5"/></g></g></g></svg>