<svg xmlns="http://www.w3.org/2000/svg" width="200" height="200" viewBox="0 0 200 200">
  <path fill="#009BCD" fill-rule="evenodd" d="M100 0C44.772 0 0 44.772 0 100s44.772 100 100 100 100-44.772 100-100S155.228 0 100 0zm68 58.022c-5.004 2.208-10.38 3.7-16.026 4.372 5.76-3.437 10.185-8.88 12.27-15.363-5.392 3.184-11.364 5.495-17.72 6.74-5.09-5.396-12.34-8.77-20.366-8.77-15.41 0-27.903 12.434-27.903 27.77 0 2.177.248 4.296.723 6.328-23.19-1.158-43.75-12.213-57.51-29.014-2.402 4.102-3.778 8.872-3.778 13.96 0 9.635 4.926 18.135 12.413 23.115-4.574-.145-8.876-1.395-12.638-3.474-.002.115-.002.232-.002.35 0 13.453 9.617 24.677 22.382 27.228-2.342.635-4.807.974-7.352.974-1.798 0-3.546-.174-5.25-.498 3.55 11.032 13.856 19.06 26.065 19.284-9.55 7.448-21.58 11.888-34.652 11.888-2.252 0-4.473-.132-6.656-.388C44.348 150.404 59.014 155 74.77 155c51.323 0 79.388-42.315 79.388-79.01 0-1.205-.027-2.403-.08-3.593 5.45-3.915 10.18-8.807 13.922-14.375z"/>
</svg>
