<?xml version="1.0" encoding="UTF-8" standalone="no"?>
<svg width="52px" height="52px" viewBox="0 0 52 52" version="1.1" xmlns="http://www.w3.org/2000/svg" xmlns:xlink="http://www.w3.org/1999/xlink">
    <!-- Generator: Sketch 39.1 (31720) - http://www.bohemiancoding.com/sketch -->
    <title>twitter</title>
    <desc>Created with Sketch.</desc>
    <defs></defs>
    <g id="Page-1" stroke="none" stroke-width="1" fill="none" fill-rule="evenodd">
        <g id="twitter" transform="translate(1.000000, 1.000000)">
            <path d="M0,25 C0,38.80715 11.19285,50 25,50 C38.80715,50 50,38.80715 50,25 C50,11.19285 38.80715,0 25,0 C11.19285,0 0,11.19285 0,25 Z" id="Circle" stroke="#009BCD" stroke-width="2"></path>
            <path d="M42,14.25 C40.7490179,14.8075552 39.4046381,15.1807357 38,15.25 C39.4338637,14.4893306 40.5398369,13.1287999 41,11.5 C39.7129376,12.3032231 38.2200666,12.8810031 36.75,13.25 C35.3586891,11.8431528 33.5458283,11 31.5,11 C27.6871429,11 24.5638538,14.1083523 24.5,18 C24.5638538,18.4863848 24.625663,19.016264 24.75,19.5 C18.9471817,19.23485 13.8073229,16.4709625 10.25,12.25 C9.7664728,13.2961432 9.42248071,14.4887118 9.5,15.75 C9.42248071,18.1695217 10.654062,20.2944846 12.5,21.5 C11.3822159,21.5033914 10.306712,21.191108 9.25,20.75 C9.36564615,20.7000941 9.36564615,20.7291811 9.25,20.75 C9.36564615,24.1220913 11.7701086,26.9280622 15,27.5 C14.3757928,27.7244282 13.7595669,27.8092138 13,27.75 C12.6738652,27.8092138 12.2368485,27.7657689 11.75,27.75 C12.6986137,30.4428904 15.2746991,32.4500198 18.25,32.5 C15.9398003,34.3680315 12.9320458,35.4779186 9.75,35.5 C9.10099857,35.4779186 8.54571125,35.4451183 8,35.5 C11.0869747,37.3507525 14.7536121,38.5 18.75,38.5 C31.5232891,38.5 38.5394345,27.9213536 38.5,18.75 C38.5394345,18.4462818 38.5327188,18.146871 38.5,17.75 C39.8820732,16.8703832 41.0647793,15.6476136 42,14.25" id="Logo" fill="#009BCD"></path>
        </g>
    </g>
</svg>