<?xml version="1.0" encoding="UTF-8" standalone="no"?>
<svg width="1000px" height="1000px" viewBox="0 0 1000 1000" version="1.1" xmlns="http://www.w3.org/2000/svg" xmlns:xlink="http://www.w3.org/1999/xlink" xmlns:sketch="http://www.bohemiancoding.com/sketch/ns">
    <title>ADN</title>
    <description>Created with Sketch (http://www.bohemiancoding.com/sketch)</description>
    <defs></defs>
    <g id="Page 1" fill="#D8D8D8" fill-rule="evenodd">
        <g id="Slice 1" fill="#000000">
            <g id="Page 1" fill="#D8D8D8">
                <g id="Circle_1_" fill="#000000">
                    <path d="M0,500 C0,776.143 223.857,1000 500,1000 C776.143,1000 1000,776.143 1000,500 C1000,223.857 776.143,0 500,0 C223.857,0 0,223.857 0,500 L0,500 Z M742.781,178.656 C764.184,179.646 770.388,187.93 764.469,208.312 C732.498,318.388 695.893,426.879 649.125,531.656 C641.218,549.372 637.844,566.715 646.437,584.125 C659.84,611.278 673.783,638.282 689.499,664.125 C694.68,672.643 705.303,678.903 714.749,683.531 C733.889,692.908 750.717,687.375 761.187,669.031 C768.635,655.98 774.169984,629.407988 788.999984,629.999988 C802.765984,630.550988 847.214828,629.999988 861.507796,629.999988 C875.800765,629.999988 872.332906,674.86643 868.999984,689.999988 C861.499984,724.054706 817.24,782.437 757.562,795.719 C711.126,806.054 670.950702,791.34585 637.781,758.5 C609.000014,730.000018 575.968,665.031 575.968,665.031 C575.968,665.031 500.926986,770.000018 422.718,790.125 C333.654818,813.043026 245.207,779.667 195.375,699 C169.312,656.809 156.757,610.308 150.094,561.531 C141.695,500.034 143.297,439.012 156.625,378.531 C169.937,318.125 194.514,262.999 243.906,223.312 C327.735,155.955 442.601,162.437 514.406,257.25 C542.282,294.058 581.532108,381.928018 581.532108,381.928018 C584.28147,387.94987 588.290929,387.768901 590.491867,381.50446 C590.491867,381.50446 630.788,267.077 649.061,212.063 C659.254,181.37 663.142,178.469 695.499,178.469 C703.378,178.469 711.275,178.328 719.156,178.281 C727.037,178.234 734.92,178.293 742.781,178.656 L742.781,178.656 Z M330.937,295.468 C288.425,307.219 262.548,338.447 251.875,379.687 C232.216,443.267 235.183,508.708 243.281,569.062 C244.921,581.1 248.68,593.016 252.843,604.5 C284.011,690.481 375.438,714.056 444.093,653.875 C481.451,621.128 494.905768,594.530873 505.90601,541.621097 C516.906254,488.711322 505.90601,410.000003 453.406,336.812 C429.071235,302.887949 399.674,289.599 366.156,290.062 C354.983,290.217 343.267,292.06 330.937,295.468 L330.937,295.468 Z M330.937,295.468" id="Circle" fill="#009BCD"></path>
                </g>
            </g>
        </g>
    </g>
</svg>