<?xml version="1.0" encoding="UTF-8" standalone="no"?>
<svg width="200px" height="200px" viewBox="0 0 200 200" version="1.1" xmlns="http://www.w3.org/2000/svg" xmlns:xlink="http://www.w3.org/1999/xlink" xmlns:sketch="http://www.bohemiancoding.com/sketch/ns">
    <title>ADN</title>
    <description>Created with Sketch (http://www.bohemiancoding.com/sketch)</description>
    <defs></defs>
    <g id="Page 1" fill="#D8D8D8" fill-rule="evenodd">
        <path d="M0,100 C0,155.2286 44.7714,200 100,200 C155.2286,200 200,155.2286 200,100 C200,44.7714 155.2286,0 100,0 C44.7714,0 0,44.7714 0,100 L0,100 L0,100 Z M152.8938,41.6624 C146.4996,63.6776 139.1786,85.3758 129.825,106.3312 C128.2436,109.8744 127.5688,113.343 129.2874,116.825 C131.968,122.2556 134.7566,127.6564 137.8998,132.825 C138.936,134.5286 141.0606,135.7806 142.9498,136.7062 C146.7778,138.5816 150.649413,136.812154 153.503416,134.909177 C156.35742,133.0062 158.83064,131.379957 158.83064,131.379957 C160.213742,130.46789 162.232415,130.731026 163.336153,131.96398 L172.096476,141.749882 C173.2017,142.984496 173.086157,144.877039 171.818353,145.945256 C171.818353,145.945256 162.600981,154.536519 153.503416,156.362302 C144.161747,158.237074 133.903563,156.362302 128.165819,151.503711 C122.428075,146.64512 115.1936,133.0062 115.1936,133.0062 C115.1936,133.0062 100.185397,154.000004 84.5436,158.025 C66.7309636,162.608605 49.0414,155.9334 39.075,139.8 C33.8624,131.3618 31.3514,122.0616 30.0188,112.3062 C28.339,100.0068 28.6594,87.8024 31.325,75.7062 C33.9874,63.625 38.9028,52.5998 48.7812,44.6624 C65.547,31.191 88.5202,32.4874 102.8812,51.45 C108.4564,58.8116 116.306422,76.3856036 116.306422,76.3856036 C116.856294,77.589974 117.658186,77.5537802 118.098373,76.300892 C118.098373,76.300892 126.1576,53.4154 129.8122,42.4126 C131.8508,36.274 132.6284,35.6938 139.0998,35.6938 C140.6756,35.6938 142.255,35.6656 143.8312,35.6562 C145.4074,35.6468 146.984,35.6586 148.5562,35.7312 C152.8368,35.9292 154.0776,37.586 152.8938,41.6624 Z M50.375,75.9374 C46.4432,88.6534 47.0366,101.7416 48.6562,113.8124 C48.9842,116.22 49.736,118.6032 50.5686,120.9 C56.8022,138.0962 75.0876,142.8112 88.8186,130.775 C96.2902,124.2256 98.9811536,118.906175 101.181202,108.324219 C103.381251,97.7422644 101.181202,82.0000006 90.6812,67.3624 C85.814247,60.5775898 79.9348,57.9198 73.2312,58.0124 C70.9966,58.0434 68.6534,58.412 66.1874,59.0936 C57.685,61.4438 52.5096,67.6894 50.375,75.9374 Z M50.375,75.9374" id="App.net" fill="#009BCD"></path>
    </g>
</svg>