<?xml version="1.0" encoding="UTF-8" standalone="no"?>
<svg width="200px" height="200px" viewBox="0 0 200 200" version="1.1" xmlns="http://www.w3.org/2000/svg" xmlns:xlink="http://www.w3.org/1999/xlink" xmlns:sketch="http://www.bohemiancoding.com/sketch/ns">
    <title>Blog</title>
    <description>Created with Sketch (http://www.bohemiancoding.com/sketch)</description>
    <defs></defs>
    <g id="Page-1" stroke="none" stroke-width="1" fill="none" fill-rule="evenodd" sketch:type="MSPage">
        <path d="M57.7545561,134.765415 L56.2070589,132.085071 L56.2070589,132.085071 L172.798699,64.7708568 L174.346196,67.4512006 L57.7545561,134.765415 Z M58.2703885,135.658863 L59.7185257,138.16711 L58.8250778,138.682943 L45.7750778,116.07968 L46.6685257,115.563847 L46.6757199,115.576308 L46.6757199,115.576308 L163.26736,48.2620934 L164.029548,49.5822421 L164.029548,49.5822421 L47.4379081,116.896457 L46.6757199,115.576308 L45.7951876,116.084684 L46.5573758,117.404832 L46.5444602,117.412289 L47.0602926,118.305737 L47.0732082,118.29828 L48.6207054,120.978624 L48.6077898,120.986081 L49.1236222,121.879529 L49.1365378,121.872072 L50.684035,124.552416 L50.6711194,124.559873 L51.1869518,125.45332 L51.1998674,125.445864 L52.7473646,128.126207 L52.734449,128.133664 L53.2502814,129.027112 L53.263197,129.019655 L54.8106942,131.699999 L54.7977786,131.707456 L55.313611,132.600904 L55.3265266,132.593447 L56.8740238,135.273791 L56.8611082,135.281248 L57.3769406,136.174696 L57.3898562,136.167239 L58.8379934,138.675486 L176.310166,70.8528957 L174.862028,68.3446485 L58.2703885,135.658863 Z M55.6912265,131.191624 L54.1437293,128.51128 L54.1437293,128.51128 L170.735369,61.1970651 L172.282866,63.8774089 L55.6912265,131.191624 L55.6912265,131.191624 Z M53.6278969,127.617832 L52.0803997,124.937488 L52.0803997,124.937488 L168.67204,57.6232734 L170.219537,60.3036172 L53.6278969,127.617832 L53.6278969,127.617832 Z M51.5645673,124.04404 L50.0170701,121.363696 L50.0170701,121.363696 L166.60871,54.0494817 L168.156207,56.7298255 L51.5645673,124.04404 L51.5645673,124.04404 Z M49.5012377,120.470248 L47.9537405,117.789905 L164.54538,50.47569 L166.092878,53.1560338 L49.5012377,120.470248 L49.5012377,120.470248 Z M0,100 C0,155.2286 44.7714,200 100,200 C155.2286,200 200,155.2286 200,100 C200,44.7714 155.2286,0 100,0 C44.7714,0 0,44.7714 0,100 Z M29.7834173,140.381311 L45.5946154,116.18387 L58.6446154,138.787133 L29.7834173,140.381311 Z M32.3944091,138.873854 L37.2529385,131.438366 L41.2629957,138.383989 L32.3944091,138.873854 Z" id="Blog" fill="#009BCD" sketch:type="MSShapeGroup"></path>
    </g>
</svg>