<?xml version="1.0" encoding="UTF-8" standalone="no"?>
<svg width="201px" height="200px" viewBox="0 0 201 200" version="1.1" xmlns="http://www.w3.org/2000/svg" xmlns:xlink="http://www.w3.org/1999/xlink" xmlns:sketch="http://www.bohemiancoding.com/sketch/ns">
    <title>Cross</title>
    <description>Created with Sketch (http://www.bohemiancoding.com/sketch)</description>
    <defs></defs>
    <g id="Page 1" stroke="none" stroke-width="1" fill="none" fill-rule="evenodd">
        <path d="M100.5,0 C45.271524,3.03201907e-14 0.5,44.771524 0.5,100 C0.5,155.228476 45.271524,200 100.5,200 C155.728476,200 200.5,155.228476 200.5,100 C200.5,44.771524 155.728476,-3.41060513e-14 100.5,0 L100.5,0 L100.5,0 Z M84.5,39.6 L116.5,39.6 L116.5,83.8875 L160.7875,83.8875 L160.7875,115.8875 L116.5,115.8875 L116.5,160.16875 L84.5,160.16875 L84.5,115.8875 L40.2125,115.8875 L40.2125,83.8875 L84.5,83.8875 L84.5,39.6 L84.5,39.6 Z M84.5,39.6" id="Cross" fill="#009BCD"></path>
    </g>
</svg>