<?xml version="1.0" encoding="UTF-8" standalone="no"?>
<svg width="200px" height="200px" viewBox="0 0 200 200" version="1.1" xmlns="http://www.w3.org/2000/svg" xmlns:xlink="http://www.w3.org/1999/xlink">
    <!-- Generator: Sketch 3.7.2 (28276) - http://www.bohemiancoding.com/sketch -->
    <title>Download</title>
    <desc>Created with Sketch.</desc>
    <defs></defs>
    <g id="Page-1" stroke="none" stroke-width="1" fill="none" fill-rule="evenodd">
        <path d="M100,0 C44.771526,3.03201907e-14 0,44.771526 0,100 C1.5158245e-14,155.228474 44.771526,200 100,200 C155.228474,200 200,155.228474 200,100 C200,44.771526 155.228474,-1.51545443e-14 100,0 Z M119,33 L119,117.000779 C119,118.104918 119.900346,119 121.007461,119 L151.992539,119 C153.101229,119 153.956268,119.887514 153.814014,120.986578 C153.814014,120.986578 153.998836,121.968422 153,123 L101.40397,175.56954 C100.628579,176.359561 99.367863,176.355936 98.5960301,175.56954 L47,123 C45.9954366,121.968422 46.1835845,120.986578 46.1835845,120.986578 C46.0821936,119.889421 46.9003455,119 48.0074612,119 L78.9925388,119 C80.101229,119 81,118.106646 81,117.000779 L81,33 C81.0981153,29.6820695 89.4706285,27.0000009 100,27 C109.169112,27.0000009 118.646338,29.6820695 119,33 Z" id="Download" fill="#009BCD"></path>
    </g>
</svg>