<?xml version="1.0" encoding="UTF-8" standalone="no"?>
<svg width="201px" height="200px" viewBox="0 0 201 200" version="1.1" xmlns="http://www.w3.org/2000/svg" xmlns:xlink="http://www.w3.org/1999/xlink" xmlns:sketch="http://www.bohemiancoding.com/sketch/ns">
    <title>Dribbble</title>
    <description>Created with Sketch (http://www.bohemiancoding.com/sketch)</description>
    <defs></defs>
    <g id="Page 1" stroke="none" stroke-width="1" fill="none" fill-rule="evenodd">
        <path d="M100.5,0 C45.271526,1.51545443e-14 0.5,44.771526 0.5,100 C0.5,155.228474 45.271526,200 100.5,200 C155.728474,200 200.5,155.228474 200.5,100 C200.5,44.771526 155.728474,-2.27373675e-14 100.5,0 L100.5,0 L100.5,0 Z M99.9161023,13.2698928 C104.34631,13.2619155 109.124192,13.4117861 111.275237,13.6980497 C127.743817,15.8897057 142.243632,22.0041619 154.943097,32.1151852 C158.741927,35.1397385 165.436926,41.815777 168.409323,45.547808 C178.552573,58.2833331 184.820866,73.1416391 186.932567,89.4434721 C187.429341,93.2784407 187.609187,102.404287 187.270978,106.473891 C185.192519,131.4839 172.815001,153.992021 152.887088,168.978402 C140.835593,178.041514 127.442188,183.514845 111.837128,185.765986 C108.309939,186.274835 95.683503,186.400549 91.8325359,185.964088 C67.8428113,183.245139 46.2075301,170.929871 31.7996039,151.794614 C22.9475975,140.038219 17.4076584,126.627696 15.1344314,111.439232 C14.5440071,107.494336 14.2916768,96.1186866 14.700243,92.0060229 C17.3046862,65.7894327 30.8744332,42.7773943 52.366087,28.1339654 C64.0725562,20.1577144 76.8786929,15.4113908 91.6026714,13.5830224 C93.2380313,13.3799506 96.4703852,13.2760973 99.9161023,13.2698928 L99.9161023,13.2698928 L99.9161023,13.2698928 Z M101.46694,26.1484303 C95.3161805,26.1409534 93.4542811,26.2771645 89.0984211,27.0436876 C88.1089985,27.2177998 87.0520088,27.4022395 86.7428151,27.4563948 C85.0604081,27.7510734 84.362464,27.8911958 84.2221263,27.9706915 C84.136145,28.0193976 85.2574267,29.7038019 86.7110684,31.7104541 C94.7499228,42.8075458 102.788466,55.3423887 109.346473,67.0064472 C110.580074,69.2005177 111.676552,70.9989745 111.784621,71.0001834 C111.892694,71.0014025 113.425734,70.4003077 115.187868,69.6668215 C126.760254,64.8498286 136.999864,58.2884692 144.324999,50.9934062 C146.970464,48.3587909 149.933386,44.8529767 149.91877,44.383741 C149.907757,44.0280052 145.844426,40.8109916 142.845602,38.7836213 C132.964592,32.1034997 122.736433,28.2226152 110.578246,26.5420896 C108.481965,26.2523361 106.162604,26.1541397 101.46694,26.1484303 L101.46694,26.1484303 L101.46694,26.1484303 Z M69.9615038,33.0311173 L67.0471557,34.54861 C60.3539779,38.0300265 54.8986069,42.0767741 49.1801069,47.8187352 C41.1786354,55.8530363 35.5107128,64.903285 31.8781495,75.4193255 C30.8778609,78.3150888 29.3955567,83.5791872 29.3955567,84.2512605 C29.3955567,84.5559537 34.286265,84.5618378 40.1894384,84.2639592 C57.8929201,83.3706037 75.5417385,80.8622417 91.6889527,76.9431677 C94.4716977,76.2677663 96.8839377,75.6700687 97.0477975,75.6098058 C97.3844548,75.4859906 97.3230237,75.3726289 93.3016856,68.5239399 C87.1147362,57.9870187 78.0042958,44.0573706 71.2186735,34.7581383 L69.9615038,33.0311173 L69.9615038,33.0311173 Z M158.318949,52.9426543 C158.228992,52.9599915 158.145315,53.0652321 158.02053,53.2410734 C154.809114,57.7664171 147.755462,64.370434 141.048739,69.1207781 C134.654222,73.6499904 126.761262,78.0356649 119.460975,81.1210348 C118.471553,81.5391994 117.571208,81.956405 117.460933,82.0480388 C117.350657,82.1396725 118.070264,83.8660576 119.060967,85.8830414 C120.051647,87.9000293 121.509911,91.1073797 122.299131,93.0070033 L123.734083,96.4610455 L125.30237,96.3277093 C126.168112,96.2554609 128.196246,96.0735284 129.804054,95.9213514 C133.750811,95.5477967 149.083605,95.543148 153.302969,95.915002 C159.957051,96.5014395 165.237501,97.1349189 169.830307,97.9023461 C172.426704,98.336184 174.590757,98.7388887 174.643108,98.791254 C174.985288,99.1334216 175.061998,98.6212725 174.966924,96.6896218 C174.180941,80.7211035 168.927243,66.4814795 159.106268,53.7299727 C158.648128,53.1351155 158.468877,52.9137582 158.318949,52.9426543 L158.318949,52.9426543 L158.318949,52.9426543 Z M103.168563,87.0132243 C103.142235,87.0151972 103.11374,87.0136673 103.086022,87.0195737 C102.813486,87.0776544 100.680578,87.6559037 98.3430633,88.3021408 C79.1980635,93.5950276 56.1500835,96.8527603 35.078218,97.2420146 L27.8272692,97.3753507 L27.8082212,98.4102935 C27.6729853,108.753547 29.3255169,117.792192 33.0972232,127.331547 C35.621041,133.714747 40.4997902,141.788247 45.0149384,147.065303 L46.5070338,148.811372 L48.5769194,145.719242 C49.715201,144.0162 51.4474113,141.557381 52.4246207,140.258808 C60.6579763,129.317745 70.9060584,119.578112 81.9490618,112.194715 C89.1684873,107.367779 97.3266606,103.366665 105.689252,100.556371 C107.787231,99.8513341 109.314336,99.2216704 109.27663,99.0769744 C109.185864,98.7286587 107.114479,94.2672919 105.187654,90.2577382 C103.840498,87.4544294 103.563482,86.9836232 103.168563,87.0132243 L103.168563,87.0132243 L103.168563,87.0132243 Z M142.229716,107.051748 C138.338234,107.08321 134.563943,107.321923 131.054874,107.781923 C129.635748,107.967953 128.426265,108.169206 128.369102,108.226376 C128.311918,108.283545 128.599304,109.214552 129.010386,110.296262 C133.533208,122.197384 139.405962,143.570854 142.077332,157.852835 C142.349153,159.306046 142.672906,160.500511 142.794808,160.500511 C142.916731,160.500511 143.382285,160.272038 143.829751,159.998912 C144.277216,159.725787 144.747364,159.385111 144.871043,159.236991 C144.99472,159.088892 146.156609,158.133817 147.455225,157.116311 C150.424094,154.790113 156.462826,148.758504 158.928486,145.655749 C165.954591,136.814236 171.136061,125.848613 173.455781,114.905884 C174.253031,111.144987 174.382364,111.458421 171.709712,110.715319 C162.865458,108.25628 152.174615,106.971346 142.229716,107.051748 L142.229716,107.051748 L142.229716,107.051748 Z M114.102131,111.86455 C113.494351,111.84962 112.41057,112.331243 110.127442,113.204261 C91.0369352,120.504044 74.6502542,132.275949 63.2312011,146.89387 C61.2798806,149.391821 57.9849703,154.33647 56.9453524,156.322643 L56.2723221,157.61156 L57.2818675,158.513166 C60.2697013,161.18692 68.2663453,165.732238 74.1457203,168.094324 C80.6160514,170.693848 88.2240384,172.477394 95.3969685,173.078557 C98.775617,173.361712 106.929853,173.185385 110.349669,172.754741 C116.684574,171.956975 124.222641,170.021001 129.042133,167.954638 L130.083425,167.510184 L129.64532,165.072037 C128.944517,161.168433 127.279866,153.586404 125.943654,148.239931 C123.453236,138.275267 120.722316,129.429327 115.371999,113.991579 C114.869054,112.540374 114.790946,111.88147 114.102131,111.86455 L114.102131,111.86455 L114.102131,111.86455 Z M114.102131,111.86455" id="Dribbble" fill="#009BCD"></path>
    </g>
</svg>