<?xml version="1.0" encoding="UTF-8" standalone="no"?>
<svg width="200px" height="200px" viewBox="0 0 200 200" version="1.1" xmlns="http://www.w3.org/2000/svg" xmlns:xlink="http://www.w3.org/1999/xlink" xmlns:sketch="http://www.bohemiancoding.com/sketch/ns">
    <title>Facebook</title>
    <description>Created with Sketch (http://www.bohemiancoding.com/sketch)</description>
    <defs></defs>
    <g id="Page 1" stroke="none" stroke-width="1" fill="none" fill-rule="evenodd">
        <path d="M100,0 C44.7714,0 0,44.7714 0,100 C0,155.2286 44.7714,200 100,200 C155.2286,200 200,155.2286 200,100 C200,44.7714 155.2286,0 100,0 L100,0 L100,0 Z M121,25.75 C127.9302,25.7702 135.9218,26.2968 136.375,26.75 C136.4728,26.8478 136.4082,32.0382 136.25,38.375 L136,50 L127.25,50 C115.0174,50.0116 112.4846,50.6444 110.625,54.125 C109.7474,55.7676 109.7436,56.281 109.625,67.625 L109.5,79.375 L123,79.375 L136.5,79.375 L136.375,82.625 C136.3526,84.4526 136.1294,90.1552 135.875,95.25 L135.5,104.5 L122.5,104.625 L109.5,104.75 L109.5,139.625 L109.5,174.375 L96.25,174.375 C88.977,174.375 82.9072,174.2822 82.75,174.125 C82.5928,173.9678 82.5942,158.2536 82.75,139.25 L83,104.75 L73.75,104.75 L64.375,104.75 L64.375,92 L64.375,79.375 L73.625,79.375 L82.875,79.375 L83,65.125 C83.142,52.1172 83.2308,50.7032 84,48.25 C87.1398,38.2354 93.6002,31.4748 103.375,28 C108.3738,26.223 112.554,25.7254 121,25.75 L121,25.75 L121,25.75 Z M121,25.75" id="Facebook" fill="#009BCD"></path>
    </g>
</svg>