<?xml version="1.0" encoding="UTF-8" standalone="no"?>
<svg width="200px" height="195px" viewBox="0 0 200 195" version="1.1" xmlns="http://www.w3.org/2000/svg" xmlns:xlink="http://www.w3.org/1999/xlink" xmlns:sketch="http://www.bohemiancoding.com/sketch/ns">
    <title>Facebook</title>
    <description>Created with Sketch (http://www.bohemiancoding.com/sketch)</description>
    <defs></defs>
    <g id="Page 1" stroke="none" stroke-width="1" fill="none" fill-rule="evenodd">
        <path d="M100,0 C155.2286,0 200,43.710622 200,97.6306793 C200,148.238532 160.560101,189.852716 110.051993,194.774255 L110.051993,158.959922 L110.051993,122.527905 L124.471404,122.397324 L138.890815,122.266743 L139.306759,112.603771 C139.588936,107.28151 139.836506,101.324314 139.861352,99.4151196 L140,96.0200212 L125.025997,96.0200212 L110.051993,96.0200212 L110.190641,83.7454348 C110.322191,71.8949744 110.326406,71.3586533 111.299827,69.6427184 C113.362468,66.0067247 116.171813,65.3456729 129.740035,65.3335551 L139.445407,65.3335551 L139.722704,53.1895493 C139.898177,46.5698387 139.96983,41.1477099 139.861352,41.0455435 C139.358669,40.5721101 130.494503,40.0219997 122.807626,40.0008979 C113.439445,39.9751996 108.802828,40.4950153 103.258232,42.3513506 C92.4161664,45.9812853 85.2503847,53.0437168 81.7677643,63.5054252 C80.9145789,66.0681499 80.8160832,67.5452788 80.6585789,81.1338206 L80.5199307,96.0200212 L70.2599653,96.0200212 L60,96.0200212 L60,109.208673 L60,122.527905 L70.3986135,122.527905 L80.6585789,122.527905 L80.3812825,158.56818 C80.2399717,174.801548 80.213175,188.737218 80.3034396,193.368062 C34.5074589,184.437036 0,144.968308 0,97.6306793 C0,43.710622 44.7714,0 100,0 Z M100,0" id="Facebook" fill="#009BCD"></path>
    </g>
</svg>