<?xml version="1.0" encoding="UTF-8" standalone="no"?>
<svg width="200px" height="200px" viewBox="0 0 200 200" version="1.1" xmlns="http://www.w3.org/2000/svg" xmlns:xlink="http://www.w3.org/1999/xlink" xmlns:sketch="http://www.bohemiancoding.com/sketch/ns">
    <title>Facebook</title>
    <description>Created with Sketch (http://www.bohemiancoding.com/sketch)</description>
    <defs></defs>
    <g id="Page 1" stroke="none" stroke-width="1" fill="none" fill-rule="evenodd">
        <path d="M100,0 C155.2286,0 200,44.7714 200,100 C200,151.836014 160.560101,194.460099 110.051993,199.501075 L110.051993,166.309446 L110.051993,127.626603 L124.471404,127.487955 L138.890815,127.349307 L139.306759,117.089342 C139.588936,111.438264 139.836506,105.113023 139.861352,103.085875 L140,99.4810227 L125.025997,99.4810227 L110.051993,99.4810227 L110.190641,86.4480937 C110.322191,73.8654941 110.326406,73.2960383 111.299827,71.4740903 C113.362468,67.6134594 116.171813,66.9115669 129.740035,66.8987003 L139.445407,66.8987003 L139.722704,54.0044195 C139.898177,46.9757332 139.96983,41.2186171 139.861352,41.1101388 C139.358669,40.6074559 130.494503,40.0233589 122.807626,40.0009533 C113.439445,39.9736674 108.802828,40.5255981 103.258232,42.4966206 C92.4161664,46.3508182 85.2503847,53.8495773 81.7677643,64.9576258 C80.9145789,67.6786795 80.8160832,69.2470677 80.6585789,83.6751301 L80.5199307,99.4810227 L70.2599653,99.4810227 L60,99.4810227 L60,113.484489 L60,127.626603 L70.3986135,127.626603 L80.6585789,127.626603 L80.3812825,165.893501 C80.2720626,179.215519 80.2312515,191.08013 80.2600252,198.052121 C34.4856513,188.887438 0,148.471104 0,100 C0,44.7714 44.7714,0 100,0 Z M100,0" id="Facebook" fill="#009BCD"></path>
    </g>
</svg>