<?xml version="1.0" encoding="UTF-8" standalone="no"?>
<svg width="200px" height="195px" viewBox="0 0 200 195" version="1.1" xmlns="http://www.w3.org/2000/svg" xmlns:xlink="http://www.w3.org/1999/xlink" xmlns:sketch="http://www.bohemiancoding.com/sketch/ns">
    <title>Facebook</title>
    <description>Created with Sketch (http://www.bohemiancoding.com/sketch)</description>
    <defs></defs>
    <g id="Page 1" stroke="none" stroke-width="1" fill="none" fill-rule="evenodd">
        <path d="M100,0 C155.2286,0 200,43.710622 200,97.6306793 C200,148.238532 160.560101,189.852716 110.051993,194.774255 L110.051993,162.369041 L110.051993,124.60272 L124.471404,124.467357 L138.890815,124.331993 L139.306759,114.31512 C139.588936,108.797934 139.836506,102.622558 139.861352,100.64344 L140,97.1239982 L125.025997,97.1239982 L110.051993,97.1239982 L110.190641,84.3998612 C110.322191,72.1153836 110.326406,71.5594201 111.299827,69.7806399 C113.362468,66.0114797 116.171813,65.3262173 129.740035,65.3136556 L139.445407,65.3136556 L139.722704,52.7248817 C139.898177,45.8627275 139.96983,40.2420159 139.861352,40.1361078 C139.358669,39.6453351 130.494503,39.0750772 122.807626,39.0532025 C113.439445,39.026563 108.802828,39.5654167 103.258232,41.4897394 C92.4161664,45.2526186 85.2503847,52.5737081 81.7677643,63.4185713 C80.9145789,66.0751546 80.8160832,67.6063826 80.6585789,81.692598 L80.5199307,97.1239982 L70.2599653,97.1239982 L60,97.1239982 L60,110.795677 L60,124.60272 L70.3986135,124.60272 L80.6585789,124.60272 L80.3812825,161.962952 C80.2720626,174.969328 80.2312515,186.552829 80.2600252,193.359631 C34.4856513,184.412089 0,144.953348 0,97.6306793 C0,43.710622 44.7714,0 100,0 Z M100,0" id="Facebook" fill="#009BCD"></path>
    </g>
</svg>