<?xml version="1.0" encoding="UTF-8" standalone="no"?>
<svg width="1000px" height="1000px" viewBox="0 0 1000 1000" version="1.1" xmlns="http://www.w3.org/2000/svg" xmlns:xlink="http://www.w3.org/1999/xlink" xmlns:sketch="http://www.bohemiancoding.com/sketch/ns">
    <title>Fancy</title>
    <description>Created with Sketch (http://www.bohemiancoding.com/sketch)</description>
    <defs></defs>
    <g id="Page 1" fill="#D8D8D8" fill-rule="evenodd">
        <g id="svg2" fill="#000000">
            <g id="layer1">
                <path d="M500,-0.000183 C223.857,-0.000183 0,223.856817 0,499.999817 C0,776.142817 223.857,999.999817 500,999.999817 C776.143,999.999817 1000,776.142817 1000,499.999817 C1000,223.856817 776.143,-0.000183 500,-0.000183 L500,-0.000183 Z M495.375,101.562817 C511.466,101.644817 529.457,103.772817 550,108.000817 C590.552,116.344817 611.51,124.254817 635.75,140.344817 C678.812,168.927817 704.18,207.841817 720.938,271.000817 C726.74,292.867817 727.305,310.341817 727.313,468.094817 C727.324,654.055817 727.593,651.209817 709.313,664.782817 C700.453,671.360817 694.104,671.961817 621.063,673.220817 L542.344,674.564817 L542.125,759.002817 C541.873,863.297817 540.433,873.539817 523.969,888.627817 C513.445,898.273817 509.12,899.968817 495.25,899.783817 C486.268,899.663817 475.833,898.280817 472.062,896.721817 C468.291,895.162817 461.433,889.819817 456.812,884.846817 C445.653,872.836817 443.316,850.364817 443.093,752.158817 L442.937,674.596817 L369.281,673.190817 C301.63,671.878817 294.861,671.184817 286.156,664.721817 C267.96,651.211817 268.21,654.017817 268.156,467.190817 C268.108,302.018817 268.463,291.814817 275.187,266.721817 C285.91,226.706817 303.609,196.062817 333.218,166.159817 C368.473,130.554817 385.282,122.522817 460.968,105.097817 C471.487,102.672817 482.859,101.498817 495.375,101.562817 L495.375,101.562817 Z M495.375,101.562817" id="path3819" fill="#009BCD"></path>
            </g>
        </g>
    </g>
</svg>