<?xml version="1.0" encoding="UTF-8" standalone="no"?>
<svg width="1000px" height="1000px" viewBox="0 0 1000 1000" version="1.1" xmlns="http://www.w3.org/2000/svg" xmlns:xlink="http://www.w3.org/1999/xlink" xmlns:sketch="http://www.bohemiancoding.com/sketch/ns">
    <title>Flickr</title>
    <description>Created with Sketch (http://www.bohemiancoding.com/sketch)</description>
    <defs></defs>
    <g id="Page 1" fill="#D8D8D8" fill-rule="evenodd">
        <g id="svg2" fill="#000000">
            <g id="layer1">
                <path d="M500,-1.42108547e-14 C223.85763,1.37390099e-13 0,223.85763 0,500 C7.5791225e-14,776.14237 223.85763,1000 500,1000 C776.14237,1000 1000,776.14237 1000,500 C1000,223.85763 776.14237,-1.65811809e-13 500,-1.42108547e-14 L500,-1.42108547e-14 Z M296,322 C394.25528,322 473.90625,401.65097 473.90625,499.90625 C473.90625,598.16153 394.25528,677.8125 296,677.8125 C197.74472,677.8125 118.09375,598.16153 118.09375,499.90625 C118.09375,401.65097 197.74472,322 296,322 L296,322 Z M705.1875,322 C803.44278,322 883.09375,401.65097 883.09375,499.90625 C883.09375,598.16153 803.44278,677.8125 705.1875,677.8125 C606.93222,677.8125 527.28125,598.16153 527.28125,499.90625 C527.28125,401.65097 606.93222,322 705.1875,322 L705.1875,322 Z M705.1875,322" id="path2985" fill="#009BCD"></path>
            </g>
        </g>
    </g>
</svg>