<?xml version="1.0" encoding="UTF-8" standalone="no"?>
<svg width="201px" height="200px" viewBox="0 0 201 200" version="1.1" xmlns="http://www.w3.org/2000/svg" xmlns:xlink="http://www.w3.org/1999/xlink" xmlns:sketch="http://www.bohemiancoding.com/sketch/ns">
    <title>Flickr</title>
    <description>Created with Sketch (http://www.bohemiancoding.com/sketch)</description>
    <defs></defs>
    <g id="Page 1" stroke="none" stroke-width="1" fill="none" fill-rule="evenodd">
        <path d="M100.5,0 C45.271526,3.03201907e-14 0.5,44.771526 0.5,100 C0.5,155.228474 45.271526,200 100.5,200 C155.728474,200 200.5,155.228474 200.5,100 C200.5,44.771526 155.728474,-3.03201909e-14 100.5,0 L100.5,0 L100.5,0 Z M59.7,64.4 C79.351056,64.4 95.28125,80.330194 95.28125,99.98125 C95.28125,119.632306 79.351056,135.5625 59.7,135.5625 C40.048944,135.5625 24.11875,119.632306 24.11875,99.98125 C24.11875,80.330194 40.048944,64.4 59.7,64.4 L59.7,64.4 L59.7,64.4 Z M141.5375,64.4 C161.188556,64.4 177.11875,80.330194 177.11875,99.98125 C177.11875,119.632306 161.188556,135.5625 141.5375,135.5625 C121.886444,135.5625 105.95625,119.632306 105.95625,99.98125 C105.95625,80.330194 121.886444,64.4 141.5375,64.4 L141.5375,64.4 L141.5375,64.4 Z M141.5375,64.4" id="Flickr" fill="#009BCD"></path>
    </g>
</svg>