<?xml version="1.0" encoding="UTF-8" standalone="no"?>
<!-- Created with Inkscape (http://www.inkscape.org/) -->

<svg
   xmlns:dc="http://purl.org/dc/elements/1.1/"
   xmlns:cc="http://creativecommons.org/ns#"
   xmlns:rdf="http://www.w3.org/1999/02/22-rdf-syntax-ns#"
   xmlns:svg="http://www.w3.org/2000/svg"
   xmlns="http://www.w3.org/2000/svg"
   xmlns:sodipodi="http://sodipodi.sourceforge.net/DTD/sodipodi-0.dtd"
   xmlns:inkscape="http://www.inkscape.org/namespaces/inkscape"
   width="1000"
   height="1000"
   id="svg2"
   version="1.1"
   inkscape:version="0.48.2 r9819"
   sodipodi:docname="Flickr.svg">
  <defs
     id="defs4" />
  <sodipodi:namedview
     id="base"
     pagecolor="#ffffff"
     bordercolor="#666666"
     borderopacity="1.0"
     inkscape:pageopacity="0.0"
     inkscape:pageshadow="2"
     inkscape:zoom="0.35"
     inkscape:cx="288.86518"
     inkscape:cy="536.26667"
     inkscape:document-units="px"
     inkscape:current-layer="layer1"
     showgrid="false"
     inkscape:window-width="777"
     inkscape:window-height="530"
     inkscape:window-x="0"
     inkscape:window-y="0"
     inkscape:window-maximized="0">
    <inkscape:grid
       type="xygrid"
       id="grid3825"
       empspacing="5"
       visible="true"
       enabled="true"
       snapvisiblegridlinesonly="true" />
  </sodipodi:namedview>
  <metadata
     id="metadata7">
    <rdf:RDF>
      <cc:Work
         rdf:about="">
        <dc:format>image/svg+xml</dc:format>
        <dc:type
           rdf:resource="http://purl.org/dc/dcmitype/StillImage" />
        <dc:title />
      </cc:Work>
    </rdf:RDF>
  </metadata>
  <g
     inkscape:label="Layer 1"
     inkscape:groupmode="layer"
     id="layer1"
     transform="translate(0,-52.362183)">
    <path
       style="fill:#009bcd;fill-opacity:1;stroke:none"
       d="M 500 0 C 223.85763 1.5158245e-13 0 223.85763 0 500 C 7.5791225e-14 776.14237 223.85763 1000 500 1000 C 776.14237 1000 1000 776.14237 1000 500 C 1000 223.85763 776.14237 -1.5158245e-13 500 0 z M 296 322 C 394.25528 322 473.90625 401.65097 473.90625 499.90625 C 473.90625 598.16153 394.25528 677.8125 296 677.8125 C 197.74472 677.8125 118.09375 598.16153 118.09375 499.90625 C 118.09375 401.65097 197.74472 322 296 322 z M 705.1875 322 C 803.44278 322 883.09375 401.65097 883.09375 499.90625 C 883.09375 598.16153 803.44278 677.8125 705.1875 677.8125 C 606.93222 677.8125 527.28125 598.16153 527.28125 499.90625 C 527.28125 401.65097 606.93222 322 705.1875 322 z "
       transform="translate(0,52.362183)"
       id="path2985" />
    <path
       style="fill:#000000"
       d=""
       id="path3819"
       inkscape:connector-curvature="0" />
  </g>
</svg>
