<?xml version="1.0" encoding="UTF-8" standalone="no"?>
<svg width="201px" height="200px" viewBox="0 0 201 200" version="1.1" xmlns="http://www.w3.org/2000/svg" xmlns:xlink="http://www.w3.org/1999/xlink" xmlns:sketch="http://www.bohemiancoding.com/sketch/ns">
    <title>Foursquare</title>
    <description>Created with Sketch (http://www.bohemiancoding.com/sketch)</description>
    <defs></defs>
    <g id="Page 1" stroke="none" stroke-width="1" fill="none" fill-rule="evenodd">
        <path d="M158.379537,55.1929514 L169.276668,66.1064788 C171.068808,67.9018984 171.067168,70.8040834 169.273388,72.594584 L103.003551,138.890656 C102.129616,139.756392 100.958904,140.243369 99.6865341,140.23845 C99.5110912,140.24009 99.3356484,140.231891 99.1618452,140.207297 C98.1387021,140.0958 97.1795053,139.635058 96.440022,138.893935 L59.4970103,101.87386 C57.6983114,100.08008 57.7048701,97.1778947 59.5019293,95.3857545 L70.4154567,84.4837046 C71.2729949,83.6294457 72.4568241,83.1457482 73.6619687,83.1424688 C74.8785909,83.1391895 76.0525821,83.632725 76.9068411,84.4902632 L99.7324443,107.358497 L151.879954,55.1880324 C152.753889,54.3239355 153.904925,53.8418777 155.133025,53.8467967 C156.362764,53.8418777 157.503962,54.3222959 158.379537,55.1929514 Z M100.5,200 C45.2715223,200 0.5,155.228478 0.5,100 C0.5,44.7715223 45.2715223,0 100.5,0 C155.728478,0 200.5,44.7715223 200.5,100 C200.5,155.228478 155.728478,200 100.5,200 Z M165.178554,88.1510508 L109.046689,144.305871 C106.623282,146.706323 103.416122,148.026243 100.002365,148.026243 L97.5100936,148.022964 L96.9870444,147.673718 C94.6997291,147.129353 92.5845773,145.950443 90.9137713,144.271439 L53.9822372,107.264481 C51.56211,104.849272 50.2274329,101.637193 50.2290725,98.2201572 C50.2290725,94.8014816 51.5653893,91.5861229 53.9838769,89.174194 L64.9105215,78.2573873 C67.2847384,75.8962876 70.5689624,74.5386553 73.949926,74.5320967 C77.3210517,74.5320967 80.618393,75.9061255 82.9860512,78.286901 L100.013843,95.3458462 L136.186218,59.1570747 L112.094803,35.0656597 C105.716555,28.6890509 95.2834454,28.6890509 88.905197,35.0656597 L35.5656597,88.405197 C29.1874113,94.7818057 29.1874113,105.218194 35.5656597,111.594803 L88.9068366,164.93434 C95.2850851,171.310949 105.718194,171.310949 112.096443,164.93434 L165.43434,111.594803 C171.812589,105.218194 171.812589,94.7834454 165.43434,88.405197 Z M165.178554,88.1510508" id="Foursquare" fill="#009BCD"></path>
    </g>
</svg>