<?xml version="1.0" encoding="UTF-8" standalone="no"?>
<svg width="201px" height="200px" viewBox="0 0 201 200" version="1.1" xmlns="http://www.w3.org/2000/svg" xmlns:xlink="http://www.w3.org/1999/xlink" xmlns:sketch="http://www.bohemiancoding.com/sketch/ns">
    <title>GitHub</title>
    <description>Created with Sketch (http://www.bohemiancoding.com/sketch)</description>
    <defs></defs>
    <g id="Page 1" stroke="none" stroke-width="1" fill="none" fill-rule="evenodd">
        <path d="M0.5,100 C0.5,155.2286 45.2714,200 100.5,200 C155.7286,200 200.5,155.2286 200.5,100 C200.5,44.7714 155.7286,0 100.5,0 C45.2714,0 0.5,44.7714 0.5,100 Z M151.1562,25.4 C153.2698,28.626 154.4846,37.9372 153.6562,44.5938 L153.125,48.8562 L155.7062,51.9874 C160.8374,58.2082 163.655,65.7298 164.2186,74.725 C164.534,79.7584 163.8252,91.5746 162.9686,95.5688 C162.6878,96.8788 162.5424,98.0364 162.6498,98.1438 C162.7572,98.2512 167.3388,98.1216 172.831,97.8562 C178.6866,97.5734 183.588,97.5428 184.681,97.7812 C186.0178,98.0728 183.383,98.2622 175.3622,98.45 C169.1674,98.595 163.612,98.9354 162.9122,99.2124 C162.064,99.5484 161.5194,100.2144 161.2498,101.2436 C160.7702,103.0744 159.543,102.8318 172.5686,103.4686 C177.9508,103.7316 183.084,104.134 183.981,104.3624 C186.1578,104.9166 184.9476,104.941 180.956,104.4186 C179.1618,104.1838 173.8102,103.9562 169.0684,103.9186 L160.4496,103.8562 L158.862,106.575 C156.5142,110.5964 150.4218,116.4444 146.4182,118.5188 C141.5736,121.029 134.106,123.3814 127.537,124.4688 C124.3662,124.9936 121.4826,125.524 121.1308,125.6438 C120.6902,125.7938 121.1514,126.5576 122.6058,128.1126 C125.0016,130.674 126.2218,132.867 127.3246,136.5626 C127.9282,138.5848 128.1564,142.1844 128.387,153.6314 C128.6692,167.6364 128.6454,168.1478 127.787,168.4064 C124.9818,169.2516 119.846,170.5814 119.3808,170.5814 C118.9844,170.5814 118.7874,167.082 118.6496,157.6502 C118.4526,144.1822 118.2022,142.432 116.2496,140.8126 C115.5346,140.2196 115.4808,141.315 115.4808,155.8064 L115.4808,171.4376 L112.337,171.7814 C110.607,171.9716 108.3496,172.1466 107.3246,172.169 L105.4622,172.2128 L105.1684,163.8252 C105.0082,159.212 104.8504,151.712 104.8184,147.1628 L104.7622,138.894 L103.3684,138.894 L101.9684,138.894 L101.9684,155.669 L101.9684,172.444 L98.1246,172.369 C96.0102,172.328 93.5952,172.2098 92.7622,172.1066 L91.2498,171.919 L91.2498,155.8128 C91.2498,141.2492 91.1786,139.7714 90.5186,140.319 C88.3628,142.1082 88.2304,143.0656 88.0748,157.6628 L87.9248,171.544 L86.206,171.2316 C85.262,171.0588 83.1282,170.575 81.4622,170.1628 L78.4372,169.4128 L78.306,160.4004 L78.181,151.388 L75.8748,151.7068 C71.6312,152.2904 64.1152,152.0834 61.5248,151.313 C55.3256,149.4696 51.588,146.0926 48.331,139.3818 C45.5914,133.737 43.1232,130.4148 39.4622,127.4568 C35.6348,124.3644 34.9232,123.297 36.2246,122.6006 C36.7236,122.3336 38.2496,122.1218 39.6122,122.1256 C41.9146,122.132 46.1202,124.0678 48.712,126.4568 C49.8702,127.5244 51.7484,129.6986 52.887,131.2944 C57.6718,137.9996 62.7318,140.692 69.5246,140.1506 C73.4632,139.8368 78.1932,138.4634 78.6996,137.4882 C78.8978,137.1062 79.5304,135.5618 80.1058,134.057 C80.7762,132.3034 82.06,130.3448 83.6746,128.6008 C86.053,126.0318 86.1276,125.8664 85.1058,125.6632 C84.5104,125.5448 81.5126,125.0038 78.437,124.457 C67.0278,122.4286 58.6082,118.6336 52.2932,112.6694 C50.183,110.6764 47.772,107.974 46.9308,106.6632 L45.3996,104.2756 L35.3558,104.5632 C29.7726,104.7216 23.662,105.154 21.5996,105.5382 C18.2304,106.1658 17.0926,106.1826 17.6808,105.5944 C18.0474,105.2278 31.5384,103.96 38.2432,103.6632 C41.7674,103.5072 44.6494,103.181 44.6494,102.9382 C44.6494,102.6954 44.3384,101.891 43.9556,101.1506 C43.0108,99.3238 41.729,99.1882 27.7556,99.3694 C21.412,99.4518 16.2242,99.3752 16.2244,99.207 C16.2254,98.5884 25.5512,98.224 34.0932,98.507 C42.2982,98.7788 42.8604,98.7478 42.5682,97.9946 C42.3962,97.551 41.8,95.4044 41.2432,93.2258 C40.3556,89.7522 40.227,88.004 40.2244,79.0134 C40.2216,69.4458 40.2984,68.5452 41.3306,65.501 C42.779,61.2302 45.2806,56.4408 47.6994,53.326 L49.6432,50.826 L48.7308,46.976 C47.589,42.1816 47.7926,34.6312 49.2058,29.4948 C50.5216,24.7126 50.7068,24.5514 54.6558,24.8572 C59.7318,25.2504 66.1766,27.8206 74.2434,32.6634 L77.9746,34.901 L81.6996,34.001 C92.976,31.2752 109.2204,31.018 121.2496,33.376 L124.9184,34.0948 L128.7622,31.7386 C134.0286,28.509 139.1762,26.2346 143.6434,25.1636 C145.8898,24.624 147.4306,24.3292 148.5312,24.2876 C149.9462,24.234 150.6326,24.601 151.1562,25.4 Z M45.3113392,125.5 C44.3279276,125.5 44,125.686465 44,126.256901 C44,127.558949 45.2160805,128.004007 46.5532305,127.191897 C47.5542826,126.583882 46.7569319,125.5 45.3113392,125.5 L45.3113392,125.5 L45.3113392,125.5 Z M41.8302053,123.6 C40.9451349,123.6 40.65,123.786465 40.65,124.356901 C40.65,125.658949 41.7444724,126.104007 42.9479075,125.291897 C43.8488544,124.683882 43.1312387,123.6 41.8302053,123.6 L41.8302053,123.6 L41.8302053,123.6 Z M48.8,128.7376 C47.8198,128.7494 47.2682,129.372 47.6124,130.2688 C48.005,131.2918 50.4122,131.027 50.6186,129.9376 C50.7206,129.3996 50.3658,129.0394 49.5374,128.8314 C49.2708,128.7642 49.0262,128.7348 48.8,128.7376 L48.8,128.7376 L48.8,128.7376 Z M51.6688,132.8312 C49.9992,132.8312 49.3476,133.6996 50.425,134.4874 C51.486,135.2632 53.0374,134.8028 53.0374,133.7124 C53.0376,133.052 52.7002,132.8312 51.6688,132.8312 L51.6688,132.8312 L51.6688,132.8312 Z M54.45,136.175 C54.3814,136.175 54.3118,136.1778 54.2438,136.1874 C53.6452,136.273 53.2166,136.7296 53.125,137.375 C52.9988,138.263 53.1868,138.425 54.375,138.425 C55.1466,138.425 55.916,138.205 56.0812,137.9374 C56.516,137.234 55.4778,136.1766 54.45,136.175 L54.45,136.175 L54.45,136.175 Z M58.2124,139.4062 C57.1628,139.4298 56.5858,140.0874 56.9312,140.9874 C57.371,142.1332 59.7936,141.7424 59.7936,140.525 C59.7936,139.8996 59.4332,139.5422 58.6936,139.4374 C58.5258,139.4138 58.3624,139.403 58.2124,139.4062 L58.2124,139.4062 L58.2124,139.4062 Z M74.9376,140.2876 C74.4878,140.2876 73.863,140.6032 73.5438,140.9876 C72.8314,141.8458 73.6532,143.0876 74.9376,143.0876 C75.3874,143.0876 76.0184,142.772 76.3376,142.3876 C77.0498,141.5294 76.2218,140.2876 74.9376,140.2876 L74.9376,140.2876 L74.9376,140.2876 Z M69.2624,141.2438 C68.2892,141.3118 67.6762,142.1646 68.1312,143.35 C68.4936,144.294 70.2554,144.0466 70.9312,142.9562 C71.3276,142.3162 71.2836,142.0254 70.7436,141.6812 C70.218,141.3462 69.7048,141.213 69.2624,141.2438 L69.2624,141.2438 L69.2624,141.2438 Z M63.775,141.3188 C63.1408,141.3448 62.5504,141.7068 62.4312,142.3312 C62.1416,143.8496 64.1208,144.5664 65.1562,143.3188 C65.6198,142.7602 65.616,142.4766 65.1374,141.9 C64.7926,141.4844 64.2684,141.2986 63.775,141.3188 L63.775,141.3188 L63.775,141.3188 Z M63.775,141.3188" id="GitHub" fill="#009BCD"></path>
    </g>
</svg>