<?xml version="1.0" encoding="UTF-8" standalone="no"?>
<svg width="201px" height="200px" viewBox="0 0 201 200" version="1.1" xmlns="http://www.w3.org/2000/svg" xmlns:xlink="http://www.w3.org/1999/xlink" xmlns:sketch="http://www.bohemiancoding.com/sketch/ns">
    <title>Instagram</title>
    <description>Created with Sketch (http://www.bohemiancoding.com/sketch)</description>
    <defs></defs>
    <g id="Page 1" stroke="none" stroke-width="1" fill="none" fill-rule="evenodd">
        <path d="M100.5,0 C45.2714,0 0.5,44.7714 0.5,100 C0.5,155.2286 45.2714,200 100.5,200 C155.7286,200 200.5,155.2286 200.5,100 C200.5,44.7714 155.7286,0 100.5,0 L100.5,0 L100.5,0 Z M53.05,32 L148.8188,32 C159.962,32 168.9376,40.0132 168.9376,49.9688 L168.9376,150.0312 C168.9376,159.9868 159.962,168 148.8188,168 L53.05,168 C41.9068,168 32.9376,159.987 32.9376,150.0312 L32.9376,49.9688 C32.9376,40.0132 41.9068,32 53.05,32 L53.05,32 L53.05,32 Z M135.9938,46.0812 C133.4892,46.0812 131.4688,48.0952 131.4688,50.6 L131.4688,65.0688 C131.4688,67.5734 133.4892,69.5876 135.9938,69.5876 L150.4626,69.5876 C152.9672,69.5876 154.9814,67.5736 154.9814,65.0688 L154.9814,50.6 C154.9814,48.0954 152.9674,46.0812 150.4626,46.0812 L135.9938,46.0812 L135.9938,46.0812 Z M123.7624,71.7 C123.8616,71.7708 123.9638,71.8408 124.0624,71.9124 L124.0624,71.7 L123.7624,71.7 L123.7624,71.7 Z M100.5,74.4 C83.9314,74.4 70.5,87.8314 70.5,104.4 C70.5,120.9686 83.9314,134.4 100.5,134.4 C117.0686,134.4 130.5,120.9686 130.5,104.4 C130.5,87.8314 117.0686,74.4 100.5,74.4 L100.5,74.4 L100.5,74.4 Z M40.5,85.6624 L40.5,148 C40.5,154.648 45.852,160 52.5,160 L148.5,160 C155.148,160 160.5,154.648 160.5,148 L160.5,86.9312 L136.5812,86.9312 C139.0902,92.1542 140.5,98.0056 140.5,104.1876 C140.5,126.2276 122.6338,144.0938 100.5938,144.0938 C78.5538,144.0938 60.6876,126.2276 60.6876,104.1876 C60.6876,97.5002 62.3368,91.199 65.2438,85.6626 L40.5,85.6626 L40.5,85.6624 L40.5,85.6624 Z M40.5,85.6624" id="Instagram" fill="#009BCD"></path>
    </g>
</svg>