<?xml version="1.0" encoding="UTF-8" standalone="no"?>
<svg width="1000px" height="1000px" viewBox="0 0 1000 1000" version="1.1" xmlns="http://www.w3.org/2000/svg" xmlns:xlink="http://www.w3.org/1999/xlink" xmlns:sketch="http://www.bohemiancoding.com/sketch/ns">
    <title>iTunes</title>
    <description>Created with Sketch (http://www.bohemiancoding.com/sketch)</description>
    <defs></defs>
    <g id="Page 1" fill="#D8D8D8" fill-rule="evenodd">
        <g id="svg2" fill="#000000">
            <g id="layer1" stroke="rgb(0,0,0)" stroke-width="1" fill="#009BCD">
                <path d="M499.99999,-2.84217094e-14 C223.85763,-2.84217094e-14 0,223.85763 0,500.00002 C0,776.14242 223.85763,1000 499.99999,1000 C776.14237,1000 1000,776.14242 1000,500.00002 C1000,223.85763 776.14237,-2.84217094e-14 499.99999,-2.84217094e-14 L499.99999,-2.84217094e-14 Z M747.5,129.375 L746.24999,244.37502 C745.83679,307.74501 744.79559,432.76702 743.75,521.87503 L741.87499,683.75003 L735,695.62504 C720.00225,722.62904 686.7143,747.68304 656.25,754.37503 C637.73507,758.44503 600.32542,755.74704 584.375,749.37505 C560.5285,739.84104 538.62439,717.45704 531.875,695.62504 C530.0388,689.68703 529.32132,678.63003 529.99999,667.50004 C531.5248,642.49203 539.4734,626.62804 560,606.25003 C592.06167,574.41803 621.96846,566.90902 683.75,575.62502 L693.75,576.87503 L693.75,450.00002 L693.75,323.75002 L684.99999,323.75002 C674.7937,323.76022 592.89266,335.62002 539.99999,345.00001 C504.90308,351.22201 449.62739,363.31201 406.87499,373.75003 L384.99999,378.75002 L383.12501,536.87503 C381.3584,709.52904 379.12026,762.32504 373.125,775.62504 C367.94632,787.10903 339.50764,815.38502 325,823.125 C318.47954,826.60101 306.8715,831.07308 299.37499,833.12507 C283.16982,837.56907 249.76553,838.05808 233.125,833.75001 C195.41019,823.91405 169.56908,793.65801 166.25001,756.25004 C164.91601,741.21603 165.14999,738.24904 171.875,723.12504 C186.78686,689.58504 221.7232,660.71203 255.62499,653.75004 C270.09419,650.77604 309.64939,651.91503 325.625,655.62502 L331.875,657.50004 L331.875,438.12502 C331.875,286.13101 332.57081,216.69801 334.37501,211.25001 C337.20278,202.71601 333.4916,204.51001 393.74999,186.25001 C449.5929,169.32601 539.79053,145.48101 563.125,141.87501 C601.5231,135.943 674.31648,130.412 712.5,130.00001 L747.5,129.375 L747.5,129.375 Z M747.5,129.375" id="path2985"></path>
            </g>
        </g>
    </g>
</svg>