<?xml version="1.0" encoding="UTF-8" standalone="no"?>
<svg width="200px" height="200px" viewBox="0 0 200 200" version="1.1" xmlns="http://www.w3.org/2000/svg" xmlns:xlink="http://www.w3.org/1999/xlink" xmlns:sketch="http://www.bohemiancoding.com/sketch/ns">
    <title>Kickstarter</title>
    <description>Created with Sketch (http://www.bohemiancoding.com/sketch)</description>
    <defs></defs>
    <g id="Page-1" stroke="none" stroke-width="1" fill="none" fill-rule="evenodd" sketch:type="MSPage">
        <path d="M100,0 C44.771524,3.03201907e-14 0,44.771524 0,100 C0,155.228476 44.771524,200 100,200 C155.228476,200 200,155.228476 200,100 C200,44.771524 155.228476,-3.41060513e-14 100,0 Z M90.6470148,80.8951037 L112.461565,49.0106518 C116.58593,43.0035506 121.910844,40 128.437611,40 C133.762525,40 138.370499,41.9054925 142.265442,45.7177925 C146.157779,49.5300925 148.103947,54.0932801 148.103947,59.4073555 C148.103947,63.335379 147.075463,66.8018235 145.013281,69.8053741 L125.344338,98.6573445 L149.39444,129.416122 C151.798147,132.477535 153,136.059703 153,140.159996 C153,145.589795 151.112491,150.252926 147.332258,154.152019 C143.553329,158.052426 138.970122,160 133.59046,160 C127.691993,160 123.19873,158.066892 120.105457,154.195415 L90.6470148,117.112611 L90.6470148,137.561478 C90.6470148,143.396309 89.6459049,147.929251 87.6410779,151.164248 C83.9768591,157.054311 78.651945,160 71.6676389,160 C65.3116337,160 60.3855992,157.83413 56.8947497,153.502389 C53.6307142,149.516504 52,144.230044 52,137.646956 L52,61.8336036 C52,55.5950555 53.6580883,50.4558804 56.9807826,46.4108184 C60.4729356,42.1369395 65.2816525,40 71.4082368,40 C77.2493482,40 82.1154204,42.1369395 86.0090602,46.4108184 C88.1846493,48.7792048 89.5585684,51.1765222 90.1308175,53.6027704 C90.474949,55.1058607 90.6470148,57.9055802 90.6470148,62.0071889 L90.6470148,80.8951037 Z" id="Kickstarter" fill="#009BCD" sketch:type="MSShapeGroup"></path>
    </g>
</svg>