<?xml version="1.0" encoding="UTF-8" standalone="no"?>
<svg width="1000px" height="1000px" viewBox="0 0 1000 1000" version="1.1" xmlns="http://www.w3.org/2000/svg" xmlns:xlink="http://www.w3.org/1999/xlink" xmlns:sketch="http://www.bohemiancoding.com/sketch/ns">
    <title>Phone</title>
    <description>Created with Sketch (http://www.bohemiancoding.com/sketch)</description>
    <defs></defs>
    <g id="Page 1" fill="#D8D8D8" fill-rule="evenodd">
        <g id="svg2" fill="#000000">
            <g id="layer1">
                <path d="M500,-0.000183 C223.857,-0.000183 0,223.856817 0,499.999817 C0,776.142817 223.857,999.999817 500,999.999817 C776.143,999.999817 1000,776.142817 1000,499.999817 C1000,223.856817 776.143,-0.000183 500,-0.000183 L500,-0.000183 Z M278.812,178.187817 C314.526,178.163817 314.295,177.980817 334.124,223.312817 C374.4,315.387817 385.89,345.708817 384.031,355.187817 C381.621,367.477817 364.879,392.275817 343.5,415.218817 C332.908,426.585817 326.812,436.227817 326.812,441.624817 C326.812,446.367817 337.565,466.457817 351.124,487.030817 C380.896,532.202817 429.82,581.995817 474,612.093817 C509.72,636.427817 563.859,664.454817 580.312,667.124817 C590.436,668.767817 592.633,667.213817 608.312,647.343817 C637.445,610.422817 666,579.999817 686,579.999817 C700.143,579.999817 688.556,579.782817 760.219,614.655817 C817.794,642.672817 840.419,655.370817 841.719,660.343817 C842.709,664.129817 843.52,683.260817 837.875,701.531817 C825.989,740.001817 809.615,764.895817 762.406,796.000817 C725.991,819.992817 672.466,822.687817 609.781,804.844817 C548.139,787.298817 524.001,778.766817 494.312,763.938817 C430.991,729.986817 376.087,690.668817 329.187,643.500817 C250.471,563.845817 193.518,478.629817 165.031,397.906817 C147.06,346.982817 160.165,299.163817 186,250.000817 C214.833,206.690817 245.985,179.990817 278.812,178.187817 L278.812,178.187817 Z M278.812,178.187817" id="path3184" fill="#009BCD"></path>
            </g>
        </g>
    </g>
</svg>