<?xml version="1.0" encoding="UTF-8" standalone="no"?>
<svg width="200px" height="200px" viewBox="0 0 200 200" version="1.1" xmlns="http://www.w3.org/2000/svg" xmlns:xlink="http://www.w3.org/1999/xlink" xmlns:sketch="http://www.bohemiancoding.com/sketch/ns">
    <title>Rdio</title>
    <description>Created with Sketch (http://www.bohemiancoding.com/sketch)</description>
    <defs></defs>
    <g id="Page 1" stroke="none" stroke-width="1" fill="none" fill-rule="evenodd">
        <path d="M100,0 C155.228474,-1.51545443e-14 200,44.771526 200,100 C200,155.228474 155.228474,200 100,200 C44.771526,200 1.5158245e-14,155.228474 0,100 C0,44.771526 44.771526,3.03201907e-14 100,0 Z M117.865727,43.1420477 C116.811775,42.7614108 116.003019,42.3675412 115.147559,42.1776119 C107.368244,40.4371128 99.5764753,40.3024499 91.6336968,41.2544313 C61.1531676,44.9082339 35.6178041,71.9466849 39.3665714,106.49279 C41.0735993,122.221889 47.8121953,135.197792 59.9552122,145.246917 C75.2336184,157.890444 93.0293654,161.364437 112.164736,158.273416 C137.452569,154.188381 156.278916,136.2245 161.262223,111.500227 C162.548916,105.118138 162.430599,98.4527114 162.989489,91.5218509 C164.098707,91.0641526 165.664845,90.4725697 167.185836,89.7805734 C173.501761,86.9075045 178.657095,82.7150501 181.787035,76.3991245 C183.07762,73.794603 183.799195,71.048413 181.536391,68.9023683 C172.621392,66.6489046 163.627776,64.6406364 155.270889,61.1191615 C146.910111,57.5969082 139.186062,52.5622266 130.576975,47.8591427 L130.576975,52.6221633 C130.576975,67.1439661 130.597992,81.6665473 130.548952,96.1891285 C130.542725,97.9786667 130.385489,99.8265847 129.923898,101.546845 C124.738207,120.880708 100.699704,131.804753 82.7373801,123.042321 C73.8145979,118.689516 69.2376146,110.105337 70.8395587,100.729527 C73.1568511,87.1635976 88.2227545,74.2141598 102.05801,74.224279 C107.278729,74.228171 112.499448,74.97232 117.865727,75.3910984 Z M117.865727,43.1420477" id="Rdio" fill="#009BCD"></path>
    </g>
</svg>