<?xml version="1.0" encoding="UTF-8" standalone="no"?>
<svg width="1000px" height="1000px" viewBox="0 0 1000 1000" version="1.1" xmlns="http://www.w3.org/2000/svg" xmlns:xlink="http://www.w3.org/1999/xlink" xmlns:sketch="http://www.bohemiancoding.com/sketch/ns">
    <title>Soundcloud</title>
    <description>Created with Sketch (http://www.bohemiancoding.com/sketch)</description>
    <defs></defs>
    <g id="Page 1" fill="#D8D8D8" fill-rule="evenodd">
        <g id="Circle_1_" fill="#000000">
            <path d="M500,0 C223.85763,7.5791225e-14 0,223.85763 0,500 C3.7895613e-14,776.14237 223.85763,1000 500,1000 C776.14237,1000 1000,776.14237 1000,500 C1000,223.85763 776.14237,-1.1368684e-13 500,0 L500,0 Z M585.875,334.375 C594.58615,334.27853 603.06879,334.6754 609.34375,335.59375 C623.06215,337.60145 633.07866,340.09857 644.84375,344.46875 C699.59503,364.80631 739.90299,413.54795 749.6875,471.25 L751.8125,483.6875 L757,481.90625 C772.39863,476.60838 795.56969,475.80294 811.375,480.03125 C829.43751,484.86341 848.91753,497.60841 860.53125,512.1875 C867.86505,521.39391 875.24353,535.99448 878.25,547.28125 C881.41063,559.1469 881.38907,582.54612 878.21875,594.34375 C869.39362,627.18451 844.68983,652.03669 811.3125,661.65625 L803.6875,663.84375 L665,664.0625 C588.52357,664.18587 525.39896,663.92673 524.28125,663.46875 C523.16633,663.0119 521.31625,661.46625 520.1875,660.03125 L518.15625,657.40625 L518.15625,504.34375 L518.15625,351.28125 L521.03125,348.59375 C524.42088,345.42735 540.4865,339.97979 555.09375,337.03125 C563.0603,335.42317 574.67495,334.49904 585.875,334.375 L585.875,334.375 Z M499.25,356.3125 C503.06467,356.2949 504.37266,356.74766 506.59375,358.96875 C509.21007,361.58505 509.31114,362.08272 509.875,374.59375 C510.19476,381.68876 511.33949,430.23572 512.4375,482.5 L514.4375,577.53125 L512.46875,610.65625 C509.57096,659.37225 509.78286,657.52964 506.59375,660.71875 C504.35859,662.9539 503.07454,663.43034 499.25,663.40625 C496.70177,663.39015 493.86138,662.94435 492.9375,662.40625 C488.91367,660.06256 488.50685,657.2266 486.28125,616.5 L484.125,577.03125 L486.25,470.4375 C487.70385,397.43314 488.73047,363.19329 489.46875,361.75 C491.39732,357.97978 494.34878,356.33509 499.25,356.3125 L499.25,356.3125 Z M467.28125,374.21875 C469.76627,374.29616 472.2943,375.26306 474.25,377.21875 L477.1875,380.15625 L479.25,478.84375 L481.3125,577.5 L479.1875,617.59375 C476.90258,660.78474 476.79546,661.44354 471.46875,663.46875 C467.18906,665.09589 463.77421,664.54173 460.71875,661.6875 C458.99903,660.08104 457.62032,657.63028 457.3125,655.6875 C457.02633,653.88142 456.02867,635.7625 455.125,615.4375 C453.56954,580.45256 453.58868,573.29551 455.1875,481.0625 C456.13371,426.47959 457.29228,382.29744 457.8125,380.59375 C459.09357,376.39818 463.13955,374.08973 467.28125,374.21875 L467.28125,374.21875 Z M368.375,396.96875 C369.30588,396.88801 370.40936,397.0625 371.75,397.0625 C380.32659,397.0625 379.50481,389.87019 382.625,489.28125 L385.34375,576.6875 L382.625,616.9375 C381.12858,639.08067 379.46745,658.33545 378.90625,659.71875 C377.25609,663.7862 372.17025,665.38702 367.75,663.25 C366.59975,662.69389 365.20747,661.10662 364.65625,659.71875 C364.10502,658.33086 362.55396,639.20652 361.21875,617.21875 L358.8125,577.25 L361.25,489.5625 C363.58967,405.39003 363.34827,397.40474 368.375,396.96875 L368.375,396.96875 Z M403.6875,400.4375 C406.46029,400.4375 408.02526,401.07034 409.75,402.90625 L412.0625,405.375 L414.59375,491.4375 L417.125,577.5 L414.5,617.8125 C413.05464,639.99768 411.57079,658.83643 411.21875,659.65625 C410.40024,661.56232 405.58645,664.42501 403.28125,664.375 C402.30686,664.3539 400.37891,663.71817 399,662.96875 C397.6211,662.21934 396.03904,660.37937 395.46875,658.90625 C394.89844,657.43314 393.48564,638.37711 392.3125,616.53125 L390.15625,576.8125 L392.28125,492.21875 C393.62099,439.03095 394.81571,406.65168 395.46875,404.96875 C396.76541,401.62714 398.90803,400.4375 403.6875,400.4375 L403.6875,400.4375 Z M340.34375,402.4375 C343.30067,402.33271 345.57792,403.74061 346.78125,406.46875 C347.84889,408.88929 348.75805,427.95695 350.96875,494.03125 L353.8125,578.5 L351.0625,614.96875 C349.55295,635.02979 348.29998,653.1047 348.28125,655.125 C348.25565,657.87749 347.53991,659.49136 345.4375,661.59375 C342.33461,664.69665 340.38926,664.98298 336.625,662.9375 C335.23945,662.18459 333.85778,660.66041 333.5625,659.53125 C333.26721,658.4021 331.84015,639.35397 330.40625,617.1875 L327.8125,576.875 L330.40625,492.25 C333.21233,401.34315 332.99234,404.0539 338.1875,402.75 C338.93446,402.56253 339.66138,402.46168 340.34375,402.4375 L340.34375,402.4375 Z M435.75,405.53125 C436.77256,405.5426 437.75316,405.71132 438.65625,406.0625 C444.62395,408.3831 444.25715,404.38505 446.8125,493.3125 L449.15625,574.65625 L447.15625,611.125 C444.63923,657.14988 444.52856,658.18039 441.96875,661.125 C439.68715,663.74956 434.43425,664.88528 431.09375,663.46875 C426.08447,661.34457 425.95213,660.45712 423.75,617.25 L421.6875,576.78125 L423.71875,494.28125 C425.66513,415.31481 425.8397,411.66672 427.65625,409.21875 C429.38532,406.88869 432.68231,405.4972 435.75,405.53125 L435.75,405.53125 Z M309.65625,416.03125 C311.75754,416.10977 313.83577,417.06587 315,418.9375 C316.0371,420.60475 317.02221,438.43267 319.4375,499.03125 L322.5625,576.96875 L319.34375,618.4375 C316.84462,650.87934 315.84064,660.27078 314.6875,661.625 C312.8417,663.79268 309.09333,664.60682 306.25,663.4375 C305.05449,662.94584 303.72029,661.54575 303.28125,660.34375 C302.84222,659.14175 301.24459,639.91937 299.75,617.625 L297.03125,577.09375 L299.75,499.5625 C301.24601,456.92248 302.84652,421.06933 303.28125,419.875 C304.22782,417.27443 306.95459,415.9303 309.65625,416.03125 L309.65625,416.03125 Z M278.65625,445.46875 C280.52848,445.46339 282.40156,446.20873 283.375,447.71875 C284.45658,449.39661 285.5112,464.00028 288.15625,513.25 L291.5625,576.65625 L288.15625,618.375 C284.79571,659.65408 284.74253,660.11273 282.375,662.25 C281.05922,663.43783 279.38925,664.40625 278.65625,664.40625 C277.92325,664.40625 276.23699,663.43783 274.90625,662.25 C272.49002,660.09327 272.48546,660.01375 269.46875,618.59375 L266.4375,577.125 L269.46875,513.53125 C271.88673,462.54697 272.7577,449.50289 273.90625,447.75 C274.89936,446.23432 276.78402,445.47411 278.65625,445.46875 L278.65625,445.46875 Z M217.6875,488.96875 C219.51333,488.95736 221.36006,489.72629 221.96875,491.3125 C222.293,492.15747 224.28852,511.79752 226.40625,534.9375 L230.25,577 L226.375,618.0625 C222.78403,656.07823 222.33766,659.25736 220.46875,660.8125 C219.35848,661.73636 218.1297,662.46875 217.71875,662.46875 C217.3078,662.46875 216.05387,661.73636 214.9375,660.8125 C213.03697,659.23969 212.69635,656.51039 209.5,617.9375 L206.0625,576.71875 L209.4375,534.84375 C211.29434,511.80652 213.10204,492.24919 213.4375,491.375 C214.04912,489.78116 215.86167,488.98014 217.6875,488.96875 L217.6875,488.96875 Z M187.59375,491.8125 C188.65071,491.72625 189.6887,492.00119 190.40625,492.71875 C191.35998,493.67245 192.84222,505.20124 195.59375,532.90625 C197.71645,554.27968 199.46831,574.04312 199.46875,576.8125 C199.46971,585.70434 191.83304,656.00111 190.71875,657.34375 C188.98782,659.42939 185.15499,658.91645 184.125,656.46875 C183.62516,655.28093 181.63346,636.82176 179.71875,615.4375 L176.25,576.5625 L179.71875,536.71875 C181.62107,514.81339 183.38862,495.92979 183.65625,494.75 C184.03571,493.07721 185.83214,491.95625 187.59375,491.8125 L187.59375,491.8125 Z M248.34375,494.5625 C249.92931,494.54142 251.45084,494.98098 252.21875,495.90625 C252.93424,496.76837 254.81628,512.55285 257.09375,536.9375 L260.78125,576.5625 L257.5,614.5 C253.58545,659.54966 253.5137,660.14254 251.65625,662 C249.67848,663.97776 246.19449,663.80489 244.25,661.65625 C242.92174,660.18854 242.07462,652.72493 239.375,618.40625 L236.09375,576.90625 L239.375,537.375 C241.17509,515.63963 242.65151,497.78177 242.65625,497.6875 C242.66125,497.5932 243.3579,496.82958 244.1875,496 C245.13558,495.05192 246.75819,494.58358 248.34375,494.5625 L248.34375,494.5625 Z M157.28125,505.21875 C157.76913,505.14356 158.29994,505.26639 158.9375,505.46875 C161.29233,506.21612 160.9794,504.43361 165.9375,544.90625 L169.9375,577.53125 L165.53125,611.53125 C162.62004,634.03766 160.72341,645.79401 159.90625,646.3125 C158.08155,647.47025 156.6522,647.28893 155.375,645.75 C154.7362,644.98029 152.59456,629.56323 150.46875,610.5625 L146.65625,576.75 L150.46875,542.1875 C153.80153,511.79192 154.6467,505.6248 157.28125,505.21875 L157.28125,505.21875 Z M129.875,530.96875 C132.32986,530.96875 133.13272,533.84178 136.46875,554.96875 L139.875,576.59375 L136.53125,597.6875 C134.70077,609.2981 133.02168,619.3401 132.78125,620 C132.00817,622.12174 127.52593,621.41006 126.65625,619.03125 C126.22198,617.84343 124.66086,607.80511 123.21875,596.71875 L120.625,576.5625 L123.4375,555.21875 C126.1481,534.81804 127.171,530.96875 129.875,530.96875 L129.875,530.96875 Z M129.875,530.96875" id="path2982" fill="#009BCD"></path>
        </g>
    </g>
</svg>