<?xml version="1.0" encoding="UTF-8" standalone="no"?>
<svg width="200px" height="200px" viewBox="0 0 200 200" version="1.1" xmlns="http://www.w3.org/2000/svg" xmlns:xlink="http://www.w3.org/1999/xlink" xmlns:sketch="http://www.bohemiancoding.com/sketch/ns">
    <title>Soundcloud</title>
    <description>Created with Sketch (http://www.bohemiancoding.com/sketch)</description>
    <defs></defs>
    <g id="Page 1" stroke="none" stroke-width="1" fill="none" fill-rule="evenodd">
        <path d="M0,100 C7.5791226e-15,155.228474 44.771526,200 100,200 C155.228474,200 200,155.228474 200,100 C200,44.771526 155.228474,-2.2737368e-14 100,0 C44.771526,1.5158245e-14 0,44.771526 0,100 Z M121.86875,67.11875 C124.61243,67.52029 126.615732,68.019714 128.96875,68.89375 C139.919006,72.961262 147.980598,82.70959 149.9375,94.25 L150.3625,96.7375 L151.4,96.38125 C154.479726,95.321676 159.113938,95.160588 162.275,96.00625 C165.887502,96.972682 169.783506,99.521682 172.10625,102.4375 C173.57301,104.278782 175.048706,107.198896 175.65,109.45625 C176.282126,111.82938 176.277814,116.509224 175.64375,118.86875 C173.878724,125.436902 168.937966,130.407338 162.2625,132.33125 L160.7375,132.76875 L133,132.8125 C117.704714,132.837174 105.632269,132.815416 105.632269,132.815416 C104.527137,132.813805 103.63125,131.9248 103.63125,130.814274 L103.63125,100.86875 L103.63125,70.25625 L104.20625,69.71875 C104.884176,69.08547 108.0973,67.995958 111.01875,67.40625 C112.61206,67.084634 114.93499,66.899808 117.175,66.875 C118.91723,66.855706 120.613758,66.93508 121.86875,67.11875 Z M102.131348,73.2285157 C102.12413,74.7869314 102.267898,86.047144 102.4875,96.5 C102.4875,96.5 102.88661,110.38335 102.8875,115.50625 C102.88839,120.62915 102.698242,123.299999 102.698242,123.299999 C102.429043,127.825625 101.658203,132.837039 99.8500001,132.837035 C98.0417969,132.837033 97.3003776,127.661893 97.0620117,123.299999 C97.0620117,123.299999 96.825,120.643311 96.825,115.40625 C96.825,110.169189 97.25,94.0875 97.25,94.0875 C97.54077,79.486628 97.6621094,74.8950196 97.6621094,73.2285156 C97.6621094,71.6643066 98.869756,71.267018 99.85,71.2625 C100.612934,71.25898 102.138878,71.6027832 102.131348,73.2285157 Z M95.4375,76.03125 C95.6943357,76.7885742 95.85,95.76875 95.85,95.76875 C95.85,95.76875 96.038942,111.177002 96.0369871,115.518675 C96.0350321,119.860349 95.8375,123.51875 95.8375,123.51875 C95.380516,132.156948 95.4374998,130.927367 95.2473142,131.549315 C95.1366365,131.911256 94.4862061,132.789038 93.4158209,132.761717 C92.3454357,132.734396 91.9061115,131.830104 91.7399902,131.549315 C91.4278564,131.021728 91.205734,127.1525 91.025,123.0875 C90.713908,116.090512 90.717736,114.659102 91.0375,96.2125 C91.226742,85.295918 91.251831,76.8926513 91.5625,76.11875 C91.873169,75.3448485 92.6466065,74.8166013 93.6865235,74.8424072 C94.7264405,74.8682131 95.1806643,75.2739255 95.4375,76.03125 Z M73.675,79.39375 C73.861176,79.377602 74.081872,79.4125 74.35,79.4125 C76.065318,79.4125 75.900962,77.974038 76.525,97.85625 L77.06875,115.3375 L76.525,123.3875 C76.225716,127.816134 75.89349,131.66709 75.78125,131.94375 C75.451218,132.75724 74.43405,133.077404 73.55,132.65 C73.31995,132.538778 73.041494,132.221324 72.93125,131.94375 C72.821004,131.666172 72.510792,127.841304 72.24375,123.44375 L71.7625,115.45 L72.25,97.9125 C72.717934,81.078006 72.669654,79.480948 73.675,79.39375 L73.675,79.39375 L73.675,79.39375 Z M80.65625,79.9735107 C82.0151124,79.9731912 82.330842,80.5971494 82.4125,81.075 C82.5812499,82.0624999 82.91875,98.2875 82.91875,98.2875 L83.425,115.5 L82.9,123.5625 C82.610928,127.999536 82.314158,131.767286 82.24375,131.93125 C82.080048,132.312464 81.11729,132.885002 80.65625,132.875 C80.461372,132.87078 80.075782,132.743634 79.8,132.59375 C79.52422,132.443868 79.207808,132.075874 79.09375,131.78125 C78.979688,131.486628 78.697128,127.675422 78.4625,123.30625 L78.03125,115.3625 L78.45625,98.44375 C78.724198,87.80619 78.9477539,81.7107667 79.09375,80.99375 C79.1690987,80.6236972 79.2973876,79.9738302 80.65625,79.9735107 Z M68.06875,80.4875 C68.660134,80.466542 69.115584,80.748122 69.35625,81.29375 C69.569778,81.777858 69.75161,85.59139 70.19375,98.80625 L70.7625,115.7 L70.2125,122.99375 C69.91059,127.005958 69.659996,130.62094 69.65625,131.025 C69.65113,131.575498 69.507982,131.898272 69.0875,132.31875 C68.466922,132.93933 68.077852,132.996596 67.325,132.5875 C67.04789,132.436918 66.771556,132.132082 66.7125,131.90625 C66.653442,131.68042 66.36803,127.870794 66.08125,123.4375 L65.5625,115.375 L66.08125,98.45 C66.642466,80.26863 66.598468,80.81078 67.6375,80.55 C67.786892,80.512506 67.932276,80.492336 68.06875,80.4875 L68.06875,80.4875 L68.06875,80.4875 Z M87.15,81.10625 C87.354512,81.10852 87.550632,81.142264 87.73125,81.2125 C88.92479,81.67662 88.85143,80.87701 89.3625,98.6625 L89.83125,114.93125 L89.43125,122.225 C88.927846,131.429976 88.905712,131.636078 88.39375,132.225 C87.93743,132.749912 86.88685,132.977056 86.21875,132.69375 C85.216894,132.268914 85.190426,132.091424 84.75,123.45 L84.3375,115.35625 L84.74375,98.85625 C85.133026,83.062962 85.16794,82.333344 85.53125,81.84375 C85.877064,81.377738 86.536462,81.09944 87.15,81.10625 L87.15,81.10625 L87.15,81.10625 Z M61.93125,83.20625 C62.351508,83.221954 62.767154,83.413174 63,83.7875 C63.20742,84.12095 63.404442,87.686534 63.8875,99.80625 L64.5125,115.39375 L63.86875,123.6875 C63.368924,130.175868 63.168128,132.054156 62.9375,132.325 C62.56834,132.758536 61.818666,132.921364 61.25,132.6875 C61.010898,132.589168 60.744058,132.30915 60.65625,132.06875 C60.568444,131.82835 60.248918,127.983874 59.95,123.525 L59.40625,115.41875 L59.95,99.9125 C60.249202,91.384496 60.569304,84.213866 60.65625,83.975 C60.845564,83.454886 61.390918,83.18606 61.93125,83.20625 L61.93125,83.20625 L61.93125,83.20625 Z M56.675,89.54375 C56.891316,89.879322 57.10224,92.800056 57.63125,102.65 L58.3125,115.33125 L57.63125,123.675 C56.959142,131.930816 56.675,132.157595 56.475,132.45 C56.275,132.742405 56.1748048,132.88125 55.73125,132.88125 C55.2876952,132.881249 55.114624,132.693514 54.947937,132.449999 C54.78125,132.206484 54.497092,132.00275 53.89375,123.71875 L53.2875,115.425 L53.89375,102.70625 C54.377346,92.509394 54.55154,89.900578 54.78125,89.55 C54.979872,89.246864 55.356804,89.094822 55.73125,89.09375 C56.105696,89.092678 56.480312,89.241746 56.675,89.54375 Z M44.39375,98.2625 C44.4586,98.431494 44.857704,102.359504 45.28125,106.9875 L46.05,115.4 L45.275,123.6125 C44.556806,131.215646 44.467532,131.851472 44.09375,132.1625 C43.871696,132.347272 43.7691039,132.444215 43.5375,132.444215 C43.3058962,132.444215 43.210774,132.347272 42.9875,132.1625 C42.607394,131.847938 42.53927,131.302078 41.9,123.5875 L41.2125,115.34375 L41.8875,106.96875 C42.258868,102.361304 42.620408,98.449838 42.6875,98.275 C42.809824,97.956232 43.172334,97.796028 43.5375,97.79375 C43.902666,97.791472 44.272012,97.945258 44.39375,98.2625 Z M37.51875,98.3625 C37.730142,98.34525 37.93774,98.400238 38.08125,98.54375 C38.271996,98.73449 38.568444,101.040248 39.11875,106.58125 C39.54329,110.855936 39.893662,114.808624 39.89375,115.3625 C39.893942,117.140868 38.366608,131.200222 38.14375,131.46875 C37.797564,131.885878 37.030998,131.78329 36.825,131.29375 C36.725032,131.056186 36.326692,127.364352 35.94375,123.0875 L35.25,115.3125 L35.94375,107.34375 C36.324214,102.962678 36.677724,99.185958 36.73125,98.95 C36.807142,98.615442 37.166428,98.39125 37.51875,98.3625 L37.51875,98.3625 L37.51875,98.3625 Z M49.465271,98.8060913 C50.2421265,98.8001158 50.4137094,99.3116212 50.536499,99.5375 C50.7744141,99.9751587 50.963256,102.51057 51.41875,107.3875 L52.15625,115.3125 L51.5,122.9 C50.71709,131.909932 50.70274,132.028508 50.33125,132.4 C49.935696,132.795552 49.238898,132.760978 48.85,132.33125 C48.584348,132.037708 48.414924,130.544986 47.875,123.68125 L47.21875,115.38125 L47.7796631,107.3875 C48.0456258,104.176106 48.447998,99.7172119 48.53125,99.5375 C48.614502,99.3577881 48.6884155,98.8120669 49.465271,98.8060913 Z M31.7875,101.09375 C32.258466,101.243224 32.19588,100.886722 33.1875,108.98125 L33.9875,115.50625 L33.10625,122.30625 C32.524008,126.807532 32.144682,129.158802 31.98125,129.2625 C31.61631,129.49405 31.33044,129.457786 31.075,129.15 C30.94724,128.996058 30.518912,125.912646 30.09375,122.1125 L29.33125,115.35 L30.09375,108.4375 C30.760306,102.358384 30.92934,101.12496 31.45625,101.04375 C31.553826,101.028712 31.659988,101.053278 31.7875,101.09375 Z M27.29375,110.99375 L27.975,115.31875 L27.30625,119.5375 C26.940154,121.85962 26.604336,123.86802 26.55625,124 C26.401634,124.424348 25.505186,124.282012 25.33125,123.80625 C25.244396,123.568686 24.932172,121.561022 24.64375,119.34375 L24.125,115.3125 L24.6875,111.04375 C25.22962,106.963608 25.4342,106.19375 25.975,106.19375 C26.465972,106.19375 26.626544,106.768356 27.29375,110.99375 Z M27.29375,110.99375" id="Soundcloud" fill="#009BCD"></path>
    </g>
</svg>