<?xml version="1.0" encoding="UTF-8" standalone="no"?>
<svg width="201px" height="200px" viewBox="0 0 201 200" version="1.1" xmlns="http://www.w3.org/2000/svg" xmlns:xlink="http://www.w3.org/1999/xlink" xmlns:sketch="http://www.bohemiancoding.com/sketch/ns">
    <title>Spotify</title>
    <description>Created with Sketch (http://www.bohemiancoding.com/sketch)</description>
    <defs></defs>
    <g id="Page 1" stroke="none" stroke-width="1" fill="none" fill-rule="evenodd">
        <path d="M100.5,0 C155.728474,-1.51545443e-14 200.5,44.771526 200.5,100 C200.5,155.228474 155.728474,200 100.5,200 C45.271526,200 0.5,155.228474 0.5,100 C0.5,44.771526 45.271526,3.03201907e-14 100.5,0 Z M159.965,112.671735 C159.952129,112.221004 159.978005,111.69969 159.842258,111.174312 C159.699872,110.623736 159.583633,110.07492 159.350207,109.547375 C159.039695,108.845471 158.634214,108.20277 158.179012,107.598951 C157.888415,107.21352 157.482663,106.912085 157.115657,106.587618 C156.682674,106.204762 156.178295,105.923783 155.686515,105.625735 C155.108843,105.275799 154.539435,104.911367 153.953228,104.576469 C153.499381,104.317167 152.997441,104.134815 152.566219,103.844896 C151.881249,103.384411 151.136399,103.043552 150.413361,102.65934 C149.581806,102.217416 148.741038,101.792968 147.902168,101.364997 C146.895983,100.851812 145.913101,100.281049 144.872641,99.8500985 C143.889352,99.4427205 142.943997,98.9505342 141.942554,98.5843411 C141.454432,98.4059185 141.01752,98.0689883 140.522083,97.932157 C139.488261,97.6467079 138.588561,97.0172838 137.528457,96.8156947 C136.25281,96.1808516 134.889916,95.7698158 133.55493,95.2915835 C132.000201,94.7347749 130.426641,94.2298538 128.855926,93.7188363 C128.098341,93.4724044 127.332357,93.2491391 126.562714,93.0430792 C126.054677,92.9070608 125.561678,92.7244384 125.041584,92.6203924 C124.48762,92.5095726 123.946798,92.3236987 123.404349,92.1611269 C122.798092,91.9794528 122.187093,91.8264998 121.572571,91.6801851 C120.976339,91.5383412 120.369946,91.4139737 119.788887,91.2397509 C118.959093,90.9908804 118.112093,90.8083935 117.273629,90.629158 C116.505071,90.464825 115.747486,90.1803242 114.942484,90.1929235 C114.447317,89.9177707 113.851762,90.0356353 113.349957,89.7864939 C112.68558,89.8696765 112.096799,89.4182686 111.43039,89.5155408 C110.81492,89.2459425 110.134828,89.2913271 109.493075,89.1343098 C109.253553,89.0756484 109.007256,88.9625255 108.742535,88.9706541 C108.461557,88.9791891 108.191959,88.9176828 107.913825,88.8596988 C107.327889,88.7377699 106.72258,88.7116229 106.131767,88.5779076 C105.820577,88.5074598 105.494891,88.5565023 105.168257,88.4509661 C104.87197,88.3550487 104.534904,88.4016526 104.20949,88.3161669 C103.862263,88.2248557 103.484826,88.2785044 103.114433,88.179742 C102.767748,88.087347 102.389498,88.1139004 102.020595,88.0449428 C101.397945,87.928704 100.752264,87.9346649 100.116337,87.890635 C100.048869,87.8860288 99.9548487,87.9190851 99.9174572,87.8853515 C99.6658773,87.6586992 99.3645774,87.7943112 99.0890181,87.7535328 C98.8135943,87.7127543 98.54088,87.6466418 98.2642369,87.6227979 C97.7635155,87.5797164 97.2671295,87.6217141 96.7576022,87.5079138 C96.2110897,87.3858494 95.6282696,87.4705223 95.0546619,87.3689148 C94.3882528,87.2509148 93.6990835,87.3495417 93.0111336,87.2356059 C92.1653535,87.0955232 91.2947812,87.2365543 90.4256991,87.1037872 C89.6094529,86.9791488 88.756899,87.0383521 87.9246665,87.0879365 C87.0971758,87.1372499 86.2944772,86.9256356 85.4743022,86.9410799 C83.7318028,86.9737297 81.9878131,86.8687354 80.246533,87.0653119 C79.6000389,87.1383338 78.938236,87.0658538 78.2838842,87.0803498 C77.6464671,87.0945748 77.0148754,87.0834658 76.3719037,87.1880537 C75.5484772,87.32204 74.6971425,87.1621776 73.8551558,87.3319297 C73.2356215,87.4568391 72.5880436,87.2972478 71.9452074,87.4629356 C71.4692783,87.5856773 70.9517578,87.4943661 70.4442627,87.5955671 C69.8935505,87.7053031 69.3130335,87.6276751 68.740916,87.7375465 C68.1192141,87.8570369 67.4721781,87.8449794 66.8362512,87.8894158 C66.791273,87.8925317 66.7282764,87.8703136 66.7034842,87.8928027 C66.4329375,88.1380152 66.1057616,87.9781529 65.8086615,88.0248923 C65.5121034,88.0716317 65.2139195,88.1587431 64.9184451,88.151021 C64.4307295,88.1382862 63.9759348,88.3956916 63.4842904,88.2962518 C63.1167425,88.5999903 62.6106021,88.2684791 62.2419704,88.5672049 C61.7944913,88.4722359 61.3811524,88.68805 60.9450534,88.7212418 C60.6051427,88.7471178 60.2350208,88.763375 59.924373,88.8634922 C59.5090019,88.997343 59.0853668,89.0221352 58.6708085,89.0904154 C58.289442,89.1532765 57.9151203,89.3413179 57.5109938,89.2444522 C56.7780656,89.5408749 55.9852568,89.589511 55.2240141,89.7617017 C54.5000274,89.9254928 53.7637124,90.0685561 53.0282102,90.196175 C52.7168851,90.2502301 52.4116564,90.3399156 52.1046665,90.4174082 C51.5120921,90.5668388 50.9280527,90.7779113 50.3264013,90.8560813 C49.4570483,90.9689332 48.6448664,91.2787681 47.8016603,91.4772412 C47.2518965,91.6066214 46.7105322,91.7985916 46.1659165,91.9293265 C45.4062994,92.1116779 44.6634815,92.3545874 43.9077933,92.5466931 C43.2295977,92.7191548 42.5676593,93.0006751 41.9490733,93.3731001 C41.4480811,93.6746709 40.9701198,93.9874863 40.5407946,94.3868711 C39.7382315,95.1333469 39.1799326,96.0310145 38.6949266,97.0092907 C38.3273787,97.7503474 38.1343246,98.5304214 38.0649606,99.3140178 C37.9978997,100.072416 37.9626758,100.850457 38.1489561,101.631073 C38.3113925,102.311978 38.4959115,102.976355 38.7898957,103.604154 C39.1295354,104.329495 39.5717308,104.992517 40.1714855,105.538488 C40.500829,105.838298 40.7941357,106.187556 41.1554517,106.440355 C41.7568321,106.86101 42.3729795,107.274484 43.0845023,107.498834 C43.5846817,107.656528 44.0893319,107.906483 44.5956078,107.915695 C45.5450274,107.9329 46.5036595,108.06079 47.4536211,107.813817 C48.0849418,107.649619 48.7101661,107.472145 49.3345775,107.284374 C50.0398684,107.072353 50.7561329,106.894337 51.4730749,106.72445 C52.0893577,106.578541 52.7022536,106.409873 53.3117626,106.247843 C53.9424059,106.080123 54.5848357,105.959955 55.2135824,105.783023 C55.7255483,105.638876 56.2371078,105.431732 56.7914778,105.501367 C57.2878639,105.230956 57.8690583,105.281624 58.3810242,105.087216 C58.7447787,104.949165 59.1570339,105.073532 59.468359,104.935211 C59.991163,104.703004 60.5463459,104.695824 61.0775494,104.580533 C61.6160687,104.463617 62.1720645,104.378267 62.7219638,104.293458 C63.3162994,104.201741 63.916596,104.155272 64.505919,104.018035 C64.7394806,103.963708 65.0306197,104.06071 65.2243512,103.956528 C65.4531711,103.83338 65.661805,103.875784 65.8698969,103.88608 C66.1217478,103.898544 66.3370201,103.744372 66.5587952,103.752907 C67.1368736,103.77499 67.6840634,103.507288 68.2643095,103.602799 C68.3279835,103.613231 68.4234944,103.623662 68.4579055,103.588574 C68.6875382,103.354741 68.9710907,103.518262 69.2238899,103.469896 C69.4754699,103.421802 69.7265079,103.362735 69.9806619,103.337265 C70.4582168,103.289171 70.9322492,103.354199 71.4206422,103.222516 C71.8715081,103.100994 72.3688425,103.167106 72.8515455,103.083788 C73.5191739,102.968633 74.2079367,103.082975 74.8954802,102.948583 C75.558367,102.819067 76.2513295,102.945873 76.939144,102.815003 C77.5273832,102.703099 78.1538267,102.791836 78.7633357,102.791836 C79.3728447,102.791836 79.9854697,102.753496 80.5910499,102.802674 C81.1967655,102.851852 81.7673928,102.636309 82.3644379,102.654057 C83.5201884,102.688468 84.6744486,102.627368 85.8325022,102.771921 C86.6549803,102.874612 87.5008959,102.777205 88.3357024,102.796036 C89.1531679,102.814461 89.9686012,102.740897 90.7893182,102.909024 C91.3847376,103.030952 92.00942,102.921758 92.6300381,103.040165 C93.338174,103.17537 94.0792307,103.00467 94.808501,103.181738 C95.2669537,103.292964 95.7607657,103.166023 96.2430622,103.31884 C96.6738776,103.4554 97.1407298,103.27901 97.6140849,103.44104 C98.0270174,103.582342 98.5156813,103.464884 98.9749469,103.588032 C99.3438495,103.68693 99.7481115,103.575704 100.139639,103.723644 C100.376723,103.813194 100.723543,103.649945 100.933938,103.762797 C101.20191,103.906537 101.448478,103.857766 101.702903,103.869552 C101.964643,103.881745 102.209043,103.934987 102.462655,103.996765 C102.750543,104.066942 103.052927,104.023996 103.357884,104.126822 C103.65241,104.226127 103.990424,104.191038 104.315703,104.259318 C104.900827,104.38206 105.506813,104.411188 106.096814,104.544767 C106.344736,104.600855 106.598619,104.565495 106.859276,104.668728 C107.104217,104.76573 107.401724,104.684986 107.682567,104.808405 C107.948372,104.925321 108.270535,104.914076 108.56777,104.959326 C108.865141,105.004439 109.175112,105.011484 109.456497,105.104827 C109.776086,105.210906 110.111526,105.167689 110.414722,105.248568 C110.828061,105.358846 111.234491,105.452731 111.659345,105.51776 C112.162776,105.594846 112.644124,105.810931 113.170044,105.788984 C113.200527,105.787765 113.228299,105.864715 113.266639,105.877721 C113.445197,105.938144 113.627684,106.036771 113.807732,106.034332 C114.377547,106.026881 114.879352,106.391313 115.456482,106.314091 C115.598597,106.594257 115.909109,106.354057 116.114356,106.53844 C116.298333,106.703586 116.608439,106.518525 116.85731,106.705076 C117.026113,106.831476 117.30804,106.799097 117.53388,106.858707 C117.901427,106.955708 118.266943,107.057316 118.637065,107.145104 C119.026696,107.237499 119.4231,107.324611 119.803925,107.433398 C120.752667,107.704352 121.700596,107.977066 122.651235,108.243142 C123.495525,108.479413 124.334531,108.750637 125.167712,109.030938 C125.467386,109.131732 125.756222,109.242417 126.069986,109.311916 C126.390117,109.382771 126.707132,109.517976 127.018186,109.63286 C127.490051,109.807083 127.966251,109.959901 128.441503,110.121389 C128.934096,110.288702 129.421947,110.477692 129.913591,110.653134 C130.502779,110.863529 131.097114,111.069454 131.662323,111.334717 C132.400534,111.68113 133.222064,111.823652 133.914485,112.275195 C135.421526,112.723893 136.792413,113.501529 138.248109,114.076085 C138.925762,114.343651 139.510615,114.826218 140.241917,114.984726 C140.831782,115.480435 141.581238,115.680669 142.241822,116.049436 C143.540636,116.774371 144.863835,117.458121 146.16292,118.185224 C146.714174,118.493704 147.272337,118.805842 147.783355,119.163907 C148.347208,119.558956 148.948182,119.878274 149.577471,120.071735 C150.115584,120.237152 150.663586,120.510814 151.272689,120.411239 C151.411688,120.388479 151.564641,120.470984 151.712852,120.480468 C151.969851,120.496996 152.246088,120.551999 152.479243,120.479113 C152.630841,120.431696 152.775395,120.395659 152.919677,120.409071 C153.474318,120.460959 153.985065,120.281182 154.500553,120.131345 C155.752492,119.767455 156.856219,119.133018 157.757138,118.194436 C158.393878,117.531143 158.913024,116.776132 159.295881,115.923849 C159.685105,115.057477 159.974212,114.179589 159.965,113.220686 C159.963645,113.062991 159.965,112.905025 159.965,112.671735 Z M174.054561,80.2608667 C174.010125,79.799569 174.159149,79.259695 173.919084,78.7532836 C173.925994,77.8317721 173.516719,77.0347636 173.157435,76.2239364 C172.84462,75.5179681 172.384406,74.9108977 171.928798,74.2893313 C171.293955,73.4233652 170.473645,72.8138562 169.593183,72.2459384 C168.511673,71.5483697 167.37787,70.9379124 166.259647,70.3084883 C165.314427,69.7764719 164.338996,69.2840146 163.365461,68.7983312 C162.65719,68.4448729 161.932119,68.1139037 161.219242,67.7718254 C159.862986,67.120996 158.489389,66.5102677 157.12514,65.8782696 C156.992238,65.8167633 156.873018,65.7181363 156.73551,65.6751903 C155.955029,65.430926 155.223998,65.073268 154.481586,64.7375571 C153.893212,64.4714811 153.273406,64.275853 152.66891,64.0451364 C152.084058,63.8220065 151.502051,63.59129 150.916927,63.3689729 C150.078057,63.0501966 149.241624,62.7239691 148.395844,62.4241595 C147.823727,62.2213511 147.235081,62.0659595 146.658222,61.8760214 C146.082718,61.6864897 145.514393,61.4755527 144.939837,61.282905 C144.363385,61.08958 143.791132,60.8901585 143.197609,60.7411343 C142.387595,60.537784 141.604134,60.2302522 140.804145,59.9843623 C140.241917,59.8114942 139.660994,59.6955263 139.106488,59.5020658 C138.431273,59.266472 137.732214,59.1158221 137.047786,58.9208714 C136.422291,58.7427197 135.793274,58.5571168 135.156805,58.4103957 C134.948035,58.3623015 134.718132,58.3808618 134.522097,58.3058078 C133.549917,57.9335183 132.513386,57.8226984 131.519395,57.5426684 C131.357636,57.4971483 131.197367,57.443635 131.033169,57.4096304 C130.866669,57.3750839 130.703826,57.3828061 130.527436,57.325364 C130.045681,57.1684822 129.534392,57.1020987 129.034484,57.0010332 C128.742532,56.9419654 128.444213,56.9059286 128.159305,56.8228815 C127.672403,56.6809021 127.173713,56.5652051 126.681256,56.4803968 C126.111577,56.3823118 125.528622,56.2861234 124.976826,56.15295 C124.377884,56.0085319 123.755505,55.9948488 123.169704,55.7890599 C122.910944,55.6981552 122.623327,55.6580541 122.347903,55.6537189 C121.952583,55.6474869 121.589099,55.4136544 121.184973,55.5103847 C120.612042,55.2611078 119.981263,55.2116589 119.384896,55.1361984 C118.655219,55.0439389 117.935432,54.8786575 117.200878,54.8064485 C116.861916,54.7731213 116.497755,54.7706827 116.177895,54.673546 C115.964384,54.6087882 115.763066,54.5835896 115.549825,54.5579845 C115.318025,54.5300764 115.091508,54.4604414 114.859979,54.4296882 C114.641997,54.4006962 114.38405,54.4646412 114.209285,54.3684528 C113.983039,54.2439499 113.773863,54.30085 113.561707,54.2988179 C113.3379,54.2966503 113.142949,54.203036 112.938244,54.1697087 C112.399318,54.0821909 111.849148,54.064037 111.303177,54.0209555 C111.213492,54.0139107 111.091563,54.0576696 111.037779,54.0133688 C110.823726,53.8372493 110.575668,53.8629898 110.34441,53.8927947 C110.066818,53.9285605 109.842876,53.76355 109.586554,53.7516281 C109.195027,53.7333388 108.804719,53.6726453 108.42132,53.6422985 C107.719687,53.5866177 107.025099,53.3850285 106.31195,53.4764752 C106.223078,53.4878552 106.10562,53.5144086 106.045604,53.471869 C105.763948,53.2717701 105.447204,53.3260962 105.149833,53.3522432 C104.831056,53.3802869 104.555903,53.2323465 104.2565,53.2105347 C103.68777,53.1692144 103.122155,53.2308562 102.546651,53.0929411 C102.068012,52.9781925 101.55144,53.0314347 101.046654,52.9589548 C100.218893,52.8401419 99.372706,52.9718251 98.5286871,52.8199559 C97.7961654,52.6881372 97.0370903,52.8267297 96.2808602,52.6897629 C95.6250182,52.5710854 94.9300235,52.6827181 94.2534536,52.6600935 C93.5714646,52.6373335 92.8911014,52.5401968 92.2095189,52.535726 C89.7712119,52.5198753 87.332363,52.5087662 84.8941916,52.5353196 C82.4743094,52.5616021 80.0515823,52.4114941 77.6342742,52.6596871 C76.7763012,52.7477468 75.9153477,52.6335401 75.0447754,52.7722681 C74.1789447,52.9101832 73.2778902,52.7692876 72.3941767,52.9253566 C71.8132532,53.0279124 71.2098407,52.850709 70.6179436,53.055956 C70.355932,53.1468608 70.0297044,53.1094692 69.7443908,53.0612396 C69.4177568,53.0059652 69.1581838,53.2082316 68.8505165,53.212025 C68.3478985,53.2181214 67.8516479,53.1950904 67.3433399,53.3208127 C66.8651077,53.4392192 66.348942,53.3347667 65.8418533,53.4571021 C65.4065671,53.5620964 64.9370054,53.5045189 64.4767916,53.5943398 C63.8554961,53.7155913 63.2083246,53.7039403 62.5722622,53.7481057 C62.5047949,53.7528474 62.4049487,53.7197911 62.374331,53.7535248 C62.1926569,53.9540301 61.9588244,53.8543193 61.7481584,53.8864273 C61.5170354,53.9217866 61.2892993,53.9792287 61.0587182,54.0185169 C60.7179947,54.0765009 60.3803871,53.9645972 60.019884,54.1304205 C59.7290158,54.2642714 59.343856,54.2133322 58.9997456,54.2641359 C58.4041907,54.3520602 57.8049779,54.4078765 57.2186354,54.5590683 C56.949037,54.6285678 56.6761873,54.5005425 56.3803065,54.6715139 C56.1478287,54.8057711 55.7762165,54.6327676 55.5026894,54.83246 C54.794418,54.7469743 54.1449434,55.0851238 53.4481875,55.1198058 C53.1329336,55.1355211 52.777985,55.1627518 52.4963292,55.2638173 C51.9698674,55.4526717 51.411433,55.4373628 50.888629,55.6305524 C50.5526472,55.7546489 50.1627457,55.728231 49.7992621,55.7841828 C49.6342516,55.8095169 49.4768279,55.8810485 49.3124948,55.9135629 C49.1461296,55.9463482 48.982203,55.9692437 48.8151604,56.0153058 C48.1198947,56.207276 47.4011916,56.3133542 46.6930557,56.4603462 C46.3993426,56.5213107 46.0842241,56.5404129 45.8142193,56.6307757 C45.2139227,56.831552 44.5945239,56.9563259 43.9874535,57.1151044 C43.3965048,57.2696832 42.7924149,57.3994697 42.1999759,57.5541839 C41.5929055,57.7126915 40.9812289,57.8630704 40.379442,58.0530086 C39.8644957,58.2155804 39.3219121,58.342251 38.8001919,58.5025198 C38.2828069,58.6614338 37.7617641,58.8150642 37.2502047,59.0064925 C36.2833085,59.3682149 35.3894342,59.8450924 34.6248046,60.5051341 C33.602634,61.3874929 32.7766335,62.4287657 32.1867686,63.6846333 C31.6302309,64.8696467 31.2900493,66.0740332 31.2710826,67.3671569 C31.2617347,68.0026774 31.1771973,68.6445653 31.3866441,69.2788665 C31.4996315,69.6210803 31.4400218,70.0220909 31.5618153,70.359292 C32.0997926,71.8488567 32.7779882,73.2651285 33.9485056,74.3810489 C34.2171556,74.637235 34.5221134,74.8549459 34.798621,75.1035453 C35.2787499,75.5353091 35.8156435,75.8783357 36.3965669,76.1537596 C36.6224063,76.260786 36.8594903,76.3443751 37.0892585,76.4435439 C37.8537527,76.7734293 38.6438519,76.997372 39.4790649,77.0545431 C39.6908147,77.0690391 39.8929457,77.0514272 40.1205463,77.1352872 C40.4131757,77.2431265 40.7937293,77.2271403 41.0997708,77.1381322 C41.2710132,77.0884123 41.4335851,77.0691746 41.6025243,77.0521046 C41.9024694,77.0218933 42.2235488,77.1342034 42.4946374,76.9154087 C43.1755426,76.9445362 43.7560596,76.5723821 44.3969991,76.4329767 C45.0915874,76.2819204 45.7546096,75.9780465 46.4513655,75.8466342 C47.2865785,75.689075 48.0745101,75.3297912 48.9334314,75.2896901 C49.0769011,75.010202 49.3834845,75.2420024 49.5940151,75.0713019 C49.7575353,74.9385349 50.028082,74.9230906 50.256089,74.888544 C50.4675679,74.8564361 50.672273,74.8901698 50.8851066,74.7621444 C51.07369,74.6487506 51.3358371,74.6575565 51.5654699,74.6123074 C51.7951026,74.5671937 52.032593,74.5452465 52.2526069,74.4714117 C52.5898081,74.3581534 52.979845,74.4383555 53.2699003,74.3129042 C53.7937882,74.0862519 54.3491065,74.0954643 54.8800391,73.9544332 C55.5762531,73.7695077 56.302001,73.6608555 57.0136593,73.5574869 C57.7392718,73.4520862 58.4544525,73.2238082 59.2002509,73.2563226 C59.2646022,73.2591676 59.3341017,73.2556452 59.3939823,73.2346463 C59.8433581,73.0765452 60.3022171,72.9769699 60.7813977,72.9864533 C60.8942497,72.9886209 61.0518089,73.0348184 61.1123669,72.9784602 C61.3701788,72.7385312 61.7210631,72.9752087 61.9321355,72.8329583 C62.2200232,72.6389559 62.4943632,72.7621041 62.7693806,72.7187516 C62.879523,72.7014106 63.0261087,72.7610203 63.102111,72.708049 C63.4269838,72.4820741 63.821356,72.6946368 64.1214366,72.5499478 C64.4759787,72.3791119 64.8190053,72.4920993 65.1629803,72.4467147 C65.2517174,72.4350637 65.3781171,72.4831579 65.427566,72.4381797 C65.6181815,72.2649052 65.8411759,72.3307468 66.054416,72.3054127 C66.2862164,72.2779109 66.5124622,72.1985217 66.7442626,72.1782002 C67.2227658,72.1364734 67.7167133,72.2616537 68.1780109,72.0383884 C68.9559173,72.1027397 69.7121474,71.8002206 70.4928988,71.9008797 C70.6039895,71.9152402 70.748543,71.9474836 70.8260356,71.8950542 C71.1332964,71.6869622 71.4745618,71.7453526 71.7898158,71.7805765 C72.1574991,71.8217614 72.4696371,71.6422549 72.8187602,71.6268106 C73.5907056,71.5926705 74.3575028,71.6575638 75.1382542,71.5238484 C75.9805119,71.3795659 76.8554195,71.4760252 77.7216565,71.3844431 C79.1381994,71.234606 80.5705929,71.4380918 82.0012253,71.2486956 C82.9331685,71.1254119 83.894781,71.2253936 84.8429814,71.2253936 C85.7911818,71.2253936 86.740195,71.2043947 87.687718,71.2313546 C88.6176291,71.257908 89.5433404,71.2270193 90.4800252,71.3307944 C91.9388367,71.4924179 93.422305,71.2652237 94.892632,71.485644 C95.6546876,71.5998508 96.4296134,71.4653226 97.2105003,71.6045925 C98.0066959,71.7465719 98.8391994,71.6728726 99.6581551,71.7365466 C100.605001,71.8101104 101.553066,72.0065514 102.512375,71.9033183 C102.557082,71.8985766 102.615337,71.8843515 102.645819,71.9054859 C102.923411,72.0979981 103.239342,72.0545101 103.539423,72.0308017 C103.855083,72.0057385 104.134978,72.1397248 104.432755,72.1666847 C104.911123,72.2099017 105.385833,72.185245 105.870568,72.2882071 C106.488341,72.4193484 107.138222,72.3998398 107.77442,72.4438697 C107.841887,72.4484759 107.936585,72.4154196 107.973164,72.4491533 C108.202526,72.6607676 108.479304,72.5481866 108.734,72.5819203 C109.009966,72.6183635 109.282545,72.6825794 109.558917,72.7127906 C110.058419,72.7673877 110.578784,72.739344 111.05363,72.8746851 C111.361432,72.9623384 111.652165,72.9578677 111.952246,72.9890273 C112.273461,73.0223546 112.595624,73.0609654 112.911555,73.1258586 C113.29685,73.204977 113.714389,73.17883 114.067577,73.2839598 C114.752275,73.487852 115.457972,73.5180633 116.147277,73.6356569 C116.824118,73.7510829 117.498385,73.9533494 118.19785,73.9346537 C118.485467,74.1554804 118.848544,73.9846445 119.143341,74.1050832 C119.705569,74.3348514 120.309659,74.3330902 120.887195,74.4718182 C121.243092,74.5573039 121.623781,74.565297 121.971143,74.646312 C122.54868,74.7809757 123.118765,74.9396187 123.708765,75.0240206 C124.020361,75.0685924 124.32288,75.1749415 124.63109,75.2462021 C125.290996,75.3986133 125.946702,75.5794745 126.613924,75.6867719 C127.307564,75.7982691 127.973025,76.0128639 128.655285,76.1632429 C129.47817,76.344646 130.293738,76.5620859 131.10714,76.78359 C131.593636,76.9160861 132.090293,77.0010299 132.569609,77.1749818 C133.020881,77.3386375 133.493288,77.4728947 133.959057,77.5743667 C134.723822,77.7410028 135.47233,77.9705001 136.21596,78.1913269 C137.177573,78.4769114 138.138779,78.7749599 139.094837,79.0841173 C139.811102,79.3157822 140.544165,79.5114104 141.232928,79.8085105 C142.156607,80.2068115 143.133393,80.4510757 144.05355,80.8484285 C144.724701,81.1383483 145.431075,81.3379052 146.088814,81.6583073 C146.708755,81.9602845 147.370422,82.1586222 148.001066,82.4408198 C148.607323,82.7123148 149.221709,82.9821841 149.840024,83.231461 C150.480015,83.4895438 151.108491,83.7702512 151.730058,84.0646418 C152.957882,84.6461071 154.176358,85.247894 155.389279,85.8598415 C156.342899,86.3410543 157.29137,86.8339179 158.225074,87.3523867 C158.90747,87.7311791 159.559925,88.1637558 160.230534,88.5642245 C160.46396,88.7036298 160.703618,88.8392419 160.955469,88.9386816 C161.188759,89.0308057 161.450636,89.0505853 161.684333,89.1421674 C161.940383,89.2425555 162.196705,89.3226222 162.463052,89.3925281 C162.716664,89.4590471 162.96147,89.5063284 163.22294,89.5212308 C163.499447,89.5369461 163.774465,89.6506109 164.04745,89.641263 C164.751793,89.6170127 165.458032,89.7383997 166.16251,89.5257015 C166.784889,89.337931 167.422577,89.2394396 168.044415,88.9984268 C169.177812,88.5590763 170.127367,87.9965777 170.677131,87.5172617 C172.00304,86.3612403 173.02223,85.0612073 173.638242,83.1984047 C173.907975,82.3829714 174.104281,81.5374622 174.055509,80.660658 C174.049142,80.5490253 174.054561,80.4357669 174.054561,80.2608667 Z M80.564361,132.326131 C81.0836426,132.326131 81.6057692,132.292533 82.1215285,132.335343 C82.658693,132.38005 83.1583305,132.166133 83.6896696,132.184829 C84.3662394,132.208537 85.0467382,132.227639 85.720734,132.180223 C86.4145094,132.131451 87.0796993,132.316783 87.7648042,132.335479 C89.1686122,132.373548 90.5760781,132.197428 91.9782604,132.449956 C92.5352045,132.550209 93.1097605,132.475697 93.6855359,132.570124 C94.4409531,132.69395 95.2231947,132.612935 95.9986625,132.707768 C96.6931153,132.792712 97.3936646,132.969915 98.1070841,132.86885 C98.1513849,132.862618 98.2195296,132.848664 98.2390382,132.871017 C98.4373759,133.09916 98.6999295,132.966664 98.9311879,133.005004 C99.1619045,133.043344 99.3889632,133.111488 99.6207636,133.135468 C100.165379,133.19169 100.725304,133.171775 101.25285,133.294788 C101.601566,133.376074 101.965456,133.321477 102.279491,133.426878 C102.979905,133.662065 103.720419,133.610584 104.421511,133.810276 C104.70845,133.891969 105.013408,133.931663 105.312269,133.944805 C105.617904,133.958217 105.879509,134.167528 106.20655,134.098841 C106.330917,134.072694 106.479806,134.196791 106.622734,134.219009 C106.986082,134.275503 107.393731,134.229576 107.704785,134.383884 C107.966526,134.513671 108.216344,134.436855 108.459118,134.529928 C109.112522,134.780289 109.809819,134.879457 110.489505,135.013037 C110.990769,135.111664 111.475368,135.272746 111.976225,135.372727 C112.711727,135.519449 113.430159,135.805711 114.161462,135.959747 C115.40324,136.221353 116.577009,136.696604 117.807136,136.985034 C118.355003,137.113466 118.8816,137.331989 119.419984,137.502825 C119.958503,137.673661 120.446896,137.99745 121.030258,138.030642 C121.830654,138.496546 122.730354,138.730649 123.58372,139.059315 C125.025597,139.614769 126.446746,140.216827 127.86925,140.815633 C128.811354,141.212173 129.695203,141.738229 130.652074,142.110789 C130.9424,142.223777 131.17542,142.563145 131.459108,142.597556 C131.999795,142.662992 132.317758,143.156668 132.841104,143.203001 C133.403467,143.660235 134.094669,143.888106 134.710545,144.251725 C135.742063,144.860557 136.837256,145.372116 137.822306,146.046518 C138.898125,146.782969 140.082461,146.986726 141.321801,147.09741 C141.637596,147.125589 141.92142,146.962069 142.214049,146.970604 C142.70881,146.984965 143.135154,146.778092 143.562176,146.61281 C144.763311,146.147855 145.738878,145.363717 146.438073,144.28004 C146.753462,143.791105 147.042298,143.260443 147.212863,142.708376 C147.449947,141.940766 147.58583,141.135629 147.497228,140.320331 C147.458211,139.960234 147.412691,139.592416 147.301465,139.250473 C147.127513,138.715882 146.939878,138.176821 146.678272,137.681654 C146.178499,136.735486 145.407231,136.018815 144.516744,135.448323 C143.558112,134.834208 142.574146,134.255181 141.583541,133.697018 C140.544165,133.111217 139.485551,132.554002 138.427751,131.999361 C136.873157,131.184199 135.301358,130.401009 133.691084,129.699918 C133.457522,129.598175 133.245095,129.445086 133.019662,129.360143 C132.276709,129.080113 131.576024,128.70281 130.824265,128.444186 C130.331943,128.27484 129.858994,128.049949 129.374801,127.856353 C128.890337,127.662621 128.3865,127.496798 127.921409,127.279629 C126.932972,126.818196 125.89346,126.499826 124.881044,126.115479 C123.356797,125.536859 121.784185,125.081793 120.219973,124.614535 C119.697305,124.45833 119.149573,124.34304 118.638555,124.172881 C117.580619,123.820777 116.492336,123.588706 115.427897,123.266949 C114.887074,123.103565 114.326201,122.951695 113.769528,122.863365 C113.176683,122.769344 112.619468,122.56342 112.040983,122.456122 C111.558686,122.366708 111.070022,122.308588 110.599648,122.163222 C110.127106,122.017178 109.621643,122.059718 109.152758,121.895927 C108.994386,121.840652 108.829782,121.766411 108.667481,121.765327 C107.9691,121.760992 107.311903,121.467821 106.612302,121.487871 C106.337014,121.297391 105.973395,121.454273 105.73333,121.327467 C105.461022,121.183591 105.18885,121.316358 104.970191,121.203777 C104.714411,121.071958 104.463779,121.105015 104.207187,121.0767 C104.019958,121.056108 103.839774,120.972383 103.652546,120.951113 C103.451905,120.928353 103.209266,121.014652 103.052656,120.929166 C102.839145,120.812656 102.635523,120.833384 102.42269,120.806831 C102.191025,120.777839 101.964372,120.709152 101.732978,120.677586 C101.368547,120.628002 101.008856,120.700346 100.62898,120.564734 C100.279044,120.439825 99.863673,120.51095 99.4702491,120.4256 C99.0086805,120.325618 98.5189328,120.393085 98.0369072,120.286465 C97.6190975,120.19407 97.1758183,120.229836 96.7385,120.155459 C96.1377969,120.053446 95.516366,120.130938 94.8984574,120.016054 C94.2546729,119.896428 93.5867735,120.030415 92.9210417,119.884642 C92.4039277,119.771519 91.8389905,119.824761 91.3012841,119.872313 C90.7398692,119.921898 90.2163879,119.708793 89.6629661,119.721393 C88.8053996,119.740901 87.9471556,119.726541 87.0891826,119.726541 C85.8022909,119.726541 84.5147217,119.70229 83.2285074,119.73345 C81.9601759,119.764203 80.6900832,119.621546 79.420668,119.845083 C78.85126,119.945335 78.2486603,119.882068 77.6628597,119.856463 C77.0635115,119.830316 76.4955938,120.060084 75.8887943,120.011854 C75.4612303,119.97785 75.0256732,119.948316 74.5836132,120.111971 C74.2858357,120.222249 73.9128688,120.115358 73.5756677,120.137847 C73.2316927,120.160878 72.8915111,120.241081 72.5474006,120.264789 C71.7314254,120.321012 70.9142308,120.35881 70.0975782,120.403517 C70.0526,120.405956 69.9878422,120.384279 69.9650821,120.406904 C69.7189212,120.650897 69.4126087,120.495235 69.1377268,120.539535 C68.8627094,120.583836 68.5894532,120.641956 68.3129456,120.671625 C67.9689706,120.708475 67.6309566,120.662413 67.2781757,120.789625 C66.9451743,120.909793 66.5586597,120.805747 66.1831187,120.922663 C65.8239704,121.034567 65.4142893,120.955719 65.0224911,121.064236 C64.6978893,121.154193 64.3432117,121.09675 63.9938177,121.196461 C63.6502491,121.294682 63.2682053,121.219086 62.8986252,121.33397 C62.6432519,121.413359 62.3529257,121.398186 62.0757407,121.472427 C61.790969,121.5487 61.4795084,121.557506 61.1841695,121.596523 C60.5860405,121.675777 59.9915694,121.751915 59.401569,121.886172 C59.1536469,121.942666 58.8996284,121.900804 58.6385651,122.010269 C58.3957911,122.112012 58.0710538,121.96231 57.8221834,122.164848 C57.0250394,122.197497 56.2551261,122.381339 55.4827743,122.564639 C55.1270129,122.649041 54.7372469,122.609888 54.3936783,122.721385 C54.0486196,122.833289 53.6874391,122.892628 53.3454963,122.954134 C52.4013602,123.124022 51.4654882,123.328591 50.5254164,123.516091 C50.0013931,123.620679 49.4535259,123.679204 48.9541593,123.822268 C48.2847697,124.014238 47.5988519,124.131967 46.928243,124.309577 C46.2423252,124.491386 45.6166945,124.76803 45.0355001,125.139371 C44.5173023,125.470475 44.0129231,125.816076 43.6377885,126.353241 C43.3070903,126.826596 43.0208283,127.313769 42.73416,127.811104 C42.4378727,128.325102 42.3166212,128.898303 42.2671723,129.438448 C42.1913054,130.267023 42.1176062,131.127028 42.3741988,131.952486 C42.5104882,132.39116 42.5916386,132.878875 42.8441669,133.242765 C43.3546426,133.978132 43.736551,134.836918 44.5876146,135.295235 C44.8680511,135.446291 45.1021546,135.681885 45.3787977,135.842018 C45.6301067,135.987385 45.9433285,136.039137 46.1694388,136.210921 C46.4443208,136.41969 46.7934438,136.312122 47.0691386,136.511408 C47.188358,136.597706 47.4468472,136.473203 47.5916717,136.545548 C48.1101404,136.804037 48.6695231,136.710017 49.1650963,136.62846 C49.7636317,136.530104 50.3843853,136.445973 50.9617864,136.241674 C51.2676924,136.133428 51.5832173,136.126654 51.8898007,136.035208 C52.5162443,135.848386 53.1659898,135.688523 53.8054391,135.608321 C54.4275475,135.530287 55.0096902,135.214897 55.6536103,135.306073 C56.2967174,135.055848 56.9877833,135.034984 57.6479606,134.879457 C57.9512926,134.808061 58.2855132,134.862116 58.5339772,134.741678 C58.8580371,134.58466 59.2026895,134.584796 59.5221432,134.523289 C59.8753305,134.45528 60.248162,134.413689 60.6112391,134.355028 C60.7981968,134.324816 60.9785161,134.248543 61.1657447,134.227273 C61.3663854,134.204513 61.5868058,134.270761 61.7718668,134.212913 C62.2903355,134.050883 62.8180167,133.978403 63.3558586,133.951714 C63.4234614,133.948327 63.5224947,133.980299 63.5540608,133.946566 C63.7790873,133.705824 64.0910898,133.915542 64.3089361,133.802554 C64.5867985,133.658543 64.8596483,133.689838 65.1402202,133.680625 C65.2522593,133.676967 65.4171343,133.722352 65.4667187,133.665723 C65.6367418,133.471043 65.8448338,133.579153 66.0320624,133.543523 C66.2401544,133.503964 66.444453,133.433923 66.6538997,133.413737 C67.0649356,133.374042 67.4713652,133.377835 67.8890394,133.298717 C68.6738551,133.150099 69.4826501,133.091302 70.2802006,133.026816 C71.0036453,132.968425 71.7223484,132.774016 72.4574442,132.866682 C72.5018805,132.872372 72.5623031,132.886326 72.5906177,132.864515 C72.8656351,132.652087 73.1852242,132.763178 73.4847629,132.729851 C73.8058423,132.694085 74.1236703,132.624586 74.4451562,132.600064 C75.1257904,132.548041 75.8203786,132.704381 76.488549,132.461065 C77.447723,132.563621 78.3880657,132.282372 79.345072,132.322744 C79.7508243,132.340356 80.1579314,132.326131 80.564361,132.326131 Z M80.564361,132.326131" id="Spotify" fill="#009BCD"></path>
    </g>
</svg>