<?xml version="1.0" encoding="UTF-8" standalone="no"?>
<svg width="1000px" height="1000px" viewBox="0 0 1000 1000" version="1.1" xmlns="http://www.w3.org/2000/svg" xmlns:xlink="http://www.w3.org/1999/xlink" xmlns:sketch="http://www.bohemiancoding.com/sketch/ns">
    <title>Tumblr</title>
    <description>Created with Sketch (http://www.bohemiancoding.com/sketch)</description>
    <defs></defs>
    <g id="Page 1" fill="#D8D8D8" fill-rule="evenodd">
        <g id="Circle_1_" fill="#000000">
            <path d="M500,0 C223.85762,0 0,223.85763 0,500 C0,776.14237 223.85762,1000 500,1000 C776.14238,1000 1000,776.14237 1000,500 C1000,223.85763 776.14238,-1.1368684e-13 500,0 L500,0 Z M418.53125,119.0625 L472,120 L525.46875,120.9375 L526.375,217.65625 L527.28125,314.375 L616.21875,314.375 L705.1875,314.375 L705.1875,372.0625 L705.1875,429.78125 L616.09375,431.5 C567.09103,432.44239 526.56751,433.82619 526.03125,434.5625 C525.49494,435.2988 525.91363,497.52912 526.96875,572.84375 C529.11361,725.93134 528.55341,722.64654 554.46875,740.46875 C574.55894,754.28487 585.65516,757.09538 619.59375,757.03125 C654.46678,756.96555 681.84457,749.93685 711.6875,733.40625 C719.97602,728.81507 727.64865,725.9299 728.71875,727 C729.78882,728.07004 731.21726,753.91084 731.90625,784.40625 L733.15625,839.84375 L718.3125,846.15625 C686.33226,859.74013 654.42202,869.91192 629.875,874.34375 C596.97539,880.28352 514.85137,880.08276 486.84375,874 C437.94349,863.37999 385.02077,827.32943 365.53125,791.34375 C360.60639,782.25049 354.89013,765.57844 352.8125,754.28125 C350.69681,742.77717 348.05091,667.85249 346.8125,583.96875 L344.625,434.1875 L304.09375,434.1875 L263.5625,434.1875 L263.6875,380.25 L263.78125,326.34375 L293.625,312.0625 C329.37928,294.95191 356.70402,271.45519 377.90625,239.5625 C394.43044,214.70654 412.23969,167.02076 416.15625,137.125 L418.53125,119.0625 L418.53125,119.0625 Z M418.53125,119.0625" id="path2983" fill="#009BCD"></path>
        </g>
    </g>
</svg>