<?xml version="1.0" encoding="UTF-8" standalone="no"?>
<svg width="201px" height="200px" viewBox="0 0 201 200" version="1.1" xmlns="http://www.w3.org/2000/svg" xmlns:xlink="http://www.w3.org/1999/xlink" xmlns:sketch="http://www.bohemiancoding.com/sketch/ns">
    <title>YouTube</title>
    <description>Created with Sketch (http://www.bohemiancoding.com/sketch)</description>
    <defs></defs>
    <g id="Page 1" stroke="none" stroke-width="1" fill="none" fill-rule="evenodd">
        <path d="M100.5,0 C45.271524,1.5158245e-14 0.5,44.771524 0.5,100 C0.5,155.228476 45.271524,200 100.5,200 C155.728476,200 200.5,155.228476 200.5,100 C200.5,44.771524 155.728476,-2.2737368e-14 100.5,0 L100.5,0 L100.5,0 Z M62.69375,25.95625 C63.29396,25.955744 63.950276,25.978912 64.5875,26.03125 L67.68125,26.2875 L70.425,36.1 C71.934424,41.496062 73.37757,45.701972 73.63125,45.45 C73.88492,45.198036 75.17142,40.78159 76.49375,35.6375 L78.9,26.2875 L82.70625,26.04375 C85.545112,25.86159 86.5125,26.085026 86.5125,26.91875 C86.5125,27.533632 84.530518,34.543142 82.10625,42.5 L77.69375,56.96875 L77.69375,68.275 L77.69375,79.58125 L73.775,79.58125 L69.85625,79.58125 L69.51875,67.3625 L69.18125,55.1375 L64.35,40.8375 C60.901736,30.629396 59.806578,26.427142 60.5125,26.15625 C60.852428,26.02581 61.693402,25.957094 62.69375,25.95625 L62.69375,25.95625 L62.69375,25.95625 Z M114.5625,39.5125 L118.16875,39.5125 L121.775,39.5125 L121.775,56.3375 L121.775,73.16875 L123.65625,73.16875 C127.78884,73.16875 128.1875,71.557936 128.1875,54.875 L128.1875,39.5125 L131.79375,39.5125 L135.4,39.5125 L135.4,59.54375 L135.4,79.58125 L131.79375,79.58125 C128.721676,79.58125 128.1875,79.346614 128.1875,77.98125 C128.1875,75.95247 128.060478,75.965052 124.5,78.38125 C120.933568,80.801496 118.308254,80.927004 116.1625,78.78125 C114.650622,77.269372 114.5625,76.108366 114.5625,58.34375 L114.5625,39.5125 L114.5625,39.5125 Z M97.78125,39.51875 C99.811122,39.524168 101.875088,39.97052 103.40625,40.875 C107.485168,43.284476 108.153326,45.984198 108.15,60.06875 C108.1476,71.252428 107.9587,73.07841 106.58125,75.3375 C103.56966,80.276676 97.243228,81.785296 92.275,78.75625 C88.0674,76.19094 87.3125,73.274706 87.3125,59.53125 C87.3125,46.424642 87.82971,44.31411 91.8125,41.18125 C93.2213,40.073086 95.480728,39.51261 97.78125,39.51875 L97.78125,39.51875 L97.78125,39.51875 Z M97.73125,45.93125 C97.285424,45.93125 96.842066,46.090786 96.33125,46.4125 C95.124958,47.172222 94.891932,48.854844 94.69375,58.43125 C94.4088,72.200128 94.610956,73.16875 97.73125,73.16875 C99.526428,73.16875 100.21267,72.732456 100.55,71.36875 C100.79532,70.377004 100.895484,64.554842 100.76875,58.43125 C100.570568,48.854844 100.337542,47.172222 99.13125,46.4125 C98.620434,46.090786 98.177076,45.93125 97.73125,45.93125 L97.73125,45.93125 L97.73125,45.93125 Z M97.50625,88.74375 C119.479628,88.693202 143.870098,89.624844 148.21875,90.9625 C152.16057,92.175028 155.238778,94.509286 156.75625,97.44375 C161.048432,105.743908 162.105614,140.90753 158.59375,158.56875 C157.699504,163.065956 154.265476,167.857096 150.56875,169.76875 C146.876096,171.678296 105.960906,173.567852 85.3125,172.78125 C68.33535,172.134504 52.467074,170.80199 50.14375,169.83125 C46.32195,168.234398 42.627834,163.334574 41.65625,158.56875 C40.303012,151.930894 39.133578,131.809036 39.65,124.0625 C41.14431,101.647166 42.370248,96.674694 47.25,93.2 C51.06951,90.480276 53.399142,90.166872 77.175,89.14375 C83.130708,88.887466 90.18179,88.7606 97.50625,88.74375 L97.50625,88.74375 L97.50625,88.74375 Z M48.04375,102.01875 L48.04375,106.025 L48.04375,110.0375 L52.45,110.0375 L56.8625,110.0375 L56.8625,133.275 L56.8625,156.51875 L61.26875,156.51875 L65.675,156.51875 L65.675,133.275 L65.675,110.0375 L70.08125,110.0375 L74.49375,110.0375 L74.49375,106.025 L74.49375,102.01875 L61.26875,102.01875 L48.04375,102.01875 L48.04375,102.01875 Z M102.5375,102.01875 L102.5375,129.26875 L102.5375,156.51875 L106.14375,156.51875 C109.197432,156.51875 109.75,156.274238 109.75,154.9375 C109.75,153.44028 109.902464,153.460242 112.66875,155.3375 C116.337434,157.82714 118.674644,157.842664 121.53125,155.3875 L123.775,153.45 L124,137.15625 C124.207212,121.998552 124.11299,120.672128 122.6125,118.25 C120.58242,114.972988 116.32216,114.454884 112.41875,117.0125 L110.55625,118.23125 L110.55625,110.125 L110.55625,102.01875 L106.55,102.01875 L102.5375,102.01875 L102.5375,102.01875 Z M140.65,115.48125 C138.335564,115.477726 136.087726,116.001038 134.68125,117.03125 C130.521494,120.078168 129.79375,122.930012 129.79375,136.08125 C129.79375,149.718286 130.53258,152.288044 135.4,155.56875 C139.286522,158.18833 144.886056,157.709306 148.275,154.4625 C150.862748,151.98328 152.547482,147.589534 152.10625,144.4625 C151.861786,142.729954 151.36949,142.465004 148.01875,142.25 L144.2125,142.00625 L144.2125,145.15625 C144.2125,148.70211 142.789546,150.359638 140.08125,149.96875 C137.994784,149.66762 137.199868,147.526648 137.08125,141.91875 L137,138.14375 L144.4125,137.9125 L151.825,137.68125 L151.7875,130.46875 C151.745266,122.117982 150.461246,118.834424 146.40625,116.7375 C144.788482,115.90092 142.69215,115.48436 140.65,115.48125 L140.65,115.48125 L140.65,115.48125 Z M88.91875,115.55625 L88.91875,131.23125 C88.91875,145.989924 88.818366,146.994132 87.2625,148.55 C86.353844,149.458656 85.000504,150.086802 84.25625,149.94375 C83.04514,149.710964 82.88108,147.89489 82.6875,132.6625 L82.475,115.64375 L78.93125,115.64375 C76.982538,115.64375 75.148244,116.033786 74.85625,116.50625 C74.564256,116.978706 74.588594,125.679654 74.9125,135.84375 C75.438602,152.352916 75.662212,154.480962 77,155.81875 C78.702126,157.520884 81.00845,157.734162 83.5625,156.41875 C84.525266,155.922892 86.120752,154.77831 87.1125,153.875 L88.91875,152.23125 L88.91875,154.375 C88.91875,156.380844 89.149818,156.51875 92.525,156.51875 L96.13125,156.51875 L96.3,140.4875 C96.393244,131.671978 96.48305,122.564074 96.5,120.25 L96.53125,116.04375 L92.725,115.8 L88.91875,115.55625 L88.91875,115.55625 Z M141.18125,122.13125 C141.717182,122.11195 142.122196,122.47844 142.95625,123.3125 C143.721958,124.078208 144.2125,125.96709 144.2125,128.125 L144.2125,131.675 L141.05625,131.675 C139.31916,131.675 137.663658,131.300706 137.38125,130.84375 C136.445746,129.330068 137.893824,123.663208 139.425,122.84375 C140.26739,122.392918 140.764414,122.146262 141.18125,122.13125 L141.18125,122.13125 L141.18125,122.13125 Z M113.70625,122.33125 C114.215718,122.342506 114.662516,122.61252 115.21875,123.16875 C116.201912,124.15192 116.56544,126.676262 116.8125,134.26875 C117.19987,146.172968 116.50421,149.603638 113.64375,149.94375 C112.529556,150.076222 111.276446,149.717 110.85625,149.14375 C110.417694,148.545432 110.218522,142.8909 110.39375,135.86875 C110.67559,124.57399 110.826834,123.570546 112.325,122.76875 C112.876738,122.473468 113.309998,122.322494 113.70625,122.33125 L113.70625,122.33125 L113.70625,122.33125 Z M113.70625,122.33125" id="YouTube" fill="#009BCD"></path>
    </g>
</svg>