<?xml version="1.0" encoding="UTF-8" standalone="no"?>
<!-- Created with Inkscape (http://www.inkscape.org/) -->

<svg
   xmlns:dc="http://purl.org/dc/elements/1.1/"
   xmlns:cc="http://creativecommons.org/ns#"
   xmlns:rdf="http://www.w3.org/1999/02/22-rdf-syntax-ns#"
   xmlns:svg="http://www.w3.org/2000/svg"
   xmlns="http://www.w3.org/2000/svg"
   xmlns:sodipodi="http://sodipodi.sourceforge.net/DTD/sodipodi-0.dtd"
   xmlns:inkscape="http://www.inkscape.org/namespaces/inkscape"
   version="1.1"
   width="1000"
   height="1000"
   id="svg2"
   inkscape:version="0.48.2 r9819"
   sodipodi:docname="YouTube.svg">
  <sodipodi:namedview
     pagecolor="#ffffff"
     bordercolor="#666666"
     borderopacity="1"
     objecttolerance="10"
     gridtolerance="10"
     guidetolerance="10"
     inkscape:pageopacity="0"
     inkscape:pageshadow="2"
     inkscape:window-width="878"
     inkscape:window-height="595"
     id="namedview9"
     showgrid="false"
     inkscape:zoom="0.3337544"
     inkscape:cx="181.03372"
     inkscape:cy="500"
     inkscape:window-x="0"
     inkscape:window-y="0"
     inkscape:window-maximized="0"
     inkscape:current-layer="svg2">
    <inkscape:grid
       type="xygrid"
       id="grid3824" />
  </sodipodi:namedview>
  <defs
     id="defs4">
    <clipPath
       id="clipPath3052">
      <path
         d="m 0.06,162.536 199.94,0 0,-162.476 -199.94,0 0,162.476 z"
         id="path3054" />
    </clipPath>
  </defs>
  <metadata
     id="metadata7">
    <rdf:RDF>
      <cc:Work
         rdf:about="">
        <dc:format>image/svg+xml</dc:format>
        <dc:type
           rdf:resource="http://purl.org/dc/dcmitype/StillImage" />
        <dc:title />
      </cc:Work>
    </rdf:RDF>
  </metadata>
  <path
     style="fill:#009bcd;fill-opacity:1;stroke:none"
     d="M 500 0 C 223.85762 7.5791225e-14 0 223.85762 0 500 C -7.5791225e-14 776.14238 223.85762 1000 500 1000 C 776.14238 1000 1000 776.14238 1000 500 C 1000 223.85762 776.14238 -1.1368684e-13 500 0 z M 310.96875 129.78125 C 313.9698 129.77872 317.25138 129.89456 320.4375 130.15625 L 335.90625 131.4375 L 349.625 180.5 C 357.17212 207.48031 364.38785 228.50986 365.65625 227.25 C 366.9246 225.99018 373.3571 203.90795 379.96875 178.1875 L 392 131.4375 L 411.03125 130.21875 C 425.22556 129.30795 430.0625 130.42513 430.0625 134.59375 C 430.0625 137.66816 420.15259 172.71571 408.03125 212.5 L 385.96875 284.84375 L 385.96875 341.375 L 385.96875 397.90625 L 366.375 397.90625 L 346.78125 397.90625 L 345.09375 336.8125 L 343.40625 275.6875 L 319.25 204.1875 C 302.00868 153.14698 296.53289 132.13571 300.0625 130.78125 C 301.76214 130.12905 305.96701 129.78547 310.96875 129.78125 z M 570.3125 197.5625 L 588.34375 197.5625 L 606.375 197.5625 L 606.375 281.6875 L 606.375 365.84375 L 615.78125 365.84375 C 636.4442 365.84375 638.4375 357.78968 638.4375 274.375 L 638.4375 197.5625 L 656.46875 197.5625 L 674.5 197.5625 L 674.5 297.71875 L 674.5 397.90625 L 656.46875 397.90625 C 641.10838 397.90625 638.4375 396.73307 638.4375 389.90625 C 638.4375 379.76235 637.80239 379.82526 620 391.90625 C 602.16784 404.00748 589.04127 404.63502 578.3125 393.90625 C 570.75311 386.34686 570.3125 380.54183 570.3125 291.71875 L 570.3125 197.5625 z M 486.40625 197.59375 C 496.55561 197.62084 506.87544 199.8526 514.53125 204.375 C 534.92584 216.42238 538.26663 229.92099 538.25 300.34375 C 538.238 356.26214 537.2935 365.39205 530.40625 376.6875 C 515.3483 401.38338 483.71614 408.92648 458.875 393.78125 C 437.837 380.9547 434.0625 366.37353 434.0625 297.65625 C 434.0625 232.12321 436.64855 221.57055 456.5625 205.90625 C 463.6065 200.36543 474.90364 197.56305 486.40625 197.59375 z M 486.15625 229.65625 C 483.92712 229.65625 481.71033 230.45393 479.15625 232.0625 C 473.12479 235.86111 471.95966 244.27422 470.96875 292.15625 C 469.544 361.00064 470.55478 365.84375 486.15625 365.84375 C 495.13214 365.84375 498.56335 363.66228 500.25 356.84375 C 501.4766 351.88502 501.97742 322.77421 501.34375 292.15625 C 500.35284 244.27422 499.18771 235.86111 493.15625 232.0625 C 490.60217 230.45393 488.38538 229.65625 486.15625 229.65625 z M 485.03125 443.71875 C 594.89814 443.46601 716.85049 448.12422 738.59375 454.8125 C 758.30285 460.87514 773.69389 472.54643 781.28125 487.21875 C 802.74216 528.71954 808.02807 704.53765 790.46875 792.84375 C 785.99752 815.32978 768.82738 839.28548 750.34375 848.84375 C 731.88048 858.39148 527.30453 867.83926 424.0625 863.90625 C 339.17675 860.67252 259.83537 854.00995 248.21875 849.15625 C 229.10975 841.17199 210.63917 816.67287 205.78125 792.84375 C 199.01506 759.65447 193.16789 659.04518 195.75 620.3125 C 203.22155 508.23583 209.35124 483.37347 233.75 466 C 252.84755 452.40138 264.49571 450.83436 383.375 445.71875 C 413.15354 444.43733 448.40895 443.803 485.03125 443.71875 z M 237.71875 510.09375 L 237.71875 530.125 L 237.71875 550.1875 L 259.75 550.1875 L 281.8125 550.1875 L 281.8125 666.375 L 281.8125 782.59375 L 303.84375 782.59375 L 325.875 782.59375 L 325.875 666.375 L 325.875 550.1875 L 347.90625 550.1875 L 369.96875 550.1875 L 369.96875 530.125 L 369.96875 510.09375 L 303.84375 510.09375 L 237.71875 510.09375 z M 510.1875 510.09375 L 510.1875 646.34375 L 510.1875 782.59375 L 528.21875 782.59375 C 543.48716 782.59375 546.25 781.37119 546.25 774.6875 C 546.25 767.2014 547.01232 767.30121 560.84375 776.6875 C 579.18717 789.1357 590.87322 789.21332 605.15625 776.9375 L 616.375 767.25 L 617.5 685.78125 C 618.53606 609.99276 618.06495 603.36064 610.5625 591.25 C 600.4121 574.86494 579.1108 572.27442 559.59375 585.0625 L 550.28125 591.15625 L 550.28125 550.625 L 550.28125 510.09375 L 530.25 510.09375 L 510.1875 510.09375 z M 700.75 577.40625 C 689.17782 577.38863 677.93863 580.00519 670.90625 585.15625 C 650.10747 600.39084 646.46875 614.65006 646.46875 680.40625 C 646.46875 748.59143 650.1629 761.44022 674.5 777.84375 C 693.93261 790.94165 721.93028 788.54653 738.875 772.3125 C 751.81374 759.9164 760.23741 737.94767 758.03125 722.3125 C 756.80893 713.64977 754.34745 712.32502 737.59375 711.25 L 718.5625 710.03125 L 718.5625 725.78125 C 718.5625 743.51055 711.44773 751.79819 697.90625 749.84375 C 687.47392 748.3381 683.49934 737.63324 682.90625 709.59375 L 682.5 690.71875 L 719.5625 689.5625 L 756.625 688.40625 L 756.4375 652.34375 C 756.22633 610.58991 749.80623 594.17212 729.53125 583.6875 C 721.44241 579.5046 710.96075 577.4218 700.75 577.40625 z M 442.09375 577.78125 L 442.09375 656.15625 C 442.09375 729.94962 441.59183 734.97066 433.8125 742.75 C 429.26922 747.29328 422.50252 750.43401 418.78125 749.71875 C 412.7257 748.55482 411.9054 739.47445 410.9375 663.3125 L 409.875 578.21875 L 392.15625 578.21875 C 382.41269 578.21875 373.24122 580.16893 371.78125 582.53125 C 370.32128 584.89353 370.44297 628.39827 372.0625 679.21875 C 374.69301 761.76458 375.81106 772.40481 382.5 779.09375 C 391.01063 787.60442 402.54225 788.67081 415.3125 782.09375 C 420.12633 779.61446 428.10376 773.89155 433.0625 769.375 L 442.09375 761.15625 L 442.09375 771.875 C 442.09375 781.90422 443.24909 782.59375 460.125 782.59375 L 478.15625 782.59375 L 479 702.4375 C 479.46622 658.35989 479.91525 612.82037 480 601.25 L 480.15625 580.21875 L 461.125 579 L 442.09375 577.78125 z M 703.40625 610.65625 C 706.08591 610.55975 708.11098 612.3922 712.28125 616.5625 C 716.10979 620.39104 718.5625 629.83545 718.5625 640.625 L 718.5625 658.375 L 702.78125 658.375 C 694.0958 658.375 685.81829 656.50353 684.40625 654.21875 C 679.72873 646.65034 686.96912 618.31604 694.625 614.21875 C 698.83695 611.96459 701.32207 610.73131 703.40625 610.65625 z M 566.03125 611.65625 C 568.57859 611.71253 570.81258 613.0626 573.59375 615.84375 C 578.50956 620.7596 580.3272 633.38131 581.5625 671.34375 C 583.49935 730.86484 580.02105 748.01819 565.71875 749.71875 C 560.14778 750.38111 553.88223 748.585 551.78125 745.71875 C 549.58847 742.72716 548.59261 714.4545 549.46875 679.34375 C 550.87795 622.86995 551.63417 617.85273 559.125 613.84375 C 561.88369 612.36734 564.04999 611.61247 566.03125 611.65625 z "
     id="path2985" />
</svg>
