<?xml version="1.0" encoding="UTF-8" standalone="no"?>
<svg width="200px" height="200px" viewBox="0 0 200 200" version="1.1" xmlns="http://www.w3.org/2000/svg" xmlns:xlink="http://www.w3.org/1999/xlink" xmlns:sketch="http://www.bohemiancoding.com/sketch/ns">
    <title>YouTube</title>
    <description>Created with Sketch (http://www.bohemiancoding.com/sketch)</description>
    <defs></defs>
    <g id="Page 1" fill="#D8D8D8" fill-rule="evenodd">
        <path d="M100,0 C44.771524,0 0,44.771524 0,100 C0,155.228476 44.771524,200 100,200 C155.228476,200 200,155.228476 200,100 C200,44.771524 155.228476,0 100,0 L100,0 L100,0 Z M62.19375,25.95625 C62.79396,25.955744 63.450276,25.978912 64.0875,26.03125 L67.18125,26.2875 L69.925,36.1 C71.434424,41.496062 72.87757,45.701972 73.13125,45.45 C73.38492,45.198036 74.67142,40.78159 75.99375,35.6375 L78.4,26.2875 L82.20625,26.04375 C85.045112,25.86159 86.0125,26.085026 86.0125,26.91875 C86.0125,27.533632 84.030518,34.543142 81.60625,42.5 L77.19375,56.96875 L77.19375,68.275 L77.19375,79.58125 L73.275,79.58125 L69.35625,79.58125 L69.01875,67.3625 L68.68125,55.1375 L63.85,40.8375 C60.401736,30.629396 59.306578,26.427142 60.0125,26.15625 C60.352428,26.02581 61.193402,25.957094 62.19375,25.95625 L62.19375,25.95625 L62.19375,25.95625 Z M114.0625,39.5125 L117.66875,39.5125 L121.275,39.5125 L121.275,56.3375 L121.275,73.16875 L123.15625,73.16875 C127.28884,73.16875 127.6875,71.557936 127.6875,54.875 L127.6875,39.5125 L131.29375,39.5125 L134.9,39.5125 L134.9,59.54375 L134.9,79.58125 L131.29375,79.58125 C128.221676,79.58125 127.6875,79.346614 127.6875,77.98125 C127.6875,75.95247 127.560478,75.965052 124,78.38125 C120.433568,80.801496 117.808254,80.927004 115.6625,78.78125 C114.150622,77.269372 114.0625,76.108366 114.0625,58.34375 L114.0625,39.5125 L114.0625,39.5125 Z M97.28125,39.51875 C99.311122,39.524168 101.375088,39.97052 102.90625,40.875 C106.985168,43.284476 107.653326,45.984198 107.65,60.06875 C107.6476,71.252428 107.4587,73.07841 106.08125,75.3375 C103.06966,80.276676 96.743228,81.785296 91.775,78.75625 C87.5674,76.19094 86.8125,73.274706 86.8125,59.53125 C86.8125,46.424642 87.32971,44.31411 91.3125,41.18125 C92.7213,40.073086 94.980728,39.51261 97.28125,39.51875 L97.28125,39.51875 L97.28125,39.51875 Z M97.23125,45.93125 C96.785424,45.93125 96.342066,46.090786 95.83125,46.4125 C94.624958,47.172222 94.391932,48.854844 94.19375,58.43125 C93.9088,72.200128 94.110956,73.16875 97.23125,73.16875 C99.026428,73.16875 99.71267,72.732456 100.05,71.36875 C100.29532,70.377004 100.395484,64.554842 100.26875,58.43125 C100.070568,48.854844 99.837542,47.172222 98.63125,46.4125 C98.120434,46.090786 97.677076,45.93125 97.23125,45.93125 L97.23125,45.93125 L97.23125,45.93125 Z M97.00625,88.74375 C118.979628,88.693202 143.370098,89.624844 147.71875,90.9625 C151.66057,92.175028 154.738778,94.509286 156.25625,97.44375 C160.548432,105.743908 161.605614,140.90753 158.09375,158.56875 C157.199504,163.065956 153.765476,167.857096 150.06875,169.76875 C146.376096,171.678296 105.460906,173.567852 84.8125,172.78125 C67.83535,172.134504 51.967074,170.80199 49.64375,169.83125 C45.82195,168.234398 42.127834,163.334574 41.15625,158.56875 C39.803012,151.930894 38.633578,131.809036 39.15,124.0625 C40.64431,101.647166 41.870248,96.674694 46.75,93.2 C50.56951,90.480276 52.899142,90.166872 76.675,89.14375 C82.630708,88.887466 89.68179,88.7606 97.00625,88.74375 L97.00625,88.74375 L97.00625,88.74375 Z M47.54375,102.01875 L47.54375,106.025 L47.54375,110.0375 L51.95,110.0375 L56.3625,110.0375 L56.3625,133.275 L56.3625,156.51875 L60.76875,156.51875 L65.175,156.51875 L65.175,133.275 L65.175,110.0375 L69.58125,110.0375 L73.99375,110.0375 L73.99375,106.025 L73.99375,102.01875 L60.76875,102.01875 L47.54375,102.01875 L47.54375,102.01875 Z M102.0375,102.01875 L102.0375,129.26875 L102.0375,156.51875 L105.64375,156.51875 C108.697432,156.51875 109.25,156.274238 109.25,154.9375 C109.25,153.44028 109.402464,153.460242 112.16875,155.3375 C115.837434,157.82714 118.174644,157.842664 121.03125,155.3875 L123.275,153.45 L123.5,137.15625 C123.707212,121.998552 123.61299,120.672128 122.1125,118.25 C120.08242,114.972988 115.82216,114.454884 111.91875,117.0125 L110.05625,118.23125 L110.05625,110.125 L110.05625,102.01875 L106.05,102.01875 L102.0375,102.01875 L102.0375,102.01875 Z M140.15,115.48125 C137.835564,115.477726 135.587726,116.001038 134.18125,117.03125 C130.021494,120.078168 129.29375,122.930012 129.29375,136.08125 C129.29375,149.718286 130.03258,152.288044 134.9,155.56875 C138.786522,158.18833 144.386056,157.709306 147.775,154.4625 C150.362748,151.98328 152.047482,147.589534 151.60625,144.4625 C151.361786,142.729954 150.86949,142.465004 147.51875,142.25 L143.7125,142.00625 L143.7125,145.15625 C143.7125,148.70211 142.289546,150.359638 139.58125,149.96875 C137.494784,149.66762 136.699868,147.526648 136.58125,141.91875 L136.5,138.14375 L143.9125,137.9125 L151.325,137.68125 L151.2875,130.46875 C151.245266,122.117982 149.961246,118.834424 145.90625,116.7375 C144.288482,115.90092 142.19215,115.48436 140.15,115.48125 L140.15,115.48125 L140.15,115.48125 Z M88.41875,115.55625 L88.41875,131.23125 C88.41875,145.989924 88.318366,146.994132 86.7625,148.55 C85.853844,149.458656 84.500504,150.086802 83.75625,149.94375 C82.54514,149.710964 82.38108,147.89489 82.1875,132.6625 L81.975,115.64375 L78.43125,115.64375 C76.482538,115.64375 74.648244,116.033786 74.35625,116.50625 C74.064256,116.978706 74.088594,125.679654 74.4125,135.84375 C74.938602,152.352916 75.162212,154.480962 76.5,155.81875 C78.202126,157.520884 80.50845,157.734162 83.0625,156.41875 C84.025266,155.922892 85.620752,154.77831 86.6125,153.875 L88.41875,152.23125 L88.41875,154.375 C88.41875,156.380844 88.649818,156.51875 92.025,156.51875 L95.63125,156.51875 L95.8,140.4875 C95.893244,131.671978 95.98305,122.564074 96,120.25 L96.03125,116.04375 L92.225,115.8 L88.41875,115.55625 L88.41875,115.55625 Z M140.68125,122.13125 C141.217182,122.11195 141.622196,122.47844 142.45625,123.3125 C143.221958,124.078208 143.7125,125.96709 143.7125,128.125 L143.7125,131.675 L140.55625,131.675 C138.81916,131.675 137.163658,131.300706 136.88125,130.84375 C135.945746,129.330068 137.393824,123.663208 138.925,122.84375 C139.76739,122.392918 140.264414,122.146262 140.68125,122.13125 L140.68125,122.13125 L140.68125,122.13125 Z M113.20625,122.33125 C113.715718,122.342506 114.162516,122.61252 114.71875,123.16875 C115.701912,124.15192 116.06544,126.676262 116.3125,134.26875 C116.69987,146.172968 116.00421,149.603638 113.14375,149.94375 C112.029556,150.076222 110.776446,149.717 110.35625,149.14375 C109.917694,148.545432 109.718522,142.8909 109.89375,135.86875 C110.17559,124.57399 110.326834,123.570546 111.825,122.76875 C112.376738,122.473468 112.809998,122.322494 113.20625,122.33125 L113.20625,122.33125 L113.20625,122.33125 Z M113.20625,122.33125" id="YouTube" fill="#009BCD"></path>
    </g>
</svg>