<svg xmlns="http://www.w3.org/2000/svg" xmlns:xlink="http://www.w3.org/1999/xlink" viewBox="0 0 53 53">
  <defs>
    <clipPath id="a">
      <circle cx="26.5" cy="26.5" r="22" style="fill: none"/>
    </clipPath>
  </defs>
  <title>facebook</title>
  <g>
    <circle cx="26.5" cy="26.5" r="25" style="fill: none;stroke: #009bcd;stroke-miterlimit: 10;stroke-width: 3px"/>
    <g style="clip-path: url(#a)">
      <g>
        <line x1="10.9188" y1="7.4656" x2="42.77" y2="7.4656" style="fill: none;stroke: #009bcd;stroke-linecap: square;stroke-miterlimit: 10;stroke-width: 0.25px"/>
        <line x1="13.0401" y1="5.3443" x2="39.3555" y2="5.3443" style="fill: none;stroke: #009bcd;stroke-linecap: square;stroke-miterlimit: 10;stroke-width: 0.25px"/>
        <line x1="16.5625" y1="3.2229" x2="35.5698" y2="3.2229" style="fill: none;stroke: #009bcd;stroke-linecap: square;stroke-miterlimit: 10;stroke-width: 0.25px"/>
        <line x1="8.7975" y1="9.5869" x2="44.8599" y2="9.5869" style="fill: none;stroke: #009bcd;stroke-linecap: square;stroke-miterlimit: 10;stroke-width: 0.25px"/>
        <line x1="6.6762" y1="11.7082" x2="46.3309" y2="11.7082" style="fill: none;stroke: #009bcd;stroke-linecap: square;stroke-miterlimit: 10;stroke-width: 0.25px"/>
        <line x1="4.5549" y1="13.8295" x2="47.6884" y2="13.8295" style="fill: none;stroke: #009bcd;stroke-linecap: square;stroke-miterlimit: 10;stroke-width: 0.25px"/>
        <line x1="3.8422" y1="15.9509" x2="48.5909" y2="15.9509" style="fill: none;stroke: #009bcd;stroke-linecap: square;stroke-miterlimit: 10;stroke-width: 0.25px"/>
        <line x1="3.1353" y1="18.0722" x2="49.8147" y2="18.0722" style="fill: none;stroke: #009bcd;stroke-linecap: square;stroke-miterlimit: 10;stroke-width: 0.25px"/>
        <line x1="2.4297" y1="20.1935" x2="50.522" y2="20.1935" style="fill: none;stroke: #009bcd;stroke-linecap: square;stroke-miterlimit: 10;stroke-width: 0.25px"/>
        <line x1="1.7225" y1="22.3148" x2="51.229" y2="22.3148" style="fill: none;stroke: #009bcd;stroke-linecap: square;stroke-miterlimit: 10;stroke-width: 0.25px"/>
        <line x1="1.7264" y1="24.4361" x2="51.2239" y2="24.4361" style="fill: none;stroke: #009bcd;stroke-linecap: square;stroke-miterlimit: 10;stroke-width: 0.25px"/>
        <line x1="1.7222" y1="26.5575" x2="51.229" y2="26.5575" style="fill: none;stroke: #009bcd;stroke-linecap: square;stroke-miterlimit: 10;stroke-width: 0.25px"/>
        <line x1="1.7264" y1="28.6788" x2="51.2239" y2="28.6788" style="fill: none;stroke: #009bcd;stroke-linecap: square;stroke-miterlimit: 10;stroke-width: 0.25px"/>
        <line x1="1.7219" y1="30.8001" x2="51.229" y2="30.8001" style="fill: none;stroke: #009bcd;stroke-linecap: square;stroke-miterlimit: 10;stroke-width: 0.25px"/>
        <line x1="2.4287" y1="32.9214" x2="50.522" y2="32.9214" style="fill: none;stroke: #009bcd;stroke-linecap: square;stroke-miterlimit: 10;stroke-width: 0.25px"/>
        <line x1="3.095" y1="35.0427" x2="49.815" y2="35.0427" style="fill: none;stroke: #009bcd;stroke-linecap: square;stroke-miterlimit: 10;stroke-width: 0.25px"/>
        <line x1="3.7993" y1="37.1641" x2="49.1081" y2="37.1641" style="fill: none;stroke: #009bcd;stroke-linecap: square;stroke-miterlimit: 10;stroke-width: 0.25px"/>
        <line x1="4.5491" y1="39.2854" x2="48.1642" y2="39.2854" style="fill: none;stroke: #009bcd;stroke-linecap: square;stroke-miterlimit: 10;stroke-width: 0.25px"/>
        <line x1="5.9441" y1="41.4067" x2="46.0429" y2="41.4067" style="fill: none;stroke: #009bcd;stroke-linecap: square;stroke-miterlimit: 10;stroke-width: 0.25px"/>
        <line x1="8.0625" y1="43.528" x2="43.9216" y2="43.528" style="fill: none;stroke: #009bcd;stroke-linecap: square;stroke-miterlimit: 10;stroke-width: 0.25px"/>
        <line x1="10.2117" y1="45.6493" x2="41.8002" y2="45.6493" style="fill: none;stroke: #009bcd;stroke-linecap: square;stroke-miterlimit: 10;stroke-width: 0.25px"/>
        <line x1="13.0308" y1="47.7707" x2="39.6789" y2="47.7707" style="fill: none;stroke: #009bcd;stroke-linecap: square;stroke-miterlimit: 10;stroke-width: 0.25px"/>
        <line x1="18.2257" y1="49.892" x2="36.3884" y2="49.892" style="fill: none;stroke: #009bcd;stroke-linecap: square;stroke-miterlimit: 10;stroke-width: 0.25px"/>
      </g>
    </g>
    <path d="M29.5,51.7513V33.41h6l1-7.0351h-7V21.6005c-.0315-1.9651.54-3.3751,3.5-3.2663h3.75V11.8015c-.6509-.0566-2.8834-.2512-5.5-.2512-5.4039,0-9.1166,3.33-9,9.5477v5.2764H16V33.41h6.25V51.7513H29.5" style="fill: #009bcd;fill-rule: evenodd"/>
  </g>
</svg>
